<?xml version="1.0" encoding="utf-8"?>
<!-- Generator: Adobe Illustrator 22.0.1, SVG Export Plug-In . SVG Version: 6.00 Build 0)  -->
<svg version="1.1" id="Layer_1" xmlns="http://www.w3.org/2000/svg" xmlns:xlink="http://www.w3.org/1999/xlink" x="0px" y="0px"
	 viewBox="0 0 1000 446.1" style="enable-background:new 0 0 1000 446.1;" xml:space="preserve">
<style type="text/css">
	.st0{clip-path:url(#SVGID_5_);}
	.st1{clip-path:url(#SVGID_6_);fill:url(#SVGID_7_);}
	.st2{fill:#F0F3F7;}
	.st3{fill:#E32332;}
	.st4{fill:#020202;}
	.st5{fill:#FEFEFE;}
	.st6{fill:#DC977D;}
	.st7{fill:#EAEAEA;}
	.st8{fill:#050505;}
	.st9{fill:#1E1E1E;}
	.st10{fill:#E6E6E6;}
	.st11{fill:#F6B096;}
	.st12{fill:#999999;}
	.st13{fill:#183D81;}
	.st14{fill:#333333;}
	.st15{fill:#1A1A1A;}
	.st16{fill:#808080;}
	.st17{fill:#B3B3B3;}
	.st18{fill:#CCCCCC;}
	.st19{fill:#0A0A0A;}
	.st20{fill:#FFFFFF;}
	.st21{fill:#A80403;}
	.st22{opacity:0.2;enable-background:new    ;}
</style>
<g id="OBJECTS">
</g>
<g>
	<g>
		<g>
			<defs>
				<polygon id="SVGID_1_" points="1,1 2,1 1,2 				"/>
			</defs>
			<clipPath id="SVGID_2_">
				<use xlink:href="#SVGID_1_"  style="overflow:visible;"/>
			</clipPath>
		</g>
		<g>
			<defs>
				<polygon id="SVGID_3_" points="1,1 2,1 1,2 				"/>
			</defs>
			<defs>
				<polygon id="SVGID_4_" points="-1,-1 -2,-1 -1,-2 				"/>
			</defs>
			<clipPath id="SVGID_5_">
				<use xlink:href="#SVGID_3_"  style="overflow:visible;"/>
			</clipPath>
			<clipPath id="SVGID_6_" class="st0">
				<use xlink:href="#SVGID_4_"  style="overflow:visible;"/>
			</clipPath>
			
				<linearGradient id="SVGID_7_" gradientUnits="userSpaceOnUse" x1="518.0244" y1="227.8136" x2="518.7376" y2="-259.1649" gradientTransform="matrix(1 0 0 1 0 246)">
				<stop  offset="0" style="stop-color:#000000"/>
				<stop  offset="8.978744e-02" style="stop-color:#0D0D0D"/>
				<stop  offset="0.2564" style="stop-color:#303030"/>
				<stop  offset="0.4815" style="stop-color:#686868"/>
				<stop  offset="0.7531" style="stop-color:#B4B4B4"/>
				<stop  offset="1" style="stop-color:#FFFFFF"/>
			</linearGradient>
			<path class="st1" d="M857.9,421.7c-33,2.8-176.5,4.9-348.5,4.9c-150.5,0-279.2-1.6-331.1-3.9c0-1.5,0.1-3,0.1-4.5
				c0-286.8,156.5-400.4,339.7-400.4c183.5,0,339.7,118.7,339.7,401.4C857.8,420,857.9,420.8,857.9,421.7z"/>
		</g>
	</g>
</g>
<path class="st2" d="M825.5,398.9c-173.5-0.3-160.8-0.7-320.3-2.6c-132-1.5-260.7,5.6-308.8,3.5c0-1.4,0.1-2.8,0.1-4.2
	C196.5,130.2,341.4,25,511,25c169.9,0,314.4,109.9,314.4,371.6C825.4,397.3,825.5,398,825.5,398.9z"/>
<g>
	<path class="st3" d="M820.1,112.2v174.3H839V332h-18.9v46.9h-66.4V332h-79.2v-45.5l57.6-174.3H820.1L820.1,112.2z M753.7,286.5
		V173.1l-29.6,113.5h29.6V286.5z"/>
	<path class="st4" d="M511,95.8c41.8,0,79.7,16.9,107.1,44.3c27.4,27.4,44.3,65.3,44.3,107.1s-16.9,79.7-44.3,107.1
		c-27.4,27.4-65.3,44.3-107.1,44.3s-79.7-16.9-107.1-44.3c-27.4-27.4-44.3-65.3-44.3-107.1s16.9-79.7,44.3-107.1
		C431.3,112.8,469.2,95.8,511,95.8L511,95.8z M570.3,188c-15.2-15.2-36.1-24.6-59.3-24.6s-44.1,9.4-59.3,24.6s-24.6,36.1-24.6,59.3
		s9.4,44.1,24.6,59.3s36.1,24.6,59.3,24.6c23.2,0,44.1-9.4,59.3-24.6s24.6-36.1,24.6-59.3C594.8,224.1,585.4,203.1,570.3,188z"/>
	<path class="st3" d="M328.6,112.2v174.3h18.9V332h-18.9v46.9h-66.4V332h-79.3v-45.5l57.6-174.3H328.6L328.6,112.2z M262.2,286.5
		V173.1l-29.6,113.5h29.6V286.5z"/>
	<g>
		<g>
			<path d="M559.9,293.5l2,20.3c-14.1,10.8-31.8,17.3-51,17.3c-0.2,0-0.5,0-0.7,0l3.9-39.1L559.9,293.5z"/>
			<path d="M504.7,293.5l3.7,37.5c-19.6-0.6-37.5-7.9-51.4-19.6l1.9-19.4L504.7,293.5z"/>
		</g>
		<path class="st5" d="M429.4,179.9c-2.2-15.9-0.8-29.8-0.3-38.9c13-1.5,24-3.1,37.2-4.6c13.4-1.6,26.8-3.1,40.4-4.7
			c1.4,0.2,2.8,0.4,4.3,0.5c1.4-0.2,2.8-0.3,4.2-0.5c13.6,1.6,27,3.2,40.4,4.7c13.2,1.6,24.2,3.1,37.3,4.6c0.4,9.1,1.9,23-0.4,38.9
			c-5.4,38.4-10,77-13,115.8c-2.7,3.9-5.8,7.5-9.2,10.9c-15.2,15.2-36.1,24.6-59.3,24.6s-44.1-9.4-59.3-24.6
			c-3.4-3.4-6.5-7-9.2-10.9C439.5,256.9,434.8,218.3,429.4,179.9z"/>
		<ellipse class="st6" cx="511" cy="126.2" rx="30.1" ry="39.1"/>
		<g>
			<polygon class="st7" points="510.8,155.4 481.3,138.3 492.2,182.3 511,253.3 540.6,138.8 			"/>
			<polygon class="st8" points="511,155.4 517.1,162.4 512.2,169.5 518.1,224.5 511,253.2 503.8,224.5 509.8,169.5 504.9,162.4 			
				"/>
			<g>
				<polygon class="st9" points="511,155.4 500.3,167.8 477.7,145.9 480.1,137.1 				"/>
				<polygon class="st9" points="511,155.4 521.6,167.8 544.2,145.9 541.9,137.1 				"/>
			</g>
			<g>
				<polygon class="st10" points="481.2,132.1 462.4,141.1 465,166.3 486.7,173.5 468.2,185.2 511,253.3 				"/>
				<polygon class="st10" points="540.7,132.1 559.5,141.1 557,166.3 535.2,173.5 553.8,185.2 511,253.3 				"/>
			</g>
		</g>
		<g>
			<g>
				<g>
					<path class="st11" d="M348.3,87.1c-1.3,1.9-4.6,0.8-6,0.3l-4.6-35c0-1.3,0.3-2.5,0.9-3.6c0.5-1,1.6-1.5,2.7-1.3
						s1.9,1.1,2.1,2.2l2.8,21.4L348.3,87.1z"/>
					<path class="st11" d="M341.1,83.1c-1,2-4.4,1.8-5.8,1.6l-11.1-31.1c-0.3-1.2-0.2-2.5,0.3-3.6c0.4-1,1.3-1.6,2.4-1.6
						s2,0.7,2.3,1.7L336,69L341.1,83.1z"/>
					<path class="st11" d="M335,84.8c-0.5,2-3.6,2.5-4.9,2.6l-16.5-26.1c-0.7-1.5-0.6-3.2,0.1-4.7c0.3-0.6,0.9-1,1.6-1.1
						c0.7,0,1.4,0.3,1.7,0.9L327.6,73L335,84.8z"/>
					<path class="st11" d="M330.8,97.4c-0.4,1.9-3.3,2.3-4.5,2.4l-18.9-30.3c-0.6-1.3-0.5-2.6,0.1-3.9c0.3-0.6,0.9-1,1.6-1.1
						c0.7,0,1.3,0.3,1.7,0.9l9.5,15.2L330.8,97.4z"/>
					<path class="st11" d="M361.9,78c-4.5,7.5-5.2,18.3-11.5,20.5c-3.9,1.4-8-0.4-9.3-4s0.8-7.6,4.7-9c2-0.7,4-0.6,5.7,0.1l2-3.2
						c-0.4-2.9,1.6-7.2,5.5-8.3c1-0.3,2.1,0.1,2.7,0.9C362.4,76,362.5,77.1,361.9,78z"/>
					<path class="st11" d="M320.8,90.6c-2.2-7.2,5.7-12.5,10.4-14.2c3-1.1,6.3-1.3,9.8-1.1l0,0c3.2-0.2,6.4,1.9,7.8,5.3
						c0,0,0,0.1,0.1,0.1l2.8,7.9c1.7,4.7-0.2,9.6-4.1,11l-13.8,4.9c-3.9,1.4-8.5-1.3-10.1-6l-2.7-7.6L320.8,90.6
						C320.8,90.7,320.8,90.6,320.8,90.6z"/>
					<path class="st6" d="M327.5,90.5c7-1.6,11.5,4.2,12.5,7.1c-1.1-3-1.6-9.9,5.2-13.4L327.5,90.5z"/>
				</g>
				<path class="st9" d="M359,94.8c-5.9,1.2-11.7,2.7-17.2,4.8c-5.6,2.1-10.9,4.9-16.1,7.9c0.6,1.5,1.1,2.9,1.7,4.4s1.1,2.9,1.7,4.4
					c5.2-3,10.5-5.8,16.1-7.9s11.3-3.6,17.2-4.9c-0.6-1.5-1.1-2.9-1.7-4.4C360.1,97.7,359.5,96.2,359,94.8z"/>
				<path class="st5" d="M452,126.2c11.1,6.5,48.5,8.5,46,15.7c-3.6,10.5-104.6,78.7-120.7,77s-44.4-82.6-51.2-103.3
					c11.1-14.1,25.6-15.2,36.5-15.2c11.9,23.2,15.8,34.5,27.2,58.3l44.6-33.9C439.4,120.9,446.4,123,452,126.2z"/>
				<path class="st12" d="M335.8,117c-0.5-1.4-2-2.2-3.4-1.7s-2.2,2-1.7,3.4s2,2.2,3.4,1.7C335.5,119.9,336.3,118.4,335.8,117
					L335.8,117z M338.6,125.4c-0.5-1.4-2-2.2-3.4-1.7s-2.2,2-1.7,3.4c0.5,1.4,2,2.2,3.4,1.7C338.4,128.3,339.1,126.8,338.6,125.4z"
					/>
			</g>
			<g>
				<g>
					<path class="st11" d="M673.6,87.1c1.3,1.9,4.6,0.8,6,0.3l4.6-35c0-1.3-0.3-2.5-0.9-3.6c-0.5-1-1.6-1.5-2.7-1.3
						c-1.1,0.2-1.9,1.1-2.1,2.2l-2.8,21.4L673.6,87.1z"/>
					<path class="st11" d="M680.8,83.1c1,2,4.4,1.8,5.8,1.6l11.1-31.1c0.3-1.2,0.2-2.5-0.3-3.6c-0.4-1-1.3-1.6-2.4-1.6
						c-1.1,0-2,0.7-2.3,1.7L685.9,69L680.8,83.1z"/>
					<path class="st11" d="M687,84.8c0.5,2,3.6,2.5,4.9,2.6l16.5-26.1c0.7-1.5,0.6-3.2-0.1-4.7c-0.3-0.6-0.9-1-1.6-1.1
						c-0.7,0-1.4,0.3-1.7,0.9L694.4,73L687,84.8z"/>
					<path class="st11" d="M691.1,97.4c0.4,1.9,3.3,2.3,4.5,2.4l18.9-30.3c0.6-1.3,0.5-2.6-0.1-3.9c-0.3-0.6-0.9-1-1.6-1.1
						c-0.7,0-1.3,0.3-1.7,0.9l-9.5,15.2L691.1,97.4z"/>
					<path class="st11" d="M660,78c4.5,7.5,5.2,18.3,11.5,20.5c3.9,1.4,8-0.4,9.3-4s-0.8-7.6-4.7-9c-2-0.7-4-0.6-5.7,0.1l-2-3.2
						c0.4-2.9-1.6-7.2-5.5-8.3c-1-0.3-2.1,0.1-2.7,0.9C659.5,76,659.5,77.1,660,78z"/>
					<path class="st11" d="M701.1,90.6c2.2-7.2-5.7-12.5-10.4-14.2c-3-1.1-6.3-1.3-9.8-1.1l0,0c-3.2-0.2-6.4,1.9-7.8,5.3
						c0,0,0,0.1-0.1,0.1l-2.8,7.9c-1.7,4.7,0.2,9.6,4.1,11l13.8,4.9c3.9,1.4,8.5-1.3,10.1-6L701,91L701.1,90.6L701.1,90.6z"/>
					<path class="st6" d="M694.4,90.5c-7-1.6-11.5,4.2-12.5,7.1c1.1-3,1.6-9.9-5.2-13.4L694.4,90.5z"/>
				</g>
				<path class="st8" d="M663,94.8c5.9,1.2,11.7,2.7,17.2,4.8c5.6,2.1,10.9,4.9,16.1,7.9c-0.6,1.5-1.1,2.9-1.7,4.4
					c-0.6,1.5-1.1,2.9-1.7,4.4c-5.2-3-10.5-5.8-16.1-7.9s-11.3-3.6-17.2-4.9c0.6-1.5,1.1-2.9,1.7-4.4
					C661.9,97.7,662.4,96.2,663,94.8z"/>
				<path class="st5" d="M570,126.2c-11.1,6.5-48.5,8.5-46,15.7c3.6,10.5,104.6,78.7,120.7,77c16.1-1.7,44.4-82.6,51.2-103.3
					c-11.1-14.1-25.6-15.2-36.5-15.2c-11.9,23.2-15.8,34.5-27.2,58.3l-44.6-33.9C582.5,120.9,575.5,123,570,126.2z"/>
				<path class="st12" d="M686.1,117c0.5-1.4,2-2.2,3.4-1.7s2.2,2,1.7,3.4s-2,2.2-3.4,1.7C686.4,119.9,685.6,118.4,686.1,117
					L686.1,117z M683.3,125.4c0.5-1.4,2-2.2,3.4-1.7s2.2,2,1.7,3.4c-0.5,1.4-2,2.2-3.4,1.7S682.8,126.8,683.3,125.4z"/>
			</g>
		</g>
		<g>
			<path class="st13" d="M569.5,197.1L569.5,197.1c-0.7,0-1.3,0.6-1.3,1.3v0.2c0,0.7,0.6,1.3,1.3,1.3l0,0c0.7,0,1.3-0.6,1.3-1.3
				v-0.2C570.9,197.7,570.3,197.1,569.5,197.1z"/>
			<rect x="567.6" y="198.9" class="st14" width="3.8" height="14.5"/>
			<g>
				<path class="st10" d="M571.5,204.7h-32.2v41.4h32.8v-41.4L571.5,204.7L571.5,204.7z M540.6,206.4h30.2v38h-30.2V206.4z"/>
				<rect x="537.9" y="204.7" class="st10" width="35.5" height="11"/>
			</g>
			<rect x="569" y="202.4" class="st15" width="1" height="12.2"/>
		</g>
		<g>
			<g>
				<path class="st16" d="M448.3,209.8l2.3,0.6c3.9,1,7.8,0.3,11-1.6c3.2-1.9,5.7-5,6.7-8.9l8.9-34.6l-2.6-0.7l-8.9,34.6
					c-0.8,3.2-2.8,5.7-5.5,7.3c-2.6,1.6-5.8,2.1-9,1.3l-2.3-0.6L448.3,209.8z"/>
				<path d="M450.3,206.5l-1.9-0.5c-1.2-0.3-2.5,0.4-2.8,1.7l0,0c-0.3,1.2,0.4,2.5,1.7,2.8l1.9,0.5c1.2,0.3,2.5-0.4,2.8-1.7l0,0
					C452.3,208.1,451.6,206.8,450.3,206.5z"/>
			</g>
			<g>
				<path class="st17" d="M476.4,209.8l-2.3,0.6c-3.9,1-7.8,0.3-11-1.6c-3.2-1.9-5.7-5-6.7-8.9l-8.9-34.6l2.6-0.7l8.9,34.6
					c0.8,3.2,2.8,5.7,5.5,7.3c2.6,1.6,5.8,2.1,9,1.3l2.3-0.6L476.4,209.8z"/>
				<path d="M474.4,206.5l1.9-0.5c1.2-0.3,2.5,0.4,2.8,1.7l0,0c0.3,1.2-0.4,2.5-1.7,2.8l-1.9,0.5c-1.2,0.3-2.5-0.4-2.8-1.7l0,0
					C472.4,208.1,473.2,206.8,474.4,206.5z"/>
			</g>
			<path d="M450.9,164.2c0,1.1-0.9,2-2,2s-2-0.9-2-2c0-4.3,1.7-8.2,4.5-11s6.7-4.5,11-4.5s8.2,1.7,11,4.5s4.5,6.7,4.5,11
				c0,1.1-0.9,2-2,2s-2-0.9-2-2c0-3.2-1.3-6-3.4-8.1s-5-3.4-8.1-3.4c-3.2,0-6,1.3-8.1,3.4C452.2,158.2,450.9,161.1,450.9,164.2z"/>
			<path d="M462.4,144L462.4,144c1.1,0,2,0.9,2,2v3.7c0,1.1-0.9,2-2,2l0,0c-1.1,0-2-0.9-2-2V146C460.4,144.9,461.3,144,462.4,144z"
				/>
			<path d="M461.1,145.8c0-0.1-2.7-23.2,47.3-23v2.7c-47-0.2-44.7,20-44.7,20.1L461.1,145.8z"/>
		</g>
		<g>
			<path class="st18" d="M557.8,174.8c2.8,0,5.1,2.3,5.1,5.1s-2.3,5.1-5.1,5.1s-5.1-2.3-5.1-5.1S555,174.8,557.8,174.8z"/>
			<path class="st10" d="M557.2,174.8c2.8,0,5.1,2.3,5.1,5.1s-2.3,5.1-5.1,5.1s-5.1-2.3-5.1-5.1
				C552.1,177.1,554.4,174.8,557.2,174.8z"/>
			<path class="st12" d="M557.3,176.6c1.8,0,3.3,1.5,3.3,3.3s-1.5,3.3-3.3,3.3s-3.3-1.5-3.3-3.3C554,178,555.4,176.6,557.3,176.6z"
				/>
			<path class="st19" d="M510.2,125.1c-0.7,0-1.3-0.6-1.3-1.3c0-0.7,0.6-1.3,1.3-1.3c11.3,0,19.8,1.1,26.3,2.9
				c8.4,2.3,13.4,5.6,16.5,8.9c5,5.4,4.8,11.2,4.6,17.4c0,1.1-0.1,2.2-0.1,3.5v21.1c0,0.7-0.6,1.3-1.3,1.3s-1.3-0.6-1.3-1.3v-21.1
				c0-1.1,0-2.3,0.1-3.6c0.2-5.7,0.3-11-3.9-15.6c-2.7-3-7.4-6-15.2-8.2C529.6,126.2,521.2,125.1,510.2,125.1z"/>
			<path class="st18" d="M555.4,176.6c1.8,0,3.3,1.5,3.3,3.3s-1.5,3.3-3.3,3.3s-3.3-1.5-3.3-3.3C552.1,178,553.6,176.6,555.4,176.6z
				"/>
		</g>
		<path class="st10" d="M485.3,325.9l-2,0.5c0.8,0.3,1.6,0.5,2.4,0.8L485.3,325.9z"/>
		<g>
			<g>
				<rect x="506.5" y="262.5" class="st10" width="8.9" height="2.2"/>
				<path class="st12" d="M511,260.5c1.7,0,3.1,1.4,3.1,3.1s-1.4,3.1-3.1,3.1c-1.7,0-3.1-1.4-3.1-3.1
					C507.9,261.9,509.3,260.5,511,260.5z"/>
			</g>
			<g>
				<rect x="506.5" y="309" class="st10" width="8.9" height="2.2"/>
				<path class="st12" d="M511,307c1.7,0,3.1,1.4,3.1,3.1s-1.4,3.1-3.1,3.1c-1.7,0-3.1-1.4-3.1-3.1C507.9,308.4,509.3,307,511,307z"
					/>
			</g>
		</g>
		<g>
			<g>
				<g>
					<path class="st11" d="M551.8,112.4c4.4,0,7.9,3.9,7.9,8.6c0,4.8-3.6,8.6-7.9,8.6s-7.9-3.9-7.9-8.6
						C543.8,116.3,547.4,112.4,551.8,112.4z"/>
					<path class="st6" d="M551.8,116.6c2.3,0,4.2,2,4.2,4.5s-1.9,4.5-4.2,4.5s-4.2-2-4.2-4.5S549.5,116.6,551.8,116.6z"/>
				</g>
				<g>
					<path class="st11" d="M470.2,112.4c4.4,0,7.9,3.9,7.9,8.6c0,4.8-3.6,8.6-7.9,8.6c-4.4,0-7.9-3.9-7.9-8.6
						C462.2,116.3,465.8,112.4,470.2,112.4z"/>
					<path class="st6" d="M470.2,116.6c2.3,0,4.2,2,4.2,4.5s-1.9,4.5-4.2,4.5c-2.3,0-4.2-2-4.2-4.5S467.9,116.6,470.2,116.6z"/>
				</g>
			</g>
			<path class="st11" d="M498.4,158.7c-10.5-10.2-26-16.9-26-16.9v-34.5c0,0-1-44.5,37.7-40.3c38.8-4.2,39.8,40.3,39.8,40.3v34.5
				c0,0-16.1,8.5-25.9,16.9c-4-1.2-8.3-1.8-12.8-1.8C506.6,156.9,502.3,157.5,498.4,158.7z"/>
			<path class="st10" d="M498.4,158.7c-2.7-2.6-5.8-5-8.8-7.1c-0.1-0.7-0.1-1.5-0.1-2.2c0-14,9.7-25.3,21.6-25.3
				s21.6,11.3,21.6,25.3c0,1,0,1.9-0.1,2.9c-3,2.1-6,4.3-8.6,6.5c-4-1.2-8.3-1.8-12.8-1.8C506.6,156.9,502.3,157.5,498.4,158.7z"/>
			<path class="st10" d="M542.1,78.7c0,0-4.8,9.3-3.8,17.2s9.1,17.6,7.1,27.4s-3.5,11.4-3.5,11.4l9.2-7.6
				C551.2,127.2,555.6,94.5,542.1,78.7z"/>
			<path class="st10" d="M478.8,78.7c0,0,4.8,9.3,3.8,17.2s-9.1,17.6-7.1,27.4s3.5,11.4,3.5,11.4l-9.2-7.6
				C469.8,127.2,465.3,94.5,478.8,78.7z"/>
			<g>
				<path class="st6" d="M517.7,120.8c-0.9,2-5.5,3.9-7,4.4c-1.4-0.5-6.1-2.5-7-4.4c2,0.5,4.4,0.9,7,0.9
					C513.2,121.7,515.6,121.4,517.7,120.8z"/>
				<path class="st6" d="M518.4,99.1c0,0-9.1,11.4-0.8,21.7l-1.4,0.8C511.1,113.7,512.8,106,518.4,99.1z"/>
			</g>
			<path class="st10" d="M496.2,90.2c2.5-1.4,5.4-1.3,7.6,0.2l-11.2,6.5C492.5,94.3,493.8,91.6,496.2,90.2z"/>
			<path class="st10" d="M529.2,90.2c-2.5-1.4-5.4-1.3-7.6,0.2l11.2,6.5C532.9,94.3,531.6,91.6,529.2,90.2z"/>
			<path class="st20" d="M498.7,100.1c3.4,0,6.2,3.4,6.2,7.7c0,4.2-2.8,7.7-6.2,7.7c-3.4,0-6.2-3.4-6.2-7.7S495.3,100.1,498.7,100.1
				z"/>
			<path class="st3" d="M497.1,101.3c-1.6,0-2.9,1.3-2.9,2.9s1.3,2.9,2.9,2.9s2.9-1.3,2.9-2.9C500,102.6,498.7,101.3,497.1,101.3z"
				/>
			<path class="st20" d="M499,101c-0.7,0-1.3,0.6-1.3,1.3c0,0.7,0.6,1.3,1.3,1.3c0.7,0,1.3-0.6,1.3-1.3S499.7,101,499,101z"/>
			<path class="st20" d="M496.3,105.1c-0.4,0-0.8,0.4-0.8,0.8s0.4,0.8,0.8,0.8s0.8-0.4,0.8-0.8C497.1,105.4,496.8,105.1,496.3,105.1
				z"/>
			<path d="M497.1,102.5c-0.9,0-1.6,0.7-1.6,1.6s0.7,1.6,1.6,1.6s1.6-0.7,1.6-1.6S498,102.5,497.1,102.5z"/>
			<path class="st20" d="M524.6,100.1c3.4,0,6.2,3.4,6.2,7.7c0,4.2-2.8,7.7-6.2,7.7s-6.2-3.4-6.2-7.7
				C518.4,103.5,521.2,100.1,524.6,100.1z"/>
			<g>
				<path class="st3" d="M522.9,101.3c-1.6,0-2.9,1.3-2.9,2.9s1.3,2.9,2.9,2.9c1.6,0,2.9-1.3,2.9-2.9
					C525.8,102.6,524.5,101.3,522.9,101.3z"/>
				<path class="st20" d="M524.8,101c-0.7,0-1.3,0.6-1.3,1.3c0,0.7,0.6,1.3,1.3,1.3s1.3-0.6,1.3-1.3C526,101.6,525.5,101,524.8,101z
					"/>
				<path class="st20" d="M522.1,105.1c-0.4,0-0.8,0.4-0.8,0.8s0.4,0.8,0.8,0.8s0.8-0.4,0.8-0.8
					C522.9,105.4,522.5,105.1,522.1,105.1z"/>
				<path d="M522.9,102.5c-0.9,0-1.6,0.7-1.6,1.6s0.7,1.6,1.6,1.6c0.9,0,1.6-0.7,1.6-1.6S523.7,102.5,522.9,102.5z"/>
			</g>
			<path d="M516.5,107.6c-0.2,0.5-0.3,1-0.4,1.5c-0.1,0.5-0.1,1-0.1,1.6c-0.1-0.1-0.2-0.1-0.2-0.2c-0.9-0.7-2.1-1.1-3.3-1.1
				c-1,0-2,0.3-2.8,0.8c-0.2,0.1-0.4,0.3-0.6,0.4c0-0.5-0.1-1-0.1-1.5c-0.1-0.5-0.2-1-0.4-1.5l-0.2-0.4h-16.8l-0.2,0.4
				c-0.2,0.5-0.3,1-0.4,1.5s-0.1,1-0.1,1.6c0,2.5,1,4.8,2.7,6.5s3.9,2.7,6.5,2.7c2.5,0,4.8-1,6.5-2.7c1.2-1.2,2-2.6,2.4-4.3
				c0.4-0.7,0.9-1.2,1.6-1.6c0.6-0.4,1.4-0.6,2.1-0.6c0.9,0,1.8,0.3,2.5,0.8c0.6,0.5,1.1,1.1,1.4,1.9c0.4,1.4,1.2,2.7,2.3,3.7
				c1.7,1.7,3.9,2.7,6.5,2.7c2.5,0,4.8-1,6.5-2.7s2.7-3.9,2.7-6.5c0-0.5,0-1.1-0.1-1.6s-0.2-1-0.4-1.5l-0.2-0.4h-16.8L516.5,107.6
				L516.5,107.6z M517.7,113.3c0-0.1,0-0.1-0.1-0.2c-0.2-0.8-0.4-1.6-0.4-2.4c0-0.5,0-0.9,0.1-1.4c0.1-0.3,0.1-0.6,0.2-0.9h14.9
				c0.1,0.3,0.1,0.6,0.2,0.9c0.1,0.4,0.1,0.9,0.1,1.4c0,2.1-0.9,4.1-2.3,5.5c-1.4,1.4-3.4,2.3-5.5,2.3s-4.1-0.9-5.5-2.3
				C518.7,115.4,518.1,114.4,517.7,113.3L517.7,113.3z M492.1,109.3c0.1-0.3,0.1-0.6,0.2-0.9h14.9c0.1,0.3,0.1,0.6,0.2,0.9
				c0.1,0.4,0.1,0.9,0.1,1.4c0,2.1-0.9,4.1-2.3,5.5s-3.4,2.3-5.5,2.3s-4.1-0.9-5.5-2.3s-2.3-3.4-2.3-5.5
				C492,110.2,492,109.8,492.1,109.3z"/>
			<g>
				<path class="st18" d="M517.9,144.9c-4.5,1.8-6,6.5-6,8.5c0-2-1.1-5.9-6-5.4L517.9,144.9z"/>
				<path class="st20" d="M496,140.3c0-3.7,7-6.7,15.6-6.7c7.9,0,12.6,2.1,15.5,5.9c-6.2-5.9-19.3-4.4-24.4-0.7
					C497.5,142.6,496,140.3,496,140.3z"/>
				<path class="st21" d="M526.8,139.2c0.1,0.1,0.2,0.2,0.3,0.3c-6.2-5.9-19.3-4.4-24.4-0.7c-3.9,2.9-5.7,2.2-6.4,1.7
					C501.1,135.6,517.5,131,526.8,139.2z"/>
				<path class="st18" d="M504.9,140.5c0,0-10.1,5.2-11.2,1C492.1,143.6,497,147,504.9,140.5z"/>
			</g>
		</g>
	</g>
</g>
<path class="st22" d="M981.3,411.1c0,1-3.3,2-9.5,2.9c-43.7,6.7-233.4,11.7-460.8,11.7c-199,0-369.1-3.8-437.8-9.3
	c-21-1.7-32.5-3.5-32.5-5.4s11.6-3.7,32.7-5.4c68.8-5.4,238.8-9.3,437.6-9.3c227.2,0,416.8,5,460.7,11.7
	C978,409.1,981.3,410,981.3,411.1z"/>
<g>
	
		<image style="overflow:visible;opacity:0.15;" width="132" height="77" xlink:href="71734F57.png"  transform="matrix(1 0 0 1 107 46.1)">
	</image>
	<g>
		<path class="st20" d="M216.2,100.3c0-0.1,0-0.2,0-0.3c0-6.6-4.5-12.2-10.6-13.8c-1.9-3.6-5.6-6.1-9.8-6.4c0.3-1,0.5-2.1,0.5-3.3
			c0-6.3-5.1-11.3-11.3-11.3c-1.8,0-3.4,0.4-4.9,1.1c-2.6-7-9.3-11.9-17.2-11.9c-9.8,0-17.8,7.7-18.3,17.4
			c-5.5,0.9-9.7,5.7-9.7,11.4c0,0.1,0,0.2,0,0.4c-0.6-0.1-1.3-0.1-1.9-0.1c-9.4,0-17.1,7.4-17.5,16.7H216.2z"/>
	</g>
</g>
<g>
	
		<image style="overflow:visible;opacity:0.15;" width="184" height="82" xlink:href="71734F55.png"  transform="matrix(1 0 0 1 15 59.1)">
	</image>
	<g>
		<path class="st20" d="M176,118.5c0.3-1,0.5-2.1,0.5-3.2c0-6.1-4.9-11-11-11c-1.4,0-2.7,0.2-3.9,0.7c-1.8-7.5-7.4-13.4-14.7-15.7
			c-2.1-8.3-9.7-14.4-18.6-14.4c-2.5,0-4.9,0.5-7.1,1.4c-5.7-5.1-13.3-8.3-21.6-8.3c-10,0-18.9,4.5-24.8,11.6c-1-0.2-2-0.3-3.1-0.3
			c-7.6,0-13.8,5.7-14.8,13c-9.5,0.3-17.4,6.6-20,15.2c-0.5-0.1-1-0.1-1.5-0.1c-6.4,0-11.7,4.9-12.3,11.2H176z"/>
	</g>
</g>
<g>
	
		<image style="overflow:visible;opacity:0.15;" width="132" height="77" xlink:href="71734F5B.png"  transform="matrix(1 0 0 1 839.7048 128.3488)">
	</image>
	<g>
		<path class="st20" d="M948.9,182.6c0-0.1,0-0.2,0-0.3c0-6.6-4.5-12.2-10.6-13.8c-1.9-3.6-5.6-6.1-9.8-6.4c0.3-1,0.5-2.1,0.5-3.3
			c0-6.3-5.1-11.3-11.3-11.3c-1.8,0-3.4,0.4-4.9,1.1c-2.6-7-9.3-11.9-17.2-11.9c-9.8,0-17.8,7.7-18.3,17.4
			c-5.5,0.9-9.7,5.7-9.7,11.4c0,0.1,0,0.2,0,0.4c-0.6-0.1-1.3-0.1-1.9-0.1c-9.4,0-17.1,7.4-17.5,16.7H948.9z"/>
	</g>
</g>
</svg>
