<svg id="Layer_1" data-name="Layer 1" xmlns="http://www.w3.org/2000/svg" viewBox="0 0 100 100"><defs><style>.cls-1{fill:#263863;}.cls-2{fill:#449a4e;}</style></defs><path class="cls-1" d="M51.17,0a79.15,79.15,0,0,1,7.2,6Q73.63,19,88.84,32.19c.12.11.25.21.36.33a1.63,1.63,0,0,1,.18,2.2,1.54,1.54,0,0,1-2.19.18c-1-.78-2-1.63-2.91-2.45L51.38,4.11,51.24,4C50,3,50,2.94,48.76,4L21.55,27.43c-5.74,4.94-11.47,9.9-17.24,14.81-.75.64-.74,1.07-.11,1.72a25.58,25.58,0,0,1,2,2.36c.56.76,1,.65,1.65.1,3.36-2.93,6.74-5.83,10.12-8.74l29.5-25.39a3.51,3.51,0,0,1,5,0l26.63,22.9q6.54,5.64,13.07,11.29c.63.54,1,.58,1.58-.12.69-.9,1.46-1.74,2.23-2.59.46-.51.48-.88-.11-1.35-1.11-.89-2.18-1.85-3.26-2.79s-1.08-1.69-.42-2.47a1.65,1.65,0,0,1,2.43,0c1.25,1,2.5,2.09,3.7,3.18a3.41,3.41,0,0,1,.39,5c-1,1.19-2,2.35-3,3.48a3.44,3.44,0,0,1-5.12.38c-1.16-.94-2.27-2-3.41-2.92-.26-.22-.48-.53-.88-.6-.26.31-.14.69-.14,1V85.3c0,1.32,0,1.32,1.36,1.32,2,0,3.9,0,5.85,0a3.22,3.22,0,0,1,3.52,3.52c0,2.18,0,4.36,0,6.54A3.08,3.08,0,0,1,93.55,100H6.5a3.09,3.09,0,0,1-3.4-3.37q0-3.27,0-6.54a3.21,3.21,0,0,1,3.47-3.47c2,0,4.1,0,6.15,0,.83,0,1.17-.22,1.13-1.1-.06-1.59,0-3.19,0-4.78,0-1.16.6-1.87,1.53-1.91s1.64.73,1.66,1.9c0,1.62,0,3.25,0,4.88,0,.77.27,1,1,1,1,0,2,0,2.93,0s1.06-.27,1.05-1.07c0-5.33,0-10.67,0-16,0-2.46,1-3.45,3.41-3.45H74.53c2.45,0,3.44,1,3.44,3.42,0,5.3,0,10.6,0,15.9,0,1,.3,1.27,1.23,1.21a28.44,28.44,0,0,1,2.92,0c.64,0,.9-.26.85-.88,0-.19,0-.39,0-.58Q83,64.57,83,44a2.54,2.54,0,0,0-1-2.16Q66.36,28.44,50.78,15a1,1,0,0,0-1.57,0Q33.49,28.56,17.71,42.09A2,2,0,0,0,17,43.8q0,14.39,0,28.79A4.13,4.13,0,0,1,16.91,74a1.48,1.48,0,0,1-1.62,1.13,1.52,1.52,0,0,1-1.42-1.38,6.47,6.47,0,0,1,0-1.08V45.78c-.51-.07-.71.28-1,.5-1.09.92-2.16,1.87-3.26,2.8-1.94,1.64-3.89,1.49-5.55-.43-.89-1-1.79-2.06-2.66-3.11a3.47,3.47,0,0,1,.44-5.33c3.9-3.39,7.83-6.74,11.75-10.12L38.15,9c3-2.61,6.06-5.23,9.1-7.83.49-.42,1-.75,1.58-1.13ZM49.9,96.94q21.27,0,42.53,0c.86,0,1.35-.11,1.29-1.14-.07-1.49,0-3,0-4.49s0-1.48-1.5-1.48H30c-7.51,0-15,0-22.54,0-.83,0-1.17.22-1.14,1.1.06,1.56,0,3.12,0,4.68,0,1.34,0,1.34,1.35,1.34ZM25.24,78c0,2.53,0,5.07,0,7.61,0,.8.25,1.08,1.07,1.07q6.83,0,13.66,0c.81,0,1.07-.26,1.06-1.07Q41,78,41,70.44c0-.84-.26-1.14-1.12-1.13q-6.78,0-13.56,0c-.86,0-1.13.28-1.12,1.12C25.26,72.94,25.24,75.44,25.24,78ZM74.77,78c0-2.5,0-5,0-7.51,0-.87-.23-1.2-1.15-1.19-4.49,0-9,0-13.47,0-.88,0-1.18.26-1.18,1.16Q59,78,59,85.5c0,.83.23,1.14,1.1,1.14q6.78-.06,13.56,0c.85,0,1.15-.25,1.13-1.12C74.74,83,74.77,80.51,74.77,78Zm-19,0c0-2.53,0-5.06,0-7.6,0-.78-.21-1.09-1-1.08q-4.77.06-9.55,0c-.84,0-1,.32-1,1.09q0,7.56,0,15.1c0,.83.21,1.15,1.09,1.14q4.72-.08,9.45,0c.89,0,1.1-.32,1.08-1.14C55.77,83,55.8,80.49,55.8,78Z"/><path class="cls-2" d="M60.58,43.87c0,3.12,0,6.24,0,9.37,0,2.46-1.61,3.46-3.84,2.44a1.56,1.56,0,0,1-1-1.42,1.37,1.37,0,0,1,.93-1.46c.65-.21.71-.62.71-1.18,0-5.14,0-10.28,0-15.42,0-.86-.23-1-1-.7-2.76,1-5.53,1.91-8.31,2.81a1.17,1.17,0,0,0-1,1.33q.06,4.24,0,8.49A1.08,1.08,0,0,0,48,49.39c1.06.31,2.1.7,3.13,1.09a1.57,1.57,0,1,1-.94,3c-1.36-.41-2.71-.91-4.06-1.36A7.54,7.54,0,0,0,45,51.8c-.72-.12-1.07.13-1,.94,0,2.15,0,4.29,0,6.44a8.69,8.69,0,0,1-.12,1.45,3.78,3.78,0,0,1-4.34,3.26A3.85,3.85,0,0,1,36.09,60c0-2.44,0-4.88,0-7.32a1.23,1.23,0,0,0-1-1.39,7.91,7.91,0,0,1-5.27-8A8,8,0,0,1,36,36.16a9.87,9.87,0,0,1,3.2-.26,25.77,25.77,0,0,0,12.26-2c1.77-.73,3.62-1.28,5.44-1.88,2.38-.8,3.66.11,3.67,2.61C60.59,37.69,60.58,40.78,60.58,43.87Zm-16.67,0c0-1.31,0-2.61,0-3.91,0-.61-.2-.88-.85-.87-1.85,0-3.71,0-5.56,0a4.7,4.7,0,0,0-4.45,4.77,4.54,4.54,0,0,0,4.39,4.67c1.85.08,3.71,0,5.56,0,.68,0,.93-.28.91-.94C43.89,46.4,43.91,45.13,43.91,43.87ZM40.76,56.14c0-1.17,0-2.34,0-3.51,0-.53-.1-.86-.75-.85s-.73.37-.72.88v7.1c0,.5.11,1,.69,1s.77-.48.77-1Z"/><path class="cls-2" d="M66.62,44.75c-.61,0-1.23,0-1.84,0a1.52,1.52,0,0,1-1.55-1.43,1.4,1.4,0,0,1,1.21-1.62,12.59,12.59,0,0,1,4.54,0,1.38,1.38,0,0,1,1.14,1.58,1.46,1.46,0,0,1-1.36,1.42c-.71.07-1.42,0-2.14,0Z"/><path class="cls-2" d="M69.57,50.78a1.54,1.54,0,0,1-2.35,1.34,26.17,26.17,0,0,1-3-2.45,1.41,1.41,0,0,1-.08-2,1.36,1.36,0,0,1,2-.35c1,.76,2,1.6,3,2.44A1.33,1.33,0,0,1,69.57,50.78Z"/><path class="cls-2" d="M65.46,39.29a1.45,1.45,0,0,1-1.52-.84,1.43,1.43,0,0,1,.24-1.72,37.14,37.14,0,0,1,3-2.45,1.42,1.42,0,0,1,2,.26,1.32,1.32,0,0,1,.19,1.79,13,13,0,0,1-3.5,2.89A.88.88,0,0,1,65.46,39.29Z"/></svg>