<?xml version="1.0" encoding="utf-8"?>
<!-- Generator: Adobe Illustrator 24.2.1, SVG Export Plug-In . SVG Version: 6.00 Build 0)  -->
<svg version="1.1" id="Layer_1" xmlns="http://www.w3.org/2000/svg" xmlns:xlink="http://www.w3.org/1999/xlink" x="0px" y="0px"
	 viewBox="0 0 100 100" style="enable-background:new 0 0 100 100;" xml:space="preserve">
<style type="text/css">
	.st0{fill:#253863;}
	.st1{fill:#459A4E;}
</style>
<g>
	<path class="st0" d="M64.5,0.5c3.6,1.3,4.9,3.2,4.9,7.1c0,3.4,0,6.8,0,10.2c0,1,0.3,1.2,1.2,1.2c1.8-0.1,3.5,0,5.3,0
		c2.5,0,4,1.3,4.1,3.7c0.2,2.5,0.2,5-0.1,7.5c-0.2,1.7-1.5,2.9-3.2,3.1c-2,0.2-4.1,0.1-6.1,0.1c-0.8,0-1.2,0.2-1.2,1.1c0,3,0,6,0,9
		c0,0.7,0.2,1.1,0.9,1.3c1.3,0.5,2.5,1.1,3.7,1.7c1.1,0.5,1.5,1.4,1.1,2.2c-0.4,0.9-1.3,1.1-2.4,0.6c-1.4-0.6-2.7-1.2-4.1-1.8
		c-0.5-0.2-0.9-0.3-1.4-0.1c-5.2,2.3-10.3,4.7-15.5,7c-0.1,0-0.1,0.1-0.3,0.3c1.4,0.7,2.8,1.3,4.2,1.9c3.8,1.7,7.6,3.4,11.4,5.1
		c0.5,0.2,0.9,0.3,1.5,0.1c5.1-2.3,10.2-4.6,15.4-7c0.1-0.1,0.2-0.1,0.5-0.3c-1.5-0.7-2.8-1.3-4.2-1.9c-1.5-0.7-2-1.5-1.5-2.5
		c0.5-1,1.3-1.1,2.8-0.4c2.3,1,4.5,2.1,6.8,3c1.2,0.5,1.6,1.3,1.6,2.6c0,3.4,0,6.8,0,10.1c0,1,0.3,1.2,1.2,1.2c1.8-0.1,3.6,0,5.4,0
		c2.6,0,4.1,1.6,4.2,4.1c0,2.1,0,4.2,0,6.2c0,2.5-1.5,4-4,4c-1.9,0-3.8,0-5.8,0c-0.7,0-1,0.3-0.9,1c0,2.9,0,5.9,0,8.8
		c0,2.3-1.2,3.7-3.5,4c-1.6,0.2-3.2,0.1-4.8,0.1c-0.9,0-1.4,0.2-1.3,1.2c0,0.3-0.1,0.7-0.1,1.1c-0.2,1.9-1.6,3.2-3.5,3.2
		c-5.8,0-11.5,0-17.3,0c-1.8,0-3.2-1.2-3.5-2.9c-0.1-0.5-0.2-1.1-0.1-1.6c0-0.7-0.3-1-1-1c-1.8,0-3.5,0.1-5.3-0.1
		c-2.2-0.3-3.4-1.6-3.4-3.8c0-2.8,0-5.7,0-8.5c0-1.4,0-1.4-1.3-1.4c-1.9,0-3.7,0-5.6,0c-2.3,0-3.8-1.5-3.8-3.8
		c0-1.8,0.3-1.8-1.8-1.7c-4.2,0-8.5,0-12.7,0c-0.5,0-1,0-1.5-0.1c-0.8-0.2-1.2-0.7-1.2-1.5c0-0.8,0.5-1.3,1.3-1.5
		c0.3-0.1,0.7-0.1,1.1-0.1c4.6,0,9.2,0,13.8,0c0.9,0,1.3-0.2,1.2-1.1c-0.3-2.8,1.6-4.7,4.6-4.5c1.7,0.1,3.4,0,5.2,0c0.7,0,1-0.2,1-1
		c-0.1-3.1,0.1-6.1-0.1-9.2c0-0.7,0.1-1.5,0.1-2.2c0.1-0.8,0.7-1.1,1.3-1.3c4-1.8,7.9-3.6,11.9-5.4c2.1-1,4.2-1.9,6.3-2.8
		c0.5-0.2,0.8-0.5,0.8-1.2c0-3.1,0-6.2,0-9.3c0-0.8-0.3-1-1.1-1c-2,0-4,0.1-5.9-0.1c-2.3-0.2-3.6-1.5-3.7-3.9
		c-0.1-2.2-0.1-4.4,0-6.6c0.1-2.4,1.6-3.8,4-3.9c1.9,0,3.8,0,5.7,0c0.8,0,1-0.2,1-1c-0.1-2.4,0.2-2-1.9-2c-19.7,0-39.5,0-59.2,0
		c-1.4,0-1.4,0-1.4,1.4c0,17.1,0,34.2,0,51.2c0,2.8,1,3.8,3.8,3.8c1.6,0,3.2,0,4.8,0c1.2,0,1.9,0.6,1.9,1.5c0,0.9-0.7,1.6-1.7,1.6
		c-2.3,0.1-4.6,0.2-6.9-0.1c-2.3-0.4-3.8-1.8-4.6-3.9c-0.1-0.3-0.3-0.7-0.4-1c0-21.7,0-43.3,0-65C1.1,3,2.7,1.4,5.2,0.5
		c16.1,0,32.1,0,48.2,0c0.7,0.5,1.1,1.1,0.8,2c-0.3,0.8-1,1-1.8,1c-0.3,0-0.7,0-1,0c-14.5,0-29,0-43.5,0c-0.4,0-0.8,0-1.2,0
		c-2,0.1-3.1,1.3-3.1,3.3c0,1.6,0,3.1,0,4.7c0,1.4,0,1.4,1.4,1.4c19.9,0,39.8,0,59.7,0c0.2,0,0.4,0,0.6,0c0.6,0.1,0.9-0.2,0.8-0.9
		c0-1.7,0-3.4,0-5.1c0-2.2-1.2-3.4-3.4-3.5c-1,0-2.1,0-3.1,0c-0.8,0-1.3-0.4-1.5-1.1c-0.3-0.8,0.2-1.4,0.7-1.9
		C60.8,0.5,62.7,0.5,64.5,0.5z M49,86.3c0,1.5,0,2.9,0,4.4c0,0.8,0.3,1.1,1.1,1.1c1.2,0,2.5,0,3.7,0c1.8,0,1.7,0.2,1.7-1.6
		c0-2.3,1.5-3.9,3.6-4c5.8-0.1,11.6-0.1,17.4,0c1.9,0,3.3,1.4,3.5,3.3c0.1,0.4,0.1,0.8,0.1,1.3c-0.1,0.9,0.3,1.1,1.2,1.1
		c1.3-0.1,2.5,0,3.8,0c1.4,0,1.6-0.1,1.6-1.5c0-2.7,0-5.5,0-8.2c0-0.7-0.2-0.9-0.9-0.9c-2,0-4,0-5.9,0c-2.3,0-3.8-1.5-3.9-3.8
		c0-2.1,0-4.2,0-6.3c0-2.7,1.5-4.2,4.2-4.2c1.9,0,3.8,0,5.7,0c0.6,0,0.9-0.1,0.9-0.8c0-2.7,0-5.4,0-8.1c0-0.6-0.2-0.7-0.8-0.5
		c-5.2,2.4-10.5,4.7-15.7,7.1c-0.6,0.3-0.8,0.7-0.8,1.3c0,1.1,0,2.3,0,3.4c-0.1,2.6-1.1,4.7-3.6,5.8c-1.4,0.6-2.9,0.6-4.4,0.6
		c-2,0-1.7,0-1.8,1.7c0,2.3-1.6,3.8-3.9,3.8c-1.9,0-3.8,0-5.8,0c-0.8,0-1.1,0.2-1.1,1C49,83.6,49,85,49,86.3z M49,61.9
		c0,1.3,0,2.6,0,3.9c0,0.8,0.3,1.1,1.1,1c1.9,0,3.7,0,5.6,0c2.5,0,4.1,1.6,4.1,4.1c0,0.3,0,0.6,0,0.9c0,0.5,0.2,0.7,0.7,0.7
		c1.1,0,2.1,0,3.2,0c1.5-0.1,2.6-1.2,2.6-2.8c0-1.3,0-2.6,0-3.9c0-0.7-0.3-1-0.9-1.2c-1.1-0.5-2.2-1-3.3-1.5
		c-4.1-1.8-8.2-3.7-12.3-5.5c-0.7-0.3-0.9-0.2-0.9,0.6C49,59.4,49,60.7,49,61.9z M67.9,89.4c-2.7,0-5.3,0-8,0
		c-0.8,0-1.2,0.3-1.1,1.1c0,2,0,3.9,0,5.9c0,0.8,0.3,1.1,1.1,1.1c5.3,0,10.7,0,16,0c0.8,0,1.2-0.3,1.2-1.2c0-1.9,0-3.8,0-5.7
		c0-1.2-0.1-1.3-1.3-1.3C73.1,89.4,70.5,89.4,67.9,89.4z M67.8,30.3c2.7,0,5.4,0,8.1,0c0.8,0,1.1-0.3,1.1-1.1c0-2,0-3.9,0-5.9
		c0-0.8-0.3-1.2-1.2-1.2c-5.3,0-10.7,0-16,0c-0.8,0-1.1,0.3-1.1,1.1c0,2,0,3.9,0,5.9c0,0.9,0.4,1.2,1.2,1.2
		C62.6,30.3,65.2,30.3,67.8,30.3z M88.2,78.2c2.6,0,5.3,0,7.9,0c0.8,0,1.2-0.3,1.2-1.1c0-2,0-4,0-6c0-0.7-0.3-0.9-0.9-0.9
		c-5.4,0-10.9,0-16.3,0c-0.6,0-1,0.3-1,0.9c0,2,0,4,0,5.9c0,0.9,0.4,1.2,1.3,1.2C83,78.1,85.6,78.2,88.2,78.2z M47.4,70.1
		c-2.6,0-5.3,0-7.9,0c-0.7,0-1.2,0.2-1.2,1c0,2,0,4,0,6c0,0.8,0.4,1.1,1.2,1.1c5.3,0,10.5,0,15.8,0c0.8,0,1.2-0.3,1.2-1.1
		c0-2,0-3.9,0-5.9c0-0.9-0.3-1.1-1.2-1.1C52.7,70.1,50,70.1,47.4,70.1z"/>
	<path class="st1" d="M37.5,37.6c4,0,8.1,0,12.1,0c0.3,0,0.7,0,1,0c0.8,0.1,1.4,0.6,1.5,1.4c0,0.8-0.4,1.4-1.3,1.6
		c-0.4,0.1-0.8,0.1-1.2,0.1c-8,0-16,0-24.1,0c-0.4,0-0.8,0-1.3-0.1c-0.8-0.2-1.2-0.7-1.2-1.5c0-0.8,0.5-1.3,1.3-1.5
		c0.3-0.1,0.7,0,1.1,0C29.5,37.6,33.5,37.6,37.5,37.6z"/>
	<path class="st1" d="M33.1,51.8c2.7,0,5.5,0,8.2,0c1.1,0,1.8,0.6,1.8,1.6c0,0.7-0.4,1.2-1.1,1.4c-0.4,0.1-0.8,0.1-1.3,0.1
		c-5.1,0-10.1,0-15.2,0c-0.4,0-0.8,0-1.2-0.1c-0.9-0.1-1.3-0.7-1.3-1.5c0-0.8,0.6-1.5,1.5-1.5c1.6,0,3.2,0,4.9,0
		C30.7,51.8,31.9,51.8,33.1,51.8z"/>
	<path class="st1" d="M27,30.6c2.4,0,4.7,0,7.1,0c0.4,0,0.8,0,1.2,0.1c0.7,0.3,1,0.8,1,1.5c0,0.7-0.4,1.1-1.1,1.4
		c-0.5,0.2-1,0.2-1.4,0.2c-4.6,0-9.2,0-13.8,0c-1.6,0-2.4-0.5-2.4-1.6c0-1.1,0.8-1.5,2.4-1.5C22.3,30.5,24.7,30.5,27,30.6z"/>
	<path class="st1" d="M38.7,44.8c2.1,0,4.3,0,6.4,0c1.3,0,2,0.5,2.1,1.5c0,1-0.7,1.6-2,1.6c-3.6,0-7.2,0-10.8,0c-0.8,0-1.7,0-2.5,0
		c-1.2-0.1-1.8-0.8-1.7-1.7c0.1-0.9,0.7-1.4,1.9-1.4C34.3,44.8,36.5,44.8,38.7,44.8z"/>
	<path class="st1" d="M37.6,26.8c-1.9,0-3.8,0-5.7,0c-1.2,0-1.9-0.6-1.9-1.5c-0.1-0.9,0.6-1.7,1.9-1.7c3.9,0,7.7,0,11.6,0
		c1.2,0,1.9,0.7,1.8,1.7c-0.1,0.9-0.8,1.4-2,1.4C41.4,26.8,39.5,26.8,37.6,26.8z"/>
	<path class="st1" d="M30.3,61.9c-1.2,0-2.3,0-3.5,0c-1.1,0-1.7-0.6-1.7-1.5c0-0.9,0.6-1.6,1.7-1.6c2.4,0,4.7,0,7.1,0
		c1.1,0,1.7,0.7,1.7,1.6c0,0.9-0.6,1.4-1.7,1.5C32.7,61.9,31.5,61.9,30.3,61.9z"/>
	<path class="st1" d="M22.6,23.5c1,0,2.1,0,3.1,0c1.1,0,1.8,0.6,1.8,1.5c0,0.9-0.6,1.6-1.7,1.6c-2.2,0.1-4.4,0.1-6.6,0
		c-1.1,0-1.7-0.7-1.7-1.6c0-0.9,0.7-1.5,1.8-1.5C20.5,23.5,21.6,23.5,22.6,23.5z"/>
	<path class="st1" d="M22.6,44.8c1.1,0,2.1,0,3.2,0c1,0,1.7,0.6,1.7,1.5c0,0.9-0.5,1.5-1.5,1.6c-2.3,0.2-4.5,0.2-6.8,0
		c-1.1-0.1-1.7-0.8-1.6-1.7c0.1-0.9,0.7-1.4,1.8-1.4C20.5,44.8,21.6,44.8,22.6,44.8z"/>
	<path class="st1" d="M42,30.6c0.6,0,1.1,0,1.7,0c1,0.1,1.6,0.7,1.6,1.5c0,0.8-0.5,1.4-1.4,1.6c-1.2,0.2-2.5,0.2-3.7,0
		c-0.9-0.1-1.4-0.8-1.4-1.6c0-0.8,0.7-1.4,1.6-1.5C40.9,30.5,41.4,30.6,42,30.6C42,30.6,42,30.6,42,30.6z"/>
	<path class="st1" d="M20.5,61.9c-0.5,0-1,0-1.6,0c-0.9-0.1-1.4-0.6-1.4-1.5c0-0.9,0.5-1.4,1.3-1.5c1-0.1,2.1-0.1,3.1,0
		c0.9,0.1,1.4,0.7,1.4,1.6c-0.1,0.9-0.6,1.4-1.4,1.4C21.5,61.9,21,61.9,20.5,61.9C20.5,61.9,20.5,61.9,20.5,61.9z"/>
	<path class="st1" d="M11.2,61.9c-0.5,0-1,0-1.5-0.1c-0.8-0.2-1.3-0.6-1.3-1.5c0-0.8,0.4-1.4,1.2-1.5c1-0.2,2-0.2,3,0
		c0.9,0.2,1.4,0.8,1.3,1.6c-0.1,0.9-0.7,1.3-1.5,1.4C12.1,61.9,11.7,61.9,11.2,61.9C11.2,61.9,11.2,61.9,11.2,61.9z"/>
	<path class="st1" d="M11.2,47.8c-0.5,0-0.9,0.1-1.4,0c-0.8-0.1-1.3-0.6-1.4-1.4c0-0.9,0.4-1.4,1.2-1.6c1-0.2,2-0.2,3,0
		c0.9,0.2,1.4,0.8,1.3,1.6c-0.1,0.9-0.7,1.3-1.5,1.4C12.1,47.9,11.6,47.8,11.2,47.8C11.2,47.8,11.2,47.8,11.2,47.8z"/>
	<path class="st1" d="M11.2,54.9c-0.5,0-1,0-1.5-0.1c-0.8-0.2-1.3-0.6-1.3-1.5c0-0.8,0.4-1.4,1.2-1.5c1-0.2,2-0.2,3,0
		c0.9,0.2,1.4,0.8,1.4,1.6c0,0.8-0.6,1.4-1.6,1.4C12.1,54.9,11.6,54.8,11.2,54.9C11.2,54.9,11.2,54.9,11.2,54.9z"/>
	<path class="st1" d="M11.3,26.7c-0.5,0-0.9,0-1.4,0c-0.8-0.1-1.4-0.6-1.4-1.4c-0.1-0.9,0.4-1.4,1.2-1.6c1-0.2,2-0.2,3,0
		c0.9,0.2,1.4,0.8,1.3,1.6c-0.1,0.9-0.6,1.3-1.5,1.4C12.1,26.8,11.7,26.7,11.3,26.7z"/>
	<path class="st1" d="M11.3,33.8c-0.5,0-1,0.1-1.5,0c-0.8-0.1-1.3-0.6-1.3-1.4c0-0.8,0.4-1.4,1.2-1.6c1.1-0.2,2.1-0.2,3.2,0
		c0.8,0.2,1.2,0.7,1.2,1.5c0,0.9-0.6,1.4-1.4,1.5C12.2,33.8,11.7,33.8,11.3,33.8C11.3,33.8,11.3,33.8,11.3,33.8z"/>
	<path class="st1" d="M11.2,40.8c-0.5,0-0.9,0.1-1.4,0c-0.8-0.1-1.3-0.6-1.3-1.4c0-0.8,0.4-1.4,1.2-1.6c1-0.2,2.1-0.2,3.1,0
		c0.9,0.2,1.3,0.7,1.3,1.6c0,0.9-0.6,1.3-1.4,1.5C12.1,40.8,11.6,40.8,11.2,40.8C11.2,40.8,11.2,40.8,11.2,40.8z"/>
	<path class="st1" d="M49.6,23.5c0.4,0,0.8,0,1.3,0.1c0.8,0.2,1.2,0.7,1.2,1.5c0,0.7-0.4,1.3-1.1,1.5c-0.8,0.2-1.6,0.2-2.4,0.1
		c-0.9-0.2-1.4-0.8-1.4-1.6c0-0.8,0.6-1.4,1.5-1.5C49,23.5,49.3,23.5,49.6,23.5C49.5,23.5,49.6,23.5,49.6,23.5z"/>
	<path class="st1" d="M40.7,61.9c-0.4,0-0.7,0-1.1,0c-0.9-0.1-1.4-0.6-1.4-1.5c0-0.8,0.4-1.4,1.2-1.5c0.8-0.1,1.6-0.1,2.4,0
		c0.8,0.1,1.3,0.8,1.2,1.6c-0.1,0.8-0.5,1.3-1.4,1.4C41.4,61.9,41,61.9,40.7,61.9z"/>
	<path class="st1" d="M49.6,33.7c-0.2,0-0.6-0.1-1-0.2c-0.8-0.3-1.1-1.2-0.8-1.9c0.4-1,1.4-1,2.3-1c0.8,0,1.5,0.2,1.8,1.1
		C52.3,32.8,51.4,33.7,49.6,33.7z"/>
	<path class="st1" d="M19.2,37.6c0.8,0,1.5,0.7,1.5,1.6c0,0.8-0.7,1.5-1.5,1.5c-0.9,0-1.5-0.7-1.5-1.5
		C17.6,38.3,18.3,37.6,19.2,37.6z"/>
	<path class="st1" d="M52.1,46.4c0,0.8-0.7,1.5-1.6,1.5c-0.8,0-1.5-0.7-1.5-1.5c0-0.8,0.7-1.6,1.5-1.6
		C51.3,44.8,52.1,45.5,52.1,46.4z"/>
	<path class="st1" d="M20.7,53.3c0,0.9-0.6,1.5-1.5,1.6c-0.9,0-1.5-0.6-1.5-1.4c0-0.9,0.6-1.6,1.5-1.6
		C19.9,51.8,20.7,52.5,20.7,53.3z"/>
	<path class="st0" d="M36.7,9.8c-3.8,0-7.6,0-11.4,0c-0.3,0-0.7,0-1,0C23.5,9.6,23,9.1,23,8.3c0-0.8,0.5-1.3,1.3-1.5
		c0.3-0.1,0.6,0,1,0c7.7,0,15.4,0,23,0c0.2,0,0.5,0,0.7,0c0.9,0.1,1.6,0.7,1.5,1.6c0,0.8-0.7,1.4-1.5,1.5c-0.4,0-0.8,0-1.3,0
		C44,9.8,40.4,9.8,36.7,9.8z"/>
	<path class="st0" d="M56.4,6.7c0.6,0,1.2,0,1.7,0c0.9,0.1,1.5,0.7,1.4,1.6c-0.1,0.9-0.5,1.4-1.4,1.5c-1.2,0.1-2.4,0.1-3.6,0
		c-0.8,0-1.5-0.8-1.4-1.6c0.1-0.9,0.6-1.4,1.4-1.5C55.2,6.7,55.8,6.7,56.4,6.7z"/>
	<path class="st0" d="M20.1,8.2c0,0.8-0.7,1.5-1.5,1.6c-0.9,0-1.6-0.6-1.6-1.5c0-0.8,0.6-1.5,1.5-1.6C19.3,6.7,20.1,7.4,20.1,8.2z"
		/>
	<path class="st0" d="M15.2,8.3c0,0.8-0.7,1.5-1.6,1.5c-0.9,0-1.5-0.7-1.5-1.6c0-0.8,0.7-1.5,1.6-1.5C14.5,6.8,15.2,7.5,15.2,8.3z"
		/>
	<path class="st0" d="M10.3,8.3c0,0.8-0.7,1.5-1.6,1.5c-0.8,0-1.5-0.7-1.5-1.5c0-0.9,0.7-1.5,1.5-1.6C9.6,6.7,10.3,7.4,10.3,8.3z"/>
	<path class="st1" d="M70.2,95c-0.8,0-1.7,0.1-2.5,0c-1-0.1-1.7-0.8-1.6-1.6c0-0.9,0.7-1.5,1.7-1.5c1.6,0,3.2,0,4.9,0
		c1,0,1.6,0.6,1.7,1.4c0.1,0.9-0.5,1.5-1.5,1.7c-0.1,0-0.3,0-0.4,0C71.7,95,71,95,70.2,95C70.2,95,70.2,95,70.2,95z"/>
	<path class="st1" d="M64.4,93.4c0,0.8-0.8,1.5-1.6,1.5c-0.8,0-1.5-0.7-1.4-1.5c0-0.9,0.7-1.6,1.5-1.5
		C63.7,91.9,64.4,92.6,64.4,93.4z"/>
	<path class="st1" d="M70.3,24.7c0.8,0,1.6,0,2.4,0c1,0,1.6,0.6,1.7,1.4c0.1,0.9-0.5,1.6-1.5,1.7c-1.7,0.1-3.4,0.1-5.2,0
		c-1,0-1.6-0.8-1.6-1.6c0-0.9,0.7-1.5,1.7-1.5C68.6,24.7,69.4,24.7,70.3,24.7z"/>
	<path class="st1" d="M64.4,26.3c0,0.8-0.8,1.6-1.6,1.5c-0.9,0-1.5-0.8-1.5-1.6c0-0.8,0.7-1.5,1.5-1.5
		C63.7,24.7,64.4,25.5,64.4,26.3z"/>
	<path class="st1" d="M90.6,72.5c0.8,0,1.7,0,2.5,0c1,0,1.6,0.6,1.6,1.5c0,0.8-0.6,1.5-1.5,1.6c-1.8,0.2-3.6,0.2-5.4,0
		c-1-0.1-1.4-0.7-1.4-1.6c0-0.9,0.6-1.4,1.6-1.5C88.9,72.5,89.8,72.5,90.6,72.5z"/>
	<path class="st1" d="M83.3,72.5c0.8,0,1.5,0.7,1.5,1.5c0,0.9-0.6,1.6-1.5,1.6c-0.9,0-1.6-0.7-1.6-1.5
		C81.7,73.2,82.4,72.5,83.3,72.5z"/>
	<path class="st1" d="M49.9,72.5c0.8,0,1.7,0,2.5,0c1,0,1.6,0.7,1.6,1.5c0,0.8-0.6,1.5-1.5,1.6c-1.8,0.2-3.7,0.2-5.5,0
		c-0.9-0.1-1.4-0.8-1.3-1.6c0.1-0.9,0.7-1.3,1.5-1.4C48.1,72.5,49,72.5,49.9,72.5C49.9,72.5,49.9,72.5,49.9,72.5z"/>
	<path class="st1" d="M44,74c0,0.9-0.6,1.5-1.5,1.5c-0.8,0-1.5-0.6-1.5-1.4c0-0.8,0.7-1.6,1.5-1.6C43.3,72.5,43.9,73.2,44,74z"/>
</g>
</svg>
