<?xml version="1.0" encoding="utf-8"?>
<!-- Generator: Adobe Illustrator 22.0.1, SVG Export Plug-In . SVG Version: 6.00 Build 0)  -->
<svg version="1.1" id="Layer_1" xmlns="http://www.w3.org/2000/svg" xmlns:xlink="http://www.w3.org/1999/xlink" x="0px" y="0px"
	 viewBox="0 0 50 50" style="enable-background:new 0 0 50 50;" xml:space="preserve">
<g>
	<path d="M16.8,46.8c-0.4,0.5-0.8,0.7-1.4,0.7c-0.6,0-1.1-0.2-1.6-0.7l-1.2-1.2c-0.5-0.4-0.7-0.8-0.7-1.4c0-0.6,0.2-1.1,0.7-1.6
		L30.5,25L12.6,7.4C12.2,7,12,6.5,12,5.9c0-0.6,0.2-1.1,0.5-1.4l1.2-1.4c0.5-0.4,1-0.5,1.6-0.5c0.6,0,1.1,0.2,1.4,0.5l20.7,20.4
		c0.4,0.5,0.5,1,0.5,1.6s-0.2,1.1-0.5,1.6v-0.2L16.8,46.8z"/>
</g>
</svg>
