<?xml version="1.0" encoding="utf-8"?>
<!-- Generator: Adobe Illustrator 24.2.1, SVG Export Plug-In . SVG Version: 6.00 Build 0)  -->
<svg version="1.1" id="Layer_1" xmlns="http://www.w3.org/2000/svg" xmlns:xlink="http://www.w3.org/1999/xlink" x="0px" y="0px"
	 viewBox="0 0 100 100" style="enable-background:new 0 0 100 100;" xml:space="preserve">
<style type="text/css">
	.st0{fill:#449A4E;}
	.st1{fill:#263863;}
</style>
<g>
	<polygon class="st0" points="25.6,71.7 25.6,81.9 29,81.9 29,68.7 	"/>
</g>
<g>
	<polygon class="st0" points="34.7,62.4 32.1,65.2 32.1,81.9 35.4,81.9 35.4,63.4 	"/>
</g>
<g>
	<polygon class="st0" points="38.5,66.6 38.5,81.9 41.9,81.9 41.9,70 	"/>
</g>
<g>
	<polygon class="st0" points="51.5,73.5 51.5,81.9 54.8,81.9 54.8,70 	"/>
</g>
<g>
	<polygon class="st0" points="58,81.9 61.3,81.9 61.3,63.4 58,66.8 	"/>
</g>
<g>
	<polygon class="st0" points="45,73 45,81.9 48.4,81.9 48.4,76.4 	"/>
</g>
<g>
	<rect x="64.4" y="65.5" class="st0" width="3.4" height="16.4"/>
</g>
<g>
	<rect x="70.9" y="60.2" class="st0" width="3.4" height="21.7"/>
</g>
<g>
	<path class="st0" d="M15.1,23.4v11.5c0.1,0,0,0,0.1,0c6.3,0,11.4-5,11.5-11.3c0-0.1-0.1-0.2-0.1-0.2H15.1z"/>
</g>
<g>
	<g>
		<path class="st1" d="M73,28.7c-0.2,0-0.4-0.2-0.4-0.4v-2.9c0-0.2,0.2-0.4,0.4-0.4s0.4,0.2,0.4,0.4v2.9
			C73.4,28.5,73.2,28.7,73,28.7z"/>
	</g>
	<g>
		<path class="st1" d="M74.5,27.3h-2.9c-0.2,0-0.4-0.2-0.4-0.4c0-0.2,0.2-0.4,0.4-0.4h2.9c0.2,0,0.4,0.2,0.4,0.4
			C74.9,27.1,74.7,27.3,74.5,27.3z"/>
	</g>
</g>
<g>
	<g>
		<path class="st1" d="M92.7,54.5c-0.2,0-0.4-0.2-0.4-0.4v-2.9c0-0.2,0.2-0.4,0.4-0.4s0.4,0.2,0.4,0.4v2.9
			C93.1,54.3,92.9,54.5,92.7,54.5z"/>
	</g>
	<g>
		<path class="st1" d="M94.1,53.1h-2.9c-0.2,0-0.4-0.2-0.4-0.4s0.2-0.4,0.4-0.4h2.9c0.2,0,0.4,0.2,0.4,0.4S94.4,53.1,94.1,53.1z"/>
	</g>
</g>
<g>
	<g>
		<path class="st1" d="M5.5,45.5c-0.2,0-0.4-0.2-0.4-0.4v-2.9c0-0.2,0.2-0.4,0.4-0.4c0.2,0,0.4,0.2,0.4,0.4v2.9
			C5.9,45.3,5.7,45.5,5.5,45.5z"/>
	</g>
	<g>
		<path class="st1" d="M7,44.1H4.1c-0.2,0-0.4-0.2-0.4-0.4c0-0.2,0.2-0.4,0.4-0.4H7c0.2,0,0.4,0.2,0.4,0.4C7.4,43.9,7.2,44.1,7,44.1
			z"/>
	</g>
</g>
<g>
	<g>
		<path class="st1" d="M3.2,87c-0.2,0-0.4-0.2-0.4-0.4v-2.9c0-0.2,0.2-0.4,0.4-0.4c0.2,0,0.4,0.2,0.4,0.4v2.9
			C3.6,86.8,3.4,87,3.2,87z"/>
	</g>
	<g>
		<path class="st1" d="M4.7,85.6H1.8c-0.2,0-0.4-0.2-0.4-0.4c0-0.2,0.2-0.4,0.4-0.4h2.9c0.2,0,0.4,0.2,0.4,0.4
			C5.1,85.4,4.9,85.6,4.7,85.6z"/>
	</g>
</g>
<g>
	<path class="st1" d="M95.9,14.4c0-0.4,0.3-0.6,0.6-0.7l0,0c0.4,0,0.6,0.3,0.7,0.6l0,0c0,0.4-0.3,0.6-0.6,0.7l0,0c0,0,0,0,0,0l0,0
		C96.2,15,95.9,14.7,95.9,14.4z M94,14c-0.3-0.2-0.3-0.6,0-0.9l0,0c0.2-0.3,0.6-0.3,0.9,0l0,0c0.3,0.2,0.3,0.6,0,0.9l0,0
		c-0.1,0.1-0.3,0.2-0.5,0.2l0,0C94.3,14.2,94.1,14.1,94,14z M98.1,13.9c-0.3-0.2-0.3-0.6,0-0.9l0,0c0.2-0.3,0.6-0.3,0.9,0l0,0
		c0.3,0.2,0.3,0.6,0,0.9l0,0c-0.1,0.1-0.3,0.2-0.5,0.2l0,0C98.4,14.1,98.3,14,98.1,13.9z M92.9,11.5c0-0.4,0.3-0.6,0.6-0.6l0,0
		c0.4,0,0.6,0.3,0.6,0.6l0,0c0,0.4-0.3,0.6-0.6,0.6l0,0c0,0,0,0,0,0l0,0C93.2,12.1,92.9,11.8,92.9,11.5z M98.7,11.4
		c0-0.4,0.3-0.6,0.6-0.7l0,0c0.4,0,0.6,0.3,0.7,0.6l0,0c0,0.4-0.3,0.6-0.6,0.7l0,0c0,0,0,0,0,0l0,0C99,12,98.7,11.7,98.7,11.4z
		 M93.9,9.9c-0.3-0.2-0.3-0.7,0-0.9l0,0c0.2-0.3,0.7-0.3,0.9,0l0,0c0.3,0.2,0.3,0.7,0,0.9l0,0C94.7,10,94.6,10,94.4,10l0,0
		C94.2,10,94.1,10,93.9,9.9z M98,9.8c-0.3-0.2-0.3-0.6,0-0.9l0,0c0.2-0.3,0.6-0.3,0.9,0l0,0c0.3,0.2,0.3,0.6,0,0.9l0,0
		c-0.1,0.1-0.3,0.2-0.5,0.2l0,0C98.3,9.9,98.1,9.9,98,9.8z M95.8,8.5c0-0.4,0.3-0.6,0.6-0.6l0,0c0.4,0,0.6,0.3,0.6,0.6l0,0
		c0,0.4-0.3,0.6-0.6,0.6l0,0C96.1,9.2,95.8,8.9,95.8,8.5z"/>
</g>
<g>
	<path class="st1" d="M40.7,39.5c0-0.4,0.3-0.6,0.6-0.7l0,0c0.4,0,0.6,0.3,0.7,0.6l0,0c0,0.4-0.3,0.6-0.6,0.7l0,0c0,0,0,0,0,0l0,0
		C41,40.1,40.7,39.9,40.7,39.5z M38.8,39.1c-0.3-0.2-0.3-0.6,0-0.9l0,0c0.2-0.3,0.6-0.3,0.9,0l0,0l0,0l0,0c0.3,0.2,0.3,0.6,0,0.9
		l0,0c-0.1,0.1-0.3,0.2-0.5,0.2l0,0C39.1,39.3,38.9,39.3,38.8,39.1z M42.9,39c-0.3-0.2-0.3-0.6,0-0.9l0,0c0.2-0.3,0.6-0.3,0.9,0l0,0
		c0.3,0.2,0.3,0.6,0,0.9l0,0c-0.1,0.1-0.3,0.2-0.5,0.2l0,0C43.2,39.2,43.1,39.2,42.9,39z M37.7,36.6c0-0.4,0.3-0.6,0.6-0.6l0,0
		c0.4,0,0.6,0.3,0.6,0.6l0,0c0,0.4-0.3,0.6-0.6,0.6l0,0c0,0,0,0,0,0l0,0C38,37.3,37.7,37,37.7,36.6z M43.5,36.5
		c0-0.4,0.3-0.6,0.6-0.7l0,0c0.4,0,0.6,0.3,0.7,0.6l0,0c0,0.4-0.3,0.6-0.6,0.7l0,0c0,0,0,0,0,0l0,0C43.8,37.1,43.5,36.8,43.5,36.5z
		 M38.7,35c-0.3-0.2-0.3-0.7,0-0.9l0,0c0.2-0.3,0.7-0.3,0.9,0l0,0c0.3,0.2,0.3,0.7,0,0.9l0,0c-0.1,0.1-0.3,0.2-0.5,0.2l0,0
		C39,35.2,38.9,35.1,38.7,35z M42.8,34.9c-0.3-0.2-0.3-0.6,0-0.9l0,0c0.2-0.3,0.6-0.3,0.9,0l0,0c0.3,0.2,0.3,0.6,0,0.9l0,0
		c-0.1,0.1-0.3,0.2-0.5,0.2l0,0C43.1,35.1,42.9,35,42.8,34.9z M40.6,33.7c0-0.4,0.3-0.6,0.6-0.6l0,0c0.4,0,0.6,0.3,0.6,0.6l0,0
		c0,0.4-0.3,0.6-0.6,0.6l0,0l0,0l0,0C40.9,34.3,40.6,34,40.6,33.7z"/>
</g>
<g>
	<path class="st1" d="M7.3,63.1c0-0.4,0.3-0.6,0.6-0.7l0,0c0.4,0,0.6,0.3,0.7,0.6l0,0c0,0.4-0.3,0.6-0.6,0.7l0,0c0,0,0,0,0,0l0,0
		C7.6,63.8,7.3,63.5,7.3,63.1z M5.4,62.8L5.4,62.8c-0.3-0.2-0.3-0.6,0-0.9l0,0c0.2-0.3,0.6-0.3,0.9,0l0,0c0.3,0.2,0.3,0.6,0,0.9l0,0
		C6.2,62.9,6,63,5.9,63l0,0C5.7,63,5.5,62.9,5.4,62.8z M9.6,62.7c-0.3-0.2-0.3-0.6,0-0.9l0,0c0.2-0.3,0.6-0.3,0.9,0l0,0
		c0.3,0.2,0.3,0.6,0,0.9l0,0c-0.1,0.1-0.3,0.2-0.5,0.2l0,0C9.8,62.8,9.7,62.8,9.6,62.7z M4.3,60.3c0-0.4,0.3-0.6,0.6-0.6l0,0
		c0.4,0,0.6,0.3,0.6,0.6l0,0c0,0.4-0.3,0.6-0.6,0.6l0,0c0,0,0,0,0,0l0,0C4.6,60.9,4.3,60.6,4.3,60.3z M10.1,60.1
		c0-0.4,0.3-0.6,0.6-0.7l0,0c0.4,0,0.6,0.3,0.7,0.6l0,0c0,0.4-0.3,0.6-0.6,0.7l0,0c0,0,0,0,0,0l0,0C10.4,60.7,10.1,60.5,10.1,60.1z
		 M5.4,58.6c-0.3-0.2-0.3-0.7,0-0.9l0,0c0.2-0.3,0.7-0.3,0.9,0l0,0c0.3,0.2,0.3,0.7,0,0.9l0,0c-0.1,0.1-0.3,0.2-0.5,0.2l0,0
		C5.6,58.8,5.5,58.8,5.4,58.6z M9.4,58.5c-0.3-0.2-0.3-0.6,0-0.9l0,0c0.2-0.3,0.6-0.3,0.9,0l0,0c0.3,0.2,0.3,0.6,0,0.9l0,0
		c-0.1,0.1-0.3,0.2-0.5,0.2l0,0C9.7,58.7,9.5,58.7,9.4,58.5z M7.2,57.3c0-0.4,0.3-0.6,0.6-0.6l0,0c0.4,0,0.6,0.3,0.6,0.6l0,0
		c0,0.4-0.3,0.6-0.6,0.6l0,0C7.5,58,7.2,57.7,7.2,57.3z"/>
</g>
<g>
	<path class="st1" d="M93.7,78.2c0-0.4,0.3-0.6,0.6-0.7l0,0c0.4,0,0.6,0.3,0.7,0.6l0,0c0,0.4-0.3,0.6-0.6,0.7l0,0c0,0,0,0,0,0l0,0
		C94,78.8,93.7,78.6,93.7,78.2z M91.8,77.8c-0.3-0.2-0.3-0.6,0-0.9l0,0c0.2-0.3,0.6-0.3,0.9,0l0,0c0.3,0.2,0.3,0.6,0,0.9l0,0
		C92.5,78,92.4,78,92.2,78l0,0C92.1,78,91.9,78,91.8,77.8z M95.9,77.7c-0.3-0.2-0.3-0.6,0-0.9l0,0c0.2-0.3,0.6-0.3,0.9,0l0,0
		c0.3,0.2,0.3,0.6,0,0.9l0,0c-0.1,0.1-0.3,0.2-0.5,0.2l0,0C96.2,77.9,96,77.9,95.9,77.7z M90.7,75.3c0-0.4,0.3-0.6,0.6-0.6l0,0
		c0.4,0,0.6,0.3,0.6,0.6l0,0c0,0.4-0.3,0.6-0.6,0.6l0,0c0,0,0,0,0,0l0,0C91,76,90.7,75.7,90.7,75.3z M96.5,75.2
		c0-0.4,0.3-0.6,0.6-0.7l0,0c0.4,0,0.6,0.3,0.7,0.6l0,0c0,0.4-0.3,0.6-0.6,0.7l0,0c0,0,0,0,0,0l0,0C96.8,75.8,96.5,75.6,96.5,75.2z
		 M91.7,73.7c-0.3-0.2-0.3-0.7,0-0.9l0,0c0.2-0.3,0.7-0.3,0.9,0l0,0c0.3,0.2,0.3,0.7,0,0.9l0,0c-0.1,0.1-0.3,0.2-0.5,0.2l0,0
		C92,73.9,91.8,73.8,91.7,73.7z M95.8,73.6L95.8,73.6L95.8,73.6c-0.3-0.2-0.3-0.6,0-0.9l0,0c0.2-0.3,0.6-0.3,0.9,0l0,0
		c0.3,0.2,0.3,0.6,0,0.9l0,0c-0.1,0.1-0.3,0.2-0.5,0.2l0,0C96,73.8,95.9,73.7,95.8,73.6z M93.6,72.4c0-0.4,0.3-0.6,0.6-0.6l0,0
		c0.4,0,0.6,0.3,0.6,0.6l0,0c0,0.4-0.3,0.6-0.6,0.6l0,0C93.9,73,93.6,72.7,93.6,72.4z"/>
</g>
<g>
	<g>
		<g>
			<g>
				<path class="st1" d="M83.7,89.7H16.1c-1.7,0-3.1-1.4-3.1-3.1v-1.3c0-0.2,0.2-0.4,0.4-0.4h73.1c0.2,0,0.4,0.2,0.4,0.4v1.3
					C86.9,88.3,85.5,89.7,83.7,89.7z M13.8,85.7v0.9c0,1.3,1,2.3,2.3,2.3h67.7c1.3,0,2.3-1,2.3-2.3v-0.9H13.8z"/>
			</g>
			<g>
				<path class="st1" d="M55.1,87.8H44.8c-0.2,0-0.4-0.2-0.4-0.4v-2c0-0.2,0.2-0.4,0.4-0.4c0.2,0,0.4,0.2,0.4,0.4v1.6h9.5v-1.6
					c0-0.2,0.2-0.4,0.4-0.4c0.2,0,0.4,0.2,0.4,0.4v2C55.5,87.6,55.3,87.8,55.1,87.8z"/>
			</g>
			<g>
				<path class="st1" d="M81.5,85.2c-0.2,0-0.4-0.2-0.4-0.4V50.1c0-1.4-1.1-2.5-2.5-2.5h-1.4c-0.2,0-0.4-0.2-0.4-0.4
					s0.2-0.4,0.4-0.4h1.4c1.8,0,3.4,1.5,3.4,3.3v34.7C81.9,85,81.7,85.2,81.5,85.2z"/>
			</g>
			<g>
				<path class="st1" d="M18.3,73.7c-0.2,0-0.4-0.2-0.4-0.4V50.1c0-1.8,1.5-3.3,3.4-3.3h50.3c0.2,0,0.4,0.2,0.4,0.4
					s-0.2,0.4-0.4,0.4H21.3c-1.4,0-2.5,1.1-2.5,2.5v23.2C18.7,73.5,18.5,73.7,18.3,73.7z"/>
			</g>
			<g>
				<path class="st1" d="M18.3,85.5c-0.2,0-0.4-0.2-0.4-0.4V79c0-0.2,0.2-0.4,0.4-0.4c0.2,0,0.4,0.2,0.4,0.4v6.1
					C18.7,85.3,18.5,85.5,18.3,85.5z"/>
			</g>
			<g>
				<path class="st1" d="M22.5,69.5c-0.2,0-0.4-0.2-0.4-0.4V51.3c0-0.2,0.2-0.4,0.4-0.4h44.9c0.2,0,0.4,0.2,0.4,0.4
					s-0.2,0.4-0.4,0.4H22.9v17.3C22.9,69.3,22.7,69.5,22.5,69.5z"/>
			</g>
			<g>
				<path class="st1" d="M22.5,82.5c-0.1,0-0.2-0.1-0.3-0.1c-0.1-0.1-0.1-0.2-0.1-0.3v-7.3c0-0.2,0.2-0.4,0.4-0.4
					c0.2,0,0.4,0.2,0.4,0.4v6.9l54.1,0V51.7h-3.8c-0.2,0-0.4-0.2-0.4-0.4s0.2-0.4,0.4-0.4h4.3c0.2,0,0.4,0.2,0.4,0.4V82
					c0,0.2-0.2,0.4-0.4,0.4L22.5,82.5C22.5,82.5,22.5,82.5,22.5,82.5z"/>
			</g>
		</g>
	</g>
	<g>
		<path class="st1" d="M15.9,81.6c-0.1,0-0.2,0-0.3-0.1l-2.7-2.7c-0.1-0.1-0.1-0.2-0.1-0.3c0-0.1,0-0.2,0.1-0.3l21.5-21.5
			c0.2-0.2,0.4-0.2,0.6,0l13.6,13.6L77.2,41L75,38.8c-0.1-0.1-0.2-0.3-0.1-0.4c0-0.1,0.2-0.3,0.3-0.3l9.5-2c0.1,0,0.3,0,0.4,0.1
			c0.1,0.1,0.1,0.2,0.1,0.4l-2,9.5c0,0.1-0.1,0.3-0.3,0.3c-0.1,0-0.3,0-0.4-0.1l-2.1-2.1L48.8,76.6c-0.1,0.1-0.2,0.1-0.3,0.1
			c-0.1,0-0.2,0-0.3-0.1L34.7,63L16.2,81.5C16.1,81.6,16,81.6,15.9,81.6z M13.8,78.5l2.1,2.1l18.5-18.5c0.2-0.2,0.4-0.2,0.6,0
			l13.6,13.6l31.6-32.3c0.1-0.1,0.2-0.1,0.3-0.1c0,0,0,0,0,0c0.1,0,0.2,0,0.3,0.1l1.8,1.8l1.7-8.1l-8.1,1.7l1.9,1.9
			c0.1,0.1,0.1,0.2,0.1,0.3c0,0.1,0,0.2-0.1,0.3L48.8,71.2c-0.1,0.1-0.2,0.1-0.3,0.1c0,0,0,0,0,0c-0.1,0-0.2,0-0.3-0.1L34.7,57.6
			L13.8,78.5z"/>
	</g>
	<g>
		<path class="st1" d="M25.6,82.3c-0.2,0-0.4-0.2-0.4-0.4V71.7c0-0.2,0.2-0.4,0.4-0.4c0.2,0,0.4,0.2,0.4,0.4v10.2
			C26,82.1,25.8,82.3,25.6,82.3z"/>
	</g>
	<g>
		<path class="st1" d="M29,82.3c-0.2,0-0.4-0.2-0.4-0.4V68.7c0-0.2,0.2-0.4,0.4-0.4c0.2,0,0.4,0.2,0.4,0.4v13.2
			C29.4,82.1,29.2,82.3,29,82.3z"/>
	</g>
	<g>
		<path class="st1" d="M32.1,82.3c-0.2,0-0.4-0.2-0.4-0.4V65.2c0-0.2,0.2-0.4,0.4-0.4c0.2,0,0.4,0.2,0.4,0.4v16.8
			C32.5,82.1,32.3,82.3,32.1,82.3z"/>
	</g>
	<g>
		<path class="st1" d="M35.4,82.3c-0.2,0-0.4-0.2-0.4-0.4V63.4c0-0.2,0.2-0.4,0.4-0.4c0.2,0,0.4,0.2,0.4,0.4v18.5
			C35.8,82.1,35.7,82.3,35.4,82.3z"/>
	</g>
	<g>
		<path class="st1" d="M38.5,82.3c-0.2,0-0.4-0.2-0.4-0.4V66.6c0-0.2,0.2-0.4,0.4-0.4s0.4,0.2,0.4,0.4v15.3
			C39,82.1,38.8,82.3,38.5,82.3z"/>
	</g>
	<g>
		<path class="st1" d="M41.9,82.3c-0.2,0-0.4-0.2-0.4-0.4V70c0-0.2,0.2-0.4,0.4-0.4c0.2,0,0.4,0.2,0.4,0.4v12
			C42.3,82.1,42.1,82.3,41.9,82.3z"/>
	</g>
	<g>
		<path class="st1" d="M45,82.3c-0.2,0-0.4-0.2-0.4-0.4V73c0-0.2,0.2-0.4,0.4-0.4c0.2,0,0.4,0.2,0.4,0.4v8.9
			C45.4,82.1,45.2,82.3,45,82.3z"/>
	</g>
	<g>
		<path class="st1" d="M48.4,82.3c-0.2,0-0.4-0.2-0.4-0.4v-5.5c0-0.2,0.2-0.4,0.4-0.4c0.2,0,0.4,0.2,0.4,0.4v5.5
			C48.8,82.1,48.6,82.3,48.4,82.3z"/>
	</g>
	<g>
		<path class="st1" d="M51.5,82.3c-0.2,0-0.4-0.2-0.4-0.4v-8.4c0-0.2,0.2-0.4,0.4-0.4c0.2,0,0.4,0.2,0.4,0.4v8.4
			C51.9,82.1,51.7,82.3,51.5,82.3z"/>
	</g>
	<g>
		<path class="st1" d="M54.8,82.3c-0.2,0-0.4-0.2-0.4-0.4V70c0-0.2,0.2-0.4,0.4-0.4c0.2,0,0.4,0.2,0.4,0.4v12
			C55.3,82.1,55.1,82.3,54.8,82.3z"/>
	</g>
	<g>
		<path class="st1" d="M58,82.3c-0.2,0-0.4-0.2-0.4-0.4V66.8c0-0.2,0.2-0.4,0.4-0.4c0.2,0,0.4,0.2,0.4,0.4v15.1
			C58.4,82.1,58.2,82.3,58,82.3z"/>
	</g>
	<g>
		<path class="st1" d="M61.3,82.3c-0.2,0-0.4-0.2-0.4-0.4V63.4c0-0.2,0.2-0.4,0.4-0.4c0.2,0,0.4,0.2,0.4,0.4v18.5
			C61.7,82.1,61.5,82.3,61.3,82.3z"/>
	</g>
	<g>
		<path class="st1" d="M67.8,82.3c-0.2,0-0.4-0.2-0.4-0.4V66h-2.5v16c0,0.2-0.2,0.4-0.4,0.4S64,82.1,64,81.9V65.5
			c0-0.2,0.2-0.4,0.4-0.4h3.4c0.2,0,0.4,0.2,0.4,0.4v16.4C68.2,82.1,68,82.3,67.8,82.3z"/>
	</g>
	<g>
		<path class="st1" d="M74.3,82.3c-0.2,0-0.4-0.2-0.4-0.4V60.6h-2.5v21.3c0,0.2-0.2,0.4-0.4,0.4c-0.2,0-0.4-0.2-0.4-0.4V60.2
			c0-0.2,0.2-0.4,0.4-0.4h3.4c0.2,0,0.4,0.2,0.4,0.4v21.7C74.7,82.1,74.5,82.3,74.3,82.3z"/>
	</g>
</g>
<g>
	<g>
		<path class="st1" d="M11.3,31.5L11.3,31.5c-6.6,0-12-5.4-12-12c0-6.6,5.4-12,12-12s12,5.4,12,11.9c0,0.1,0,0.2-0.1,0.3
			c-0.1,0.1-0.2,0.1-0.3,0.1c0,0,0,0,0,0l-11.1,0v11.2C11.8,31.3,11.6,31.5,11.3,31.5z M11.3,8.4c-6.1,0-11.1,5-11.1,11.1
			c0,6,4.8,10.9,10.7,11.1V19.5c0-0.1,0-0.2,0.1-0.3c0.1-0.1,0.2-0.1,0.3-0.1c0,0,0,0,0,0l11.1,0C22.2,13.1,17.3,8.4,11.3,8.4z"/>
	</g>
	<g>
		<path class="st1" d="M4.2,16.1c-0.1,0-0.1,0-0.2,0c-0.2-0.1-0.3-0.4-0.2-0.6c1.5-2.7,4.3-4.5,7.4-4.5c2.3,0,4.4,0.9,6,2.5
			c0.2,0.2,0.2,0.4,0,0.6c-0.2,0.2-0.4,0.2-0.6,0c-1.4-1.4-3.3-2.2-5.4-2.2c-2.8,0-5.4,1.5-6.7,4C4.5,16,4.4,16.1,4.2,16.1z"/>
	</g>
	<g>
		<path class="st1" d="M7.9,27.2c-0.1,0-0.1,0-0.2,0c-3-1.4-4.9-4.4-4.9-7.7c0-0.2,0.2-0.4,0.4-0.4c0.2,0,0.4,0.2,0.4,0.4
			c0,2.9,1.7,5.7,4.4,6.9c0.2,0.1,0.3,0.3,0.2,0.6C8.2,27.1,8,27.2,7.9,27.2z"/>
	</g>
	<g>
		<path class="st1" d="M15.2,35.3L15.2,35.3c-0.3,0-0.5-0.2-0.5-0.4V23.3c0-0.2,0.2-0.4,0.4-0.4h11.5c0.2,0,0.3,0.1,0.4,0.2
			c0,0.1,0.1,0.1,0.1,0.2l0,0.1c0,0.1,0,0.1,0,0.2c-0.1,3.1-1.3,6.1-3.6,8.3C21.3,34.1,18.3,35.3,15.2,35.3z M15.5,23.7v10.7
			c5.8-0.2,10.5-4.9,10.7-10.7H15.5z"/>
	</g>
</g>
<g>
	<g>
		<path class="st1" d="M61.6,11.9H35.4c-0.2,0-0.4-0.2-0.4-0.4s0.2-0.4,0.4-0.4h26.2c0.2,0,0.4,0.2,0.4,0.4S61.8,11.9,61.6,11.9z"/>
	</g>
	<g>
		<path class="st1" d="M61.6,16.3H35.4c-0.2,0-0.4-0.2-0.4-0.4c0-0.2,0.2-0.4,0.4-0.4h26.2c0.2,0,0.4,0.2,0.4,0.4
			C62,16.1,61.8,16.3,61.6,16.3z"/>
	</g>
	<g>
		<path class="st1" d="M61.6,20.6H35.4c-0.2,0-0.4-0.2-0.4-0.4s0.2-0.4,0.4-0.4h26.2c0.2,0,0.4,0.2,0.4,0.4S61.8,20.6,61.6,20.6z"/>
	</g>
	<g>
		<path class="st1" d="M49.3,25H35.4c-0.2,0-0.4-0.2-0.4-0.4s0.2-0.4,0.4-0.4h13.9c0.2,0,0.4,0.2,0.4,0.4S49.5,25,49.3,25z"/>
	</g>
</g>
</svg>
