<?xml version="1.0" encoding="utf-8"?>
<!-- Generator: Adobe Illustrator 24.2.1, SVG Export Plug-In . SVG Version: 6.00 Build 0)  -->
<svg version="1.1" id="Layer_1" xmlns="http://www.w3.org/2000/svg" xmlns:xlink="http://www.w3.org/1999/xlink" x="0px" y="0px"
	 viewBox="0 0 100 100" style="enable-background:new 0 0 100 100;" xml:space="preserve">
<style type="text/css">
	.st0{fill:#459A4E;}
	.st1{fill:#253863;}
</style>
<g>
	<path class="st0" d="M100,9.4c-0.5,0.4-1,0.9-1.7,0.8C97.5,10,97,9.5,97,8.7c0-0.8,0-1.7,0-2.5c-0.1-2-1.1-3-3.1-3
		c-4.8,0-9.6,0-14.4,0c-3.2,0-6.3,0-9.5,0c-2,0-3,0.9-3,3c0,3.9,0,7.7,0,11.6c0,1.9,0.9,2.9,2.8,3.1c2.4,0.2,3.9,1.8,3.9,4.3
		c0,1.6,0,3.2,0,4.8c0.4-0.1,0.4-0.4,0.6-0.6c1.2-2,2.5-4.1,3.7-6.1c0.9-1.6,2.3-2.4,4.2-2.4c3.8,0.1,7.6,0,11.4,0
		c2.4,0,3.5-1,3.5-3.4c0-0.5,0-1,0-1.6c0-0.8,0.2-1.5,1-1.8c0.9-0.3,1.5,0.1,2,0.8c0,1.6,0,3.1,0,4.7c-0.5,1.3-1.1,2.5-2.3,3.3
		c-1,0.7-2.1,1.1-3.4,1.1c-3.8,0-7.6,0-11.4,0c-1.2,0-2,0.3-2.6,1.4c-1.6,2.8-3.2,5.5-4.9,8.2c-0.8,1.3-1.9,1.7-3.1,1.3
		c-1.1-0.4-1.7-1.3-1.8-2.8c0-1.4,0-2.7,0-4.1c0-0.9,0-1.9,0-2.8c0-0.8-0.4-1.2-1.1-1.3c-3.5-0.4-5.5-2.6-5.5-6.2c0-3.7,0-7.3,0-11
		c0-3.7,1.2-5.5,4.7-6.7c9,0,18,0,26.9,0c2.3,0.7,3.8,2.2,4.5,4.5C100,6.1,100,7.7,100,9.4z"/>
	<path class="st1" d="M78.1,93.4c-0.6-1.2-0.7-2.3-0.7-3.5c0-0.8,0-1.7,0-2.5c0-5.9-1.6-11.3-5-16.1c-0.4-0.5-0.5-1-0.5-1.6
		c0.1-1.3,0.2-2.6,0.2-3.9c0.1-4-2.5-6.6-6.4-6.6c-4.8,0-9.6,0-14.3,0c-1.6,0-2.3-0.6-2.4-2.3c0-1,0-2,0-3c0-0.6,0.2-1,0.7-1.3
		c1.3-0.9,2.6-1.8,3.4-3.2c1-1.8,2.4-2.1,4.3-2c3.1,0.1,5.7-2.3,5.9-5.3c0.3-3.8,0.1-7.7,0.1-11.5c0-1.7-0.7-3.1-2.1-4.1
		c-0.5-0.3-0.5-0.7-0.5-1.2c0-2.2,0-4.5,0-6.7c-0.1-3.3-2.4-5.9-5.7-6.4c-0.7-0.1-1-0.4-1.1-1c-0.7-3.6-3.1-5.6-6.9-5.6
		c-4.2,0-8.4,0-12.6,0c-1.5,0-3,0-4.5,0.2C23.3,6.5,18.1,12.3,18,19c0,2,0,4,0,6c0,0.6-0.2,1-0.7,1.4c-1.3,0.9-2,2.2-2,3.8
		c0,1.9,0,3.8,0,5.8c0,1.3,0.6,2.5,1.5,3.4c1.1,1.1,2.5,1.4,4.1,1.3c0.7-0.1,1.1,0.2,1.2,0.9c0.8,4.6,3.1,8.2,6.9,10.9
		c0.3,0.2,0.6,0.5,0.6,1c0,1.2,0,2.5,0,3.7c-0.1,1.4-0.7,2-2.1,2c-5,0-10,0-15,0c-3,0-5.5,2.2-5.9,5.2c-0.2,1.6,0,3.3,0.1,5
		c0.1,0.7,0,1.2-0.4,1.8c-2,2.8-3.4,5.9-4.3,9.2C1,83.7,1.2,87.2,1.2,90.6c0,0.9,0,1.7-0.6,2.4C0.2,93.5,0,94.2,0,94.8
		c-0.2,3,1.9,5.1,4.9,5.1c11.4,0,22.9,0,34.3,0c9.3,0,18.6,0,27.9,0c2.2,0,4.4,0,6.6,0C77.2,99.9,79.6,96.4,78.1,93.4z M70.9,88
		c0.3-3.7,0.4-7.4,0.6-11.1c0-0.2-0.1-0.5,0.2-0.8c1.5,2.9,2.2,5.9,2.4,9.1c0.1,1.5,0,2.9,0,4.4c0,0.6-0.2,0.8-0.8,0.8
		C70.4,90.5,70.7,91,70.9,88z M50.3,46.4c-1.2,0-2.4,0-3.6,0c-0.6,0-1-0.4-1-1c0-0.5,0.4-0.9,1-0.9c0.6,0,1.2,0,1.8,0
		c0.6,0,1.2,0,1.7,0c0.6,0,0.9,0.3,0.9,0.9C51.2,46.1,50.9,46.4,50.3,46.4z M60,41.9c-0.4,1.4-1.4,2.2-2.9,2.2c-1.1,0-1.2,0-0.9-1.1
		c0.2-0.7,0.1-1.6,0.6-2.1c0.6-0.5,1.4-0.1,2.2-0.2C60.2,40.5,60.3,40.7,60,41.9z M60.1,29.9c0,2.3,0.1,4.2,0,6.2
		c-0.1,1.2-2,2-3,1.5c-0.3-0.1-0.3-0.4-0.3-0.7c0-1.3,0-2.7,0-4c0-0.3,0.1-0.7,0.4-0.8C58.3,31.7,59.3,31.1,60.1,29.9z M20.9,37.6
		c-1.8,0.1-2.5-0.6-2.5-2.4c0-1.7,0-3.3,0-5.3c0.9,1,1.6,1.8,2.7,2.1c0.4,0.1,0.5,0.4,0.5,0.8c0,1.3,0,2.7,0,4
		C21.7,37.4,21.5,37.6,20.9,37.6z M24,29.7c-3.3-1.2-3-0.9-2.9-4.1c0-2.5-0.1-5.1,0.1-7.6c0.6-4.9,5.2-9.2,10.1-9.3
		c2.7-0.1,5.3,0,8,0v0c2.7,0,5.3,0,8,0c2.1,0,3.3,1.2,3.5,3.3c0.2,1.9,1.4,3.1,3.3,3.2c2.1,0.1,3.4,1.4,3.4,3.5c0,2.9,0,5.9,0,8.8
		c0,0.9-0.3,1.5-1.2,1.7c-0.7,0.2-1.3,0.4-1.9,0.7c-0.6,0.3-0.9,0.1-0.9-0.6c0-1.5,0-3.1,0-4.6c0-5-4-8.2-8.9-6.9
		c-3.5,0.9-6.9,1.1-10.4,0c-1.3-0.4-2.6-0.4-3.9-0.1C27,18.4,25.1,21,25,24.4c0,1.5,0,3.1,0,4.6C25.1,29.9,24.8,30,24,29.7z
		 M24.9,38.3c0-1.4,0-2.8,0-4.2c0-0.6,0.2-0.9,0.8-1c1.8-0.6,2.6-1.6,2.6-3.5c0-1.7,0-3.3,0-5c0-3,1.9-4.5,4.9-3.9
		c1.7,0.4,3.5,0.9,5.3,1c2.2,0.1,4.3-0.2,6.4-0.8c0.9-0.3,1.8-0.4,2.8-0.2c1.6,0.4,2.6,1.6,2.6,3.2c0,1.7,0.1,3.4,0,5.2
		c-0.1,2,0.7,3.7,2.9,4.1c0.4,0.1,0.6,0.3,0.6,0.7c0,2.6,0.2,5.2-0.4,7.8c-0.1,0.6-0.2,0.8-0.9,0.4c-0.7-0.5-1.5-0.7-2.4-0.7
		c-1.1,0-2.1,0-3.2,0c-2.6,0.1-4.3,1.8-4.3,4.2c0,2.3,1.8,4,4.3,4.1c0.3,0,0.6,0,0.9,0c0,0.1,0,0.2,0,0.3c-4.5,3-9.3,3.7-14.4,1.5
		C27.8,48.9,24.9,44.5,24.9,38.3z M32.7,55.3c0-0.6,0.2-0.7,0.8-0.5c3.9,1.4,7.8,1.3,11.7,0c0.4-0.1,0.7-0.2,0.7,0.4
		c0,1.2-0.1,2.3,0.2,3.5c0.1,0.6-0.4,0.4-0.6,0.4c-2,0-4.1,0-6.1,0c-2,0-4,0-6,0c-0.6,0-1-0.1-0.8-0.9
		C32.8,57.3,32.7,56.3,32.7,55.3z M4.2,88.1c-0.1-3.7,0.5-7.3,2-10.8c0.2-0.3,0.2-0.8,0.6-1C7.2,77,7,77.7,7,78.3
		c0.1,0.5,0,1,0.1,1.5c0.2,0.9,0.9,1.4,1.7,1.3c0.9-0.2,1.4-0.7,1.4-1.6c-0.1-1.9-0.2-3.8-0.3-5.7c-0.2-2.8-0.4-5.6-0.5-8.5
		c-0.1-1.9,1.1-3,3-3.1c2.9,0,5.9,0,8.8,0c14.6,0,29.3,0,43.9,0c0.7,0,1.4-0.1,2,0.2c1.1,0.6,1.7,1.4,1.7,2.7
		c-0.1,3.2-0.3,6.5-0.5,9.7c-0.2,3.1-0.4,6.2-0.5,9.3c-0.1,1.7-0.2,3.3-0.2,5c0,0.9-0.4,1.3-1.4,1.3c-6.7,0-13.5,0-20.2,0
		c-0.3,0-0.5,0-0.7,0h-4.1c-0.1,0-0.3,0.1-0.5,0.1c-1.1,0-2.1,0-3.2,0c-0.2,0-0.3,0-0.4,0h-4c-0.1,0-0.3,0.1-0.5,0.1
		c-7,0-13.9,0-20.9,0c-0.7,0-0.9-0.2-0.9-0.9c0-1-0.1-2.1-0.2-3.1c-0.1-1-0.8-1.7-1.7-1.7c-0.9,0-1.5,0.8-1.5,1.8c0,1,0.1,2,0.2,3
		c0,0.6-0.2,0.8-0.8,0.8C3.6,90.5,4.3,90.9,4.2,88.1z M73.8,96.8c-0.3,0-0.6,0-1,0c-22.4,0-44.7,0-67.1,0c-0.4,0-0.8,0-1.2,0
		c-0.8-0.1-1.4-0.8-1.4-1.5c0-0.7,0.6-1.4,1.4-1.5c0.4,0,0.8,0,1.2,0c11.2,0,22.4,0,33.6,0c11.1,0,22.2,0,33.4,0c0.4,0,0.7,0,1.1,0
		c1,0.1,1.6,0.6,1.6,1.6C75.3,96.2,74.7,96.7,73.8,96.8z"/>
	<path class="st0" d="M33.4,89.5c0.2,0.5,0.2,0.8-0.1,0.9h3.9c-0.2-0.1-0.4-0.3-0.5-0.7c-0.4-2.3-1.6-4.3-3.1-6.1
		c-2.2-2.7-2.2-6.5,0-9.2c0.2-0.3,0.4-0.6,0.9-0.6c0,1.5,0,2.9,0,4.3c0,2.6,1.5,4,4.1,4c0.7,0,1.4,0,2,0c2,0,3.5-1.5,3.5-3.5
		c0-1.6,0-3.2,0-5.1c1.4,1.3,2.1,2.6,2.4,4.2c0.4,2.4-0.2,4.4-1.8,6.2c-1.4,1.6-2.4,3.5-2.8,5.6c-0.1,0.4-0.2,0.6-0.5,0.8h4
		c-0.4-0.1-0.4-0.4-0.1-1.2c0.4-1.3,1.2-2.4,2.1-3.4c3.8-4.6,3.1-11.3-1.6-14.9c-0.4-0.3-0.8-0.6-1.3-0.9c-1.6-0.8-3.2,0-3.4,1.8
		c-0.2,1.9-0.1,3.9-0.1,5.8c0,1.4-0.1,1.4-1.4,1.4c-0.3,0-0.6,0-0.9,0c-0.7,0-1-0.3-1-1c0-1.9,0-3.8,0-5.7c0-1-0.3-1.9-1.2-2.5
		c-1-0.6-1.9-0.3-2.8,0.3c-5.3,3.4-6.4,10.7-2.3,15.6C32.2,87,32.9,88.2,33.4,89.5z"/>
	<path class="st1" d="M81.9,17.2c-3,0-6,0-9,0c-0.3,0-0.6,0-0.9,0c-1-0.1-1.6-0.7-1.6-1.6c0-0.8,0.6-1.4,1.6-1.6c0.2,0,0.5,0,0.7,0
		c6.2,0,12.4,0,18.5,0c1.5,0,2.3,0.6,2.3,1.6c0,1-0.8,1.6-2.4,1.6C88.1,17.2,85,17.2,81.9,17.2z"/>
	<path class="st1" d="M85.6,7.2c2,0,4,0,5.9,0c1.2,0,2,0.6,2,1.5c0,0.9-0.7,1.6-1.9,1.6c-4,0-8,0-12.1,0c-1.2,0-1.9-0.7-1.9-1.7
		c0-0.9,0.7-1.5,1.9-1.5C81.6,7.2,83.6,7.2,85.6,7.2z"/>
	<path class="st1" d="M72.4,7.2c1.9,0,2.7,0.5,2.6,1.6c0,1.1-0.9,1.6-2.5,1.6c-0.4,0-0.7,0-1.1-0.1c-0.7-0.2-1.1-0.7-1.1-1.5
		c0-0.8,0.5-1.3,1.3-1.5C72,7.1,72.4,7.2,72.4,7.2z"/>
</g>
</svg>
