<?xml version="1.0" encoding="utf-8"?>
<!-- Generator: Adobe Illustrator 24.2.1, SVG Export Plug-In . SVG Version: 6.00 Build 0)  -->
<svg version="1.1" id="Layer_1" xmlns="http://www.w3.org/2000/svg" xmlns:xlink="http://www.w3.org/1999/xlink" x="0px" y="0px"
	 viewBox="0 0 238 78" style="enable-background:new 0 0 238 78;" xml:space="preserve">
<style type="text/css">
	.st0{fill:#212121;}
	.st1{fill-rule:evenodd;clip-rule:evenodd;fill:#1976D2;}
</style>
<desc>Created with Sketch.</desc>
<g>
	<g>
		<g>
			<path class="st0" d="M79.3,18.7c7.3,0,11.6,4.2,11.6,9.9c0,3.8-2.4,6.9-5.4,7.9c3.3,0.8,6.6,3.9,6.6,8.7c0,6-4.5,10.4-11.4,10.5
				H65.3v-37H79.3z M78.6,40.3h-5.2V49h5.2c3.2,0,5.1-1.7,5.1-4.3C83.8,42.1,81.9,40.3,78.6,40.3C78.8,40.3,78.6,40.3,78.6,40.3z
				 M77.8,25.5h-4.4v8h4.5c2.9,0,4.8-1.5,4.8-4C82.8,27.1,81.1,25.5,77.8,25.5L77.8,25.5z M98.6,26.5c2.6,0,4.7-2.1,4.7-4.6
				s-2.1-4.6-4.7-4.6c-2.5,0-4.6,2.1-4.6,4.6S96.1,26.5,98.6,26.5z M102.8,55.7V29.8h-8v25.9H102.8z M114.8,55.7V44.3
				c0-5.2,2.9-7.1,6-7.1c0.8,0,1.6,0.1,2.5,0.3v-7.8c-0.5-0.2-1.3-0.3-2.1-0.3c-2.1,0-5.4,0.8-6.7,3.8v-3.5h-7.7v26L114.8,55.7
				L114.8,55.7z M151.1,17.9v33.5v0.3v0.2v0.3v0.3v0.2V53v0.3v0.3V54v0.4v0.4v0.3v0.5h-7.6v-0.1v-0.3V55v-0.2v-0.2v-0.1v-0.2v-0.1
				V54v-0.1v-0.1v-0.2v-0.2v-0.2c-1.2,1.8-3.8,3.1-6.9,3.1c-7.3,0-12.8-5.6-12.8-13.6c0-7.7,5.2-13.5,12.5-13.5c3.4,0,5.3,1,6.3,1.9
				l0.1,0.1c0.1,0.1,0.1,0.1,0.2,0.2l0.1,0.1l0.1,0.1l0.1,0.1l0.1,0.1v0.1v0.1V32l0,0V17.9H151.1z M137.6,36.2
				c-3.1,0-5.8,2.1-5.8,6.4s2.8,6.5,5.8,6.5c3.1,0,5.8-2.2,5.8-6.5C143.3,38.3,140.6,36.2,137.6,36.2z M166.1,28.9c8,0,13,5,13,13.3
				c0,1.1-0.1,2.3-0.2,2.5h-18c0.2,2.9,2.8,5,5.9,5c2.9,0,4.5-1.4,5.2-3.4l6.6,1.9c-1.3,4.5-5.4,8.3-11.9,8.3
				c-7.1,0-13.5-5.1-13.5-13.8C153.3,34.3,159.4,28.9,166.1,28.9z M166.3,35.2c-3.3,0-5,2.5-5.2,4.4h10.4
				C171.3,37.6,170.1,35.2,166.3,35.2L166.3,35.2z"/>
			<path class="st0" d="M190.8,65.5l16-35.8h-8.4l-5.7,13.9l-6.3-13.9h-8.9l10.9,22.4l-5.9,13.4H190.8z M217.9,28.9
				c8,0,13,5,13,13.3c0,1.1-0.1,2.3-0.2,2.5h-18c0.2,2.9,2.8,5,5.9,5c2.9,0,4.5-1.4,5.2-3.4l6.6,1.9c-1.3,4.5-5.4,8.3-11.9,8.3
				c-7.1,0-13.5-5.1-13.5-13.8C205.1,34.3,211.3,28.9,217.9,28.9L217.9,28.9z M218.1,35.2c-3.3,0-5,2.5-5.2,4.4h10.4
				C223.1,37.6,221.8,35.2,218.1,35.2z"/>
			<path class="st1" d="M36.7,39.1L36.7,39.1L36.4,39L26,34.9c-0.3-0.1-0.6-0.2-0.9-0.2c-1.3,0-2.3,1-2.3,2.3c0,0.5,0.2,1,0.5,1.4
				l0,0c0.1,0.1,0.1,0.1,0.2,0.2l7.4,8.5c0.9,1,2.3,1.7,3.8,1.7c2.8,0,5.1-2.2,5.1-5C39.7,41.6,38.5,39.9,36.7,39.1 M33.2,22.1
				c2.3-0.7,4.9,0.5,5.6,2.7c0.8,2.2-0.5,4.6-2.8,5.3s-4.9-0.5-5.6-2.7S30.8,22.8,33.2,22.1 M49.5,24.8c-0.3-0.5-0.8-0.8-1.4-0.9
				l0,0l-2-0.5c0-0.1,0-0.2-0.1-0.3c-2.1-6.2-9-9.6-15.4-7.5c-3.3,1.1-5.8,3.4-7.2,6.2l-3.7,5.8L11,24.2l0,0
				c-0.5-0.2-1.2-0.3-1.8-0.1c-1.3,0.4-2.1,1.8-1.6,3.1c0.1,0.2,0.2,0.4,0.3,0.5l0,0l9.1,12l0,0l0,0l6.5,9.1c2.8,5.1,9,8.1,14.9,6.2
				c6.4-2,9.8-8.7,7.7-15c-0.7-1.9-1.8-3.6-3.2-4.9c1.8-1.7,3-3.9,3.5-6.3l2-0.6l0,0c0.2-0.1,0.3-0.1,0.5-0.3
				C50,27.3,50.3,25.8,49.5,24.8"/>
		</g>
	</g>
</g>
</svg>
