<?xml version="1.0" encoding="utf-8"?>
<!-- Generator: Adobe Illustrator 24.2.1, SVG Export Plug-In . SVG Version: 6.00 Build 0)  -->
<svg version="1.1" id="Layer_1" xmlns="http://www.w3.org/2000/svg" xmlns:xlink="http://www.w3.org/1999/xlink" x="0px" y="0px"
	 viewBox="0 0 100 100" style="enable-background:new 0 0 100 100;" xml:space="preserve">
<style type="text/css">
	.st0{fill:#253863;}
	.st1{fill:#459A4E;}
</style>
<g>
	<path class="st0" d="M50,100c-15.8,0-31.7,0-47.5,0C0.7,100,0,99.5,0,98.3c0-1.3,0.7-1.8,2.6-1.8c1,0,2.1,0,3.1,0c0.8,0,1-0.3,1-1
		c0-4.4,0-8.8,0-13.2c0-1.9,0.5-2.4,2.4-2.4c4.1,0,8.1,0,12.2,0c1.7,0,2.2,0.5,2.2,2.2c0,4.4,0,8.7,0,13.1c0,1,0.2,1.4,1.3,1.3
		c1.3-0.1,2.7-0.1,4.1,0c1,0.1,1.2-0.3,1.2-1.2c0-8.7,0-17.3,0-26c0-0.4,0-0.8,0-1.1c0.1-1,0.7-1.6,1.6-1.6c4.5,0,9,0,13.5,0
		c1,0,1.6,0.7,1.6,1.9c0,2,0,3.9,0,5.9c0,6.9,0,13.9,0,20.8c0,1.1,0.3,1.4,1.4,1.3c1.3-0.1,2.6-0.1,3.9,0c0.9,0,1.3-0.2,1.3-1.2
		c0-4.5,0-9,0-13.5c0-8.7,0-17.5,0-26.2c0-1.8,0.5-2.3,2.4-2.3c4,0,8,0,12.1,0c1.9,0,2.4,0.5,2.4,2.4c0,13.1,0,26.3,0,39.4
		c0,1.4,0,1.4,1.4,1.4c1.2,0,2.4,0,3.6,0c1.4,0,1.4,0,1.4-1.5c0-11.8,0-23.7,0-35.5c0-5.8,0-11.5,0-17.3c0-1.7,0.5-2.2,2.2-2.2
		c4.1,0,8.2,0,12.4,0c1.6,0,2.2,0.6,2.2,2.2c0,2,0,3.9,0,5.9c0,1.3-0.6,2-1.7,2c-1.1,0-1.7-0.7-1.7-2c0-1.2,0-2.4,0-3.6
		c0-0.8-0.2-1-1-1c-2.6,0-5.1,0.1-7.7,0c-0.9,0-1.2,0.3-1.2,1.2c0,11.8,0,23.6,0,35.4c0,5.1,0,10.2,0,15.3c0,0.9,0.3,1.2,1.2,1.2
		c2.5-0.1,5-0.1,7.5,0c1,0,1.2-0.3,1.2-1.3c0-13.1,0-26.2,0-39.3c0-0.4,0-0.8,0-1.2c0.1-0.9,0.8-1.5,1.7-1.5c0.9,0,1.6,0.6,1.7,1.5
		c0,0.4,0,0.8,0,1.2c0,13,0,26.1,0,39.1c0,1.4,0,1.4,1.4,1.4c1.1,0,2.3,0,3.4,0c1.2,0,1.8,0.6,1.8,1.7c0,1.1-0.6,1.8-1.8,1.8
		c-5,0-9.9,0-14.9,0C72.2,100,61.1,100,50,100z M66.6,76.7c0-6.3,0-12.5,0-18.8c0-0.9-0.3-1.2-1.2-1.2c-2.5,0.1-5.1,0-7.6,0
		c-0.8,0-1.1,0.2-1.1,1.1c0,12.6,0,25.2,0,37.7c0,0.8,0.3,1,1,1c2.5,0,5-0.1,7.5,0c1,0,1.4-0.2,1.4-1.3C66.5,89,66.6,82.9,66.6,76.7
		z M43.3,83.3c0-4.1,0-8.1,0-12.2c0-0.8-0.2-1.1-1.1-1.1c-2.6,0-5.2,0-7.8,0c-0.8,0-1,0.3-1,1c0,8.1,0,16.3,0,24.4
		c0,0.9,0.3,1,1.1,1c2.5,0,5.1-0.1,7.6,0c0.9,0,1.2-0.3,1.2-1.2C43.3,91.3,43.3,87.3,43.3,83.3z M10.2,89.8c0,1.9,0,3.7,0,5.6
		c0,0.7,0.2,1.1,1,1.1c2.6,0,5.3,0,7.9,0c0.7,0,1-0.2,1-1c0-3.7,0-7.5,0-11.2c0-0.8-0.3-1-1-1c-2.6,0-5.2,0-7.8,0c-0.8,0-1,0.2-1,1
		C10.2,86.2,10.2,88,10.2,89.8z"/>
	<path class="st1" d="M87.3,10.3c-0.3-0.2-0.7-0.1-1-0.1c-2.6,0-5.3,0-7.9,0c-1.1,0-1.8-0.7-1.8-1.7c0-1,0.7-1.7,1.8-1.8
		c4.4,0,8.8,0,13.2,0c1.1,0,1.7,0.7,1.8,1.8c0,4.4,0,8.8,0,13.2c0,1.1-0.7,1.8-1.7,1.8c-1,0-1.7-0.7-1.7-1.8c0-2.4,0-4.8,0-7.3
		c0-0.3,0-0.7,0-1.2c-1,1.1-1.7,2-2.5,2.9C76.9,27.9,65,38,51.3,45.8c-10.5,6-21.7,10.2-33.7,11.9c-3.5,0.5-7.1,0.8-10.7,0.7
		c-1.3,0-2-0.6-2-1.8c0-1.1,0.7-1.7,1.9-1.7c17.3-0.2,32.9-5.9,47.4-15.1c9-5.7,17.1-12.4,24.6-19.9c2.8-2.8,5.4-5.7,7.9-8.7
		C86.9,10.9,87.3,10.7,87.3,10.3z"/>
	<path class="st0" d="M22.6,0c10,0,19.2,8,20.6,18.7c1.6,11.7-6,22.2-17.6,24.4C13.8,45.4,1.9,36.9,0.2,25
		c-0.8-5.5,0.4-10.7,3.4-15.4C4.3,8.8,5,8.3,6,8.7c1.2,0.4,1.5,1.6,0.7,2.8c-1.4,2.2-2.4,4.5-2.9,7.1C1.9,28.9,9.7,39,20.1,39.8
		c10.2,0.8,18.2-6.6,19.5-15c1.7-10.6-5.9-20.1-16-21.1c-4.3-0.4-8.3,0.6-12,2.9c-1.2,0.8-2.1,0.7-2.7-0.2c-0.7-0.9-0.4-2,0.6-2.7
		C13.3,1.3,17.4,0,22.6,0z"/>
	<path class="st1" d="M15,27.4c0-1.7,0.5-2.4,1.6-2.5c1.1-0.1,1.7,0.5,1.9,1.8c0.2,1.4,0.8,2.5,2.2,3c1.2,0.4,2.3,0.2,3.2-0.7
		c1-0.9,1.3-2.2,0.8-3.5c-0.6-1.4-1.7-2-3.2-2.1c-2.1-0.1-3.8-1-5.1-2.6c-2.6-3.3-1.6-8.1,2.2-10c1.1-0.6,1.5-1.1,1.4-2.3
		c-0.1-1.1,0.5-1.7,1.4-1.8c1.2-0.1,2,0.5,2,1.7c-0.1,1.3,0.3,1.9,1.5,2.5c2.3,1.1,3.5,3.1,3.5,5.7c0,1.1-0.6,1.8-1.6,1.8
		c-1,0.1-1.8-0.5-1.9-1.6c-0.2-1.6-0.9-2.8-2.6-3.2c-1.6-0.4-3.3,0.6-3.7,2.2c-0.5,1.7,0.4,3.5,2.1,4c0.5,0.1,1,0.2,1.4,0.2
		c3,0.2,5.5,2.4,6.2,5.4c0.6,2.9-0.8,5.9-3.5,7.2c-1.2,0.5-1.5,1.2-1.4,2.3c0.1,1-0.4,1.6-1.4,1.8c-0.9,0.2-1.6-0.2-1.9-1
		C20,35.4,20,34.9,20,34.6c0.1-0.9-0.2-1.4-1.1-1.8C16.5,31.7,15.2,29.7,15,27.4z"/>
</g>
</svg>
