<?xml version="1.0" encoding="utf-8"?>
<!-- Generator: Adobe Illustrator 24.2.1, SVG Export Plug-In . SVG Version: 6.00 Build 0)  -->
<svg version="1.1" id="Layer_1" xmlns="http://www.w3.org/2000/svg" xmlns:xlink="http://www.w3.org/1999/xlink" x="0px" y="0px"
	 viewBox="0 0 100 100" style="enable-background:new 0 0 100 100;" xml:space="preserve">
<style type="text/css">
	.st0{fill:#253863;}
	.st1{fill:#459A4E;}
</style>
<g>
	<path class="st0" d="M100,30.5c0-3.5-2.8-6.3-6.4-6.3c-0.6,0-1.1,0-1.9,0c0.2-0.4,0.3-0.5,0.5-0.7c2-2.7,3-5.8,3-9.2
		c-0.1-7.9-7-15.4-16.6-14.2c-11,1.5-16.3,14.2-9.7,23.2c0.2,0.2,0.6,0.4,0.4,0.7c-0.2,0.3-0.6,0.1-0.9,0.1c-5.7,0-11.5,0-17.2,0
		c-0.6,0-0.9-0.1-1.1-0.5V28c0.1-0.3,0.4-0.5,0.9-0.5c7.4,0,14.8,0,22.1,0c0.5,0,0.9,0.1,1.4,0.3c4,1.7,7.9,1.8,11.9,0.1
		c0.7-0.3,1.3-0.4,2-0.4c1.5,0,3,0,4.4,0c2.5,0,3.7,1.3,3.7,3.7c0,13.3,0,26.7,0,40c0,1-0.3,1.2-1.2,1.2c-15.2,0-30.3,0-45.5,0
		c-15.1,0-30.1,0-45.2,0c-1.4,0-1.4,0-1.4-1.4c0-13.2,0-26.4,0-39.5c0-2.9,1.2-4,4.1-4c3.1,0,6.2,0,9.3,0c0.5,0,0.8,0.1,0.9,0.4
		v-4.2c-0.1,0.3-0.4,0.4-1,0.4c-3.2,0-6.4,0-9.7,0c-4.3,0-7,2.7-7,6.9c0,15.8,0,31.6,0,47.4c0,4.3,2.7,7,6.9,7c10.3,0,20.7,0,31,0
		c0.3,0,0.5,0,0.8,0c0.6,0,0.8,0.2,0.6,0.8c-0.5,1.6-1.1,3.2-1.6,4.8c-0.2,0.5-0.5,0.7-1,0.7c-1.4,0-2.8,0-4.2,0
		c-1.3,0-1.8,0.6-1.9,1.9c0,0.5,0,1.1,0,1.6c0,1.3,0,1.3-1.3,1.3c-4.7,0-9.3,0-14,0c-0.3,0-0.7,0-1,0c-0.9,0.2-1.4,0.7-1.4,1.6
		c0,0.9,0.5,1.6,1.4,1.7c0.3,0.1,0.7,0,1,0c23.1,0,46.3,0,69.4,0c0.3,0,0.7,0,1,0c0.9-0.2,1.3-0.7,1.4-1.6c0-0.9-0.5-1.6-1.4-1.7
		c-0.3,0-0.7,0-1,0c-4.7,0-9.3,0-14,0c-1.3,0-1.3,0-1.3-1.3c0-0.5,0-1.1,0-1.6c0-1.3-0.6-1.8-1.9-1.9c-1.4,0-2.8,0-4.1,0
		c-0.6,0-1-0.2-1.2-0.8c-0.4-1.4-0.9-2.7-1.4-4.1c-0.5-1.4-0.5-1.4,1-1.4c10.6,0,21.1,0,31.7,0c3.6,0,6.4-2.8,6.4-6.4
		C100,62.9,100,46.7,100,30.5z M82.3,4.4c0-0.6,0.2-0.8,0.8-0.7c3.9,0.8,7.6,4.4,8.4,8.4c0.1,0.7-0.1,0.8-0.7,0.8
		c-1.3,0-2.5,0-3.8,0c-1.3,0-2.5,0-3.8,0c-0.7,0-0.9-0.2-0.9-0.9C82.3,9.5,82.3,6.9,82.3,4.4z M72.2,20.6c-0.5,0.6-0.8,0.5-1.2-0.1
		c-3.9-6.3-0.4-14.9,6.8-16.6c0.8-0.2,1.1,0,1.1,0.8c-0.1,1.4,0,2.9,0,4.3c0,1.4,0,2.7,0,4.1c0,0.6-0.2,1-0.6,1.4
		C76.3,16.5,74.2,18.5,72.2,20.6z M91.5,17.1c-0.9,4.3-5,8-9.4,8.5c-2.6,0.3-5-0.2-7.3-1.5c-0.6-0.4-0.7-0.6-0.2-1.2
		c2.1-2,4.1-4.1,6.1-6.1c0.4-0.4,0.8-0.6,1.4-0.6c1.4,0,2.8,0,4.2,0c1.5,0,2.9,0,4.4,0C91.4,16.3,91.6,16.5,91.5,17.1z M64.8,95.2
		c0.4,0,1-0.3,1.2,0.4c0.2,0.8-0.2,1-1,1c-5,0-10,0-15,0c-5,0-10,0-15,0c-0.5,0-1.1,0.2-1.1-0.6c0-0.5,0.1-0.9,0.7-0.8
		c0.2,0,0.3,0,0.5,0C45.1,95.2,54.9,95.2,64.8,95.2z M41.5,90.7c0.5-1.4,1-2.8,1.4-4.2c0.2-0.7,0.5-1,1.3-1c3.9,0,7.8,0,11.8,0
		c0.6,0,1,0.2,1.2,0.8c0.5,1.5,1,3,1.5,4.5c0.3,0.7,0.1,1-0.7,1c-2.6,0-5.3,0-7.9,0c-2.5,0-5.1,0-7.6,0
		C41.1,91.8,41.1,91.8,41.5,90.7z M91.7,82.2c-28-0.1-55.9,0-83.9,0c-0.4,0-0.8,0-1.2,0c-1.8-0.1-3-1.3-3.2-3.1
		c-0.1-0.8,0-1.7,0-2.5c0-0.5,0.2-0.7,0.7-0.7c0.3,0,0.6,0,0.9,0c15,0,30,0,45.1,0c15.1,0,30.1,0,45.2,0c1.4,0,1.3,0,1.4,1.4
		C96.9,80.9,95.5,82.2,91.7,82.2z"/>
	<path class="st1" d="M17.7,23.4v5c0,0.1,0,0.1,0,0.2c0,3.6,0,7.2,0,10.8c0,0.6,0,1-0.8,1c-0.7,0-0.7-0.5-0.7-1c0-2.8,0-5.5,0-8.2
		c0-1.5-0.6-2.1-2.1-2.1c-1.9,0-3.9,0-5.8,0c-1.3,0-1.9,0.6-1.9,1.9c0,3.5,0,7,0,10.6c0,1.6,0.5,2.1,2.2,2.1c12.2,0,24.5,0,36.7,0
		c4.6,0,9.2,0,13.8,0c1.6,0,2.2-0.5,2.2-2.2c0-3.5,0-6.9,0-10.4c0-1.6-0.5-2.1-2.1-2.1c-1.9,0-3.8,0-5.6,0c-1.5,0-2,0.6-2,2
		c0,2.7,0,5.5,0,8.2c0,0.5,0.1,1-0.7,1c-0.8,0-0.7-0.5-0.7-1c0-2.6,0-5.3,0-7.9c0,0,0,0,0,0V21.1c0,0,0,0,0,0c0-4.1,0-8.2,0-12.2
		c0-1.9-0.4-2.4-2.3-2.4c-1.7,0-3.4,0-5,0c-2,0-2.4,0.4-2.4,2.4c0,4.8,0,9.5,0,14.3c0,0.7-0.1,1.1-0.9,1c-0.7-0.1-0.5-0.7-0.5-1.1
		c0-7,0-14,0-21c0-1.5-0.6-2-2-2c-1.8,0-3.6,0-5.4,0C29.4,0,29,0.5,29,2.4c0,6.9,0,13.7,0,20.6c0,0.5,0.2,1.1-0.7,1.1
		c-1,0-0.8-0.6-0.8-1.2c0-3.2,0-6.3,0-9.5c0-1.8-0.5-2.2-2.3-2.2c-1.8,0-3.6,0-5.4,0c-1.5,0-2.1,0.5-2.1,2.1c0,3.3,0,6.5,0,9.8
		C17.7,23.2,17.7,23.3,17.7,23.4z M12.1,40.3c-2.7,0-2.2,0.3-2.3-2.1c0-1.6,0-3.3,0-4.9c0-0.6,0.2-0.9,0.9-0.9
		c2.7,0,2.2-0.3,2.2,2.2c0,0.6,0,1.2,0,1.8c0,1,0,2.1,0,3.1C12.9,40,12.7,40.3,12.1,40.3z M54.9,38.2c0-1.6,0-3.3,0-4.9
		c0-0.6,0.2-0.9,0.9-0.9c2.7,0,2.2-0.3,2.2,2.2c0,0.6,0,1.2,0,1.8c0,1,0,2.1,0,3.1c0,0.6-0.2,0.8-0.8,0.8
		C54.4,40.3,54.9,40.6,54.9,38.2z M43.6,11.2c0-1.4,0-1.4,1.4-1.4c0.2,0,0.5,0,0.7,0c0.8-0.1,1,0.3,1,1c0,4.7,0,9.5,0,14.2
		c0,4.7,0,9.3,0,14c0,1-0.2,1.3-1.2,1.3c-2.1-0.1-1.9,0.2-1.9-1.9C43.6,29.3,43.6,20.3,43.6,11.2z M39.6,27.5c0.7,0,0.7,0.4,0.7,0.9
		c0,1.8,0,3.7,0,5.5c0,1.8,0,3.6,0,5.4c0,0.6-0.1,0.9-0.8,0.9c-0.6,0-0.7-0.3-0.7-0.8c0-3.7,0-7.4,0-11
		C38.8,27.9,38.9,27.5,39.6,27.5z M32.4,4.8c0-1.4,0-1.4,1.4-1.4c0.2,0,0.4,0,0.6,0c0.9-0.1,1.1,0.3,1.1,1.1c0,5.8,0,11.5,0,17.3
		c0,5.8,0,11.5,0,17.3c0,0.9-0.2,1.2-1.2,1.2c-2.2-0.1-1.9,0.2-1.9-1.9C32.4,27.2,32.4,16,32.4,4.8z M28.3,27.5c0.7,0,0.7,0.5,0.7,1
		c0,3.6,0,7.2,0,10.8c0,0.6,0,1-0.8,1c-0.7,0-0.7-0.5-0.7-1c0-1.8,0-3.6,0-5.4c0-1.8,0-3.6,0-5.4C27.5,27.9,27.6,27.5,28.3,27.5z
		 M22.3,14.7c2.1,0.1,1.9-0.2,1.9,1.9c0,7.4,0,14.9,0,22.3c0,1.4,0,1.4-1.4,1.4c-0.2,0-0.5,0-0.7,0c-0.8,0.1-1-0.3-1-1
		c0-3.9,0-7.8,0-11.8c0-3.9,0-7.7,0-11.6C21.1,15,21.3,14.6,22.3,14.7z"/>
	<path class="st1" d="M6.5,58.1c0-2.4,1.5-4.3,3.7-4.9c2.3-0.5,4.6,0.6,5.6,2.7c0.3,0.6,0.6,1,1.3,1.3c4.9,2,9.8,4.1,14.7,6.1
		c0.7,0.3,1.1,0.2,1.6-0.4c1.8-2.2,5.1-2.4,7.1-0.4c0.6,0.6,1,0.5,1.7,0.1c5-3.8,10-7.5,15-11.3c0.5-0.4,0.8-0.8,1.1-1.4
		c0.8-2,2.5-3.2,4.5-3.2c2.2,0,3.9,1.1,4.7,3.2c0.2,0.5,0.5,0.8,0.9,1.1c5,2.9,10.1,5.9,15.1,8.8c0.7,0.4,1.1,0.2,1.6-0.3
		c1.5-1.6,3.9-1.9,5.8-0.9c1.9,1,3,3.2,2.5,5.3c-0.4,2.1-2.2,3.7-4.2,3.9c-2.3,0.2-4.3-0.9-5.1-3c-0.2-0.6-0.5-1-1.1-1.3
		c-5-2.9-10-5.8-15-8.8c-0.6-0.4-1-0.3-1.5,0.2c-1.9,2.1-5,2.2-7,0.2c-0.6-0.6-1-0.5-1.6-0.1c-5,3.8-10.1,7.6-15.1,11.4
		c-0.5,0.4-0.8,0.7-1,1.3c-0.7,2-2.4,3.2-4.4,3.3c-2.2,0.1-3.9-1-4.8-3c-0.2-0.6-0.6-0.8-1.1-1c-4.9-2-9.8-4.1-14.8-6.2
		c-0.7-0.3-1.1-0.1-1.6,0.5c-1.3,1.6-3.6,2.2-5.6,1.4C7.7,61.9,6.5,60.2,6.5,58.1z M64.4,51.6c0-0.8-0.7-1.5-1.5-1.5
		c-0.7,0-1.5,0.7-1.5,1.5c0,0.8,0.7,1.5,1.5,1.5C63.6,53.1,64.4,52.4,64.4,51.6z M11.3,59.6c0.7,0,1.5-0.7,1.5-1.4
		c0-0.7-0.6-1.5-1.4-1.6c-0.8-0.1-1.6,0.7-1.6,1.5C9.9,58.8,10.6,59.5,11.3,59.6z M88.6,61.4c-0.7,0-1.5,0.7-1.5,1.5
		c0,0.8,0.7,1.5,1.5,1.5c0.8,0,1.5-0.7,1.5-1.5C90.1,62.1,89.4,61.4,88.6,61.4z M37.2,67.6c0.8,0,1.5-0.8,1.5-1.5
		c0-0.8-0.8-1.5-1.5-1.5c-0.8,0-1.5,0.8-1.5,1.5C35.7,66.9,36.4,67.6,37.2,67.6z"/>
	<path class="st0" d="M81.4,30.6c2.3,0,4.6,0,6.9,0c1.3,0,2,0.6,2,1.7c0,1-0.7,1.6-2,1.6c-4.1,0-8.2,0-12.4,0
		c-0.8,0-1.3,0.2-1.9,0.8c-1.7,1.7-3.4,3.4-5.1,5.1c-0.6,0.6-1.3,0.8-2.1,0.4c-0.7-0.4-1-1.1-0.8-1.9c0.1-0.4,0.3-0.7,0.6-1
		c2-2,4-4,6-6c0.5-0.5,1-0.7,1.7-0.7C76.8,30.6,79.1,30.6,81.4,30.6z"/>
	<path class="st0" d="M16.9,48.5c-2.8,0-5.6,0-8.4,0c-1.3,0-2-0.6-2-1.7c0-1.1,0.7-1.7,2-1.7c5.7,0,11.3,0,17,0c1.3,0,2,0.6,2,1.7
		c0,1.1-0.7,1.7-2,1.7C22.6,48.5,19.8,48.5,16.9,48.5z"/>
	<path class="st0" d="M70,71c-1.8,0-3.5,0-5.3,0c-1.2,0-1.9-0.7-1.9-1.7c0-1,0.7-1.6,1.9-1.6c3.6,0,7.2,0,10.8,0
		c1.2,0,1.9,0.6,1.9,1.6c0,1-0.7,1.7-1.9,1.7C73.7,71,71.9,71,70,71z"/>
	<path class="st0" d="M73.3,66.2c-0.8,0-1.6,0-2.4,0c-1,0-1.6-0.7-1.6-1.7c0-0.9,0.6-1.6,1.6-1.7c1.6,0,3.3,0,4.9,0
		c1,0,1.6,0.7,1.6,1.7c0,0.9-0.6,1.6-1.6,1.7C75,66.2,74.1,66.2,73.3,66.2z"/>
	<path class="st0" d="M31.4,48.5c-0.3,0-0.7,0-1,0c-0.9-0.1-1.4-0.8-1.4-1.7c0-0.9,0.6-1.6,1.4-1.6c0.6-0.1,1.3,0,1.9,0
		c1,0.1,1.6,0.7,1.6,1.7c0,0.9-0.6,1.6-1.6,1.7C32,48.5,31.7,48.5,31.4,48.5C31.4,48.5,31.4,48.5,31.4,48.5z"/>
	<path class="st0" d="M13.1,77.3c1.5,0,3,0,4.5,0c1.2,0,1.9,0.7,1.9,1.7c0,1-0.7,1.6-1.9,1.6c-3.1,0-6.2,0-9.2,0
		c-1.2,0-1.9-0.7-1.9-1.7c0-1,0.7-1.6,1.9-1.6C9.9,77.3,11.5,77.3,13.1,77.3z"/>
	<path class="st0" d="M23.4,80.7c-1.7,0-2.5-0.5-2.5-1.7c0-1.2,0.8-1.6,2.5-1.6c1.7,0,2.5,0.5,2.5,1.7
		C25.9,80.2,25.1,80.7,23.4,80.7z"/>
</g>
</svg>
