<?xml version="1.0" encoding="utf-8"?>
<!-- Generator: Adobe Illustrator 24.2.1, SVG Export Plug-In . SVG Version: 6.00 Build 0)  -->
<svg version="1.1" id="Layer_1" xmlns="http://www.w3.org/2000/svg" xmlns:xlink="http://www.w3.org/1999/xlink" x="0px" y="0px"
	 viewBox="0 0 100 100" style="enable-background:new 0 0 100 100;" xml:space="preserve">
<style type="text/css">
	.st0{fill:#449A4E;}
	.st1{fill:#263863;}
	.st2{fill:#FFFFFF;}
	.st3{fill:#1C3E58;}
</style>
<path class="st0" d="M40.9,31.8H19.3c-1,0-1.9,0.8-1.9,1.8v19.5c0,1,0.8,1.8,1.9,1.8h14.2l4.9,4.9L37.8,55h3.1c1,0,1.9-0.8,1.9-1.8
	V33.6C42.8,32.6,41.9,31.8,40.9,31.8z"/>
<g id="Layer_3">
	<g>
		<path class="st1" d="M88.5,52.8L88.1,47l5.6,3L88.5,52.8z M89,48.4l0.2,3.1L92,50L89,48.4z"/>
	</g>
	<g>
		<path class="st0" d="M15,47.1H9c-1.3,0-2.3-1-2.3-2.2V25.3c0-1.2,1-2.2,2.3-2.2h21.5c0.2,0,0.4,0.2,0.4,0.4s-0.2,0.4-0.4,0.4H9
			c-0.8,0-1.5,0.6-1.5,1.4v19.5c0,0.8,0.7,1.4,1.5,1.4h6c0.2,0,0.4,0.2,0.4,0.4C15.4,46.9,15.2,47.1,15,47.1z"/>
	</g>
	<g>
		<path class="st0" d="M32.5,30.3c-0.2,0-0.4-0.2-0.4-0.4v-4.5c0-0.8-0.7-1.4-1.5-1.4c-0.2,0-0.4-0.2-0.4-0.4s0.2-0.4,0.4-0.4
			c1.3,0,2.3,1,2.3,2.2v4.5C32.9,30.1,32.7,30.3,32.5,30.3z"/>
	</g>
	<g>
		<g>
			<path class="st1" d="M54.4,43.9c-0.2,0-0.4-0.2-0.4-0.4c0-1.6-1.3-2.9-2.9-2.9h-8.3c-0.2,0-0.4-0.2-0.4-0.4s0.2-0.4,0.4-0.4h8.3
				c2,0,3.7,1.7,3.7,3.7C54.8,43.7,54.6,43.9,54.4,43.9z"/>
		</g>
		<g>
			<path class="st1" d="M41.4,79.6h-8.9c-2,0-3.7-1.7-3.7-3.7V53.3c0-0.2,0.2-0.4,0.4-0.4s0.4,0.2,0.4,0.4V76c0,1.6,1.3,2.9,2.9,2.9
				h8.9c0.2,0,0.4,0.2,0.4,0.4C41.8,79.4,41.6,79.6,41.4,79.6z"/>
		</g>
		<g>
			<path class="st1" d="M41.8,85.3H29c-2.6,0-4.8-2.1-4.8-4.7V53.3c0-0.2,0.2-0.4,0.4-0.4c0.2,0,0.4,0.2,0.4,0.4v27.4
				c0,2.1,1.8,3.9,3.9,3.9h12.8c0.2,0,0.4,0.2,0.4,0.4C42.2,85.2,42,85.3,41.8,85.3z"/>
		</g>
		<g>
			<path class="st1" d="M58.3,42.1c-0.2,0-0.4-0.2-0.4-0.4v-2.9c0-2.1-1.8-3.9-3.9-3.9H43c-0.2,0-0.4-0.2-0.4-0.4s0.2-0.4,0.4-0.4
				h11c2.6,0,4.8,2.1,4.8,4.7v2.9C58.7,41.9,58.5,42.1,58.3,42.1z"/>
		</g>
		<g>
			<path class="st1" d="M36.2,58.6c-0.1,0-0.2,0-0.3-0.1L31,53.7H17c-1.3,0-2.3-1-2.3-2.2V31.9c0-1.2,1-2.2,2.3-2.2h21.5
				c1.3,0,2.3,1,2.3,2.2v19.5c0,1.2-1,2.2-2.3,2.2H36l0.6,4.5c0,0.2-0.1,0.3-0.2,0.4C36.3,58.6,36.2,58.6,36.2,58.6z M17.1,30.5
				c-0.8,0-1.5,0.6-1.5,1.4v19.5c0,0.8,0.7,1.4,1.5,1.4h14.2c0.1,0,0.2,0,0.3,0.1l4.1,4.1l-0.5-3.7c0-0.1,0-0.2,0.1-0.3
				s0.2-0.1,0.3-0.1h3.1c0.8,0,1.5-0.6,1.5-1.4V31.9c0-0.8-0.7-1.4-1.5-1.4H17.1z"/>
		</g>
		<g>
			<path class="st1" d="M33.2,36.6H21.8c-0.2,0-0.4-0.2-0.4-0.4s0.2-0.4,0.4-0.4h11.4c0.2,0,0.4,0.2,0.4,0.4
				C33.7,36.4,33.5,36.6,33.2,36.6z"/>
		</g>
		<g>
			<path class="st1" d="M33.2,46.2H21.8c-0.2,0-0.4-0.2-0.4-0.4s0.2-0.4,0.4-0.4h11.4c0.2,0,0.4,0.2,0.4,0.4
				C33.7,46.1,33.5,46.2,33.2,46.2z"/>
		</g>
		<g>
			<path class="st1" d="M27.2,41.4h-5.4c-0.2,0-0.4-0.2-0.4-0.4s0.2-0.4,0.4-0.4h5.4c0.2,0,0.4,0.2,0.4,0.4S27.5,41.4,27.2,41.4z"/>
		</g>
		<g>
			<path class="st1" d="M47.4,69.7H33.7c-0.2,0-0.4-0.2-0.4-0.4c0-0.2,0.2-0.4,0.4-0.4h13.7c0.2,0,0.4,0.2,0.4,0.4
				C47.8,69.5,47.6,69.7,47.4,69.7z"/>
		</g>
		<g>
			<path class="st1" d="M47.4,63.7H33.7c-0.2,0-0.4-0.2-0.4-0.4s0.2-0.4,0.4-0.4h13.7c0.2,0,0.4,0.2,0.4,0.4
				C47.8,63.5,47.6,63.7,47.4,63.7z"/>
		</g>
		<g>
			<path class="st1" d="M51.7,60.8c-0.2,0-0.4-0.1-0.4-0.3s-0.2-0.3-0.5-0.5c-0.5-0.3-1.2-0.8-1.5-2.3c-0.6-2.5,0.1-3.4,0.6-3.7
				c0.5-0.4,1.2-0.3,1.8,0.1c0.2,0.1,0.2,0.4,0.1,0.6c-0.1,0.2-0.4,0.2-0.6,0.1c-0.2-0.2-0.6-0.3-0.9-0.1c-0.2,0.1-0.8,0.7-0.3,2.8
				c0.3,1.2,0.8,1.6,1.2,1.9c0.3,0.2,0.7,0.5,0.8,1C52.1,60.6,52,60.8,51.7,60.8L51.7,60.8z"/>
		</g>
		<g>
			<path class="st1" d="M74.4,60.8L74.4,60.8c-0.3-0.1-0.4-0.3-0.4-0.5c0.1-0.5,0.5-0.8,0.8-1c0.4-0.3,0.9-0.6,1.2-1.9
				c0.5-2.1-0.1-2.7-0.3-2.8c-0.3-0.2-0.7-0.1-0.9,0.1c-0.2,0.1-0.4,0.1-0.6-0.1c-0.1-0.2-0.1-0.4,0.1-0.6c0.6-0.4,1.3-0.4,1.8-0.1
				c0.5,0.3,1.2,1.2,0.6,3.7c-0.4,1.5-1,2-1.5,2.3c-0.3,0.2-0.4,0.3-0.5,0.5C74.8,60.7,74.6,60.8,74.4,60.8z"/>
		</g>
		<g>
			<path class="st1" d="M68.7,62.8h-2.4c-1.1,0-2.1-0.8-2.2-1.8c0,0,0,0,0-0.1v-1c0-1.2,1-2.2,2.2-2.2h2.4c1.2,0,2.2,1,2.2,2.2v0.6
				C71,61.8,70,62.8,68.7,62.8z M64.9,60.9c0.1,0.6,0.7,1,1.4,1h2.4c0.8,0,1.4-0.6,1.4-1.4v-0.6c0-0.8-0.6-1.4-1.4-1.4h-2.4
				c-0.8,0-1.4,0.6-1.4,1.4V60.9z"/>
		</g>
		<g>
			<path class="st1" d="M59.7,62.8h-2.4c-1.1,0-2.1-0.8-2.2-1.8c0,0,0,0,0-0.1v-1c0-1.2,1-2.2,2.2-2.2h2.4c1.2,0,2.2,1,2.2,2.2v0.6
				C61.9,61.8,60.9,62.8,59.7,62.8z M55.9,60.9c0.1,0.6,0.7,1,1.4,1h2.4c0.8,0,1.4-0.6,1.4-1.4v-0.6c0-0.8-0.6-1.4-1.4-1.4h-2.4
				c-0.8,0-1.4,0.6-1.4,1.4V60.9z"/>
		</g>
		<g>
			<path class="st1" d="M52.4,56.4c-0.1,0-0.3-0.1-0.3-0.2c-1.5-2.3-1.8-5.2-0.9-7.8c1.8-5.3,5.7-7.8,12-7.8
				c6.4,0,10.4,2.7,12.1,8.2c0.7,2.4,0.5,5.1-0.8,7.3c-0.1,0.1-0.2,0.2-0.4,0.2c-0.2,0-0.3-0.1-0.4-0.2c-0.2-0.4-0.4-0.8-0.6-1.2
				c-0.1-0.2-0.3-0.5-0.4-0.7c-0.1-0.1-0.2-0.2-0.3-0.2c-3.7,0.8-7.2,0.8-10.4-0.2c-1-0.3-2-0.7-2.8-1c-1.9-0.7-3.3-1.3-4.5-0.7
				c-0.5,0.3-1,0.8-1.3,1.6c-0.2,0.6-0.4,1.3-0.5,2.2C52.8,56.2,52.6,56.3,52.4,56.4L52.4,56.4z M72.3,53.2c0.4,0,0.8,0.2,1,0.6
				c0.1,0.2,0.3,0.5,0.4,0.7s0.2,0.3,0.3,0.5c0.8-1.9,1-4.1,0.4-6c-1.6-5.2-5.2-7.6-11.3-7.6c-5.9,0-9.5,2.3-11.2,7.2
				c-0.7,2-0.5,4.1,0.3,6c0.1-0.4,0.2-0.8,0.4-1.2c0.4-0.9,0.9-1.6,1.6-2c1.5-0.9,3.2-0.2,5.2,0.6c0.9,0.3,1.7,0.7,2.7,1
				c3,0.9,6.4,0.9,10,0.2C72.1,53.3,72.2,53.2,72.3,53.2z"/>
		</g>
		<g>
			<path class="st1" d="M63,73.3c-5.7,0-10.7-5.4-11.8-12.8c0-0.2,0.1-0.4,0.3-0.5c0.2,0,0.4,0.1,0.5,0.3c1.1,7,5.7,12.1,11,12.1
				s9.9-5.1,11-12.1c0-0.2,0.2-0.4,0.5-0.3c0.2,0,0.4,0.2,0.3,0.5C73.7,67.9,68.8,73.3,63,73.3z"/>
		</g>
		<g>
			<path class="st1" d="M63,68.8c-1.1,0-2.2-0.4-3.2-1.2c-0.2-0.1-0.2-0.4-0.1-0.6c0.1-0.2,0.4-0.2,0.6-0.1c1.8,1.4,3.7,1.4,5.5,0
				c0.2-0.1,0.4-0.1,0.6,0.1c0.1,0.2,0.1,0.4-0.1,0.6C65.3,68.3,64.1,68.8,63,68.8z"/>
		</g>
		<g>
			<path class="st1" d="M84.4,97H64.3c-0.2,0-0.4-0.2-0.4-0.4c0-0.2,0.2-0.4,0.4-0.4H84v-9.7c0-2.7-3.8-8.8-8.2-10.5
				c-0.2-0.1-0.3-0.3-0.2-0.5c0.1-0.2,0.3-0.3,0.5-0.2c4.7,1.9,8.7,8.2,8.7,11.3v10.2C84.8,96.8,84.6,97,84.4,97z"/>
		</g>
		<g>
			<path class="st1" d="M59.9,97H41.7c-0.2,0-0.4-0.2-0.4-0.4V86.5c0-2.2,2.2-6.3,5-9c0.2-0.2,0.4-0.2,0.6,0c0.2,0.2,0.2,0.4,0,0.6
				c-2.8,2.8-4.7,6.6-4.7,8.4v9.7H60c0.2,0,0.4,0.2,0.4,0.4C60.3,96.8,60.1,97,59.9,97z"/>
		</g>
		<g>
			<path class="st1" d="M49.5,84.4c-0.2,0-0.4-0.2-0.4-0.4c0-0.7-0.4-7.1,0.1-8.6c1-2.6,3.8-2.8,5.2-2.6c0.2,0,0.4,0.2,0.3,0.5
				c0,0.2-0.2,0.4-0.5,0.3c-0.1,0-3.3-0.5-4.2,2.1c-0.4,1.2-0.2,6.4-0.1,8.3C49.9,84.2,49.8,84.4,49.5,84.4L49.5,84.4z"/>
		</g>
		<g>
			<path class="st1" d="M75.7,81.7c-0.2,0-0.4-0.2-0.4-0.4c0-3.6-0.3-6.2-0.7-7.1c-0.6-1.1-2.1-0.7-2.2-0.7
				c-0.2,0.1-0.4-0.1-0.5-0.3c-0.1-0.2,0.1-0.4,0.3-0.5c0.8-0.2,2.4-0.3,3.1,1.1c0.7,1.3,0.8,5.2,0.8,7.4
				C76.1,81.6,75.9,81.7,75.7,81.7z"/>
		</g>
		<g>
			<path class="st1" d="M57.9,96.4c-0.2,0-0.4-0.2-0.4-0.4v-5.4c0-3.2,4-4.7,4.2-4.7c0.2-0.1,0.4,0,0.5,0.2s0,0.4-0.2,0.5
				c0,0-3.7,1.4-3.7,4V96C58.3,96.2,58.2,96.4,57.9,96.4z"/>
		</g>
		<g>
			<circle class="st0" cx="50" cy="87.7" r="4"/>
		</g>
		<g>
			<ellipse class="st2" cx="50" cy="87.7" rx="1.6" ry="1.6"/>
		</g>
		<g>
			<path class="st1" d="M70.8,90.2c-0.1,0-0.2-0.1-0.3-0.2c-0.7-0.9-1-2.3-1-3.3c0-2.8,2.6-5.1,5.8-5.1c0.2,0,0.4,0.2,0.4,0.4
				c0,0.2-0.2,0.4-0.4,0.4c-2.8,0-5,1.9-5,4.3c0,1,0.3,2.2,0.8,2.8c0.1,0.2,0.1,0.4-0.1,0.6C71,90.2,70.9,90.2,70.8,90.2z"/>
		</g>
		<g>
			<path class="st0" d="M71.5,89.1c-1.5-0.1-2,0.2-2.4,0.7c-0.6,0.6-0.6,2.3-0.6,2.9c0,0.8,1.1,1.1,1.7,1.1H72
				c0.4,0,0.6-0.7,0.6-1.1v-2.3C72.6,89.6,72.6,89.2,71.5,89.1z"/>
		</g>
		<g>
			<path class="st1" d="M80.3,90.2c-0.1,0-0.2,0-0.2-0.1c-0.2-0.1-0.2-0.4-0.1-0.6c0.5-0.6,0.8-1.8,0.8-2.8c0-2.4-2.3-4.3-5-4.3
				c-0.2,0-0.4-0.2-0.4-0.4c0-0.2,0.2-0.4,0.4-0.4c3.2,0,5.8,2.3,5.8,5.1c0,1-0.3,2.4-1,3.3C80.5,90.2,80.4,90.2,80.3,90.2z"/>
		</g>
		<g>
			<path class="st0" d="M79.2,89.1c1.5-0.1,2,0.2,2.4,0.7c0.6,0.6,0.6,2.3,0.6,2.9c0,0.8-1.1,1.1-1.7,1.1h-1.7
				c-0.4,0-0.6-0.7-0.6-1.1v-2.3C78.1,89.6,78.1,89.2,79.2,89.1z"/>
		</g>
		<g>
			<path class="st1" d="M63.9,60.4h-2.4c-0.2,0-0.4-0.2-0.4-0.4s0.2-0.4,0.4-0.4h2.4c0.2,0,0.4,0.2,0.4,0.4S64.2,60.4,63.9,60.4z"/>
		</g>
		<g>
			<path class="st1" d="M63.4,86.8c-5.2,0-9.1-12.4-9.1-13.5c0-0.2,0.1-0.3,0.3-0.4c0.9-0.4,1.5-1.3,1.5-2.3v-0.5
				c0-0.2,0.2-0.4,0.4-0.4s0.4,0.2,0.4,0.4v0.5c0.1,1.2-0.6,2.4-1.7,3c0.3,2.1,4.1,12.4,8.3,12.4c4.1,0,7.9-10.2,8.3-12.4
				c-1.2-0.5-2-1.7-2.1-3v-0.7c0-0.2,0.2-0.4,0.4-0.4c0.2,0,0.4,0.2,0.4,0.4v0.7c0.1,1.1,0.8,2,1.8,2.4h0.1c0.2,0.1,0.3,0.2,0.3,0.4
				C72.5,74.4,68.6,86.8,63.4,86.8z"/>
		</g>
		<g>
			<path class="st1" d="M64.3,42.8c-6.7,0-10,3-11.6,7.5c-0.5,1.6-0.6,3.3-0.2,4.8c0.1-0.5,0.2-1,0.4-1.5c0.3-0.7,0.8-1.4,1.4-1.8
				c1.9-1.1,4.3,0.7,7.6,1.6c2.3,0.7,5.7,1.1,10.2,0.2c0.3-0.1,0.7,0.1,0.8,0.4c0.2,0.5,0.5,0.9,0.7,1.4c0.2,0,0.3,0.1,0.4,0.2
				c1.1-2.1,1.3-4.5,0.6-6.7c-0.3-0.9-0.7-1.8-1.1-2.6C71.7,44.1,68.7,42.8,64.3,42.8z"/>
		</g>
	</g>
	<g>
		<g>
			<path class="st0" d="M93.5,60.5H91c-0.2,0-0.4-0.2-0.4-0.4s0.2-0.4,0.4-0.4h2.5c0.2,0,0.4,0.2,0.4,0.4S93.7,60.5,93.5,60.5z"/>
		</g>
		<g>
			<path class="st0" d="M88.5,60.5h-1.9c-0.2,0-0.4-0.2-0.4-0.4s0.2-0.4,0.4-0.4h1.9c0.2,0,0.4,0.2,0.4,0.4S88.7,60.5,88.5,60.5z"/>
		</g>
		<g>
			<path class="st0" d="M83.5,60.5h-1.9c-0.2,0-0.4-0.2-0.4-0.4s0.2-0.4,0.4-0.4h1.9c0.2,0,0.4,0.2,0.4,0.4S83.7,60.5,83.5,60.5z"/>
		</g>
		<g>
			<path class="st0" d="M99.6,82.4H86.7c-0.2,0-0.4-0.2-0.4-0.4s0.2-0.4,0.4-0.4h12.5V61.5c0-0.6-0.5-1-1-1h-2.7
				c-0.2,0-0.4-0.2-0.4-0.4s0.2-0.4,0.4-0.4h2.7c1,0,1.8,0.8,1.8,1.8V82C100,82.2,99.8,82.4,99.6,82.4z"/>
		</g>
		<g>
			<path class="st0" d="M95,70.1h-4.5c-0.5,0-0.9-0.4-0.9-1v-4.4c0-0.5,0.4-1,0.9-1H95c0.5,0,0.9,0.4,0.9,1v4.4
				C95.9,69.6,95.5,70.1,95,70.1z M90.5,64.5L90.5,64.5L90.4,69c0,0.1,0,0.1,0.1,0.1H95l0.1-0.1v-4.4c0-0.1,0-0.1-0.1-0.1H90.5z"/>
		</g>
		<g>
			<path class="st0" d="M85.4,70.1h-4.5c-0.5,0-0.9-0.4-0.9-1v-4.4c0-0.5,0.4-1,0.9-1h4.5c0.5,0,0.9,0.4,0.9,1v4.4
				C86.3,69.6,85.9,70.1,85.4,70.1z M80.8,64.5L80.8,64.5L80.7,69c0,0.1,0,0.1,0.1,0.1h4.5l0.1-0.1v-4.4c0-0.1,0-0.1-0.1-0.1H80.8z"
				/>
		</g>
		<g>
			<path class="st0" d="M95,78.7h-4.5c-0.5,0-0.9-0.4-0.9-1v-4.4c0-0.5,0.4-1,0.9-1H95c0.5,0,0.9,0.4,0.9,1v4.4
				C95.9,78.2,95.5,78.7,95,78.7z M90.5,73.1L90.5,73.1l-0.1,4.5c0,0.1,0,0.1,0.1,0.1H95l0.1-0.1v-4.4c0-0.1,0-0.1-0.1-0.1H90.5z"/>
		</g>
		<g>
			<path class="st0" d="M85.3,78.7h-1.2c-0.2,0-0.4-0.2-0.4-0.4c0-0.2,0.2-0.4,0.4-0.4h1.2c0.1,0,0.1-0.1,0.1-0.1v-4.4
				c0-0.1-0.1-0.1-0.1-0.1H82c-0.2,0-0.4-0.2-0.4-0.4s0.2-0.4,0.4-0.4h3.4c0.5,0,0.9,0.4,0.9,1v4.4C86.3,78.2,85.8,78.7,85.3,78.7z"
				/>
		</g>
		<g>
			<path class="st0" d="M90,61.6h-0.5c-0.6,0-1.1-0.5-1.1-1.1v-1.6c0-0.6,0.5-1.1,1.1-1.1H90c0.6,0,1.1,0.5,1.1,1.1v1.6
				C91.1,61.1,90.6,61.6,90,61.6z M89.5,58.6c-0.2,0-0.3,0.1-0.3,0.3v1.6c0,0.2,0.1,0.3,0.3,0.3H90c0.2,0,0.3-0.1,0.3-0.3v-1.6
				c0-0.2-0.1-0.3-0.3-0.3H89.5z"/>
		</g>
		<g>
			<path class="st0" d="M85.3,61.6h-0.5c-0.6,0-1.1-0.5-1.1-1.1v-1.6c0-0.6,0.5-1.1,1.1-1.1h0.5c0.6,0,1.1,0.5,1.1,1.1v1.6
				C86.4,61.1,85.9,61.6,85.3,61.6z M84.8,58.6c-0.2,0-0.3,0.1-0.3,0.3v1.6c0,0.2,0.1,0.3,0.3,0.3h0.5c0.2,0,0.3-0.1,0.3-0.3v-1.6
				c0-0.2-0.1-0.3-0.3-0.3H84.8z"/>
		</g>
	</g>
	<g>
		<g>
			<g>
				<path class="st0" d="M85.3,32.5c-0.2,0-0.4,0-0.7,0c-0.5,0-1-0.1-1.5-0.2c-0.2-0.1-0.4-0.3-0.3-0.5s0.3-0.4,0.5-0.3
					c0.4,0.1,0.9,0.2,1.3,0.2c1.8,0.1,3.4-0.4,4.5-0.9c-0.5-0.8-1-1.7-1.3-2.5c-0.4-1.2-0.6-2.4-0.7-3.7l0,0c0-0.2,0.2-0.4,0.4-0.4
					c0.2,0,0.4,0.2,0.4,0.4l0,0c0,1.2,0.2,2.3,0.6,3.4c0.3,1,0.8,1.9,1.5,2.7c0.1,0.1,0.1,0.2,0.1,0.3c0,0.1-0.1,0.2-0.2,0.3
					C88.9,31.9,87.3,32.5,85.3,32.5z"/>
			</g>
			<g>
				<path class="st0" d="M74.8,32.4c-1.6,0-3.2-0.4-4.7-1.2c-0.1-0.1-0.2-0.2-0.2-0.3c0-0.1,0-0.2,0.1-0.3c0.6-0.8,1.1-1.8,1.4-2.7
					c0.4-1.1,0.6-2.2,0.6-3.4c0-0.2,0.2-0.4,0.4-0.4c0.2,0,0.4,0.2,0.4,0.4v0.1c0,0,0,0,0,0.1c0,1.2-0.3,2.4-0.7,3.5
					c-0.3,0.9-0.7,1.7-1.3,2.5c1.4,0.7,3,1,4.5,0.9c0.5,0,0.9-0.1,1.3-0.2c0.2-0.1,0.4,0.1,0.5,0.3c0.1,0.2-0.1,0.4-0.3,0.5
					c-0.5,0.1-1,0.2-1.5,0.2C75.3,32.4,75.1,32.4,74.8,32.4z"/>
			</g>
			<g>
				<path class="st0" d="M80.2,33.1c-3.9,0-7.2-3.6-8-8.6c0-0.2,0.1-0.4,0.3-0.5c0.2,0,0.4,0.1,0.5,0.3c0.7,4.6,3.7,7.9,7.1,7.9
					c3.5,0,6.5-3.3,7.1-7.9c0-0.2,0.2-0.4,0.5-0.3c0.2,0,0.4,0.2,0.3,0.5C87.4,29.4,84.1,33.1,80.2,33.1z"/>
			</g>
			<g>
				<path class="st0" d="M93.1,43.5c-0.2,0-0.4-0.2-0.4-0.4c-0.4-5.7-5.4-8.7-7.6-9c0.1,1.6-0.8,3-1.5,3.8c-1.2,1.4-2.8,2.3-3.6,2.3
					c-1.4,0-5.1-2.7-5.1-5.9c0-0.2,0-0.4,0-0.7c0-0.2,0.2-0.4,0.5-0.3c0.2,0,0.4,0.2,0.3,0.5c0,0.2,0,0.4,0,0.5
					c0,2.9,3.4,5.1,4.3,5.1c0.4,0,1.8-0.7,2.9-2c0.7-0.8,1.5-2.1,1.3-3.7c0-0.1,0-0.2,0.1-0.3s0.2-0.1,0.3-0.1
					c2.3-0.1,8.4,3.2,8.9,9.8C93.6,43.2,93.4,43.4,93.1,43.5C93.2,43.5,93.2,43.5,93.1,43.5z"/>
			</g>
			<g>
				<path class="st0" d="M69.2,37.9c-0.1,0-0.2,0-0.2-0.1c-0.2-0.1-0.2-0.4-0.1-0.6c0.9-1.2,2-2.2,3.3-2.9c0.2-0.1,0.4,0,0.6,0.2
					c0.1,0.2,0,0.4-0.2,0.6c-1.2,0.7-2.2,1.6-3.1,2.7C69.4,37.9,69.3,37.9,69.2,37.9z"/>
			</g>
			<g>
				<path class="st0" d="M72.7,25.1c-0.2,0-0.3-0.1-0.4-0.3c-1.5-3.8-0.7-8,1-10.2c0.8-1,1.7-1.6,2.6-1.6c0.4-0.7,1.5-1.4,2.8-1.7
					c1.4-0.3,4.9-0.8,8.4,2.8c3.1,3.1,2.1,7.8,1.1,10.1c-0.1,0.2-0.3,0.3-0.4,0.2c-2.5-0.4-4.9-1.3-6.9-2.7
					c-0.2-0.2-0.5-0.3-0.7-0.5c-1.8-1.2-3.6-2.4-4.3-5.1c-0.1-0.2,0.1-0.4,0.3-0.5c0.2-0.1,0.4,0.1,0.5,0.3c0.7,2.4,2.2,3.4,4,4.6
					c0.2,0.2,0.5,0.3,0.7,0.5c1.9,1.3,4,2.2,6.3,2.6c0.8-2.1,1.6-6.3-1.1-8.9c-3.2-3.2-6.4-2.9-7.7-2.5c-1.4,0.4-2.2,1.1-2.3,1.5
					c-0.1,0.2-0.2,0.3-0.4,0.3c-0.7-0.1-1.5,0.4-2.2,1.3c-1.3,1.8-2.1,4.9-1.3,8c0.4-1.3,1.2-2.9,2.5-4.2c0.2-0.2,0.4-0.2,0.6,0
					s0.2,0.4,0,0.6c-1.7,1.7-2.4,4.1-2.6,5.2C73.1,25,72.9,25.1,72.7,25.1L72.7,25.1z"/>
			</g>
		</g>
		<g>
			<g>
				<path class="st0" d="M64.8,28.6c-2.4,0-3.9-0.8-4.9-1.4c-0.4-0.2-0.8-0.4-1-0.5c-0.5,0-0.9,0-1.4,0.1c-0.5,0-1,0.1-1.6,0.1
					c-6.3-0.5-11-6-10.5-12.3s6-11,12.3-10.5s11,6,10.5,12.3c-0.2,2.8-1.5,5.5-3.5,7.4C64.6,24,64.3,25,64.8,26
					c0.2,0.5,0.5,0.9,0.8,1.3c0.4,0.5,0.6,0.8,0.4,1.1c0,0.1-0.2,0.3-0.4,0.3C65.3,28.6,65.1,28.6,64.8,28.6z M58.6,25.9
					c0.1,0,0.3,0,0.4,0c0.4,0,0.8,0.3,1.3,0.6c1,0.5,2.4,1.3,4.6,1.3l-0.1-0.1c-0.3-0.4-0.7-0.9-0.9-1.4c-0.5-1.2-0.4-2.6,0.1-3.1
					c1.9-1.8,3.1-4.3,3.3-6.9c0.4-5.8-3.9-10.9-9.8-11.4c-5.8-0.4-10.9,3.9-11.4,9.8C45.8,20.5,50.2,25.6,56,26c0.5,0,1,0,1.5-0.1
					C57.9,26,58.2,25.9,58.6,25.9z"/>
			</g>
			<g>
				<path class="st1" d="M57.6,21.6h-2.3c-0.2,0-0.4-0.2-0.4-0.4v-2c0-0.2,0.2-0.4,0.4-0.4h2.3c0.2,0,0.4,0.2,0.4,0.4v2
					C58,21.5,57.8,21.6,57.6,21.6z M55.7,20.8h1.5v-1.1h-1.5V20.8z M57.6,18.4h-2.3c-0.1,0-0.2,0-0.3-0.1s-0.1-0.2-0.1-0.3
					c0-0.8,0.1-1.4,0.4-1.8c0.2-0.4,0.7-0.8,1.4-1.3c0.3-0.3,0.6-0.6,0.8-0.9c0.2-0.3,0.3-0.6,0.3-1s-0.1-0.7-0.3-0.8
					c-0.2-0.2-0.4-0.3-0.8-0.3c-0.3,0-0.5,0.1-0.7,0.2c-0.2,0.2-0.3,0.4-0.3,0.7c0,0.2-0.2,0.4-0.4,0.4H53c-0.2,0-0.3-0.1-0.4-0.3
					l0,0v-0.1c0-1.1,0.4-2,1.1-2.6c0.7-0.6,1.7-0.9,2.9-0.9c1.3,0,2.3,0.3,3,1c0.8,0.7,1.1,1.6,1.1,2.7c0,0.7-0.2,1.4-0.7,2.1
					c-0.4,0.6-0.9,1.1-1.6,1.5c-0.3,0.2-0.4,0.4-0.5,0.6C58,17.3,58,17.6,58,18C58,18.2,57.8,18.4,57.6,18.4z M55.7,17.6h1.5
					c0-0.3,0.1-0.6,0.2-0.8c0.1-0.3,0.4-0.6,0.8-0.9l0,0c0.5-0.3,1-0.8,1.3-1.3s0.5-1,0.5-1.6c0-0.9-0.3-1.6-0.9-2.1
					c-0.6-0.5-1.4-0.8-2.5-0.8c-1,0-1.8,0.2-2.4,0.7c-0.5,0.4-0.8,0.9-0.8,1.6h1.4c0.1-0.4,0.2-0.7,0.5-0.9c0.3-0.3,0.8-0.4,1.2-0.4
					c0.6,0,1.1,0.2,1.4,0.5c0.3,0.3,0.5,0.8,0.5,1.4c0,0.5-0.1,1-0.4,1.4c-0.2,0.4-0.6,0.7-1,1.1c-0.7,0.6-1,0.9-1.2,1.1
					C55.9,16.8,55.8,17.1,55.7,17.6z"/>
			</g>
		</g>
	</g>
	<g>
		<path class="st3" d="M41.2,12h-0.6c-0.2,0-0.4-0.2-0.4-0.4s0.2-0.4,0.4-0.4h0.6c0.2,0,0.4,0.2,0.4,0.4S41.4,12,41.2,12z M38.6,12
			H38c-0.2,0-0.4-0.2-0.4-0.4s0.2-0.4,0.4-0.4h0.6c0.2,0,0.4,0.2,0.4,0.4S38.8,12,38.6,12z M35.9,12h-0.6c-0.2,0-0.4-0.2-0.4-0.4
			s0.2-0.4,0.4-0.4h0.6c0.2,0,0.4,0.2,0.4,0.4S36.2,12,35.9,12z M33.3,12h-0.6c-0.2,0-0.4-0.2-0.4-0.4s0.2-0.4,0.4-0.4h0.6
			c0.2,0,0.4,0.2,0.4,0.4S33.6,12,33.3,12z M30.7,12h-0.6c-0.2,0-0.4-0.2-0.4-0.4s0.2-0.4,0.4-0.4h0.6c0.2,0,0.4,0.2,0.4,0.4
			S30.9,12,30.7,12z M28.1,12h-0.6c-0.2,0-0.4-0.2-0.4-0.4s0.2-0.4,0.4-0.4h0.6c0.2,0,0.4,0.2,0.4,0.4S28.3,12,28.1,12z M25.5,12
			h-0.6c-0.2,0-0.4-0.2-0.4-0.4s0.2-0.4,0.4-0.4h0.6c0.2,0,0.4,0.2,0.4,0.4S25.7,12,25.5,12z M22.9,12h-0.6c-0.2,0-0.4-0.2-0.4-0.4
			s0.2-0.4,0.4-0.4h0.6c0.2,0,0.4,0.2,0.4,0.4S23.1,12,22.9,12z M20.3,12h-0.6c-0.2,0-0.4-0.2-0.4-0.4s0.2-0.4,0.4-0.4h0.6
			c0.2,0,0.4,0.2,0.4,0.4S20.5,12,20.3,12z M17.7,12h-0.6c-0.2,0-0.4-0.2-0.4-0.4s0.2-0.4,0.4-0.4h0.6c0.2,0,0.4,0.2,0.4,0.4
			S17.9,12,17.7,12z M15,12h-0.6c-0.2,0-0.4-0.2-0.4-0.4s0.2-0.4,0.4-0.4H15c0.2,0,0.4,0.2,0.4,0.4S15.3,12,15,12z M12.4,12h-0.6
			c-0.2,0-0.4-0.2-0.4-0.4s0.2-0.4,0.4-0.4h0.6c0.2,0,0.4,0.2,0.4,0.4S12.7,12,12.4,12z"/>
	</g>
	<g>
		<g>
			<path class="st0" d="M20.7,75.4c-0.1,0-0.2,0-0.3-0.1c-0.7-0.8-1.1-1.7-1.1-2.8v-2.6c0-0.2,0.2-0.4,0.4-0.4s0.4,0.2,0.4,0.4v2.6
				c0,0.8,0.3,1.6,0.9,2.2c0.2,0.2,0.1,0.4,0,0.6C20.9,75.4,20.8,75.4,20.7,75.4z"/>
		</g>
		<g>
			<path class="st0" d="M20.8,93.9H9.5c-1.4,0-2.6-0.8-3-2.1c-0.1-0.2,0-0.4,0.3-0.5c0.2-0.1,0.4,0,0.5,0.3c0.3,0.9,1.2,1.6,2.3,1.6
				h11.3c1.8,0,3.2-1.5,3.2-3.2v-1c0-0.2,0.2-0.4,0.4-0.4c0.2,0,0.4,0.2,0.4,0.4v1C24.9,92.1,23,93.9,20.8,93.9z"/>
		</g>
		<g>
			<path class="st0" d="M6.7,78.9c-0.2,0-0.4-0.2-0.4-0.4c0-1,0.4-2,1.1-2.8l1-1.1c0.5-0.6,0.9-1.4,0.9-2.2v-2.6
				c0-0.2,0.2-0.4,0.4-0.4s0.4,0.2,0.4,0.4v2.6c0,1-0.4,2-1.1,2.8l-1,1.1c-0.5,0.6-0.9,1.4-0.9,2.2C7.1,78.7,6.9,78.9,6.7,78.9z"/>
		</g>
		<g>
			<path class="st1" d="M19.7,80.4h-7.1c-0.2,0-0.4-0.2-0.4-0.4c0-0.2,0.2-0.4,0.4-0.4h7.1c0.2,0,0.4,0.2,0.4,0.4
				C20.1,80.2,20,80.4,19.7,80.4z"/>
		</g>
		<g>
			<path class="st0" d="M20.7,69.8h-12c-0.2,0-0.4-0.2-0.4-0.4v-1.8c0-1.6,1.3-3,3-3h6.9c1.6,0,3,1.3,3,3v1.8
				C21.1,69.6,20.9,69.8,20.7,69.8z M9.1,69h11.2v-1.4c0-1.2-1-2.1-2.1-2.1h-6.9c-1.2,0-2.1,1-2.1,2.1L9.1,69L9.1,69z"/>
		</g>
		<g>
			<path class="st1" d="M7.5,91.9c-1.9,0-3.4-1.4-3.4-3.2v-7.2c0-1.8,1.5-3.2,3.4-3.2s3.4,1.4,3.4,3.2v7.2
				C10.9,90.5,9.4,91.9,7.5,91.9z M7.5,79.2c-1.4,0-2.6,1.1-2.6,2.4v7.2c0,1.3,1.2,2.4,2.6,2.4s2.6-1.1,2.6-2.4v-7.2
				C10.1,80.2,8.9,79.2,7.5,79.2z"/>
		</g>
		<g>
			<rect x="4.5" y="84.7" class="st0" width="5.8" height="0.8"/>
		</g>
	</g>
	<g>
		<path class="st3" d="M11.3,20.1c-0.2,0-0.4-0.2-0.4-0.4v-0.6c0-0.2,0.2-0.4,0.4-0.4s0.4,0.2,0.4,0.4v0.6
			C11.7,20,11.6,20.1,11.3,20.1z M11.3,17.5c-0.2,0-0.4-0.2-0.4-0.4v-0.6c0-0.2,0.2-0.4,0.4-0.4s0.4,0.2,0.4,0.4v0.6
			C11.7,17.3,11.6,17.5,11.3,17.5z M11.3,14.9c-0.2,0-0.4-0.2-0.4-0.4v-0.6c0-0.2,0.2-0.4,0.4-0.4s0.4,0.2,0.4,0.4v0.6
			C11.7,14.7,11.6,14.9,11.3,14.9z"/>
	</g>
</g>
</svg>
