<?xml version="1.0" encoding="utf-8"?>
<!-- Generator: Adobe Illustrator 24.2.1, SVG Export Plug-In . SVG Version: 6.00 Build 0)  -->
<svg version="1.1" id="Layer_1" xmlns="http://www.w3.org/2000/svg" xmlns:xlink="http://www.w3.org/1999/xlink" x="0px" y="0px"
	 viewBox="0 0 50 50" style="enable-background:new 0 0 50 50;" xml:space="preserve">
<style type="text/css">
	.st0{fill:#F6F9FC;}
	.st1{clip-path:url(#SVGID_2_);fill:#FBBC05;}
	.st2{clip-path:url(#SVGID_4_);fill:#EA4335;}
	.st3{clip-path:url(#SVGID_6_);fill:#34A853;}
	.st4{clip-path:url(#SVGID_8_);fill:#4285F4;}
</style>
<g>
	<g>
		<g>
			<g>
				<g>
					<path class="st0" d="M49,25c0,13.3-10.7,24-24.1,24C11.6,49,1,38.2,1,24.8C1,11.6,11.9,1,25.3,1C38.3,1,49,11.9,49,25z"/>
				</g>
			</g>
		</g>
	</g>
	<g>
		<g>
			<defs>
				<path id="SVGID_1_" d="M39.3,22.3h-14v5.8h8c-0.8,3.7-3.9,5.8-8,5.8c-4.9,0-8.9-4-8.9-8.9s4-8.9,8.9-8.9c2.1,0,4,0.8,5.5,2
					l4.4-4.4c-2.7-2.3-6.1-3.8-9.9-3.8c-8.3,0-15,6.7-15,15s6.7,15,15,15c7.5,0,14.3-5.5,14.3-15C39.7,24.1,39.5,23.2,39.3,22.3z"/>
			</defs>
			<clipPath id="SVGID_2_">
				<use xlink:href="#SVGID_1_"  style="overflow:visible;"/>
			</clipPath>
			<path class="st1" d="M9,33.9V16.1L20.6,25L9,33.9z"/>
		</g>
		<g>
			<defs>
				<path id="SVGID_3_" d="M39.3,22.3h-14v5.8h8c-0.8,3.7-3.9,5.8-8,5.8c-4.9,0-8.9-4-8.9-8.9s4-8.9,8.9-8.9c2.1,0,4,0.8,5.5,2
					l4.4-4.4c-2.7-2.3-6.1-3.8-9.9-3.8c-8.3,0-15,6.7-15,15s6.7,15,15,15c7.5,0,14.3-5.5,14.3-15C39.7,24.1,39.5,23.2,39.3,22.3z"/>
			</defs>
			<clipPath id="SVGID_4_">
				<use xlink:href="#SVGID_3_"  style="overflow:visible;"/>
			</clipPath>
			<path class="st2" d="M9,16.1L20.6,25l4.8-4.2l16.4-2.7V8.6H9V16.1z"/>
		</g>
		<g>
			<g>
				<defs>
					<path id="SVGID_5_" d="M39.3,22.3h-14v5.8h8c-0.8,3.7-3.9,5.8-8,5.8c-4.9,0-8.9-4-8.9-8.9s4-8.9,8.9-8.9c2.1,0,4,0.8,5.5,2
						l4.4-4.4c-2.7-2.3-6.1-3.8-9.9-3.8c-8.3,0-15,6.7-15,15s6.7,15,15,15c7.5,0,14.3-5.5,14.3-15C39.7,24.1,39.5,23.2,39.3,22.3z"
						/>
				</defs>
				<clipPath id="SVGID_6_">
					<use xlink:href="#SVGID_5_"  style="overflow:visible;"/>
				</clipPath>
				<path class="st3" d="M9,33.9l20.5-15.7l5.4,0.7l6.9-10.2v32.7H9V33.9z"/>
			</g>
		</g>
		<g>
			<g>
				<defs>
					<path id="SVGID_7_" d="M39.3,22.3h-14v5.8h8c-0.8,3.7-3.9,5.8-8,5.8c-4.9,0-8.9-4-8.9-8.9s4-8.9,8.9-8.9c2.1,0,4,0.8,5.5,2
						l4.4-4.4c-2.7-2.3-6.1-3.8-9.9-3.8c-8.3,0-15,6.7-15,15s6.7,15,15,15c7.5,0,14.3-5.5,14.3-15C39.7,24.1,39.5,23.2,39.3,22.3z"
						/>
				</defs>
				<clipPath id="SVGID_8_">
					<use xlink:href="#SVGID_7_"  style="overflow:visible;"/>
				</clipPath>
				<path class="st4" d="M41.7,41.4L20.6,25l-2.7-2l23.9-6.8V41.4z"/>
			</g>
		</g>
	</g>
</g>
</svg>
