<?xml version="1.0" encoding="utf-8"?>
<!-- Generator: Adobe Illustrator 25.4.1, SVG Export Plug-In . SVG Version: 6.00 Build 0)  -->
<svg version="1.1" id="Layer_1" xmlns="http://www.w3.org/2000/svg" xmlns:xlink="http://www.w3.org/1999/xlink" x="0px" y="0px"
	 viewBox="0 0 123.8 118.8" style="enable-background:new 0 0 123.8 118.8;" xml:space="preserve">
<style type="text/css">
	.st0{fill:#D8D8D8;}
	.st1{fill:#F9BA3A;}
</style>
<g>
	<path class="st0" d="M120,56.6c6.9-6.9,3.1-18.7-6.6-20.1l-22.2-3.2c-4-0.6-7.3-3-9-6.5L72.3,6.7C70.2,2.3,66,0.1,61.8,0.1v105.4
		c1.9,0,3.9,0.4,5.6,1.3l19.8,10.5c8.7,4.6,18.8-2.8,17.1-12.5l-3.8-22.1c-0.7-3.9,0.6-7.8,3.4-10.5L120,56.6z"/>
	<path class="st1" d="M61.8,0.1c-4.1,0.1-8.2,2.2-10.2,6.5l-9.9,20.1c-1.9,3.5-5.2,6-9,6.5l-22.2,3.2C0.7,37.8-3.1,49.7,3.9,56.5
		l16,15.8c2.8,2.7,4,6.7,3.4,10.5l-3.7,22c-1.7,9.7,8.6,17,17.1,12.5l19.8-10.5c1.6-0.8,3.4-1.3,5.2-1.3V0.1z"/>
</g>
</svg>
