<?xml version="1.0" encoding="utf-8"?>
<!-- Generator: Adobe Illustrator 24.2.1, SVG Export Plug-In . SVG Version: 6.00 Build 0)  -->
<svg version="1.1" id="Layer_1" xmlns="http://www.w3.org/2000/svg" xmlns:xlink="http://www.w3.org/1999/xlink" x="0px" y="0px"
	 viewBox="0 0 50 50" style="enable-background:new 0 0 50 50;" xml:space="preserve">
<style type="text/css">
	.st0{fill:#F6F9FC;}
	.st1{fill:#1B41E9;}
</style>
<g>
	<g>
		<g>
			<path class="st0" d="M49,25c0,13.3-10.7,24-24.1,24C11.6,49,1,38.2,1,24.8C1,11.6,11.9,1,25.3,1C38.3,1,49,11.9,49,25z"/>
		</g>
	</g>
	<path class="st1" d="M24.4,38.4l-14-14c-7.8-7.8,3.6-18.4,11-11l2.7,2.8c0.6,0.9,1.8,1.1,2.7,0.5c0.2-0.1,0.4-0.3,0.5-0.5l3.2-3.1
		c0.6-0.8,1.6-0.9,2.4-0.4c0.8,0.6,0.9,1.6,0.4,2.4c0,0.1-0.1,0.1-0.2,0.2L25.6,23c-1.4,1.4,0.4,3,1.7,1.7l2-1.9
		c0.6-0.7,1.6-0.9,2.4-0.3c0.7,0.6,0.9,1.6,0.3,2.4c-0.1,0.1-0.2,0.2-0.3,0.3l-5.9,5.9c-1.5,1.5,0.2,3.3,1.7,1.8l8.3-8.2
		c2-2,4.2,0.6,2.5,2.3L27.1,38.4C26.4,39.2,25.2,39.2,24.4,38.4L24.4,38.4z M38.6,22.1c0-1,0.8-1.8,1.8-1.8c1,0,1.8,0.8,1.8,1.8
		s-0.8,1.8-1.8,1.8C39.4,23.9,38.6,23.1,38.6,22.1L38.6,22.1z M33.2,19c1.8-1.8,3.7-3.8,5.7-5.7s4.3,0.4,2.4,2.2s-5.8,5.7-5.8,5.7
		c-0.4,0.4-0.8,0.6-1.4,0.6c-0.9,0-1.6-0.7-1.6-1.6C32.5,19.8,32.7,19.4,33.2,19L33.2,19z"/>
</g>
</svg>
