<?xml version="1.0" encoding="utf-8"?>
<!-- Generator: Adobe Illustrator 24.2.1, SVG Export Plug-In . SVG Version: 6.00 Build 0)  -->
<svg version="1.1" id="Layer_1" xmlns="http://www.w3.org/2000/svg" xmlns:xlink="http://www.w3.org/1999/xlink" x="0px" y="0px"
	 viewBox="0 0 700 500" style="enable-background:new 0 0 700 500;" xml:space="preserve">
<style type="text/css">
	.st0{opacity:6.000000e-02;fill:#316094;}
	.st1{fill:#FFFFFF;}
	.st2{fill:#05BB90;}
	.st3{fill:#253863;}
	.st4{fill:#444444;}
	.st5{fill:url(#SVGID_1_);}
	.st6{fill:url(#SVGID_2_);}
	.st7{fill:url(#SVGID_3_);}
	.st8{fill:url(#SVGID_4_);}
	.st9{fill:url(#SVGID_5_);}
	.st10{fill:none;stroke:#253863;stroke-width:1.1749;stroke-miterlimit:10;}
</style>
<path class="st0" d="M581.3,435.1c-24.8,17.5-46.8,10.4-128.1,10c0,0-51.5-0.3-109.4,3.6c-88.1,5.8-98.5,16-149,11.7
	c-42.1-3.6-77.9-6.6-106.3-33.3c-37.7-35.4-36.6-88.2-36.1-97.7c1.8-39.4,19.9-40.8,23.1-82.8c3.4-44.2-15.9-52.8-13.4-97.9
	c0.7-11.9,3-53.5,27.2-79.8c34-36.9,108-40.2,182.3-8.7c48.1,23.7,84.6,24.6,109.4,20.8c48.2-7.5,64.6-35,116.6-35.3
	c14.2-0.1,46.7,0.1,75,21.1c42.8,31.7,42.6,86.3,42.5,91.9c-0.8,46-30.1,49.3-31.4,91.8c-1.5,49.7,38.2,60.7,35.2,111.9
	C617.5,387.4,605.6,417.9,581.3,435.1z"/>
<g>
	<g>
		
			<image style="overflow:visible;opacity:0.1;" width="385" height="379" xlink:href="856D15EB.png"  transform="matrix(1 0 0 1 2.047 1.047)">
		</image>
		<g>
			<path class="st1" d="M338.9,348H50.3c-8.5,0-15.5-6.9-15.5-15.5V48.8c0-8.5,6.9-15.5,15.5-15.5h288.6c8.5,0,15.5,6.9,15.5,15.5
				v283.8C354.3,341.1,347.4,348,338.9,348z"/>
		</g>
	</g>
	<g>
		<g>
			<path class="st2" d="M194.6,58.7c-72.8,0-131.9,59.1-131.9,131.9s59.1,131.9,131.9,131.9s131.9-59.1,131.9-131.9
				C326.6,117.8,267.5,58.7,194.6,58.7z M194.6,288.5c-54.1,0-97.9-43.9-97.9-97.9c0-54.1,43.9-97.9,97.9-97.9
				c54.1,0,97.9,43.9,97.9,97.9C292.6,244.7,248.7,288.5,194.6,288.5z"/>
		</g>
		<g>
			<g>
				<path class="st2" d="M162.3,191.9c1.2,1.4,3,2.1,5.4,2.1c3.7,0,6.6-1.6,8.8-4.8c2.2-3.1,3.8-8.3,4.8-15.2
					c-1.3,2.5-3.3,4.6-5.9,6s-5.6,2.2-8.9,2.2c-4.6,0-8.1-1.2-10.6-3.7c-2.5-2.5-3.8-5.9-3.8-10.5c0-1.6,0.1-3.3,0.5-5
					c0.7-3.5,1.8-6.7,3.8-9.4c2-2.8,4.5-5,7.6-6.6c3.1-1.6,6.7-2.4,10.7-2.4c6.4,0,11,1.6,13.8,4.7c2.8,3.1,4.1,7.6,4.1,13.4
					c0,3-0.4,6.7-1.2,11.1c-1,6.3-2.6,11.7-4.5,15.9c-1.8,4.2-4.5,7.5-7.7,9.7c-3.3,2.2-7.5,3.4-12.4,3.4c-3.9,0-7.2-0.8-9.6-2.4
					c-2.5-1.6-4.3-3.7-5.4-6.3c-1-2.6-1.6-5.4-1.3-8.5h10.3C160.6,188.5,161.1,190.4,162.3,191.9z M180.1,156.5
					c-1.4-1.4-3.5-2.1-6.4-2.1s-5.2,0.8-7.2,2.5c-2,1.7-3.3,4.1-3.7,6.9c-0.1,0.8-0.3,1.7-0.3,2.5c0,2.4,0.7,4.2,2.1,5.4
					c1.4,1.3,3.4,1.8,5.8,1.8c2,0,3.8-0.4,5.6-1.3s3.3-2.2,4.5-3.9s1.7-3.8,1.7-6.3C182.2,159.8,181.6,158,180.1,156.5z"/>
				<path class="st2" d="M208.3,191.9c1.2,1.4,3,2.1,5.4,2.1c3.7,0,6.6-1.6,8.8-4.8c2.2-3.1,3.8-8.3,4.8-15.2
					c-1.3,2.5-3.3,4.6-5.9,6s-5.6,2.2-8.9,2.2c-4.6,0-8.1-1.2-10.6-3.7c-2.5-2.5-3.8-5.9-3.8-10.5c0-1.6,0.1-3.3,0.5-5
					c0.7-3.5,2-6.7,3.8-9.4c2-2.8,4.5-5,7.6-6.6c3.1-1.6,6.7-2.4,10.7-2.4c6.4,0,11,1.6,13.8,4.7c2.8,3.1,4.2,7.6,4.2,13.4
					c0,3-0.4,6.7-1.2,11.1c-1,6.3-2.6,11.7-4.5,15.9c-1.8,4.2-4.5,7.5-7.7,9.7c-3.3,2.2-7.5,3.4-12.4,3.4c-3.9,0-7.2-0.8-9.7-2.4
					c-2.5-1.6-4.3-3.7-5.4-6.3c-1-2.6-1.6-5.4-1.3-8.5h10.3C206.6,188.5,207.1,190.4,208.3,191.9z M226.2,156.5
					c-1.4-1.4-3.5-2.1-6.4-2.1c-2.9,0-5.2,0.8-7.2,2.5c-2,1.7-3.3,4.1-3.8,6.9c-0.1,0.8-0.3,1.7-0.3,2.5c0,2.4,0.7,4.2,2.1,5.4
					c1.4,1.3,3.4,1.8,5.8,1.8c2,0,3.8-0.4,5.6-1.3s3.3-2.2,4.5-3.9c1.2-1.7,1.7-3.8,1.7-6.3C228.3,159.8,227.7,158,226.2,156.5z"/>
			</g>
			<g>
				<path class="st3" d="M139.2,230.3l-1,6.2h-3.3l2.9-16.6h6c1.7,0,3,0.4,3.8,1c0.8,0.8,1.3,1.7,1.3,3c0,0.4,0,0.8-0.1,1.2
					c-0.3,1.6-1,2.9-2.2,3.8s-2.8,1.4-4.6,1.4H139.2z M145.5,225c0-0.1,0-0.4,0-0.7c0-0.7-0.3-1-0.7-1.4c-0.4-0.4-1-0.5-2-0.5h-2.4
					l-0.9,5.1h2.4C144.1,227.5,145.1,226.7,145.5,225z"/>
				<path class="st3" d="M161.5,224.5c0.9,0.9,1.4,2.1,1.4,3.5c0,0.4,0,0.8-0.1,1.3c-0.1,0.5-0.3,0.8-0.3,1.2H153c0,0.1,0,0.4,0,0.8
					c0,0.9,0.3,1.6,0.7,2c0.5,0.4,1,0.7,1.8,0.7c0.8,0,1.4-0.1,2-0.5c0.5-0.4,1-0.9,1.3-1.6h3.5c-0.5,1.4-1.4,2.6-2.6,3.4
					c-1.2,0.8-2.8,1.3-4.5,1.3s-3-0.5-3.9-1.4s-1.4-2.2-1.4-3.9c0-0.5,0-1,0.1-1.6c0.3-1.3,0.7-2.5,1.4-3.5c0.8-1,1.6-1.7,2.8-2.2
					c1-0.5,2.2-0.8,3.5-0.8C159.3,223.2,160.6,223.6,161.5,224.5z M159.7,228.2c0-0.8-0.3-1.3-0.8-1.8c-0.5-0.4-1-0.5-1.8-0.5
					c-0.9,0-1.7,0.3-2.5,0.8c-0.8,0.5-1.2,1.3-1.4,2.5h6.3C159.7,228.8,159.7,228.4,159.7,228.2z"/>
				<path class="st3" d="M171.5,223.8c0.9-0.5,1.8-0.7,2.9-0.7l-0.7,3.5h-0.9c-2.5,0-3.8,1.2-4.2,3.4l-1,6.3h-3.4l2.4-13.1h3.3
					l-0.4,2.5C169.8,225,170.5,224.4,171.5,223.8z"/>
				<path class="st3" d="M185.9,224.5c1,0.9,1.4,2.1,1.4,3.7h-3.5c0-0.7-0.3-1.2-0.7-1.7c-0.4-0.5-1-0.7-1.8-0.7
					c-0.9,0-1.7,0.3-2.4,0.9c-0.7,0.7-1.2,1.6-1.4,2.9c0,0.4-0.1,0.7-0.1,1c0,0.9,0.3,1.6,0.7,2.1c0.5,0.5,1,0.7,1.8,0.7
					c0.8,0,1.4-0.3,2-0.7s1-0.9,1.3-1.7h3.5c-0.5,1.6-1.4,2.8-2.8,3.7s-2.8,1.3-4.5,1.3s-3-0.5-4.1-1.4c-1-0.9-1.4-2.2-1.4-3.9
					c0-0.5,0-1,0.1-1.6c0.3-1.3,0.7-2.5,1.4-3.4c0.8-0.9,1.6-1.7,2.6-2.2c1-0.5,2.2-0.8,3.4-0.8
					C183.6,223.2,184.9,223.6,185.9,224.5z"/>
				<path class="st3" d="M200.5,224.5c0.9,0.9,1.4,2.1,1.4,3.5c0,0.4,0,0.8-0.1,1.3s-0.3,0.8-0.3,1.2H192c0,0.1,0,0.4,0,0.8
					c0,0.9,0.3,1.6,0.7,2c0.5,0.4,1,0.7,1.8,0.7c0.8,0,1.4-0.1,2-0.5s1-0.9,1.3-1.6h3.5c-0.5,1.4-1.4,2.6-2.6,3.4
					c-1.2,0.8-2.8,1.3-4.5,1.3c-1.7,0-3-0.5-3.9-1.4c-1-0.9-1.4-2.2-1.4-3.9c0-0.5,0-1,0.1-1.6c0.3-1.3,0.7-2.5,1.4-3.5
					c0.8-1,1.6-1.7,2.8-2.2c1-0.5,2.2-0.8,3.5-0.8C198.3,223.2,199.6,223.6,200.5,224.5z M198.7,228.2c0-0.8-0.3-1.3-0.8-1.8
					c-0.5-0.4-1-0.5-1.8-0.5c-0.9,0-1.7,0.3-2.5,0.8s-1.2,1.3-1.4,2.5h6.3C198.7,228.8,198.7,228.4,198.7,228.2z"/>
				<path class="st3" d="M216.1,224.2c0.8,0.8,1,1.8,1,3.1c0,0.5,0,1-0.1,1.4l-1.3,7.6h-3.3l1.3-7.2c0-0.3,0.1-0.5,0.1-0.8
					c0-0.8-0.3-1.4-0.7-1.8c-0.4-0.4-1-0.7-1.8-0.7c-0.9,0-1.7,0.3-2.5,0.9c-0.7,0.7-1,1.4-1.3,2.6v-0.1l-1.2,7.1H203l2.4-13.1h3.3
					l-0.4,2.6c0.5-0.9,1.2-1.6,2.1-2.1c0.9-0.5,1.8-0.8,2.9-0.8C214.4,223.2,215.5,223.6,216.1,224.2z"/>
				<path class="st3" d="M223.2,231.8c0,0.1,0,0.4,0,0.5c0,0.4,0.1,0.7,0.4,0.9c0.3,0.3,0.5,0.3,1,0.3h1.3l-0.5,2.9h-1.7
					c-1.2,0-2.2-0.3-2.9-0.8c-0.7-0.5-1-1.3-1-2.5c0-0.4,0-0.9,0.1-1.3l1-5.6h-1.8l0.5-2.8h1.8l0.5-3.3h3.4l-0.5,3.3h2.9l-0.5,2.8
					h-2.9L223.2,231.8z"/>
				<path class="st3" d="M233.7,223.3l-2.4,13.1H228l2.4-13.1H233.7z M231.3,218.3c0.4-0.4,1-0.7,1.7-0.7c0.5,0,0.9,0.1,1.3,0.4
					c0.4,0.3,0.5,0.7,0.5,1c0,0.7-0.3,1.2-0.7,1.6c-0.4,0.4-1,0.7-1.7,0.7c-0.5,0-0.9-0.1-1.3-0.4c-0.3-0.3-0.5-0.7-0.5-1
					C230.7,219.3,230.8,218.9,231.3,218.3z"/>
				<path class="st3" d="M240.8,219l-3,17.4h-3.3l3-17.4H240.8z"/>
				<path class="st3" d="M252.8,224.5c0.9,0.9,1.4,2.1,1.4,3.5c0,0.4,0,0.8-0.1,1.3s-0.3,0.8-0.3,1.2h-9.6c0,0.1,0,0.4,0,0.8
					c0,0.9,0.3,1.6,0.7,2c0.5,0.4,1,0.7,1.8,0.7c0.8,0,1.4-0.1,2-0.5s1-0.9,1.3-1.6h3.5c-0.5,1.4-1.4,2.6-2.6,3.4
					c-1.2,0.8-2.8,1.3-4.5,1.3c-1.7,0-3-0.5-3.9-1.4c-1-0.9-1.4-2.2-1.4-3.9c0-0.5,0-1,0.1-1.6c0.3-1.3,0.7-2.5,1.4-3.5
					c0.8-1,1.6-1.7,2.8-2.2c1-0.5,2.2-0.8,3.5-0.8C250.6,223.2,251.9,223.6,252.8,224.5z M251,228.2c0-0.8-0.3-1.3-0.8-1.8
					c-0.5-0.4-1-0.5-1.8-0.5c-0.9,0-1.7,0.3-2.5,0.8s-1.2,1.3-1.4,2.5h6.3C251,228.8,251,228.4,251,228.2z"/>
			</g>
		</g>
	</g>
</g>
<g>
	<g>
		
			<image style="overflow:visible;opacity:0.1;" width="388" height="237" xlink:href="856D15F6.png"  transform="matrix(1 0 0 1 304.8766 252.8766)">
		</image>
		<g>
			<path class="st1" d="M655.4,463.8H341.2c-6,0-10.9-4.9-10.9-10.9V289.7c0-6,4.9-10.9,10.9-10.9h314.2c6,0,10.9,4.9,10.9,10.9
				v163.2C666.3,458.9,661.4,463.8,655.4,463.8z"/>
		</g>
	</g>
	<g>
		<path class="st3" d="M416.3,345.7c-0.7,1.2-1.7,2.2-3,2.9s-2.8,1.1-4.5,1.1h-6.5v-16.4h6.5c1.7,0,3.2,0.3,4.5,1
			c1.3,0.7,2.3,1.7,3,2.9c0.7,1.2,1,2.7,1,4.2C417.3,343,417,344.4,416.3,345.7z M411.6,344.5c0.8-0.7,1.2-1.8,1.2-3.1
			c0-1.3-0.4-2.3-1.2-3.1c-0.8-0.7-1.8-1.1-3.2-1.1h-1.6v8.3h1.6C409.7,345.6,410.8,345.2,411.6,344.5z"/>
		<path class="st3" d="M425.9,337.2c0.8-0.5,1.6-0.7,2.5-0.7v4.9H427c-1,0-1.8,0.2-2.3,0.6c-0.5,0.4-0.8,1.1-0.8,2.1v5.6h-4.6v-13
			h4.6v2.4C424.5,338.3,425.1,337.7,425.9,337.2z"/>
		<path class="st3" d="M433.9,345.2v4.5h-4.6v-4.5H433.9z"/>
		<path class="st3" d="M450.9,333.3v10.9c0,1.9-0.5,3.3-1.5,4.2c-1,1-2.3,1.4-4.1,1.4c-1.9,0-3.4-0.5-4.5-1.6
			c-1.1-1.1-1.7-2.6-1.7-4.6h4.5c0,1.4,0.5,2.1,1.5,2.1c0.8,0,1.2-0.5,1.2-1.6v-10.9H450.9z"/>
		<path class="st3" d="M460.5,337.1c0.7,0.4,1.2,0.9,1.5,1.6v-2.1h4.5v13H462v-2.1c-0.3,0.7-0.8,1.2-1.5,1.6
			c-0.7,0.4-1.5,0.6-2.4,0.6c-1,0-2-0.3-2.8-0.8s-1.5-1.3-2-2.3c-0.5-1-0.7-2.2-0.7-3.6c0-1.4,0.2-2.5,0.7-3.5c0.5-1,1.1-1.8,2-2.3
			s1.8-0.8,2.8-0.8C459,336.5,459.8,336.7,460.5,337.1z M457.9,341.2c-0.4,0.5-0.7,1.1-0.7,2c0,0.9,0.2,1.5,0.7,2s1,0.7,1.7,0.7
			c0.7,0,1.2-0.2,1.7-0.7s0.7-1.1,0.7-2c0-0.8-0.2-1.5-0.7-1.9s-1-0.7-1.7-0.7C458.9,340.5,458.4,340.7,457.9,341.2z"/>
		<path class="st3" d="M490,338c0.9,1,1.4,2.3,1.4,4.1v7.6h-4.5v-7c0-0.7-0.2-1.2-0.6-1.6c-0.4-0.4-0.9-0.6-1.6-0.6
			c-0.7,0-1.2,0.2-1.6,0.6c-0.4,0.4-0.6,1-0.6,1.7v6.9H478v-7c0-0.7-0.2-1.2-0.6-1.6c-0.4-0.4-0.9-0.6-1.6-0.6
			c-0.7,0-1.2,0.2-1.6,0.6c-0.4,0.4-0.6,1-0.6,1.7v6.9h-4.6v-13h4.6v2c0.4-0.6,0.9-1.2,1.6-1.5s1.4-0.6,2.3-0.6c1,0,1.8,0.2,2.6,0.6
			s1.3,1.1,1.7,1.9c0.4-0.8,1.1-1.4,1.8-1.8c0.8-0.5,1.6-0.7,2.5-0.7C487.8,336.5,489.1,337,490,338z"/>
		<path class="st3" d="M506.2,344h-8.6c0.1,1.5,0.7,2.2,1.9,2.2c0.4,0,0.8-0.1,1.1-0.3c0.3-0.2,0.5-0.5,0.6-0.9h4.8
			c-0.2,0.9-0.5,1.7-1.1,2.5c-0.6,0.7-1.3,1.3-2.2,1.7c-0.9,0.4-1.9,0.6-2.9,0.6c-1.3,0-2.4-0.3-3.4-0.8s-1.8-1.3-2.3-2.3
			c-0.6-1-0.8-2.2-0.8-3.6c0-1.4,0.3-2.5,0.8-3.5c0.6-1,1.3-1.8,2.3-2.3s2.1-0.8,3.4-0.8c1.3,0,2.4,0.3,3.4,0.8s1.8,1.3,2.3,2.2
			s0.8,2.1,0.8,3.4C506.3,343.2,506.3,343.6,506.2,344z M501.1,340.6c-0.4-0.3-0.8-0.5-1.4-0.5c-0.6,0-1.1,0.2-1.5,0.5
			s-0.6,0.8-0.7,1.5h4.1C501.7,341.4,501.5,340.9,501.1,340.6z"/>
		<path class="st3" d="M517.2,337.8c1,0.8,1.7,1.9,1.9,3.3h-4.3c-0.1-0.5-0.3-0.8-0.7-1c-0.3-0.2-0.7-0.3-1.2-0.3
			c-0.3,0-0.6,0.1-0.8,0.2c-0.2,0.1-0.3,0.4-0.3,0.6c0,0.3,0.2,0.6,0.6,0.7c0.4,0.2,1,0.3,1.9,0.5c1,0.2,1.8,0.4,2.5,0.7
			c0.7,0.2,1.2,0.6,1.7,1.2s0.7,1.3,0.7,2.2c0,0.8-0.2,1.4-0.6,2c-0.4,0.6-1,1-1.8,1.4c-0.8,0.3-1.7,0.5-2.8,0.5
			c-1.8,0-3.3-0.4-4.4-1.2c-1.1-0.8-1.7-1.9-2-3.4h4.4c0.1,0.5,0.3,0.8,0.6,1.1c0.3,0.2,0.8,0.3,1.3,0.3c0.4,0,0.6-0.1,0.8-0.2
			c0.2-0.2,0.3-0.4,0.3-0.6c0-0.4-0.2-0.6-0.6-0.8c-0.4-0.2-1-0.3-1.9-0.5c-1-0.2-1.8-0.4-2.4-0.7c-0.6-0.2-1.2-0.6-1.7-1.2
			c-0.5-0.5-0.7-1.3-0.7-2.2c0-1.2,0.5-2.1,1.4-2.9s2.2-1.1,3.9-1.1C514.8,336.5,516.2,336.9,517.2,337.8z"/>
		<path class="st3" d="M536.7,333.3v3.6h-6.6v2.9h4.9v3.4h-4.9v6.4h-4.6v-16.4H536.7z"/>
		<path class="st3" d="M545.1,337.2c0.8-0.5,1.6-0.7,2.5-0.7v4.9h-1.3c-1,0-1.8,0.2-2.3,0.6c-0.5,0.4-0.8,1.1-0.8,2.1v5.6h-4.6v-13
			h4.6v2.4C543.7,338.3,544.3,337.7,545.1,337.2z"/>
		<path class="st3" d="M556.3,337.1c0.7,0.4,1.2,0.9,1.5,1.6v-2.1h4.5v13h-4.5v-2.1c-0.3,0.7-0.8,1.2-1.5,1.6
			c-0.7,0.4-1.5,0.6-2.4,0.6c-1,0-2-0.3-2.8-0.8s-1.5-1.3-2-2.3c-0.5-1-0.7-2.2-0.7-3.6c0-1.4,0.2-2.5,0.7-3.5c0.5-1,1.1-1.8,2-2.3
			s1.8-0.8,2.8-0.8C554.8,336.5,555.6,336.7,556.3,337.1z M553.7,341.2c-0.4,0.5-0.7,1.1-0.7,2c0,0.9,0.2,1.5,0.7,2s1,0.7,1.7,0.7
			c0.7,0,1.2-0.2,1.7-0.7s0.7-1.1,0.7-2c0-0.8-0.2-1.5-0.7-1.9s-1-0.7-1.7-0.7C554.7,340.5,554.1,340.7,553.7,341.2z"/>
		<path class="st3" d="M577,338c0.9,1,1.3,2.4,1.3,4.1v7.6h-4.5v-7c0-0.8-0.2-1.3-0.6-1.8c-0.4-0.4-0.9-0.6-1.6-0.6
			c-0.7,0-1.2,0.2-1.6,0.7c-0.4,0.4-0.6,1-0.6,1.8v6.9h-4.6v-13h4.6v2.2c0.4-0.7,0.9-1.3,1.6-1.7c0.7-0.4,1.5-0.6,2.5-0.6
			C575,336.5,576.2,337,577,338z"/>
		<path class="st3" d="M588.8,349.7l-3.5-5.4v5.4h-4.6v-17.2h4.6v9.2l3.6-5.1h5.3l-5.1,6.5l5.2,6.5H588.8z"/>
	</g>
	<g>
		<path class="st4" d="M358.3,379.1c-0.5,1-1.3,1.7-2.3,2.2c-1,0.5-2.2,0.8-3.6,0.8h-4.3v-12.7h4.3c1.4,0,2.6,0.3,3.6,0.8
			c1,0.5,1.8,1.3,2.3,2.2s0.8,2.1,0.8,3.4C359.1,377,358.8,378.1,358.3,379.1z M355.8,379.1c0.8-0.8,1.2-1.9,1.2-3.3
			s-0.4-2.5-1.2-3.3c-0.8-0.8-2-1.2-3.5-1.2h-2v9.1h2C353.8,380.3,354.9,379.9,355.8,379.1z"/>
		<path class="st4" d="M364.6,372.6c0.6-0.4,1.3-0.6,2.2-0.6v2.2h-0.6c-0.9,0-1.6,0.2-2.2,0.7c-0.5,0.4-0.8,1.2-0.8,2.2v5h-2.1v-9.9
			h2.1v1.9C363.5,373.5,364,373,364.6,372.6z"/>
		<path class="st4" d="M370,379.9v2.3h-2.3v-2.3H370z"/>
		<path class="st4" d="M382.7,369.4v9.2c0,1.1-0.3,2-1,2.7c-0.6,0.6-1.5,1-2.7,1c-1.2,0-2.2-0.4-2.9-1.1c-0.7-0.7-1-1.7-1-3h2
			c0,0.7,0.1,1.2,0.4,1.6c0.3,0.4,0.7,0.6,1.4,0.6c0.6,0,1-0.2,1.2-0.5c0.3-0.3,0.4-0.7,0.4-1.3v-9.2H382.7z"/>
		<path class="st4" d="M391.4,372.7c0.6,0.4,1.1,1,1.4,1.8v-2.3h2.1v9.9h-2.1v-2.3c-0.3,0.7-0.7,1.3-1.4,1.8
			c-0.6,0.4-1.4,0.7-2.3,0.7c-0.9,0-1.6-0.2-2.3-0.6c-0.7-0.4-1.2-1-1.6-1.8c-0.4-0.8-0.6-1.7-0.6-2.7c0-1,0.2-1.9,0.6-2.7
			s0.9-1.4,1.6-1.8c0.7-0.4,1.5-0.6,2.3-0.6C389.9,372.1,390.7,372.3,391.4,372.7z M387.5,374.7c-0.5,0.6-0.8,1.4-0.8,2.4
			c0,1,0.3,1.8,0.8,2.4c0.5,0.6,1.3,0.9,2.2,0.9c0.6,0,1.1-0.1,1.6-0.4s0.8-0.7,1.1-1.1c0.3-0.5,0.4-1.1,0.4-1.7
			c0-0.6-0.1-1.2-0.4-1.7c-0.3-0.5-0.6-0.9-1.1-1.2s-1-0.4-1.6-0.4C388.8,373.9,388,374.2,387.5,374.7z"/>
		<path class="st4" d="M412.5,373.1c0.7,0.7,1.1,1.8,1.1,3.2v5.8h-2.1v-5.6c0-0.9-0.2-1.5-0.6-2c-0.4-0.5-1-0.7-1.8-0.7
			c-0.8,0-1.4,0.3-1.9,0.8c-0.5,0.5-0.7,1.3-0.7,2.2v5.3h-2.1v-5.6c0-0.9-0.2-1.5-0.6-2c-0.4-0.5-1-0.7-1.8-0.7
			c-0.8,0-1.4,0.3-1.9,0.8c-0.5,0.5-0.7,1.3-0.7,2.2v5.3h-2.1v-9.9h2.1v2.1c0.3-0.7,0.7-1.3,1.3-1.7c0.6-0.4,1.3-0.6,2.1-0.6
			c0.8,0,1.5,0.2,2.2,0.6c0.6,0.4,1,1,1.3,1.8c0.3-0.7,0.8-1.3,1.4-1.7c0.6-0.4,1.4-0.6,2.2-0.6C410.8,372,411.8,372.4,412.5,373.1z
			"/>
		<path class="st4" d="M425.1,377.6h-7.6c0,1,0.3,1.8,0.8,2.3c0.5,0.5,1.2,0.7,2,0.7c0.7,0,1.3-0.2,1.7-0.5s0.8-0.8,0.9-1.4h2.2
			c-0.1,0.7-0.4,1.3-0.8,1.9s-1,1-1.6,1.3c-0.7,0.3-1.4,0.5-2.3,0.5c-1,0-1.8-0.2-2.6-0.6c-0.7-0.4-1.3-1-1.7-1.8
			c-0.4-0.8-0.6-1.7-0.6-2.7c0-1,0.2-1.9,0.6-2.7c0.4-0.8,1-1.4,1.7-1.8c0.7-0.4,1.6-0.6,2.6-0.6c1,0,1.8,0.2,2.6,0.6
			c0.7,0.4,1.3,1,1.7,1.7c0.4,0.7,0.6,1.5,0.6,2.4C425.2,377,425.1,377.3,425.1,377.6z M422.8,375c-0.2-0.4-0.6-0.8-1-1
			c-0.4-0.2-0.9-0.3-1.4-0.3c-0.8,0-1.5,0.2-2,0.7c-0.5,0.5-0.8,1.2-0.9,2.2h5.6C423.1,376,423,375.4,422.8,375z"/>
		<path class="st4" d="M433.2,373c0.7,0.6,1.1,1.4,1.3,2.4h-1.9c-0.1-0.5-0.3-1-0.7-1.3s-0.9-0.5-1.5-0.5c-0.5,0-0.9,0.1-1.2,0.4
			c-0.3,0.2-0.4,0.6-0.4,1c0,0.3,0.1,0.6,0.3,0.8c0.2,0.2,0.5,0.3,0.8,0.5c0.3,0.1,0.7,0.2,1.3,0.4c0.7,0.2,1.3,0.3,1.8,0.5
			c0.5,0.2,0.9,0.5,1.2,0.9c0.3,0.4,0.5,0.9,0.5,1.6c0,0.8-0.3,1.5-0.9,2c-0.6,0.5-1.5,0.8-2.6,0.8c-1.2,0-2.2-0.3-3-0.9
			s-1.2-1.4-1.4-2.4h2c0.1,0.5,0.3,1,0.7,1.3c0.4,0.3,1,0.5,1.7,0.5c0.5,0,0.9-0.1,1.2-0.4c0.3-0.3,0.4-0.6,0.4-1
			c0-0.3-0.1-0.6-0.3-0.8c-0.2-0.2-0.5-0.4-0.8-0.5c-0.3-0.1-0.8-0.2-1.3-0.4c-0.7-0.2-1.3-0.3-1.8-0.5c-0.5-0.2-0.8-0.4-1.2-0.8
			c-0.3-0.4-0.5-0.9-0.5-1.5c0-0.8,0.3-1.5,0.9-2c0.6-0.5,1.5-0.8,2.6-0.8C431.6,372.1,432.5,372.4,433.2,373z"/>
		<path class="st4" d="M448.4,369.4v1.7H443v4h4.5v1.6H443v5.5h-2.1v-12.7H448.4z"/>
		<path class="st4" d="M453.8,372.6c0.6-0.4,1.3-0.6,2.2-0.6v2.2h-0.6c-0.9,0-1.6,0.2-2.2,0.7c-0.5,0.4-0.8,1.2-0.8,2.2v5h-2.1v-9.9
			h2.1v1.9C452.6,373.5,453.1,373,453.8,372.6z"/>
		<path class="st4" d="M463.7,372.7c0.6,0.4,1.1,1,1.4,1.8v-2.3h2.1v9.9h-2.1v-2.3c-0.3,0.7-0.7,1.3-1.4,1.8
			c-0.6,0.4-1.4,0.7-2.3,0.7c-0.9,0-1.6-0.2-2.3-0.6c-0.7-0.4-1.2-1-1.6-1.8c-0.4-0.8-0.6-1.7-0.6-2.7c0-1,0.2-1.9,0.6-2.7
			s0.9-1.4,1.6-1.8c0.7-0.4,1.5-0.6,2.3-0.6C462.3,372.1,463.1,372.3,463.7,372.7z M459.9,374.7c-0.5,0.6-0.8,1.4-0.8,2.4
			c0,1,0.3,1.8,0.8,2.4c0.5,0.6,1.3,0.9,2.2,0.9c0.6,0,1.1-0.1,1.6-0.4c0.5-0.3,0.8-0.7,1.1-1.1c0.3-0.5,0.4-1.1,0.4-1.7
			c0-0.6-0.1-1.2-0.4-1.7c-0.3-0.5-0.6-0.9-1.1-1.2c-0.5-0.3-1-0.4-1.6-0.4C461.2,373.9,460.4,374.2,459.9,374.7z"/>
		<path class="st4" d="M478,373.1c0.7,0.7,1,1.8,1,3.2v5.8h-2.1v-5.6c0-0.9-0.2-1.6-0.7-2.1c-0.5-0.5-1.1-0.7-1.9-0.7
			c-0.8,0-1.5,0.3-2,0.8c-0.5,0.5-0.7,1.3-0.7,2.3v5.3h-2.1v-9.9h2.1v2.2c0.3-0.7,0.7-1.3,1.3-1.7c0.6-0.4,1.3-0.6,2.2-0.6
			C476.3,372,477.3,372.4,478,373.1z"/>
		<path class="st4" d="M487,382.1l-3.6-4.4v4.4h-2.1v-13.3h2.1v7.6l3.5-4.2h2.5l-4.3,4.9l4.4,5H487z"/>
		<path class="st4" d="M502.3,372.7c0.8,0.4,1.4,1,1.8,1.8s0.6,1.7,0.6,2.7c0,1-0.2,2-0.6,2.7c-0.4,0.8-1,1.4-1.8,1.8
			c-0.8,0.4-1.6,0.6-2.6,0.6s-1.8-0.2-2.6-0.6c-0.8-0.4-1.4-1-1.8-1.8c-0.4-0.8-0.7-1.7-0.7-2.7s0.2-1.9,0.7-2.7
			c0.4-0.8,1-1.4,1.8-1.8c0.8-0.4,1.6-0.6,2.6-0.6S501.5,372.3,502.3,372.7z M498.2,374.2c-0.4,0.2-0.8,0.6-1.1,1.1
			s-0.4,1.1-0.4,1.8c0,0.7,0.1,1.3,0.4,1.8c0.3,0.5,0.6,0.9,1.1,1.1c0.4,0.2,0.9,0.4,1.5,0.4c0.5,0,1-0.1,1.5-0.4
			c0.4-0.2,0.8-0.6,1.1-1.1c0.3-0.5,0.4-1.1,0.4-1.8c0-0.7-0.1-1.3-0.4-1.8s-0.6-0.9-1.1-1.1c-0.4-0.2-0.9-0.4-1.5-0.4
			C499.1,373.8,498.7,374,498.2,374.2z"/>
		<path class="st4" d="M515,373.1c0.7,0.7,1,1.8,1,3.2v5.8H514v-5.6c0-0.9-0.2-1.6-0.7-2.1c-0.5-0.5-1.1-0.7-1.9-0.7
			c-0.8,0-1.5,0.3-2,0.8c-0.5,0.5-0.7,1.3-0.7,2.3v5.3h-2.1v-9.9h2.1v2.2c0.3-0.7,0.7-1.3,1.3-1.7c0.6-0.4,1.3-0.6,2.2-0.6
			C513.4,372,514.3,372.4,515,373.1z"/>
		<path class="st4" d="M520.5,368.8v13.3h-2.1v-13.3H520.5z"/>
		<path class="st4" d="M523.1,368.4c0.2-0.2,0.6-0.3,1-0.3s0.7,0.1,1,0.3s0.4,0.5,0.4,0.9s-0.1,0.6-0.4,0.8c-0.2,0.2-0.6,0.3-1,0.3
			s-0.7-0.1-1-0.3c-0.2-0.2-0.4-0.5-0.4-0.8S522.9,368.7,523.1,368.4z M525.1,372.2v9.9H523v-9.9H525.1z"/>
		<path class="st4" d="M535.9,373.1c0.7,0.7,1,1.8,1,3.2v5.8h-2.1v-5.6c0-0.9-0.2-1.6-0.7-2.1c-0.5-0.5-1.1-0.7-1.9-0.7
			c-0.8,0-1.5,0.3-2,0.8c-0.5,0.5-0.7,1.3-0.7,2.3v5.3h-2.1v-9.9h2.1v2.2c0.3-0.7,0.7-1.3,1.3-1.7c0.6-0.4,1.3-0.6,2.2-0.6
			C534.3,372,535.2,372.4,535.9,373.1z"/>
		<path class="st4" d="M548.5,377.6h-7.6c0,1,0.3,1.8,0.8,2.3c0.5,0.5,1.2,0.7,2,0.7c0.7,0,1.3-0.2,1.7-0.5s0.8-0.8,0.9-1.4h2.2
			c-0.1,0.7-0.4,1.3-0.8,1.9s-1,1-1.6,1.3c-0.7,0.3-1.4,0.5-2.3,0.5c-1,0-1.8-0.2-2.6-0.6c-0.7-0.4-1.3-1-1.7-1.8
			c-0.4-0.8-0.6-1.7-0.6-2.7c0-1,0.2-1.9,0.6-2.7c0.4-0.8,1-1.4,1.7-1.8c0.7-0.4,1.6-0.6,2.6-0.6c1,0,1.8,0.2,2.6,0.6
			c0.7,0.4,1.3,1,1.7,1.7c0.4,0.7,0.6,1.5,0.6,2.4C548.6,377,548.6,377.3,548.5,377.6z M546.2,375c-0.2-0.4-0.6-0.8-1-1
			c-0.4-0.2-0.9-0.3-1.4-0.3c-0.8,0-1.5,0.2-2,0.7c-0.5,0.5-0.8,1.2-0.9,2.2h5.6C546.5,376,546.4,375.4,546.2,375z"/>
		<path class="st4" d="M558.3,372.6c0.6-0.4,1.3-0.6,2.2-0.6v2.2h-0.6c-0.9,0-1.6,0.2-2.2,0.7c-0.5,0.4-0.8,1.2-0.8,2.2v5h-2.1v-9.9
			h2.1v1.9C557.2,373.5,557.7,373,558.3,372.6z"/>
		<path class="st4" d="M571.2,377.6h-7.6c0,1,0.3,1.8,0.8,2.3c0.5,0.5,1.2,0.7,2,0.7c0.7,0,1.3-0.2,1.7-0.5s0.8-0.8,0.9-1.4h2.2
			c-0.1,0.7-0.4,1.3-0.8,1.9s-1,1-1.6,1.3c-0.7,0.3-1.4,0.5-2.3,0.5c-1,0-1.8-0.2-2.6-0.6c-0.7-0.4-1.3-1-1.7-1.8
			c-0.4-0.8-0.6-1.7-0.6-2.7c0-1,0.2-1.9,0.6-2.7c0.4-0.8,1-1.4,1.7-1.8c0.7-0.4,1.6-0.6,2.6-0.6c1,0,1.8,0.2,2.6,0.6
			c0.7,0.4,1.3,1,1.7,1.7c0.4,0.7,0.6,1.5,0.6,2.4C571.2,377,571.2,377.3,571.2,377.6z M568.8,375c-0.2-0.4-0.6-0.8-1-1
			c-0.4-0.2-0.9-0.3-1.4-0.3c-0.8,0-1.5,0.2-2,0.7c-0.5,0.5-0.8,1.2-0.9,2.2h5.6C569.2,376,569.1,375.4,568.8,375z"/>
		<path class="st4" d="M581.2,372.7c0.7,0.4,1.2,1,1.6,1.8s0.6,1.7,0.6,2.7c0,1-0.2,2-0.6,2.7c-0.4,0.8-0.9,1.4-1.6,1.8
			c-0.7,0.4-1.5,0.6-2.3,0.6c-0.9,0-1.7-0.2-2.3-0.7c-0.6-0.4-1.1-1-1.3-1.8v7h-2.1v-14.7h2.1v2.3c0.3-0.7,0.7-1.3,1.3-1.8
			c0.6-0.4,1.4-0.7,2.3-0.7C579.8,372.1,580.5,372.3,581.2,372.7z M576.7,374.3c-0.5,0.3-0.8,0.7-1.1,1.2c-0.3,0.5-0.4,1.1-0.4,1.7
			c0,0.7,0.1,1.2,0.4,1.7c0.3,0.5,0.6,0.9,1.1,1.1s1,0.4,1.6,0.4c0.9,0,1.6-0.3,2.2-0.9c0.6-0.6,0.8-1.4,0.8-2.4
			c0-1-0.3-1.8-0.8-2.4c-0.6-0.6-1.3-0.9-2.2-0.9C577.7,373.9,577.2,374,576.7,374.3z"/>
		<path class="st4" d="M594.5,372.2v9.9h-2.1V380c-0.3,0.7-0.7,1.3-1.3,1.7c-0.6,0.4-1.4,0.6-2.2,0.6c-1.2,0-2.1-0.4-2.8-1.1
			c-0.7-0.7-1-1.8-1-3.2v-5.8h2.1v5.6c0,0.9,0.2,1.6,0.7,2.1c0.5,0.5,1.1,0.7,1.9,0.7c0.8,0,1.5-0.3,2-0.8s0.7-1.3,0.7-2.3v-5.3
			H594.5z"/>
		<path class="st4" d="M602,380.3v1.8h-1.3c-1.1,0-1.9-0.3-2.4-0.8c-0.5-0.5-0.8-1.4-0.8-2.6v-4.9h-1.4v-1.7h1.4v-2.5h2.1v2.5h2.4
			v1.7h-2.4v4.9c0,0.6,0.1,1,0.3,1.2c0.2,0.2,0.6,0.3,1.1,0.3H602z"/>
		<path class="st4" d="M610.2,372.7c0.6,0.4,1.1,1,1.4,1.8v-2.3h2.1v9.9h-2.1v-2.3c-0.3,0.7-0.7,1.3-1.4,1.8
			c-0.6,0.4-1.4,0.7-2.3,0.7c-0.9,0-1.6-0.2-2.3-0.6c-0.7-0.4-1.2-1-1.6-1.8c-0.4-0.8-0.6-1.7-0.6-2.7c0-1,0.2-1.9,0.6-2.7
			s0.9-1.4,1.6-1.8c0.7-0.4,1.5-0.6,2.3-0.6C608.8,372.1,609.6,372.3,610.2,372.7z M606.4,374.7c-0.5,0.6-0.8,1.4-0.8,2.4
			c0,1,0.3,1.8,0.8,2.4c0.5,0.6,1.3,0.9,2.2,0.9c0.6,0,1.1-0.1,1.6-0.4c0.5-0.3,0.8-0.7,1.1-1.1c0.3-0.5,0.4-1.1,0.4-1.7
			c0-0.6-0.1-1.2-0.4-1.7c-0.3-0.5-0.6-0.9-1.1-1.2c-0.5-0.3-1-0.4-1.6-0.4C607.6,373.9,606.9,374.2,606.4,374.7z"/>
		<path class="st4" d="M621.1,380.3v1.8h-1.3c-1.1,0-1.9-0.3-2.4-0.8c-0.5-0.5-0.8-1.4-0.8-2.6v-4.9h-1.4v-1.7h1.4v-2.5h2.1v2.5h2.4
			v1.7h-2.4v4.9c0,0.6,0.1,1,0.3,1.2c0.2,0.2,0.6,0.3,1.1,0.3H621.1z"/>
		<path class="st4" d="M623.1,368.4c0.2-0.2,0.6-0.3,1-0.3s0.7,0.1,1,0.3s0.4,0.5,0.4,0.9s-0.1,0.6-0.4,0.8c-0.2,0.2-0.6,0.3-1,0.3
			s-0.7-0.1-1-0.3c-0.2-0.2-0.4-0.5-0.4-0.8S622.9,368.7,623.1,368.4z M625.1,372.2v9.9H623v-9.9H625.1z"/>
		<path class="st4" d="M634.7,372.7c0.8,0.4,1.4,1,1.8,1.8s0.6,1.7,0.6,2.7c0,1-0.2,2-0.6,2.7c-0.4,0.8-1,1.4-1.8,1.8
			c-0.8,0.4-1.6,0.6-2.6,0.6s-1.8-0.2-2.6-0.6c-0.8-0.4-1.4-1-1.8-1.8c-0.4-0.8-0.7-1.7-0.7-2.7s0.2-1.9,0.7-2.7
			c0.4-0.8,1-1.4,1.8-1.8c0.8-0.4,1.6-0.6,2.6-0.6S634,372.3,634.7,372.7z M630.7,374.2c-0.4,0.2-0.8,0.6-1.1,1.1s-0.4,1.1-0.4,1.8
			c0,0.7,0.1,1.3,0.4,1.8c0.3,0.5,0.6,0.9,1.1,1.1c0.4,0.2,0.9,0.4,1.5,0.4c0.5,0,1-0.1,1.5-0.4c0.4-0.2,0.8-0.6,1.1-1.1
			c0.3-0.5,0.4-1.1,0.4-1.8c0-0.7-0.1-1.3-0.4-1.8s-0.6-0.9-1.1-1.1c-0.4-0.2-0.9-0.4-1.5-0.4C631.6,373.8,631.1,374,630.7,374.2z"
			/>
		<path class="st4" d="M647.5,373.1c0.7,0.7,1,1.8,1,3.2v5.8h-2.1v-5.6c0-0.9-0.2-1.6-0.7-2.1c-0.5-0.5-1.1-0.7-1.9-0.7
			c-0.8,0-1.5,0.3-2,0.8c-0.5,0.5-0.7,1.3-0.7,2.3v5.3h-2.1v-9.9h2.1v2.2c0.3-0.7,0.7-1.3,1.3-1.7c0.6-0.4,1.3-0.6,2.2-0.6
			C645.9,372,646.8,372.4,647.5,373.1z"/>
		<path class="st4" d="M371.9,403.5c0.6-0.4,1.3-0.6,2.2-0.6v2.2h-0.6c-0.9,0-1.6,0.2-2.2,0.7c-0.5,0.4-0.8,1.2-0.8,2.2v5h-2.1v-9.9
			h2.1v1.9C370.8,404.4,371.3,403.9,371.9,403.5z"/>
		<path class="st4" d="M381.9,403.6c0.6,0.4,1.1,1,1.4,1.8v-2.3h2.1v9.9h-2.1v-2.3c-0.3,0.7-0.7,1.3-1.4,1.8
			c-0.6,0.4-1.4,0.7-2.3,0.7c-0.9,0-1.6-0.2-2.3-0.6c-0.7-0.4-1.2-1-1.6-1.8c-0.4-0.8-0.6-1.7-0.6-2.7c0-1,0.2-1.9,0.6-2.7
			s0.9-1.4,1.6-1.8c0.7-0.4,1.5-0.6,2.3-0.6C380.5,403,381.2,403.2,381.9,403.6z M378,405.7c-0.5,0.6-0.8,1.4-0.8,2.4
			c0,1,0.3,1.8,0.8,2.4c0.5,0.6,1.3,0.9,2.2,0.9c0.6,0,1.1-0.1,1.6-0.4s0.8-0.7,1.1-1.1c0.3-0.5,0.4-1.1,0.4-1.7
			c0-0.6-0.1-1.2-0.4-1.7c-0.3-0.5-0.6-0.9-1.1-1.2s-1-0.4-1.6-0.4C379.3,404.8,378.6,405.1,378,405.7z"/>
		<path class="st4" d="M396.1,404.1c0.7,0.7,1,1.8,1,3.2v5.8h-2.1v-5.6c0-0.9-0.2-1.6-0.7-2.1c-0.5-0.5-1.1-0.7-1.9-0.7
			c-0.8,0-1.5,0.3-2,0.8c-0.5,0.5-0.7,1.3-0.7,2.3v5.3h-2.1v-9.9h2.1v2.2c0.3-0.7,0.7-1.3,1.3-1.7c0.6-0.4,1.3-0.6,2.2-0.6
			C394.5,402.9,395.4,403.3,396.1,404.1z"/>
		<path class="st4" d="M405.2,413l-3.6-4.4v4.4h-2.1v-13.3h2.1v7.6l3.5-4.2h2.5l-4.3,4.9l4.4,5H405.2z"/>
		<path class="st4" d="M415.1,403.9c0.7,0.6,1.1,1.4,1.3,2.4h-1.9c-0.1-0.5-0.3-1-0.7-1.3s-0.9-0.5-1.5-0.5c-0.5,0-0.9,0.1-1.2,0.4
			c-0.3,0.2-0.4,0.6-0.4,1c0,0.3,0.1,0.6,0.3,0.8c0.2,0.2,0.5,0.3,0.8,0.5s0.7,0.2,1.3,0.4c0.7,0.2,1.3,0.3,1.8,0.5
			c0.5,0.2,0.9,0.5,1.2,0.9s0.5,0.9,0.5,1.6c0,0.8-0.3,1.5-0.9,2c-0.6,0.5-1.5,0.8-2.6,0.8c-1.2,0-2.2-0.3-3-0.9s-1.2-1.4-1.4-2.4h2
			c0.1,0.5,0.3,1,0.7,1.3c0.4,0.3,1,0.5,1.7,0.5c0.5,0,0.9-0.1,1.2-0.4c0.3-0.3,0.4-0.6,0.4-1c0-0.3-0.1-0.6-0.3-0.8
			c-0.2-0.2-0.5-0.4-0.8-0.5c-0.3-0.1-0.8-0.2-1.3-0.4c-0.7-0.2-1.3-0.3-1.8-0.5c-0.5-0.2-0.8-0.4-1.2-0.8c-0.3-0.4-0.5-0.9-0.5-1.5
			c0-0.8,0.3-1.5,0.9-2c0.6-0.5,1.5-0.8,2.6-0.8C413.5,403,414.4,403.3,415.1,403.9z"/>
		<path class="st4" d="M422.9,399.4c0.2-0.2,0.6-0.3,1-0.3s0.7,0.1,1,0.3s0.4,0.5,0.4,0.9s-0.1,0.6-0.4,0.8c-0.2,0.2-0.6,0.3-1,0.3
			s-0.7-0.1-1-0.3c-0.2-0.2-0.4-0.5-0.4-0.8S422.6,399.6,422.9,399.4z M424.8,403.1v9.9h-2.1v-9.9H424.8z"/>
		<path class="st4" d="M435.7,404.1c0.7,0.7,1,1.8,1,3.2v5.8h-2.1v-5.6c0-0.9-0.2-1.6-0.7-2.1c-0.5-0.5-1.1-0.7-1.9-0.7
			c-0.8,0-1.5,0.3-2,0.8c-0.5,0.5-0.7,1.3-0.7,2.3v5.3h-2.1v-9.9h2.1v2.2c0.3-0.7,0.7-1.3,1.3-1.7c0.6-0.4,1.3-0.6,2.2-0.6
			C434,402.9,435,403.3,435.7,404.1z"/>
		<path class="st4" d="M448.3,411.3v1.8h-1.3c-1.1,0-1.9-0.3-2.4-0.8c-0.5-0.5-0.8-1.4-0.8-2.6v-4.9h-1.4v-1.7h1.4v-2.5h2.1v2.5h2.4
			v1.7h-2.4v4.9c0,0.6,0.1,1,0.3,1.2c0.2,0.2,0.6,0.3,1.1,0.3H448.3z"/>
		<path class="st4" d="M458.6,404.1c0.7,0.7,1,1.8,1,3.2v5.8h-2.1v-5.6c0-0.9-0.2-1.6-0.7-2.1c-0.5-0.5-1.1-0.7-1.9-0.7
			c-0.8,0-1.5,0.3-2,0.8c-0.5,0.5-0.7,1.3-0.7,2.3v5.3h-2.1v-13.3h2.1v5.6c0.3-0.7,0.7-1.3,1.3-1.7c0.6-0.4,1.3-0.6,2.2-0.6
			C457,402.9,457.9,403.3,458.6,404.1z"/>
		<path class="st4" d="M471.2,408.5h-7.6c0,1,0.3,1.8,0.8,2.3c0.5,0.5,1.2,0.7,2,0.7c0.7,0,1.3-0.2,1.7-0.5s0.8-0.8,0.9-1.4h2.2
			c-0.1,0.7-0.4,1.3-0.8,1.9s-1,1-1.6,1.3c-0.7,0.3-1.4,0.5-2.3,0.5c-1,0-1.8-0.2-2.6-0.6c-0.7-0.4-1.3-1-1.7-1.8
			c-0.4-0.8-0.6-1.7-0.6-2.7c0-1,0.2-1.9,0.6-2.7c0.4-0.8,1-1.4,1.7-1.8c0.7-0.4,1.6-0.6,2.6-0.6c1,0,1.8,0.2,2.6,0.6
			c0.7,0.4,1.3,1,1.7,1.7c0.4,0.7,0.6,1.5,0.6,2.4C471.3,407.9,471.2,408.2,471.2,408.5z M468.9,405.9c-0.2-0.4-0.6-0.8-1-1
			c-0.4-0.2-0.9-0.3-1.4-0.3c-0.8,0-1.5,0.2-2,0.7c-0.5,0.5-0.8,1.2-0.9,2.2h5.6C469.2,406.9,469.1,406.3,468.9,405.9z"/>
		<path class="st4" d="M482.5,411.3v1.8h-1.3c-1.1,0-1.9-0.3-2.4-0.8c-0.5-0.5-0.8-1.4-0.8-2.6v-4.9h-1.4v-1.7h1.4v-2.5h2.1v2.5h2.4
			v1.7H480v4.9c0,0.6,0.1,1,0.3,1.2c0.2,0.2,0.6,0.3,1.1,0.3H482.5z"/>
		<path class="st4" d="M491.5,403.6c0.8,0.4,1.4,1,1.8,1.8s0.6,1.7,0.6,2.7c0,1-0.2,2-0.6,2.7c-0.4,0.8-1,1.4-1.8,1.8
			c-0.8,0.4-1.6,0.6-2.6,0.6s-1.8-0.2-2.6-0.6c-0.8-0.4-1.4-1-1.8-1.8c-0.4-0.8-0.7-1.7-0.7-2.7s0.2-1.9,0.7-2.7
			c0.4-0.8,1-1.4,1.8-1.8c0.8-0.4,1.6-0.6,2.6-0.6S490.8,403.2,491.5,403.6z M487.5,405.1c-0.4,0.2-0.8,0.6-1.1,1.1
			s-0.4,1.1-0.4,1.8c0,0.7,0.1,1.3,0.4,1.8c0.3,0.5,0.6,0.9,1.1,1.1c0.4,0.2,0.9,0.4,1.5,0.4c0.5,0,1-0.1,1.5-0.4
			c0.4-0.2,0.8-0.6,1.1-1.1c0.3-0.5,0.4-1.1,0.4-1.8c0-0.7-0.1-1.3-0.4-1.8s-0.6-0.9-1.1-1.1c-0.4-0.2-0.9-0.4-1.5-0.4
			C488.4,404.8,487.9,404.9,487.5,405.1z"/>
		<path class="st4" d="M504,403.6c0.7,0.4,1.2,1,1.6,1.8s0.6,1.7,0.6,2.7c0,1-0.2,2-0.6,2.7c-0.4,0.8-0.9,1.4-1.6,1.8
			c-0.7,0.4-1.5,0.6-2.3,0.6c-0.9,0-1.7-0.2-2.3-0.7c-0.6-0.4-1.1-1-1.3-1.8v7H496v-14.7h2.1v2.3c0.3-0.7,0.7-1.3,1.3-1.8
			c0.6-0.4,1.4-0.7,2.3-0.7C502.5,403,503.3,403.2,504,403.6z M499.5,405.2c-0.5,0.3-0.8,0.7-1.1,1.2c-0.3,0.5-0.4,1.1-0.4,1.7
			c0,0.7,0.1,1.2,0.4,1.7c0.3,0.5,0.6,0.9,1.1,1.1s1,0.4,1.6,0.4c0.9,0,1.6-0.3,2.2-0.9c0.6-0.6,0.8-1.4,0.8-2.4
			c0-1-0.3-1.8-0.8-2.4c-0.6-0.6-1.3-0.9-2.2-0.9C500.5,404.8,499.9,404.9,499.5,405.2z"/>
		<path class="st4" d="M511.4,402.2v-1.9h4.1V413h-2.2v-10.8H511.4z"/>
		<path class="st4" d="M521.9,400.9c0.5,0.5,0.8,1.2,0.8,2c0,0.9-0.3,1.5-0.8,2s-1.2,0.7-2,0.7s-1.5-0.2-2-0.7
			c-0.5-0.5-0.8-1.2-0.8-2c0-0.9,0.3-1.5,0.8-2c0.5-0.5,1.2-0.7,2-0.7S521.4,400.4,521.9,400.9z M527.6,400.3l-7.2,12.8h-2l7.2-12.8
			H527.6z M519,404c0.2,0.3,0.6,0.4,1,0.4c0.4,0,0.7-0.1,1-0.4c0.2-0.3,0.4-0.6,0.4-1.1c0-0.5-0.1-0.8-0.4-1.1
			c-0.2-0.3-0.6-0.4-1-0.4c-0.4,0-0.7,0.1-1,0.4c-0.2,0.3-0.4,0.6-0.4,1.1S518.7,403.7,519,404z M528,408.4c0.5,0.5,0.8,1.2,0.8,2
			s-0.3,1.5-0.8,2c-0.5,0.5-1.2,0.7-2,0.7c-0.8,0-1.4-0.2-2-0.7c-0.5-0.5-0.8-1.2-0.8-2c0-0.8,0.3-1.5,0.8-2c0.5-0.5,1.2-0.7,2-0.7
			C526.8,407.7,527.5,407.9,528,408.4z M525.1,411.5c0.2,0.3,0.6,0.4,1,0.4c0.4,0,0.7-0.1,1-0.4c0.2-0.3,0.4-0.6,0.4-1.1
			c0-0.4-0.1-0.8-0.4-1.1c-0.2-0.3-0.6-0.4-1-0.4c-0.4,0-0.7,0.1-1,0.4c-0.2,0.3-0.4,0.6-0.4,1.1
			C524.7,410.9,524.8,411.3,525.1,411.5z"/>
		<path class="st4" d="M541.9,403.6c0.8,0.4,1.4,1,1.8,1.8s0.6,1.7,0.6,2.7c0,1-0.2,2-0.6,2.7c-0.4,0.8-1,1.4-1.8,1.8
			c-0.8,0.4-1.6,0.6-2.6,0.6s-1.8-0.2-2.6-0.6c-0.8-0.4-1.4-1-1.8-1.8c-0.4-0.8-0.7-1.7-0.7-2.7s0.2-1.9,0.7-2.7
			c0.4-0.8,1-1.4,1.8-1.8c0.8-0.4,1.6-0.6,2.6-0.6S541.1,403.2,541.9,403.6z M537.8,405.1c-0.4,0.2-0.8,0.6-1.1,1.1
			s-0.4,1.1-0.4,1.8c0,0.7,0.1,1.3,0.4,1.8c0.3,0.5,0.6,0.9,1.1,1.1c0.4,0.2,0.9,0.4,1.5,0.4c0.5,0,1-0.1,1.5-0.4
			c0.4-0.2,0.8-0.6,1.1-1.1c0.3-0.5,0.4-1.1,0.4-1.8c0-0.7-0.1-1.3-0.4-1.8s-0.6-0.9-1.1-1.1c-0.4-0.2-0.9-0.4-1.5-0.4
			C538.8,404.8,538.3,404.9,537.8,405.1z"/>
		<path class="st4" d="M555.5,403.1v9.9h-2.1v-2.2c-0.3,0.7-0.7,1.3-1.3,1.7c-0.6,0.4-1.4,0.6-2.2,0.6c-1.2,0-2.1-0.4-2.8-1.1
			c-0.7-0.7-1-1.8-1-3.2v-5.8h2.1v5.6c0,0.9,0.2,1.6,0.7,2.1c0.5,0.5,1.1,0.7,1.9,0.7c0.8,0,1.5-0.3,2-0.8s0.7-1.3,0.7-2.3v-5.3
			H555.5z"/>
		<path class="st4" d="M563,411.3v1.8h-1.3c-1.1,0-1.9-0.3-2.4-0.8c-0.5-0.5-0.8-1.4-0.8-2.6v-4.9h-1.4v-1.7h1.4v-2.5h2.1v2.5h2.4
			v1.7h-2.4v4.9c0,0.6,0.1,1,0.3,1.2c0.2,0.2,0.6,0.3,1.1,0.3H563z"/>
		<path class="st4" d="M576.3,403.6c0.8,0.4,1.4,1,1.8,1.8s0.6,1.7,0.6,2.7c0,1-0.2,2-0.6,2.7c-0.4,0.8-1,1.4-1.8,1.8
			c-0.8,0.4-1.6,0.6-2.6,0.6s-1.8-0.2-2.6-0.6c-0.8-0.4-1.4-1-1.8-1.8c-0.4-0.8-0.7-1.7-0.7-2.7s0.2-1.9,0.7-2.7
			c0.4-0.8,1-1.4,1.8-1.8c0.8-0.4,1.6-0.6,2.6-0.6S575.5,403.2,576.3,403.6z M572.2,405.1c-0.4,0.2-0.8,0.6-1.1,1.1
			s-0.4,1.1-0.4,1.8c0,0.7,0.1,1.3,0.4,1.8c0.3,0.5,0.6,0.9,1.1,1.1c0.4,0.2,0.9,0.4,1.5,0.4c0.5,0,1-0.1,1.5-0.4
			c0.4-0.2,0.8-0.6,1.1-1.1c0.3-0.5,0.4-1.1,0.4-1.8c0-0.7-0.1-1.3-0.4-1.8s-0.6-0.9-1.1-1.1c-0.4-0.2-0.9-0.4-1.5-0.4
			C573.1,404.8,572.7,404.9,572.2,405.1z"/>
		<path class="st4" d="M583.6,401.4c-0.3,0.3-0.5,0.8-0.5,1.5v0.2h2.2v1.8h-2.2v8.2h-2.1v-8.2h-1.4v-1.8h1.4v-0.3
			c0-1.2,0.4-2.1,1.1-2.7c0.7-0.6,1.8-0.9,3.2-0.8v1.8C584.5,401,584,401.1,583.6,401.4z"/>
		<path class="st4" d="M590.2,402.2v-1.9h4.1V413h-2.2v-10.8H590.2z"/>
		<path class="st4" d="M601.2,401.6c-0.9,0-1.6,0.4-2.1,1.1c-0.5,0.7-0.7,1.9-0.7,3.4l0,0.6c0.2-0.6,0.6-1.2,1.2-1.6
			c0.6-0.4,1.3-0.6,2.1-0.6c1.3,0,2.2,0.4,2.9,1.1c0.7,0.7,1.1,1.8,1.1,3.2c0,0.8-0.2,1.5-0.5,2.2c-0.3,0.6-0.8,1.2-1.5,1.5
			c-0.6,0.4-1.4,0.6-2.4,0.6c-1.8,0-3.1-0.6-3.8-1.7s-1-2.7-1-4.7c0-2.3,0.4-4,1.1-5.1c0.7-1.1,1.9-1.7,3.6-1.7
			c1.3,0,2.2,0.4,2.9,1.1c0.7,0.7,1.1,1.6,1.2,2.7h-1.9C603.2,402.3,602.5,401.6,601.2,401.6z M599.4,410.6c0.5,0.5,1.1,0.8,2,0.8
			c0.8,0,1.4-0.2,1.8-0.7c0.5-0.4,0.7-1.1,0.7-1.9c0-0.9-0.2-1.5-0.7-2s-1.1-0.7-1.9-0.7c-0.7,0-1.3,0.2-1.9,0.6
			c-0.5,0.4-0.8,1-0.8,1.8C598.7,409.4,598.9,410.1,599.4,410.6z"/>
		<path class="st4" d="M607.4,410.3v-1.7l6.3-8.4h2.2v8.3h1.8v1.8h-1.8v2.7h-2.1v-2.7H607.4z M614,402.7l-4.5,5.8h4.5V402.7z"/>
		<path class="st4" d="M628,401.9h-6.3v3.8c0.3-0.4,0.7-0.7,1.2-0.9c0.5-0.2,1.1-0.3,1.7-0.3c0.9,0,1.6,0.2,2.2,0.6
			c0.6,0.4,1,0.9,1.3,1.5s0.4,1.3,0.4,2.1c0,1.3-0.4,2.4-1.1,3.2c-0.7,0.8-1.8,1.2-3.2,1.2c-1.3,0-2.4-0.4-3.2-1.1
			c-0.8-0.7-1.3-1.7-1.3-2.8h2c0.1,0.6,0.4,1.2,0.8,1.5c0.4,0.4,1,0.6,1.6,0.6c0.8,0,1.4-0.2,1.8-0.7c0.4-0.5,0.6-1.1,0.6-2
			c0-0.8-0.2-1.4-0.6-1.8c-0.4-0.4-1-0.7-1.8-0.7c-0.6,0-1,0.1-1.5,0.4c-0.4,0.2-0.7,0.6-0.9,1h-2v-7.3h8.2V401.9z"/>
		<path class="st4" d="M410.9,435c0.7,0.7,1,1.8,1,3.2v5.8h-2.1v-5.6c0-0.9-0.2-1.6-0.7-2.1c-0.5-0.5-1.1-0.7-1.9-0.7
			c-0.8,0-1.5,0.3-2,0.8c-0.5,0.5-0.7,1.3-0.7,2.3v5.3h-2.1v-13.3h2.1v5.6c0.3-0.7,0.7-1.3,1.3-1.7c0.6-0.4,1.3-0.6,2.2-0.6
			C409.2,433.9,410.2,434.2,410.9,435z"/>
		<path class="st4" d="M423.5,439.4h-7.6c0,1,0.3,1.8,0.8,2.3c0.5,0.5,1.2,0.7,2,0.7c0.7,0,1.3-0.2,1.7-0.5s0.8-0.8,0.9-1.4h2.2
			c-0.1,0.7-0.4,1.3-0.8,1.9s-1,1-1.6,1.3c-0.7,0.3-1.4,0.5-2.3,0.5c-1,0-1.8-0.2-2.6-0.6c-0.7-0.4-1.3-1-1.7-1.8
			c-0.4-0.8-0.6-1.7-0.6-2.7c0-1,0.2-1.9,0.6-2.7c0.4-0.8,1-1.4,1.7-1.8c0.7-0.4,1.6-0.6,2.6-0.6c1,0,1.8,0.2,2.6,0.6
			c0.7,0.4,1.3,1,1.7,1.7c0.4,0.7,0.6,1.5,0.6,2.4C423.5,438.9,423.5,439.1,423.5,439.4z M421.1,436.8c-0.2-0.4-0.6-0.8-1-1
			c-0.4-0.2-0.9-0.3-1.4-0.3c-0.8,0-1.5,0.2-2,0.7c-0.5,0.5-0.8,1.2-0.9,2.2h5.6C421.5,437.8,421.4,437.3,421.1,436.8z"/>
		<path class="st4" d="M431.8,434.6c0.6,0.4,1.1,1,1.4,1.8V434h2.1v9.9h-2.1v-2.3c-0.3,0.7-0.7,1.3-1.4,1.8
			c-0.6,0.4-1.4,0.7-2.3,0.7c-0.9,0-1.6-0.2-2.3-0.6c-0.7-0.4-1.2-1-1.6-1.8c-0.4-0.8-0.6-1.7-0.6-2.7c0-1,0.2-1.9,0.6-2.7
			s0.9-1.4,1.6-1.8c0.7-0.4,1.5-0.6,2.3-0.6C430.4,433.9,431.2,434.1,431.8,434.6z M427.9,436.6c-0.5,0.6-0.8,1.4-0.8,2.4
			c0,1,0.3,1.8,0.8,2.4c0.5,0.6,1.3,0.9,2.2,0.9c0.6,0,1.1-0.1,1.6-0.4c0.5-0.3,0.8-0.7,1.1-1.1c0.3-0.5,0.4-1.1,0.4-1.7
			c0-0.6-0.1-1.2-0.4-1.7c-0.3-0.5-0.6-0.9-1.1-1.2c-0.5-0.3-1-0.4-1.6-0.4C429.2,435.7,428.5,436,427.9,436.6z"/>
		<path class="st4" d="M439.8,430.6V444h-2.1v-13.3H439.8z"/>
		<path class="st4" d="M447.2,442.2v1.8H446c-1.1,0-1.9-0.3-2.4-0.8c-0.5-0.5-0.8-1.4-0.8-2.6v-4.9h-1.4V434h1.4v-2.5h2.1v2.5h2.4
			v1.7h-2.4v4.9c0,0.6,0.1,1,0.3,1.2c0.2,0.2,0.6,0.3,1.1,0.3H447.2z"/>
		<path class="st4" d="M457.5,435c0.7,0.7,1,1.8,1,3.2v5.8h-2.1v-5.6c0-0.9-0.2-1.6-0.7-2.1c-0.5-0.5-1.1-0.7-1.9-0.7
			c-0.8,0-1.5,0.3-2,0.8c-0.5,0.5-0.7,1.3-0.7,2.3v5.3h-2.1v-13.3h2.1v5.6c0.3-0.7,0.7-1.3,1.3-1.7c0.6-0.4,1.3-0.6,2.2-0.6
			C455.9,433.9,456.8,434.2,457.5,435z"/>
		<path class="st4" d="M468.6,434.9c0.8,0.7,1.4,1.6,1.6,2.8h-2.2c-0.1-0.6-0.4-1.1-0.9-1.5c-0.5-0.4-1-0.5-1.7-0.5
			c-0.8,0-1.5,0.3-2,0.8c-0.5,0.6-0.8,1.4-0.8,2.5c0,1.1,0.3,1.9,0.8,2.5c0.5,0.6,1.2,0.8,2,0.8c0.7,0,1.3-0.2,1.7-0.5
			c0.5-0.4,0.8-0.9,0.9-1.5h2.2c-0.2,1.2-0.7,2.1-1.6,2.8c-0.8,0.7-1.9,1-3.2,1c-1,0-1.8-0.2-2.6-0.6c-0.7-0.4-1.3-1-1.7-1.8
			c-0.4-0.8-0.6-1.7-0.6-2.7c0-1,0.2-1.9,0.6-2.7c0.4-0.8,1-1.4,1.7-1.8c0.7-0.4,1.6-0.6,2.6-0.6
			C466.6,433.9,467.7,434.2,468.6,434.9z"/>
		<path class="st4" d="M478.4,434.6c0.6,0.4,1.1,1,1.4,1.8V434h2.1v9.9h-2.1v-2.3c-0.3,0.7-0.7,1.3-1.4,1.8
			c-0.6,0.4-1.4,0.7-2.3,0.7c-0.9,0-1.6-0.2-2.3-0.6c-0.7-0.4-1.2-1-1.6-1.8c-0.4-0.8-0.6-1.7-0.6-2.7c0-1,0.2-1.9,0.6-2.7
			s0.9-1.4,1.6-1.8c0.7-0.4,1.5-0.6,2.3-0.6C477,433.9,477.8,434.1,478.4,434.6z M474.5,436.6c-0.5,0.6-0.8,1.4-0.8,2.4
			c0,1,0.3,1.8,0.8,2.4c0.5,0.6,1.3,0.9,2.2,0.9c0.6,0,1.1-0.1,1.6-0.4c0.5-0.3,0.8-0.7,1.1-1.1c0.3-0.5,0.4-1.1,0.4-1.7
			c0-0.6-0.1-1.2-0.4-1.7c-0.3-0.5-0.6-0.9-1.1-1.2c-0.5-0.3-1-0.4-1.6-0.4C475.8,435.7,475.1,436,474.5,436.6z"/>
		<path class="st4" d="M487.8,434.4c0.6-0.4,1.3-0.6,2.2-0.6v2.2h-0.6c-0.9,0-1.6,0.2-2.2,0.7c-0.5,0.4-0.8,1.2-0.8,2.2v5h-2.1V434
			h2.1v1.9C486.7,435.3,487.2,434.8,487.8,434.4z"/>
		<path class="st4" d="M500.6,439.4H493c0,1,0.3,1.8,0.8,2.3c0.5,0.5,1.2,0.7,2,0.7c0.7,0,1.3-0.2,1.7-0.5s0.8-0.8,0.9-1.4h2.2
			c-0.1,0.7-0.4,1.3-0.8,1.9s-1,1-1.6,1.3c-0.7,0.3-1.4,0.5-2.3,0.5c-1,0-1.8-0.2-2.6-0.6c-0.7-0.4-1.3-1-1.7-1.8
			c-0.4-0.8-0.6-1.7-0.6-2.7c0-1,0.2-1.9,0.6-2.7c0.4-0.8,1-1.4,1.7-1.8c0.7-0.4,1.6-0.6,2.6-0.6c1,0,1.8,0.2,2.6,0.6
			c0.7,0.4,1.3,1,1.7,1.7c0.4,0.7,0.6,1.5,0.6,2.4C500.7,438.9,500.7,439.1,500.6,439.4z M498.3,436.8c-0.2-0.4-0.6-0.8-1-1
			c-0.4-0.2-0.9-0.3-1.4-0.3c-0.8,0-1.5,0.2-2,0.7c-0.5,0.5-0.8,1.2-0.9,2.2h5.6C498.7,437.8,498.6,437.3,498.3,436.8z"/>
		<path class="st4" d="M514.9,434.5c0.7,0.4,1.2,1,1.6,1.8s0.6,1.7,0.6,2.7c0,1-0.2,2-0.6,2.7c-0.4,0.8-0.9,1.4-1.6,1.8
			c-0.7,0.4-1.5,0.6-2.3,0.6c-0.9,0-1.7-0.2-2.3-0.7c-0.6-0.4-1.1-1-1.3-1.8v7h-2.1V434h2.1v2.3c0.3-0.7,0.7-1.3,1.3-1.8
			c0.6-0.4,1.4-0.7,2.3-0.7C513.5,433.9,514.3,434.1,514.9,434.5z M510.4,436.1c-0.5,0.3-0.8,0.7-1.1,1.2c-0.3,0.5-0.4,1.1-0.4,1.7
			c0,0.7,0.1,1.2,0.4,1.7c0.3,0.5,0.6,0.9,1.1,1.1s1,0.4,1.6,0.4c0.9,0,1.6-0.3,2.2-0.9c0.6-0.6,0.8-1.4,0.8-2.4
			c0-1-0.3-1.8-0.8-2.4c-0.6-0.6-1.3-0.9-2.2-0.9C511.4,435.7,510.9,435.8,510.4,436.1z"/>
		<path class="st4" d="M522.6,434.4c0.6-0.4,1.3-0.6,2.2-0.6v2.2h-0.6c-0.9,0-1.6,0.2-2.2,0.7c-0.5,0.4-0.8,1.2-0.8,2.2v5h-2.1V434
			h2.1v1.9C521.5,435.3,522,434.8,522.6,434.4z"/>
		<path class="st4" d="M533.4,434.5c0.8,0.4,1.4,1,1.8,1.8s0.6,1.7,0.6,2.7c0,1-0.2,2-0.6,2.7c-0.4,0.8-1,1.4-1.8,1.8
			c-0.8,0.4-1.6,0.6-2.6,0.6s-1.8-0.2-2.6-0.6c-0.8-0.4-1.4-1-1.8-1.8c-0.4-0.8-0.7-1.7-0.7-2.7s0.2-1.9,0.7-2.7
			c0.4-0.8,1-1.4,1.8-1.8c0.8-0.4,1.6-0.6,2.6-0.6S532.7,434.1,533.4,434.5z M529.4,436c-0.4,0.2-0.8,0.6-1.1,1.1s-0.4,1.1-0.4,1.8
			c0,0.7,0.1,1.3,0.4,1.8c0.3,0.5,0.6,0.9,1.1,1.1c0.4,0.2,0.9,0.4,1.5,0.4c0.5,0,1-0.1,1.5-0.4c0.4-0.2,0.8-0.6,1.1-1.1
			c0.3-0.5,0.4-1.1,0.4-1.8c0-0.7-0.1-1.3-0.4-1.8s-0.6-0.9-1.1-1.1c-0.4-0.2-0.9-0.4-1.5-0.4C530.3,435.7,529.8,435.8,529.4,436z"
			/>
		<path class="st4" d="M541.9,441.8l2.8-7.8h2.2l-3.8,9.9h-2.5l-3.8-9.9h2.2L541.9,441.8z"/>
		<path class="st4" d="M548.5,430.3c0.2-0.2,0.6-0.3,1-0.3s0.7,0.1,1,0.3s0.4,0.5,0.4,0.9s-0.1,0.6-0.4,0.8c-0.2,0.2-0.6,0.3-1,0.3
			s-0.7-0.1-1-0.3c-0.2-0.2-0.4-0.5-0.4-0.8S548.3,430.5,548.5,430.3z M550.5,434v9.9h-2.1V434H550.5z"/>
		<path class="st4" d="M559.3,434.6c0.6,0.4,1.1,1,1.3,1.8v-5.7h2.1V444h-2.1v-2.3c-0.3,0.7-0.7,1.3-1.3,1.8
			c-0.6,0.4-1.4,0.7-2.3,0.7c-0.9,0-1.6-0.2-2.3-0.6c-0.7-0.4-1.2-1-1.6-1.8c-0.4-0.8-0.6-1.7-0.6-2.7c0-1,0.2-1.9,0.6-2.7
			s0.9-1.4,1.6-1.8c0.7-0.4,1.5-0.6,2.3-0.6C557.9,433.9,558.7,434.1,559.3,434.6z M555.4,436.6c-0.5,0.6-0.8,1.4-0.8,2.4
			c0,1,0.3,1.8,0.8,2.4c0.5,0.6,1.3,0.9,2.2,0.9c0.6,0,1.1-0.1,1.6-0.4c0.5-0.3,0.8-0.7,1.1-1.1c0.3-0.5,0.4-1.1,0.4-1.7
			c0-0.6-0.1-1.2-0.4-1.7c-0.3-0.5-0.6-0.9-1.1-1.2c-0.5-0.3-1-0.4-1.6-0.4C556.7,435.7,556,436,555.4,436.6z"/>
		<path class="st4" d="M574.4,439.4h-7.6c0,1,0.3,1.8,0.8,2.3c0.5,0.5,1.2,0.7,2,0.7c0.7,0,1.3-0.2,1.7-0.5s0.8-0.8,0.9-1.4h2.2
			c-0.1,0.7-0.4,1.3-0.8,1.9s-1,1-1.6,1.3c-0.7,0.3-1.4,0.5-2.3,0.5c-1,0-1.8-0.2-2.6-0.6c-0.7-0.4-1.3-1-1.7-1.8
			c-0.4-0.8-0.6-1.7-0.6-2.7c0-1,0.2-1.9,0.6-2.7c0.4-0.8,1-1.4,1.7-1.8c0.7-0.4,1.6-0.6,2.6-0.6c1,0,1.8,0.2,2.6,0.6
			c0.7,0.4,1.3,1,1.7,1.7c0.4,0.7,0.6,1.5,0.6,2.4C574.4,438.9,574.4,439.1,574.4,439.4z M572,436.8c-0.2-0.4-0.6-0.8-1-1
			c-0.4-0.2-0.9-0.3-1.4-0.3c-0.8,0-1.5,0.2-2,0.7c-0.5,0.5-0.8,1.2-0.9,2.2h5.6C572.4,437.8,572.3,437.3,572,436.8z"/>
		<path class="st4" d="M579.9,434.4c0.6-0.4,1.3-0.6,2.2-0.6v2.2h-0.6c-0.9,0-1.6,0.2-2.2,0.7c-0.5,0.4-0.8,1.2-0.8,2.2v5h-2.1V434
			h2.1v1.9C578.8,435.3,579.3,434.8,579.9,434.4z"/>
		<path class="st4" d="M589.7,434.8c0.7,0.6,1.1,1.4,1.3,2.4H589c-0.1-0.5-0.3-1-0.7-1.3s-0.9-0.5-1.5-0.5c-0.5,0-0.9,0.1-1.2,0.4
			c-0.3,0.2-0.4,0.6-0.4,1c0,0.3,0.1,0.6,0.3,0.8c0.2,0.2,0.5,0.3,0.8,0.5c0.3,0.1,0.7,0.2,1.3,0.4c0.7,0.2,1.3,0.3,1.8,0.5
			c0.5,0.2,0.9,0.5,1.2,0.9c0.3,0.4,0.5,0.9,0.5,1.6c0,0.8-0.3,1.5-0.9,2c-0.6,0.5-1.5,0.8-2.6,0.8c-1.2,0-2.2-0.3-3-0.9
			s-1.2-1.4-1.4-2.4h2c0.1,0.5,0.3,1,0.7,1.3c0.4,0.3,1,0.5,1.7,0.5c0.5,0,0.9-0.1,1.2-0.4c0.3-0.3,0.4-0.6,0.4-1
			c0-0.3-0.1-0.6-0.3-0.8c-0.2-0.2-0.5-0.4-0.8-0.5c-0.3-0.1-0.8-0.2-1.3-0.4c-0.7-0.2-1.3-0.3-1.8-0.5c-0.5-0.2-0.8-0.4-1.2-0.8
			c-0.3-0.4-0.5-0.9-0.5-1.5c0-0.8,0.3-1.5,0.9-2c0.6-0.5,1.5-0.8,2.6-0.8C588,433.9,589,434.2,589.7,434.8z"/>
		<path class="st4" d="M594.8,441.7v2.3h-2.3v-2.3H594.8z"/>
	</g>
</g>
<g>
	<g>
		<g>
			<g>
				
					<linearGradient id="SVGID_1_" gradientUnits="userSpaceOnUse" x1="524.1277" y1="254.0624" x2="645.2891" y2="193.7251" gradientTransform="matrix(1 0 0 -1 0 346)">
					<stop  offset="0" style="stop-color:#00BEFF"/>
					<stop  offset="1" style="stop-color:#007DFF"/>
				</linearGradient>
				<path class="st5" d="M643.1,83.5H481.7c-4.1,0-7.5,3.4-7.5,7.5v40c0,4.1,3.4,7.5,7.5,7.5h161.4c4.1,0,7.5-3.4,7.5-7.5V91
					C650.7,86.9,647.2,83.5,643.1,83.5z"/>
				
					<linearGradient id="SVGID_2_" gradientUnits="userSpaceOnUse" x1="562.4408" y1="260.1602" x2="562.4408" y2="208.7814" gradientTransform="matrix(1 0 0 -1 0 346)">
					<stop  offset="0" style="stop-color:#005A9A"/>
					<stop  offset="1" style="stop-color:#002756"/>
				</linearGradient>
				<path class="st6" d="M644,135.3H480.9c-2.1,0-3.6-1.5-3.6-3.6V90.1c0-2.1,1.5-3.6,3.6-3.6H644c2.1,0,3.6,1.5,3.6,3.6v41.6
					C647.6,133.8,646,135.3,644,135.3z"/>
			</g>
		</g>
		<g>
			<g>
				<path class="st1" d="M554.7,121.3c-0.7-0.9-1.5-1.2-2.4-1.2c-0.3,0-0.9,0-1.2,0.2s-0.7,0.3-0.9,0.7c-0.3,0.3-0.5,0.7-0.7,1
					c-0.2,0.3-0.2,0.9-0.2,1.2c0,0.5,0,0.9,0.2,1.2c0.2,0.3,0.3,0.7,0.7,1c0.3,0.3,0.5,0.5,0.9,0.7c0.3,0.2,0.7,0.2,1.2,0.2
					c0.9,0,1.7-0.3,2.4-1.2v3.4l-0.3,0.2c-0.5,0.2-0.9,0.3-1.2,0.3c-0.3,0-0.7,0.2-1.2,0.2c-0.7,0-1.5-0.2-2.2-0.5
					c-0.7-0.3-1.4-0.7-1.9-1.2c-0.5-0.5-1-1.2-1.2-1.9c-0.3-0.7-0.5-1.5-0.5-2.4s0.2-1.7,0.5-2.4c0.3-0.7,0.7-1.4,1.2-1.9
					c0.5-0.5,1.2-0.9,1.9-1.2c0.7-0.3,1.4-0.5,2.2-0.5c0.5,0,0.9,0,1.2,0.2c0.3,0.2,0.9,0.2,1.4,0.5v3.4
					C554.5,121.3,554.7,121.3,554.7,121.3z"/>
				<path class="st1" d="M556.2,123.2c0-0.9,0.2-1.5,0.5-2.4c0.3-0.7,0.7-1.4,1.2-1.9c0.5-0.5,1.2-1,1.9-1.2
					c0.7-0.3,1.5-0.5,2.4-0.5c0.9,0,1.7,0.2,2.4,0.5c0.7,0.3,1.4,0.7,1.9,1.2c0.5,0.5,1,1.2,1.2,1.9c0.3,0.7,0.5,1.5,0.5,2.4
					s-0.2,1.5-0.5,2.4c-0.3,0.7-0.7,1.4-1.2,1.9c-0.5,0.5-1.2,1-1.9,1.2c-0.7,0.3-1.5,0.5-2.4,0.5c-0.9,0-1.7-0.2-2.4-0.5
					c-0.7-0.3-1.4-0.7-1.9-1.2c-0.5-0.5-1-1.2-1.2-1.9C556.4,124.9,556.2,124,556.2,123.2z M559.1,123.2c0,0.5,0,0.9,0.2,1.2
					c0.2,0.3,0.3,0.7,0.7,1c0.3,0.3,0.7,0.5,1,0.7c0.3,0.2,0.7,0.2,1.2,0.2c0.3,0,0.9,0,1.2-0.2s0.7-0.3,1-0.7
					c0.3-0.3,0.5-0.7,0.7-1c0.2-0.3,0.2-0.9,0.2-1.2c0-0.5,0-0.9-0.2-1.2c-0.2-0.3-0.3-0.7-0.7-1c-0.3-0.3-0.7-0.5-1-0.7
					c-0.3-0.2-0.7-0.2-1.2-0.2c-0.3,0-0.9,0-1.2,0.2s-0.7,0.3-1,0.7c-0.3,0.3-0.5,0.7-0.7,1S559.1,122.7,559.1,123.2z"/>
				<path class="st1" d="M569.5,128.8l1.9-11.3h2.7l2.2,6l2.2-6h2.7l1.9,11.3h-2.7l-0.9-6.5l-2.6,6.5h-1.2l-2.4-6.5l-0.9,6.5H569.5z
					"/>
				<path class="st1" d="M587.9,128.8h-2.9v-11.3h4.4c1.2,0,2.2,0.3,2.7,1c0.7,0.7,1,1.5,1,2.7c0,1.2-0.3,2.1-1,2.7
					c-0.7,0.7-1.5,1-2.7,1h-1.7v3.8C587.7,128.8,587.9,128.8,587.9,128.8z M587.9,122.7h0.9c1,0,1.5-0.5,1.5-1.4s-0.5-1.4-1.5-1.4
					h-0.9V122.7z"/>
				<path class="st1" d="M597.6,117.5v8.9h3.4v2.4h-6.2v-11.3H597.6z"/>
				<path class="st1" d="M605.3,117.5v11.3h-2.9v-11.3H605.3z"/>
				<path class="st1" d="M614.2,126.9h-4.1l-0.7,1.9h-3.1l4.1-11.3h3.1l4.1,11.3h-3.1L614.2,126.9z M613.5,124.7l-1.2-3.8l-1.2,3.8
					H613.5z"/>
				<path class="st1" d="M619.2,128.8v-11.3h2.9l5.3,6.8v-6.8h2.7v11.3h-2.7l-5.3-6.8v6.8H619.2z"/>
				<path class="st1" d="M636.5,120.1v8.7h-2.9v-8.9h-2.4v-2.6h7.5v2.6h-2.2V120.1z"/>
			</g>
			<g>
				<path class="st1" d="M551.7,101.1h7.9v-8.4h5.5v21.7h-5.5v-8.9h-7.9v8.9h-5.5V92.7h5.5V101.1z"/>
				<path class="st1" d="M574.8,92.7v21.7h-5.5V92.7H574.8z"/>
				<path class="st1" d="M584.6,114.3h-5.5V92.7h8.6c2.4,0,4.1,0.7,5.3,1.9s1.9,3.1,1.9,5.3s-0.7,4.1-1.9,5.3s-3.1,1.9-5.3,1.9h-3.3
					v7.2C584.4,114.3,584.6,114.3,584.6,114.3z M584.6,102.6h1.9c2.1,0,2.9-0.9,2.9-2.7s-1-2.7-2.9-2.7h-1.9V102.6z"/>
				<path class="st1" d="M609.6,110.5h-7.7l-1.2,3.8h-5.8l7.9-21.7h6l7.9,21.7h-5.8L609.6,110.5z M608,106.2l-2.4-7.2l-2.4,7.2H608z
					"/>
				<path class="st1" d="M631.8,110.5h-7.7l-1.2,3.8h-5.8l7.9-21.7h6l7.9,21.7H633L631.8,110.5z M630.3,106.2l-2.4-7.2l-2.4,7.2
					H630.3z"/>
			</g>
		</g>
	</g>
	<g>
		<g>
			<g>
				<g>
					
						<linearGradient id="SVGID_3_" gradientUnits="userSpaceOnUse" x1="498.777" y1="278.3712" x2="498.777" y2="191.97" gradientTransform="matrix(1 0 0 -1 0 346)">
						<stop  offset="0" style="stop-color:#00BEFF"/>
						<stop  offset="1" style="stop-color:#007DFF"/>
					</linearGradient>
					<path class="st7" d="M496,153.8c-5.8-2.2-11.1-5.5-16.1-9.9c-4.6-4.1-8.7-9.2-12.2-14.9c-3.4-5.6-6-12-7.7-18.5
						c-1.9-6.8-2.7-13.9-2.7-20.9c0-3.6,0.2-7.4,0.7-11l1.2-9.2l8.9,2.7c3.3,1,6.7,1.5,10.1,1.5c5.8,0,11.6-1.5,16.8-4.4l3.9-2.2
						l3.9,2.2c0,0,0.2,0,0.2,0.2l0,0l0.2,0.2c5.1,2.7,10.8,4.3,16.3,4.3c3.4,0,6.8-0.5,10.1-1.5l8.9-2.7l1.2,9.2
						c0.5,3.6,0.7,7.4,0.7,11c0,7-0.9,14-2.7,20.7c-1.7,6.5-4.3,12.8-7.5,18.5c-3.3,5.6-7.4,10.8-12,14.9
						c-4.8,4.4-10.1,7.7-15.7,9.9h-0.2c-0.2,0-0.3,0.2-0.5,0.2l-2.7,1L496,153.8z"/>
					
						<linearGradient id="SVGID_4_" gradientUnits="userSpaceOnUse" x1="498.8625" y1="303.8103" x2="498.8625" y2="192.9498" gradientTransform="matrix(1 0 0 -1 0 346)">
						<stop  offset="0" style="stop-color:#007DFF"/>
						<stop  offset="1" style="stop-color:#00BEFF"/>
					</linearGradient>
					<path class="st8" d="M497.8,149c-5.1-2.1-10.1-5-14.4-8.9c-4.3-3.8-8-8.4-11.1-13.7c-3.1-5.3-5.5-11.1-7.2-17.3
						c-1.7-6.3-2.6-13-2.6-19.7c0-3.4,0.2-6.8,0.7-10.3l0.3-3.1l2.9,0.9c3.8,1.2,7.7,1.7,11.6,1.7c6.7,0,13.3-1.7,19.3-5.1l1.4-0.7
						l1.4,0.7c0.2,0,0.2,0.2,0.3,0.2c0,0,0.2,0,0.2,0.2c5.8,3.3,12.3,5,18.8,5c3.9,0,7.9-0.5,11.6-1.7l2.9-0.9l0.3,3.1
						c0.5,3.4,0.7,6.8,0.7,10.3c0,6.7-0.9,13.2-2.6,19.5c-1.5,6.2-3.9,12-7,17.1c-3.1,5.3-6.7,9.9-11,13.7c-4.3,3.9-9.1,7-14.2,9.1
						h-0.2c-0.2,0-0.3,0.2-0.3,0.2l-0.9,0.3L497.8,149z"/>
					
						<linearGradient id="SVGID_5_" gradientUnits="userSpaceOnUse" x1="498.777" y1="270.0664" x2="498.777" y2="199.557" gradientTransform="matrix(1 0 0 -1 0 346)">
						<stop  offset="0" style="stop-color:#005A9A"/>
						<stop  offset="1" style="stop-color:#002756"/>
					</linearGradient>
					<path class="st9" d="M531.7,79.5c-3.9,1.2-8.2,1.9-12.3,1.9c-7,0-13.9-1.7-20-5.1c-0.2-0.2-0.3-0.2-0.5-0.3
						c-6.3,3.6-13.3,5.5-20.7,5.5c-4.3,0-8.4-0.7-12.3-1.9c-0.5,3.3-0.7,6.7-0.7,9.9c0,26.2,13.7,49.5,33.7,57
						c0.2,0,0.3-0.2,0.5-0.2c19.5-7.7,33-30.8,33-56.8C532.4,86.2,532.2,82.8,531.7,79.5z"/>
				</g>
			</g>
		</g>
		<g>
			<path class="st1" d="M506.6,102.5l-0.5-0.2c0-0.7-0.7-1.7-1.9-2.1c-1.4-0.7-3.1-0.3-3.6,0.5s0.2,2.1,1.7,2.6
				c0.9,0.3,1.7,0.5,2.4,0.3l0.9,0.5c0.5,0.3,0.9,0.9,0.9,1.4c0,0.5-0.5,1-1.2,1.4l-6,2.4c0.2-9.9,0.3-17.8,0.3-19.3
				c0.9-0.3,1.5-1.2,1.5-2.2c0-1.4-1.2-2.6-2.6-2.6c-1.4,0-2.2,0.9-2.2,2.2c0,1,0.7,1.9,1.5,2.2c0,1.4,0.2,9.2,0.3,19.2l-5.8-2.2
				c-0.7-0.3-1-0.7-1.2-1.4c0-0.5,0.3-1,0.9-1.4l0.9-0.5c0.7,0.2,1.5,0.2,2.4-0.3c1.4-0.7,2.2-1.7,1.7-2.6c-0.5-0.9-2.1-1-3.6-0.5
				c-1.2,0.5-1.9,1.4-1.9,2.1l-0.5,0.2c-0.5,0.3-1,0.7-1.4,1.2c-0.3,0.5-0.5,1-0.3,1.7c0,1.2,0.9,2.2,2.2,2.7l5,1.9l-2.6,1
				c-1.4,0.5-2.1,1.5-2.2,2.7c0,0.5,0.2,1.2,0.3,1.7c0.3,0.5,0.9,1,1.4,1.2l3.6,1.9l-2.4,1.2c-1,0.5-1.7,1.5-1.7,2.7
				c0,1.2,0.7,2.2,1.7,2.7l2.4,1.4l-0.7,0.3c-1,0.7-1.7,1.7-1.7,2.7c0,1.2,0.7,2.2,1.9,2.7l0.3,0.2h-0.2c-0.7,0.3-1.2,0.9-1.5,1.5
				c-0.3,0.7-0.3,1.5-0.2,2.2l0.3,1c0.2,0.3,0.5,0.5,0.9,0.5c0.2,0,0.2,0,0.3,0c0.5-0.2,0.7-0.7,0.5-1l-0.3-1
				c-0.2-0.7,0.2-1.4,0.9-1.7l0.9-0.3c0,1.5,0,2.9,0,4.3c0,0.2,0.2,0.3,0.3,0.3s0.3-0.2,0.3-0.3c0-1.4,0-2.9,0-4.4l1,0.5
				c0.7,0.3,1,1,0.9,1.7l-0.3,1c-0.2,0.5,0,0.9,0.5,1c0.2,0,0.2,0,0.3,0c0.3,0,0.7-0.2,0.9-0.5l0.3-1c0.2-0.7,0.2-1.5-0.2-2.2
				c-0.3-0.7-0.9-1.2-1.5-1.5h-0.2l0.3-0.2c1.2-0.5,1.9-1.5,1.9-2.7c0-1.2-0.7-2.2-1.7-2.7l-0.7-0.3l2.4-1.4c1-0.7,1.7-1.7,1.7-2.7
				c0-1.2-0.7-2.2-1.7-2.7l-2.4-1.2l3.6-1.9c0.5-0.3,1-0.7,1.4-1.2c0.3-0.5,0.5-1,0.3-1.7c0-1.2-0.9-2.2-2.2-2.7l-2.6-1l5-1.9
				c1.4-0.5,2.1-1.5,2.2-2.7c0-0.5-0.2-1.2-0.3-1.7C507.6,103.3,507.2,102.8,506.6,102.5z M493.4,114.1c0-0.5,0.5-1,1.2-1.4l3.6-1.4
				c0,2.1,0,4.1,0.2,6.2l-3.9-2.1C493.7,115.1,493.4,114.6,493.4,114.1z M494.6,123c0-0.5,0.3-1,0.9-1.2l2.7-1.4c0,1.9,0,3.8,0,5.5
				l-2.7-1.5C494.9,123.9,494.6,123.5,494.6,123z M496.5,130.2c0-0.5,0.3-1,0.9-1.4l1-0.5c0,1.2,0,2.4,0,3.6l-1-0.5
				C496.8,131.2,496.5,130.7,496.5,130.2z M501.3,130.2c0,0.5-0.3,1-0.9,1.4l-1.2,0.5c0-1.2,0-2.6,0-3.8l1.2,0.7
				C500.9,129.2,501.3,129.7,501.3,130.2z M503.1,123c0,0.5-0.3,1-0.9,1.4l-2.9,1.7c0-1.9,0-3.9,0-5.8l2.9,1.5
				C502.8,122,503.1,122.5,503.1,123z M504.3,114.1c0,0.5-0.3,1-0.9,1.4l-4.1,2.2c0-2.2,0-4.3,0.2-6.3l3.8,1.4
				C504,113.1,504.3,113.6,504.3,114.1z"/>
			<path class="st1" d="M512.9,91.8c-1.9-1.4-4.4-3.8-5.5-4.4c-1.9-1.4-2.7,0.9-3.6,1.7c-1.2,1.4-2.6,1.7-3.1,1.7v7.9
				c0.7-0.2,1.4-0.3,2.1-0.5c0.7-0.2,1.5,0.9,3.9,0c1.2-0.5,2.2,0.9,4.6-0.2c0.9-0.3,3.1,0.9,5.5-0.5c1.2-0.7,3.4,0.7,5.6-2.6
				C521.1,94.6,517.9,95.3,512.9,91.8z"/>
			<path class="st1" d="M494.9,98.2c0.7,0.2,1.2,0.3,2.1,0.5v-7.9c-0.7,0-1.9-0.3-3.1-1.7c-0.9-1-1.7-3.1-3.6-1.7
				c-1,0.7-3.6,3.1-5.5,4.4c-5,3.4-8,2.7-9.4,3.1c2.2,3.3,4.4,1.9,5.6,2.6c2.4,1.4,4.4,0.2,5.5,0.5c2.4,1,3.4-0.3,4.6,0.2
				C493.4,99,494.2,98,494.9,98.2z"/>
		</g>
	</g>
</g>
<g>
	<g>
		<defs>
			<path id="SVGID_6_" d="M490.3,303.1L490.3,303.1c-24.5,0-44.3-19.8-44.3-44.3v0c0-24.5,19.8-44.3,44.3-44.3h0
				c24.5,0,44.3,19.8,44.3,44.3v0C534.6,283.2,514.8,303.1,490.3,303.1z"/>
		</defs>
		<clipPath id="SVGID_7_">
			<use xlink:href="#SVGID_6_"  style="overflow:visible;"/>
		</clipPath>
		<g style="clip-path:url(#SVGID_7_);">
			
				<image style="overflow:visible;" width="400" height="400" xlink:href="856D15F5.png"  transform="matrix(0.2917 0 0 0.2917 434.2869 199.2391)">
			</image>
		</g>
	</g>
	<circle class="st10" cx="490.3" cy="258.8" r="48.4"/>
</g>
</svg>
