<?xml version="1.0" encoding="utf-8"?>
<!-- Generator: Adobe Illustrator 24.2.1, SVG Export Plug-In . SVG Version: 6.00 Build 0)  -->
<svg version="1.1" id="Layer_1" xmlns="http://www.w3.org/2000/svg" xmlns:xlink="http://www.w3.org/1999/xlink" x="0px" y="0px"
	 viewBox="0 0 571.4 342.9" style="enable-background:new 0 0 571.4 342.9;" xml:space="preserve">
<style type="text/css">
	.st0{fill:url(#SVGID_1_);}
	.st1{fill:url(#SVGID_2_);}
	.st2{fill:#FFFFFF;}
	.st3{fill:url(#SVGID_3_);}
	.st4{fill:url(#SVGID_4_);}
	.st5{fill:url(#SVGID_5_);}
	.st6{fill:#253863;}
	.st7{fill:#FF7B7B;}
	.st8{fill:#05BB90;}
</style>
<g>
	<g>
		<g>
			<g>
				<g>
					
						<linearGradient id="SVGID_1_" gradientUnits="userSpaceOnUse" x1="268.2629" y1="188.0514" x2="339.0598" y2="223.3077" gradientTransform="matrix(1 0 0 1 0 -156)">
						<stop  offset="0" style="stop-color:#00BEFF"/>
						<stop  offset="1" style="stop-color:#007DFF"/>
					</linearGradient>
					<path class="st0" d="M337.8,27.1h-94.3c-2.4,0-4.4,2-4.4,4.4v23.4c0,2.4,2,4.4,4.4,4.4h94.3c2.4,0,4.4-2,4.4-4.4V31.5
						C342.2,29.1,340.2,27.1,337.8,27.1z"/>
					
						<linearGradient id="SVGID_2_" gradientUnits="userSpaceOnUse" x1="290.65" y1="184.4884" x2="290.65" y2="214.51" gradientTransform="matrix(1 0 0 1 0 -156)">
						<stop  offset="0" style="stop-color:#005A9A"/>
						<stop  offset="1" style="stop-color:#002756"/>
					</linearGradient>
					<path class="st1" d="M338.3,57.4H243c-1.2,0-2.1-0.9-2.1-2.1V31c0-1.2,0.9-2.1,2.1-2.1h95.3c1.2,0,2.1,0.9,2.1,2.1v24.3
						C340.4,56.5,339.5,57.4,338.3,57.4z"/>
				</g>
			</g>
			<g>
				<g>
					<path class="st2" d="M286.1,49.2c-0.4-0.5-0.9-0.7-1.4-0.7c-0.2,0-0.5,0-0.7,0.1s-0.4,0.2-0.5,0.4c-0.2,0.2-0.3,0.4-0.4,0.6
						c-0.1,0.2-0.1,0.5-0.1,0.7c0,0.3,0,0.5,0.1,0.7s0.2,0.4,0.4,0.6c0.2,0.2,0.3,0.3,0.5,0.4c0.2,0.1,0.4,0.1,0.7,0.1
						c0.5,0,1-0.2,1.4-0.7v2l-0.2,0.1c-0.3,0.1-0.5,0.2-0.7,0.2s-0.4,0.1-0.7,0.1c-0.4,0-0.9-0.1-1.3-0.3s-0.8-0.4-1.1-0.7
						c-0.3-0.3-0.6-0.7-0.7-1.1c-0.2-0.4-0.3-0.9-0.3-1.4s0.1-1,0.3-1.4c0.2-0.4,0.4-0.8,0.7-1.1c0.3-0.3,0.7-0.5,1.1-0.7
						s0.8-0.3,1.3-0.3c0.3,0,0.5,0,0.7,0.1s0.5,0.1,0.8,0.3v2C286,49.2,286.1,49.2,286.1,49.2z"/>
					<path class="st2" d="M287,50.3c0-0.5,0.1-0.9,0.3-1.4c0.2-0.4,0.4-0.8,0.7-1.1c0.3-0.3,0.7-0.6,1.1-0.7
						c0.4-0.2,0.9-0.3,1.4-0.3s1,0.1,1.4,0.3s0.8,0.4,1.1,0.7c0.3,0.3,0.6,0.7,0.7,1.1c0.2,0.4,0.3,0.9,0.3,1.4s-0.1,0.9-0.3,1.4
						c-0.2,0.4-0.4,0.8-0.7,1.1c-0.3,0.3-0.7,0.6-1.1,0.7c-0.4,0.2-0.9,0.3-1.4,0.3s-1-0.1-1.4-0.3s-0.8-0.4-1.1-0.7
						c-0.3-0.3-0.6-0.7-0.7-1.1C287.1,51.3,287,50.8,287,50.3z M288.7,50.3c0,0.3,0,0.5,0.1,0.7s0.2,0.4,0.4,0.6
						c0.2,0.2,0.4,0.3,0.6,0.4c0.2,0.1,0.4,0.1,0.7,0.1c0.2,0,0.5,0,0.7-0.1s0.4-0.2,0.6-0.4s0.3-0.4,0.4-0.6
						c0.1-0.2,0.1-0.5,0.1-0.7c0-0.3,0-0.5-0.1-0.7s-0.2-0.4-0.4-0.6c-0.2-0.2-0.4-0.3-0.6-0.4c-0.2-0.1-0.4-0.1-0.7-0.1
						c-0.2,0-0.5,0-0.7,0.1s-0.4,0.2-0.6,0.4s-0.3,0.4-0.4,0.6C288.7,49.8,288.7,50,288.7,50.3z"/>
					<path class="st2" d="M294.8,53.6l1.1-6.6h1.6l1.3,3.5l1.3-3.5h1.6l1.1,6.6h-1.6l-0.5-3.8l-1.5,3.8h-0.7l-1.4-3.8l-0.5,3.8
						H294.8z"/>
					<path class="st2" d="M305.5,53.6h-1.7V47h2.6c0.7,0,1.3,0.2,1.6,0.6c0.4,0.4,0.6,0.9,0.6,1.6s-0.2,1.2-0.6,1.6
						c-0.4,0.4-0.9,0.6-1.6,0.6h-1v2.2C305.4,53.6,305.5,53.6,305.5,53.6z M305.5,50h0.5c0.6,0,0.9-0.3,0.9-0.8s-0.3-0.8-0.9-0.8
						h-0.5V50z"/>
					<path class="st2" d="M311.2,47v5.2h2v1.4h-3.6V47H311.2z"/>
					<path class="st2" d="M315.7,47v6.6H314V47H315.7z"/>
					<path class="st2" d="M320.9,52.5h-2.4l-0.4,1.1h-1.8l2.4-6.6h1.8l2.4,6.6h-1.8L320.9,52.5z M320.5,51.2l-0.7-2.2l-0.7,2.2
						H320.5z"/>
					<path class="st2" d="M323.8,53.6V47h1.7l3.1,4v-4h1.6v6.6h-1.6l-3.1-4v4H323.8z"/>
					<path class="st2" d="M333.9,48.5v5.1h-1.7v-5.2h-1.4v-1.5h4.4v1.5h-1.3V48.5z"/>
				</g>
				<g>
					<path class="st2" d="M284.4,37.4h4.6v-4.9h3.2v12.7H289V40h-4.6v5.2h-3.2V32.5h3.2V37.4z"/>
					<path class="st2" d="M297.9,32.5v12.7h-3.2V32.5H297.9z"/>
					<path class="st2" d="M303.6,45.1h-3.2V32.5h5c1.4,0,2.4,0.4,3.1,1.1c0.7,0.7,1.1,1.8,1.1,3.1s-0.4,2.4-1.1,3.1
						c-0.7,0.7-1.8,1.1-3.1,1.1h-1.9v4.2C303.5,45.1,303.6,45.1,303.6,45.1z M303.6,38.3h1.1c1.2,0,1.7-0.5,1.7-1.6
						s-0.6-1.6-1.7-1.6h-1.1V38.3z"/>
					<path class="st2" d="M318.2,42.9h-4.5l-0.7,2.2h-3.4l4.6-12.7h3.5l4.6,12.7h-3.4L318.2,42.9z M317.3,40.4l-1.4-4.2l-1.4,4.2
						H317.3z"/>
					<path class="st2" d="M331.2,42.9h-4.5l-0.7,2.2h-3.4l4.6-12.7h3.5l4.6,12.7h-3.4L331.2,42.9z M330.3,40.4l-1.4-4.2l-1.4,4.2
						H330.3z"/>
				</g>
			</g>
		</g>
		<g>
			<g>
				<g>
					<g>
						
							<linearGradient id="SVGID_3_" gradientUnits="userSpaceOnUse" x1="253.45" y1="173.8473" x2="253.45" y2="224.3332" gradientTransform="matrix(1 0 0 1 0 -156)">
							<stop  offset="0" style="stop-color:#00BEFF"/>
							<stop  offset="1" style="stop-color:#007DFF"/>
						</linearGradient>
						<path class="st3" d="M251.8,68.2c-3.4-1.3-6.5-3.2-9.4-5.8c-2.7-2.4-5.1-5.4-7.1-8.7s-3.5-7-4.5-10.8c-1.1-4-1.6-8.1-1.6-12.2
							c0-2.1,0.1-4.3,0.4-6.4l0.7-5.4l5.2,1.6c1.9,0.6,3.9,0.9,5.9,0.9c3.4,0,6.8-0.9,9.8-2.6l2.3-1.3l2.3,1.3c0,0,0.1,0,0.1,0.1
							l0,0L256,19c3,1.6,6.3,2.5,9.5,2.5c2,0,4-0.3,5.9-0.9l5.2-1.6l0.7,5.4c0.3,2.1,0.4,4.3,0.4,6.4c0,4.1-0.5,8.2-1.6,12.1
							c-1,3.8-2.5,7.5-4.4,10.8s-4.3,6.3-7,8.7c-2.8,2.6-5.9,4.5-9.2,5.8h-0.1c-0.1,0-0.2,0.1-0.3,0.1l-1.6,0.6L251.8,68.2z"/>
						
							<linearGradient id="SVGID_4_" gradientUnits="userSpaceOnUse" x1="253.5" y1="158.9828" x2="253.5" y2="223.7607" gradientTransform="matrix(1 0 0 1 0 -156)">
							<stop  offset="0" style="stop-color:#007DFF"/>
							<stop  offset="1" style="stop-color:#00BEFF"/>
						</linearGradient>
						<path class="st4" d="M252.9,65.4c-3-1.2-5.9-2.9-8.4-5.2c-2.5-2.2-4.7-4.9-6.5-8s-3.2-6.5-4.2-10.1c-1-3.7-1.5-7.6-1.5-11.5
							c0-2,0.1-4,0.4-6l0.2-1.8l1.7,0.5c2.2,0.7,4.5,1,6.8,1c3.9,0,7.8-1,11.3-3l0.8-0.4l0.8,0.4c0.1,0,0.1,0.1,0.2,0.1
							c0,0,0.1,0,0.1,0.1c3.4,1.9,7.2,2.9,11,2.9c2.3,0,4.6-0.3,6.8-1l1.7-0.5l0.2,1.8c0.3,2,0.4,4,0.4,6c0,3.9-0.5,7.7-1.5,11.4
							c-0.9,3.6-2.3,7-4.1,10c-1.8,3.1-3.9,5.8-6.4,8c-2.5,2.3-5.3,4.1-8.3,5.3h-0.1c-0.1,0-0.2,0.1-0.2,0.1l-0.5,0.2L252.9,65.4z"
							/>
						
							<linearGradient id="SVGID_5_" gradientUnits="userSpaceOnUse" x1="253.45" y1="178.7" x2="253.45" y2="219.9" gradientTransform="matrix(1 0 0 1 0 -156)">
							<stop  offset="0" style="stop-color:#005A9A"/>
							<stop  offset="1" style="stop-color:#002756"/>
						</linearGradient>
						<path class="st5" d="M272.7,24.8c-2.3,0.7-4.8,1.1-7.2,1.1c-4.1,0-8.1-1-11.7-3c-0.1-0.1-0.2-0.1-0.3-0.2
							c-3.7,2.1-7.8,3.2-12.1,3.2c-2.5,0-4.9-0.4-7.2-1.1c-0.3,1.9-0.4,3.9-0.4,5.8c0,15.3,8,28.9,19.7,33.3c0.1,0,0.2-0.1,0.3-0.1
							c11.4-4.5,19.3-18,19.3-33.2C273.1,28.7,273,26.7,272.7,24.8z"/>
					</g>
				</g>
			</g>
			<g>
				<path class="st2" d="M258,38.2l-0.3-0.1c0-0.4-0.4-1-1.1-1.2c-0.8-0.4-1.8-0.2-2.1,0.3s0.1,1.2,1,1.5c0.5,0.2,1,0.3,1.4,0.2
					l0.5,0.3c0.3,0.2,0.5,0.5,0.5,0.8s-0.3,0.6-0.7,0.8l-3.5,1.4c0.1-5.8,0.2-10.4,0.2-11.3c0.5-0.2,0.9-0.7,0.9-1.3
					c0-0.8-0.7-1.5-1.5-1.5s-1.3,0.5-1.3,1.3c0,0.6,0.4,1.1,0.9,1.3c0,0.8,0.1,5.4,0.2,11.2l-3.4-1.3c-0.4-0.2-0.6-0.4-0.7-0.8
					c0-0.3,0.2-0.6,0.5-0.8l0.5-0.3c0.4,0.1,0.9,0.1,1.4-0.2c0.8-0.4,1.3-1,1-1.5s-1.2-0.6-2.1-0.3c-0.7,0.3-1.1,0.8-1.1,1.2
					l-0.3,0.1c-0.3,0.2-0.6,0.4-0.8,0.7s-0.3,0.6-0.2,1c0,0.7,0.5,1.3,1.3,1.6l2.9,1.1l-1.5,0.6c-0.8,0.3-1.2,0.9-1.3,1.6
					c0,0.3,0.1,0.7,0.2,1c0.2,0.3,0.5,0.6,0.8,0.7l2.1,1.1l-1.4,0.7c-0.6,0.3-1,0.9-1,1.6c0,0.7,0.4,1.3,1,1.6l1.4,0.8l-0.4,0.2
					c-0.6,0.4-1,1-1,1.6c0,0.7,0.4,1.3,1.1,1.6l0.2,0.1h-0.1c-0.4,0.2-0.7,0.5-0.9,0.9s-0.2,0.9-0.1,1.3l0.2,0.6
					c0.1,0.2,0.3,0.3,0.5,0.3c0.1,0,0.1,0,0.2,0c0.3-0.1,0.4-0.4,0.3-0.6l-0.2-0.6c-0.1-0.4,0.1-0.8,0.5-1l0.5-0.2
					c0,0.9,0,1.7,0,2.5c0,0.1,0.1,0.2,0.2,0.2s0.2-0.1,0.2-0.2c0-0.8,0-1.7,0-2.6l0.6,0.3c0.4,0.2,0.6,0.6,0.5,1l-0.2,0.6
					c-0.1,0.3,0,0.5,0.3,0.6c0.1,0,0.1,0,0.2,0c0.2,0,0.4-0.1,0.5-0.3l0.2-0.6c0.1-0.4,0.1-0.9-0.1-1.3c-0.2-0.4-0.5-0.7-0.9-0.9
					h-0.1l0.2-0.1c0.7-0.3,1.1-0.9,1.1-1.6c0-0.7-0.4-1.3-1-1.6l-0.4-0.2l1.4-0.8c0.6-0.4,1-1,1-1.6c0-0.7-0.4-1.3-1-1.6l-1.4-0.7
					l2.1-1.1c0.3-0.2,0.6-0.4,0.8-0.7c0.2-0.3,0.3-0.6,0.2-1c0-0.7-0.5-1.3-1.3-1.6l-1.5-0.6l2.9-1.1c0.8-0.3,1.2-0.9,1.3-1.6
					c0-0.3-0.1-0.7-0.2-1C258.6,38.7,258.4,38.4,258,38.2z M250.3,45c0-0.3,0.3-0.6,0.7-0.8l2.1-0.8c0,1.2,0,2.4,0.1,3.6l-2.3-1.2
					C250.5,45.6,250.3,45.3,250.3,45z M251,50.2c0-0.3,0.2-0.6,0.5-0.7l1.6-0.8c0,1.1,0,2.2,0,3.2l-1.6-0.9
					C251.2,50.7,251,50.5,251,50.2z M252.1,54.4c0-0.3,0.2-0.6,0.5-0.8l0.6-0.3c0,0.7,0,1.4,0,2.1l-0.6-0.3
					C252.3,55,252.1,54.7,252.1,54.4z M254.9,54.4c0,0.3-0.2,0.6-0.5,0.8l-0.7,0.3c0-0.7,0-1.5,0-2.2l0.7,0.4
					C254.7,53.8,254.9,54.1,254.9,54.4z M256,50.2c0,0.3-0.2,0.6-0.5,0.8l-1.7,1c0-1.1,0-2.3,0-3.4l1.7,0.9
					C255.8,49.6,256,49.9,256,50.2z M256.7,45c0,0.3-0.2,0.6-0.5,0.8l-2.4,1.3c0-1.3,0-2.5,0.1-3.7l2.2,0.8
					C256.5,44.4,256.7,44.7,256.7,45z"/>
				<path class="st2" d="M261.7,32c-1.1-0.8-2.6-2.2-3.2-2.6c-1.1-0.8-1.6,0.5-2.1,1c-0.7,0.8-1.5,1-1.8,1V36
					c0.4-0.1,0.8-0.2,1.2-0.3s0.9,0.5,2.3,0c0.7-0.3,1.3,0.5,2.7-0.1c0.5-0.2,1.8,0.5,3.2-0.3c0.7-0.4,2,0.4,3.3-1.5
					C266.5,33.6,264.6,34,261.7,32z"/>
				<path class="st2" d="M251.2,35.7c0.4,0.1,0.7,0.2,1.2,0.3v-4.6c-0.4,0-1.1-0.2-1.8-1c-0.5-0.6-1-1.8-2.1-1
					c-0.6,0.4-2.1,1.8-3.2,2.6c-2.9,2-4.7,1.6-5.5,1.8c1.3,1.9,2.6,1.1,3.3,1.5c1.4,0.8,2.6,0.1,3.2,0.3c1.4,0.6,2-0.2,2.7,0.1
					C250.3,36.2,250.8,35.6,251.2,35.7z"/>
			</g>
		</g>
	</g>
	<g>
		<g>
			<path class="st6" d="M100,278.1c0.7,0.4,1.2,0.9,1.5,1.5s0.6,1.4,0.6,2.2c0,0.8-0.2,1.6-0.6,2.2c-0.4,0.7-0.9,1.2-1.5,1.6
				c-0.7,0.4-1.4,0.6-2.2,0.6s-1.5-0.2-2.2-0.6s-1.2-0.9-1.5-1.6s-0.6-1.4-0.6-2.2c0-0.8,0.2-1.6,0.6-2.2s0.9-1.2,1.5-1.5
				c0.7-0.4,1.4-0.6,2.2-0.6S99.3,277.7,100,278.1z M96.2,280.1c-0.4,0.4-0.6,1-0.6,1.8c0,0.7,0.2,1.3,0.6,1.8
				c0.4,0.4,0.9,0.7,1.6,0.7s1.2-0.2,1.6-0.7c0.4-0.4,0.6-1,0.6-1.8c0-0.7-0.2-1.3-0.6-1.8c-0.4-0.4-0.9-0.7-1.6-0.7
				S96.6,279.6,96.2,280.1z"/>
			<path class="st6" d="M109.3,280.1c0.5,0.5,0.7,1.2,0.7,2.1v3.9h-2.1v-3.6c0-0.4-0.1-0.8-0.4-1c-0.2-0.3-0.6-0.4-0.9-0.4
				c-0.4,0-0.7,0.1-1,0.4c-0.2,0.3-0.4,0.6-0.4,1.1v3.6h-2.1v-6.7h2.1v1.2c0.2-0.4,0.5-0.7,0.9-0.9c0.4-0.2,0.8-0.3,1.3-0.3
				C108.2,279.4,108.8,279.6,109.3,280.1z"/>
			<path class="st6" d="M113.4,277.2v8.9h-2.1v-8.9H113.4z"/>
			<path class="st6" d="M114.9,276.8c0.2-0.2,0.5-0.3,0.9-0.3s0.7,0.1,0.9,0.3c0.2,0.2,0.3,0.5,0.3,0.8s-0.1,0.6-0.3,0.8
				s-0.5,0.3-0.9,0.3s-0.7-0.1-0.9-0.3c-0.2-0.2-0.3-0.5-0.3-0.8C114.6,277.2,114.7,277,114.9,276.8z M116.8,279.4v6.7h-2.1v-6.7
				H116.8z"/>
			<path class="st6" d="M124.3,280.1c0.5,0.5,0.7,1.2,0.7,2.1v3.9h-2.1v-3.6c0-0.4-0.1-0.8-0.4-1c-0.2-0.3-0.6-0.4-0.9-0.4
				c-0.4,0-0.7,0.1-1,0.4c-0.2,0.3-0.4,0.6-0.4,1.1v3.6h-2.1v-6.7h2.1v1.2c0.2-0.4,0.5-0.7,0.9-0.9c0.4-0.2,0.8-0.3,1.3-0.3
				C123.3,279.4,123.9,279.6,124.3,280.1z"/>
			<path class="st6" d="M132.7,283.2h-4.6c0,0.5,0.2,0.9,0.4,1.1s0.5,0.3,0.9,0.3c0.3,0,0.6-0.1,0.8-0.2c0.2-0.2,0.3-0.3,0.4-0.6
				h2.2c-0.1,0.5-0.3,0.9-0.6,1.3s-0.7,0.7-1.1,0.9c-0.5,0.2-1,0.3-1.5,0.3c-0.7,0-1.2-0.1-1.7-0.4s-0.9-0.7-1.2-1.2
				c-0.3-0.5-0.4-1.1-0.4-1.8c0-0.7,0.1-1.3,0.4-1.8s0.7-0.9,1.2-1.2c0.5-0.3,1.1-0.4,1.8-0.4s1.2,0.1,1.8,0.4
				c0.5,0.3,0.9,0.7,1.2,1.1c0.3,0.5,0.4,1.1,0.4,1.7C132.7,282.8,132.7,283,132.7,283.2z M130.3,281.3c-0.2-0.2-0.5-0.3-0.9-0.3
				s-0.7,0.1-0.9,0.3c-0.2,0.2-0.4,0.6-0.4,1h2.6C130.7,281.8,130.6,281.5,130.3,281.3z"/>
			<path class="st6" d="M140.6,286.1l-1.8-3.2h-0.5v3.2h-2.1v-8.5h3.5c0.7,0,1.2,0.1,1.7,0.3c0.5,0.2,0.8,0.5,1,1
				c0.2,0.4,0.3,0.9,0.3,1.4c0,0.6-0.2,1.1-0.5,1.6c-0.3,0.4-0.8,0.7-1.5,0.9l2,3.3L140.6,286.1L140.6,286.1z M138.3,281.5h1.3
				c0.4,0,0.7-0.1,0.9-0.3s0.3-0.4,0.3-0.8c0-0.3-0.1-0.6-0.3-0.8c-0.2-0.2-0.5-0.3-0.9-0.3h-1.3V281.5z"/>
			<path class="st6" d="M150.1,283.2h-4.6c0,0.5,0.2,0.9,0.4,1.1s0.5,0.3,0.9,0.3c0.3,0,0.6-0.1,0.8-0.2c0.2-0.2,0.3-0.3,0.4-0.6
				h2.2c-0.1,0.5-0.3,0.9-0.6,1.3s-0.7,0.7-1.1,0.9c-0.5,0.2-1,0.3-1.5,0.3c-0.7,0-1.2-0.1-1.7-0.4s-0.9-0.7-1.2-1.2
				s-0.4-1.1-0.4-1.8c0-0.7,0.1-1.3,0.4-1.8c0.3-0.5,0.7-0.9,1.2-1.2c0.5-0.3,1.1-0.4,1.8-0.4s1.2,0.1,1.8,0.4
				c0.5,0.3,0.9,0.7,1.2,1.1c0.3,0.5,0.4,1.1,0.4,1.7C150.2,282.8,150.2,283,150.1,283.2z M147.8,281.3c-0.2-0.2-0.5-0.3-0.9-0.3
				s-0.7,0.1-0.9,0.3c-0.2,0.2-0.4,0.6-0.4,1h2.6C148.1,281.8,148,281.5,147.8,281.3z"/>
			<path class="st6" d="M156.9,279.8c0.4,0.3,0.8,0.7,1,1.2c0.3,0.5,0.4,1.1,0.4,1.8c0,0.7-0.1,1.3-0.4,1.8c-0.3,0.5-0.6,0.9-1,1.2
				c-0.4,0.3-0.9,0.4-1.5,0.4c-0.5,0-1-0.1-1.3-0.3c-0.4-0.2-0.6-0.5-0.8-0.9v4.4h-2.1v-9.9h2.1v1.2c0.2-0.4,0.4-0.7,0.8-0.9
				c0.4-0.2,0.8-0.3,1.3-0.3C156,279.3,156.5,279.5,156.9,279.8z M153.7,281.6c-0.3,0.3-0.4,0.7-0.4,1.2s0.1,0.9,0.4,1.2
				s0.6,0.4,1.1,0.4c0.4,0,0.8-0.1,1.1-0.4s0.4-0.7,0.4-1.2s-0.1-0.9-0.4-1.2c-0.3-0.3-0.6-0.4-1.1-0.4
				C154.3,281.1,154,281.3,153.7,281.6z"/>
			<path class="st6" d="M166.1,279.4v6.7H164v-1.2c-0.2,0.4-0.5,0.7-0.9,0.9c-0.4,0.2-0.8,0.3-1.3,0.3c-0.8,0-1.4-0.3-1.8-0.8
				c-0.5-0.5-0.7-1.2-0.7-2.1v-3.9h2v3.6c0,0.5,0.1,0.8,0.4,1.1s0.6,0.4,1,0.4s0.7-0.1,1-0.4c0.2-0.3,0.4-0.6,0.4-1.1v-3.6h2
				L166.1,279.4L166.1,279.4z"/>
			<path class="st6" d="M171.3,284.4v1.8h-0.9c-0.8,0-1.4-0.2-1.8-0.6s-0.7-1-0.7-1.9v-2.5H167v-1.7h0.9v-1.6h2.1v1.6h1.3v1.7h-1.4
				v2.5c0,0.3,0.1,0.4,0.2,0.6s0.3,0.2,0.5,0.2h0.7V284.4z"/>
			<path class="st6" d="M176.3,279.7c0.4,0.2,0.6,0.5,0.8,0.9v-1.2h2v6.7h-2v-1.2c-0.2,0.4-0.4,0.7-0.8,0.9
				c-0.4,0.2-0.8,0.3-1.3,0.3c-0.6,0-1-0.1-1.5-0.4s-0.8-0.7-1-1.2c-0.3-0.5-0.4-1.1-0.4-1.8c0-0.7,0.1-1.3,0.4-1.8
				c0.3-0.5,0.6-0.9,1-1.2c0.4-0.3,0.9-0.4,1.5-0.4C175.5,279.3,175.9,279.5,176.3,279.7z M174.6,281.6c-0.3,0.3-0.4,0.7-0.4,1.2
				s0.1,0.9,0.4,1.2c0.3,0.3,0.6,0.4,1.1,0.4c0.4,0,0.8-0.1,1.1-0.4s0.4-0.7,0.4-1.2s-0.1-0.9-0.4-1.2s-0.6-0.4-1.1-0.4
				C175.2,281.1,174.8,281.3,174.6,281.6z"/>
			<path class="st6" d="M184.3,284.4v1.8h-0.9c-0.8,0-1.4-0.2-1.8-0.6s-0.7-1-0.7-1.9v-2.5H180v-1.7h0.9v-1.6h2.1v1.6h1.3v1.7H183
				v2.5c0,0.3,0.1,0.4,0.2,0.6s0.3,0.2,0.5,0.2h0.6V284.4z"/>
			<path class="st6" d="M185.6,276.8c0.2-0.2,0.5-0.3,0.9-0.3s0.7,0.1,0.9,0.3c0.2,0.2,0.3,0.5,0.3,0.8s-0.1,0.6-0.3,0.8
				s-0.5,0.3-0.9,0.3s-0.7-0.1-0.9-0.3c-0.2-0.2-0.3-0.5-0.3-0.8C185.3,277.2,185.4,277,185.6,276.8z M187.6,279.4v6.7h-2.1v-6.7
				H187.6z"/>
			<path class="st6" d="M193.9,279.8c0.5,0.3,0.9,0.7,1.2,1.2s0.5,1.1,0.5,1.8c0,0.7-0.1,1.3-0.5,1.8c-0.3,0.5-0.7,0.9-1.2,1.2
				s-1.1,0.4-1.8,0.4s-1.3-0.1-1.8-0.4s-0.9-0.7-1.2-1.2s-0.5-1.1-0.5-1.8c0-0.7,0.1-1.3,0.5-1.8c0.3-0.5,0.7-0.9,1.2-1.2
				c0.5-0.3,1.1-0.4,1.8-0.4S193.4,279.5,193.9,279.8z M191.1,281.5c-0.3,0.3-0.4,0.7-0.4,1.2s0.1,0.9,0.4,1.2s0.6,0.4,1,0.4
				s0.7-0.1,1-0.4s0.4-0.7,0.4-1.2s-0.1-0.9-0.4-1.2c-0.3-0.3-0.6-0.4-1-0.4S191.4,281.3,191.1,281.5z"/>
			<path class="st6" d="M202.7,280.1c0.5,0.5,0.7,1.2,0.7,2.1v3.9h-2.1v-3.6c0-0.4-0.1-0.8-0.4-1c-0.2-0.3-0.6-0.4-0.9-0.4
				c-0.4,0-0.7,0.1-1,0.4c-0.2,0.3-0.4,0.6-0.4,1.1v3.6h-2.1v-6.7h2.1v1.2c0.2-0.4,0.5-0.7,0.9-0.9c0.4-0.2,0.8-0.3,1.3-0.3
				C201.7,279.4,202.3,279.6,202.7,280.1z"/>
			<path class="st6" d="M91.1,303c-0.2,0.4-0.6,0.7-1,0.9c-0.4,0.2-1,0.3-1.6,0.3c-1,0-1.7-0.2-2.4-0.7c-0.6-0.5-1-1.1-1-1.9h2.2
				c0,0.3,0.1,0.6,0.3,0.8c0.2,0.2,0.4,0.3,0.8,0.3c0.3,0,0.5-0.1,0.6-0.2c0.2-0.1,0.2-0.3,0.2-0.6c0-0.2-0.1-0.4-0.2-0.5
				s-0.3-0.3-0.5-0.4s-0.5-0.2-0.9-0.3c-0.5-0.2-1-0.4-1.3-0.5c-0.3-0.2-0.6-0.4-0.9-0.8s-0.4-0.8-0.4-1.3s0.1-0.9,0.4-1.3
				s0.6-0.7,1.1-0.8c0.5-0.2,1-0.3,1.6-0.3c0.9,0,1.7,0.2,2.3,0.7c0.6,0.4,0.9,1.1,0.9,1.8h-2.2c0-0.3-0.1-0.5-0.3-0.7
				c-0.2-0.2-0.4-0.2-0.7-0.2c-0.2,0-0.4,0.1-0.6,0.2c-0.1,0.1-0.2,0.3-0.2,0.6c0,0.2,0.1,0.4,0.2,0.5s0.3,0.3,0.5,0.3
				c0.2,0.1,0.5,0.2,0.9,0.3c0.5,0.2,1,0.4,1.3,0.5c0.3,0.2,0.6,0.4,0.9,0.8c0.2,0.3,0.4,0.8,0.4,1.3
				C91.4,302.2,91.3,302.6,91.1,303z"/>
			<path class="st6" d="M97.8,298.1c0.6,0.5,1,1.1,1.1,2h-2.2c-0.1-0.3-0.2-0.5-0.4-0.7c-0.2-0.2-0.5-0.2-0.8-0.2
				c-0.4,0-0.7,0.1-0.9,0.4s-0.3,0.7-0.3,1.2s0.1,1,0.3,1.2c0.2,0.3,0.5,0.4,0.9,0.4c0.3,0,0.6-0.1,0.8-0.2c0.2-0.2,0.3-0.4,0.4-0.7
				h2.2c-0.2,0.8-0.5,1.5-1.1,2s-1.3,0.7-2.2,0.7c-0.7,0-1.2-0.1-1.7-0.4s-0.9-0.7-1.2-1.2c-0.3-0.5-0.4-1.1-0.4-1.8
				c0-0.7,0.1-1.3,0.4-1.8s0.7-0.9,1.2-1.2c0.5-0.3,1.1-0.4,1.8-0.4C96.5,297.3,97.2,297.6,97.8,298.1z"/>
			<path class="st6" d="M104.8,297.8c0.5,0.3,0.9,0.7,1.2,1.2c0.3,0.5,0.5,1.1,0.5,1.8c0,0.7-0.1,1.3-0.5,1.8
				c-0.3,0.5-0.7,0.9-1.2,1.2s-1.1,0.4-1.8,0.4s-1.3-0.1-1.8-0.4s-0.9-0.7-1.2-1.2c-0.3-0.5-0.5-1.1-0.5-1.8c0-0.7,0.1-1.3,0.5-1.8
				c0.3-0.5,0.7-0.9,1.2-1.2c0.5-0.3,1.1-0.4,1.8-0.4S104.3,297.5,104.8,297.8z M102.1,299.5c-0.3,0.3-0.4,0.7-0.4,1.2
				s0.1,0.9,0.4,1.2s0.6,0.4,1,0.4s0.7-0.1,1-0.4s0.4-0.7,0.4-1.2s-0.1-0.9-0.4-1.2c-0.3-0.3-0.6-0.4-1-0.4S102.3,299.3,102.1,299.5
				z"/>
			<path class="st6" d="M110.6,297.7c0.4-0.2,0.8-0.4,1.3-0.4v2.2h-0.6c-0.5,0-1,0.1-1.3,0.3c-0.3,0.2-0.5,0.6-0.5,1.2v3h-2.1v-6.7
				h2.1v1.3C109.9,298.3,110.2,298,110.6,297.7z"/>
			<path class="st6" d="M119.1,301.2h-4.6c0,0.5,0.2,0.9,0.4,1.1c0.2,0.2,0.5,0.3,0.9,0.3c0.3,0,0.6-0.1,0.8-0.2
				c0.2-0.2,0.3-0.3,0.4-0.6h2.2c-0.1,0.5-0.3,0.9-0.6,1.3s-0.7,0.7-1.1,0.9c-0.5,0.2-1,0.3-1.5,0.3c-0.7,0-1.2-0.1-1.7-0.4
				s-0.9-0.7-1.2-1.2c-0.3-0.5-0.4-1.1-0.4-1.8c0-0.7,0.1-1.3,0.4-1.8s0.7-0.9,1.2-1.2c0.5-0.3,1.1-0.4,1.8-0.4
				c0.7,0,1.2,0.1,1.8,0.4c0.5,0.3,0.9,0.7,1.2,1.1c0.3,0.5,0.4,1.1,0.4,1.7C119.2,300.8,119.2,301,119.1,301.2z M116.8,299.3
				c-0.2-0.2-0.5-0.3-0.9-0.3s-0.7,0.1-0.9,0.3c-0.2,0.2-0.4,0.6-0.4,1h2.6C117.1,299.8,117,299.5,116.8,299.3z"/>
			<path class="st6" d="M123.1,295.2c0.6-1.2,1.4-2.2,2.4-3h2v0.2c-1.1,0.9-1.9,1.9-2.5,3.1s-0.8,2.4-0.8,3.8c0,2.8,1.1,5.1,3.3,6.9
				v0.2h-2c-1-0.8-1.8-1.7-2.4-3c-0.6-1.2-0.9-2.6-0.9-4.1C122.3,297.8,122.6,296.4,123.1,295.2z"/>
			<path class="st6" d="M133.3,303c-0.2,0.4-0.6,0.7-1,0.9c-0.4,0.2-1,0.3-1.6,0.3c-1,0-1.7-0.2-2.4-0.7c-0.6-0.5-1-1.1-1-1.9h2.2
				c0,0.3,0.1,0.6,0.3,0.8c0.2,0.2,0.4,0.3,0.8,0.3c0.3,0,0.5-0.1,0.6-0.2c0.2-0.1,0.2-0.3,0.2-0.6c0-0.2-0.1-0.4-0.2-0.5
				c-0.1-0.1-0.3-0.3-0.5-0.4s-0.5-0.2-0.9-0.3c-0.5-0.2-1-0.4-1.3-0.5c-0.3-0.2-0.6-0.4-0.9-0.8s-0.4-0.8-0.4-1.3s0.1-0.9,0.4-1.3
				s0.6-0.7,1.1-0.8c0.5-0.2,1-0.3,1.6-0.3c0.9,0,1.7,0.2,2.3,0.7c0.6,0.4,0.9,1.1,0.9,1.8h-2.2c0-0.3-0.1-0.5-0.3-0.7
				s-0.4-0.2-0.7-0.2c-0.2,0-0.4,0.1-0.6,0.2c-0.1,0.1-0.2,0.3-0.2,0.6c0,0.2,0.1,0.4,0.2,0.5c0.1,0.1,0.3,0.3,0.5,0.3
				c0.2,0.1,0.5,0.2,0.9,0.3c0.5,0.2,1,0.4,1.3,0.5c0.3,0.2,0.6,0.4,0.9,0.8c0.2,0.3,0.4,0.8,0.4,1.3
				C133.7,302.2,133.6,302.6,133.3,303z"/>
			<path class="st6" d="M140,298.1c0.6,0.5,1,1.1,1.1,2h-2.2c-0.1-0.3-0.2-0.5-0.4-0.7s-0.5-0.2-0.8-0.2c-0.4,0-0.7,0.1-0.9,0.4
				s-0.3,0.7-0.3,1.2s0.1,1,0.3,1.2c0.2,0.3,0.5,0.4,0.9,0.4c0.3,0,0.6-0.1,0.8-0.2c0.2-0.2,0.3-0.4,0.4-0.7h2.2
				c-0.2,0.8-0.5,1.5-1.1,2s-1.3,0.7-2.2,0.7c-0.7,0-1.2-0.1-1.7-0.4s-0.9-0.7-1.2-1.2s-0.4-1.1-0.4-1.8c0-0.7,0.1-1.3,0.4-1.8
				s0.7-0.9,1.2-1.2c0.5-0.3,1.1-0.4,1.8-0.4C138.7,297.3,139.4,297.6,140,298.1z"/>
			<path class="st6" d="M147.1,297.8c0.5,0.3,0.9,0.7,1.2,1.2s0.5,1.1,0.5,1.8c0,0.7-0.1,1.3-0.5,1.8c-0.3,0.5-0.7,0.9-1.2,1.2
				s-1.1,0.4-1.8,0.4s-1.3-0.1-1.8-0.4s-0.9-0.7-1.2-1.2s-0.5-1.1-0.5-1.8c0-0.7,0.1-1.3,0.5-1.8c0.3-0.5,0.7-0.9,1.2-1.2
				c0.5-0.3,1.1-0.4,1.8-0.4S146.6,297.5,147.1,297.8z M144.3,299.5c-0.3,0.3-0.4,0.7-0.4,1.2s0.1,0.9,0.4,1.2s0.6,0.4,1,0.4
				s0.7-0.1,1-0.4s0.4-0.7,0.4-1.2s-0.1-0.9-0.4-1.2c-0.3-0.3-0.6-0.4-1-0.4S144.6,299.3,144.3,299.5z"/>
			<path class="st6" d="M152.9,297.7c0.4-0.2,0.8-0.4,1.3-0.4v2.2h-0.6c-0.5,0-1,0.1-1.3,0.3c-0.3,0.2-0.5,0.6-0.5,1.2v3h-1.9v-6.7
				h2.1v1.3C152.2,298.3,152.5,298,152.9,297.7z"/>
			<path class="st6" d="M161.4,301.2h-4.6c0,0.5,0.2,0.9,0.4,1.1s0.5,0.3,0.9,0.3c0.3,0,0.6-0.1,0.8-0.2c0.2-0.2,0.3-0.3,0.4-0.6
				h2.2c-0.1,0.5-0.3,0.9-0.6,1.3s-0.7,0.7-1.1,0.9c-0.5,0.2-1,0.3-1.5,0.3c-0.7,0-1.2-0.1-1.7-0.4s-0.9-0.7-1.2-1.2
				s-0.4-1.1-0.4-1.8c0-0.7,0.1-1.3,0.4-1.8c0.3-0.5,0.7-0.9,1.2-1.2c0.5-0.3,1.1-0.4,1.8-0.4s1.2,0.1,1.8,0.4
				c0.5,0.3,0.9,0.7,1.2,1.1c0.3,0.5,0.4,1.1,0.4,1.7C161.4,300.8,161.4,301,161.4,301.2z M159,299.3c-0.2-0.2-0.5-0.3-0.9-0.3
				s-0.7,0.1-0.9,0.3c-0.2,0.2-0.4,0.6-0.4,1h2.6C159.4,299.8,159.2,299.5,159,299.3z"/>
			<path class="st6" d="M169.6,302.1c-0.4,0.6-0.9,1.1-1.5,1.5s-1.5,0.5-2.4,0.5h-3.2v-8.5h3.2c0.9,0,1.7,0.2,2.4,0.5
				c0.7,0.4,1.2,0.8,1.5,1.5c0.4,0.6,0.5,1.4,0.5,2.2S170,301.4,169.6,302.1z M167.4,301.7c0.4-0.4,0.7-1,0.7-1.8s-0.2-1.4-0.7-1.8
				c-0.4-0.4-1.1-0.6-1.9-0.6h-1v4.8h1C166.3,302.3,166.9,302.1,167.4,301.7z"/>
			<path class="st6" d="M176.2,297.8c0.5,0.3,0.9,0.7,1.2,1.2s0.5,1.1,0.5,1.8c0,0.7-0.1,1.3-0.5,1.8c-0.3,0.5-0.7,0.9-1.2,1.2
				s-1.1,0.4-1.8,0.4s-1.3-0.1-1.8-0.4s-0.9-0.7-1.2-1.2s-0.5-1.1-0.5-1.8c0-0.7,0.1-1.3,0.5-1.8c0.3-0.5,0.7-0.9,1.2-1.2
				c0.5-0.3,1.1-0.4,1.8-0.4S175.7,297.5,176.2,297.8z M173.4,299.5c-0.3,0.3-0.4,0.7-0.4,1.2s0.1,0.9,0.4,1.2s0.6,0.4,1,0.4
				s0.7-0.1,1-0.4s0.4-0.7,0.4-1.2s-0.1-0.9-0.4-1.2c-0.3-0.3-0.6-0.4-1-0.4S173.7,299.3,173.4,299.5z"/>
			<path class="st6" d="M184.2,298.1c0.6,0.5,1,1.1,1.1,2h-2.2c-0.1-0.3-0.2-0.5-0.4-0.7s-0.5-0.2-0.8-0.2c-0.4,0-0.7,0.1-0.9,0.4
				s-0.3,0.7-0.3,1.2s0.1,1,0.3,1.2c0.2,0.3,0.5,0.4,0.9,0.4c0.3,0,0.6-0.1,0.8-0.2c0.2-0.2,0.3-0.4,0.4-0.7h2.2
				c-0.2,0.8-0.5,1.5-1.1,2s-1.3,0.7-2.2,0.7c-0.7,0-1.2-0.1-1.7-0.4s-0.9-0.7-1.2-1.2s-0.4-1.1-0.4-1.8c0-0.7,0.1-1.3,0.4-1.8
				c0.3-0.5,0.7-0.9,1.2-1.2c0.5-0.3,1.1-0.4,1.8-0.4C182.9,297.3,183.6,297.6,184.2,298.1z"/>
			<path class="st6" d="M189.4,303.4c-0.6,1.2-1.4,2.2-2.4,3h-2v-0.2c2.2-1.8,3.3-4.1,3.3-6.9c0-1.4-0.3-2.7-0.8-3.8
				s-1.4-2.2-2.5-3.1v-0.2h2c1,0.8,1.8,1.7,2.4,3c0.6,1.2,0.9,2.6,0.9,4.1C190.3,300.8,190,302.2,189.4,303.4z"/>
			<path class="st6" d="M199.2,295.6v1.6h-3.5v1.9h2.7v1.6h-2.7v3.4h-2.1v-8.5H199.2z"/>
			<path class="st6" d="M205.2,297.8c0.5,0.3,0.9,0.7,1.2,1.2s0.5,1.1,0.5,1.8c0,0.7-0.1,1.3-0.5,1.8c-0.3,0.5-0.7,0.9-1.2,1.2
				s-1.1,0.4-1.8,0.4s-1.3-0.1-1.8-0.4s-0.9-0.7-1.2-1.2s-0.5-1.1-0.5-1.8c0-0.7,0.1-1.3,0.5-1.8c0.3-0.5,0.7-0.9,1.2-1.2
				c0.5-0.3,1.1-0.4,1.8-0.4S204.7,297.5,205.2,297.8z M202.4,299.5c-0.3,0.3-0.4,0.7-0.4,1.2s0.1,0.9,0.4,1.2s0.6,0.4,1,0.4
				s0.7-0.1,1-0.4s0.4-0.7,0.4-1.2s-0.1-0.9-0.4-1.2c-0.3-0.3-0.6-0.4-1-0.4S202.7,299.3,202.4,299.5z"/>
			<path class="st6" d="M211,297.7c0.4-0.2,0.8-0.4,1.3-0.4v2.2h-0.6c-0.5,0-1,0.1-1.3,0.3c-0.3,0.2-0.5,0.6-0.5,1.2v3h-2v-6.7h2.1
				v1.3C210.3,298.3,210.6,298,211,297.7z"/>
			<path class="st6" d="M51.7,320.1c-0.4,0.6-0.9,1.1-1.5,1.5s-1.5,0.5-2.4,0.5h-3.2v-8.5h3.2c0.9,0,1.7,0.2,2.4,0.5
				c0.7,0.4,1.2,0.8,1.5,1.5c0.4,0.6,0.5,1.4,0.5,2.2S52.1,319.4,51.7,320.1z M49.5,319.7c0.4-0.4,0.7-1,0.7-1.8s-0.2-1.4-0.7-1.8
				c-0.4-0.4-1.1-0.6-1.9-0.6h-1v4.8h1C48.5,320.3,49.1,320.1,49.5,319.7z"/>
			<path class="st6" d="M56.5,315.7c0.4-0.2,0.8-0.4,1.3-0.4v2.2h-0.6c-0.5,0-1,0.1-1.3,0.3c-0.3,0.2-0.5,0.6-0.5,1.2v3h-2.1v-6.7
				h2.1v1.3C55.7,316.3,56.1,316,56.5,315.7z"/>
			<path class="st6" d="M60.4,320.1v2.1h-2.1v-2.1H60.4z"/>
			<path class="st6" d="M69.1,313.6v5.8c0,0.9-0.2,1.6-0.7,2.1s-1.2,0.7-2,0.7c-0.9,0-1.7-0.3-2.2-0.8s-0.8-1.3-0.8-2.3h2
				c0,0.8,0.3,1.2,0.9,1.2c0.5,0,0.8-0.3,0.8-0.9v-5.8L69.1,313.6L69.1,313.6z"/>
			<path class="st6" d="M74.3,315.7c0.4,0.2,0.6,0.5,0.8,0.9v-1.2h2v6.7h-2v-1.2c-0.2,0.4-0.4,0.7-0.8,0.9c-0.4,0.2-0.8,0.3-1.3,0.3
				c-0.6,0-1-0.1-1.5-0.4s-0.8-0.7-1-1.2c-0.3-0.5-0.4-1.1-0.4-1.8c0-0.7,0.1-1.3,0.4-1.8s0.6-0.9,1-1.2c0.4-0.3,0.9-0.4,1.5-0.4
				C73.5,315.3,74,315.5,74.3,315.7z M72.6,317.6c-0.3,0.3-0.4,0.7-0.4,1.2s0.1,0.9,0.4,1.2c0.3,0.3,0.6,0.4,1.1,0.4
				c0.4,0,0.8-0.1,1.1-0.4s0.4-0.7,0.4-1.2s-0.1-0.9-0.4-1.2s-0.6-0.4-1.1-0.4C73.2,317.1,72.9,317.3,72.6,317.6z"/>
			<path class="st6" d="M89.2,316.1c0.5,0.5,0.7,1.2,0.7,2.1v3.9h-2v-3.6c0-0.4-0.1-0.8-0.3-1c-0.2-0.2-0.5-0.4-0.9-0.4
				s-0.7,0.1-1,0.4s-0.4,0.6-0.4,1.1v3.6h-2.1v-3.6c0-0.4-0.1-0.8-0.3-1c-0.2-0.2-0.5-0.4-0.9-0.4s-0.7,0.1-1,0.4
				c-0.2,0.2-0.4,0.6-0.4,1.1v3.6h-2.1v-6.7h2.1v1.1c0.2-0.4,0.4-0.7,0.8-0.9c0.4-0.2,0.8-0.3,1.3-0.3s1,0.1,1.4,0.4
				c0.4,0.2,0.7,0.6,0.9,1c0.2-0.4,0.6-0.7,1-1c0.4-0.2,0.9-0.4,1.3-0.4C88.1,315.4,88.8,315.6,89.2,316.1z"/>
			<path class="st6" d="M97.6,319.2H93c0,0.5,0.2,0.9,0.4,1.1c0.2,0.2,0.5,0.3,0.9,0.3c0.3,0,0.6-0.1,0.8-0.2
				c0.2-0.2,0.3-0.3,0.4-0.6h2.2c-0.1,0.5-0.3,0.9-0.6,1.3s-0.7,0.7-1.1,0.9c-0.5,0.2-1,0.3-1.5,0.3c-0.7,0-1.2-0.1-1.7-0.4
				s-0.9-0.7-1.2-1.2c-0.3-0.5-0.4-1.1-0.4-1.8c0-0.7,0.1-1.3,0.4-1.8s0.7-0.9,1.2-1.2c0.5-0.3,1.1-0.4,1.8-0.4
				c0.7,0,1.2,0.1,1.8,0.4c0.5,0.3,0.9,0.7,1.2,1.1c0.3,0.5,0.4,1.1,0.4,1.7C97.7,318.8,97.7,319,97.6,319.2z M95.2,317.3
				c-0.2-0.2-0.5-0.3-0.9-0.3s-0.7,0.1-0.9,0.3c-0.2,0.2-0.4,0.6-0.4,1h2.6C95.6,317.8,95.5,317.5,95.2,317.3z"/>
			<path class="st6" d="M103.2,316c0.5,0.4,0.8,1,1,1.7h-1.9c-0.1-0.3-0.2-0.5-0.4-0.6c-0.2-0.2-0.4-0.2-0.7-0.2
				c-0.2,0-0.4,0-0.5,0.1s-0.2,0.2-0.2,0.4c0,0.2,0.1,0.4,0.3,0.5c0.2,0.1,0.6,0.2,1,0.3c0.5,0.1,0.9,0.2,1.3,0.4
				c0.3,0.1,0.6,0.3,0.9,0.6c0.2,0.3,0.4,0.7,0.4,1.1s-0.1,0.7-0.3,1s-0.5,0.5-0.9,0.7s-0.9,0.3-1.4,0.3c-0.9,0-1.6-0.2-2.2-0.6
				c-0.5-0.4-0.9-1-1-1.7h2c0,0.3,0.2,0.5,0.4,0.7c0.2,0.2,0.5,0.2,0.8,0.2c0.2,0,0.4-0.1,0.5-0.2s0.2-0.3,0.2-0.4
				c0-0.2-0.1-0.4-0.3-0.5c-0.2-0.1-0.6-0.2-1.1-0.3c-0.5-0.1-0.9-0.2-1.2-0.3c-0.3-0.1-0.6-0.3-0.8-0.6c-0.2-0.3-0.3-0.6-0.3-1.1
				c0-0.6,0.2-1.1,0.7-1.5s1.1-0.6,1.9-0.6C102,315.3,102.7,315.6,103.2,316z"/>
			<path class="st6" d="M113.3,313.6v1.6h-3.4v1.9h2.7v1.6h-2.7v3.4h-2.1v-8.5H113.3z"/>
			<path class="st6" d="M117.4,315.7c0.4-0.2,0.8-0.4,1.3-0.4v2.2h-0.6c-0.5,0-1,0.1-1.3,0.3c-0.3,0.2-0.5,0.6-0.5,1.2v3h-2.1v-6.7
				h2.1v1.3C116.7,316.3,117,316,117.4,315.7z"/>
			<path class="st6" d="M123.5,315.7c0.4,0.2,0.6,0.5,0.8,0.9v-1.2h2v6.7h-2v-1.2c-0.2,0.4-0.4,0.7-0.8,0.9
				c-0.4,0.2-0.8,0.3-1.3,0.3c-0.6,0-1-0.1-1.5-0.4s-0.8-0.7-1-1.2c-0.3-0.5-0.4-1.1-0.4-1.8c0-0.7,0.1-1.3,0.4-1.8s0.6-0.9,1-1.2
				c0.4-0.3,0.9-0.4,1.5-0.4C122.7,315.3,123.1,315.5,123.5,315.7z M121.8,317.6c-0.3,0.3-0.4,0.7-0.4,1.2s0.1,0.9,0.4,1.2
				c0.3,0.3,0.6,0.4,1.1,0.4c0.4,0,0.8-0.1,1.1-0.4s0.4-0.7,0.4-1.2s-0.1-0.9-0.4-1.2s-0.6-0.4-1.1-0.4
				C122.4,317.1,122,317.3,121.8,317.6z"/>
			<path class="st6" d="M133.8,316.1c0.5,0.5,0.7,1.2,0.7,2.1v3.9h-2.1v-3.6c0-0.4-0.1-0.8-0.4-1c-0.2-0.3-0.6-0.4-0.9-0.4
				c-0.4,0-0.7,0.1-1,0.4c-0.2,0.3-0.4,0.6-0.4,1.1v3.6h-2.1v-6.7h2.1v1.2c0.2-0.4,0.5-0.7,0.9-0.9c0.4-0.2,0.8-0.3,1.3-0.3
				C132.8,315.4,133.4,315.6,133.8,316.1z"/>
			<path class="st6" d="M139.9,322.1l-2-2.8v2.8h-2v-8.9h2.1v4.9l2-2.7h2.4l-2.7,3.3l2.8,3.3h-2.6V322.1z"/>
			<path class="st6" d="M145.7,312.8c0.2-0.2,0.5-0.3,0.9-0.3s0.7,0.1,0.9,0.3c0.2,0.2,0.3,0.5,0.3,0.8s-0.1,0.6-0.3,0.8
				s-0.5,0.3-0.9,0.3s-0.7-0.1-0.9-0.3c-0.2-0.2-0.3-0.5-0.3-0.8C145.3,313.2,145.4,313,145.7,312.8z M147.6,315.4v6.7h-2.1v-6.7
				H147.6z"/>
			<path class="st6" d="M153.5,316c0.5,0.4,0.8,1,1,1.7h-1.9c-0.1-0.3-0.2-0.5-0.4-0.6c-0.2-0.2-0.4-0.2-0.7-0.2
				c-0.2,0-0.4,0-0.5,0.1s-0.2,0.2-0.2,0.4c0,0.2,0.1,0.4,0.3,0.5s0.6,0.2,1,0.3c0.5,0.1,0.9,0.2,1.3,0.4c0.3,0.1,0.6,0.3,0.9,0.6
				c0.2,0.3,0.4,0.7,0.4,1.1s-0.1,0.7-0.3,1s-0.5,0.5-0.9,0.7s-0.9,0.3-1.4,0.3c-0.9,0-1.6-0.2-2.2-0.6c-0.5-0.4-0.9-1-1-1.7h2
				c0,0.3,0.2,0.5,0.4,0.7s0.5,0.2,0.8,0.2c0.2,0,0.4-0.1,0.5-0.2s0.2-0.3,0.2-0.4c0-0.2-0.1-0.4-0.3-0.5s-0.6-0.2-1.1-0.3
				c-0.5-0.1-0.9-0.2-1.2-0.3c-0.3-0.1-0.6-0.3-0.8-0.6c-0.2-0.3-0.3-0.6-0.3-1.1c0-0.6,0.2-1.1,0.7-1.5s1.1-0.6,1.9-0.6
				C152.3,315.3,153,315.6,153.5,316z"/>
			<path class="st6" d="M163.7,315.8c0.4,0.3,0.8,0.7,1,1.2c0.3,0.5,0.4,1.1,0.4,1.8c0,0.7-0.1,1.3-0.4,1.8c-0.3,0.5-0.6,0.9-1,1.2
				c-0.4,0.3-0.9,0.4-1.5,0.4c-0.5,0-1-0.1-1.3-0.3c-0.4-0.2-0.6-0.5-0.8-0.9v1.2H158v-8.9h2.1v3.4c0.2-0.4,0.4-0.7,0.8-0.9
				c0.4-0.2,0.8-0.3,1.3-0.3C162.8,315.3,163.3,315.5,163.7,315.8z M160.5,317.6c-0.3,0.3-0.4,0.7-0.4,1.2s0.1,0.9,0.4,1.2
				s0.6,0.4,1.1,0.4c0.4,0,0.8-0.1,1.1-0.4s0.4-0.7,0.4-1.2s-0.1-0.9-0.4-1.2c-0.3-0.3-0.6-0.4-1.1-0.4
				C161.1,317.1,160.8,317.3,160.5,317.6z"/>
			<path class="st6" d="M170.1,315.7c0.4,0.2,0.6,0.5,0.8,0.9v-1.2h2v6.7h-2v-1.2c-0.2,0.4-0.4,0.7-0.8,0.9
				c-0.4,0.2-0.8,0.3-1.3,0.3c-0.6,0-1-0.1-1.5-0.4s-0.8-0.7-1-1.2c-0.3-0.5-0.4-1.1-0.4-1.8c0-0.7,0.1-1.3,0.4-1.8
				c0.3-0.5,0.6-0.9,1-1.2c0.4-0.3,0.9-0.4,1.5-0.4C169.2,315.3,169.7,315.5,170.1,315.7z M168.3,317.6c-0.3,0.3-0.4,0.7-0.4,1.2
				s0.1,0.9,0.4,1.2c0.3,0.3,0.6,0.4,1.1,0.4c0.4,0,0.8-0.1,1.1-0.4s0.4-0.7,0.4-1.2s-0.1-0.9-0.4-1.2s-0.6-0.4-1.1-0.4
				C169,317.1,168.6,317.3,168.3,317.6z"/>
			<path class="st6" d="M178.8,316c0.5,0.4,0.8,1,1,1.7h-1.9c-0.1-0.3-0.2-0.5-0.4-0.6c-0.2-0.2-0.4-0.2-0.7-0.2
				c-0.2,0-0.4,0-0.5,0.1s-0.2,0.2-0.2,0.4c0,0.2,0.1,0.4,0.3,0.5s0.6,0.2,1,0.3c0.5,0.1,0.9,0.2,1.3,0.4c0.3,0.1,0.6,0.3,0.9,0.6
				c0.2,0.3,0.4,0.7,0.4,1.1s-0.1,0.7-0.3,1s-0.5,0.5-0.9,0.7s-0.9,0.3-1.4,0.3c-0.9,0-1.6-0.2-2.2-0.6c-0.5-0.4-0.9-1-1-1.7h2
				c0,0.3,0.2,0.5,0.4,0.7s0.5,0.2,0.8,0.2c0.2,0,0.4-0.1,0.5-0.2s0.2-0.3,0.2-0.4c0-0.2-0.1-0.4-0.3-0.5s-0.6-0.2-1.1-0.3
				c-0.5-0.1-0.9-0.2-1.2-0.3c-0.3-0.1-0.6-0.3-0.8-0.6c-0.2-0.3-0.3-0.6-0.3-1.1c0-0.6,0.2-1.1,0.7-1.5s1.1-0.6,1.9-0.6
				C177.6,315.3,178.3,315.6,178.8,316z"/>
			<path class="st6" d="M187.3,319.2h-4.6c0,0.5,0.2,0.9,0.4,1.1s0.5,0.3,0.9,0.3c0.3,0,0.6-0.1,0.8-0.2c0.2-0.2,0.3-0.3,0.4-0.6
				h2.2c-0.1,0.5-0.3,0.9-0.6,1.3s-0.7,0.7-1.1,0.9c-0.5,0.2-1,0.3-1.5,0.3c-0.7,0-1.2-0.1-1.7-0.4s-0.9-0.7-1.2-1.2
				s-0.4-1.1-0.4-1.8c0-0.7,0.1-1.3,0.4-1.8c0.3-0.5,0.7-0.9,1.2-1.2c0.5-0.3,1.1-0.4,1.8-0.4s1.2,0.1,1.8,0.4
				c0.5,0.3,0.9,0.7,1.2,1.1c0.3,0.5,0.4,1.1,0.4,1.7C187.3,318.8,187.3,319,187.3,319.2z M184.9,317.3c-0.2-0.2-0.5-0.3-0.9-0.3
				s-0.7,0.1-0.9,0.3c-0.2,0.2-0.4,0.6-0.4,1h2.6C185.3,317.8,185.2,317.5,184.9,317.3z"/>
			<path class="st6" d="M192.3,315.7c0.4,0.2,0.6,0.5,0.8,0.9v-3.4h2.1v8.9h-2.1v-1.2c-0.2,0.4-0.4,0.7-0.8,0.9
				c-0.4,0.2-0.8,0.3-1.3,0.3c-0.6,0-1-0.1-1.5-0.4s-0.8-0.7-1-1.2c-0.3-0.5-0.4-1.1-0.4-1.8c0-0.7,0.1-1.3,0.4-1.8
				c0.3-0.5,0.6-0.9,1-1.2c0.4-0.3,0.9-0.4,1.5-0.4C191.5,315.3,191.9,315.5,192.3,315.7z M190.6,317.6c-0.3,0.3-0.4,0.7-0.4,1.2
				s0.1,0.9,0.4,1.2c0.3,0.3,0.6,0.4,1.1,0.4c0.4,0,0.8-0.1,1.1-0.4s0.4-0.7,0.4-1.2s-0.1-0.9-0.4-1.2s-0.6-0.4-1.1-0.4
				C191.2,317.1,190.8,317.3,190.6,317.6z"/>
			<path class="st6" d="M203.9,315.8c0.5,0.3,0.9,0.7,1.2,1.2s0.5,1.1,0.5,1.8c0,0.7-0.1,1.3-0.5,1.8c-0.3,0.5-0.7,0.9-1.2,1.2
				s-1.1,0.4-1.8,0.4s-1.3-0.1-1.8-0.4s-0.9-0.7-1.2-1.2s-0.5-1.1-0.5-1.8c0-0.7,0.1-1.3,0.5-1.8c0.3-0.5,0.7-0.9,1.2-1.2
				c0.5-0.3,1.1-0.4,1.8-0.4S203.3,315.5,203.9,315.8z M201.1,317.5c-0.3,0.3-0.4,0.7-0.4,1.2s0.1,0.9,0.4,1.2s0.6,0.4,1,0.4
				s0.7-0.1,1-0.4s0.4-0.7,0.4-1.2s-0.1-0.9-0.4-1.2c-0.3-0.3-0.6-0.4-1-0.4S201.4,317.3,201.1,317.5z"/>
			<path class="st6" d="M213.3,315.4v6.7h-2.1v-1.2c-0.2,0.4-0.5,0.7-0.9,0.9c-0.4,0.2-0.8,0.3-1.3,0.3c-0.8,0-1.4-0.3-1.8-0.8
				c-0.5-0.5-0.7-1.2-0.7-2.1v-3.9h2v3.6c0,0.5,0.1,0.8,0.4,1.1s0.6,0.4,1,0.4s0.7-0.1,1-0.4c0.2-0.3,0.4-0.6,0.4-1.1v-3.6h2
				L213.3,315.4L213.3,315.4z"/>
			<path class="st6" d="M218.5,320.4v1.8h-0.9c-0.8,0-1.4-0.2-1.8-0.6s-0.7-1-0.7-1.9v-2.5h-0.9v-1.7h0.9v-1.6h2.1v1.6h1.3v1.7h-1.3
				v2.5c0,0.3,0.1,0.4,0.2,0.6s0.3,0.2,0.5,0.2h0.6L218.5,320.4L218.5,320.4z"/>
			<path class="st6" d="M227,315.8c0.5,0.3,0.9,0.7,1.2,1.2s0.5,1.1,0.5,1.8c0,0.7-0.1,1.3-0.5,1.8c-0.3,0.5-0.7,0.9-1.2,1.2
				s-1.1,0.4-1.8,0.4s-1.3-0.1-1.8-0.4s-0.9-0.7-1.2-1.2s-0.5-1.1-0.5-1.8c0-0.7,0.1-1.3,0.5-1.8c0.3-0.5,0.7-0.9,1.2-1.2
				c0.5-0.3,1.1-0.4,1.8-0.4S226.4,315.5,227,315.8z M224.2,317.5c-0.3,0.3-0.4,0.7-0.4,1.2s0.1,0.9,0.4,1.2s0.6,0.4,1,0.4
				s0.7-0.1,1-0.4s0.4-0.7,0.4-1.2s-0.1-0.9-0.4-1.2c-0.3-0.3-0.6-0.4-1-0.4S224.4,317.3,224.2,317.5z"/>
			<path class="st6" d="M233,314.5c-0.3,0-0.6,0.1-0.7,0.2c-0.2,0.1-0.2,0.4-0.3,0.7h1.2v1.7H232v5h-2.1v-5h-0.8v-1.7h0.8v-0.1
				c0-0.8,0.2-1.5,0.7-1.9c0.5-0.5,1.2-0.7,2.1-0.7c0.2,0,0.3,0,0.4,0L233,314.5L233,314.5z"/>
			<path class="st6" d="M235.9,315.6v-2h3.4v8.5h-2.2v-6.5H235.9z"/>
			<path class="st6" d="M240.6,317.8c0-1.3,0.3-2.4,0.8-3.1c0.5-0.8,1.4-1.2,2.6-1.2c1.2,0,2,0.4,2.6,1.2c0.5,0.8,0.8,1.8,0.8,3.1
				c0,1.3-0.3,2.4-0.8,3.2c-0.5,0.8-1.4,1.2-2.6,1.2c-1.2,0-2-0.4-2.6-1.2C240.9,320.2,240.6,319.1,240.6,317.8z M245.3,317.8
				c0-0.8-0.1-1.3-0.3-1.7c-0.2-0.4-0.5-0.6-1.1-0.6c-0.5,0-0.9,0.2-1.1,0.6s-0.3,1-0.3,1.7c0,0.8,0.1,1.3,0.3,1.8s0.5,0.6,1.1,0.6
				c0.5,0,0.9-0.2,1.1-0.6S245.3,318.6,245.3,317.8z"/>
			<path class="st6" d="M248.3,317.8c0-1.3,0.3-2.4,0.8-3.1c0.5-0.8,1.4-1.2,2.6-1.2c1.2,0,2,0.4,2.6,1.2c0.5,0.8,0.8,1.8,0.8,3.1
				c0,1.3-0.3,2.4-0.8,3.2c-0.5,0.8-1.4,1.2-2.6,1.2c-1.2,0-2-0.4-2.6-1.2C248.6,320.2,248.3,319.1,248.3,317.8z M253,317.8
				c0-0.8-0.1-1.3-0.3-1.7c-0.2-0.4-0.5-0.6-1.1-0.6c-0.5,0-0.9,0.2-1.1,0.6s-0.3,1-0.3,1.7c0,0.8,0.1,1.3,0.3,1.8s0.5,0.6,1.1,0.6
				c0.5,0,0.9-0.2,1.1-0.6C252.9,319.1,253,318.6,253,317.8z"/>
		</g>
		<g>
			<g>
				<g>
					<path class="st7" d="M135.4,53.6l4.9,25.6c1.5-0.2,3.1-0.3,4.7-0.4v-26C141.8,52.8,138.6,53.1,135.4,53.6z"/>
				</g>
			</g>
			<g>
				<g>
					<path class="st8" d="M154.5,52.7v26c39.1,2.5,70,34.9,70,74.6c0,41.3-33.5,74.7-74.7,74.7c-41.3,0-74.7-33.5-74.7-74.7
						c0-34.8,23.8-64,56-72.4l-4.9-25.5C81.9,66,49,105.8,49,153.3C49,208.9,94.1,254,149.7,254s100.7-45.1,100.7-100.7
						C250.5,99.2,207.9,55.1,154.5,52.7z"/>
				</g>
			</g>
		</g>
		<g>
			<path class="st8" d="M128.6,163.1c0.9,1.1,2.3,1.6,4.1,1.6c2.8,0,5-1.2,6.7-3.7c1.7-2.4,2.9-6.3,3.7-11.6c-1,1.9-2.5,3.5-4.5,4.6
				s-4.3,1.7-6.8,1.7c-3.5,0-6.2-0.9-8.1-2.8c-1.9-1.9-2.9-4.5-2.9-8c0-1.2,0.1-2.5,0.4-3.8c0.5-2.7,1.4-5.1,2.9-7.2
				c1.5-2.1,3.4-3.8,5.8-5c2.4-1.2,5.1-1.8,8.2-1.8c4.9,0,8.4,1.2,10.5,3.6c2.1,2.4,3.1,5.8,3.1,10.2c0,2.3-0.3,5.1-0.9,8.5
				c-0.8,4.8-2,8.9-3.4,12.1c-1.4,3.2-3.4,5.7-5.9,7.4s-5.7,2.6-9.5,2.6c-3,0-5.5-0.6-7.4-1.8s-3.3-2.8-4.1-4.8
				c-0.8-2-1.2-4.1-1-6.5h7.9C127.3,160.5,127.7,162,128.6,163.1z M142.3,136.1c-1.1-1.1-2.7-1.6-4.9-1.6s-4,0.6-5.5,1.9
				s-2.5,3.1-2.9,5.3c-0.1,0.6-0.2,1.3-0.2,1.9c0,1.8,0.5,3.2,1.6,4.1c1.1,1,2.6,1.4,4.4,1.4c1.5,0,2.9-0.3,4.3-1s2.5-1.7,3.4-3
				s1.3-2.9,1.3-4.8C143.9,138.7,143.4,137.2,142.3,136.1z"/>
			<path class="st8" d="M183.8,134.7l-21.9,36.4h-8.8l21.9-35.5h-19.6l1.3-7.3h28.2L183.8,134.7z"/>
		</g>
		<g>
			<path class="st6" d="M116.8,184.9c0.8,0.5,1.5,1.1,1.9,1.9c0.5,0.8,0.7,1.8,0.7,2.9c0,0.4,0,0.9-0.1,1.5
				c-0.2,1.2-0.6,2.2-1.3,3.2c-0.7,0.9-1.5,1.6-2.5,2.2c-1,0.5-2.1,0.8-3.3,0.8c-1.2,0-2.1-0.2-3-0.7c-0.8-0.5-1.5-1.1-1.9-1.9
				c-0.4-0.8-0.7-1.8-0.7-2.8c0-0.5,0-1,0.1-1.5c0.2-1.2,0.6-2.2,1.3-3.2c0.7-0.9,1.5-1.6,2.5-2.1s2.1-0.8,3.3-0.8
				C115,184.2,116,184.5,116.8,184.9z M110.8,187.7c-0.8,0.7-1.3,1.7-1.5,3c-0.1,0.4-0.1,0.7-0.1,1c0,1,0.3,1.8,0.9,2.4
				c0.6,0.6,1.4,0.9,2.4,0.9c0.7,0,1.4-0.2,2-0.5s1.1-0.8,1.5-1.4c0.4-0.6,0.7-1.3,0.8-2.1c0.1-0.3,0.1-0.6,0.1-1
				c0-1-0.3-1.8-0.9-2.4c-0.6-0.6-1.4-0.9-2.4-0.9C112.6,186.6,111.6,186.9,110.8,187.7z"/>
			<path class="st6" d="M131.5,187.2l-1.7,10h-2.6l0.4-2c-0.4,0.7-0.9,1.2-1.6,1.5s-1.4,0.6-2.2,0.6c-1,0-1.7-0.3-2.3-0.8
				c-0.6-0.6-0.8-1.3-0.8-2.4c0-0.3,0-0.7,0.1-1.1l1-5.8h2.5l-1,5.5c0,0.2-0.1,0.4-0.1,0.6c0,0.6,0.2,1.1,0.5,1.4
				c0.3,0.3,0.8,0.5,1.4,0.5c0.7,0,1.3-0.2,1.8-0.7s0.8-1.1,1-2l1-5.4L131.5,187.2L131.5,187.2z"/>
			<path class="st6" d="M135.5,193.7c0,0.1,0,0.3,0,0.4c0,0.3,0.1,0.5,0.3,0.7s0.4,0.2,0.8,0.2h1l-0.4,2.2h-1.3
				c-0.9,0-1.7-0.2-2.2-0.6c-0.5-0.4-0.8-1-0.8-1.9c0-0.3,0-0.7,0.1-1l0.8-4.3h-1.4l0.4-2.1h1.4l0.4-2.5h2.6l-0.4,2.5h2.2l-0.4,2.1
				h-2.2L135.5,193.7z"/>
			<path class="st6" d="M151.8,187.5c0.7,0.3,1.2,0.8,1.5,1.4c0.4,0.6,0.5,1.4,0.5,2.2c0,0.4,0,0.8-0.1,1.2c-0.2,1-0.6,1.9-1.1,2.6
				s-1.3,1.3-2.1,1.7s-1.7,0.6-2.7,0.6c-0.9,0-1.6-0.2-2.3-0.5s-1.2-0.8-1.6-1.4c-0.4-0.6-0.6-1.4-0.6-2.2c0-0.4,0-0.7,0.1-1.2
				c0.2-1,0.6-1.9,1.1-2.6c0.6-0.7,1.3-1.3,2.1-1.7s1.7-0.6,2.7-0.6C150.3,187,151.1,187.2,151.8,187.5z M147.2,190
				c-0.6,0.5-1,1.2-1.1,2.2c0,0.2-0.1,0.5-0.1,0.8c0,0.7,0.2,1.2,0.6,1.6s0.9,0.5,1.5,0.5c0.7,0,1.4-0.2,1.9-0.7
				c0.6-0.5,1-1.2,1.1-2.2c0-0.2,0.1-0.5,0.1-0.8c0-0.7-0.2-1.2-0.6-1.6s-0.9-0.5-1.5-0.5C148.4,189.2,147.8,189.5,147.2,190z"/>
			<path class="st6" d="M159.7,185.8c-0.3,0.3-0.6,0.7-0.7,1.4l0,0h2l-0.4,2.1h-2l-1.4,7.8h-2.5l1.4-7.8h-1.3l0.4-2.1h1.3V187
				c0.2-1.2,0.7-2.1,1.5-2.7c0.8-0.6,1.9-1,3.2-1c0.2,0,0.4,0,0.5,0l-0.4,2.2C160.6,185.4,160.1,185.5,159.7,185.8z"/>
			<path class="st6" d="M165.7,186.8l0.4-2.4h4.6l-2.2,12.7h-2.7l1.8-10.3H165.7z"/>
			<path class="st6" d="M171.6,190.7c0.8-4.3,2.8-6.4,6-6.4c2.6,0,3.9,1.4,3.9,4.3c0,0.7-0.1,1.4-0.2,2.2c-0.3,2-1,3.6-2,4.7
				c-1,1.2-2.3,1.7-4,1.7c-2.6,0-3.9-1.4-3.9-4.2C171.3,192.2,171.4,191.5,171.6,190.7z M178.8,190.7c0.1-0.7,0.2-1.3,0.2-1.9
				c0-0.7-0.1-1.2-0.4-1.6c-0.3-0.4-0.8-0.6-1.4-0.6c-0.9,0-1.6,0.3-2.1,1c-0.4,0.7-0.8,1.7-1,3c-0.1,0.7-0.2,1.4-0.2,1.9
				c0,0.7,0.1,1.2,0.4,1.6c0.3,0.4,0.8,0.6,1.4,0.6c0.9,0,1.6-0.4,2.1-1.1S178.5,192,178.8,190.7z"/>
			<path class="st6" d="M182.7,190.7c0.8-4.3,2.8-6.4,6-6.4c2.6,0,3.9,1.4,3.9,4.3c0,0.7-0.1,1.4-0.2,2.2c-0.3,2-1,3.6-2,4.7
				c-1,1.2-2.3,1.7-4,1.7c-2.6,0-3.9-1.4-3.9-4.2C182.5,192.2,182.6,191.5,182.7,190.7z M189.9,190.7c0.1-0.7,0.2-1.3,0.2-1.9
				c0-0.7-0.1-1.2-0.4-1.6c-0.3-0.4-0.8-0.6-1.4-0.6c-0.9,0-1.6,0.3-2.1,1c-0.4,0.7-0.8,1.7-1,3c-0.1,0.7-0.2,1.4-0.2,1.9
				c0,0.7,0.1,1.2,0.4,1.6c0.3,0.4,0.8,0.6,1.4,0.6c0.9,0,1.6-0.4,2.1-1.1S189.7,192,189.9,190.7z"/>
		</g>
		<g>
			<g>
				<path class="st8" d="M426,52.7c-55.6,0-100.7,45.1-100.7,100.7S370.4,254.1,426,254.1S526.7,209,526.7,153.4
					C526.8,97.8,481.7,52.7,426,52.7z M426,228.1c-41.3,0-74.7-33.5-74.7-74.7c0-41.3,33.5-74.7,74.7-74.7
					c41.3,0,74.7,33.5,74.7,74.7C500.8,194.7,467.3,228.1,426,228.1z"/>
			</g>
			<g>
				<g>
					<path class="st8" d="M378.3,160.7c0.9,1.1,2.3,1.6,4.1,1.6c2.8,0,5-1.2,6.7-3.7c1.7-2.4,2.9-6.3,3.7-11.6
						c-1,1.9-2.5,3.5-4.5,4.6s-4.3,1.7-6.8,1.7c-3.5,0-6.2-0.9-8.1-2.8c-1.9-1.9-2.9-4.5-2.9-8c0-1.2,0.1-2.5,0.4-3.8
						c0.5-2.7,1.4-5.1,2.9-7.2c1.5-2.1,3.4-3.8,5.8-5s5.1-1.8,8.2-1.8c4.9,0,8.4,1.2,10.5,3.6c2.1,2.4,3.1,5.8,3.1,10.2
						c0,2.3-0.3,5.1-0.9,8.5c-0.8,4.8-2,8.9-3.4,12.1c-1.4,3.2-3.4,5.7-5.9,7.4s-5.7,2.6-9.5,2.6c-3,0-5.5-0.6-7.3-1.8
						c-1.9-1.2-3.3-2.8-4.1-4.8c-0.8-2-1.2-4.1-1-6.5h7.9C377,158.1,377.4,159.6,378.3,160.7z M391.9,133.7
						c-1.1-1.1-2.7-1.6-4.9-1.6s-4,0.6-5.5,1.9s-2.5,3.1-2.8,5.3c-0.1,0.6-0.2,1.3-0.2,1.9c0,1.8,0.5,3.2,1.6,4.1
						c1.1,1,2.6,1.4,4.4,1.4c1.5,0,2.9-0.3,4.3-1s2.5-1.7,3.4-3s1.3-2.9,1.3-4.8C393.5,136.2,393,134.8,391.9,133.7z"/>
					<path class="st8" d="M413.4,160.7c0.9,1.1,2.3,1.6,4.1,1.6c2.8,0,5-1.2,6.7-3.7c1.7-2.4,2.9-6.3,3.7-11.6
						c-1,1.9-2.5,3.5-4.5,4.6s-4.3,1.7-6.8,1.7c-3.5,0-6.2-0.9-8.1-2.8c-1.9-1.9-2.9-4.5-2.9-8c0-1.2,0.1-2.5,0.4-3.8
						c0.5-2.7,1.5-5.1,2.9-7.2c1.5-2.1,3.4-3.8,5.8-5s5.1-1.8,8.2-1.8c4.9,0,8.4,1.2,10.5,3.6c2.1,2.4,3.2,5.8,3.2,10.2
						c0,2.3-0.3,5.1-0.9,8.5c-0.8,4.8-2,8.9-3.4,12.1c-1.4,3.2-3.4,5.7-5.9,7.4s-5.7,2.6-9.5,2.6c-3,0-5.5-0.6-7.4-1.8
						s-3.3-2.8-4.1-4.8c-0.8-2-1.2-4.1-1-6.5h7.9C412.1,158.1,412.5,159.6,413.4,160.7z M427.1,133.7c-1.1-1.1-2.7-1.6-4.9-1.6
						c-2.2,0-4,0.6-5.5,1.9s-2.5,3.1-2.9,5.3c-0.1,0.6-0.2,1.3-0.2,1.9c0,1.8,0.5,3.2,1.6,4.1c1.1,1,2.6,1.4,4.4,1.4
						c1.5,0,2.9-0.3,4.3-1s2.5-1.7,3.4-3s1.3-2.9,1.3-4.8C428.7,136.2,428.2,134.8,427.1,133.7z"/>
					<path class="st8" d="M448.9,159.8l-1.6,8.8h-9.1l1.6-8.8H448.9z"/>
					<path class="st8" d="M461.3,160.7c0.9,1.1,2.3,1.6,4.1,1.6c2.8,0,5-1.2,6.7-3.7c1.7-2.4,2.9-6.3,3.7-11.6
						c-1,1.9-2.5,3.5-4.5,4.6s-4.3,1.7-6.8,1.7c-3.5,0-6.2-0.9-8.1-2.8c-1.9-1.9-2.9-4.5-2.9-8c0-1.2,0.1-2.5,0.4-3.8
						c0.5-2.7,1.5-5.1,2.9-7.2c1.5-2.1,3.4-3.8,5.8-5s5.1-1.8,8.2-1.8c4.9,0,8.4,1.2,10.5,3.6c2.1,2.4,3.2,5.8,3.2,10.2
						c0,2.3-0.3,5.1-0.9,8.5c-0.8,4.8-2,8.9-3.4,12.1c-1.4,3.2-3.4,5.7-5.9,7.4s-5.7,2.6-9.5,2.6c-3,0-5.5-0.6-7.4-1.8
						s-3.3-2.8-4.1-4.8c-0.8-2-1.2-4.1-1-6.5h7.9C459.9,158.1,460.4,159.6,461.3,160.7z M474.9,133.7c-1.1-1.1-2.7-1.6-4.9-1.6
						c-2.2,0-4,0.6-5.5,1.9s-2.5,3.1-2.9,5.3c-0.1,0.6-0.2,1.3-0.2,1.9c0,1.8,0.5,3.2,1.6,4.1c1.1,1,2.6,1.4,4.4,1.4
						c1.5,0,2.9-0.3,4.3-1s2.5-1.7,3.4-3s1.3-2.9,1.3-4.8C476.5,136.2,476,134.8,474.9,133.7z"/>
				</g>
				<g>
					<path class="st6" d="M383.6,190l-0.8,4.7h-2.5l2.2-12.7h4.6c1.3,0,2.3,0.3,2.9,0.8c0.6,0.6,1,1.3,1,2.3c0,0.3,0,0.6-0.1,0.9
						c-0.2,1.2-0.8,2.2-1.7,2.9s-2.1,1.1-3.5,1.1H383.6z M388.4,186c0-0.1,0-0.3,0-0.5c0-0.5-0.2-0.8-0.5-1.1s-0.8-0.4-1.5-0.4h-1.8
						l-0.7,3.9h1.8C387.3,187.9,388.1,187.3,388.4,186z"/>
					<path class="st6" d="M400.6,185.6c0.7,0.7,1.1,1.6,1.1,2.7c0,0.3,0,0.6-0.1,1s-0.2,0.6-0.2,0.9h-7.3c0,0.1,0,0.3,0,0.6
						c0,0.7,0.2,1.2,0.5,1.5c0.4,0.3,0.8,0.5,1.4,0.5s1.1-0.1,1.5-0.4c0.4-0.3,0.8-0.7,1-1.2h2.7c-0.4,1.1-1.1,2-2,2.6s-2.1,1-3.4,1
						s-2.3-0.4-3-1.1s-1.1-1.7-1.1-3c0-0.4,0-0.8,0.1-1.2c0.2-1,0.5-1.9,1.1-2.7s1.2-1.3,2.1-1.7c0.8-0.4,1.7-0.6,2.7-0.6
						C398.9,184.6,399.9,184.9,400.6,185.6z M399.2,188.4c0-0.6-0.2-1-0.6-1.4c-0.4-0.3-0.8-0.4-1.4-0.4c-0.7,0-1.3,0.2-1.9,0.6
						s-0.9,1-1.1,1.9h4.8C399.2,188.9,399.2,188.6,399.2,188.4z"/>
					<path class="st6" d="M408.2,185.1c0.7-0.4,1.4-0.5,2.2-0.5l-0.5,2.7h-0.7c-1.9,0-2.9,0.9-3.2,2.6l-0.8,4.8h-2.6l1.8-10h2.5
						l-0.3,1.9C406.9,186,407.5,185.5,408.2,185.1z"/>
					<path class="st6" d="M419.2,185.6c0.8,0.7,1.1,1.6,1.1,2.8h-2.7c0-0.5-0.2-0.9-0.5-1.3s-0.8-0.5-1.4-0.5
						c-0.7,0-1.3,0.2-1.8,0.7s-0.9,1.2-1.1,2.2c0,0.3-0.1,0.5-0.1,0.8c0,0.7,0.2,1.2,0.5,1.6c0.4,0.4,0.8,0.5,1.4,0.5
						s1.1-0.2,1.5-0.5s0.8-0.7,1-1.3h2.7c-0.4,1.2-1.1,2.1-2.1,2.8s-2.1,1-3.4,1s-2.3-0.4-3.1-1.1c-0.8-0.7-1.1-1.7-1.1-3
						c0-0.4,0-0.8,0.1-1.2c0.2-1,0.5-1.9,1.1-2.6c0.6-0.7,1.2-1.3,2-1.7s1.7-0.6,2.6-0.6C417.5,184.6,418.5,184.9,419.2,185.6z"/>
					<path class="st6" d="M430.4,185.6c0.7,0.7,1.1,1.6,1.1,2.7c0,0.3,0,0.6-0.1,1s-0.2,0.6-0.2,0.9h-7.3c0,0.1,0,0.3,0,0.6
						c0,0.7,0.2,1.2,0.5,1.5c0.4,0.3,0.8,0.5,1.4,0.5s1.1-0.1,1.5-0.4s0.8-0.7,1-1.2h2.7c-0.4,1.1-1.1,2-2,2.6s-2.1,1-3.4,1
						s-2.3-0.4-3-1.1c-0.8-0.7-1.1-1.7-1.1-3c0-0.4,0-0.8,0.1-1.2c0.2-1,0.5-1.9,1.1-2.7s1.2-1.3,2.1-1.7c0.8-0.4,1.7-0.6,2.7-0.6
						C428.7,184.6,429.7,184.9,430.4,185.6z M429,188.4c0-0.6-0.2-1-0.6-1.4c-0.4-0.3-0.8-0.4-1.4-0.4c-0.7,0-1.3,0.2-1.9,0.6
						s-0.9,1-1.1,1.9h4.8C429,188.9,429,188.6,429,188.4z"/>
					<path class="st6" d="M442.3,185.4c0.6,0.6,0.8,1.4,0.8,2.4c0,0.4,0,0.8-0.1,1.1l-1,5.8h-2.5l1-5.5c0-0.2,0.1-0.4,0.1-0.6
						c0-0.6-0.2-1.1-0.5-1.4c-0.3-0.3-0.8-0.5-1.4-0.5c-0.7,0-1.3,0.2-1.9,0.7c-0.5,0.5-0.8,1.1-1,2v-0.1l-0.9,5.4h-2.6l1.8-10h2.5
						l-0.3,2c0.4-0.7,0.9-1.2,1.6-1.6s1.4-0.6,2.2-0.6C441,184.6,441.8,184.9,442.3,185.4z"/>
					<path class="st6" d="M447.7,191.2c0,0.1,0,0.3,0,0.4c0,0.3,0.1,0.5,0.3,0.7s0.4,0.2,0.8,0.2h1l-0.4,2.2h-1.3
						c-0.9,0-1.7-0.2-2.2-0.6c-0.5-0.4-0.8-1-0.8-1.9c0-0.3,0-0.7,0.1-1l0.8-4.3h-1.4l0.4-2.1h1.4l0.4-2.5h2.6l-0.4,2.5h2.2
						l-0.4,2.1h-2.2L447.7,191.2z"/>
					<path class="st6" d="M455.7,184.7l-1.8,10h-2.5l1.8-10H455.7z M453.9,180.9c0.3-0.3,0.8-0.5,1.3-0.5c0.4,0,0.7,0.1,1,0.3
						s0.4,0.5,0.4,0.8c0,0.5-0.2,0.9-0.5,1.2s-0.8,0.5-1.3,0.5c-0.4,0-0.7-0.1-1-0.3c-0.2-0.2-0.4-0.5-0.4-0.8
						C453.4,181.6,453.5,181.3,453.9,180.9z"/>
					<path class="st6" d="M461.1,181.4l-2.3,13.3h-2.5l2.3-13.3H461.1z"/>
					<path class="st6" d="M470.3,185.6c0.7,0.7,1.1,1.6,1.1,2.7c0,0.3,0,0.6-0.1,1s-0.2,0.6-0.2,0.9h-7.3c0,0.1,0,0.3,0,0.6
						c0,0.7,0.2,1.2,0.5,1.5c0.4,0.3,0.8,0.5,1.4,0.5s1.1-0.1,1.5-0.4s0.8-0.7,1-1.2h2.7c-0.4,1.1-1.1,2-2,2.6s-2.1,1-3.4,1
						s-2.3-0.4-3-1.1c-0.8-0.7-1.1-1.7-1.1-3c0-0.4,0-0.8,0.1-1.2c0.2-1,0.5-1.9,1.1-2.7s1.2-1.3,2.1-1.7c0.8-0.4,1.7-0.6,2.7-0.6
						C468.6,184.6,469.6,184.9,470.3,185.6z M468.9,188.4c0-0.6-0.2-1-0.6-1.4c-0.4-0.3-0.8-0.4-1.4-0.4c-0.7,0-1.3,0.2-1.9,0.6
						s-0.9,1-1.1,1.9h4.8C468.9,188.9,468.9,188.6,468.9,188.4z"/>
				</g>
			</g>
		</g>
		<g>
			<path class="st6" d="M363.1,284.1c-0.4,0.6-0.9,1.1-1.5,1.5s-1.5,0.5-2.4,0.5H356v-8.5h3.2c0.9,0,1.7,0.2,2.4,0.5
				c0.7,0.4,1.2,0.8,1.5,1.5c0.4,0.6,0.5,1.4,0.5,2.2S363.4,283.4,363.1,284.1z M360.9,283.7c0.4-0.4,0.7-1,0.7-1.8
				s-0.2-1.4-0.7-1.8s-1.1-0.6-1.9-0.6h-1v4.8h1C359.8,284.3,360.4,284.1,360.9,283.7z"/>
			<path class="st6" d="M367.8,279.7c0.4-0.2,0.8-0.4,1.3-0.4v2.2h-0.6c-0.5,0-1,0.1-1.3,0.3c-0.3,0.2-0.4,0.6-0.4,1.2v3h-2.1v-6.7
				h2.1v1.3C367.1,280.3,367.4,280,367.8,279.7z"/>
			<path class="st6" d="M371.8,284.1v2.1h-2.1v-2.1H371.8z"/>
			<path class="st6" d="M380.5,277.6v5.8c0,0.9-0.2,1.6-0.7,2.1s-1.2,0.7-2,0.7c-0.9,0-1.7-0.3-2.2-0.8s-0.8-1.3-0.8-2.3h2
				c0,0.8,0.3,1.2,0.9,1.2c0.5,0,0.8-0.3,0.8-0.9v-5.8L380.5,277.6L380.5,277.6z"/>
			<path class="st6" d="M385.7,279.7c0.4,0.2,0.6,0.5,0.8,0.9v-1.2h2v6.7h-2v-1.2c-0.2,0.4-0.4,0.7-0.8,0.9
				c-0.4,0.2-0.8,0.3-1.3,0.3c-0.6,0-1-0.1-1.5-0.4c-0.4-0.3-0.8-0.7-1-1.2c-0.3-0.5-0.4-1.1-0.4-1.8c0-0.7,0.1-1.3,0.4-1.8
				s0.6-0.9,1-1.2c0.4-0.3,0.9-0.4,1.5-0.4C384.9,279.3,385.3,279.5,385.7,279.7z M383.9,281.6c-0.3,0.3-0.4,0.7-0.4,1.2
				s0.1,0.9,0.4,1.2c0.3,0.3,0.6,0.4,1.1,0.4c0.4,0,0.8-0.1,1.1-0.4c0.3-0.3,0.4-0.7,0.4-1.2s-0.1-0.9-0.4-1.2
				c-0.3-0.3-0.6-0.4-1.1-0.4C384.6,281.1,384.2,281.3,383.9,281.6z"/>
			<path class="st6" d="M400.6,280.1c0.5,0.5,0.7,1.2,0.7,2.1v3.9h-2v-3.6c0-0.4-0.1-0.8-0.3-1c-0.2-0.2-0.5-0.4-0.9-0.4
				s-0.7,0.1-1,0.4c-0.2,0.3-0.4,0.6-0.4,1.1v3.6h-2.1v-3.6c0-0.4-0.1-0.8-0.3-1c-0.2-0.2-0.5-0.4-0.9-0.4s-0.7,0.1-1,0.4
				s-0.4,0.6-0.4,1.1v3.6h-2.1v-6.7h2.1v1.1c0.2-0.4,0.4-0.7,0.8-0.9c0.4-0.2,0.8-0.3,1.3-0.3s1,0.1,1.4,0.4c0.4,0.2,0.7,0.6,0.9,1
				c0.2-0.4,0.5-0.7,1-1c0.4-0.2,0.9-0.4,1.3-0.4C399.4,279.4,400.1,279.6,400.6,280.1z"/>
			<path class="st6" d="M408.9,283.2h-4.6c0,0.5,0.2,0.9,0.4,1.1c0.2,0.2,0.5,0.3,0.9,0.3c0.3,0,0.6-0.1,0.8-0.2
				c0.2-0.2,0.3-0.3,0.4-0.6h2.2c-0.1,0.5-0.3,0.9-0.6,1.3s-0.7,0.7-1.1,0.9c-0.5,0.2-1,0.3-1.5,0.3c-0.7,0-1.2-0.1-1.7-0.4
				s-0.9-0.7-1.2-1.2c-0.3-0.5-0.4-1.1-0.4-1.8c0-0.7,0.1-1.3,0.4-1.8s0.7-0.9,1.2-1.2c0.5-0.3,1.1-0.4,1.8-0.4
				c0.7,0,1.2,0.1,1.8,0.4c0.5,0.3,0.9,0.7,1.2,1.1c0.3,0.5,0.4,1.1,0.4,1.7C409,282.8,409,283,408.9,283.2z M406.6,281.3
				c-0.2-0.2-0.5-0.3-0.9-0.3s-0.7,0.1-0.9,0.3c-0.2,0.2-0.4,0.6-0.4,1h2.6C406.9,281.8,406.8,281.5,406.6,281.3z"/>
			<path class="st6" d="M414.5,280c0.5,0.4,0.8,1,1,1.7h-1.9c-0.1-0.3-0.2-0.5-0.4-0.6c-0.2-0.2-0.4-0.2-0.7-0.2
				c-0.2,0-0.4,0-0.5,0.1s-0.2,0.2-0.2,0.4c0,0.2,0.1,0.4,0.3,0.5s0.6,0.2,1,0.3c0.5,0.1,0.9,0.2,1.3,0.4s0.6,0.3,0.9,0.6
				c0.2,0.3,0.4,0.7,0.4,1.1s-0.1,0.7-0.3,1s-0.5,0.5-0.9,0.7s-0.9,0.3-1.4,0.3c-0.9,0-1.6-0.2-2.2-0.6c-0.5-0.4-0.9-1-1-1.7h2
				c0,0.3,0.2,0.5,0.4,0.7c0.2,0.2,0.5,0.2,0.8,0.2c0.2,0,0.4-0.1,0.5-0.2s0.2-0.3,0.2-0.4c0-0.2-0.1-0.4-0.3-0.5
				c-0.2-0.1-0.6-0.2-1.1-0.3c-0.5-0.1-0.9-0.2-1.2-0.3c-0.3-0.1-0.6-0.3-0.8-0.6c-0.2-0.3-0.3-0.6-0.3-1.1c0-0.6,0.2-1.1,0.7-1.5
				s1.1-0.6,1.9-0.6C413.4,279.3,414,279.6,414.5,280z"/>
			<path class="st6" d="M424.7,277.6v1.6h-3.5v1.9h2.7v1.6h-2.7v3.4h-2.1v-8.5H424.7z"/>
			<path class="st6" d="M428.8,279.7c0.4-0.2,0.8-0.4,1.3-0.4v2.2h-0.6c-0.5,0-1,0.1-1.3,0.3c-0.3,0.2-0.4,0.6-0.4,1.2v3h-2.1v-6.7
				h2.1v1.3C428,280.3,428.4,280,428.8,279.7z"/>
			<path class="st6" d="M434.8,279.7c0.4,0.2,0.6,0.5,0.8,0.9v-1.2h2v6.7h-2v-1.2c-0.2,0.4-0.4,0.7-0.8,0.9
				c-0.4,0.2-0.8,0.3-1.3,0.3c-0.6,0-1-0.1-1.5-0.4c-0.4-0.3-0.8-0.7-1-1.2c-0.3-0.5-0.4-1.1-0.4-1.8c0-0.7,0.1-1.3,0.4-1.8
				s0.6-0.9,1-1.2c0.4-0.3,0.9-0.4,1.5-0.4C434,279.3,434.4,279.5,434.8,279.7z M433.1,281.6c-0.3,0.3-0.4,0.7-0.4,1.2
				s0.1,0.9,0.4,1.2c0.3,0.3,0.6,0.4,1.1,0.4c0.4,0,0.8-0.1,1.1-0.4c0.3-0.3,0.4-0.7,0.4-1.2s-0.1-0.9-0.4-1.2
				c-0.3-0.3-0.6-0.4-1.1-0.4C433.7,281.1,433.3,281.3,433.1,281.6z"/>
			<path class="st6" d="M445.1,280.1c0.5,0.5,0.7,1.2,0.7,2.1v3.9h-2.1v-3.6c0-0.4-0.1-0.8-0.4-1c-0.2-0.3-0.6-0.4-0.9-0.4
				c-0.4,0-0.7,0.1-1,0.4c-0.2,0.3-0.4,0.6-0.4,1.1v3.6h-2.1v-6.7h2.1v1.2c0.2-0.4,0.5-0.7,0.9-0.9s0.8-0.3,1.3-0.3
				C444.1,279.4,444.7,279.6,445.1,280.1z"/>
			<path class="st6" d="M451.2,286.1l-2-2.8v2.8h-2.1v-8.9h2.1v4.9l2-2.7h2.4l-2.7,3.3l2.8,3.3h-2.5L451.2,286.1L451.2,286.1z"/>
			<path class="st6" d="M461.8,279.8c0.5,0.3,0.9,0.7,1.2,1.2c0.3,0.5,0.5,1.1,0.5,1.8c0,0.7-0.2,1.3-0.5,1.8s-0.7,0.9-1.2,1.2
				c-0.5,0.3-1.1,0.4-1.8,0.4s-1.3-0.1-1.8-0.4s-0.9-0.7-1.2-1.2c-0.3-0.5-0.5-1.1-0.5-1.8c0-0.7,0.1-1.3,0.5-1.8
				c0.3-0.5,0.7-0.9,1.2-1.2c0.5-0.3,1.1-0.4,1.8-0.4S461.2,279.5,461.8,279.8z M459,281.5c-0.3,0.3-0.4,0.7-0.4,1.2
				s0.1,0.9,0.4,1.2s0.6,0.4,1,0.4s0.7-0.1,1-0.4s0.4-0.7,0.4-1.2s-0.1-0.9-0.4-1.2s-0.6-0.4-1-0.4S459.3,281.3,459,281.5z"/>
			<path class="st6" d="M470.6,280.1c0.5,0.5,0.7,1.2,0.7,2.1v3.9h-2.1v-3.6c0-0.4-0.1-0.8-0.4-1s-0.6-0.4-0.9-0.4
				c-0.4,0-0.7,0.1-1,0.4c-0.2,0.3-0.4,0.6-0.4,1.1v3.6h-2.1v-6.7h2.1v1.2c0.2-0.4,0.5-0.7,0.9-0.9c0.4-0.2,0.8-0.3,1.3-0.3
				C469.5,279.4,470.1,279.6,470.6,280.1z"/>
			<path class="st6" d="M474.7,277.2v8.9h-2.1v-8.9H474.7z"/>
			<path class="st6" d="M476.2,276.8c0.2-0.2,0.5-0.3,0.9-0.3s0.7,0.1,0.9,0.3c0.2,0.2,0.3,0.5,0.3,0.8s-0.1,0.6-0.3,0.8
				s-0.5,0.3-0.9,0.3s-0.7-0.1-0.9-0.3c-0.2-0.2-0.3-0.5-0.3-0.8C475.9,277.2,476,277,476.2,276.8z M478.2,279.4v6.7h-2.1v-6.7
				H478.2z"/>
			<path class="st6" d="M485.6,280.1c0.5,0.5,0.7,1.2,0.7,2.1v3.9h-2.1v-3.6c0-0.4-0.1-0.8-0.4-1c-0.2-0.3-0.5-0.4-0.9-0.4
				s-0.7,0.1-1,0.4c-0.2,0.3-0.4,0.6-0.4,1.1v3.6h-2.1v-6.7h2.1v1.2c0.2-0.4,0.5-0.7,0.9-0.9c0.4-0.2,0.8-0.3,1.3-0.3
				C484.6,279.4,485.2,279.6,485.6,280.1z"/>
			<path class="st6" d="M494,283.2h-4.6c0,0.5,0.2,0.9,0.4,1.1c0.2,0.2,0.5,0.3,0.9,0.3c0.3,0,0.6-0.1,0.8-0.2
				c0.2-0.2,0.3-0.3,0.4-0.6h2.2c-0.1,0.5-0.3,0.9-0.6,1.3s-0.7,0.7-1.1,0.9c-0.5,0.2-1,0.3-1.5,0.3c-0.7,0-1.2-0.1-1.7-0.4
				s-0.9-0.7-1.2-1.2c-0.3-0.5-0.4-1.1-0.4-1.8c0-0.7,0.1-1.3,0.4-1.8s0.7-0.9,1.2-1.2c0.5-0.3,1.1-0.4,1.8-0.4
				c0.7,0,1.2,0.1,1.8,0.4c0.5,0.3,0.9,0.7,1.2,1.1c0.3,0.5,0.4,1.1,0.4,1.7C494,282.8,494,283,494,283.2z M491.6,281.3
				c-0.2-0.2-0.5-0.3-0.9-0.3s-0.7,0.1-0.9,0.3c-0.2,0.2-0.4,0.6-0.4,1h2.6C492,281.8,491.9,281.5,491.6,281.3z"/>
			<path class="st6" d="M339.7,297.7c0.4-0.2,0.8-0.4,1.3-0.4v2.2h-0.6c-0.5,0-1,0.1-1.3,0.3c-0.3,0.2-0.5,0.6-0.5,1.2v3h-2.1v-6.7
				h2.1v1.3C338.9,298.3,339.2,298,339.7,297.7z"/>
			<path class="st6" d="M348.1,301.2h-4.6c0,0.5,0.2,0.9,0.4,1.1c0.2,0.2,0.5,0.3,0.9,0.3c0.3,0,0.6-0.1,0.8-0.2
				c0.2-0.2,0.3-0.3,0.4-0.6h2.2c-0.1,0.5-0.3,0.9-0.6,1.3c-0.3,0.4-0.7,0.7-1.1,0.9c-0.5,0.2-1,0.3-1.5,0.3c-0.7,0-1.2-0.1-1.7-0.4
				s-0.9-0.7-1.2-1.2c-0.3-0.5-0.4-1.1-0.4-1.8c0-0.7,0.1-1.3,0.4-1.8s0.7-0.9,1.2-1.2c0.5-0.3,1.1-0.4,1.8-0.4
				c0.7,0,1.2,0.1,1.8,0.4c0.5,0.3,0.9,0.7,1.2,1.1c0.3,0.5,0.4,1.1,0.4,1.7C348.2,300.8,348.2,301,348.1,301.2z M345.8,299.3
				c-0.2-0.2-0.5-0.3-0.9-0.3s-0.7,0.1-0.9,0.3c-0.2,0.2-0.4,0.6-0.4,1h2.6C346.1,299.8,346,299.5,345.8,299.3z"/>
			<path class="st6" d="M354.9,297.8c0.4,0.3,0.8,0.7,1,1.2c0.3,0.5,0.4,1.1,0.4,1.8c0,0.7-0.1,1.3-0.4,1.8s-0.6,0.9-1,1.2
				c-0.4,0.3-0.9,0.4-1.5,0.4c-0.5,0-1-0.1-1.3-0.3c-0.4-0.2-0.6-0.5-0.8-0.9v4.4h-2.1v-9.9h2.1v1.2c0.2-0.4,0.4-0.7,0.8-0.9
				c0.4-0.2,0.8-0.3,1.3-0.3C354,297.3,354.5,297.5,354.9,297.8z M351.7,299.6c-0.3,0.3-0.4,0.7-0.4,1.2s0.1,0.9,0.4,1.2
				s0.6,0.4,1.1,0.4c0.4,0,0.8-0.1,1.1-0.4c0.3-0.3,0.4-0.7,0.4-1.2s-0.1-0.9-0.4-1.2c-0.3-0.3-0.6-0.4-1.1-0.4
				C352.3,299.1,352,299.3,351.7,299.6z"/>
			<path class="st6" d="M364.1,297.4v6.7H362v-1.2c-0.2,0.4-0.5,0.7-0.9,0.9c-0.4,0.2-0.8,0.3-1.3,0.3c-0.8,0-1.4-0.3-1.8-0.8
				c-0.5-0.5-0.7-1.2-0.7-2.1v-3.9h2v3.6c0,0.5,0.1,0.8,0.4,1.1s0.6,0.4,1,0.4s0.7-0.1,1-0.4c0.2-0.3,0.4-0.6,0.4-1.1v-3.6h2V297.4z
				"/>
			<path class="st6" d="M369.3,302.4v1.8h-0.9c-0.8,0-1.4-0.2-1.8-0.6s-0.7-1-0.7-1.9v-2.5H365v-1.7h0.9v-1.6h2.1v1.6h1.3v1.7h-1.4
				v2.5c0,0.3,0.1,0.4,0.2,0.6s0.3,0.2,0.5,0.2h0.7L369.3,302.4L369.3,302.4z"/>
			<path class="st6" d="M374.3,297.7c0.4,0.2,0.6,0.5,0.8,0.9v-1.2h2v6.7h-2v-1.2c-0.2,0.4-0.4,0.7-0.8,0.9
				c-0.4,0.2-0.8,0.3-1.3,0.3c-0.6,0-1-0.1-1.5-0.4s-0.8-0.7-1-1.2c-0.3-0.5-0.4-1.1-0.4-1.8c0-0.7,0.1-1.3,0.4-1.8s0.6-0.9,1-1.2
				c0.4-0.3,0.9-0.4,1.5-0.4C373.5,297.3,373.9,297.5,374.3,297.7z M372.6,299.6c-0.3,0.3-0.4,0.7-0.4,1.2s0.1,0.9,0.4,1.2
				c0.3,0.3,0.6,0.4,1.1,0.4c0.4,0,0.8-0.1,1.1-0.4s0.4-0.7,0.4-1.2s-0.1-0.9-0.4-1.2s-0.6-0.4-1.1-0.4
				C373.2,299.1,372.8,299.3,372.6,299.6z"/>
			<path class="st6" d="M382.3,302.4v1.8h-0.9c-0.8,0-1.4-0.2-1.8-0.6s-0.7-1-0.7-1.9v-2.5H378v-1.7h0.9v-1.6h2.1v1.6h1.3v1.7H381
				v2.5c0,0.3,0.1,0.4,0.2,0.6s0.3,0.2,0.5,0.2h0.6L382.3,302.4L382.3,302.4z"/>
			<path class="st6" d="M383.6,294.8c0.2-0.2,0.5-0.3,0.9-0.3s0.7,0.1,0.9,0.3c0.2,0.2,0.3,0.5,0.3,0.8s-0.1,0.6-0.3,0.8
				s-0.5,0.3-0.9,0.3s-0.7-0.1-0.9-0.3c-0.2-0.2-0.3-0.5-0.3-0.8C383.3,295.2,383.4,295,383.6,294.8z M385.5,297.4v6.7h-2.1v-6.7
				H385.5z"/>
			<path class="st6" d="M391.9,297.8c0.5,0.3,0.9,0.7,1.2,1.2c0.3,0.5,0.5,1.1,0.5,1.8c0,0.7-0.2,1.3-0.5,1.8s-0.7,0.9-1.2,1.2
				s-1.1,0.4-1.8,0.4s-1.3-0.1-1.8-0.4s-0.9-0.7-1.2-1.2c-0.3-0.5-0.5-1.1-0.5-1.8c0-0.7,0.2-1.3,0.5-1.8s0.7-0.9,1.2-1.2
				c0.5-0.3,1.1-0.4,1.8-0.4S391.4,297.5,391.9,297.8z M389.1,299.5c-0.3,0.3-0.4,0.7-0.4,1.2s0.1,0.9,0.4,1.2
				c0.3,0.3,0.6,0.4,1,0.4s0.7-0.1,1-0.4s0.4-0.7,0.4-1.2s-0.1-0.9-0.4-1.2s-0.6-0.4-1-0.4S389.4,299.3,389.1,299.5z"/>
			<path class="st6" d="M400.7,298.1c0.5,0.5,0.7,1.2,0.7,2.1v3.9h-2.1v-3.6c0-0.4-0.1-0.8-0.4-1c-0.2-0.3-0.6-0.4-0.9-0.4
				c-0.4,0-0.7,0.1-1,0.4c-0.2,0.3-0.4,0.6-0.4,1.1v3.6h-2.1v-6.7h2.1v1.2c0.2-0.4,0.5-0.7,0.9-0.9s0.8-0.3,1.3-0.3
				C399.6,297.4,400.3,297.6,400.7,298.1z"/>
			<path class="st6" d="M408.2,297.7c0.4-0.2,0.8-0.4,1.3-0.4v2.2h-0.6c-0.5,0-1,0.1-1.3,0.3c-0.3,0.2-0.5,0.6-0.5,1.2v3H405v-6.7
				h2.1v1.3C407.4,298.3,407.8,298,408.2,297.7z"/>
			<path class="st6" d="M414.2,297.7c0.4,0.2,0.6,0.5,0.8,0.9v-1.2h2v6.7h-2v-1.2c-0.2,0.4-0.4,0.7-0.8,0.9
				c-0.4,0.2-0.8,0.3-1.3,0.3c-0.6,0-1-0.1-1.5-0.4s-0.8-0.7-1-1.2c-0.3-0.5-0.4-1.1-0.4-1.8c0-0.7,0.1-1.3,0.4-1.8s0.6-0.9,1-1.2
				c0.4-0.3,0.9-0.4,1.5-0.4C413.4,297.3,413.9,297.5,414.2,297.7z M412.5,299.6c-0.3,0.3-0.4,0.7-0.4,1.2s0.1,0.9,0.4,1.2
				c0.3,0.3,0.6,0.4,1.1,0.4c0.4,0,0.8-0.1,1.1-0.4s0.4-0.7,0.4-1.2s-0.1-0.9-0.4-1.2s-0.6-0.4-1.1-0.4
				C413.1,299.1,412.8,299.3,412.5,299.6z"/>
			<path class="st6" d="M424.6,298.1c0.5,0.5,0.7,1.2,0.7,2.1v3.9h-2.1v-3.6c0-0.4-0.1-0.8-0.4-1s-0.6-0.4-0.9-0.4
				c-0.4,0-0.7,0.1-1,0.4c-0.2,0.3-0.4,0.6-0.4,1.1v3.6h-2.1v-6.7h2.1v1.2c0.2-0.4,0.5-0.7,0.9-0.9c0.4-0.2,0.8-0.3,1.3-0.3
				C423.5,297.4,424.1,297.6,424.6,298.1z"/>
			<path class="st6" d="M430.7,304.1l-2-2.8v2.8h-2.1v-8.9h2.1v4.9l2-2.7h2.4l-2.7,3.3l2.8,3.3h-2.5L430.7,304.1L430.7,304.1z"/>
			<path class="st6" d="M438.4,298c0.5,0.4,0.8,1,1,1.7h-1.9c-0.1-0.3-0.2-0.5-0.4-0.6c-0.2-0.2-0.4-0.2-0.7-0.2
				c-0.2,0-0.4,0-0.5,0.1s-0.2,0.2-0.2,0.4c0,0.2,0.1,0.4,0.3,0.5c0.2,0.1,0.6,0.2,1,0.3c0.5,0.1,0.9,0.2,1.3,0.4s0.6,0.3,0.9,0.6
				s0.4,0.7,0.4,1.1s-0.1,0.7-0.3,1c-0.2,0.3-0.5,0.5-0.9,0.7s-0.9,0.3-1.4,0.3c-0.9,0-1.6-0.2-2.2-0.6c-0.5-0.4-0.9-1-1-1.7h2
				c0,0.3,0.2,0.5,0.4,0.7c0.2,0.2,0.5,0.2,0.8,0.2c0.2,0,0.4-0.1,0.5-0.2s0.2-0.3,0.2-0.4c0-0.2-0.1-0.4-0.3-0.5
				c-0.2-0.1-0.6-0.2-1.1-0.3c-0.5-0.1-0.9-0.2-1.2-0.3s-0.6-0.3-0.8-0.6c-0.2-0.3-0.3-0.6-0.3-1.1c0-0.6,0.2-1.1,0.7-1.5
				s1.1-0.6,1.9-0.6C437.2,297.3,437.8,297.6,438.4,298z"/>
			<path class="st6" d="M443.1,294.8c0.2-0.2,0.5-0.3,0.9-0.3s0.7,0.1,0.9,0.3c0.2,0.2,0.3,0.5,0.3,0.8s-0.1,0.6-0.3,0.8
				s-0.5,0.3-0.9,0.3s-0.7-0.1-0.9-0.3c-0.2-0.2-0.3-0.5-0.3-0.8C442.7,295.2,442.9,295,443.1,294.8z M445,297.4v6.7h-2.1v-6.7H445z
				"/>
			<path class="st6" d="M452.5,298.1c0.5,0.5,0.7,1.2,0.7,2.1v3.9h-2.1v-3.6c0-0.4-0.1-0.8-0.4-1c-0.2-0.3-0.6-0.4-0.9-0.4
				c-0.4,0-0.7,0.1-1,0.4c-0.2,0.3-0.4,0.6-0.4,1.1v3.6h-2.1v-6.7h2.1v1.2c0.2-0.4,0.5-0.7,0.9-0.9s0.8-0.3,1.3-0.3
				C451.4,297.4,452,297.6,452.5,298.1z"/>
			<path class="st6" d="M460.7,302.4v1.8h-0.9c-0.8,0-1.4-0.2-1.8-0.6s-0.7-1-0.7-1.9v-2.5h-0.9v-1.7h0.9v-1.6h2.1v1.6h1.3v1.7h-1.3
				v2.5c0,0.3,0.1,0.4,0.2,0.6c0.1,0.1,0.3,0.2,0.5,0.2h0.6L460.7,302.4L460.7,302.4z"/>
			<path class="st6" d="M467.9,298.1c0.5,0.5,0.7,1.2,0.7,2.1v3.9h-2.1v-3.6c0-0.4-0.1-0.8-0.4-1s-0.6-0.4-0.9-0.4
				c-0.4,0-0.7,0.1-1,0.4c-0.2,0.3-0.4,0.6-0.4,1.1v3.6h-1.9v-8.9h2.1v3.4c0.2-0.4,0.5-0.7,0.9-0.9c0.4-0.2,0.8-0.3,1.3-0.3
				C466.9,297.4,467.5,297.6,467.9,298.1z"/>
			<path class="st6" d="M476.3,301.2h-4.6c0,0.5,0.2,0.9,0.4,1.1c0.2,0.2,0.5,0.3,0.9,0.3c0.3,0,0.6-0.1,0.8-0.2
				c0.2-0.2,0.3-0.3,0.4-0.6h2.2c-0.1,0.5-0.3,0.9-0.6,1.3c-0.3,0.4-0.7,0.7-1.1,0.9c-0.5,0.2-1,0.3-1.5,0.3c-0.7,0-1.2-0.1-1.7-0.4
				s-0.9-0.7-1.2-1.2c-0.3-0.5-0.4-1.1-0.4-1.8c0-0.7,0.1-1.3,0.4-1.8s0.7-0.9,1.2-1.2c0.5-0.3,1.1-0.4,1.8-0.4
				c0.7,0,1.2,0.1,1.8,0.4c0.5,0.3,0.9,0.7,1.2,1.1c0.3,0.5,0.4,1.1,0.4,1.7C476.3,300.8,476.3,301,476.3,301.2z M473.9,299.3
				c-0.2-0.2-0.5-0.3-0.9-0.3s-0.7,0.1-0.9,0.3c-0.2,0.2-0.4,0.6-0.4,1h2.6C474.3,299.8,474.2,299.5,473.9,299.3z"/>
			<path class="st6" d="M484.2,302.4v1.8h-0.9c-0.8,0-1.4-0.2-1.8-0.6s-0.7-1-0.7-1.9v-2.5h-0.9v-1.7h0.9v-1.6h2.1v1.6h1.3v1.7h-1.3
				v2.5c0,0.3,0.1,0.4,0.2,0.6s0.3,0.2,0.5,0.2h0.6L484.2,302.4L484.2,302.4z"/>
			<path class="st6" d="M490.3,297.8c0.5,0.3,0.9,0.7,1.2,1.2c0.3,0.5,0.5,1.1,0.5,1.8c0,0.7-0.2,1.3-0.5,1.8s-0.7,0.9-1.2,1.2
				s-1.1,0.4-1.8,0.4s-1.3-0.1-1.8-0.4s-0.9-0.7-1.2-1.2c-0.3-0.5-0.5-1.1-0.5-1.8c0-0.7,0.2-1.3,0.5-1.8s0.7-0.9,1.2-1.2
				c0.5-0.3,1.1-0.4,1.8-0.4S489.7,297.5,490.3,297.8z M487.5,299.5c-0.3,0.3-0.4,0.7-0.4,1.2s0.1,0.9,0.4,1.2
				c0.3,0.3,0.6,0.4,1,0.4s0.7-0.1,1-0.4s0.4-0.7,0.4-1.2s-0.1-0.9-0.4-1.2s-0.6-0.4-1-0.4S487.8,299.3,487.5,299.5z"/>
			<path class="st6" d="M498.7,297.8c0.4,0.3,0.8,0.7,1,1.2c0.3,0.5,0.4,1.1,0.4,1.8c0,0.7-0.1,1.3-0.4,1.8s-0.6,0.9-1,1.2
				c-0.4,0.3-0.9,0.4-1.5,0.4c-0.5,0-1-0.1-1.3-0.3c-0.4-0.2-0.6-0.5-0.8-0.9v4.4H493v-9.9h2.1v1.2c0.2-0.4,0.4-0.7,0.8-0.9
				c0.4-0.2,0.8-0.3,1.3-0.3C497.7,297.3,498.2,297.5,498.7,297.8z M495.5,299.6c-0.3,0.3-0.4,0.7-0.4,1.2s0.1,0.9,0.4,1.2
				s0.6,0.4,1.1,0.4c0.4,0,0.8-0.1,1.1-0.4c0.3-0.3,0.4-0.7,0.4-1.2s-0.1-0.9-0.4-1.2c-0.3-0.3-0.6-0.4-1.1-0.4
				C496.1,299.1,495.7,299.3,495.5,299.6z"/>
			<path class="st6" d="M503,297.6v-2h3.4v8.5h-2.2v-6.5H503z"/>
			<path class="st6" d="M510.9,296c0.4,0.4,0.6,0.8,0.6,1.5c0,0.6-0.2,1.1-0.6,1.5s-0.9,0.5-1.4,0.5c-0.6,0-1.1-0.2-1.5-0.5
				c-0.4-0.4-0.6-0.8-0.6-1.5c0-0.6,0.2-1.1,0.6-1.5s0.9-0.5,1.5-0.5C510,295.5,510.5,295.7,510.9,296z M515.3,295.6l-4.6,8.5h-2
				l4.6-8.5H515.3z M509,298.1c0.1,0.1,0.3,0.2,0.5,0.2s0.4-0.1,0.5-0.2s0.2-0.3,0.2-0.6s-0.1-0.4-0.2-0.6c-0.1-0.1-0.3-0.2-0.5-0.2
				s-0.3,0.1-0.5,0.2c-0.1,0.1-0.2,0.3-0.2,0.6S508.8,298,509,298.1z M515.9,300.7c0.4,0.4,0.6,0.8,0.6,1.5c0,0.6-0.2,1.1-0.6,1.5
				c-0.4,0.4-0.8,0.5-1.4,0.5c-0.6,0-1.1-0.2-1.4-0.5c-0.4-0.4-0.6-0.9-0.6-1.5s0.2-1.1,0.6-1.5s0.9-0.5,1.4-0.5
				C515.1,300.2,515.5,300.4,515.9,300.7z M514,302.8c0.1,0.1,0.3,0.2,0.5,0.2s0.3-0.1,0.5-0.2c0.1-0.1,0.2-0.3,0.2-0.6
				c0-0.2-0.1-0.4-0.2-0.6c-0.1-0.1-0.3-0.2-0.5-0.2s-0.4,0.1-0.5,0.2s-0.2,0.3-0.2,0.6S513.9,302.7,514,302.8z"/>
			<path class="st6" d="M331.3,315.8c0.5,0.3,0.9,0.7,1.2,1.2c0.3,0.5,0.5,1.1,0.5,1.8c0,0.7-0.1,1.3-0.5,1.8
				c-0.3,0.5-0.7,0.9-1.2,1.2c-0.5,0.3-1.1,0.4-1.8,0.4s-1.3-0.1-1.8-0.4s-0.9-0.7-1.2-1.2c-0.3-0.5-0.5-1.1-0.5-1.8
				c0-0.7,0.2-1.3,0.5-1.8s0.7-0.9,1.2-1.2c0.5-0.3,1.1-0.4,1.8-0.4S330.8,315.5,331.3,315.8z M328.6,317.5
				c-0.3,0.3-0.4,0.7-0.4,1.2s0.1,0.9,0.4,1.2s0.6,0.4,1,0.4s0.7-0.1,1-0.4s0.4-0.7,0.4-1.2s-0.1-0.9-0.4-1.2
				c-0.3-0.3-0.6-0.4-1-0.4S328.8,317.3,328.6,317.5z"/>
			<path class="st6" d="M340.7,315.4v6.7h-2.1v-1.2c-0.2,0.4-0.5,0.7-0.9,0.9c-0.4,0.2-0.8,0.3-1.3,0.3c-0.8,0-1.4-0.3-1.8-0.8
				c-0.5-0.5-0.7-1.2-0.7-2.1v-3.9h2v3.6c0,0.5,0.1,0.8,0.4,1.1c0.2,0.3,0.6,0.4,1,0.4s0.7-0.1,1-0.4c0.2-0.3,0.4-0.6,0.4-1.1v-3.6
				h2V315.4z"/>
			<path class="st6" d="M345.9,320.4v1.8H345c-0.8,0-1.4-0.2-1.8-0.6s-0.7-1-0.7-1.9v-2.5h-0.9v-1.7h0.9v-1.6h2.1v1.6h1.3v1.7h-1.3
				v2.5c0,0.3,0.1,0.4,0.2,0.6c0.1,0.1,0.3,0.2,0.5,0.2h0.6L345.9,320.4L345.9,320.4z"/>
			<path class="st6" d="M354.4,315.8c0.5,0.3,0.9,0.7,1.2,1.2c0.3,0.5,0.4,1.1,0.4,1.8c0,0.7-0.1,1.3-0.4,1.8s-0.7,0.9-1.2,1.2
				s-1.1,0.4-1.8,0.4s-1.3-0.1-1.8-0.4s-0.9-0.7-1.2-1.2c-0.3-0.5-0.4-1.1-0.4-1.8c0-0.7,0.1-1.3,0.4-1.8s0.7-0.9,1.2-1.2
				c0.5-0.3,1.1-0.4,1.8-0.4S353.9,315.5,354.4,315.8z M351.6,317.5c-0.3,0.3-0.4,0.7-0.4,1.2s0.1,0.9,0.4,1.2
				c0.3,0.3,0.6,0.4,1,0.4s0.7-0.1,1-0.4s0.4-0.7,0.4-1.2s-0.1-0.9-0.4-1.2c-0.3-0.3-0.6-0.4-1-0.4S351.9,317.3,351.6,317.5z"/>
			<path class="st6" d="M360.5,314.5c-0.3,0-0.6,0.1-0.7,0.2c-0.2,0.1-0.2,0.4-0.3,0.7h1.2v1.7h-1.2v5h-2.1v-5h-0.8v-1.7h0.8v-0.1
				c0-0.8,0.2-1.5,0.7-1.9c0.5-0.5,1.2-0.7,2.1-0.7c0.2,0,0.3,0,0.4,0v1.8H360.5z"/>
			<path class="st6" d="M363.4,315.6v-2h3.4v8.5h-2.2v-6.5H363.4z"/>
			<path class="st6" d="M372,315.2c-0.2-0.2-0.4-0.3-0.7-0.3c-0.5,0-0.8,0.2-1,0.6s-0.3,1.1-0.3,2c0.1-0.3,0.4-0.6,0.7-0.8
				c0.3-0.2,0.7-0.3,1.2-0.3c0.8,0,1.4,0.2,1.9,0.7s0.7,1.2,0.7,2.1c0,0.6-0.1,1.1-0.3,1.5c-0.2,0.4-0.6,0.8-1,1s-1,0.4-1.6,0.4
				c-1.2,0-2.1-0.4-2.6-1.2c-0.5-0.8-0.7-1.8-0.7-3.2c0-1.6,0.3-2.7,0.8-3.5c0.5-0.7,1.3-1.1,2.5-1.1c0.9,0,1.6,0.3,2,0.8
				c0.5,0.5,0.7,1.2,0.8,1.9h-1.9C372.3,315.6,372.2,315.4,372,315.2z M370.5,320.1c0.2,0.2,0.5,0.3,0.9,0.3s0.6-0.1,0.8-0.3
				c0.2-0.2,0.3-0.5,0.3-0.9s-0.1-0.7-0.3-0.9c-0.2-0.2-0.5-0.3-0.9-0.3c-0.3,0-0.6,0.1-0.9,0.3c-0.2,0.2-0.3,0.5-0.3,0.8
				C370.2,319.6,370.3,319.9,370.5,320.1z"/>
			<path class="st6" d="M375.6,320.6v-1.7l3.9-5.3h2.2v5.2h1v1.8h-1v1.6h-2.1v-1.6H375.6z M379.8,315.9l-2.1,2.9h2.1V315.9z"/>
			<path class="st6" d="M389.9,315.2h-3.8v1.7c0.2-0.2,0.4-0.3,0.7-0.5s0.6-0.2,1-0.2c0.6,0,1,0.1,1.4,0.4s0.7,0.6,0.9,1
				c0.2,0.4,0.3,0.9,0.3,1.4c0,0.9-0.3,1.7-0.8,2.2s-1.3,0.8-2.2,0.8c-0.6,0-1.2-0.1-1.7-0.3c-0.5-0.2-0.8-0.5-1.1-1
				c-0.3-0.4-0.4-0.9-0.4-1.4h2c0,0.3,0.2,0.5,0.3,0.7c0.2,0.2,0.4,0.3,0.7,0.3c0.4,0,0.6-0.1,0.8-0.3c0.2-0.2,0.3-0.5,0.3-0.9
				s-0.1-0.7-0.3-0.9c-0.2-0.2-0.5-0.3-0.8-0.3s-0.5,0.1-0.7,0.2s-0.3,0.3-0.4,0.5h-2v-5.1h5.7v1.7L389.9,315.2L389.9,315.2z"/>
			<path class="st6" d="M400,316.1c0.5,0.5,0.7,1.2,0.7,2.1v3.9h-2.1v-3.6c0-0.4-0.1-0.8-0.4-1c-0.2-0.3-0.6-0.4-0.9-0.4
				c-0.4,0-0.7,0.1-1,0.4c-0.2,0.3-0.4,0.6-0.4,1.1v3.6h-2.1v-8.9h2.1v3.4c0.2-0.4,0.5-0.7,0.9-0.9s0.8-0.3,1.3-0.3
				C399,315.4,399.6,315.6,400,316.1z"/>
			<path class="st6" d="M408.4,319.2h-4.6c0,0.5,0.2,0.9,0.4,1.1c0.2,0.2,0.5,0.3,0.9,0.3c0.3,0,0.6-0.1,0.8-0.2
				c0.2-0.2,0.3-0.3,0.4-0.6h2.2c-0.1,0.5-0.3,0.9-0.6,1.3c-0.3,0.4-0.7,0.7-1.1,0.9c-0.5,0.2-1,0.3-1.5,0.3c-0.7,0-1.2-0.1-1.7-0.4
				s-0.9-0.7-1.2-1.2c-0.3-0.5-0.4-1.1-0.4-1.8c0-0.7,0.1-1.3,0.4-1.8s0.7-0.9,1.2-1.2c0.5-0.3,1.1-0.4,1.8-0.4
				c0.7,0,1.2,0.1,1.8,0.4c0.5,0.3,0.9,0.7,1.2,1.1c0.3,0.5,0.4,1.1,0.4,1.7C408.4,318.8,408.4,319,408.4,319.2z M406,317.3
				c-0.2-0.2-0.5-0.3-0.9-0.3s-0.7,0.1-0.9,0.3c-0.2,0.2-0.4,0.6-0.4,1h2.6C406.4,317.8,406.3,317.5,406,317.3z"/>
			<path class="st6" d="M413.4,315.7c0.4,0.2,0.6,0.5,0.8,0.9v-1.2h2v6.7h-2v-1.2c-0.2,0.4-0.4,0.7-0.8,0.9
				c-0.4,0.2-0.8,0.3-1.3,0.3c-0.6,0-1-0.1-1.5-0.4s-0.8-0.7-1-1.2c-0.3-0.5-0.4-1.1-0.4-1.8c0-0.7,0.1-1.3,0.4-1.8s0.6-0.9,1-1.2
				c0.4-0.3,0.9-0.4,1.5-0.4C412.6,315.3,413,315.5,413.4,315.7z M411.7,317.6c-0.3,0.3-0.4,0.7-0.4,1.2s0.1,0.9,0.4,1.2
				c0.3,0.3,0.6,0.4,1.1,0.4c0.4,0,0.8-0.1,1.1-0.4s0.4-0.7,0.4-1.2s-0.1-0.9-0.4-1.2s-0.6-0.4-1.1-0.4
				C412.3,317.1,411.9,317.3,411.7,317.6z"/>
			<path class="st6" d="M419.7,313.2v8.9h-2.1v-8.9H419.7z"/>
			<path class="st6" d="M424.9,320.4v1.8H424c-0.8,0-1.4-0.2-1.8-0.6s-0.7-1-0.7-1.9v-2.5h-0.9v-1.7h0.9v-1.6h2.1v1.6h1.3v1.7h-1.3
				v2.5c0,0.3,0.1,0.4,0.2,0.6c0.1,0.1,0.3,0.2,0.5,0.2h0.6L424.9,320.4L424.9,320.4z"/>
			<path class="st6" d="M432.1,316.1c0.5,0.5,0.7,1.2,0.7,2.1v3.9h-2.1v-3.6c0-0.4-0.1-0.8-0.4-1c-0.2-0.3-0.5-0.4-0.9-0.4
				s-0.7,0.1-1,0.4c-0.2,0.3-0.4,0.6-0.4,1.1v3.6h-2.1v-8.9h2.1v3.4c0.2-0.4,0.5-0.7,0.9-0.9c0.4-0.2,0.8-0.3,1.3-0.3
				C431.1,315.4,431.7,315.6,432.1,316.1z"/>
			<path class="st6" d="M439.4,316.1c0.6,0.5,1,1.1,1.1,2h-2.2c-0.1-0.3-0.2-0.5-0.4-0.7c-0.2-0.2-0.5-0.2-0.8-0.2
				c-0.4,0-0.7,0.1-0.9,0.4s-0.3,0.7-0.3,1.2s0.1,1,0.3,1.2c0.2,0.3,0.5,0.4,0.9,0.4c0.3,0,0.6-0.1,0.8-0.2c0.2-0.2,0.3-0.4,0.4-0.7
				h2.2c-0.2,0.8-0.5,1.5-1.1,2s-1.3,0.7-2.2,0.7c-0.7,0-1.2-0.1-1.7-0.4s-0.9-0.7-1.2-1.2c-0.3-0.5-0.4-1.1-0.4-1.8
				c0-0.7,0.1-1.3,0.4-1.8s0.7-0.9,1.2-1.2c0.5-0.3,1.1-0.4,1.8-0.4C438.1,315.3,438.8,315.6,439.4,316.1z"/>
			<path class="st6" d="M445.4,315.7c0.4,0.2,0.6,0.5,0.8,0.9v-1.2h2v6.7h-2v-1.2c-0.2,0.4-0.4,0.7-0.8,0.9
				c-0.4,0.2-0.8,0.3-1.3,0.3c-0.6,0-1-0.1-1.5-0.4c-0.4-0.3-0.8-0.7-1-1.2c-0.3-0.5-0.4-1.1-0.4-1.8c0-0.7,0.1-1.3,0.4-1.8
				s0.6-0.9,1-1.2c0.4-0.3,0.9-0.4,1.5-0.4C444.6,315.3,445,315.5,445.4,315.7z M443.7,317.6c-0.3,0.3-0.4,0.7-0.4,1.2
				s0.1,0.9,0.4,1.2c0.3,0.3,0.6,0.4,1.1,0.4c0.4,0,0.8-0.1,1.1-0.4c0.3-0.3,0.4-0.7,0.4-1.2s-0.1-0.9-0.4-1.2
				c-0.3-0.3-0.6-0.4-1.1-0.4C444.3,317.1,443.9,317.3,443.7,317.6z"/>
			<path class="st6" d="M452.7,315.7c0.4-0.2,0.8-0.4,1.3-0.4v2.2h-0.6c-0.5,0-1,0.1-1.3,0.3c-0.3,0.2-0.5,0.6-0.5,1.2v3h-2.1v-6.7
				h2.1v1.3C452,316.3,452.3,316,452.7,315.7z"/>
			<path class="st6" d="M461.2,319.2h-4.6c0,0.5,0.2,0.9,0.4,1.1c0.2,0.2,0.5,0.3,0.9,0.3c0.3,0,0.6-0.1,0.8-0.2
				c0.2-0.2,0.3-0.3,0.4-0.6h2.2c-0.1,0.5-0.3,0.9-0.6,1.3c-0.3,0.4-0.7,0.7-1.1,0.9c-0.5,0.2-1,0.3-1.5,0.3c-0.7,0-1.2-0.1-1.7-0.4
				s-0.9-0.7-1.2-1.2c-0.3-0.5-0.4-1.1-0.4-1.8c0-0.7,0.1-1.3,0.4-1.8s0.7-0.9,1.2-1.2c0.5-0.3,1.1-0.4,1.8-0.4
				c0.7,0,1.2,0.1,1.8,0.4c0.5,0.3,0.9,0.7,1.2,1.1c0.3,0.5,0.4,1.1,0.4,1.7C461.3,318.8,461.2,319,461.2,319.2z M458.8,317.3
				c-0.2-0.2-0.5-0.3-0.9-0.3s-0.7,0.1-0.9,0.3c-0.2,0.2-0.4,0.6-0.4,1h2.6C459.2,317.8,459.1,317.5,458.8,317.3z"/>
			<path class="st6" d="M470.4,315.8c0.4,0.3,0.8,0.7,1,1.2c0.3,0.5,0.4,1.1,0.4,1.8c0,0.7-0.1,1.3-0.4,1.8s-0.6,0.9-1,1.2
				c-0.4,0.3-0.9,0.4-1.5,0.4c-0.5,0-1-0.1-1.3-0.3c-0.4-0.2-0.6-0.5-0.8-0.9v4.4h-2.1v-9.9h2.1v1.2c0.2-0.4,0.4-0.7,0.8-0.9
				c0.4-0.2,0.8-0.3,1.3-0.3C469.4,315.3,469.9,315.5,470.4,315.8z M467.2,317.6c-0.3,0.3-0.4,0.7-0.4,1.2s0.1,0.9,0.4,1.2
				s0.6,0.4,1.1,0.4c0.4,0,0.8-0.1,1.1-0.4c0.3-0.3,0.4-0.7,0.4-1.2s-0.1-0.9-0.4-1.2s-0.6-0.4-1.1-0.4
				C467.8,317.1,467.5,317.3,467.2,317.6z"/>
			<path class="st6" d="M475.9,315.7c0.4-0.2,0.8-0.4,1.3-0.4v2.2h-0.6c-0.5,0-1,0.1-1.3,0.3c-0.3,0.2-0.5,0.6-0.5,1.2v3h-1.9v-6.7
				h2.1v1.3C475.2,316.3,475.5,316,475.9,315.7z"/>
			<path class="st6" d="M483,315.8c0.5,0.3,0.9,0.7,1.2,1.2c0.3,0.5,0.5,1.1,0.5,1.8c0,0.7-0.1,1.3-0.5,1.8
				c-0.3,0.5-0.7,0.9-1.2,1.2c-0.5,0.3-1.1,0.4-1.8,0.4s-1.3-0.1-1.8-0.4s-0.9-0.7-1.2-1.2c-0.3-0.5-0.5-1.1-0.5-1.8
				c0-0.7,0.2-1.3,0.5-1.8s0.7-0.9,1.2-1.2c0.5-0.3,1.1-0.4,1.8-0.4S482.5,315.5,483,315.8z M480.2,317.5c-0.3,0.3-0.4,0.7-0.4,1.2
				s0.1,0.9,0.4,1.2s0.6,0.4,1,0.4s0.7-0.1,1-0.4s0.4-0.7,0.4-1.2s-0.1-0.9-0.4-1.2c-0.3-0.3-0.6-0.4-1-0.4S480.5,317.3,480.2,317.5
				z"/>
			<path class="st6" d="M488.8,320.1l1.5-4.7h2.2l-2.4,6.7h-2.5l-2.4-6.7h2.2L488.8,320.1z"/>
			<path class="st6" d="M493.5,312.8c0.2-0.2,0.5-0.3,0.9-0.3s0.7,0.1,0.9,0.3c0.2,0.2,0.3,0.5,0.3,0.8s-0.1,0.6-0.3,0.8
				s-0.5,0.3-0.9,0.3s-0.7-0.1-0.9-0.3c-0.2-0.2-0.3-0.5-0.3-0.8C493.1,313.2,493.2,313,493.5,312.8z M495.4,315.4v6.7h-2.1v-6.7
				H495.4z"/>
			<path class="st6" d="M500.7,315.7c0.4,0.2,0.6,0.5,0.8,0.9v-3.4h2.1v8.9h-2.1v-1.2c-0.2,0.4-0.4,0.7-0.8,0.9
				c-0.4,0.2-0.8,0.3-1.3,0.3c-0.6,0-1-0.1-1.5-0.4s-0.8-0.7-1-1.2c-0.3-0.5-0.4-1.1-0.4-1.8c0-0.7,0.1-1.3,0.4-1.8s0.6-0.9,1-1.2
				c0.4-0.3,0.9-0.4,1.5-0.4C499.9,315.3,500.3,315.5,500.7,315.7z M498.9,317.6c-0.3,0.3-0.4,0.7-0.4,1.2s0.1,0.9,0.4,1.2
				c0.3,0.3,0.6,0.4,1.1,0.4c0.4,0,0.8-0.1,1.1-0.4s0.4-0.7,0.4-1.2s-0.1-0.9-0.4-1.2s-0.6-0.4-1.1-0.4
				C499.6,317.1,499.2,317.3,498.9,317.6z"/>
			<path class="st6" d="M511.2,319.2h-4.6c0,0.5,0.2,0.9,0.4,1.1c0.2,0.2,0.5,0.3,0.9,0.3c0.3,0,0.6-0.1,0.8-0.2
				c0.2-0.2,0.3-0.3,0.4-0.6h2.2c-0.1,0.5-0.3,0.9-0.6,1.3c-0.3,0.4-0.7,0.7-1.1,0.9c-0.5,0.2-1,0.3-1.5,0.3c-0.7,0-1.2-0.1-1.7-0.4
				s-0.9-0.7-1.2-1.2c-0.3-0.5-0.4-1.1-0.4-1.8c0-0.7,0.1-1.3,0.4-1.8s0.7-0.9,1.2-1.2c0.5-0.3,1.1-0.4,1.8-0.4
				c0.7,0,1.2,0.1,1.8,0.4c0.5,0.3,0.9,0.7,1.2,1.1c0.3,0.5,0.4,1.1,0.4,1.7C511.3,318.8,511.3,319,511.2,319.2z M508.9,317.3
				c-0.2-0.2-0.5-0.3-0.9-0.3s-0.7,0.1-0.9,0.3c-0.2,0.2-0.4,0.6-0.4,1h2.6C509.2,317.8,509.1,317.5,508.9,317.3z"/>
			<path class="st6" d="M515.4,315.7c0.4-0.2,0.8-0.4,1.3-0.4v2.2h-0.6c-0.5,0-1,0.1-1.3,0.3c-0.3,0.2-0.4,0.6-0.4,1.2v3h-2.1v-6.7
				h2.1v1.3C514.7,316.3,515,316,515.4,315.7z"/>
			<path class="st6" d="M522.1,316c0.5,0.4,0.8,1,1,1.7h-1.9c-0.1-0.3-0.2-0.5-0.4-0.6c-0.2-0.2-0.4-0.2-0.7-0.2
				c-0.2,0-0.4,0-0.5,0.1s-0.2,0.2-0.2,0.4c0,0.2,0.1,0.4,0.3,0.5s0.6,0.2,1,0.3c0.5,0.1,0.9,0.2,1.3,0.4c0.3,0.1,0.6,0.3,0.9,0.6
				s0.4,0.7,0.4,1.1s-0.1,0.7-0.3,1s-0.5,0.5-0.9,0.7s-0.9,0.3-1.4,0.3c-0.9,0-1.6-0.2-2.2-0.6c-0.5-0.4-0.9-1-1-1.7h2
				c0,0.3,0.2,0.5,0.4,0.7s0.5,0.2,0.8,0.2c0.2,0,0.4-0.1,0.5-0.2s0.2-0.3,0.2-0.4c0-0.2-0.1-0.4-0.3-0.5s-0.6-0.2-1.1-0.3
				c-0.5-0.1-0.9-0.2-1.2-0.3c-0.3-0.1-0.6-0.3-0.8-0.6c-0.2-0.3-0.3-0.6-0.3-1.1c0-0.6,0.2-1.1,0.7-1.5s1.1-0.6,1.9-0.6
				C520.9,315.3,521.5,315.6,522.1,316z"/>
			<path class="st6" d="M526,320.1v2.1h-2.1v-2.1H526z"/>
		</g>
	</g>
</g>
</svg>
