<svg xmlns="http://www.w3.org/2000/svg" viewBox="0 0 94.74 100"><defs><style>.cls-1{fill:#263863;}.cls-2{fill:#449a4e;}</style></defs><g id="Layer_2" data-name="Layer 2"><g id="Layer_1-2" data-name="Layer 1"><path class="cls-1" d="M59.76,28.22c.42-.32.46-.76.64-1.12a6.72,6.72,0,0,1,10.76-1.86c.86.85,1.79.55,2.13-.68.16-.55-.32-.54-.59-.66a38.57,38.57,0,0,1-8.41-5.09,33.36,33.36,0,0,1-3.8-3.52c-.48-.54-.82-.56-1.34,0-1,1-2,1.94-3,2.85a1.87,1.87,0,0,1-2.77,0c-.71-.86-.56-1.85.45-2.72A37.5,37.5,0,0,0,58,11.21c1.35-1.6,2.38-1.55,3.8.13A33.52,33.52,0,0,0,76.13,21.41c.2.07.39.16.59.21,1.51.38,2,.11,2.39-1.39a13,13,0,0,0-1.27-10,2.65,2.65,0,0,1-.48-1.46,1.75,1.75,0,0,1,3.27-.81,15.16,15.16,0,0,1,2.27,5.87,16.14,16.14,0,0,1-.38,7.5A1.26,1.26,0,0,0,83,22.89a5.14,5.14,0,0,1,1.67,5.36A8.07,8.07,0,0,1,79,34.72,1.42,1.42,0,0,0,78,36a18.27,18.27,0,0,1-7.4,12.29,3.31,3.31,0,0,0-.65,3c.23.39.6.28.93.28h7.57A16.65,16.65,0,0,1,94.53,65.33a15.29,15.29,0,0,1,.21,2.79c0,1.17-.59,1.86-1.59,1.92a1.65,1.65,0,0,1-1.87-1.74,13.59,13.59,0,0,0-4.73-10,14,14,0,0,0-9.61-3.18c-.67,0-.78.43-.87.94L71.69,79.8Q70,88.88,68.33,98c-.26,1.42-.81,2-1.82,2a1.66,1.66,0,0,1-1.76-2c.22-1.75.6-3.48.91-5.21.18-1,.36-2,.59-3.24A17.24,17.24,0,0,0,64,91.63c-.89.86-1.75,1.77-2.64,2.63a1.82,1.82,0,0,1-3,0c-1.57-1.56-3.12-3.13-4.91-4.61.24,1.36.48,2.72.73,4.08s.48,2.44.69,3.67a2.7,2.7,0,0,1,0,1.44A1.65,1.65,0,0,1,53.13,100a1.62,1.62,0,0,1-1.67-1.41c-.57-2.85-1.11-5.71-1.64-8.56L45.35,65.73c-.71-3.84-1.44-7.68-2.14-11.52-.32-1.8.38-2.58,2.22-2.59,1.14,0,2.28,0,3.42,0,.74,0,.92-.28,1-1a2.86,2.86,0,0,0-1.26-2.78,17.71,17.71,0,0,1-6.85-11.6,1.69,1.69,0,0,0-1.26-1.61,8.2,8.2,0,0,1-5.57-8.55,4.52,4.52,0,0,1,1.8-3.27,1.06,1.06,0,0,0,.38-1.33A16.69,16.69,0,0,1,51.12.14a14.52,14.52,0,0,1,7.15.75,4.06,4.06,0,0,0,3,0A16.44,16.44,0,0,1,74,1.86a9,9,0,0,1,1.16.67,1.81,1.81,0,0,1,.66,2.52,1.78,1.78,0,0,1-2.47.51A13.79,13.79,0,0,0,69.46,4a13.15,13.15,0,0,0-8.41.82,2.9,2.9,0,0,1-2.57,0A13.08,13.08,0,0,0,40,15.09a12.54,12.54,0,0,0,.57,5.85,1,1,0,0,0,1.06.76,5.49,5.49,0,0,0,1.92-.32,39.67,39.67,0,0,0,4.16-1.86c1.37-.72,2.39-.55,2.95.5s.09,1.94-1.34,2.68c-.8.41-1.6.83-2.43,1.17-.67.27-.76.54-.31,1.12,1,1.34.88,1.23,1.94.19a6.7,6.7,0,0,1,10.58,1.74C59.35,27.33,59.54,27.77,59.76,28.22ZM45,28.85A38.69,38.69,0,0,0,45.25,36a14.76,14.76,0,0,0,15.92,12.1,14.58,14.58,0,0,0,9.81-5c3.64-4.08,3.92-9,3.64-14.16A4.75,4.75,0,0,0,73,31.81,6.71,6.71,0,0,1,60.4,33c-.18-.35-.21-.8-.58-1.05-.26.13-.29.39-.38.6a6.72,6.72,0,0,1-12.83-1.11A6.52,6.52,0,0,0,45,28.85Zm17.88,58.4c0-.14,0-.21,0-.28Q61.9,79.89,61,72.82c-.09-.64-.22-1.13-1.12-1.14s-1.07.55-1.16,1.21q-.95,7-1.87,14a1.24,1.24,0,0,0,.34,1.14c.75.72,1.48,1.45,2.2,2.2.33.35.59.39.94,0,.74-.77,1.51-1.52,2.26-2.28A.93.93,0,0,0,62.86,87.25Zm-9.6-35.51A1.43,1.43,0,0,0,53.67,53q2.84,2.81,5.64,5.66c.38.39.66.37,1,0,.87-.9,1.76-1.77,2.64-2.65s2-2,3-3a1.74,1.74,0,0,0,.29-2c-.24-.52-.86,0-1.29.11A18.18,18.18,0,0,1,54.36,51C53.48,50.67,53.09,50.8,53.26,51.74ZM48.9,64.28l-.17,0,4.34,23.5c.58-4.22,1.13-8.22,1.67-12.22.22-1.57.42-3.15.63-4.72A1.22,1.22,0,0,0,55,69.67c-.23-.19-.41-.12-.65,0-1.49.68-2.16.46-3-1S49.72,65.75,48.9,64.28Zm22,0-.16,0c-.88,1.57-1.73,3.15-2.63,4.7a1.78,1.78,0,0,1-2.54.86c-.29-.14-.52-.49-.91-.17a1.22,1.22,0,0,0-.4,1.21c.75,5.57,1.51,11.15,2.29,17C68,79.84,69.47,72.07,70.91,64.31Zm-.67-9.22c-.64,0-1.28-.11-1.83.45-1.83,1.89-3.7,3.75-5.57,5.59-.44.43-.38.71,0,1.1.85.81,1.7,1.63,2.49,2.5.57.64.83.43,1.17-.2,1.47-2.71,3-5.4,4.46-8.1C71.74,55.09,71.73,55.09,70.24,55.09Zm-20.63,0H48.53c-.45,0-.57.14-.34.56q2.55,4.56,5.06,9.14c.26.47.51.47.87.1.84-.87,1.67-1.75,2.56-2.56.54-.5.51-.83,0-1.33q-2.53-2.45-5-5C51.07,55.36,50.43,54.86,49.61,55.09Zm3.62-21.84A3.23,3.23,0,0,0,56.37,30a3.2,3.2,0,1,0-3.14,3.21Zm13.24,0a3.24,3.24,0,0,0,3.18-3.17A3.2,3.2,0,0,0,63.26,30,3.25,3.25,0,0,0,66.47,33.25Zm-25-4.9V26c0-.27,0-.55-.27-.73-1-.6-2.87.37-2.83,1.55a4.84,4.84,0,0,0,2.36,4.14c.48.3.76.27.74-.39S41.49,29.07,41.49,28.35Zm36.66-.25c0,.8,0,1.59,0,2.39,0,.57.14.77.72.45a5.13,5.13,0,0,0,2.4-4.23c-.08-1-1-1.58-2.3-1.56s-.73.92-.8,1.5A8.78,8.78,0,0,0,78.15,28.1ZM59.7,68.2A2.63,2.63,0,0,0,62.15,67c.34-.72-.59-1-1-1.47-1.31-1.38-1.33-1.36-3,.28-1,1-.9,1.63.48,2.14A8.17,8.17,0,0,0,59.7,68.2Z"/><path class="cls-1" d="M40,75V97.62c0,1.88-.47,2.36-2.3,2.36H2.31C.5,100,0,99.5,0,97.73V77c0-1.18.48-1.86,1.37-2a1.72,1.72,0,0,1,2.09,1.91c0,3.81,0,7.62,0,11.43,0,2.42,0,4.85,0,7.27,0,.7.2,1,.94,1q15.61,0,31.22,0c.87,0,.91-.46.91-1.12q0-7.64,0-15.27V54.79c0-1.36,0-1.36-1.37-1.37s-2.76,0-4.15,0c-.69,0-1,.19-1,.94,0,2-.42,2.4-2.46,2.4H12.2c-1.72,0-2.25-.49-2.22-2.22,0-.86-.27-1.16-1.13-1.12q-2.17.09-4.35,0c-.85,0-1,.3-1,1.09,0,5.06,0,10.12,0,15.17,0,1.18-.48,1.86-1.37,2A1.73,1.73,0,0,1,0,69.76Q0,63,0,56.26V52.1C0,50.51.54,50,2.1,50c2.29,0,4.57,0,6.85,0,.76,0,1-.23,1-1,0-1.91.4-2.3,2.31-2.32.68,0,.94-.19,1-.92a6.74,6.74,0,0,1,13.34,0c.09.75.38.9,1,.9,1.89,0,2.29.41,2.3,2.34,0,.8.31,1,1,1,2.22,0,4.43,0,6.64,0,1.8,0,2.29.49,2.29,2.26ZM20,53.28h4.55c2.27,0,1.95.32,2-2.06,0-.85-.24-1.15-1.11-1.14-3.31,0-6.62,0-9.93,0-2.39,0-2.06-.38-2.12,2.17,0,.75.22,1,1,1C16.27,53.25,18.13,53.28,20,53.28Zm-.07-6.65c.82,0,1.65,0,2.48,0,.54,0,.75-.14.65-.72a3.37,3.37,0,0,0-3-2.43,3.32,3.32,0,0,0-3.12,2.41c-.1.56.07.76.63.74C18.34,46.61,19.13,46.63,19.93,46.63Z"/><path class="cls-2" d="M30,70.08c0,1,0,1.94,0,2.91,0,1.49-.57,2-2.09,2.05-.66,0-1.32,0-2,0s-.95.21-.92.9,0,1.59,0,2.39a1.61,1.61,0,0,1-1.7,1.7c-2.25,0-4.49,0-6.74,0A1.58,1.58,0,0,1,15,78.37,21.17,21.17,0,0,1,15,76c0-.74-.28-1-1-1s-1.45,0-2.18,0A1.65,1.65,0,0,1,10,73.25q0-3.27,0-6.54a1.64,1.64,0,0,1,1.83-1.78c.76,0,1.52,0,2.28,0,.61,0,.89-.21.86-.85,0-.83,0-1.66,0-2.49A1.58,1.58,0,0,1,16.59,60q3.38,0,6.74,0A1.59,1.59,0,0,1,25,61.64c0,.8,0,1.6,0,2.39s.26.93.92.9,1.38,0,2.07,0c1.42,0,2,.59,2,2C30,68,30,69.05,30,70.08ZM20.08,63.4c-1.68,0-1.68,0-1.68,1.67,0,.56,0,1.11,0,1.66a1.63,1.63,0,0,1-1.64,1.65c-.38,0-.76,0-1.14,0-2.48.07-2.17-.55-2.19,2.41,0,.59.26.79.82.78.72,0,1.45,0,2.17,0,1.38,0,2,.58,2,1.93,0,.28,0,.56,0,.83.06,2.51-.53,2.19,2.38,2.22.57,0,.81-.21.8-.79,0-.83,0-1.66,0-2.49a1.61,1.61,0,0,1,1.69-1.7c.83,0,1.66,0,2.48,0,.28,0,.64,0,.71-.29a5.16,5.16,0,0,0,0-2.56c-.21-.64-1-.33-1.49-.31-3.14.09-3.49-.26-3.39-3.47C21.62,63.4,21.58,63.4,20.08,63.4Z"/><path class="cls-1" d="M83.12,85.78c0,4.12,0,8.24,0,12.36A1.65,1.65,0,0,1,82,99.9a1.67,1.67,0,0,1-2-.59,1.79,1.79,0,0,1-.34-1.17q0-12.36,0-24.72a1.72,1.72,0,1,1,3.44,0C83.13,77.53,83.12,81.65,83.12,85.78Z"/><path class="cls-1" d="M91.28,86.61c0-3.84,0-7.69,0-11.53a1.64,1.64,0,0,1,1.17-1.76,1.68,1.68,0,0,1,2,.58,1.83,1.83,0,0,1,.34,1.17q0,11.54,0,23.07a1.72,1.72,0,1,1-3.44,0C91.27,94.3,91.28,90.46,91.28,86.61Z"/><path class="cls-1" d="M20,86.68H12c-1.3,0-2-.62-2-1.71s.68-1.75,2-1.75q8,0,16.07,0c1.3,0,2,.61,2,1.7s-.7,1.75-2.07,1.76Z"/><path class="cls-1" d="M19.88,93.33c-2.62,0-5.25,0-7.88,0-1.35,0-2.06-.64-2-1.78s.72-1.68,2-1.68q8,0,16,0c1.36,0,2.07.63,2,1.78s-.73,1.67-2,1.68C25.28,93.34,22.58,93.33,19.88,93.33Z"/><path class="cls-1" d="M59.8,43.4a11.28,11.28,0,0,1-5.62-1.67,1.8,1.8,0,1,1,1.85-3,7.11,7.11,0,0,0,7.57,0,1.8,1.8,0,1,1,1.87,3A11.34,11.34,0,0,1,59.8,43.4Z"/></g></g></svg>