<?xml version="1.0" encoding="utf-8"?>
<!-- Generator: Adobe Illustrator 24.2.1, SVG Export Plug-In . SVG Version: 6.00 Build 0)  -->
<svg version="1.1" id="Layer_1" xmlns="http://www.w3.org/2000/svg" xmlns:xlink="http://www.w3.org/1999/xlink" x="0px" y="0px"
	 viewBox="0 0 238 78" style="enable-background:new 0 0 238 78;" xml:space="preserve">
<style type="text/css">
	.st0{fill-rule:evenodd;clip-rule:evenodd;fill:#253759;}
</style>
<desc>Created with Sketch.</desc>
<g id="Page-1">
	<g id="Journal-Assets" transform="translate(-20.000000, -20.000000)">
		<g id="logo" transform="translate(20.000000, 20.000000)">
			<path id="Shape" class="st0" d="M34.5,64.9c-0.8,1.5-1.8,2.8-3,4c-1.3,1.3-2.7,2.3-4.3,3.2c-1.6,0.9-3.2,1.3-4.7,1.3
				c-0.7,0-1.4-0.1-2.1-0.3s-1.3-0.4-1.9-0.9c-0.5-0.3-1-0.9-1.4-1.4s-0.5-1.1-0.5-1.8c0-1,0.3-1.8,0.9-2.4s1.5-0.9,2.6-0.9
				c0.9,0,1.7,0.3,2.2,0.9c0.4,0.6,0.9,1.2,1,2c0.3,0.7,0.5,1.4,0.9,2c0.3,0.6,0.9,0.9,1.6,0.9c0.9-0.2,1.6-0.6,2.1-1.2
				s0.9-1.3,1.1-2.2c0.3-0.9,0.4-1.7,0.4-2.7c0.1-0.9,0.1-1.9,0.2-2.8c0.1-1.8,0.2-3.5,0.2-5.3v-3.9V31c0-0.3,0-0.6-0.1-0.8
				c-0.1-0.2-0.3-0.3-0.6-0.7c-0.3-0.3-0.9-0.7-1.7-1.1s-1.5-0.8-2-1.1v-0.5l9.7-3.8h0.4v3.8v6.6v8v8.2v7v4.3
				C35.7,62,35.3,63.4,34.5,64.9L34.5,64.9z M35.1,14.9c-0.7,0.7-1.6,1-2.7,1s-1.9-0.3-2.7-1.1c-0.8-0.8-1.1-1.6-1.1-2.7
				s0.3-2,1-2.7s1.6-1,2.7-1c1,0,2,0.3,2.7,1s1,1.6,1,2.7C36.2,13.3,35.8,14.2,35.1,14.9L35.1,14.9z"/>
			<path id="Shape_1_" class="st0" d="M73.6,46.3c-0.9,2.1-2.1,4-3.5,5.5c-1.5,1.6-3.2,2.8-5.2,3.7s-4,1.3-6.2,1.3
				c-1.8,0-3.7-0.3-5.6-0.9c-2-0.7-3.7-1.6-5.3-3.1c-1.6-1.4-3-3.2-4-5.4s-1.6-4.7-1.6-7.8c0-2.2,0.4-4.2,1.2-6.2s2-3.8,3.4-5.3
				c1.5-1.6,3.2-2.8,5.3-3.7c2.1-0.9,4.3-1.4,6.8-1.4c1.8,0,3.7,0.3,5.6,1s3.6,1.7,5.2,3.1s2.8,3.1,3.8,5.2s1.5,4.5,1.5,7.2
				C75,42,74.6,44.2,73.6,46.3L73.6,46.3z M68,34.5c-0.3-1.8-0.9-3.4-1.7-5c-0.8-1.6-1.8-2.8-3.1-3.8c-1.3-1-2.9-1.5-4.8-1.5
				c-1.6,0-2.9,0.4-4.1,1.4c-1.2,0.9-2.2,2.2-3.1,3.6c-0.9,1.5-1.5,3.2-2,5.1c-0.4,1.9-0.7,3.8-0.7,5.8c0,2.2,0.2,4.1,0.5,6
				s0.9,3.6,1.8,5c0.9,1.5,1.9,2.6,3.2,3.4c1.3,0.9,2.8,1.3,4.7,1.3s3.4-0.5,4.6-1.6c1.2-1.1,2.2-2.4,3-4.1c0.8-1.6,1.3-3.4,1.6-5.3
				s0.5-3.6,0.5-5.3C68.5,37.9,68.4,36.3,68,34.5L68,34.5z"/>
			<path id="Shape_2_" class="st0" d="M101.6,56.7h-0.5v-7l-0.1-0.1c-0.5,0.8-1.1,1.6-1.9,2.5s-1.6,1.6-2.5,2.4
				c-0.9,0.7-2,1.3-3.1,1.7s-2.3,0.6-3.6,0.6c-2.9,0-5.2-0.9-6.5-2.7c-1.4-1.7-2.2-4.3-2.2-7.7v-17v-0.8c0-0.3,0-0.7-0.1-1
				c0-0.3,0-0.7-0.1-0.9c0-0.3-0.1-0.5-0.2-0.7c-0.2-0.4-0.4-0.7-0.8-0.9c-0.3-0.2-0.7-0.3-1.1-0.4s-0.9-0.2-1.3-0.2
				s-0.9-0.1-1.3-0.1v-0.8H87V44c0,3,0.4,5.3,1.4,6.8c0.9,1.5,2.7,2.2,5.3,2.2c0.9,0,1.8-0.1,2.6-0.3c0.7-0.3,1.4-0.6,2-0.9
				c0.6-0.4,1.1-0.9,1.6-1.4s0.9-1,1.4-1.6V28.9c0-0.4-0.1-1-0.2-1.8c-0.1-0.7-0.3-1.3-0.5-1.6c-0.5-0.3-1.3-0.4-2.2-0.5
				c-0.9-0.2-1.9-0.3-2.9-0.3v-0.8H107v27.4c0,0.3,0,0.7,0.1,0.9s0.3,0.4,0.6,0.6c0.4,0.3,1,0.5,1.8,0.9c0.8,0.3,1.5,0.7,2.1,0.9V55
				L101.6,56.7L101.6,56.7z"/>
			<path id="Shape_3_" class="st0" d="M136.2,29.3c-0.6,0.7-1.3,1-2.1,1s-1.3-0.1-1.8-0.3c-0.4-0.3-0.9-0.5-1.1-0.9
				c-0.3-0.3-0.7-0.6-1-0.9s-0.9-0.3-1.6-0.3c-0.5,0-1.1,0.2-1.6,0.6s-1,0.9-1.5,1.5c-0.4,0.6-0.9,1.3-1.3,2.1
				c-0.3,0.8-0.7,1.5-0.9,2.2v20c0.2,0.4,0.4,0.8,0.9,0.9c0.4,0.3,0.9,0.4,1.6,0.5c0.6,0.1,1.2,0.2,1.8,0.2s1.2,0.1,1.6,0.2v0.7
				h-15.6V56c1-0.1,2-0.3,2.8-0.6s1.1-0.9,1.1-1.6V30.3c0-0.3,0-0.7-0.1-0.9c-0.1-0.2-0.3-0.4-0.6-0.6c-0.4-0.3-0.9-0.5-1.5-0.9
				c-0.5-0.3-1.1-0.6-1.6-0.9v-0.4l9.1-3.5h0.4l-0.2,9.6h0.2c0.3-0.5,0.6-1.4,1.1-2.4s1.1-2.2,2-3.2c0.8-1.1,1.7-2.1,2.8-2.8
				s2.4-1.2,3.8-1.2c1.1,0,2.2,0.3,2.9,1c0.8,0.7,1.2,1.6,1.2,2.7C137.1,27.8,136.8,28.6,136.2,29.3L136.2,29.3z"/>
			<path id="Shape_4_" class="st0" d="M158.8,56.6v-0.8c1.3-0.1,2.2-0.3,3-0.4c0.8-0.2,1.1-0.7,1.1-1.5V36.5c0-2.7-0.5-4.8-1.6-6.5
				c-1-1.6-2.8-2.5-5.2-2.5c-1.6,0-2.8,0.3-3.8,0.9c-1,0.7-2.2,1.6-3.4,2.8V54c0.1,0.4,0.3,0.8,0.5,1c0.3,0.2,0.5,0.3,0.9,0.4
				c0.3,0.1,0.7,0.2,1.1,0.2c0.4,0,0.9,0.1,1.3,0.2v0.7h-13.4v-0.7c1-0.1,2-0.3,2.8-0.6s1.1-0.9,1.1-1.6V29.8c0-0.3,0-0.7-0.1-0.9
				c-0.1-0.2-0.3-0.4-0.6-0.6c-0.4-0.3-0.9-0.5-1.5-0.8c-0.5-0.3-1.1-0.6-1.6-0.8v-0.4l9.1-3.3h0.4v7.5l0.2,0.1
				c0.5-0.8,1.1-1.6,1.9-2.5c0.8-0.9,1.6-1.7,2.6-2.5c0.9-0.8,2.1-1.4,3.2-1.8c1.1-0.5,2.3-0.7,3.6-0.7c2.7,0,4.7,1,6.2,3
				s2.2,4.6,2.2,7.8v20.4c0,0.3,0.2,0.6,0.4,0.9s0.7,0.4,1,0.5c0.4,0.1,0.9,0.2,1.4,0.3s0.9,0.1,1.4,0.2v0.6h-14.2L158.8,56.6
				L158.8,56.6z"/>
			<path id="Shape_5_" class="st0" d="M203.5,52.4c-0.3,0.9-0.9,1.6-1.5,2.2s-1.3,1.2-2.2,1.6c-0.8,0.3-1.7,0.5-2.7,0.5
				c-1.6,0-3-0.4-4.2-1.4c-1.2-0.9-1.8-2.6-1.8-4.8l-0.2-0.1c-0.3,0.6-0.9,1.3-1.5,2c-0.6,0.8-1.4,1.5-2.2,2.1
				c-0.9,0.7-1.8,1.2-2.8,1.6c-1,0.4-2.2,0.6-3.4,0.6c-0.8,0-1.5-0.1-2.2-0.3c-0.8-0.2-1.5-0.6-2.1-1.1s-1.1-1.2-1.6-2.1
				s-0.6-1.8-0.6-3c0-1.3,0.5-2.6,1.6-3.8c1-1.2,2.3-2.3,3.9-3.3c1.6-0.9,2.8-1.8,4-2.5s2.2-1.3,3.1-1.8c0.9-0.5,1.6-0.9,2.3-1.3
				c0.7-0.3,1.2-0.7,1.7-0.9v-7.1c0-0.1-0.1-0.3-0.3-0.7c-0.2-0.3-0.4-0.7-0.9-1c-0.4-0.3-0.9-0.7-1.6-1c-0.7-0.3-1.6-0.4-2.7-0.4
				c-0.8,0-1.5,0.1-2.2,0.3c-0.7,0.3-1.4,0.6-1.9,0.9c-0.5,0.4-1,0.8-1.3,1.2c-0.3,0.4-0.5,0.7-0.5,1v3.1c0,0.7-0.3,1.2-1,1.7
				s-1.4,0.8-2.2,0.8s-1.4-0.3-1.9-0.8s-0.8-1.1-0.8-1.8c0-0.5,0.2-1,0.4-1.6c0.3-0.4,0.6-0.9,1-1.3c0.4-0.3,0.9-0.7,1.4-0.9
				c0.5-0.3,0.9-0.5,1.3-0.8c1.2-0.7,2.4-1.4,3.7-2c1.3-0.7,2.4-1.2,3.6-1.6c1.1-0.4,2.2-0.9,3.1-1.1c0.9-0.3,1.7-0.4,2.3-0.4
				c1.2,0,2.3,0.3,3.4,0.9c1,0.6,1.8,1.4,2.3,2.3c0.2,0.3,0.3,0.9,0.3,1.7c0.1,0.8,0.1,1.6,0.1,2.4v4.5v3.9v3.9V47
				c0,2.1,0.3,3.4,1,4.1c0.7,0.7,1.6,1,2.5,1c1,0,1.8-0.3,2.3-0.7s0.9-1,1-1.7h0.4C204.1,50.7,203.8,51.5,203.5,52.4L203.5,52.4z
				 M191.2,37.7c-0.9,0.6-1.9,1.2-3.1,1.9c-1.3,0.7-2.5,1.4-3.6,2.2c-1.2,0.8-2.2,1.6-3,2.6c-0.9,0.9-1.3,2.1-1.3,3.2
				c0,1.2,0.4,2.3,1.3,3.3c0.9,0.9,1.9,1.5,3.3,1.5c1.2,0,2.2-0.2,3.2-0.4c0.9-0.3,1.8-0.8,2.6-1.6c0.5-0.5,0.9-1.1,0.9-2V37.7
				H191.2z"/>
			<path id="Shape_6_" class="st0" d="M205.2,56.6v-0.8c2.2-0.2,3.5-0.3,4.2-0.7c0.7-0.3,1-0.9,1-1.6V13.7c0-0.3,0-0.7-0.1-0.9
				s-0.3-0.4-0.6-0.6c-0.4-0.3-1-0.6-1.9-1c-0.9-0.5-1.6-0.9-2.1-1V9.7l9.9-3.3h0.5v47.5c0,0.4,0.1,0.8,0.3,1
				c0.2,0.3,0.5,0.4,0.9,0.5s0.9,0.2,1.6,0.2s1.4,0.1,2.3,0.2v0.8L205.2,56.6L205.2,56.6z"/>
			<rect id="_x2D_--" x="42.1" y="65.9" class="st0" width="179.2" height="2.8"/>
		</g>
	</g>
</g>
</svg>
