<?xml version="1.0" encoding="utf-8"?>
<!-- Generator: Adobe Illustrator 24.2.1, SVG Export Plug-In . SVG Version: 6.00 Build 0)  -->
<svg version="1.1" id="Layer_1" xmlns="http://www.w3.org/2000/svg" xmlns:xlink="http://www.w3.org/1999/xlink" x="0px" y="0px"
	 viewBox="0 0 1211.6 399.9" style="enable-background:new 0 0 1211.6 399.9;" xml:space="preserve">
<style type="text/css">
	.st0{fill:#7ADBD4;}
	.st1{fill:#8E8E8E;}
	.st2{fill:#316094;}
	.st3{enable-background:new    ;}
	.st4{fill:#797878;}
</style>
<g>
	<g id="QeCHwo.tif_3_">
		<path class="st0" d="M1116.3,303.7c-1.3,2.7-1.1,5.7-1.7,8.5c-5.8,27.5-27.1,48.4-54.6,53.2c-3,0.4-6.1,0.7-9.1,0.8
			c-2.4,0.2-4.4-0.6-4.4-3.4c0-2.6,2-3.2,4.2-3.3c20.8-0.7,36.8-10.1,48.4-27.2c7.3-10.8,10.4-22.9,10.4-35.9c0-30.1,0-60.2,0-90.4
			c0-43.8,0-87.6,0-131.4c0-20.1-7.5-37-23-49.9c-10.1-8.4-22-12.6-35.1-13.2c-1.5-0.1-3.1,0-4.6,0c-142.7,0-285.5,0.3-428.2-0.2
			c-37-0.1-63.8,28.7-63.7,63.4c0.2,73.8-0.1,147.6,0.1,221.5c0.1,26.4,11.8,46.1,35.7,58.1c7.1,3.5,14.9,5.3,22.8,5.2
			c2.4,0,4.3,0.6,4.6,3.3c0.2,2.3-1.5,3.4-4.7,3.4c-28.4-0.2-54.5-21-62.3-49.5c-1.8-6.8-2.7-13.8-2.6-20.9
			c0-73.5-0.1-147,0.1-220.5c0.1-29.5,13.2-51.4,39.9-64.6c8.4-4.2,17.6-5.8,27-5.8c144.7,0,289.4,0,434,0c33,0,61.1,24.5,66.1,57.2
			c0.3,1.7-0.1,3.6,1.1,5.1L1116.3,303.7z"/>
		<path class="st1" d="M687.5,396.2c0.1-0.6,0.1-1.2,0-1.8c-0.4-2.1,0.4-2.7,2.6-2.6c4.7,0.1,8.7-3.6,8.8-8.3c0-1.1-0.2-2.3-0.6-3.4
			L686.2,347c4.6-1.2,4.8-1.1,6.3,3.2l9.4,27l6.4-19.2c1-2.5,1.8-5,2.4-7.5c0.7-3.4,2.3-5,6.1-3.7c-2.1,6-4.2,12.1-6.3,18.2
			c-2.6,7.3-5.1,14.6-7.8,21.8c-1.5,4.1-3.7,7.6-7.9,9.4L687.5,396.2z"/>
		<path class="st2" d="M91,165.6c0.3,0.8,1.1,0.8,1.8,1c12.1,4.5,17.7,14,20,26.1c1,5.7,1.4,11.6,1.3,17.4
			c0.1,10.7-0.6,21.4,1.1,32.1c0.7,4.4,0.8,4.4-3.7,4.4c-5.3,0-10.6-0.1-15.9,0.1c-2.4,0.1-3.2-0.9-3.7-2.9
			c-1.2-5.6-1.8-11.3-1.8-17c-0.3-9.1,0.3-18.2-0.5-27.2c-1.3-13.4-8.1-20.6-21.5-22.5c-10.4-1.4-20.8-0.7-31.2-0.9
			c-3.5-0.1-6.9,0.1-10.4-0.1c-2.3-0.1-2.6,0.7-2.6,2.7c0.1,21.5,0,43.1,0.1,64.6c0,2.5-0.5,3.3-3.1,3.2c-6-0.2-12-0.2-18.1,0
			c-2.4,0.1-2.8-0.7-2.8-2.9c0.1-38.1,0.1-76.2,0-114.2c0-14.3,0-28.6,0-42.9c0-2.1,0.3-2.9,2.7-2.9c21.5,0.1,43.1,0,64.6,0.1
			c9.5-0.1,18.9,2,27.5,6.2c17.4,8.9,23.8,25.6,21.9,42.8C115,149,106.5,160.1,91,165.6z M23.9,129.7c0,7.7,0.1,15.3-0.1,22.9
			c-0.1,2.5,0.4,3.5,3.2,3.4c10.2-0.2,20.4-0.1,30.6-0.1c4.5,0,9-0.4,13.4-1.2c11.7-2.1,18.5-8.3,20.6-18.8
			c0.6-3.4,0.7-6.9,0.3-10.4c-0.9-8.1-4.7-14.2-12-18c-4.6-2.4-9.8-3.7-15-3.7C52,103.6,39,103.7,26,103.5c-2.1,0-2.3,0.8-2.2,2.5
			C24,114.1,23.9,121.9,23.9,129.7L23.9,129.7z"/>
		<path class="st2" d="M294.7,144.6c14.5-26.4,62-29.9,78.3,5.9c11.5,25.2,10.4,50.8-3,75c-12.6,22.7-37.6,27.9-57.9,21.4
			c-7.2-2.3-12.8-6.9-17.5-14c0,2,0,2.9,0,4c0,17.6-0.1,35.3,0.1,53c0,2.9-0.9,3.5-3.6,3.4c-5.5-0.2-11-0.2-16.5,0
			c-2.4,0.1-3-0.6-3-3c0.1-35.1,0.1-70.2,0-105.4c0-18.3,0-36.5-0.2-54.8c0-2.5,0.7-3,3-2.9c5.7,0.2,11.4,0.1,17.1,0
			c1.9,0,2.5,0.6,2.5,2.4C294.2,134.3,294.5,139.1,294.7,144.6z M356.7,183.1c-0.1-7-1.3-13.8-3.8-20.4
			c-5.2-13.4-15.2-19.6-30.2-18.9c-13.6,0.6-23.1,8.1-26.6,21.6c-3.7,14.3-3.7,29.3,0.1,43.6c1.9,7.5,5.8,13.9,13,17.7
			c16.1,8.6,35.2,2,42.6-14.7C355.6,203.5,356.5,194.5,356.7,183.1L356.7,183.1z"/>
		<path class="st0" d="M770.7,229.8c-0.1,0.4-0.2,0.8-0.4,1.2c-11.2,13.2-31.3,18.4-47.5,12.4c-11.7-4.3-18.9-15-18.6-27.8
			c0.3-15.5,7.3-26.8,21.2-33.7c9.8-4.9,20.4-6.9,31.2-8c8.2-0.8,16.5-1.2,24.8-1.2c1.8,0,2.5-0.6,2.7-2.3c0.5-3.9,1.6-7.8,1.4-11.8
			c-0.4-6.4-3.8-10.8-10-12.2c-5.1-1.2-10.4-1.1-15.5,0.2c-6.3,1.6-10.4,5.8-12.9,11.6c-0.8,1.8-1.6,2.6-3.8,2.6
			c-7.2-0.2-14.5-0.1-21.7,0c-2,0-2.4-0.3-1.8-2.3c4.2-15.3,14.2-24.9,29.4-28.9c14-3.7,28.1-4,42,0.3c15.7,4.9,23.4,17.4,20.3,33.6
			c-3.3,17.5-7.3,34.9-11,52.3c-1.8,8.4-3.6,16.7-4.7,25.2c-0.2,1.6-0.5,2.5-2.5,2.5c-7-0.2-14.1-0.1-21.1,0c-1.8,0-2.3-0.5-2-2.3
			c0.5-3.6,1-7.2,1.4-10.8L770.7,229.8z M744.3,225.2c14.5-0.1,23.2-5.2,28.8-15.4c2.9-5.3,4.6-11.1,6.1-16.9
			c0.6-2.1-0.1-2.6-2.1-2.4c-6,0.5-12,0.6-18,1.3c-6.2,0.7-12.3,2-17.9,4.8c-5.3,2.7-8.8,6.9-9.6,12.9
			C730.4,219.2,736.5,225.3,744.3,225.2L744.3,225.2z"/>
		<path class="st0" d="M1059.8,129.1l-19.4,37.1c-15.3,29.3-30.7,58.6-46.1,87.9c-3.6,7-7.9,13.6-12.8,19.7
			c-8,10-18.3,15.3-31.1,15.8c-6.6,0.3-13.3,0-19.8-1c-2-0.3-2-1.1-1.7-2.6c1.4-5.9,2.8-11.7,3.9-17.6c0.4-1.9,1-2.3,2.8-2
			c4,0.7,8.1,0.9,12.2,0.4c5.9-0.5,10.5-3.1,14.6-7.4c5.7-6,6-12.7,4.9-20.5c-5.1-35.9-9.7-72-14.5-108c-0.2-1.8,0.3-2,1.8-2
			c7.4,0,14.7,0.1,22.1,0c1.6,0,2.2,0.3,2.4,2.1c1.3,13.9,2.8,27.8,4.1,41.7c1.5,16,3.1,32,4,48.6c0.9-0.7,1.6-1.7,1.9-2.9
			c13.4-29,27.2-57.8,41.5-86.4c1.2-2.3,2.4-3.2,5.1-3.1C1043.6,129.2,1051.4,129.1,1059.8,129.1z"/>
		<path class="st2" d="M243.6,213c-4.6,18.8-21,33.1-40.4,35.5c-9.7,1.2-19.4,1.1-28.7-2c-15.7-5.2-25.6-16.4-30.8-31.6
			c-6.7-19.1-6.2-39.9,1.5-58.6c9.6-23.8,30.3-33.4,53.5-31.8c18.4,1.3,32.4,9.5,40.7,26.4c3.8,7.9,6,16.5,6.3,25.3
			c0.2,3.8-0.1,7.6,0.1,11.3c0.2,2.9-0.6,3.7-3.7,3.7c-25.4-0.1-50.8,0-76.3-0.1c-2.9,0-3.6,0.7-3.3,3.5c0.9,9.2,3.1,17.7,8.7,25.3
			c10.8,14.7,40.7,14.6,48.5-5c0.5-1.2,0.9-2.1,2.5-2C229.3,213.1,236.4,213,243.6,213z M192.7,175.6c8.9,0,17.8-0.2,26.6,0.1
			c2.9,0.1,3.5-1,3.1-3.4c-0.5-2.7-0.7-5.5-1.3-8.1c-3.2-13.2-12.2-21-25.2-22c-13.6-1-24.1,5.4-29.1,17.7
			c-1.6,4.3-2.8,8.7-3.3,13.3c-0.3,2.2,0.3,2.5,2.3,2.5C174.8,175.6,183.8,175.6,192.7,175.6L192.7,175.6z"/>
		<path class="st2" d="M481,230.2c-0.3,0.3-0.6,0.6-0.9,1c-6.7,12.6-17.9,17.4-31.5,18.1c-6.7,0.3-13.3-0.2-19.6-2.6
			c-13.3-5.1-19.7-15.5-22.1-28.9c-0.7-4-1-8.1-1-12.2c0-25.1,0-50.2-0.1-75.4c0-2.4,0.6-3.1,3-3c5.6,0.2,11.2,0.2,16.8,0
			c2.5-0.1,3.2,0.5,3.2,3.1c-0.1,23.2-0.1,46.4-0.1,69.5c-0.1,4.8,0.4,9.6,1.7,14.2c2.8,9.5,9.1,14.7,19,15.5
			c3.8,0.3,7.6,0.1,11.3-0.7c9.6-2,15.1-8.3,17.7-17.4c1.6-6.1,2.4-12.4,2.4-18.8c0.1-20.8,0.1-41.7,0-62.5c0-2.5,0.7-3,3-2.9
			c5.6,0.2,11.2,0.2,16.8,0c2.5-0.1,3.2,0.5,3.2,3.1c-0.1,15.1-0.1,30.2-0.1,45.3c0.1,22.6,0.1,45.1,0.4,67.7c0,2.8-0.7,3.4-3.4,3.3
			c-5.6-0.2-11.2-0.1-16.8,0c-1.8,0-2.4-0.4-2.6-2.3C481.1,239.7,481,235.2,481,230.2z"/>
		<path class="st0" d="M676.8,89.6c18.8,0,37.6,0.1,56.3-0.1c3.1,0,3.2,0.9,2.6,3.4c-1.3,5.5-2.6,11.1-3.6,16.7
			c-0.4,2-1.2,2.5-3.2,2.5c-13.5-0.1-26.9,0-40.4-0.1c-2.1,0-3,0.5-3.4,2.6c-8.8,42-17.6,83.9-26.4,125.9c-0.4,2-1,2.9-3.3,2.8
			c-7.3-0.2-14.7-0.2-22,0c-2.2,0-2.5-0.6-2.1-2.6c8.9-41.8,17.8-83.7,26.7-125.5c0.5-2.6,0.1-3.2-2.6-3.2
			c-13.3,0.1-26.5,0-39.8,0.1c-2.3,0-2.9-0.4-2.3-2.8c1.5-5.4,2.6-10.9,3.5-16.4c0.5-2.9,1.7-3.4,4.4-3.4
			C639.7,89.7,658.3,89.6,676.8,89.6z"/>
		<path class="st0" d="M895.2,243.3c-3.6,0-7.2-0.1-10.7,0c-2.3,0.1-2.5-0.8-2.1-2.6c2.9-13.7,5.9-27.5,8.8-41.2
			c8.1-38.3,16.1-76.5,24.2-114.8c0.7-3.2,1.8-4.2,5.1-4c6.5,0.3,13.1,0.2,19.6,0c2,0,2.5,0.3,2,2.5
			c-11.2,52.6-22.4,105.3-33.4,157.9c-0.4,1.7-0.9,2.4-2.8,2.3C902.3,243.2,898.8,243.3,895.2,243.3z"/>
		<path class="st0" d="M885.8,80.7l-14.2,67.4c-6.4,30.5-12.9,61-19.3,91.5c-0.6,2.9-1.5,3.9-4.6,3.8c-6.7-0.3-13.5-0.1-20.2-0.1
			c-1.6,0-2.3,0-1.9-2.1c9-42.4,18-84.8,26.9-127.3c2.1-10.2,4.3-20.3,6.4-30.5c0.4-2,1-2.8,3.3-2.8C870,80.9,877.8,80.7,885.8,80.7
			z"/>
		<path class="st1" d="M933.7,375.1c-6.1,7.6-13.8,8.3-21.9,6.1c-8.5-2.3-12.5-8.9-14.1-17.2c-1.3-6.3-0.7-12.9,1.7-18.9
			c5.1-12.5,21.5-17.3,32.6-9.5c2.9,2,5,4.9,6,8.2c0.3,0.9,1.4,2.5-0.1,2.7c-1.5,0.3-3.7,1.3-4.7-1.2c-1.1-3.2-3.4-5.9-6.5-7.4
			c-8-4.1-17.7-0.9-21.8,7.1c-0.3,0.6-0.6,1.3-0.8,1.9c-2.5,6.6-2.5,13.8,0,20.3c3.4,9.1,13,13,21.8,9.1c4.8-2.1,8.9-10.6,7.6-15.6
			c-0.3-1.3-1.2-0.8-1.9-0.9c-3.7,0-7.4-0.1-11,0c-2.1,0.1-2-1-2-2.4c-0.1-1.6,0.4-2.1,2.1-2.1c5.3,0.1,10.6,0.1,15.9,0
			c1.5,0,1.9,0.5,1.9,2c-0.1,7.4-0.1,14.9,0,22.3c0,1.3-0.4,2-1.7,1.7c-1.1-0.1-2.6,0.6-2.6-1.5
			C934.2,378.6,933.9,377.1,933.7,375.1z"/>
		<path class="st1" d="M767.4,357.3c4.8,1.7,6.9,5,7.2,9.5c0.3,4.4,0.3,9.2,0.6,13.7c0.1,1.1-0.5,1.3-1.2,1.1
			c-1.3-0.4-3.2,1.2-3.8-1.2c-0.4-2.4-0.6-4.9-0.5-7.3c0-1.6,0-3.3-0.1-4.9c-0.2-5.5-2.7-8.2-8.3-8.6c-4.1-0.3-8.2,0-12.2-0.2
			c-1.8-0.1-1.6,1-1.6,2.1c0,5.9-0.1,11.8,0.1,17.7c0.1,2.3-1,2.3-2.7,2.3s-2.5-0.2-2.5-2.3c0.1-14.8,0.1-29.6,0-44.4
			c0-1.3-0.1-2.4,1.8-2.3c6.6,0.2,13.3-0.4,19.9,0.4c8.6,1,13.4,8.3,11,16.6C774,353.4,771.3,355.6,767.4,357.3z M747.7,346.1h-0.2
			c0,2.4,0,4.9,0,7.3c0,0.8-0.1,1.7,1.2,1.7c5.2-0.2,10.4,0.6,15.5-0.7c4.1-1,6-3.8,6.1-8c0.1-4.5-1.8-7.1-6-8.4
			c-2.6-0.8-5.2-0.6-7.8-0.6c-2.9,0.1-6.8-1.3-8.4,0.5C746.6,339.4,747.7,343.2,747.7,346.1L747.7,346.1z"/>
		<path class="st1" d="M655.8,351.3c4.6-5.7,10-6.9,15.9-5c6.1,1.9,8.8,6.9,9.8,12.9c0.9,5.2,0.2,10.5-2,15.2
			c-4.3,9.6-18.4,10.8-23.4,3.3c-0.8,0.5-0.5,1.3-0.4,1.9c0.3,2.2-1,2.1-2.6,2.2c-1.8,0.1-2.2-0.6-2.1-2.3c0.1-15.5,0.1-31,0.1-46.5
			c0-1.6-0.2-2.9,2.3-2.8c2.2,0,2.4,0.9,2.4,2.7C655.7,338.6,655.8,344.5,655.8,351.3z M655.6,363.9c-0.1,2.6,0.2,5.2,1,7.7
			c1.1,4,4.7,6.7,8.9,6.7c4.3,0.2,7.6-1.6,9.4-5.5c2.5-5.2,2.8-11.2,0.7-16.6c-1.4-4.1-5.4-6.8-9.8-6.4c-4.9,0.2-8.3,2.8-9.5,7.6
			C655.7,359.5,655.5,361.7,655.6,363.9z"/>
		<path class="st1" d="M826.4,377.7c0,5.6-0.1,10.7,0.1,15.8c0.1,2.3-1.1,2.1-2.6,2.2c-1.7,0.1-2.3-0.4-2.2-2.2
			c0.1-14.9,0-29.8,0-44.6c0-1.4-0.1-2.5,2-2.4c1.7,0.1,3,0.1,2.8,2.3c0,1,0,2,0.1,2.9c2.4-3.7,6.6-6.1,11-6.2
			c6.6-0.4,12.3,4.1,14,11.2c1.1,4.8,1,9.8-0.4,14.5c-1.9,7.8-9.7,12.6-17.5,10.8C830.9,381.3,828.4,379.8,826.4,377.7z
			 M847.4,363.5c0.2-2.6-0.3-5.2-1.3-7.6c-1.5-3.9-5.2-6.3-9.4-6.1c-5,0.2-8.1,2.4-9.6,7c-1.2,4-1.4,8.3-0.6,12.4
			c0.9,5.6,3.8,8.5,9.2,9c4.9,0.5,8.7-2.1,10.5-7.1C847.1,368.7,847.5,366.1,847.4,363.5L847.4,363.5z"/>
		<path class="st1" d="M812.4,372.5c-1.7,5.9-5.9,9.2-12,9.8c-6.9,0.7-12.1-1.8-14.8-7.4c-3.5-6.9-3.4-15,0.2-21.8
			c2.9-5.9,8.9-8.4,15.7-7.3c6.1,1,10.3,5.3,11.5,11.9c1.3,7.1,1.3,7.1-5.8,7.1c-5.7,0-11.4,0.1-17.1,0c-1.8,0-2.3,0.5-2,2.3
			c1,8.2,6.5,12.6,13.7,10.8c1.8-0.5,3.7-1.3,4.5-2.9C807.5,372.1,809.6,371.9,812.4,372.5z M798.1,361.1c2.9,0,5.7-0.1,8.6,0
			c1.7,0.1,2-0.5,1.8-2.2c-0.8-5.7-4.3-9.2-9.5-9.3c-5.6-0.1-9.4,3.4-10.4,9.2c-0.3,1.6,0,2.5,1.9,2.3
			C793,361,795.5,361.1,798.1,361.1L798.1,361.1z"/>
		<path class="st1" d="M976.3,372.5c-1.7,5.1-4.9,8.4-9.8,9.4c-5.4,1.2-10.6,0.7-14.7-3.7c-6.5-6.8-6.4-21.8,0.3-28.5
			c4.5-4.5,10-5.3,15.9-3.3c6.4,2.2,8.5,7.5,9.3,13.5c0.1,0.8,0,1.6,0.1,2.4c0.3,2-0.6,2.4-2.5,2.4c-6.5-0.1-13.1,0-19.6,0
			c-3.7,0-3.7,0-3.1,3.7c1.2,7.2,6.7,11,13.4,9.3c1.9-0.5,3.7-1.3,4.5-2.9C971.3,372.1,973.4,371.9,976.3,372.5z M962,361.1
			c2.7,0,5.5-0.1,8.2,0c1.9,0.1,2.2-0.6,2-2.3c-0.9-5.9-4.7-9.3-10.2-9.2c-5.3,0.1-9.3,4.1-9.9,9.8c-0.1,1.4,0.3,1.8,1.6,1.7
			C956.5,361.1,959.3,361.1,962,361.1L962,361.1z"/>
		<path class="st1" d="M990.1,352.2c2.3-3.6,4.7-5.7,8.2-6.3c8.3-1.5,14.2,2.3,14.8,10.7c0.6,7.8,0.2,15.7,0.2,23.6
			c0,2.5-1.9,1.2-2.9,1.4c-1.4,0.3-2-0.2-2-1.8c0.1-7,0.1-14.1,0-21.1s-5.1-10.5-11.6-8.2c-3.6,1.3-5.5,4.1-6.1,7.8
			c-1.3,6.9-0.4,13.8-0.5,20.8c0,2.2-0.6,2.7-2.7,2.7c-2.1,0-2.2-1-2.2-2.6c0-10,0-20,0-30c0-1.4-0.3-2.8,2-2.7
			c2,0.1,3.1,0.3,2.8,2.6C990,350.1,990,351.1,990.1,352.2z"/>
		<path class="st1" d="M883,376.7c-2.8,4.7-6.7,5.9-11.1,5.8c-6.7-0.1-10.8-3.8-11.1-10.5c-0.3-7.8-0.1-15.7-0.3-23.6
			c0-2.2,1.2-1.9,2.5-2s2.3,0,2.2,1.9c-0.1,6.3,0,12.7,0,19c0,1.1,0,2.2,0.1,3.4c0.7,4.9,2.8,7.1,7.1,7.4c5.4,0.4,8.5-1.6,9.9-6.2
			c1.1-3.8,0.7-7.7,0.8-11.6c0-3.9,0.1-8,0-11.9c-0.1-2.2,1.3-1.8,2.6-1.8s2.3-0.2,2.3,1.8c-0.1,10.5-0.1,21,0,31.5
			c0,1.5-0.5,2-1.9,1.8c-1.2-0.2-2.8,0.6-2.8-1.7C883.3,379.1,883.1,378.3,883,376.7z"/>
	</g>
	<g class="st3">
		<path class="st4" d="M1163.6,16.9h-9.4v25.4h-7.5V16.9h-9.2v-5.8h26.1V16.9z"/>
		<path class="st4" d="M1176.7,11.1l7,21.7l6.9-21.7h9.9v31.2h-7.5V35l0.7-14.9l-7.5,22.2h-5l-7.6-22.2l0.7,14.9v7.3h-7.5V11.1
			H1176.7z"/>
	</g>
</g>
</svg>
