<svg xmlns="http://www.w3.org/2000/svg" viewBox="0 0 99.88 98.58"><defs><style>.cls-1{fill:#263863;}.cls-2{fill:#449a4e;}</style></defs><g id="Layer_2" data-name="Layer 2"><g id="Layer_1-2" data-name="Layer 1"><path class="cls-1" d="M82,0a2.44,2.44,0,0,1,.86,2.16c0,2.08,0,4.16,0,6.25,0,.67.22.92.9.91,2.28,0,4.55,0,6.83,0a4.61,4.61,0,0,1,4.76,4.81c0,.75,0,1.5,0,2.25s-.27.9-.92.89c-2.79,0-2.29.3-2.33-2.21,0-2-.48-2.48-2.47-2.48H84.09c-1.29,0-1.3,0-1.3,1.27q0,15.61,0,31.25c0,2.07.23,1.84-1.9,1.85-1.34,0-1.35,0-1.35-1.34v-41c0-1.4,0-1.4-1.37-1.4H21.74c-1.32,0-1.33,0-1.33,1.34V70.45c0,1.36,0,1.36,1.41,1.36,3.8,0,7.6,0,11.4,0,.9,0,1.28.2,1.25,1.18-.09,2.42.25,2.09-2.08,2.09q-11.94,0-23.87,0a1.54,1.54,0,0,0-1.65,1c-.62,1.4-1.35,2.75-2,4.12-.48,1-.46,1,.6,1h8.28c6.5,0,13,0,19.5,0,1,0,1.28.31,1.25,1.28-.09,2.28.22,2-2,2H4.82c-.34,0-.82-.2-1,.17s.23.71.46,1a4.91,4.91,0,0,0,4.13,1.8c2.8,0,5.59,0,8.38,0H61c1.57,0,1.57,0,1.57,1.51,0,1.92.17,1.75-1.72,1.75H8A7.79,7.79,0,0,1,.15,84.51,4.44,4.44,0,0,1,.49,81.3C1.75,78.87,2.93,76.4,4.17,74a4.71,4.71,0,0,0,.53-2.24c0-19.07,0-38.15-.06-57.22a5,5,0,0,1,5.2-5.23c2.1.16,4.22,0,6.34,0,.77,0,1-.25,1-1-.05-2.08,0-4.17,0-6.25A2.35,2.35,0,0,1,18,0ZM17.16,42.26c0-9.51,0-19,0-28.51,0-1-.28-1.23-1.21-1.2-2,.06-3.9,0-5.85,0-1.61,0-2.18.57-2.18,2.18q0,28,0,56c0,.85.31,1,1.09,1,2.27,0,4.54,0,6.82,0,1.33,0,1.33,0,1.33-1.33Z"/><path class="cls-1" d="M99.88,98.44c-3.19.34-3.19.34-3.19-2.84,0-8.14,0-16.28,0-24.41a8.37,8.37,0,0,0-2.78-6.68c-2.61-2.39-5.08-4.94-7.61-7.42a3.54,3.54,0,0,0-.59-.51c-.9-.55-1.38-.29-1.39.76,0,1.47-.3,3,.09,4.37s2,2,2.9,3c.73.83,1.54,1.59,2.34,2.35.44.42.38.71,0,1.13-1.73,1.85-1.72,1.86-3.46.11-.55-.55-1.09-1.12-1.86-1.91a34.76,34.76,0,0,1,0,3.71,4.55,4.55,0,0,0,1.8,4.4c1.27,1,2.35,2.34,3.54,3.49.42.41.41.69,0,1.13C88,81,88,81,86.15,79.22L77,70a9.29,9.29,0,0,0-.87-.78,1.5,1.5,0,0,0-1.81-.13,1.68,1.68,0,0,0-.8,1.66,5.77,5.77,0,0,0,1.86,3.86c1.57,1.57,3.09,3.17,4.7,4.68a3.52,3.52,0,0,1,1.2,2.82,8.08,8.08,0,0,0,6.08,8.09c1.7.44,1.7.44,1.69,2.18,0,1.48-.11,1.58-1.56,1.29a11.36,11.36,0,0,1-9.36-9.38A11.14,11.14,0,0,1,78,82.58a1.12,1.12,0,0,0-1.26-1.26c-.32,0-.65,0-1,0-.54,0-.75.2-.76.74a27.18,27.18,0,0,0,.3,4.77c.45,2.87,2.38,4.76,4.5,6.49A4.8,4.8,0,0,1,81.2,98.1c-.07.21-.19.36-.4.37-.78,0-1.56,0-2.34,0-.57,0-.51-.54-.46-.9a2.4,2.4,0,0,0-1.08-2.3c-2.68-2.26-4.68-5-5.09-8.59a38.14,38.14,0,0,1-.08-4c0-1.36,0-1.36-1.41-1.36H41.11c-2.55,0-3.67-1.14-3.67-3.7q0-12.06,0-24.12c0-2.41,1.16-3.57,3.59-3.57H80.79c2,0,3,.67,3.52,2.54a.7.7,0,0,0,.83.59,4.4,4.4,0,0,1,3.45,1.51c2.54,2.51,5.07,5,7.66,7.51A12,12,0,0,1,99.88,68Zm-19-29.15.24-.1c0-1.33,0-2.66,0-4,0-.88-.29-1.1-1.12-1.1q-19.11,0-38.21,0c-.94,0-1.13.34-1.12,1.19,0,3.84,0,7.68,0,11.52,0,1,.28,1.26,1.27,1.26,10.36,0,20.72,0,31.08,0a1.15,1.15,0,0,0,1-.29,17.27,17.27,0,0,1-1.5-1.27,8.3,8.3,0,0,1-2.37-5.91A5,5,0,0,1,78.62,67C79.39,67.73,80.11,68.52,80.86,69.29ZM60.79,56.18H80.46c.45,0,.65-.21.64-.66,0-.29,0-.58,0-.87,0-1.46,0-1.46-1.41-1.46H42.4c-1.9,0-1.7-.2-1.71,1.73,0,1.26,0,1.26,1.31,1.26Zm.1,3.26H41.6c-.8,0-1.2.54-.85,1.14s.77.27,1.16.27h38a6.77,6.77,0,0,0,.78,0c.45-.06.42-.42.42-.75s0-.6-.43-.64-.59,0-.88,0Z"/><path class="cls-2" d="M32.82,25.07c-1,0-1.95,0-2.92,0-1.23,0-1.76-.56-1.83-1.77-.05-.93.41-2.1-.23-2.72s-1.74-.14-2.64-.19c-1.23-.05-1.79-.57-1.79-1.8,0-2,0-4,0-6a1.55,1.55,0,0,1,1.74-1.74c.71,0,1.43,0,2.14,0s.81-.24.79-.82,0-1.43,0-2.15a1.54,1.54,0,0,1,1.67-1.72q3.08,0,6.14,0a1.54,1.54,0,0,1,1.67,1.72c0,.68,0,1.37,0,2.05s.2,1,.89.92,1.49,0,2.24,0a1.49,1.49,0,0,1,1.54,1.55c0,2.11,0,4.23,0,6.34a1.5,1.5,0,0,1-1.59,1.6c-.74,0-1.49,0-2.24,0s-.87.25-.84.87,0,1.3,0,2c0,1.34-.56,1.86-1.92,1.87Zm-4.25-7.95c.39,0,.78,0,1.17,0a1.53,1.53,0,0,1,1.58,1.61c0,.32,0,.65,0,1,.06,2.38-.49,2.07,2.22,2.1.62,0,.79-.27.77-.83,0-.78,0-1.56,0-2.34a1.5,1.5,0,0,1,1.48-1.51c.35,0,.71,0,1.07,0,2.33,0,2.31,0,2.12-2.3,0-.49-.22-.7-.71-.69-.78,0-1.56,0-2.33,0a1.54,1.54,0,0,1-1.64-1.65c0-.75,0-1.5,0-2.25,0-.28,0-.69-.32-.71a16.47,16.47,0,0,0-2.33,0c-.37,0-.32.43-.33.72,0,.71,0,1.43,0,2.14a1.57,1.57,0,0,1-1.73,1.76c-.75,0-1.5,0-2.24,0-.49,0-.67.2-.71.69C26.45,17.11,26.45,17.12,28.57,17.12Z"/><path class="cls-1" d="M50,31.18H73.64c1.35,0,1.36,0,1.35,1.34,0,2.17.23,1.92-1.92,1.92q-23.28,0-46.56,0c-1.55,0-1.56,0-1.55-1.53,0-1.9-.16-1.72,1.73-1.72Z"/><path class="cls-1" d="M49.87,40.69H26.3c-1.34,0-1.35,0-1.34-1.34,0-2.17-.23-1.91,1.94-1.91H73.56c1.43,0,1.44,0,1.43,1.44,0,2,.2,1.82-1.83,1.82Q61.51,40.71,49.87,40.69Z"/><path class="cls-1" d="M50,46.94H26.29c-1.33,0-1.34,0-1.33-1.35,0-2.16-.23-1.9,1.94-1.9H73.56c1.43,0,1.44,0,1.43,1.45,0,2,.2,1.81-1.84,1.81Q61.56,47,50,46.94Z"/><path class="cls-1" d="M92,37.51c0-5.34,0-10.67,0-16,0-1,.24-1.31,1.25-1.27,2.31.09,2-.24,2,2q0,15.52,0,31c0,1.45,0,1.46-1.43,1.45-2,0-1.82.2-1.82-1.83C92,47.78,92,42.64,92,37.51Z"/><path class="cls-1" d="M67.91,20.38c-2.53,0-5.06,0-7.59,0-.79,0-1.09-.24-1.07-1.05.07-2.6-.27-2.2,2.14-2.21,4.67,0,9.34,0,14,0,.88,0,1.2.25,1.17,1.16-.08,2.46.27,2.09-2.14,2.12C72.26,20.4,70.09,20.38,67.91,20.38Z"/><path class="cls-1" d="M70.93,14.13c-1.53,0-3.05,0-4.57,0-.63,0-.87-.23-.86-.85,0-2.9-.3-2.37,2.23-2.4s5.18,0,7.78,0c.8,0,1.08.26,1.06,1.06-.07,2.58.27,2.17-2.14,2.21Z"/><path class="cls-1" d="M29.71,53.19c-1.3,0-2.6,0-3.89,0-.62,0-.87-.23-.86-.86,0-2.9-.31-2.36,2.21-2.4,2.11,0,4.22,0,6.32,0,.71,0,1,.24,1,1-.06,2.75.3,2.26-2.23,2.31-.84,0-1.68,0-2.52,0Z"/><path class="cls-2" d="M29.67,59.44H25.78c-.56,0-.83-.19-.82-.79,0-3-.32-2.42,2.25-2.46,2.08,0,4.15,0,6.22,0,.74,0,1,.21,1,1-.06,2.69.29,2.22-2.17,2.27-.87,0-1.75,0-2.62,0Z"/><path class="cls-1" d="M62.52,12.54c0,1.59,0,1.59-1.67,1.59s-1.57.12-1.58-1.77c0-1.49,0-1.49,1.76-1.49C62.52,10.87,62.52,10.87,62.52,12.54Z"/><path class="cls-1" d="M68.76,89.13c0,1.56,0,1.56-1.69,1.56s-1.57,0-1.56-1.79c0-1.47,0-1.47,1.78-1.47C68.76,87.44,68.76,87.44,68.76,89.13Z"/><path class="cls-2" d="M48.52,71.81c1.26,0,2.53,0,3.79,0,.62,0,.87.24.86.86,0,2.9.3,2.36-2.23,2.4-2.1,0-4.21,0-6.32,0-.71,0-1-.25-1-1,.06-2.75-.3-2.26,2.23-2.31.88,0,1.75,0,2.63,0Z"/><path class="cls-2" d="M60.79,75.06c-1.26,0-2.52,0-3.79,0-.62,0-.86-.23-.86-.86,0-2.89-.3-2.36,2.23-2.4,2.1,0,4.21,0,6.32,0,.71,0,1,.24,1,1-.06,2.74.3,2.26-2.23,2.3-.88,0-1.75,0-2.63,0Z"/></g></g></svg>