<svg id="Layer_1" data-name="Layer 1" xmlns="http://www.w3.org/2000/svg" viewBox="0 0 100 100"><defs><style>.cls-1{fill:#263863;}.cls-2{fill:#449a4e;}</style></defs><path class="cls-1" d="M19.61,100a2.33,2.33,0,0,1-.86-2.06c0-4.25,0-8.51,0-12.77a9.31,9.31,0,0,1,6-9c4.49-1.91,9-3.86,13.44-5.76a3.43,3.43,0,0,0,2.38-3.6c-.06-1.43,0-2.86,0-4.29A1.36,1.36,0,0,0,40,61.2a18.39,18.39,0,0,1-8.52-13.35c-.09-.66-.43-.82-1-.88C27.15,46.6,25,44.33,25,41.38A5.52,5.52,0,0,1,30.25,36c.85,0,1.69,0,2.54,0a1.54,1.54,0,0,0,1.57-1.44c.4-2.34,1.17-3.1,3.51-3.45A60.87,60.87,0,0,0,61.2,22.49a4.5,4.5,0,0,1,.67-.39,1.46,1.46,0,0,1,2,.55,1.37,1.37,0,0,1-.21,1.94,11.72,11.72,0,0,1-1.51,1.07c-.41.27-.59.48-.07.85a8.53,8.53,0,0,1,3.67,7.64c0,1.22.57,1.77,1.78,1.82,2.81.1,2.74.1,2.82-2.71A20.28,20.28,0,0,0,30,29.82c-.07.49-.12,1-.19,1.45a1.65,1.65,0,0,1-1.74,1.6,1.73,1.73,0,0,1-1.43-2,23.34,23.34,0,0,1,8.66-16.23A1.78,1.78,0,0,0,36,13.24a14.07,14.07,0,0,1,28-1.15,4.93,4.93,0,0,0,1.72,3.36,22.89,22.89,0,0,1,7.85,18c0,.65,0,1.31,0,1.95a6,6,0,0,0,.86,3.57c2,3.35-.36,7.62-4.42,8-1,.09-1.23.44-1.38,1.38A18.32,18.32,0,0,1,60.43,61a1.93,1.93,0,0,0-1,1.9c.07,1.4,0,2.8,0,4.2a3.17,3.17,0,0,0,2.1,3.19C66,72.17,70.42,74.14,74.91,76a9.82,9.82,0,0,1,6.42,9.71c-.12,4.09,0,8.19,0,12.28a2.38,2.38,0,0,1-.86,2.06H79.1a2.26,2.26,0,0,1-1-2.28c0-4.32,0-8.64,0-13a5.81,5.81,0,0,0-3.66-5.52c-2.59-1.2-5.25-2.25-7.86-3.4-.73-.32-.89-.14-.89.6q0,5.16,0,10.33a1.24,1.24,0,0,0,.92,1.35,6.23,6.23,0,0,1,3.13,8.49A7,7,0,0,1,65.64,100H62.71a2.18,2.18,0,0,0-.27-.11,6.36,6.36,0,0,1-4.63-5.77,6.27,6.27,0,0,1,3.94-6.05,1.12,1.12,0,0,0,.74-1.19c0-3.08,0-6.17,0-9.26,0-.27.13-.65-.18-.8s-.53.18-.76.33c-2.73,1.82-5.49,3.59-8.18,5.47a5.24,5.24,0,0,1-6.65,0c-2.71-1.9-5.5-3.69-8.26-5.53-.21-.13-.42-.4-.68-.27s-.18.46-.18.71c0,2,0,4,0,5.94,0,.66.24,1,.91.93,1.07,0,2.15,0,3.22,0,3.43.12,5.24,2,5.25,5.41V94.7c0,2.8-1,4.22-3.56,5.3H41.45c-1.34-1.49-1-2.55.89-3a1.64,1.64,0,0,0,1.4-1.73c0-1.94,0-3.89,0-5.84a1.63,1.63,0,0,0-1.82-1.8q-6,0-11.89,0c-1.24,0-1.79.57-1.8,1.79,0,1.92,0,3.84,0,5.75,0,1.15.35,1.61,1.47,1.83.77.15,1.36.44,1.53,1.26a1.59,1.59,0,0,1-.89,1.78H28.38A4.79,4.79,0,0,1,25,95.64C25,93.4,25,91.15,25,88.91a4.64,4.64,0,0,1,4-4.39,26.74,26.74,0,0,1,4.29-.11c.86,0,1.12-.3,1.1-1.14,0-2.27,0-4.55,0-6.82,0-.74-.16-.92-.88-.6-2.38,1.05-4.76,2.09-7.17,3.06a6.46,6.46,0,0,0-4.4,6.72c.09,4.06,0,8.13,0,12.19A2.2,2.2,0,0,1,21,100ZM50,61a15.24,15.24,0,0,0,12.21-5.86,14.88,14.88,0,0,0,3.37-9.15c0-1.59.63-2.14,2.23-2.16.58,0,1.17,0,1.75,0a2.19,2.19,0,0,0,2.26-2.2,2.23,2.23,0,0,0-2.21-2.36c-.71-.05-1.43,0-2.14,0a4.91,4.91,0,0,1-4.17-2.13,5.47,5.47,0,0,1-.84-3.25,5.46,5.46,0,0,0-.62-2.91,4.22,4.22,0,0,0-5.81-2,61.77,61.77,0,0,1-16.9,5.14,1.79,1.79,0,0,0-1.83,1.64A4.28,4.28,0,0,1,33.87,39a15,15,0,0,1-3.21.18,2.2,2.2,0,0,0-2.43,2.21,2.34,2.34,0,0,0,2.43,2.37c.65,0,1.3,0,1.95,0a1.73,1.73,0,0,1,1.84,1.74c0,.58,0,1.17.07,1.75A15.57,15.57,0,0,0,50,61Zm0,19.68a2,2,0,0,0,1.25-.5q4.5-3,9-6c.23-.15.64-.24.59-.57s-.46-.32-.71-.43a6.23,6.23,0,0,1-3.86-5,32.53,32.53,0,0,1-.09-4.19c0-.54-.16-.77-.76-.58a18.51,18.51,0,0,1-10.93,0c-.55-.16-.72,0-.71.55,0,.9,0,1.81,0,2.72,0,3.06-1.21,5.34-4.1,6.57-.64.27-.75.46-.08.9,3.1,2,6.17,4.1,9.25,6.16A1.75,1.75,0,0,0,50.07,80.63ZM60.68,11.91A10.93,10.93,0,0,0,48.47,3.29c-4.2.5-8.81,4.75-9,8.56A23.86,23.86,0,0,1,60.68,11.91Zm6.48,82a3.09,3.09,0,0,0-3.08-3.2A3.12,3.12,0,0,0,64,97,3.05,3.05,0,0,0,67.16,93.92Z"/><path class="cls-2" d="M100,88.3a1.64,1.64,0,0,1-2,.73c-.9-.32-1-1.09-1-1.92q0-5.26,0-10.53c0-1.6-.27-2-1.77-2.48l-2.31-.77c-.45-.16-.67,0-.66.46,0,1.89,0,3.77,0,5.65,0,.6.43.73.81,1a4.54,4.54,0,0,1,2.29,4.7,4.43,4.43,0,0,1-3.1,3.79,4.66,4.66,0,0,1-5.76-2.38,4.61,4.61,0,0,1,1.71-6,1.65,1.65,0,0,0,.9-1.64c0-1.46,0-2.93,0-4.39,0-.62-.19-.79-.73-.37s-1.29,1-2,1.45a3.06,3.06,0,0,1-3.89,0c-1.16-.82-2.31-1.68-3.43-2.56a1.27,1.27,0,0,0-1.43-.25,2.37,2.37,0,0,1-1.15.18,1.38,1.38,0,0,1-1.34-1.07,1.42,1.42,0,0,1,.52-1.65,3.69,3.69,0,0,1,1-.46c1.51-.55,1.5-.17,1.5-2.09a5.61,5.61,0,0,1,0-.58,3,3,0,0,0-1.17-2.86A10.09,10.09,0,0,1,73.5,57a30.73,30.73,0,0,1,.11-6.71,7.54,7.54,0,0,1,6.83-6.36A34.46,34.46,0,0,1,89,44a7.56,7.56,0,0,1,6.34,7.54,38,38,0,0,1-.18,7,10.34,10.34,0,0,1-3.8,6.29,1.71,1.71,0,0,0-.69,1.49c0,3,0,3,2.76,3.88.87.29,1.71.63,2.59.86A5.44,5.44,0,0,1,100,74.45ZM84.5,47H81.38a4.49,4.49,0,0,0-4.68,4,25.72,25.72,0,0,0,.13,6.9A7.78,7.78,0,0,0,92,57.9a23.73,23.73,0,0,0,.08-7A4.49,4.49,0,0,0,87.72,47C86.64,47,85.57,47,84.5,47Zm3.18,23.25a12.18,12.18,0,0,1-.19-2.54c0-.63-.23-.78-.83-.65A10.2,10.2,0,0,1,82,67c-.64-.16-.72.14-.73.65a10.13,10.13,0,0,1-.12,2.52c-.1.34.11.52.34.73,2.6,2.33,3.15,2.34,5.78,0C87.52,70.75,87.77,70.58,87.68,70.25Zm3,12.67a1.65,1.65,0,0,0-1.51,1.61,1.51,1.51,0,0,0,1.65,1.4,1.36,1.36,0,0,0,1.36-1.54A1.5,1.5,0,0,0,90.65,82.92Z"/><path class="cls-2" d="M0,81.38c0-1.82,0-3.64,0-5.46a4.55,4.55,0,0,1,3.3-4.64c1.72-.6,3.44-1.19,5.18-1.72.67-.21,1-.55.88-1.26v-.09A4.57,4.57,0,0,0,7.74,63.8a9.24,9.24,0,0,1-3-7.25c0-2.18,0-4.36,0-6.53a6.18,6.18,0,0,1,6-6.22c3.28-.08,6.57-.08,9.85,0a6.09,6.09,0,0,1,5.93,5.44,36.14,36.14,0,0,1-.07,8.94,10.22,10.22,0,0,1-3.76,6.53A1.67,1.67,0,0,0,22,66.3c0,.26,0,.52,0,.78,0,2,0,2,1.86,2.81a1.58,1.58,0,0,1,1.12,2,1.45,1.45,0,0,1-2,1,2.29,2.29,0,0,0-2.54.6c-.8.67-1.65,1.27-2.49,1.88-1.66,1.21-2.79,1.22-4.46.07-.2-.14-.39-.44-.66-.33s-.2.51-.21.78c0,1,0,2,0,2.93,0,.6.22.85.85.9,2.86.24,3.83,1.31,3.84,4.16a13.27,13.27,0,0,1-.14,2.82,3.06,3.06,0,0,1-3.2,2.44A1.48,1.48,0,0,1,12.59,88a1.31,1.31,0,0,1,.62-1.69c.87-.35.9-1,.88-1.69,0-1.94.19-1.74-1.71-1.75-1.17,0-2.34,0-3.51,0C8,82.84,7.7,83.2,7.78,84a6.49,6.49,0,0,1,0,1.08,1,1,0,0,0,.68,1.11,1.43,1.43,0,0,1,.8,1.87,1.44,1.44,0,0,1-1.56,1.06,3,3,0,0,1-3-2.79c0-1,0-2,0-3A3.22,3.22,0,0,1,8,79.71C9.4,79.6,9.4,79.6,9.4,78.28c0-1.6,0-3.19,0-4.78,0-.77-.22-.88-.9-.63-1.16.44-2.34.8-3.51,1.19-1.68.56-1.9.86-1.9,2.68,0,3.35,0,6.69,0,10,0,.3,0,.59,0,.88a1.46,1.46,0,0,1-1.5,1.47A1.43,1.43,0,0,1,.05,87.62c0-2.08,0-4.16,0-6.24ZM15.59,64.07a7.79,7.79,0,0,0,7.83-6.95c.06-.54-.08-.88-.69-.93A20.07,20.07,0,0,1,13,52.46a.75.75,0,0,0-1,0L8.26,55.25a.93.93,0,0,0-.46.8A7.77,7.77,0,0,0,15.59,64.07Zm0-17.07c-1.46,0-2.93,0-4.39,0-2.35-.07-3.53,1.59-3.44,4,0,.59.28.47.6.22l1.4-1c2.12-1.59,3-1.61,5.15-.14a17.49,17.49,0,0,0,7.73,3c.54.07.8,0,.78-.6,0-.81,0-1.63,0-2.44a3.05,3.05,0,0,0-3.13-3C18.74,47,17.18,47,15.62,47ZM12.46,70.07c-.21.45,0,.67.3.87.78.59,1.57,1.15,2.33,1.76a.78.78,0,0,0,1.12,0c.74-.59,1.5-1.14,2.25-1.7.23-.18.53-.34.44-.69a11.8,11.8,0,0,1-.13-2.72c0-.51-.19-.68-.72-.55a10.34,10.34,0,0,1-4.63,0c-.59-.13-.85,0-.85.64C12.57,68.51,12.5,69.32,12.46,70.07Z"/><path class="cls-1" d="M50,53.25a9.59,9.59,0,0,1-5.34-1.73,1.6,1.6,0,0,1-.59-2.35c.57-.79,1.4-.87,2.4-.24a6.21,6.21,0,0,0,7.14,0c1-.64,1.84-.56,2.4.23s.34,1.69-.65,2.41A9.63,9.63,0,0,1,50,53.25Z"/><path class="cls-1" d="M40.62,41.47c0-1.55.52-2.34,1.57-2.36s1.65.81,1.64,2.4c0,.13,0,.26,0,.39,0,1.18-.71,2-1.64,1.93s-1.54-.76-1.57-2Z"/><path class="cls-1" d="M59.43,41.52a6.77,6.77,0,0,1,0,.78,1.63,1.63,0,0,1-1.5,1.53,1.66,1.66,0,0,1-1.64-1.39,5.27,5.27,0,0,1,0-1.94,1.58,1.58,0,0,1,1.62-1.39,1.63,1.63,0,0,1,1.51,1.53A8.61,8.61,0,0,1,59.43,41.52Z"/></svg>