<svg xmlns="http://www.w3.org/2000/svg" viewBox="0 0 100 99.99"><defs><style>.cls-1{fill:#263863;}.cls-2{fill:#449a4e;}</style></defs><g id="Layer_2" data-name="Layer 2"><g id="Layer_1-2" data-name="Layer 1"><path class="cls-1" d="M63.37,50.76l7.84-7.85c.78-.78,1.56-1.58,2.36-2.34a1.76,1.76,0,0,1,2.75,0c1.32,1.28,2.6,2.59,3.9,3.89Q89.49,53.72,98.76,63A3.74,3.74,0,0,1,100,66c-.09,2.35,0,4.71,0,7.07a1.75,1.75,0,0,1-1,1.85,1.77,1.77,0,0,1-2.08-.5l-1.67-1.76A1.93,1.93,0,0,0,95,73.9q0,11.85,0,23.7c0,1.93-.46,2.39-2.39,2.39H2.34C.48,100,0,99.51,0,97.65V2.31C0,.51.49,0,2.27,0Q25,0,47.81,0A2.86,2.86,0,0,1,50,.92q6.2,6.23,12.43,12.42a3,3,0,0,1,.94,2.3q0,16.85,0,33.68ZM54.91,72.84l-.31-.19c-.5.57-1,1.14-1.51,1.7a1.78,1.78,0,0,1-2.16.53,1.75,1.75,0,0,1-1-1.87c0-2.53,0-5.06,0-7.59a2.69,2.69,0,0,1,.89-2.1c2.81-2.78,5.59-5.59,8.4-8.37a2.21,2.21,0,0,0,.72-1.73q0-17.56,0-35.14c0-1-.24-1.33-1.27-1.31-3.29.06-6.58,0-9.87,0-1.66,0-2.19-.52-2.19-2.17,0-3.36,0-6.72,0-10.08,0-.82-.26-1.07-1.07-1.07q-20.49,0-41,0c-.88,0-1.11.29-1.11,1.14q0,45.38,0,90.76c0,.92.3,1.16,1.19,1.16q24.54,0,49.07,0c1,0,1.22-.33,1.21-1.26,0-7.21,0-14.41,0-21.62Zm36.6,9.81c0-4.19,0-8.38,0-12.58a2.14,2.14,0,0,0-.65-1.66Q83.25,60.84,75.66,53.2c-.52-.53-.83-.61-1.4,0Q66.64,60.84,59,68.46a1.88,1.88,0,0,0-.61,1.46q0,12.74,0,25.46c0,.84.21,1.17,1.11,1.15,2.56,0,5.12,0,7.69,0,.81,0,1.08-.25,1.07-1.07,0-3.39,0-6.79,0-10.18,0-1.51.56-2.07,2.07-2.07h9.25c1.58,0,2.12.55,2.13,2.12,0,3.36,0,6.72,0,10.08,0,.87.28,1.14,1.14,1.12,2.49,0,5-.06,7.48,0,1,0,1.27-.35,1.26-1.31C91.48,91,91.51,86.84,91.51,82.65Zm4.92-13.84a4.83,4.83,0,0,0-1.34-4.56C88.58,57.92,82.2,51.46,75.81,45c-.66-.66-1-.72-1.71,0-6.51,6.57-13,13.14-19.64,19.6-1.38,1.34-1,2.72-.89,4.26a3.67,3.67,0,0,0,.77-.75q9.36-9.37,18.74-18.74c1.53-1.54,2.19-1.54,3.71,0q9.38,9.38,18.75,18.74C95.79,68.34,96,68.69,96.43,68.81ZM78.2,91.7c0-1.35,0-2.7,0-4,0-.69-.18-1-.93-1-1.56,0-3.11,0-4.67,0-.75,0-.94.3-.93,1q0,3.94,0,7.88c0,.69.17,1,.93,1,1.55,0,3.11,0,4.66,0,.75,0,1-.3.94-1C78.17,94.26,78.2,93,78.2,91.7ZM50.06,6.29V12.6c0,.45.16.72.66.72h6.33Z"/><path class="cls-1" d="M66.55,14c0-1.8,0-3.6,0-5.4a1.94,1.94,0,0,1,1.25-2L82.32.22a2.36,2.36,0,0,1,2,0q7.15,3.18,14.33,6.36A2,2,0,0,1,100,8.74c0,3.12-.07,6.24,0,9.35a12.68,12.68,0,0,1-3.7,9.4q-5.7,5.91-11.44,11.77c-1.12,1.15-2,1.17-3.12.06-4-4.15-8.07-8.28-12-12.49a11.47,11.47,0,0,1-3.15-8.14C66.56,17.14,66.55,15.58,66.55,14Zm3.47.27c0,1.14,0,2.28,0,3.43a10.3,10.3,0,0,0,3,7.5q4.78,4.84,9.48,9.77c.56.59.92.63,1.5,0,3.21-3.35,6.46-6.66,9.68-10a9.28,9.28,0,0,0,2.67-5.71c.27-2.87,0-5.75.16-8.62a1.4,1.4,0,0,0-1-1.54C91.62,7.44,87.77,5.71,83.91,4a1.32,1.32,0,0,0-1.18,0q-6,2.69-12,5.33A1.12,1.12,0,0,0,70,10.44C70.05,11.72,70,13,70,14.29Z"/><path class="cls-1" d="M37.75,45.16c4.36,0,6.8,4.17,4.88,7.65-.87,1.59-.75,1.32.62,2.14.86.51,1.75,1,2.61,1.51a1.87,1.87,0,0,1,.73,2.83c-2,3.55-4.09,7.08-6.12,10.63-.34.6-.67.62-1.25.31-2.34-1.26-2.35-1.25-1-3.57s2.67-4.7,4.07-7c.42-.7.26-1-.39-1.37-2.21-1.17-1.62-1.29-2.78.72Q32,71.27,24.91,83.57a7.16,7.16,0,0,1-1.46,1.87l-7.16,6.34a1.77,1.77,0,0,1-2.27.36A1.88,1.88,0,0,1,13.19,90c.65-3.12,1.3-6.23,1.92-9.35a5.89,5.89,0,0,1,.7-1.83q8.91-15.44,17.83-30.87A5,5,0,0,1,37.75,45.16Zm-1,10.6c.09-.38-.17-.49-.36-.61a9.48,9.48,0,0,1-1.08-.62c-.77-.61-1.19-.38-1.65.44-4.42,7.72-8.89,15.42-13.33,23.13-.89,1.54-.86,1.51.68,2.48.77.49,1.17.48,1.68-.4q6.82-11.94,13.74-23.84C36.59,56.13,36.71,55.92,36.79,55.76Zm2.93-5.49a1.48,1.48,0,0,0-1.54-1.47,2.49,2.49,0,0,0-1.9,1.8,5.36,5.36,0,0,0,2.27,1.57C39,52.17,39.73,50.92,39.72,50.27Z"/><path class="cls-1" d="M40.07,23.39c.2,9.08-7.57,16.67-16.57,16.74A16.94,16.94,0,0,1,6.61,23.36,17,17,0,0,1,23.43,6.62C32.53,6.67,40.28,14.3,40.07,23.39Zm-3.49.14c-.09-6.85-5-13.16-13.14-13.32A12.93,12.93,0,0,0,10.2,23.27,12.93,12.93,0,0,0,23.13,36.54C30.36,36.69,36.21,31.31,36.58,23.53Z"/><path class="cls-2" d="M35.13,89.86c4,0,8,0,12,0,1,0,1.26.3,1.23,1.25-.08,2.58.27,2.23-2.19,2.23-7.72,0-15.44,0-23.16,0-1.42,0-1.44,0-1.43-1.43,0-2.31-.24-2,2.07-2C27.51,89.85,31.32,89.86,35.13,89.86Z"/><path class="cls-1" d="M53.31,23.44c-.86,0-1.72,0-2.59,0-.56,0-.81-.23-.8-.8,0-3.29-.36-2.6,2.46-2.67,1.14,0,2.28,0,3.42,0,.66,0,.93.24.92.91,0,3.08.32,2.49-2.37,2.56-.35,0-.69,0-1,0Z"/><path class="cls-1" d="M53.24,30.1c-.73,0-1.46-.05-2.18,0-.94.08-1.18-.33-1.16-1.21.07-2.64-.29-2.24,2.25-2.27,1.21,0,2.42,0,3.62,0,.64,0,1,.19.95.88,0,3.15.34,2.52-2.45,2.59Z"/><path class="cls-1" d="M53.37,33.29h2.28c.21,0,.48,0,.61.05.94.75.28,1.78.43,2.68.11.6-.32.74-.84.74-1.7,0-3.39,0-5.08,0-.62,0-.86-.24-.86-.86,0-3.17-.34-2.53,2.42-2.61Z"/><path class="cls-1" d="M46.73,21.72c0,1.73,0,1.73-1.74,1.73s-1.73,0-1.73-1.85c0-1.62,0-1.62,1.85-1.62C46.73,20,46.73,20,46.73,21.72Z"/><path class="cls-1" d="M44.94,30.11c-1.68,0-1.68,0-1.68-1.79s0-1.69,1.79-1.68,1.67-.13,1.68,1.89C46.74,30.11,46.73,30.11,44.94,30.11Z"/><path class="cls-1" d="M46.73,35c0,1.73,0,1.73-1.74,1.73s-1.73,0-1.73-1.84c0-1.63,0-1.63,1.84-1.63C46.73,33.29,46.73,33.29,46.73,35Z"/><path class="cls-1" d="M61.56,75c0-1.08,0-2.15,0-3.22a1.63,1.63,0,0,1,1.77-1.84q3.27,0,6.55,0a1.64,1.64,0,0,1,1.79,1.82q0,3.23,0,6.45A1.65,1.65,0,0,1,69.81,80q-3.18,0-6.34,0c-1.3,0-1.88-.61-1.91-1.92V75Zm5.07-1.61c-1.6,0-1.6,0-1.6,1.54s0,1.65,1.48,1.65c1.71,0,1.71,0,1.71-1.53S68.22,73.36,66.63,73.36Z"/><path class="cls-1" d="M83.16,80c-1,0-2.08,0-3.12,0a1.63,1.63,0,0,1-1.83-1.78q0-3.27,0-6.55A1.63,1.63,0,0,1,80,69.9c2.15,0,4.29,0,6.44,0a1.66,1.66,0,0,1,1.84,1.89q0,3.17,0,6.34c0,1.28-.62,1.86-1.94,1.89-.55,0-1.11,0-1.66,0Zm.1-3.47c1.59,0,1.59,0,1.59-1.53s0-1.65-1.48-1.66c-1.7,0-1.7,0-1.7,1.54S81.67,76.55,83.26,76.55Z"/><path class="cls-1" d="M83.24,23.44a1.72,1.72,0,0,1-1.38-.63c-1.32-1.32-2.63-2.66-4-4-.53-.51-.49-.87,0-1.36,2.26-2.15,1.49-2.09,3.55-.08,1.83,1.78,1.81,1.8,3.59,0,1.94-1.93,3.88-3.85,5.8-5.81.49-.5.83-.53,1.36,0,1.88,1.8,1.9,1.78.06,3.63q-3.72,3.7-7.42,7.42A2,2,0,0,1,83.24,23.44Z"/><path class="cls-2" d="M28.94,25.62c-.67,0-1.35.05-2,0-1.06-.11-1.37.36-1.32,1.37.07,1.28,0,2.57,0,3.85,0,1.58-.89,2.62-2.2,2.64A2.32,2.32,0,0,1,21.11,31c-.08-1.28,0-2.57-.06-3.85,0-1.47-.07-1.54-1.49-1.54s-2.56,0-3.85,0a2.27,2.27,0,0,1-2.41-2.19,2.24,2.24,0,0,1,2.23-2.27c1.38-.1,2.78-.11,4.16-.08,1,0,1.39-.41,1.38-1.41a29,29,0,0,1,.08-4.27,2.22,2.22,0,1,1,4.44.25c0,1.36.07,2.72,0,4.07-.06,1.06.39,1.38,1.38,1.36,1.42,0,2.85,0,4.27.1a2.21,2.21,0,0,1,2.19,2.29,2.27,2.27,0,0,1-2.35,2.15c-.71,0-1.42,0-2.14,0Z"/></g></g></svg>