<svg id="Layer_1" data-name="Layer 1" xmlns="http://www.w3.org/2000/svg" viewBox="0 0 100 100"><defs><style>.cls-1{fill:#263863;}.cls-2{fill:#449a4e;}</style></defs><path class="cls-1" d="M100.19,15.23V39.06A9.63,9.63,0,0,1,97,44.5a2.5,2.5,0,0,0-1,2.24q0,23.84,0,47.65c0,1.81,0,1.85,1.77,1.81a2.45,2.45,0,0,1,2.44,1.26c0,.91.36,2.17-.1,2.63s-1.71.11-2.62.11H1.56C.42,99.36.07,98.56.42,97.56s1.05-1.34,2.44-1.34h.49c1.23,0,1.25,0,1.25-1.26q0-24.27,0-48.53a2,2,0,0,0-.81-1.75,9.24,9.24,0,0,1-3.5-7.4c0-6.8,0-13.61,0-20.41a5.82,5.82,0,0,1,6.15-6.19H30a6.42,6.42,0,0,1,.88,0,2,2,0,0,1,0,4,8.94,8.94,0,0,1-1.16,0H7.18c-2.11,0-2.81.7-2.82,2.81v9.18c0,1.52,0,1.53,1.49,1.53h89c1.39,0,1.39,0,1.39-1.43V17.74c0-2.37-.64-3-3-3H78.6a3.06,3.06,0,0,1-1.34-.16,2.07,2.07,0,0,1-1.21-2.14,2,2,0,0,1,2-1.74H94.93a4.19,4.19,0,0,1,.86.15A6.06,6.06,0,0,1,100.19,15.23ZM8.65,71.39V94.92c0,1.27,0,1.29,1.33,1.29s2.47,0,3.7,0c1.45,0,1.45,0,1.45-1.46V56.57c0-1.87.67-2.54,2.51-2.54H31c5.42,0,10.85,0,16.27,0a2.11,2.11,0,0,1,2.15,1.2,3.35,3.35,0,0,1,.17,1.54q0,19.08,0,38.17c0,.77,0,1.3,1.06,1.3q20.11,0,40.24,0c.82,0,1.08-.32,1.07-1.1,0-2.51,0-5,0-7.52,0-1.4,0-1.4-1.41-1.4H59.92c-2.06,0-2.68-.63-2.68-2.67q0-13.38,0-26.75c0-2.18.58-2.76,2.77-2.76H91.2a.64.64,0,0,0,.73-.71V47.45c0-.49-.25-.68-.75-.64a9.79,9.79,0,0,1-8.46-3.08c-.37-.39-.6-.35-.93,0-3.68,4.19-11.38,4.16-15,0-.38-.43-.63-.39-1,0-3.69,4.15-11.28,4.12-14.95,0-.41-.46-.66-.43-1.07,0-3.7,4.11-11.19,4.08-14.87,0-.45-.49-.7-.48-1.14,0-3.7,4.06-11.12,4-14.81,0-.48-.52-.73-.51-1.21,0a9.82,9.82,0,0,1-7.85,3c-1.22,0-1.22-.08-1.22,1.18Zm36.89,5.86c0-6,0-12,0-18,0-.95-.31-1.23-1.24-1.22-8,0-15.91,0-23.87,0-1.24,0-1.27,0-1.27,1.26V95c0,1.23,0,1.25,1.27,1.25q11.88,0,23.77,0c1.3,0,1.32,0,1.32-1.3Zm31,4.9c4.71,0,9.42,0,14.13,0,.92,0,1.25-.26,1.24-1.22q0-10.83,0-21.66c0-1-.32-1.23-1.24-1.22q-14.08,0-28.15,0c-1.25,0-1.28,0-1.28,1.25V80.9c0,1.22,0,1.25,1.28,1.25ZM10.43,32.32c-1.69,0-3.37,0-5.06,0-.75,0-1,.28-1,1,0,1.13,0,2.27,0,3.41.1,3.27,1.86,5.39,4.85,5.89a5.68,5.68,0,0,0,7-5,40.78,40.78,0,0,0,.12-4.28c0-.76-.26-1.05-1-1C13.67,32.34,12.05,32.32,10.43,32.32Zm16,0c-1.69,0-3.37,0-5.06,0-.68,0-1,.22-1,1,0,1.2,0,2.4,0,3.6.14,3.18,1.79,5.19,4.67,5.74a5.69,5.69,0,0,0,7.15-5c.22-1.42,0-2.85.11-4.28,0-.77-.29-1-1-1C29.64,32.34,28,32.32,26.4,32.32Zm15.92,0h-5c-.45,0-.92,0-.92.62,0,2-.24,4,.32,5.9.8,2.75,3.59,4.31,6.72,3.81a5.4,5.4,0,0,0,4.74-4.81,44.51,44.51,0,0,0,.15-4.47c0-.83-.32-1.08-1.1-1.06C45.56,32.34,43.94,32.32,42.32,32.32Zm16,0H53.28c-.43,0-.94,0-.94.58,0,2.07-.28,4.18.39,6.19a5.79,5.79,0,0,0,6.71,3.55,5.39,5.39,0,0,0,4.67-4.77,41.73,41.73,0,0,0,.15-4.47c0-.79-.25-1.11-1.06-1.09C61.58,32.34,60,32.32,58.34,32.32Zm16,0c-1.72,0-3.43,0-5.15,0-.66,0-.94.27-.93.94,0,1.2,0,2.4,0,3.6.14,3.24,1.88,5.3,4.84,5.79a5.66,5.66,0,0,0,7-5,33.22,33.22,0,0,0,.11-4.57c0-.7-.48-.74-1-.74Zm21.85,3c0-.81,0-1.46,0-2.11s-.28-.87-.89-.87H85.21c-.66,0-.95.26-.93.93,0,1.2,0,2.41,0,3.61.14,3.22,1.84,5.25,4.77,5.77a5.69,5.69,0,0,0,7-5A20.16,20.16,0,0,0,96.22,35.3Z"/><path class="cls-2" d="M56.34.2a8.43,8.43,0,0,1,4.94,3.55,7.53,7.53,0,0,1-.65,9.15,112.92,112.92,0,0,1-9.85,9.84,7.75,7.75,0,0,1-10.9-10.93c3-3.48,6.39-6.64,9.72-9.82A9,9,0,0,1,53,.2Zm2,7.74a3.5,3.5,0,0,0-2-3.3,3.36,3.36,0,0,0-3.83.42c-1,.83-1.86,1.8-2.8,2.7-.35.35-.34.63,0,1q2.1,2.09,4.19,4.2c.35.36.63.37,1,0,.87-.91,1.78-1.8,2.64-2.72A3.43,3.43,0,0,0,58.32,7.94ZM45.9,20.33a3.3,3.3,0,0,0,2.34-.84c.92-.87,1.8-1.77,2.71-2.65.36-.35.32-.64,0-1-1.41-1.39-2.8-2.79-4.19-4.2-.3-.3-.57-.41-.9-.07-.95,1-2,1.9-2.83,2.94a3.34,3.34,0,0,0-.36,3.76A3.45,3.45,0,0,0,45.9,20.33Z"/><path class="cls-1" d="M28.53,73.48c0,2.57,0,5.14,0,7.7,0,1.51-.81,2.47-2,2.45s-2-.95-2-2.39q0-7.8,0-15.6c0-1.45.79-2.38,2-2.4s2.05.94,2.05,2.44C28.54,68.28,28.53,70.88,28.53,73.48Z"/><path class="cls-1" d="M28.52,89a2,2,0,1,1-4-.07,2,2,0,0,1,4,.07Z"/><path class="cls-1" d="M41.39,77.19a2,2,0,1,1-2-2.06A2,2,0,0,1,41.39,77.19Z"/><path class="cls-2" d="M81.67,72.14c-.61,0-1.24,0-1.85,0-1-.09-1.25.34-1.2,1.25.06,1.17,0,2.35,0,3.52,0,1.44-.82,2.38-2,2.4a2.11,2.11,0,0,1-2.09-2.24c-.07-1.17,0-2.34,0-3.52,0-1.33-.07-1.39-1.36-1.4s-2.34,0-3.51,0a2.08,2.08,0,0,1-2.2-2,2,2,0,0,1,2-2.06C70.71,68,72,68,73.24,68c.94,0,1.26-.37,1.25-1.28a25.4,25.4,0,0,1,.08-3.9,2,2,0,1,1,4.05.24c0,1.23.06,2.47,0,3.71,0,1,.36,1.25,1.26,1.24,1.3,0,2.6,0,3.9.08a2,2,0,0,1,2,2.09,2.09,2.09,0,0,1-2.15,2c-.65,0-1.3,0-2,0Z"/></svg>