<?xml version="1.0" encoding="utf-8"?>
<!-- Generator: Adobe Illustrator 24.2.1, SVG Export Plug-In . SVG Version: 6.00 Build 0)  -->
<svg version="1.1" id="Layer_1" xmlns="http://www.w3.org/2000/svg" xmlns:xlink="http://www.w3.org/1999/xlink" x="0px" y="0px"
	 viewBox="0 0 99.9 98.6" style="enable-background:new 0 0 99.9 98.6;" xml:space="preserve">
<style type="text/css">
	.st0{fill:#263863;}
	.st1{fill:#449A4E;}
	.st2{fill:#3F3F3F;}
</style>
<path class="st0" d="M4.8,52c0.2-1.6,0.4-3.1,0.7-4.7c1.7-9.1,6.1-16.6,13.1-22.7c6.3-5.5,13.7-8.6,22-9.5c1.2-0.1,2.5-0.2,3.8-0.2
	c2,0,3,1,3,3c0,11.7,0,23.4,0,35.1c0,0.6,0.1,1.3,0.3,1.9c4.1,10.9,8.1,21.9,12.2,32.8c0.8,2.2,0.2,3.5-2,4.3
	c-4.6,1.6-9.4,2.4-14.2,2.2C33,93.8,23.9,89.8,16.4,82.3c-6.1-6.1-9.8-13.6-11.1-22.1C5.1,59.1,5,58,4.8,56.9
	C4.8,55.3,4.8,53.7,4.8,52z M54.3,87.5c-0.1-0.3-0.2-0.6-0.3-0.8c-3.8-10.2-7.6-20.4-11.4-30.6c-0.3-0.8-0.4-1.6-0.4-2.5
	c0-10.8,0-21.5,0-32.3c0-0.3,0-0.7,0-1c-10.9,0.5-22.6,7.3-28.4,18.9c-6.5,13.1-3.9,28.3,5.6,38.5C28.6,87.9,42.8,91.1,54.3,87.5z"
	/>
<path class="st1" d="M57.8,4.2c1.6,0.2,3.1,0.4,4.7,0.7c9.5,1.8,17.4,6.5,23.5,14c5,6.1,7.9,13.1,8.7,20.9c0.1,1.3,0.2,2.6,0.2,3.9
	c0,1.7-1.1,2.8-2.8,2.8c-12.2,0-24.4,0-36.6,0c-1.8,0-2.8-1.1-2.8-2.9c0-12.2,0-24.4,0-36.6c0-1.5,0.7-2.3,1.9-2.9
	C55.7,4.2,56.7,4.2,57.8,4.2z M89.4,41.3C88.3,23.3,72.8,10.2,58,9.7c0,10.5,0,21,0,31.5C68.5,41.3,78.9,41.3,89.4,41.3z"/>
<path class="st2" d="M73.8,51.8c5.9,0,11.9,0,17.8,0c2.2,0,3.2,1,3.2,3.2C94.5,66.4,90.2,76,82,83.8c-3.7,3.5-7.9,6-12.6,7.9
	c-1.7,0.7-3.1,0-3.7-1.8C63.4,83.9,61.2,77.9,59,72c-2-5.3-4-10.6-6-15.9c-0.3-0.9-0.6-1.7-0.1-2.6c0.6-1.1,1.5-1.6,2.7-1.6
	C61.7,51.8,67.8,51.8,73.8,51.8z M59.1,57.1c3.6,9.6,7.1,19.1,10.6,28.5C81.5,80.5,89,67.8,89.4,57.1C79.3,57.1,69.3,57.1,59.1,57.1
	z"/>
</svg>
