<?xml version="1.0" encoding="utf-8"?>
<!-- Generator: Adobe Illustrator 24.2.1, SVG Export Plug-In . SVG Version: 6.00 Build 0)  -->
<svg version="1.1" id="Layer_1" xmlns="http://www.w3.org/2000/svg" xmlns:xlink="http://www.w3.org/1999/xlink" x="0px" y="0px"
	 viewBox="0 0 99.9 98.6" style="enable-background:new 0 0 99.9 98.6;" xml:space="preserve">
<style type="text/css">
	.st0{fill:#263863;}
	.st1{fill:#449A4E;}
</style>
<g id="Layer_1-2">
	<path class="st0" d="M82,0c0.6,0.5,1,1.3,0.9,2.2c0,2.1,0,4.2,0,6.3c0,0.7,0.2,0.9,0.9,0.9c2.3,0,4.6,0,6.8,0
		c2.5-0.1,4.7,1.9,4.8,4.5c0,0.1,0,0.2,0,0.4c0,0.8,0,1.5,0,2.3s-0.3,0.9-0.9,0.9c-2.8,0-2.3,0.3-2.3-2.2c0-2-0.5-2.5-2.5-2.5h-5.5
		c-1.3,0-1.3,0-1.3,1.3c0,10.4,0,20.8,0,31.3c0,2.1,0.2,1.8-1.9,1.8c-1.3,0-1.3,0-1.3-1.3v-41c0-1.4,0-1.4-1.4-1.4H21.7
		c-1.3,0-1.3,0-1.3,1.3v65.9c0,1.4,0,1.4,1.4,1.4c3.8,0,7.6,0,11.4,0c0.9,0,1.3,0.2,1.3,1.2c-0.1,2.4,0.3,2.1-2.1,2.1
		c-8,0-15.9,0-23.9,0c-0.7-0.1-1.4,0.3-1.7,1c-0.6,1.4-1.3,2.8-2,4.1c-0.5,1-0.5,1,0.6,1h8.3c6.5,0,13,0,19.5,0c1,0,1.3,0.3,1.3,1.3
		c-0.1,2.3,0.2,2-2,2H4.8c-0.3,0-0.8-0.2-1,0.2s0.2,0.7,0.5,1c1,1.2,2.5,1.9,4.1,1.8c2.8,0,5.6,0,8.4,0H61c1.6,0,1.6,0,1.6,1.5
		c0,1.9,0.2,1.8-1.7,1.8H8c-3.8,0.1-7.1-2.5-7.8-6.2c-0.3-1.1-0.2-2.2,0.3-3.2c1.3-2.4,2.4-4.9,3.7-7.3c0.4-0.7,0.5-1.5,0.5-2.2
		c0-19.1,0-38.2-0.1-57.2c-0.1-2.8,2-5.1,4.8-5.2c0.1,0,0.3,0,0.4,0c2.1,0.2,4.2,0,6.3,0c0.8,0,1-0.3,1-1c0-2.1,0-4.2,0-6.3
		C17.1,1.3,17.4,0.5,18,0H82z M17.2,42.3c0-9.5,0-19,0-28.5c0-1-0.3-1.2-1.2-1.2c-2,0.1-3.9,0-5.8,0c-1.6,0-2.2,0.6-2.2,2.2
		c0,18.7,0,37.3,0,56c0,0.8,0.3,1,1.1,1c2.3,0,4.5,0,6.8,0c1.3,0,1.3,0,1.3-1.3V42.3z"/>
	<path class="st1" d="M32.8,25.1c-1,0-2,0-2.9,0c-1.2,0-1.8-0.6-1.8-1.8c0-0.9,0.4-2.1-0.2-2.7s-1.7-0.1-2.6-0.2
		c-1.2,0-1.8-0.6-1.8-1.8c0-2,0-4,0-6c-0.1-0.8,0.5-1.6,1.3-1.7c0.1,0,0.3,0,0.4,0c0.7,0,1.4,0,2.1,0s0.8-0.2,0.8-0.8s0-1.4,0-2.2
		C28,7,28.6,6.3,29.4,6.2c0.1,0,0.2,0,0.3,0c2.1,0,4.1,0,6.1,0c0.8-0.1,1.6,0.5,1.7,1.4c0,0.1,0,0.2,0,0.3c0,0.7,0,1.4,0,2.1
		s0.2,1,0.9,0.9s1.5,0,2.2,0c0.8,0,1.5,0.6,1.5,1.4c0,0,0,0.1,0,0.1c0,2.1,0,4.2,0,6.3c0.1,0.8-0.6,1.5-1.4,1.6c-0.1,0-0.1,0-0.2,0
		c-0.7,0-1.5,0-2.2,0s-0.9,0.3-0.8,0.9s0,1.3,0,2c0,1.3-0.6,1.9-1.9,1.9L32.8,25.1z M28.6,17.1c0.4,0,0.8,0,1.2,0
		c0.8,0,1.6,0.6,1.6,1.5c0,0,0,0.1,0,0.1c0,0.3,0,0.6,0,1c0.1,2.4-0.5,2.1,2.2,2.1c0.6,0,0.8-0.3,0.8-0.8c0-0.8,0-1.6,0-2.3
		c0-0.8,0.7-1.5,1.5-1.5c0.3,0,0.7,0,1.1,0c2.3,0,2.3,0,2.1-2.3c0-0.5-0.2-0.7-0.7-0.7c-0.8,0-1.6,0-2.3,0c-0.8,0.1-1.6-0.6-1.6-1.4
		c0-0.1,0-0.1,0-0.2c0-0.8,0-1.5,0-2.3c0-0.3,0-0.7-0.3-0.7c-0.8-0.1-1.6-0.1-2.3,0c-0.4,0-0.3,0.4-0.3,0.7c0,0.7,0,1.4,0,2.1
		c0.1,0.9-0.5,1.6-1.4,1.8c-0.1,0-0.2,0-0.4,0c-0.8,0-1.5,0-2.2,0c-0.5,0-0.7,0.2-0.7,0.7C26.5,17.1,26.5,17.1,28.6,17.1z"/>
	<path class="st0" d="M50,31.2h23.6c1.3,0,1.4,0,1.3,1.3c0,2.2,0.2,1.9-1.9,1.9c-15.5,0-31,0-46.6,0c-1.5,0-1.6,0-1.5-1.5
		c0-1.9-0.2-1.7,1.7-1.7L50,31.2z"/>
	<path class="st0" d="M49.9,40.7H26.3c-1.3,0-1.4,0-1.3-1.3c0-2.2-0.2-1.9,1.9-1.9h46.7c1.4,0,1.4,0,1.4,1.4c0,2,0.2,1.8-1.8,1.8
		C65.4,40.7,57.6,40.7,49.9,40.7z"/>
	<path class="st0" d="M50,46.9H26.3c-1.3,0-1.3,0-1.3-1.3c0-2.2-0.2-1.9,1.9-1.9h46.7c1.4,0,1.4,0,1.4,1.5c0,2,0.2,1.8-1.8,1.8
		C65.4,47,57.7,47,50,46.9z"/>
	<path class="st0" d="M92,37.5c0-5.3,0-10.7,0-16c0-1,0.2-1.3,1.3-1.3c2.3,0.1,2-0.2,2,2c0,10.3,0,20.7,0,31c0,1.5,0,1.5-1.4,1.5
		c-2,0-1.8,0.2-1.8-1.8C92,47.8,92,42.6,92,37.5z"/>
	<path class="st0" d="M67.9,20.4c-2.5,0-5.1,0-7.6,0c-0.8,0-1.1-0.2-1.1-1c0.1-2.6-0.3-2.2,2.1-2.2c4.7,0,9.3,0,14,0
		c0.9,0,1.2,0.3,1.2,1.2c-0.1,2.5,0.3,2.1-2.1,2.1C72.3,20.4,70.1,20.4,67.9,20.4z"/>
	<path class="st0" d="M70.9,14.1c-1.5,0-3.1,0-4.6,0c-0.6,0-0.9-0.2-0.9-0.9c0-2.9-0.3-2.4,2.2-2.4s5.2,0,7.8,0
		c0.8,0,1.1,0.3,1.1,1.1c-0.1,2.6,0.3,2.2-2.1,2.2L70.9,14.1z"/>
	<path class="st0" d="M29.7,53.2c-1.3,0-2.6,0-3.9,0c-0.6,0-0.9-0.2-0.9-0.9c0-2.9-0.3-2.4,2.2-2.4c2.1,0,4.2,0,6.3,0
		c0.7,0,1,0.2,1,1c-0.1,2.8,0.3,2.3-2.2,2.3C31.4,53.2,30.6,53.2,29.7,53.2L29.7,53.2z"/>
	<path class="st1" d="M29.7,59.4h-3.9c-0.6,0-0.8-0.2-0.8-0.8c0-3-0.3-2.4,2.3-2.5c2.1,0,4.1,0,6.2,0c0.7,0,1,0.2,1,1
		c-0.1,2.7,0.3,2.2-2.2,2.3C31.4,59.5,30.5,59.5,29.7,59.4L29.7,59.4z"/>
	<path class="st0" d="M62.5,12.5c0,1.6,0,1.6-1.7,1.6s-1.6,0.1-1.6-1.8c0-1.5,0-1.5,1.8-1.5C62.5,10.9,62.5,10.9,62.5,12.5z"/>
	<path class="st0" d="M68.8,89.1c0,1.6,0,1.6-1.7,1.6s-1.6,0-1.6-1.8c0-1.5,0-1.5,1.8-1.5C68.8,87.4,68.8,87.4,68.8,89.1z"/>
</g>
<path class="st1" d="M79.2,52.6c9.2,0,16.7,7.5,16.8,16.7c0,9.2-7.5,16.8-16.8,16.8c-9.2,0-16.7-7.5-16.7-16.8
	C62.5,60.2,70,52.6,79.2,52.6z M68.4,76.6c0.9-0.7,1.8-1.4,2.7-2.1c0.9-0.7,1.9-1.3,2.9-1.9c-1.4-1.9-1.5-4-1.2-6.2
	c0.5-3.1,3.2-5.4,6.4-5.4c3.2,0,6,2.3,6.5,5.4c0.3,2.2,0.2,4.3-1.2,6.3c2.2,1,3.9,2.5,5.3,4.4c3.6-4.6,3.7-12.3-1.5-17.2
	C83,55,75.1,55.1,70.1,60C64.9,65,65.2,72.7,68.4,76.6z M71.3,79.8c5,3.8,11.5,3.4,15.7,0c-1.8-2.9-4.4-4.5-7.8-4.5
	C75.8,75.2,73.2,76.8,71.3,79.8z M82.2,68.1C82.1,68.1,82.1,68.1,82.2,68.1c0-0.2,0-0.5,0-0.7c-0.1-1.5-1.2-2.6-2.6-2.8
	c-1.5-0.1-2.8,0.8-3.1,2.2c-0.1,0.8-0.1,1.7,0,2.5c0.3,1.4,1.5,2.2,2.8,2.2c1.3,0,2.5-1,2.8-2.3C82.1,68.8,82.1,68.4,82.2,68.1z"/>
</svg>
