<?xml version="1.0" encoding="utf-8"?>
<!-- Generator: Adobe Illustrator 24.2.1, SVG Export Plug-In . SVG Version: 6.00 Build 0)  -->
<svg version="1.1" id="Layer_1" xmlns="http://www.w3.org/2000/svg" xmlns:xlink="http://www.w3.org/1999/xlink" x="0px" y="0px"
	 viewBox="0 0 100 100" style="enable-background:new 0 0 100 100;" xml:space="preserve">
<style type="text/css">
	.st0{fill:#253863;}
	.st1{fill:#459A4E;}
</style>
<g>
	<path class="st0" d="M26.2,0C41.1,0,56,0,70.9,0c0.1,0.1,0.2,0.1,0.4,0.2c4.4,1.7,6.2,4.2,6.2,9c0,13.1,0,26.3,0,39.4
		c0,2.5,0,4.9,0,7.4c0,0.7,0.2,1.1,1,1.2c5,0.7,9.2,3,12.7,6.6c9.2,9.6,7.2,25.9-4.1,32.9c-2.8,1.8-5.9,2.8-9.1,3.3
		c-1.7,0-3.4,0-5.1,0c-0.1,0-0.2-0.1-0.4-0.1c-9-1.3-16-7.7-18.1-16.6c-0.2-1.1-0.8-1.2-1.7-1.2c-13.8,0-27.5,0-41.3,0
		c-4.7,0-8.3-3.6-8.3-8.3c0-21.9,0-43.8,0-65.7c0-2,0.7-3.7,2-5.3C6.2,1.4,7.8,0.6,9.6,0c1.6,0,3.1,0,4.7,0c1.1,0.9,1.5,1.7,1.1,2.6
		C15.1,3.6,14.3,4,12.9,4c-0.8,0-1.7,0-2.5,0.2c-1.9,0.4-3.2,2.1-3.3,4c0,1.8,1.2,3.5,3,4c0.7,0.2,1.4,0.2,2.1,0.2
		c18.6,0,37.3,0,55.9,0c0.6,0,1.2-0.1,1.7-0.2c2-0.4,3.4-2.1,3.4-4.1c0-2-1.4-3.6-3.4-4C69.3,4,68.7,4,68.1,4c-6.3,0-12.6,0-18.9,0
		C42,4,34.7,4,27.5,4c-0.8,0-1.6-0.1-2.1-0.8C24.6,2.2,24.9,1,26.2,0z M32.1,78c6.8,0,13.7,0,20.5,0c0.9,0,1.2-0.2,1.3-1.1
		c0.1-1.7,0.4-3.3,0.9-4.9c1.6-4.8,4.4-8.6,8.6-11.4c0.4-0.2,0.9-0.4,0.3-1c-0.7-0.6-0.8-1.4-0.4-2.2c0.4-0.9,1.1-1.2,2-1.2
		c1.2,0,2.3,0,3.5,0c2.9-0.1,4.6-1.7,4.6-4.6c0.1-4.5,0-9,0-13.5c0-0.5-0.1-0.8-0.7-0.5c-1.3,0.6-2.7,0.8-4.1,0.8
		c-18.9,0-37.8,0-56.6,0c-1.5,0-2.9-0.1-4.2-0.8c-0.5-0.3-0.7-0.1-0.7,0.4c0,4.6,0,9.2,0,13.8c0,2.1,1.3,3.7,3.1,4.2
		c0.7,0.2,1.5,0.2,2.2,0.2c12.7,0,25.4,0,38.1,0c0.4,0,0.8,0,1.2,0c1.1,0.1,1.9,0.9,1.9,2c0,1.1-0.7,1.9-1.8,2c-0.3,0-0.7,0-1,0
		c-13,0-26,0-39,0c-1.4,0-2.7-0.2-4-0.8c-0.6-0.3-0.7-0.1-0.7,0.5c0,4.5,0,9,0,13.6c0,1.7,0.6,3.1,2.2,3.9c0.9,0.5,1.9,0.6,2.9,0.6
		C18.9,78,25.5,78,32.1,78z M40.1,34.3c1.8,0,3.6,0,5.4,0c7.6,0,15.3,0,22.9,0c3,0,4.8-1.6,4.9-4.4c0.1-4.6,0-9.2,0-13.8
		c0-0.6-0.2-0.7-0.7-0.4c-1.2,0.6-2.5,0.8-3.8,0.8c-19.1,0-38.2,0-57.3,0c-1.3,0-2.5-0.2-3.7-0.7c-0.6-0.3-0.8-0.3-0.8,0.5
		c0,4.5,0,9,0,13.6c0,1.7,0.6,3.1,2.2,3.9c0.9,0.5,1.9,0.6,2.9,0.6C21.5,34.3,30.8,34.3,40.1,34.3z M92.9,78.7
		c-0.1-9.3-7.1-17.4-17.4-17.6C66.3,61,58.1,68,58,78.3c-0.2,9.1,6.8,17.5,17.3,17.6C84.4,96.1,92.5,89,92.9,78.7z"/>
	<path class="st0" d="M19.9,0c0.5,0.4,1,0.8,1.2,1.5c0.2,1-0.3,1.9-1.2,2.3c-0.9,0.4-2,0.1-2.6-0.8c-0.5-0.8-0.4-1.9,0.3-2.6
		c0.2-0.2,0.4-0.3,0.6-0.5C18.9,0,19.4,0,19.9,0z"/>
	<path class="st0" d="M36.4,87.9c0,1.2-0.9,2-2.1,2c-1.2,0-2-0.9-2-2.1c0-1.1,0.9-1.9,2-1.9C35.5,85.9,36.4,86.8,36.4,87.9z"/>
	<path class="st0" d="M42.3,87.9c0,1.1-0.9,2-2.1,2c-1.2,0-2-0.9-2-2.1c0-1.1,0.9-1.9,2-1.9C41.4,85.9,42.3,86.8,42.3,87.9z"/>
	<path class="st0" d="M46.1,85.9c1.2,0,2,0.9,2,2c0,1.2-0.9,2-2.1,2c-1.1,0-2-0.9-2-2C44.1,86.8,44.9,85.9,46.1,85.9z"/>
	<path class="st1" d="M40.2,52.4c-1.6,0-3.1,0-4.7,0c-2.9,0-5.1-2.3-5.1-5.2c0-2.8,2.2-5.1,5.1-5.1c3.2,0,6.4,0,9.6,0
		c2.9,0,5,2.3,5,5.1c0,2.8-2.2,5.1-5,5.1C43.4,52.4,41.8,52.4,40.2,52.4z M40.2,48.4c1.4,0,2.9,0,4.3,0c0.7,0,1.4-0.2,1.4-1
		c0-0.9-0.7-1.1-1.4-1.1c-2.8,0-5.6,0-8.4,0c-0.7,0-1.4,0.2-1.4,1.1c0,0.9,0.7,1.1,1.4,1.1C37.4,48.4,38.8,48.4,40.2,48.4z"/>
	<path class="st1" d="M40.3,64c1.6,0,3.2,0,4.8,0c2.9,0.1,5,2.3,5,5.1c0,2.8-2.2,5.1-5,5.1c-3.2,0-6.4,0-9.7,0c-2.8,0-5-2.3-5-5.2
		c0-2.8,2.2-5,5-5.1C37,64,38.6,64,40.3,64z M40.3,70.2c1.3,0,2.5,0,3.8,0c0.3,0,0.5,0,0.8,0c0.6-0.1,1-0.4,1-1.1c0-0.6-0.5-0.9-1-1
		c-0.2,0-0.5,0-0.7,0c-2.6,0-5.3,0-7.9,0c-0.3,0-0.6,0-1,0.1c-0.4,0.1-0.7,0.5-0.7,0.9c0,0.5,0.3,0.8,0.7,1c0.3,0.1,0.7,0.1,1.1,0.1
		C37.7,70.2,39,70.2,40.3,70.2z"/>
	<path class="st0" d="M24.6,49.3c-1.2,0-2-0.9-2-2c0-1.2,0.9-2,2.1-2c1.1,0,2,0.9,2,2C26.6,48.4,25.7,49.3,24.6,49.3z"/>
	<path class="st0" d="M59.4,60.2c-1.1,0-2-0.9-2-2.1c0-1.1,0.9-2,2.1-2c1.2,0,2,0.9,2,2.1C61.4,59.4,60.5,60.2,59.4,60.2z"/>
	<path class="st1" d="M40.2,30.5c-1.6,0-3.2,0-4.8,0c-2.8-0.1-5-2.3-5-5.2c0-2.8,2.2-5.1,5-5.1c3.2,0,6.4,0,9.6,0
		c2.9,0,5.1,2.3,5.1,5.1c0,2.9-2.2,5.1-5.1,5.2C43.4,30.6,41.8,30.5,40.2,30.5z M40.4,24.3c-1.4,0-2.9,0-4.3,0
		c-0.7,0-1.4,0.2-1.4,1.1c0,0.9,0.7,1.1,1.4,1.1c2.8,0,5.5,0,8.3,0c0.7,0,1.4-0.1,1.5-1c0.1-0.7-0.5-1.1-1.5-1.1
		C43,24.3,41.7,24.3,40.4,24.3z"/>
	<path class="st0" d="M55.8,27.4c-1.2,0-2-0.9-2-2.1c0-1.1,0.9-2,2.1-2c1.1,0,2,0.9,2,2C57.9,26.5,57,27.4,55.8,27.4z"/>
	<path class="st0" d="M61.7,23.4c1.2,0,2,0.9,2,2c0,1.1-0.9,2-2,2c-1.2,0-2.1-0.8-2.1-2C59.7,24.2,60.5,23.4,61.7,23.4z"/>
	<path class="st1" d="M67.6,74.1c1.6,0,2.9,0.7,3.9,1.8c0.6,0.6,1,0.6,1.6,0c2.1-2.1,4.2-4.2,6.3-6.3c2.1-2,4.9-2.2,7-0.6
		c2.3,1.7,2.7,5,1,7.2c-0.3,0.4-0.6,0.7-0.9,1c-3.3,3.3-6.6,6.6-9.9,9.9c-2.8,2.8-5.7,2.8-8.4,0c-1.5-1.5-3.2-3-4.5-4.7
		c-2.4-2.8-0.9-7.1,2.6-8.1C66.6,74.2,67.1,74.1,67.6,74.1z M84.1,73.1c0-0.8-0.7-1.2-1.5-0.8c-0.3,0.2-0.6,0.5-0.9,0.7
		c-2.5,2.5-5,5-7.5,7.5c-1.5,1.5-2.5,1.4-3.9,0c-0.6-0.6-1.1-1.2-1.7-1.7c-0.5-0.5-1.1-0.9-1.7-0.3c-0.6,0.6-0.3,1.3,0.2,1.8
		c1.3,1.3,2.7,2.7,4,4c0.8,0.8,1.4,0.8,2.2,0c3.4-3.4,6.8-6.8,10.2-10.1C83.9,73.9,84.2,73.5,84.1,73.1z"/>
</g>
</svg>
