<?xml version="1.0" encoding="utf-8"?>
<!-- Generator: Adobe Illustrator 24.2.1, SVG Export Plug-In . SVG Version: 6.00 Build 0)  -->
<svg version="1.1" id="Layer_1" xmlns="http://www.w3.org/2000/svg" xmlns:xlink="http://www.w3.org/1999/xlink" x="0px" y="0px"
	 viewBox="0 0 50 50" style="enable-background:new 0 0 50 50;" xml:space="preserve">
<style type="text/css">
	.st0{fill:#3F969A;}
	.st1{fill:#539EA2;}
	.st2{fill:#FDFDFD;}
</style>
<g>
	<path class="st0" d="M49,25c0,13.3-10.7,24-24.1,24C11.6,49,1,38.2,1,24.8C1,11.6,11.9,1,25.3,1C38.3,1,49,11.9,49,25z M5,29.3
		c0,0.2,0,0.4,0,0.6c1.2,4.7,3.7,8.6,7.6,11.5c5.8,4.3,12.3,5.3,19.1,3c5.7-1.9,9.8-5.9,12.2-11.4c0.5-1.2,1-2.4,1.1-3.8
		c0.4-0.7,0.4-1.4,0.4-2.1c0-0.1,0.1-0.3,0.1-0.4c0.1-2.9-0.1-5.7-1.1-8.4c-1.3-3.8-3.5-6.9-6.6-9.4c-3.3-2.7-7.1-4.2-11.3-4.5
		c-3.2-0.3-6.4,0.2-9.4,1.5C11.9,8.3,8.2,12,6,17.2c-0.8,2-1.3,4-1.5,6.2c-0.1,1.3-0.2,2.6,0.1,3.8C4.6,27.9,4.6,28.7,5,29.3z"/>
	<path class="st1" d="M4.6,27.2c-0.3-1.3-0.2-2.6-0.1-3.8c0.2-2.1,0.6-4.2,1.5-6.2C8.2,12,11.9,8.3,17.1,6c3-1.3,6.2-1.8,9.4-1.5
		c4.2,0.3,8,1.8,11.3,4.5c3.1,2.5,5.3,5.6,6.6,9.4c1,2.7,1.2,5.6,1.1,8.4c0,0.1-0.1,0.3-0.1,0.4c-1.7,0-3.3,0-5,0
		c-1.3,0-2-0.5-2.3-1.9c-1.3-5.3-2.6-10.6-3.9-15.8C34.1,9,34,8.5,33.7,8c-0.6-0.9-1.7-0.9-2.3,0c-0.3,0.5-0.4,1-0.5,1.6
		c-2,9.7-4.1,19.5-6.1,29.2c0,0.2-0.1,0.5-0.3,0.7c-0.1-0.2-0.1-0.3-0.2-0.5c-1.6-6.4-3.2-12.9-4.8-19.3c-0.1-0.5-0.2-1-0.6-1.4
		c-0.6-0.7-1.6-0.7-2.2,0c-0.3,0.3-0.4,0.7-0.5,1.2c-0.5,2.1-1,4.3-1.5,6.4c-0.3,1.4-0.6,2.8-1,4.2c-0.4-0.2-0.5-0.5-0.7-0.7
		c-1.2-1.3-2.6-2.1-4.3-2.2C7.5,27.1,6,27.2,4.6,27.2z"/>
	<path class="st1" d="M45,29.3c-0.1,1.3-0.5,2.6-1.1,3.8c-2.5,5.5-6.5,9.4-12.2,11.4c-6.8,2.3-13.3,1.3-19.1-3
		C8.7,38.5,6.2,34.6,5,29.9c0-0.2,0-0.4,0-0.6c1.2,0,2.5,0,3.7,0c1.2,0,2.1,0.5,2.9,1.4c0.3,0.3,0.5,0.7,0.8,1c1.2,1.4,3,1,3.6-0.7
		c0.1-0.2,0.1-0.4,0.2-0.6c0.6-2.4,1.1-4.8,1.7-7.2c0-0.2,0-0.5,0.3-0.6c0.1,0.3,0.2,0.6,0.2,0.9c1.6,6.4,3.1,12.7,4.7,19.1
		c0.1,0.5,0.2,0.9,0.5,1.3c0.6,1,1.7,1,2.3,0c0.3-0.5,0.4-1,0.5-1.6c1.8-8.4,3.5-16.8,5.3-25.2c0.3-1.5,0.6-3.1,1-4.6
		c0.3,0.4,0.5,0.8,0.6,1.3c1,4,1.9,7.9,2.9,11.9c0.6,2.4,2,3.5,4.5,3.5C42,29.3,43.5,29.3,45,29.3z"/>
	<path class="st2" d="M45,29.3c-1.5,0-3,0-4.5,0c-2.4,0-3.9-1.2-4.5-3.5c-1-4-1.9-7.9-2.9-11.9c-0.1-0.4-0.3-0.9-0.6-1.3
		c-0.3,1.5-0.6,3.1-1,4.6c-1.8,8.4-3.5,16.8-5.3,25.2c-0.1,0.5-0.2,1.1-0.5,1.6c-0.6,0.9-1.7,0.9-2.3,0c-0.3-0.4-0.4-0.9-0.5-1.3
		c-1.6-6.4-3.1-12.7-4.7-19.1c-0.1-0.3-0.2-0.6-0.2-0.9c-0.3,0.1-0.3,0.4-0.3,0.6c-0.6,2.4-1.1,4.8-1.7,7.2C16,30.6,16,30.8,15.9,31
		c-0.6,1.7-2.3,2.1-3.6,0.7c-0.3-0.3-0.5-0.7-0.8-1c-0.8-0.9-1.7-1.4-2.9-1.4c-1.2,0-2.5,0-3.7,0c-0.4-0.7-0.3-1.4-0.4-2.2
		c1.5,0,2.9-0.1,4.4,0c1.7,0.1,3.1,0.9,4.3,2.2c0.2,0.2,0.3,0.5,0.7,0.7c0.3-1.4,0.7-2.8,1-4.2c0.5-2.1,1-4.3,1.5-6.4
		c0.1-0.4,0.2-0.8,0.5-1.2c0.6-0.8,1.6-0.8,2.2,0c0.3,0.4,0.4,0.9,0.6,1.4c1.6,6.4,3.2,12.9,4.8,19.3c0,0.1,0.1,0.3,0.2,0.5
		c0.3-0.2,0.3-0.5,0.3-0.7c2-9.7,4.1-19.5,6.1-29.2c0.1-0.5,0.2-1.1,0.5-1.6c0.6-0.9,1.7-0.9,2.3,0C34,8.5,34.1,9,34.3,9.5
		c1.3,5.3,2.6,10.6,3.9,15.8c0.3,1.3,1,1.8,2.3,1.9c1.7,0,3.3,0,5,0C45.4,27.9,45.4,28.6,45,29.3z"/>
</g>
</svg>
