<?xml version="1.0" encoding="utf-8"?>
<!-- Generator: Adobe Illustrator 22.0.1, SVG Export Plug-In . SVG Version: 6.00 Build 0)  -->
<svg version="1.1" id="Layer_1" xmlns="http://www.w3.org/2000/svg" xmlns:xlink="http://www.w3.org/1999/xlink" x="0px" y="0px"
	 viewBox="0 0 123.8 118.8" style="enable-background:new 0 0 123.8 118.8;" xml:space="preserve">
<style type="text/css">
	.st0{fill:#F9BA3A;}
</style>
<g>
	<path class="st0" d="M51.4,4.6l-9.9,20.2c-1.9,3.5-5.2,6-9,6.5l-22.3,3.2C0.4,35.9-3.4,47.9,3.6,54.7l16.1,15.9
		c2.8,2.7,4,6.7,3.4,10.5l-3.7,22.1c-1.7,9.7,8.6,17.1,17.2,12.5l19.9-10.5c0.5-0.3,1.1-0.5,1.7-0.7c2.1-0.7,3.5-2.6,3.5-4.8
		L61.1,6.8c0-5.3-7.3-7.1-9.6-2.4C51.4,4.5,51.4,4.6,51.4,4.6z"/>
</g>
</svg>
