<?xml version="1.0" encoding="utf-8"?>
<!-- Generator: Adobe Illustrator 22.0.1, SVG Export Plug-In . SVG Version: 6.00 Build 0)  -->
<svg version="1.1" id="Layer_1" xmlns="http://www.w3.org/2000/svg" xmlns:xlink="http://www.w3.org/1999/xlink" x="0px" y="0px"
	 viewBox="0 0 123.8 118.8" style="enable-background:new 0 0 123.8 118.8;" xml:space="preserve">
<style type="text/css">
	.st0{fill:#F9BA3A;}
</style>
<g id="XMLID_10_">
	<path id="XMLID_11_" class="st0" d="M72.5,6.6l9.9,20.2c1.7,3.5,5,5.9,9,6.5l22.3,3.2c9.7,1.4,13.5,13.3,6.6,20.2l-16.1,15.7
		c-2.8,2.7-4.1,6.6-3.4,10.5l3.8,22.2c1.7,9.7-8.5,17.1-17.2,12.5l-19.9-10.5c-3.4-1.8-7.6-1.8-11,0l-19.9,10.5
		c-8.6,4.6-18.9-2.8-17.2-12.5l3.7-22.1c0.6-3.8-0.6-7.8-3.4-10.5L3.6,56.6c-7-6.8-3.2-18.8,6.6-20.2l22.3-3.2c3.8-0.5,7.1-3,9-6.5
		l9.9-20.2C55.6-2.2,68.2-2.2,72.5,6.6z"/>
</g>
</svg>
