<?xml version="1.0" encoding="utf-8"?>
<!-- Generator: Adobe Illustrator 24.2.1, SVG Export Plug-In . SVG Version: 6.00 Build 0)  -->
<svg version="1.1" id="Layer_1" xmlns="http://www.w3.org/2000/svg" xmlns:xlink="http://www.w3.org/1999/xlink" x="0px" y="0px"
	 viewBox="0 0 100 100" style="enable-background:new 0 0 100 100;" xml:space="preserve">
<style type="text/css">
	
		.st0{fill:none;stroke:#263863;stroke-width:1.3684;stroke-linecap:round;stroke-linejoin:round;stroke-miterlimit:10;stroke-dasharray:0,3.421,0,3.421;}
	.st1{fill:#FFFFFF;stroke:#263863;stroke-width:1.0263;stroke-linecap:round;stroke-linejoin:round;stroke-miterlimit:10;}
	.st2{fill:#FFFFFF;stroke:#773389;stroke-width:1.0263;stroke-linecap:round;stroke-linejoin:round;stroke-miterlimit:10;}
	.st3{fill:#449A4E;}
	.st4{fill:#FDFFFD;stroke:#263863;stroke-width:1.2305;stroke-linecap:round;stroke-linejoin:round;stroke-miterlimit:10;}
	.st5{fill:#449A4E;stroke:#263863;stroke-width:1.2305;stroke-linecap:round;stroke-linejoin:round;stroke-miterlimit:10;}
	.st6{fill:#FFFFFF;stroke:#263863;stroke-width:1.2305;stroke-linecap:round;stroke-linejoin:round;stroke-miterlimit:10;}
	.st7{fill:#449A4E;stroke:#FFFFFF;stroke-width:1.2305;stroke-linecap:round;stroke-linejoin:round;stroke-miterlimit:10;}
</style>
<g>
	<polyline class="st0" points="23.9,46.7 23.9,36.3 73.1,36.3 	"/>
	<g>
		<path class="st1" d="M9.5,97.6l4.1-5.3c2.3-0.3,5.4-2.3,6.8-3.5L11,79.9c-0.3,0.1-0.5,0-0.6-0.1c-0.1-0.1-0.1-0.3-0.1-0.4l1.1-7.2
			l0,0c0.2-0.8-0.2-1.6-1-1.9c-0.8-0.2-1.6,0.2-1.8,1.1l0,0l-3.2,9.5c0,0-0.7,3.1-0.7,3.7c0,0.5,0,1,0.1,1.5c0,0.1,0,0.3,0.1,0.4
			l0,0l-3.9,4.5"/>
		<path class="st1" d="M12.9,86.1l-0.4,0.3c-0.7,0.5-1.7,0.9-2.6,1c-0.2,0-0.4,0-0.6,0"/>
	</g>
	<path class="st2" d="M10.5,80.5"/>
	<g>
		<path class="st1" d="M37.8,97.4l-3.9-5.1c-2.3-0.3-5.4-2.3-6.8-3.5l9.4-8.8c0.3,0.1,0.5,0,0.6-0.1c0.1-0.1,0.1-0.3,0.1-0.4
			l-1.1-7.2l0,0c-0.2-0.8,0.2-1.6,1-1.9c0.8-0.2,1.6,0.2,1.8,1.1l0,0l3.2,9.5c0,0,0.7,3.1,0.7,3.7c0,0.5,0,1-0.1,1.5
			c0,0.1,0,0.3-0.1,0.4l0,0l3.9,4.5"/>
		<path class="st1" d="M34.6,86.1l0.4,0.3c0.7,0.5,1.7,0.9,2.6,1c0.2,0,0.4,0,0.6,0"/>
	</g>
	<g>
		<rect x="10.2" y="52.6" class="st1" width="27" height="36"/>
		<g>
			<path class="st2" d="M30.6,76.9"/>
			<path class="st2" d="M30.6,80.2"/>
			<path class="st2" d="M16.7,80.2"/>
			<path class="st2" d="M30.6,83.4"/>
			<path class="st2" d="M16.7,83.4"/>
			<line class="st1" x1="20.6" y1="73.6" x2="31.2" y2="73.6"/>
			<line class="st1" x1="20.6" y1="76.9" x2="31.2" y2="76.9"/>
			<line class="st1" x1="20.6" y1="80.1" x2="31.2" y2="80.1"/>
			<line class="st1" x1="20.6" y1="83.4" x2="31.2" y2="83.4"/>
			<circle class="st3" cx="17.1" cy="73.6" r="0.6"/>
			<circle class="st3" cx="17.1" cy="76.9" r="0.6"/>
			<circle class="st3" cx="17.1" cy="80.1" r="0.6"/>
			<circle class="st3" cx="17.1" cy="83.4" r="0.6"/>
		</g>
		<g>
			<path class="st4" d="M24.2,62.9h7.1c0-2-0.8-3.7-2.1-5L24.2,62.9z"/>
			<path class="st5" d="M29.2,57.9c-1.3-1.3-3.1-2.1-5-2.1c-3.9,0-7.1,3.2-7.1,7.1s3.2,7.1,7.1,7.1c3.9,0,7.1-3.2,7.1-7.1h-7.1
				L29.2,57.9z"/>
		</g>
	</g>
	<g>
		<path class="st6" d="M87.9,73.8H54.3c-5.1,0-9.2-4.1-9.2-9.2V17.2c0-5.1,4.1-9.2,9.2-9.2h33.6c5.1,0,9.2,4.1,9.2,9.2v47.5
			C97.1,69.7,93,73.8,87.9,73.8z"/>
		<path class="st5" d="M79.3,10.3H63c-1.4,0-2.5-1.1-2.5-2.5l0,0c0-1.4,1.1-2.5,2.5-2.5h16.2c1.4,0,2.5,1.1,2.5,2.5l0,0
			C81.8,9.2,80.7,10.3,79.3,10.3z"/>
	</g>
	<g>
		<rect x="49.7" y="17.6" class="st5" width="7.3" height="7.3"/>
		<polyline class="st7" points="51.8,20.7 53.3,22.2 56.9,17.6 		"/>
	</g>
	<g>
		<rect x="49.7" y="31.3" class="st5" width="7.3" height="7.3"/>
	</g>
	<g>
		<rect x="49.7" y="45" class="st6" width="7.3" height="7.3"/>
	</g>
	<g>
		<rect x="49.7" y="58.8" class="st6" width="7.3" height="7.3"/>
	</g>
	<path class="st5" d="M63.3,17.8l-1,2.2c0,0,0,0-0.1,0l-2.4,0.2c-0.1,0-0.1,0.1,0,0.1l1.8,1.6c0,0,0,0,0,0.1l-0.5,2.3
		c0,0.1,0,0.1,0.1,0.1l2.1-1.2c0,0,0,0,0.1,0l2.1,1.2c0,0,0.1,0,0.1-0.1L65,22c0,0,0,0,0-0.1l1.8-1.6c0,0,0-0.1,0-0.1l-2.4-0.2
		c0,0,0,0-0.1,0l-1-2.2C63.4,17.8,63.3,17.8,63.3,17.8z"/>
	<path class="st5" d="M72.4,17.8l-1,2.2c0,0,0,0-0.1,0L69,20.3c-0.1,0-0.1,0.1,0,0.1l1.8,1.6c0,0,0,0,0,0.1l-0.5,2.3
		c0,0.1,0,0.1,0.1,0.1l2.1-1.2c0,0,0,0,0.1,0l2.1,1.2c0,0,0.1,0,0.1-0.1L74.2,22c0,0,0,0,0-0.1l1.8-1.6c0,0,0-0.1,0-0.1l-2.4-0.2
		c0,0,0,0-0.1,0l-1-2.2C72.5,17.8,72.5,17.8,72.4,17.8z"/>
	<path class="st5" d="M81.6,17.8l-1,2.2c0,0,0,0-0.1,0l-2.4,0.2c-0.1,0-0.1,0.1,0,0.1L80,22c0,0,0,0,0,0.1l-0.5,2.3
		c0,0.1,0,0.1,0.1,0.1l2.1-1.2c0,0,0,0,0.1,0l2.1,1.2c0,0,0.1,0,0.1-0.1L83.3,22c0,0,0,0,0-0.1l1.8-1.6c0,0,0-0.1,0-0.1l-2.4-0.2
		c0,0,0,0-0.1,0l-1-2.2C81.7,17.8,81.6,17.8,81.6,17.8z"/>
	<path class="st5" d="M63.3,31.3l-1,2.2c0,0,0,0-0.1,0l-2.4,0.2c-0.1,0-0.1,0.1,0,0.1l1.8,1.6c0,0,0,0,0,0.1l-0.5,2.3
		c0,0.1,0,0.1,0.1,0.1l2.1-1.2c0,0,0,0,0.1,0l2.1,1.2c0,0,0.1,0,0.1-0.1L65,35.6c0,0,0,0,0-0.1l1.8-1.6c0,0,0-0.1,0-0.1l-2.4-0.2
		c0,0,0,0-0.1,0l-1-2.2C63.4,31.3,63.3,31.3,63.3,31.3z"/>
	<path class="st5" d="M72.4,31.3l-1,2.2c0,0,0,0-0.1,0L69,33.8c-0.1,0-0.1,0.1,0,0.1l1.8,1.6c0,0,0,0,0,0.1l-0.5,2.3
		c0,0.1,0,0.1,0.1,0.1l2.1-1.2c0,0,0,0,0.1,0l2.1,1.2c0,0,0.1,0,0.1-0.1l-0.5-2.3c0,0,0,0,0-0.1l1.8-1.6c0,0,0-0.1,0-0.1l-2.4-0.2
		c0,0,0,0-0.1,0l-1-2.2C72.5,31.3,72.5,31.3,72.4,31.3z"/>
	<path class="st5" d="M81.6,31.3l-1,2.2c0,0,0,0-0.1,0l-2.4,0.2c-0.1,0-0.1,0.1,0,0.1l1.8,1.6c0,0,0,0,0,0.1l-0.5,2.3
		c0,0.1,0,0.1,0.1,0.1l2.1-1.2c0,0,0,0,0.1,0l2.1,1.2c0,0,0.1,0,0.1-0.1l-0.5-2.3c0,0,0,0,0-0.1l1.8-1.6c0,0,0-0.1,0-0.1l-2.4-0.2
		c0,0,0,0-0.1,0l-1-2.2C81.7,31.3,81.6,31.3,81.6,31.3z"/>
	<path class="st5" d="M63.3,44.9l-1,2.2c0,0,0,0-0.1,0l-2.4,0.2c-0.1,0-0.1,0.1,0,0.1l1.8,1.6c0,0,0,0,0,0.1l-0.5,2.3
		c0,0.1,0,0.1,0.1,0.1l2.1-1.2c0,0,0,0,0.1,0l2.1,1.2c0,0,0.1,0,0.1-0.1L65,49.1c0,0,0,0,0-0.1l1.8-1.6c0,0,0-0.1,0-0.1l-2.4-0.2
		c0,0,0,0-0.1,0l-1-2.2C63.4,44.8,63.3,44.8,63.3,44.9z"/>
	<path class="st5" d="M72.4,44.9l-1,2.2c0,0,0,0-0.1,0L69,47.3c-0.1,0-0.1,0.1,0,0.1l1.8,1.6c0,0,0,0,0,0.1l-0.5,2.3
		c0,0.1,0,0.1,0.1,0.1l2.1-1.2c0,0,0,0,0.1,0l2.1,1.2c0,0,0.1,0,0.1-0.1l-0.5-2.3c0,0,0,0,0-0.1l1.8-1.6c0,0,0-0.1,0-0.1l-2.4-0.2
		c0,0,0,0-0.1,0l-1-2.2C72.5,44.8,72.5,44.8,72.4,44.9z"/>
	<path class="st5" d="M63.3,58.4l-1,2.2c0,0,0,0-0.1,0l-2.4,0.2c-0.1,0-0.1,0.1,0,0.1l1.8,1.6c0,0,0,0,0,0.1L61.2,65
		c0,0.1,0,0.1,0.1,0.1l2.1-1.2c0,0,0,0,0.1,0l2.1,1.2c0,0,0.1,0,0.1-0.1L65,62.6c0,0,0,0,0-0.1l1.8-1.6c0,0,0-0.1,0-0.1l-2.4-0.2
		c0,0,0,0-0.1,0l-1-2.2C63.4,58.4,63.3,58.4,63.3,58.4z"/>
	<path class="st5" d="M90.7,17.8l-1,2.2c0,0,0,0-0.1,0l-2.4,0.2c-0.1,0-0.1,0.1,0,0.1l1.8,1.6c0,0,0,0,0,0.1l-0.5,2.3
		c0,0.1,0,0.1,0.1,0.1l2.1-1.2c0,0,0,0,0.1,0l2.1,1.2c0,0,0.1,0,0.1-0.1L92.5,22c0,0,0,0,0-0.1l1.8-1.6c0,0,0-0.1,0-0.1l-2.4-0.2
		c0,0,0,0-0.1,0l-1-2.2C90.8,17.8,90.7,17.8,90.7,17.8z"/>
	<line class="st1" x1="66.6" y1="7.8" x2="76" y2="7.8"/>
</g>
</svg>
