<?xml version="1.0" encoding="utf-8"?>
<!-- Generator: Adobe Illustrator 24.2.1, SVG Export Plug-In . SVG Version: 6.00 Build 0)  -->
<svg version="1.1" id="Layer_1" xmlns="http://www.w3.org/2000/svg" xmlns:xlink="http://www.w3.org/1999/xlink" x="0px" y="0px"
	 viewBox="0 0 500 500" style="enable-background:new 0 0 500 500;" xml:space="preserve">
<style type="text/css">
	.st0{fill:#CADDFF;}
	.st1{fill:#FFFFFF;}
	.st2{fill:#474849;}
	.st3{fill:#459A4E;}
	.st4{fill:#D3EAD4;}
	.st5{fill:#707070;}
	.st6{fill:#AEBDD3;}
	.st7{fill:#253863;}
	.st8{fill:#2D4877;}
	.st9{fill:#494949;}
	.st10{fill:#020202;}
	.st11{fill:#99B9FF;}
	.st12{fill:#333333;}
</style>
<path class="st0" d="M127.6,134.1c49.6-49.8,35.4-81,69.4-104c52.3-35.5,149.8-5,207.3,43.8c70.5,59.7,106.8,168.8,65.4,267.5
	C425.7,446.5,309.6,501.1,206,484.6C113.5,470,22.6,397.3,13.5,310.2c-1-9.4-5.3-60.5,25.2-104.5C64,169.4,88.3,173.6,127.6,134.1z"
	/>
<g>
	<g>
		<path class="st1" d="M266.4,148.4h-220c-3.7,0-6.7-3-6.7-6.7V99c0-3.7,3-6.7,6.7-6.7h220c3.7,0,6.7,3,6.7,6.7v42.6
			C273.2,145.4,270.1,148.4,266.4,148.4z"/>
		<path class="st2" d="M266.4,149.3h-220c-4.2,0-7.6-3.4-7.6-7.6V99c0-4.2,3.4-7.6,7.6-7.6h220c4.2,0,7.6,3.4,7.6,7.6v42.6
			C274,145.9,270.6,149.3,266.4,149.3z M46.4,93.1c-3.2,0-5.9,2.6-5.9,5.9v42.6c0,3.2,2.6,5.9,5.9,5.9h220c3.2,0,5.9-2.6,5.9-5.9V99
			c0-3.2-2.6-5.9-5.9-5.9H46.4z"/>
	</g>
	<g>
		<path class="st3" d="M84,113.6l-9.7-1.4l-4.3-8.8c-0.9-1.9-3.6-1.9-4.6,0l-4.3,8.8l-9.7,1.4c-2.1,0.3-2.9,2.9-1.4,4.3l7,6.8
			l-1.7,9.7c-0.4,2.1,1.8,3.7,3.7,2.7l8.7-4.6l8.7,4.6c1.9,1,4-0.6,3.7-2.7l-1.7-9.7l7-6.8C86.9,116.5,86.1,113.9,84,113.6z"/>
		<path class="st3" d="M128.8,113.6l-9.7-1.4l-4.3-8.8c-0.9-1.9-3.6-1.9-4.6,0l-4.3,8.8l-9.7,1.4c-2.1,0.3-2.9,2.9-1.4,4.3l7,6.8
			l-1.7,9.7c-0.4,2.1,1.8,3.7,3.7,2.7l8.7-4.6l8.7,4.6c1.9,1,4-0.6,3.7-2.7l-1.7-9.7l7-6.8C131.7,116.5,130.9,113.9,128.8,113.6z"/>
		<path class="st3" d="M173.5,113.6l-9.7-1.4l-4.3-8.8c-0.9-1.9-3.6-1.9-4.6,0l-4.3,8.8l-9.7,1.4c-2.1,0.3-2.9,2.9-1.4,4.3l7,6.8
			l-1.7,9.7c-0.4,2.1,1.8,3.7,3.7,2.7l8.7-4.6l8.7,4.6c1.9,1,4-0.6,3.7-2.7l-1.7-9.7l7-6.8C176.4,116.5,175.6,113.9,173.5,113.6z"/>
		<path class="st4" d="M218.3,113.6l-9.7-1.4l-4.3-8.8c-0.9-1.9-3.6-1.9-4.6,0l-4.3,8.8l-9.7,1.4c-2.1,0.3-2.9,2.9-1.4,4.3l7,6.8
			l-1.7,9.7c-0.4,2.1,1.8,3.7,3.7,2.7l8.7-4.6l8.7,4.6c1.9,1,4-0.6,3.7-2.7l-1.7-9.7l7-6.8C221.2,116.5,220.4,113.9,218.3,113.6z"/>
		<path class="st4" d="M263.1,113.6l-9.7-1.4l-4.3-8.8c-0.9-1.9-3.6-1.9-4.6,0l-4.3,8.8l-9.7,1.4c-2.1,0.3-2.9,2.9-1.4,4.3l7,6.8
			l-1.7,9.7c-0.4,2.1,1.8,3.7,3.7,2.7l8.7-4.6l8.7,4.6c1.9,1,4-0.6,3.7-2.7l-1.7-9.7l7-6.8C266,116.5,265.1,113.9,263.1,113.6z"/>
		<path class="st3" d="M201.6,102c-0.6,0.1-1.5,0.6-1.9,1.4l-4.3,8.8l-9.7,1.4c-2.1,0.3-2.9,2.9-1.4,4.3l7,6.8l-1.7,9.7
			c-0.4,2.1,1.8,3.7,3.7,2.7l8.3-4.4V102z"/>
	</g>
</g>
<g>
	<g>
		<path class="st1" d="M349.4,178.5c0,0-2.3-6.3-1.8-8c0.6-2.1,2.9-6.5,1.8-10c-1.5-4.5-5.6-7.4-6.4-6.6c-0.9,0.8,3.8,9.5,0.2,12.5
			c0,0-2-0.2-4.5-4.9c-0.3-0.5-1-0.5-1.3,0.1c-0.4,0.8-0.6,3.3-0.4,5.2c0.3,2.5,1.8,4,3.3,5.7c0.9,1,0.9,8.4,1.2,8.4L349.4,178.5z"
			/>
		<path d="M341.2,181.8l-0.3-0.2c-0.4-0.3-0.4-0.5-0.6-2.9c-0.1-1.5-0.3-5-0.7-5.6l-0.2-0.2c-1.4-1.7-2.9-3.4-3.3-6
			c-0.2-1.8-0.1-4.7,0.4-5.7c0.3-0.5,0.8-0.9,1.5-0.9c0,0,0,0,0,0c0.6,0,1.1,0.3,1.4,0.8c1.6,3,3,4,3.6,4.4c1.5-1.8,0.4-5.7-0.4-8.3
			c-0.6-2.1-0.9-3.2-0.2-3.8c0.3-0.2,0.7-0.5,1.6-0.3c1.7,0.4,5,3.3,6.3,7.3c1,3-0.4,6.6-1.3,9c-0.2,0.6-0.4,1.1-0.5,1.5
			c-0.3,0.8,0.7,4.5,1.8,7.4l0.3,0.9L341.2,181.8z M338,162.2c-0.2,0.7-0.4,2.7-0.2,4.5c0.3,2.1,1.5,3.5,2.9,5.1l0.2,0.2
			c0.6,0.7,0.9,2.7,1.1,6.6c0,0.4,0.1,0.8,0.1,1.2l6.2-1.8c-0.7-2.1-2-6.1-1.5-7.6c0.1-0.5,0.3-1,0.6-1.6c0.8-2.1,2-5.4,1.2-7.8
			c-1.1-3.3-3.7-5.6-4.8-6.1c0.1,0.5,0.3,1.3,0.5,1.9c0.9,3.2,2.3,8.1-0.5,10.4l-0.3,0.2l-0.4,0C342.7,167.3,340.6,166.9,338,162.2z
			"/>
	</g>
	<path class="st5" d="M394.8,226.5c0.4-1.7,3.3-2.6,3.7-4.3c0.5-5,13.8-9.1,13.8-13.9c0,0-15.7-1.5-15.8-1.5
		c-12.4-0.8-24.3-5.9-33.5-14.9c-5.5-5.4-9-8.8-13.1-18.2l-11.7,2.9c0,0,2.3,58.4,57.2,60.7C395.2,233.6,393.1,229.9,394.8,226.5z"
		/>
</g>
<g>
	<path class="st1" d="M317.8,474.2c0,0-15.9-59.3,8.4-108.4c0.8-1.6,7.2,1.7,8.1,0.1c1.2-2.1-3.1-9.1-1.8-11.1
		c4.9-7.5,10.9-14.6,18.3-21c0,0,7.5,18.1,7.8,43.9c0,1.9-8,5.6-8,7.7c-0.1,1.9,7.8,2.2,7.7,4.2C356.4,415.1,346.7,446,317.8,474.2z
		"/>
	<g>
		<path class="st6" d="M307.5,406c-0.8-1.8-8.5,2.4-9.3,0.7c-0.8-1.7,4.5-11.6,3.6-13.2c-16.8-31.9-38.2-49.4-38.2-49.4
			c-5.1,13.6-7.8,27.1-8.5,40.3c-0.1,2.1,8.4,7.5,8.3,9.5c0,2.3-8.1,3.4-8.1,5.7c1.1,33.4,13.1,61.9,26.1,84.9
			c14.4-1.9,27.7-5.2,40.1-9.8C322,447.2,316.2,425.4,307.5,406z"/>
		<path class="st0" d="M300.2,469.5c-4.1-10.3-8.1-20.8-11.7-31.3c-0.2-0.4,0.1-0.9,0.5-1.1c0.4-0.2,0.9,0.1,1.1,0.5
			c3.6,10.5,7.5,21,11.6,31.2L300.2,469.5z"/>
		<path class="st0" d="M284.4,423.8c-0.4,0-0.7-0.2-0.8-0.6c-5.6-17.8-10.5-36.1-14.6-54.4l-1.8-8.3c-0.1-0.5,0.2-0.9,0.7-1
			c0.5-0.1,0.9,0.2,1,0.7l1.8,8.3c4,18.2,8.9,36.5,14.5,54.3c0.1,0.5-0.1,0.9-0.6,1.1C284.6,423.7,284.5,423.8,284.4,423.8z"/>
	</g>
	<g>
		<path class="st6" d="M315.6,476.8c0,0,1.4-59.4,61.5-67.3C377.1,409.5,371.2,460.4,315.6,476.8z"/>
		<path class="st0" d="M329,464.1c-0.2,0-0.3,0-0.4-0.1c-0.4-0.2-0.5-0.8-0.3-1.2c10.3-17,36.3-41.1,36.6-41.3
			c0.3-0.3,0.9-0.3,1.2,0c0.3,0.3,0.3,0.9,0,1.2c-0.3,0.2-26.1,24.2-36.3,40.9C329.6,463.9,329.3,464.1,329,464.1z"/>
	</g>
</g>
<g>
	<path d="M257,40.4c-1.2,0-2.3-0.4-3.3-1c-1.3-0.9-2.1-2.2-2.4-3.8c-0.3-1.5,0.1-3.1,0.9-4.4c0.9-1.3,2.2-2.1,3.7-2.4
		c1.5-0.3,3.1,0.1,4.4,0.9c2.6,1.8,3.3,5.5,1.5,8.1c-0.9,1.3-2.2,2.1-3.8,2.4C257.7,40.3,257.4,40.4,257,40.4z M257,30.4
		c-0.2,0-0.5,0-0.7,0.1c-1.1,0.2-2,0.8-2.6,1.7c-0.6,0.9-0.9,2-0.7,3.1c0.2,1.1,0.8,2,1.7,2.6c0.9,0.6,2,0.9,3.1,0.7
		c1.1-0.2,2-0.8,2.6-1.7c1.3-1.9,0.8-4.4-1-5.7C258.7,30.7,257.9,30.4,257,30.4z"/>
	<g>
		<path d="M240,33.5c-0.2,0-0.4-0.1-0.6-0.2c-0.3-0.3-0.4-0.9,0-1.2l2.1-2.2c0.3-0.3,0.9-0.4,1.2,0c0.3,0.3,0.4,0.9,0,1.2l-2.1,2.2
			C240.4,33.4,240.2,33.5,240,33.5z"/>
		<path d="M232.7,41.1c-0.2,0-0.4-0.1-0.6-0.2c-0.3-0.3-0.4-0.9,0-1.2l2.1-2.2c0.3-0.3,0.9-0.4,1.2,0c0.3,0.3,0.4,0.9,0,1.2
			l-2.1,2.2C233.2,41,232.9,41.1,232.7,41.1z"/>
		<path d="M234.7,33.6c-0.2,0-0.4-0.1-0.6-0.2l-2.1-2.1c-0.3-0.3-0.3-0.9,0-1.2c0.3-0.3,0.9-0.3,1.2,0l2.1,2.1
			c0.3,0.3,0.3,0.9,0,1.2C235.2,33.5,235,33.6,234.7,33.6z"/>
		<path d="M242.1,40.9c-0.2,0-0.4-0.1-0.6-0.2l-2.1-2.1c-0.3-0.3-0.3-0.9,0-1.2c0.3-0.3,0.9-0.3,1.2,0l2.1,2.1
			c0.3,0.3,0.3,0.9,0,1.2C242.6,40.8,242.4,40.9,242.1,40.9z"/>
	</g>
	<g>
		<path class="st7" d="M454.6,152.4c-0.2,0-0.4-0.1-0.6-0.2c-0.3-0.3-0.4-0.9,0-1.2l2.1-2.2c0.3-0.3,0.9-0.4,1.2,0
			c0.3,0.3,0.4,0.9,0,1.2l-2.1,2.2C455.1,152.4,454.9,152.4,454.6,152.4z"/>
		<path class="st7" d="M447.3,160c-0.2,0-0.4-0.1-0.6-0.2c-0.3-0.3-0.4-0.9,0-1.2l2.1-2.2c0.3-0.3,0.9-0.4,1.2,0
			c0.3,0.3,0.4,0.9,0,1.2l-2.1,2.2C447.8,160,447.6,160,447.3,160z"/>
		<path class="st7" d="M449.4,152.6c-0.2,0-0.4-0.1-0.6-0.2l-2.1-2.1c-0.3-0.3-0.3-0.9,0-1.2c0.3-0.3,0.9-0.3,1.2,0l2.1,2.1
			c0.3,0.3,0.3,0.9,0,1.2C449.8,152.5,449.6,152.6,449.4,152.6z"/>
		<path class="st7" d="M456.8,159.8c-0.2,0-0.4-0.1-0.6-0.2l-2.1-2.1c-0.3-0.3-0.3-0.9,0-1.2c0.3-0.3,0.9-0.3,1.2,0l2.1,2.1
			c0.3,0.3,0.3,0.9,0,1.2C457.2,159.8,457,159.8,456.8,159.8z"/>
	</g>
	<g>
		<path class="st7" d="M475.3,260.7C475.3,260.7,475.3,260.7,475.3,260.7c-0.5,0-0.9-0.4-0.9-0.9c0.2-28.4-3-52.3-9.9-73.3
			c-0.1-0.5,0.1-0.9,0.5-1.1c0.4-0.1,0.9,0.1,1.1,0.5c6.9,21.2,10.2,45.3,10,73.9C476.2,260.4,475.8,260.7,475.3,260.7z"/>
		<path class="st7" d="M467.1,234.7c-0.4,0-0.8-0.3-0.9-0.8c-1.8-22.4-5.8-41.7-12.3-59c-0.2-0.4,0.1-0.9,0.5-1.1
			c0.4-0.2,0.9,0.1,1.1,0.5c6.5,17.4,10.6,36.9,12.4,59.5C468,234.3,467.7,234.7,467.1,234.7C467.2,234.7,467.1,234.7,467.1,234.7z"
			/>
	</g>
</g>
<path d="M163,225.1c-0.4,0-0.8-0.3-0.8-0.7c-0.1-0.5,0.2-0.9,0.7-1c69.9-13.3,131.3-47.9,160.3-90.2c0.3-0.4,0.8-0.5,1.2-0.2
	s0.5,0.8,0.2,1.2c-15,21.9-38.4,41.9-67.9,58c-27.7,15.2-60,26.5-93.4,32.9C163.1,225.1,163.1,225.1,163,225.1z"/>
<g>
	<path class="st8" d="M383.7,18.4c-2.1-6.2-10.1-8-14.5-3.2l-77.8,82.9c-4.7,5-2.2,13.4,4.4,14.8l19.3,4.2c5.2,1.1,8.2,6.6,6.3,11.7
		c-19.4,49.9-78.3,177.3-304.9,201c14.7,64.5,80.4,111.9,105.9,127.2c167-43,242.5-268,254.3-317.6c1.1-4.7,5.7-7.6,10.3-6.6l23,5
		c6.6,1.4,12.4-5.2,10.2-11.7L383.7,18.4z"/>
	<g>
		<path class="st7" d="M272.1,348.5c72.3-84.2,97.3-179.2,104.4-209.2c1.1-4.7,5.7-7.6,10.3-6.6l23,5c6.6,1.4,12.4-5.2,10.2-11.7
			L383.7,18.4c-2.1-6.2-10.1-8-14.5-3.2l-77.8,82.9c-4.7,5-2.2,13.4,4.4,14.8l19.3,4.2c5.2,1.1,8.2,6.6,6.3,11.7
			c-10.3,26.6-26.3,72.7-73.1,113.6L272.1,348.5z"/>
	</g>
	<path class="st0" d="M301.2,98.8c-0.2,0-0.4-0.1-0.6-0.2c-0.3-0.3-0.4-0.9,0-1.2l69.1-73.6c0.3-0.3,0.9-0.4,1.2,0
		c0.3,0.3,0.4,0.9,0,1.2l-69.1,73.6C301.6,98.7,301.4,98.8,301.2,98.8z"/>
	<path class="st0" d="M273.7,224.7c-0.2,0-0.4-0.1-0.6-0.2c-0.4-0.3-0.4-0.9-0.1-1.2c8.8-10,16-20.3,21.5-30.5
		c0.2-0.4,0.7-0.6,1.2-0.3c0.4,0.2,0.6,0.7,0.3,1.2c-5.6,10.3-12.9,20.7-21.7,30.8C274.2,224.6,274,224.7,273.7,224.7z"/>
	<path class="st0" d="M202.2,278.5c-0.4,0-0.7-0.2-0.8-0.6c-0.1-0.5,0.1-0.9,0.6-1.1c17.4-5.3,42.4-23.3,62.3-44.9
		c0.3-0.3,0.9-0.4,1.2,0c0.3,0.3,0.4,0.9,0,1.2c-20.1,21.8-45.4,40-63.1,45.4C202.4,278.5,202.3,278.5,202.2,278.5z"/>
</g>
<g>
	<g>
		<g>
			<polygon class="st1" points="456.4,410.2 441.7,413.1 441.3,399 458.5,401.3 			"/>
			<path d="M441.7,414c-0.2,0-0.4-0.1-0.5-0.2c-0.2-0.2-0.3-0.4-0.3-0.6l-0.4-14.2c0-0.3,0.1-0.5,0.3-0.7c0.2-0.2,0.4-0.2,0.7-0.2
				l17.2,2.3c0.2,0,0.5,0.2,0.6,0.4c0.1,0.2,0.2,0.4,0.1,0.7l-2.2,8.9c-0.1,0.3-0.3,0.6-0.7,0.6l-14.7,2.9
				C441.8,414,441.7,414,441.7,414z M442.2,400l0.3,12.1l13.2-2.6l1.8-7.5L442.2,400z M456.4,410.2L456.4,410.2L456.4,410.2z"/>
		</g>
		<path d="M445.8,468.2c-0.2,0-0.3,0-0.4-0.1l-9.9-6c-0.3-0.2-0.5-0.6-0.4-1l1.7-5.4l-2.5-15.7c0-0.3,0-0.6,0.3-0.8
			c0.2-0.2,0.5-0.3,0.8-0.2l13.4,2.6c0.4,0.1,0.7,0.5,0.7,0.9l-2.7,24.9c0,0.3-0.2,0.5-0.5,0.7C446.1,468.2,445.9,468.2,445.8,468.2
			z M436.9,461l8.2,5l2.5-22.8l-11.5-2.2l2.4,14.7c0,0.1,0,0.3,0,0.4L436.9,461z"/>
		<g>
			<path class="st9" d="M467.3,400c0,0,11.7,18.6,14,32.9c0.4,2.4-1.9,4.4-4.2,3.8c-1.4-0.4-3.1-1-5.3-2c-8.3-3.7-24-22.8-24-22.8
				l0.9-3.7c0.3-1.3,1.7-2,2.9-1.6l1.7,0.6l-1-5.7c-0.2-1.3,0.7-2.5,2-2.7C456.9,398.6,461.6,398.4,467.3,400z"/>
			<path d="M477.7,435.5c-0.5,0-1-0.4-1.1-0.9c-3.6-15.1-13.6-32.1-13.7-32.2c-0.3-0.5-0.1-1.2,0.4-1.6c0.5-0.3,1.2-0.1,1.6,0.4
				c0.1,0.2,10.2,17.4,13.9,32.9c0.1,0.6-0.2,1.2-0.8,1.4C477.8,435.4,477.7,435.5,477.7,435.5z"/>
			<path d="M462.3,427.3c-0.3,0-0.6-0.1-0.9-0.4c-0.4-0.5-0.3-1.2,0.1-1.6l4.7-4c0.5-0.4,1.2-0.3,1.6,0.1c0.4,0.5,0.3,1.2-0.1,1.6
				l-4.7,4C462.9,427.2,462.6,427.3,462.3,427.3z"/>
			<path d="M457.8,421.8c-0.3,0-0.6-0.1-0.9-0.4c-0.4-0.5-0.3-1.2,0.1-1.6l5.9-5c0.5-0.4,1.2-0.3,1.6,0.1c0.4,0.5,0.3,1.2-0.1,1.6
				l-5.9,5C458.4,421.7,458.1,421.8,457.8,421.8z"/>
		</g>
		<g>
			<path class="st9" d="M448.3,455.5c1.8,1.9,6.2,6.6,9.1,11.2c1.4,2.3,0.5,5.2-1.9,6.3c-7.5,3.2-24.2,9.5-41.2,10.1
				c-2.5,0.1-4.2-2.6-3-4.8c2.1-4.2,7.5-10.6,21.5-17.6l4.6-2.3l7.2,3.8c0,0-0.4-4.6,1.4-6.7C446.6,454.9,447.7,454.9,448.3,455.5z"
				/>
			<path d="M414.6,480.2c-0.6,0-1.1-0.4-1.1-1c-0.1-0.6,0.4-1.2,1-1.2c17-1.6,39.9-10.6,40.1-10.7c0.6-0.2,1.3,0.1,1.5,0.6
				c0.2,0.6-0.1,1.3-0.6,1.5c-0.2,0.1-23.4,9.2-40.7,10.9C414.7,480.2,414.7,480.2,414.6,480.2z"/>
			<path d="M436.3,469.4c-0.3,0-0.6-0.1-0.8-0.4l-5.3-5.9c-0.4-0.5-0.4-1.2,0.1-1.6c0.5-0.4,1.2-0.4,1.6,0.1l5.3,5.9
				c0.4,0.5,0.4,1.2-0.1,1.6C436.9,469.3,436.6,469.4,436.3,469.4z"/>
			<path d="M429.1,471.3c-0.3,0-0.6-0.1-0.8-0.4l-3.8-4.2c-0.4-0.5-0.4-1.2,0.1-1.6c0.5-0.4,1.2-0.4,1.6,0.1l3.8,4.2
				c0.4,0.5,0.4,1.2-0.1,1.6C429.6,471.2,429.4,471.3,429.1,471.3z"/>
		</g>
		<path class="st7" d="M393.1,301.2c0,0-24.3,43.2-22.7,74.8s53.9,42,73,38.8l0.5-18.4c0,0-25.7,2.5-38.4-16.8
			c-12.7-19.3,23.2-39.2,23.2-39.2l8.5-31.6L393.1,301.2z"/>
		<path class="st7" d="M445.5,302c0,0,0.4,8.6-1,19.4c-1.3,10.4-0.6,21,2.1,31.2c5.1,19,11.3,56.5,2.7,96.8l-15-2.9
			c0,0-22-95.5-29.1-114.1c-7.1-18.6-10.5-32.7-10.5-32.7L445.5,302z"/>
		<path class="st0" d="M426,415.8c-0.4,0-0.7-0.3-0.8-0.7l-4-16.7c-0.1-0.5,0.2-0.9,0.6-1c0.5-0.1,0.9,0.2,1,0.6l4,16.7
			c0.1,0.5-0.2,0.9-0.6,1C426.1,415.8,426,415.8,426,415.8z"/>
		<path class="st0" d="M410.8,355c-0.4,0-0.7-0.3-0.8-0.7l-2.3-9.4c-0.1-0.5,0.2-0.9,0.6-1c0.5-0.1,0.9,0.2,1,0.6l2.3,9.4
			c0.1,0.5-0.2,0.9-0.6,1C411,355,410.9,355,410.8,355z"/>
		<path class="st0" d="M445.1,323.6c0,0-0.1,0-0.1,0c-0.5-0.1-0.8-0.5-0.8-1l0.6-4.8c0.1-0.5,0.5-0.8,1-0.8c0.5,0.1,0.8,0.5,0.8,1
			l-0.6,4.8C445.9,323.3,445.5,323.6,445.1,323.6z"/>
	</g>
	<path class="st9" d="M451.2,267.7c1-19.9,4.9-42.5-21.7-58.5c-0.1-0.1-0.2-0.3-0.5-0.4c-0.1,0-0.2-0.1-0.3-0.1
		c-9.4-4.4-20.6-2.5-28.1,4.8c-1,1-4.6,6.8-4.7,7.9c-0.2,0.2-0.4,0.4-0.6,0.6c-11.5,1.9-46.1,5.4-69.3-15l-7.6,8.9
		c0,0,21.6,42.9,77.8,38c-0.5,14.5-2.3,35.5-7.9,51.3c0,0,49.6,23.6,67.2,0.2C455.6,305.4,450.1,288.2,451.2,267.7z"/>
	<g>
		<path class="st1" d="M325.8,211.8c0.4-0.3,1.4-1.1,1.5-1.6c0.3-1.7,0.3-5.7-0.1-7c-0.4-1.7-0.6-8.7-1.8-9.8
			c-1.1-1.1-2.9,2.1-2.9,3.8c0,1.8,0.7,4.5-0.1,4.8s-8-10.7-9.8-10.5c-1.8,0.2-13.2-0.5-1.3,18.1c1.7,2.6,5.4,5.7,7.2,6.5
			c0.7,0.3,1.6,0.2,2.2-0.2L325.8,211.8z"/>
		<path class="st2" d="M319.4,217c-0.4,0-0.9-0.1-1.3-0.3c-1.8-0.8-5.8-4-7.5-6.8c-4.9-7.7-6.5-13-4.9-16.2c1.5-2.9,4.9-3,6.4-3.1
			c0.2,0,0.3,0,0.4,0c1.3-0.1,2.9,1.6,6.9,6.8c0.8,1.1,1.8,2.3,2.5,3.1c0-0.4-0.1-0.9-0.1-1.3c-0.1-0.7-0.1-1.4-0.1-2
			c0-1.7,1.2-4.2,2.6-4.8c0.6-0.3,1.3-0.2,1.8,0.3c0.9,0.9,1.2,3.4,1.6,7.2c0.1,1.3,0.3,2.5,0.4,3c0.4,1.5,0.4,5.6,0.1,7.4
			c-0.1,0.4-0.3,1.1-1.8,2.2l-5.1,3.9C320.7,216.8,320.1,217,319.4,217z M312.6,192.2c-0.1,0-0.3,0-0.4,0c-1.3,0.1-3.9,0.2-4.9,2.2
			c-0.9,1.8-0.8,5.8,4.8,14.5c1.6,2.5,5.2,5.4,6.8,6.2c0.4,0.2,1,0.1,1.3-0.1l5.1-3.9c0.9-0.6,1.1-1,1.2-1.1
			c0.3-1.6,0.2-5.5-0.1-6.6c-0.2-0.6-0.3-1.8-0.4-3.3c-0.2-1.8-0.5-5.4-1.1-6.1c-0.5,0.2-1.5,2-1.5,3.2c0,0.5,0.1,1.2,0.1,1.8
			c0.2,1.8,0.4,3.4-0.9,3.8c-0.9,0.2-1.4-0.4-4.5-4.3C316.5,196.4,313.6,192.6,312.6,192.2z"/>
	</g>
	<g>
		<g>
			<g>
				<path class="st1" d="M424.5,208.1l1.9-16.8l-13.1,4.3l-1.5,10.6c-0.3,2.4,1.5,4,1.5,4c2.2,2.2,5.7,2.4,8.5,1l0.6-0.3
					C423.6,210.3,424.3,209.3,424.5,208.1z"/>
				<path class="st2" d="M418.2,212.9c-2.1,0-4-0.7-5.4-2.1c-0.1,0-2.1-1.9-1.8-4.7l1.5-10.6c0-0.3,0.3-0.6,0.6-0.7l13.1-4.3
					c0.3-0.1,0.6,0,0.8,0.1c0.2,0.2,0.3,0.5,0.3,0.8l-1.9,16.8c-0.2,1.5-1.1,2.8-2.4,3.5l-0.6,0.3
					C420.9,212.6,419.5,212.9,418.2,212.9z M414.1,196.2l-1.4,10c-0.2,1.9,1.2,3.2,1.3,3.2c1.8,1.8,4.9,2.2,7.6,0.9l0.6-0.3
					c0.8-0.4,1.4-1.2,1.5-2.1c0,0,0,0,0,0l1.7-15.5L414.1,196.2z"/>
			</g>
			<path class="st2" d="M411.6,169.5c3.3,0.3-1.3,3,11.2,1.3c5-0.7,1.7,4.5,3,4.3c4.8-0.6,4.6-0.6,6.7,0.3c1.4,0.6,2,3.5,1.4,5.4
				c-0.8,2.6-3.1,3-5.9,8.3c-2,3.8-2,6.2-3.7,6.5c-1.7,0.3-2.6-2-4.5-1.8c-2.4,0.3-2.6,4.4-5.1,5.7c-1.6,0.8-5,0.8-10-2.6
				c-0.8-0.6-1.1-1.6-0.7-2.5c0.5-1.1,1.2-2.6,1.9-3.9c3.5-6.3,6.1-7.5,5.5-9.3c-0.9-2.9-6.2-2.1-6.7-4.4
				C404.3,174.6,407.1,169.1,411.6,169.5z"/>
			<g>
				<path class="st1" d="M421.2,182.7l-1.2,1.6c-0.6,0.7-1.1,1.5-1.5,2.3c-0.8,1.5-2.4,4.1-3.3,5.5c-2.8,4.7-8.1-1.7-8.1-1.7
					l-0.2-1.4l-0.8-0.5c-0.1-0.1-0.3-0.2-0.4-0.4c-0.2-0.4-0.1-0.8,0.1-1.1c1.5-1.6,4.7-5.3,6.2-8.8
					C412.1,178.3,417.6,177.7,421.2,182.7z"/>
				<path class="st2" d="M422,182.7c-0.3,0.5-0.5,0.9-0.9,1.4c-0.2,0.2-0.3,0.5-0.5,0.7l-0.4,0.5c-0.5,0.7-0.9,1.4-1.3,2.2
					c-0.9,1.5-1.8,3-2.7,4.6l-0.3,0.6c-0.1,0.2-0.3,0.4-0.4,0.6c-0.3,0.4-0.8,0.8-1.3,1.1c-0.5,0.3-1.1,0.4-1.7,0.4
					c-0.6,0-1.1-0.1-1.6-0.3c-1-0.4-1.8-0.9-2.5-1.5c-0.7-0.6-1.4-1.2-2-2c-0.1-0.1-0.2-0.3-0.2-0.4c-0.1-0.5-0.1-1-0.2-1.4l0.4,0.6
					c-0.2-0.1-0.5-0.3-0.7-0.5c-0.1-0.1-0.3-0.3-0.5-0.5c-0.1-0.2-0.2-0.4-0.3-0.6c-0.1-0.4,0-0.9,0.3-1.3c0,0,0.1-0.1,0.1-0.1
					l0.1-0.1l0.1-0.2l0.3-0.3c0.7-0.8,1.4-1.7,2.1-2.6c0.7-0.9,1.3-1.8,1.8-2.7c0.6-0.9,1.1-1.9,1.5-2.9c0.1-0.3,0.4-0.5,0.7-0.5
					l0,0c0.6-0.1,1,0,1.5,0c0.5,0,0.9,0.1,1.4,0.2c0.9,0.2,1.8,0.5,2.7,0.9c0.9,0.4,1.7,1,2.4,1.6c0.4,0.3,0.7,0.6,1,1
					c0.2,0.2,0.3,0.4,0.5,0.5l0.1,0.1l0.1,0.1c0.1,0.1,0.1,0.2,0.2,0.3C421.9,182.3,422,182.5,422,182.7z M420.3,182.7
					c-0.1,0-0.1,0-0.1,0.1l0,0c0,0,0,0,0,0l0-0.1c-0.1-0.2-0.3-0.3-0.4-0.5c-0.3-0.3-0.6-0.6-0.9-0.8c-0.6-0.5-1.3-1-2-1.3
					c-0.7-0.4-1.5-0.6-2.3-0.8c-0.4-0.1-0.8-0.2-1.2-0.2c-0.4,0-0.8,0-1.2,0l0.7-0.5c-1,2.2-2.3,4-3.8,5.8c-0.7,0.9-1.5,1.7-2.2,2.6
					l-0.5,0.6c-0.1,0.1-0.1,0.2-0.1,0.3c0.1,0.1,0.1,0.1,0.3,0.1c0.3,0.1,0.5,0.2,0.8,0.3c0.2,0.1,0.4,0.3,0.4,0.6l0,0
					c0.1,0.5,0.2,1,0.2,1.4l-0.2-0.4c1.1,1.2,2.4,2.4,3.8,2.9c0.7,0.2,1.3,0.3,1.8,0c0.3-0.1,0.5-0.3,0.7-0.6
					c0.1-0.1,0.2-0.3,0.3-0.4l0.3-0.6c0.9-1.5,1.8-3,2.7-4.5c0.4-0.7,0.9-1.6,1.4-2.3l0.4-0.6c0.1-0.1,0.2-0.2,0.3-0.4
					C419.8,183.2,420,183,420.3,182.7z"/>
			</g>
			<path class="st1" d="M418.9,188.5c0,0,2.8-3.8,4.3-2.1C424.7,188,421.5,192.1,418.9,188.5z"/>
		</g>
		<g>
			<g>
				<path class="st2" d="M410.9,188.6C410.8,188.6,410.8,188.6,410.9,188.6c-0.8,0-1.4-0.4-1.8-0.9c-0.6-0.8-0.7-2-0.4-3.6
					c0.1-0.5,0.4-2,1.8-2.4c0,0,0,0,0,0c0.6-0.2,1.3-0.1,1.8,0.2c0.4,0.3,0.8,0.7,0.9,1.2c0.5,2.2-0.1,3.9-0.8,4.7
					C411.8,188.3,411.4,188.6,410.9,188.6z M410.9,186.9L410.9,186.9L410.9,186.9z M410.9,183.4c-0.1,0-0.4,0.3-0.5,1.1
					c-0.3,1.5-0.1,2.1,0.1,2.2c0,0,0.1,0.2,0.4,0.2c0.3-0.2,1.1-1.4,0.6-3.4C411.4,183.5,411.2,183.3,410.9,183.4z"/>
				<path class="st2" d="M421.5,186.2c-0.1,0-0.2,0-0.2,0l-9.9-2.8c-0.5-0.1-0.7-0.6-0.6-1.1c0.1-0.5,0.6-0.7,1.1-0.6l9.9,2.8
					c0.5,0.1,0.7,0.6,0.6,1.1C422.2,186,421.9,186.2,421.5,186.2z"/>
			</g>
			<path class="st2" d="M406.4,186.9c-0.2,0-0.3,0-0.5-0.1c-0.1-0.1-0.5-0.4-0.7-1.5c-0.1-0.5-0.3-2.4,0.9-3.8
				c0.4-0.5,0.9-0.7,1.4-0.7c1.2,0,2.3,1,2.5,1.2c0.3,0.3,0.3,0.9,0,1.2c-0.3,0.3-0.9,0.3-1.2,0c-0.3-0.3-0.8-0.7-1.1-0.7
				c0,0-0.1,0-0.1,0.1c-0.8,1-0.6,2.5-0.4,2.9c0.3,0.3,0.3,0.7,0.1,1.1C406.9,186.7,406.7,186.9,406.4,186.9z M406.9,185.3
				C406.9,185.3,406.9,185.3,406.9,185.3C406.9,185.3,406.9,185.3,406.9,185.3z"/>
		</g>
	</g>
	<path class="st0" d="M380.4,224.5c-5.5,0-12-0.4-19.7-1.2c-0.5,0-0.8-0.5-0.8-0.9c0-0.5,0.5-0.8,0.9-0.8
		c16.6,1.7,27.5,1.5,34.3-0.4c0.5-0.1,0.9,0.1,1.1,0.6c0.1,0.5-0.1,0.9-0.6,1.1C391.9,224,386.9,224.5,380.4,224.5z"/>
</g>
<g>
	<path d="M370.3,145.7c-9.7,0-24.5-4.1-26.7-4.8c-4.1-1.2-24.6-7.3-25-12.7c-0.1-0.8,0.3-2,2.3-2.8c0.4-0.2,0.9,0,1.1,0.4
		c0.2,0.4,0,0.9-0.4,1.1c-0.6,0.3-1.3,0.7-1.3,1.2c0.1,2.1,8.5,6.8,23.7,11.1c16.6,4.7,30.8,6.1,32.9,3.1c0.5-0.7,0.2-1.8-0.7-3.2
		c-0.3-0.4-0.2-0.9,0.2-1.2c0.4-0.3,0.9-0.2,1.2,0.2c1.4,2.1,1.7,3.8,0.7,5.2C377.1,145.1,374.1,145.7,370.3,145.7z"/>
	<path d="M369.2,150.8c-9.7,0-24.5-4.1-26.7-4.8c-4.1-1.2-24.6-7.3-25-12.7c-0.1-0.8,0.3-2,2.3-2.8c0.4-0.2,0.9,0,1.1,0.4
		c0.2,0.4,0,0.9-0.4,1.1c-0.6,0.3-1.3,0.7-1.3,1.2c0.1,2.1,8.5,6.8,23.7,11.1c16.6,4.7,30.8,6.1,32.9,3.1c0.5-0.7,0.2-1.8-0.7-3.2
		c-0.3-0.4-0.2-0.9,0.2-1.2c0.4-0.3,0.9-0.2,1.2,0.2c1.4,2.1,1.7,3.8,0.7,5.2C376,150.2,372.9,150.8,369.2,150.8z"/>
	<path d="M368.8,154.1c-15.9,0-50.4-10.6-52.9-17.1c-0.3-0.8-0.5-2.4,2.1-3.6c0.4-0.2,0.9,0,1.1,0.4c0.2,0.4,0,0.9-0.4,1.1
		c-1.5,0.6-1.3,1.2-1.2,1.4c1,2.7,11.4,7.5,24.7,11.3c13.9,4,26.5,5.7,31.3,4.2c2.3-0.7,2-1.8,1.9-2.3c-0.1-0.5,0.2-0.9,0.6-1
		c0.5-0.1,0.9,0.2,1,0.6c0.3,1.2,0.3,3.3-3.1,4.4C372.6,153.9,370.9,154.1,368.8,154.1z"/>
</g>
<path d="M201,368.3c-0.4,0-0.7-0.3-0.8-0.7c-0.1-0.5,0.2-0.9,0.6-1c4.5-1.1,8.4-3.1,11.5-6c9.7-9.1,10.9-25.5,5.5-34
	c-4.8-7.7-13.8-8.1-24.2-8.5c-9.5-0.4-20.3-0.9-28.8-7.7c-13.7-10.8-17.4-34.6-11.1-70.7c0.1-0.5,0.5-0.8,1-0.7
	c0.5,0.1,0.8,0.5,0.7,1c-6.2,35.4-2.7,58.7,10.4,69.1c8.1,6.4,18.1,6.9,27.8,7.3c10.4,0.5,20.3,0.9,25.6,9.3
	c6.4,10.1,3.6,27.4-5.8,36.2c-3.3,3.1-7.4,5.3-12.3,6.4C201.1,368.3,201,368.3,201,368.3z"/>
<path class="st9" d="M103.8,278.2c-1.1,2.3-4,8.1-9.7,10c-7.9,2.6-11.9-5.2-22.4-5.6c-13.4-0.4-17.5,12.1-29.4,10
	c-5.7-1-11.2-4.9-13.5-10.2c-3.1-7.4,0.5-16.3,5.1-21c2.8-2.9,4.2-2.4,5.7-5.1c3.2-5.6-2.2-9.8-0.2-16.6c1.9-6.5,9-10.7,13.8-12.2
	c5.6-1.8,7.7,0.2,11.3-2.3c1.3-0.9,3.2-2.7,5.9-12.8c3.4-12.8,1.5-14.5,4.4-17.5c4.1-4.3,8.6-1.7,14.6-7.5c1.8-1.7,2.7-3.3,4.8-3.6
	c2.9-0.4,6.6,2,7.3,4.9c0.9,3.9-4.2,6.5-6.9,11.3c-3.9,6.9-0.6,14.4,3.4,27.5C105.5,251.8,109.7,266.1,103.8,278.2z"/>
<g>
	<path class="st2" d="M73.2,412.7c0,0,10.7,24.8,52.3,23.6c0,0,15.5-0.8-10.4-11.4C89.2,414.3,78,388.5,73.2,412.7z"/>
	<path class="st2" d="M156.5,423c0,0,8.6,11.1,19-1.5c12-14.5,25.3-21,25.3-21s0.7-3.6-9.5-5.1C181.2,393.9,160.9,407.8,156.5,423z"
		/>
	<g>
		<g>
			<path class="st1" d="M124.4,426c0.5,0.3-2,47.9-2,47.9l-8.1-1.3l-12.4-67.9L124.4,426z"/>
			<path class="st2" d="M122.5,474.8c0,0-0.1,0-0.1,0l-8.1-1.3c-0.4-0.1-0.6-0.3-0.7-0.7l-12.4-67.9c-0.1-0.4,0.1-0.7,0.4-0.9
				c0.3-0.2,0.7-0.1,1,0.1l22.4,21.3c0.5,0.4,0.6,1.5-0.5,24.8c-0.5,11.8-1.2,23.7-1.2,23.8c0,0.2-0.1,0.5-0.3,0.6
				C122.9,474.7,122.7,474.8,122.5,474.8z M115.1,471.9l6.6,1.1c0.9-17.7,2.1-43.6,2-46.5l-20.4-19.3L115.1,471.9z M124,426.7
				C124,426.7,124,426.8,124,426.7C124,426.8,124,426.7,124,426.7z M124,426.7C124,426.7,124,426.7,124,426.7
				C124,426.7,124,426.7,124,426.7z"/>
		</g>
		<g>
			<path class="st2" d="M86.9,482.8h37.4c0,0,1.4-9.3-0.8-13.4l-1.2,1.3c-0.6,0.7-1.6,0.7-2.3,0.1c-1.5-1.3-4.1-3.5-6.4-4.6
				c-4.4-2-19,7.9-24.7,11.3c-1.3,0.8-2.1,2.2-2.1,3.8V482.8z"/>
			<path d="M123.5,480.7H88.6c-0.5,0-0.9-0.4-0.9-0.9c0-0.5,0.4-0.9,0.9-0.9h34.9c0.5,0,0.9,0.4,0.9,0.9
				C124.3,480.3,124,480.7,123.5,480.7z"/>
			<path d="M104.3,476.2c-0.3,0-0.6-0.2-0.8-0.5c-0.2-0.4,0-0.9,0.4-1.2l10.8-5.5c0.4-0.2,0.9,0,1.2,0.4c0.2,0.4,0,0.9-0.4,1.2
				l-10.8,5.5C104.6,476.2,104.4,476.2,104.3,476.2z"/>
		</g>
	</g>
	<g>
		<g>
			<polygon class="st1" points="161,410.2 187.8,453.9 192.1,463.8 197.6,456.1 181.1,398.2 			"/>
			<path class="st2" d="M192.1,464.7C192.1,464.7,192,464.7,192.1,464.7c-0.4,0-0.7-0.2-0.8-0.5l-4.3-9.9l-26.8-43.6
				c-0.1-0.2-0.2-0.4-0.1-0.7c0.1-0.2,0.2-0.4,0.4-0.5l20.1-12c0.2-0.1,0.5-0.2,0.8-0.1c0.2,0.1,0.4,0.3,0.5,0.6l16.6,57.9
				c0.1,0.3,0,0.5-0.1,0.7l-5.5,7.7C192.6,464.6,192.4,464.7,192.1,464.7z M162.2,410.5l26.4,43c0,0,0,0.1,0.1,0.1l3.7,8.5l4.4-6.1
				l-16.1-56.5L162.2,410.5z"/>
		</g>
		<g>
			<path class="st2" d="M187.5,466.2v-13.3l3.8,6l0.5-5.2l5-0.6c0,0,8,10.6,10.9,28.1c0.4,2.1-1.3,4.1-3.5,4.1H199
				c-2,0-3.8-1.1-4.7-2.8l-5.5-10.8C187.9,470,187.5,468.1,187.5,466.2z"/>
			<path class="st10" d="M199.3,478.5c-0.3,0-0.7-0.2-0.8-0.5l-6.6-15.8c-0.2-0.4,0-0.9,0.5-1.1c0.4-0.2,0.9,0,1.1,0.5l6.6,15.8
				c0.2,0.4,0,0.9-0.5,1.1C199.5,478.5,199.4,478.5,199.3,478.5z"/>
			<path class="st10" d="M204,478c-0.4,0-0.7-0.3-0.8-0.6l-4.4-16.8c-0.1-0.5,0.2-0.9,0.6-1c0.5-0.1,0.9,0.2,1,0.6l4.4,16.8
				c0.1,0.5-0.2,0.9-0.6,1C204.2,478,204.1,478,204,478z"/>
			<path class="st10" d="M197.6,483.4c-0.3,0-0.6-0.2-0.8-0.4l-8.8-16.2c-0.2-0.4-0.1-0.9,0.3-1.2c0.4-0.2,0.9-0.1,1.2,0.3l8.6,15.7
				l7.8-0.4c0.5,0,0.9,0.3,0.9,0.8c0,0.5-0.3,0.9-0.8,0.9L197.6,483.4C197.6,483.4,197.6,483.4,197.6,483.4z"/>
		</g>
	</g>
	<g>
		<path class="st1" d="M93.1,294.4c0,0-17,45.8-19.5,117.8c0,0,17.9-1.5,34.2,12.7c16.3,14.2,22.2,8.7,22.2,8.7l-11.2-110.8
			c0,0,12.8,32.3,23.5,61.3c10.7,29,14.5,38.4,14.5,38.4s25.8-31.3,43.2-22.7c-6.9-18.9-15.7-39.9-27-62
			c-13.3-26-27.5-48.2-40.8-66.8C119.2,278.9,106.2,286.6,93.1,294.4z"/>
		<path class="st2" d="M126.3,435.5c-3.6,0-9.8-1.8-19.1-10c-15.9-13.8-33.4-12.5-33.5-12.5c-0.2,0-0.5-0.1-0.7-0.2
			c-0.2-0.2-0.3-0.4-0.3-0.7c2.5-71.4,19.4-117.7,19.5-118.1c0.1-0.2,0.2-0.3,0.4-0.4l39.1-23.3c0.4-0.2,0.9-0.1,1.1,0.2
			c15.2,21.2,28.9,43.8,40.8,67c10.3,20,19.4,40.9,27.1,62.1c0.1,0.3,0,0.7-0.2,0.9c-0.3,0.2-0.6,0.3-1,0.1
			c-16.5-8.2-41.9,22.1-42.1,22.4c-0.2,0.2-0.5,0.3-0.8,0.3c-0.3,0-0.6-0.2-0.7-0.5c0-0.1-4-9.7-14.5-38.5
			c-7.9-21.5-17-44.9-21.2-55.5l10.6,104.6c0,0.3-0.1,0.5-0.3,0.7C130.5,434.4,129.2,435.5,126.3,435.5z M75.3,411.3
			c5,0,19.4,1.1,33,13c13.3,11.6,19.4,9.7,20.8,8.9L118,322.9c0-0.4,0.2-0.8,0.6-0.9c0.4-0.1,0.8,0.1,1,0.5
			c0.1,0.3,12.9,32.6,23.5,61.3c8.4,22.9,12.6,33.6,14,37.1c4.7-5.4,25.5-28,41.4-22.6c-7.5-20.5-16.4-40.7-26.3-60
			c-11.8-22.9-25.3-45.1-40.2-66.1L93.8,295c-1.4,3.9-16.9,48.7-19.3,116.4C74.8,411.3,75,411.3,75.3,411.3z"/>
	</g>
	<path class="st2" d="M82,410.6c-0.5,0-0.8-0.4-0.9-0.8C79.4,344.4,94,300,94.2,299.6c0.2-0.4,0.6-0.7,1.1-0.5
		c0.4,0.2,0.7,0.6,0.5,1.1c-0.1,0.4-14.7,44.6-12.9,109.5C82.9,410.1,82.5,410.5,82,410.6C82,410.6,82,410.6,82,410.6z"/>
	<path class="st2" d="M171.9,400.3c-0.3,0-0.7-0.2-0.8-0.5l-35.3-86.5c-0.2-0.4,0-0.9,0.5-1.1c0.4-0.2,0.9,0,1.1,0.5l35.3,86.5
		c0.2,0.4,0,0.9-0.5,1.1C172.1,400.3,172,400.3,171.9,400.3z"/>
</g>
<g>
	<path class="st11" d="M81.9,225.1c4.8-3.2,10.3-6.4,16.2-8.9c11.6-4.9,20.4,4.8,28.4,13.3c0.2,0.2,0.2,0.6,0.2,0.9
		c3.3,14.2,7.1,25.1,9.9,32.4c2.5,6.3,4.9,7.3,4.2,10.1c-1.4,6-11,5.2-26.2,12.5c-14,6.8-19.3,14-24.6,11.5c-3.6-1.7-4.5-6.5-5-8.5
		c-1.7-7.8-2.6-19.7-10.6-36.4C69.7,242.5,73,231,81.9,225.1z"/>
	<path class="st11" d="M92.4,218.7l6.2-3.9c7.2-0.8,12.6-1,17.8,4c28.8,27.8,40.1,6.6,50.8,1.2l4.4,7.3c0,0-24.3,58.1-78.1,19.6
		L92.4,218.7z"/>
	<g>
		<path class="st1" d="M168.3,226.3c3.6,0.7,8.2,7.7,8.9,1.8c0.1-1.2,0.3-7.9-0.4-7.4c1.2-0.8,2-2.5,2.4-3.7c0.2-0.6-0.4-1.2-1-1
			l-9.2,2.8c-0.9,0.2-1.7,0.5-2.3,1C164.1,221.8,165.2,225.8,168.3,226.3z"/>
		<path d="M175.6,231.3c-1.2,0-2.4-0.9-3.9-2c-1.2-0.9-2.6-1.9-3.7-2.1c-1.8-0.3-3.2-1.7-3.6-3.5c-0.4-1.7,0.2-3.5,1.6-4.5
			c0.7-0.6,1.6-0.9,2.6-1.1l9.1-2.8c0.6-0.2,1.2,0,1.7,0.4c0.4,0.4,0.6,1.1,0.4,1.6c-0.4,1.1-1,2.6-2.1,3.6c0.6,2.2,0.2,7.2,0.2,7.3
			c-0.1,1-0.4,2.5-1.5,3C176.2,231.3,175.9,231.3,175.6,231.3z M178.2,216.9l-9.1,2.8c0,0-0.1,0-0.1,0c-0.7,0.1-1.4,0.4-1.9,0.8
			c-0.9,0.7-1.2,1.7-1,2.8c0.2,0.9,0.9,1.9,2.3,2.2c1.5,0.3,3,1.4,4.4,2.4c0.9,0.7,2.5,1.9,2.9,1.7c0,0,0.4-0.2,0.5-1.6
			c0.1-1.2,0.2-5.4,0-6.6c-0.1-0.1-0.2-0.1-0.2-0.2c-0.3-0.4-0.1-0.9,0.2-1.2c0,0,0,0,0,0C177,219.5,177.7,218.4,178.2,216.9z"/>
	</g>
	<path class="st11" d="M74.3,232.7l9.3-1.8c7.1-1.3,14.4-0.2,20.9,3c26.8,13.4,48.3-1.5,58.5-7.8l6.3,7.7c0,0-31.6,63.6-88.2,29.5
		L74.3,232.7z"/>
	<g>
		<path class="st1" d="M167.8,231c3.9,0.4,6.6,0.1,10.5-0.8c3.7-2.5,6.1-6.7,6.4-11.1c-6.4,0-10.9,2-16.8,4.4
			c-0.9,0.3-1.6,0.7-2.2,1.2C163.3,226.8,164.6,230.7,167.8,231z"/>
		<path d="M170.9,232.1c-1,0-2.1-0.1-3.2-0.2c-1.8-0.2-3.3-1.4-3.9-3.2c-0.5-1.7-0.1-3.5,1.2-4.7c0.7-0.6,1.5-1.1,2.5-1.3
			c0.6-0.2,1.2-0.5,1.7-0.7c5-2,9.3-3.7,15.2-3.7c0.1,0,0.1,0,0.2,0c0.2,0,0.5,0.1,0.6,0.3c0.2,0.2,0.2,0.4,0.2,0.6
			c-0.3,4.6-2.9,9.1-6.8,11.7c-0.1,0.1-0.2,0.1-0.3,0.1C175.7,231.7,173.5,232.1,170.9,232.1z M167.9,230.2c3.8,0.4,6.4,0.1,10-0.8
			c3.1-2.1,5.3-5.7,5.8-9.4c-5.1,0.1-9,1.7-13.8,3.6c-0.6,0.2-1.2,0.5-1.8,0.7c0,0-0.1,0-0.1,0c-0.7,0.2-1.4,0.5-1.8,1
			c-0.8,0.7-1.1,1.8-0.7,2.9C165.7,229.1,166.5,230,167.9,230.2z"/>
	</g>
	<path class="st12" d="M113.5,274.3c-9,0-18.3-2.4-27.8-7.3c-0.4-0.2-0.6-0.7-0.4-1.2c0.2-0.4,0.7-0.6,1.2-0.4
		c14.6,7.5,28.7,9.1,42,4.7c23.8-7.8,37.7-32.4,39.7-36.1l-5.5-6.7c-0.3,0.2-0.7,0.4-1,0.6c-11.1,6.9-31.8,19.7-57.7,6.8
		c-4.2-2.1-8.6-3.2-13.1-3.4c-0.5,0-0.8-0.4-0.8-0.9c0-0.5,0.4-0.8,0.9-0.8c4.8,0.2,9.4,1.4,13.8,3.6c25,12.5,45.2,0,56-6.7
		c0.6-0.4,1.1-0.7,1.7-1c0.4-0.2,0.8-0.1,1.1,0.2l6.3,7.7c0.2,0.3,0.3,0.6,0.1,0.9c-0.1,0.3-14.6,28.9-40.9,37.5
		C124,273.5,118.8,274.3,113.5,274.3z"/>
	<path class="st12" d="M92.2,298.4c-0.9,0-1.8-0.2-2.6-0.6c-3.9-1.8-4.9-6.8-5.4-8.9l0-0.2c-0.4-1.6-0.7-3.4-1-5.2
		c-1.4-7.5-3.2-17.8-9.5-31c-4.7-9.9-1.4-22,7.8-28.1c3.1-2,6.5-3.8,10.1-5.6c2-1,4.1-2.1,6.1-3.2c9.3-5.2,17.1,1.1,24.6,7.1
		c7.1,5.8,14.5,11.7,23.6,8.8c0.5-0.1,0.9,0.1,1.1,0.6c0.1,0.5-0.1,0.9-0.6,1.1c-10,3.2-17.7-3.1-25.2-9.1c-7.4-6-14.4-11.6-22.7-7
		c-2,1.1-4.1,2.2-6.2,3.3c-3.6,1.8-6.9,3.6-9.9,5.6c-8.5,5.6-11.6,16.7-7.2,25.9c6.4,13.5,8.3,23.9,9.7,31.4c0.3,1.9,0.7,3.6,1,5.2
		l0,0.2c0.4,2,1.4,6.2,4.5,7.7c2.9,1.4,5.9-0.6,11-4c3.3-2.2,7.5-4.9,12.9-7.5c6.2-3,11.4-4.6,15.7-5.9c5.8-1.8,9.3-2.9,10.1-6
		c0.5-2,0.5-2.2-1.2-5.5c-0.2-0.4-0.1-0.9,0.4-1.2c0.4-0.2,0.9-0.1,1.2,0.4c1.9,3.6,1.9,4.2,1.3,6.7c-1,4-5,5.3-11.2,7.2
		c-4.2,1.3-9.3,2.9-15.4,5.9c-5.4,2.6-9.5,5.3-12.7,7.4C98.1,296.4,95,298.4,92.2,298.4z"/>
</g>
<g>
	<g>
		<path class="st1" d="M101.3,215.2c-4-4-2.4-7-2.4-7c1.3-0.1,2.4-0.5,3.4-0.9c0.6-0.3,0.9-1,0.7-1.6c-0.6-1.8-1.2-4.7-1.5-5.3
			c0.4-0.7,1.4-0.9,1.1-2.2c-2.3-0.7-3.7-4.6-5.1-5.9c-0.7-0.6-1.2-0.8-2.1-1.4c-4.5,0.1,1.5,6.1-4.8,8.1c0.2,0.4,0.1,1.2-0.1,1.9
			c-0.1,0.5-0.2,1-0.4,1.3c-0.8-1.4-2-2.1-2.6-1.8c-0.7,0.3-0.8,1.5-0.7,2.3c0.4,2.1,3,3,3.2,3.1c0,0,0.6,10.1-0.5,14.2
			c-3.8,2.3-5.5,3.9-5.5,3.9c20.8,2.7,24.3-5,24.8-8.1c0.1-0.6-0.4-1.2-1.1-1.2C105.3,214.7,103.7,214.8,101.3,215.2z"/>
		<path class="st2" d="M92,225.3c-2.4,0-5-0.2-8.1-0.6c-0.3,0-0.6-0.3-0.7-0.6c-0.1-0.3,0-0.7,0.2-0.9c0.1-0.1,1.8-1.6,5.3-3.8
			c0.9-3.5,0.6-11,0.5-13c-1-0.4-2.9-1.5-3.2-3.5c-0.2-0.9-0.1-2.7,1.2-3.3c0.8-0.3,1.8,0,2.6,0.7c0.1-0.8,0.1-1,0.1-1
			c-0.1-0.2-0.1-0.5,0-0.7c0.1-0.2,0.3-0.4,0.5-0.5c2.8-0.9,2.6-2.5,2.5-4.4c-0.1-1.1-0.2-2.2,0.5-3c0.5-0.5,1.1-0.8,2.1-0.8
			c0.2,0,0.4,0.1,0.5,0.2c0.3,0.3,0.6,0.4,0.9,0.6c0.4,0.2,0.8,0.5,1.2,0.9c0.6,0.5,1.2,1.4,1.7,2.3c0.9,1.4,1.9,3,3.1,3.3
			c0.3,0.1,0.5,0.3,0.6,0.6c0.3,1.3-0.4,2-0.8,2.4c0,0-0.1,0.1-0.1,0.1c0.1,0.5,0.3,1.1,0.6,2c0.2,1,0.5,2.1,0.8,2.9
			c0.3,1-0.2,2.2-1.2,2.6c-1,0.4-2,0.7-3.1,0.9c-0.2,0.8-0.3,2.7,2.1,5.3c2.1-0.3,3.6-0.4,5.7-0.5l0.4,0c0.6,0,1.1,0.2,1.5,0.7
			c0.4,0.4,0.5,1,0.4,1.5C109.1,219,106.3,225.3,92,225.3z M86.2,223.3c18.1,1.8,21.3-4.7,21.8-7.6c0,0,0-0.1,0-0.1
			c0,0-0.1-0.1-0.1-0.1l-0.4,0c-2.3,0.1-3.8,0.1-6,0.5c-0.3,0-0.6,0-0.8-0.2c-4.4-4.4-2.6-7.9-2.5-8c0.1-0.2,0.4-0.4,0.7-0.4
			c1.1-0.1,2.2-0.4,3.1-0.8c0.2-0.1,0.3-0.3,0.2-0.5c-0.3-0.9-0.6-2-0.8-3c-0.2-0.9-0.5-2-0.6-2.2c-0.1-0.2-0.1-0.5,0-0.8
			c0.2-0.4,0.5-0.6,0.7-0.9c0.2-0.2,0.3-0.3,0.3-0.4c-1.5-0.7-2.5-2.4-3.4-3.8c-0.5-0.8-1-1.6-1.4-2c-0.3-0.3-0.6-0.5-1-0.7
			c-0.2-0.1-0.5-0.3-0.8-0.5c-0.3,0-0.5,0.1-0.6,0.2c-0.2,0.2-0.1,1-0.1,1.7c0.2,1.7,0.5,4.5-2.9,5.9c0,0.4-0.1,0.9-0.2,1.6
			c-0.1,0.5-0.2,1-0.4,1.5c-0.1,0.3-0.4,0.5-0.7,0.5c-0.3,0-0.6-0.2-0.8-0.4c-0.6-1.1-1.4-1.5-1.6-1.4c-0.1,0.1-0.3,0.7-0.2,1.4
			c0.3,1.6,2.6,2.4,2.6,2.4c0.3,0.1,0.6,0.4,0.6,0.8c0,0.4,0.6,10.3-0.6,14.5c-0.1,0.2-0.2,0.4-0.4,0.5
			C88.3,221.8,87.1,222.7,86.2,223.3z"/>
	</g>
	<g>
		<path class="st1" d="M91.8,206.1c0,0,2.8,2.9,7.1,2L91.8,206.1z"/>
		<path class="st2" d="M97.3,209.2c-3.7,0-6-2.4-6.1-2.5c-0.3-0.3-0.3-0.9,0-1.2c0.3-0.3,0.9-0.3,1.2,0c0.1,0.1,2.5,2.5,6.3,1.8
			c0.5-0.1,0.9,0.2,1,0.7c0.1,0.5-0.2,0.9-0.7,1C98.5,209.1,97.9,209.2,97.3,209.2z"/>
	</g>
</g>
<g>
	<path class="st1" d="M142,214.5c-0.4,0-0.8-0.3-0.8-0.7c-0.1-0.5,0.2-0.9,0.7-1c28-4.3,51.2-11.4,70.8-21.5
		c0.4-0.2,0.9-0.1,1.2,0.4c0.2,0.4,0.1,0.9-0.4,1.2c-19.8,10.2-43.1,17.3-71.3,21.7C142.1,214.5,142,214.5,142,214.5z"/>
	<path class="st1" d="M173.4,197.5c-0.4,0-0.7-0.3-0.8-0.7c-0.1-0.5,0.2-0.9,0.6-1c21.9-5.3,40.3-12.4,56.3-21.6
		c0.4-0.2,0.9-0.1,1.2,0.3c0.2,0.4,0.1,0.9-0.3,1.2c-16.2,9.2-34.7,16.4-56.7,21.7C173.5,197.5,173.4,197.5,173.4,197.5z"/>
</g>
</svg>
