<?xml version="1.0" encoding="utf-8"?>
<!-- Generator: Adobe Illustrator 24.2.1, SVG Export Plug-In . SVG Version: 6.00 Build 0)  -->
<svg version="1.1" id="Layer_1" xmlns="http://www.w3.org/2000/svg" xmlns:xlink="http://www.w3.org/1999/xlink" x="0px" y="0px"
	 viewBox="0 0 100 100" style="enable-background:new 0 0 100 100;" xml:space="preserve">
<style type="text/css">
	.st0{fill:#253863;}
	.st1{fill:#459A4E;}
</style>
<g>
	<path class="st0" d="M100,70.1c-0.3,0.4-0.6,0.7-1,1.1c-8,8-16,16-24,24c-1.5,1.5-2.1,1.5-3.5,0C66.8,90.5,62,85.8,57.3,81
		c-1.3-1.3-1.3-1.9,0-3.2c0.4-0.4,0.8-0.9,1.2-1.2c0.7-0.6,0.7-1,0-1.6c-2.4-2.1-5.1-3.6-8-4.9c-0.3-0.1-0.6-0.1-0.9,0
		c-2.9,1.3-5.7,2.8-8.1,5c-0.5,0.5-0.7,0.8-0.1,1.4c0.5,0.4,0.8,0.8,1.3,1.2c1.4,1.4,1.4,2,0,3.4c-3.4,3.4-6.8,6.8-10.1,10.1
		c-1.4,1.4-2.8,2.8-4.2,4.2c-1.1,1.1-1.9,1.1-2.9,0C17.2,87.3,9,79.1,0.8,70.9c-1.1-1.1-1.1-1.9,0.1-3c5.4-5.4,10.8-10.8,16.2-16.2
		c0.6-0.6,0.9-1.2,1-2c0.5-4.2,1-8.4,1.6-12.7c0.6-4.9,5.3-8.3,9.8-7.1c0.3,0.1,0.6,0.1,0.9-0.1c0.8-0.5,1.7-0.8,2.7-0.9
		c0.4,0,0.6-0.2,0.6-0.6c0.5-3.2,2.3-5.1,5.5-5.5c0.5-0.1,0.5-0.4,0.5-0.8c0.2-1.2,0.6-2.3,1.4-3.2c2.1-2.5,5.5-2.9,8.1-0.9
		c0.6,0.5,1,0.5,1.7,0c3.6-2.7,8.6-0.7,9.4,3.7c0.1,0.7,0.3,1.1,1.2,1.2c2.4,0.3,4.3,2.2,4.8,4.6c0.2,0.9,0.4,1.3,1.4,1.5
		c2.5,0.5,4.1,2.1,4.6,4.7c0.2,0.8,0.4,1.2,1.4,1.3c3.8,0.6,5.9,5,4.2,8.4c-0.3,0.6-0.3,1,0.1,1.5c2.9,4,5.9,7.9,9.6,11.3
		c0.9,0.8,0.9,1.8,0.1,2.5c-0.7,0.7-1.5,0.6-2.4-0.2c-0.5-0.4-1-0.9-1.4-1.4c-0.5-0.6-0.9-0.5-1.4,0C75.4,64.3,68.2,71.5,61,78.7
		c-0.5,0.5-0.7,0.9,0,1.5c2.3,2.2,4.5,4.4,6.7,6.7c0.6,0.6,0.9,0.5,1.4,0c7.2-7.2,14.4-14.4,21.6-21.6c0.5-0.5,0.5-0.8,0-1.4
		c-1.1-1.1-0.8-2.5,0.5-2.8c0.6-0.2,1.2,0,1.6,0.5c2.4,2.4,4.9,4.8,7.2,7.3C100,69.2,100,69.6,100,70.1z M53.6,67.9
		c3.1,1.2,5.4,3,7.5,5.2c0.4,0.5,0.7,0.2,1-0.1c6.1-6.1,12.2-12.2,18.3-18.3c0.4-0.4,0.4-0.7,0-1.1c-0.8-0.9-1.6-1.8-2.2-2.8
		c-3.1-4.9-7.4-8.8-11.4-12.9c-1.7-1.7-3.7-3.1-6.2-3.2c-3.9-0.1-7.9-0.1-11.8,0c-1.3,0-2.2,1-2,2.4c0.1,1.3,0.9,2.1,2.2,2.5
		c2.5,0.8,5,1.5,7.6,2.3c1.4,0.4,2.7,1.1,3.8,2.2c2.5,2.5,5,4.9,7.5,7.4c0.9,0.9,0.9,1.7,0,2.6c-1.7,1.7-3.3,3.4-5,5
		c-0.8,0.8-1.8,0.8-2.4,0.2c-0.7-0.7-0.7-1.6,0.2-2.5c1.1-1.1,2.2-2.3,3.4-3.4c0.5-0.5,0.5-0.8,0-1.3c-1.7-1.7-3.5-3.4-5.2-5.2
		c-1.1-1.1-2.3-1.8-3.8-2.2c-2.5-0.7-4.9-1.4-7.4-2.2c-1.4-0.4-2.5-1.1-3.2-2.4c-2.2-3.8,0.4-8.6,4.8-8.7c3.9,0,7.8,0,11.7,0
		c0.4,0,0.7,0.1,1-0.1c1.7-1.1,1.8-3.7,0.1-4.8c-1-0.7-2-0.6-3.2,0.2c-1.2,0.8-2.5,0.5-2.7-0.8c-0.1-0.6,0.2-1.1,0.6-1.6
		c0.9-1.2,0.8-2.4-0.2-3.5c-1.2-1.2-2.7-1.1-4,0.2C44,29.3,35.7,37.6,27.4,45.9c-1.2,1.2-1.9,1.2-3.2,0c-0.7-0.7-1.3-1.5-2.1-2.4
		c-0.3,2.4-0.6,4.5-0.9,6.7c-0.1,0.8,0,1.7-0.6,2.4c-0.4,0.5-1.2,1-1.3,1.5c-0.1,0.7,0.9,1,1.3,1.6c0.5,0.7,0.5,1.4-0.1,2
		c-0.5,0.6-1.4,0.7-2.1,0.2c-0.4-0.3-0.7-0.6-1-0.9c-0.5-0.5-0.8-0.5-1.3,0c-2.3,2.3-4.5,4.6-6.8,6.8c-0.5,0.5-0.5,0.7,0,1.2
		c7.3,7.2,14.5,14.5,21.7,21.7c0.5,0.5,0.8,0.5,1.3,0c2.2-2.3,4.4-4.5,6.7-6.7c0.6-0.6,0.6-0.9,0-1.5c-4.9-4.9-9.9-9.8-14.8-14.7
		c-0.4-0.4-0.8-0.7-1-1.2c-0.4-0.7-0.3-1.5,0.3-2c0.6-0.5,1.3-0.5,2,0c0.3,0.2,0.5,0.5,0.8,0.7c3.8,3.8,7.6,7.6,11.5,11.4
		c0.3,0.3,0.5,0.8,1.1,0.3c2.6-2.5,5.7-4.2,8.9-5.7c2.1-1,4.1-2.3,5.8-3.9c0.6-0.5,1.1-1.1,1.7-1.6c0.8-0.7,1.7-0.6,2.3,0.2
		c0.5,0.7,0.5,1.5-0.3,2.3C56.3,65.6,55.1,66.7,53.6,67.9z M6.4,67c-0.1,0.1-0.3,0.2-0.4,0.4c-0.4,0.4-0.8,0.9-1.3,1.3
		c-0.7,0.6-0.6,1,0,1.6C11.4,77,18.2,83.7,25,90.5c1.9,1.9,1.9,1.9,3.7,0c0.6-0.6,0.5-0.9,0-1.5c-2.4-2.4-4.8-4.8-7.2-7.2
		c-4.7-4.7-9.5-9.5-14.2-14.2C7,67.4,6.8,67,6.4,67z M96.1,69.4c-0.1-0.2-0.3-0.3-0.4-0.5c-0.5-0.5-1-1-1.5-1.5
		c-0.5-0.5-0.8-0.4-1.2,0c-2.5,2.5-5,5-7.5,7.5c-4.7,4.7-9.4,9.4-14.1,14.1c-0.6,0.6-0.7,1,0,1.6c0.5,0.4,0.9,0.8,1.2,1.2
		c0.4,0.5,0.7,0.5,1.2,0c7.3-7.3,14.6-14.6,21.8-21.9C95.8,69.8,96,69.6,96.1,69.4z M39.8,26c-1.3,0-2,0.5-2.6,1.4
		c-0.5,0.9-0.4,1.8,0.1,2.7c0.3,0.6,0.6,0.7,1.2,0.2c0.7-0.8,1.6-1.6,2.3-2.3c0.3-0.3,0.8-0.5,0.7-1c-0.2-0.5-0.7-0.7-1.2-0.8
		C40,26,39.8,26,39.8,26z M24.8,40.6c0,0.7,0.2,1.1,0.4,1.5c0.4,0.6,0.7,0.7,1.2,0.1c0.8-0.9,1.7-1.8,2.6-2.6
		c0.5-0.5,0.4-0.8-0.1-1.1C28,38,27.1,38,26.2,38.4C25.3,38.9,24.8,39.7,24.8,40.6z M33.7,32.1c-1.2,0-2,0.4-2.5,1.3
		c-0.6,0.9-0.5,1.8,0.1,2.8c0.3,0.6,0.6,0.8,1.2,0.2c0.8-0.8,1.6-1.6,2.4-2.4c0.9-0.9,0.8-1.2-0.3-1.6
		C34.2,32.2,33.9,32.1,33.7,32.1z M42.9,22.6c0.1,0.5,0.2,1.1,0.5,1.5c0.3,0.4,0.6,0.5,1,0.1c0.9-0.9,1.9-1.9,2.8-2.8
		c0.4-0.4,0.2-0.7-0.2-1c-0.9-0.6-1.8-0.6-2.8-0.2C43.4,20.7,43,21.6,42.9,22.6z M23.1,36.6c1.2-1,2.4-1.6,3.9-1.7
		c0.9-0.1,0.6-1,0.7-1.6c0-0.6-0.6-0.4-1-0.3C24.8,33.5,23.6,34.7,23.1,36.6z M69.3,34.7c0-1.7-1.9-3.1-3.5-2.5
		c-0.2,0.1-0.5,0.1-0.5,0.4c0,0.2,0.2,0.3,0.4,0.4c1,0.6,2,1.3,2.9,2.1c0.2,0.1,0.3,0.4,0.6,0.2C69.3,35.2,69.3,34.9,69.3,34.7z
		 M75.3,40.7c0-1.3-1.2-2.6-2.5-2.6c-0.2,0-0.6-0.1-0.7,0.2c-0.1,0.2,0.1,0.4,0.3,0.6c0.7,0.7,1.5,1.5,2.2,2.2
		c0.1,0.1,0.3,0.4,0.6,0.2C75.4,41.2,75.3,40.9,75.3,40.7z"/>
	<path class="st1" d="M44.5,9.7c-0.1,0.8-0.4,1.4-1,1.6c-0.7,0.3-1.4,0.1-1.8-0.5c-0.7-1.1-1.2-2.2-1.5-3.5C39.9,6.6,40.3,6,41,5.6
		c0.7-0.4,1.4-0.3,1.9,0.3C43.7,7.1,44.1,8.5,44.5,9.7z"/>
	<path class="st1" d="M57.3,11.4c-1.2,0-2-0.9-1.7-1.9c0.3-1.2,0.8-2.3,1.5-3.4c0.4-0.7,1.2-0.9,2-0.6c0.7,0.3,1.1,1.1,0.8,1.9
		c-0.4,1.1-0.9,2.1-1.4,3.1C58.3,11.2,57.8,11.4,57.3,11.4z"/>
	<path class="st1" d="M51.7,6.8c0,0.5,0,1,0,1.6C51.6,9.3,50.9,10,50,10c-0.8,0-1.5-0.7-1.6-1.6c0-1.1-0.1-2.1,0-3.2
		c0.1-0.9,0.8-1.5,1.6-1.5c0.8,0,1.5,0.6,1.6,1.5C51.7,5.8,51.6,6.3,51.7,6.8C51.7,6.8,51.7,6.8,51.7,6.8z"/>
	<path class="st1" d="M63.1,15.6c-0.7-0.1-1.2-0.3-1.5-0.9c-0.3-0.6-0.3-1.2,0.1-1.6c0.8-0.9,1.7-1.8,2.7-2.5
		c0.7-0.5,1.4-0.4,1.9,0.2c0.5,0.5,0.7,1.3,0.2,1.9c-0.8,1.1-1.8,2.1-3,2.8C63.5,15.6,63.3,15.6,63.1,15.6z"/>
	<path class="st1" d="M38.6,13.9c0,0.7-0.2,1.2-0.8,1.5c-0.5,0.3-1.1,0.4-1.6,0c-1-0.7-1.9-1.6-2.7-2.5c-0.5-0.6-0.4-1.3,0-1.9
		c0.5-0.6,1.1-0.9,1.8-0.5c1.2,0.7,2.2,1.8,3.1,2.9C38.6,13.5,38.6,13.8,38.6,13.9z"/>
	<path class="st1" d="M33.5,79.6c0,1-0.9,1.8-1.8,1.8c-0.9,0-1.8-0.9-1.7-1.9c0-0.9,0.9-1.7,1.8-1.7C32.8,77.8,33.5,78.6,33.5,79.6z
		"/>
</g>
</svg>
