<?xml version="1.0" encoding="utf-8"?>
<!-- Generator: Adobe Illustrator 24.2.1, SVG Export Plug-In . SVG Version: 6.00 Build 0)  -->
<svg version="1.1" id="Layer_1" xmlns="http://www.w3.org/2000/svg" xmlns:xlink="http://www.w3.org/1999/xlink" x="0px" y="0px"
	 viewBox="0 0 50 50" style="enable-background:new 0 0 50 50;" xml:space="preserve">
<style type="text/css">
	.st0{fill:#3D1951;}
	.st1{fill:#FFFFFF;}
</style>
<g id="Layer_2_1_">
	<g id="Layer_1-2">
		<circle class="st0" cx="25" cy="25" r="24"/>
		<path class="st1" d="M12.9,22.3H15l-2.8,7.6h-2l-2.8-7.6h2.1l1.7,4.9L12.9,22.3z"/>
		<path class="st1" d="M17.6,29.9h-2v-7.6h2V29.9z"/>
		<path class="st1" d="M23.4,28.1v1.8h-1.9c-1.4,0-2-0.7-2-2V24h-1.1v-1.8h1.1V20h2v2.3h1.9V24h-1.9v3.5c0,0.4,0.1,0.6,0.6,0.6
			L23.4,28.1L23.4,28.1z"/>
		<path class="st1" d="M28.9,24.9c-0.1-0.7-0.6-1.1-1.4-1.1c-0.7,0-1.2,0.3-1.3,0.8h-2c0.3-1.6,1.5-2.6,3.3-2.6
			c2.2,0,3.4,1.4,3.4,3.5v4.3h-2V29c-0.4,0.6-1,1-2.1,1C25,30,24,29.2,24,27.8c0-1.1,0.4-1.8,1.5-2.3C26.2,25.1,27.7,25,28.9,24.9
			L28.9,24.9z M26,27.6c0,0.4,0.3,0.8,1.2,0.8c1,0,1.8-0.6,1.8-1.5v-0.2c-1.1,0.1-2.2,0.2-2.5,0.4C26.1,27.1,26,27.2,26,27.6
			L26,27.6z"/>
		<path class="st1" d="M34.6,28.1v1.8h-0.9c-1.4,0-2-0.7-2-2v-8h2v7.6c0,0.4,0.1,0.6,0.6,0.6L34.6,28.1L34.6,28.1z"/>
		<path class="st1" d="M34.9,27.4h2c0.1,0.6,0.8,0.9,1.4,0.9c0.4,0,1-0.1,1-0.6c0-0.3-0.2-0.5-0.7-0.6L37,26.7
			c-0.8-0.2-1.9-0.8-1.9-2.3c0-1.5,1.3-2.4,2.9-2.4c1.6,0,2.8,0.7,3,2.5h-2c-0.1-0.5-0.5-0.7-1-0.7c-0.6,0-0.9,0.2-0.9,0.6
			c0,0.3,0.3,0.5,0.6,0.6l1.7,0.4c0.8,0.2,1.9,0.8,1.9,2.4c0,1.7-1.4,2.4-3,2.4C36.6,30,35,29.2,34.9,27.4z"/>
		<rect x="15.7" y="20" class="st1" width="2" height="1.7"/>
	</g>
</g>
</svg>
