<?xml version="1.0" encoding="utf-8"?>
<!-- Generator: Adobe Illustrator 24.2.1, SVG Export Plug-In . SVG Version: 6.00 Build 0)  -->
<svg version="1.1" id="Layer_1" xmlns="http://www.w3.org/2000/svg" xmlns:xlink="http://www.w3.org/1999/xlink" x="0px" y="0px"
	 viewBox="0 0 50 50" style="enable-background:new 0 0 50 50;" xml:space="preserve">
<style type="text/css">
	.st0{fill:#F6F9FC;}
	.st1{fill:#0080C5;}
	.st2{fill:#231F20;}
</style>
<g>
	<g>
		<g>
			<g>
				<g>
					<g>
						<path class="st0" d="M49,25c0,13.3-10.7,24-24.1,24C11.6,49,1,38.2,1,24.8C1,11.6,11.9,1,25.3,1C38.3,1,49,11.9,49,25z"/>
					</g>
				</g>
			</g>
		</g>
	</g>
	<g>
		<path id="path859" class="st1" d="M26.2,12.4c0.1-0.3,0.3-0.6,0.6-0.8c0.2,0,0.4-0.1,0.5-0.3c0-0.2-0.1-0.3-0.9-0.3h-2.2
			c-0.7,0-1,0-0.9,0.3c0.1,0.1,0.2,0.2,0.4,0.2c0.6,0.2,1.1,0.5,0.9,1.1c-0.2,0.6-2.9,8.6-2.9,8.6c-0.1,0.3-0.4,0.4-0.5-0.1
			l-1.4-6.7c-0.1-0.5-0.3-1.2-0.3-1.6c-0.1-0.3-0.3-0.5-0.6-0.4c-0.3,0-0.5,0.1-0.6,0.4c-0.2,0.4-0.5,1.1-0.8,1.6l-3.6,6.8
			c-0.1,0.3-0.3,0.2-0.4-0.1l-0.5-6.9c0-0.5-0.1-1.6,0-1.8c0-0.4,0.3-0.8,0.7-0.9c0.2,0,0.3-0.1,0.4-0.2c0-0.3-0.3-0.3-0.9-0.3h-2.7
			c-0.4,0-0.6,0.1-0.6,0.3c0.1,0.1,0.2,0.2,0.4,0.2c0.3,0.1,0.5,0.3,0.6,0.5c0,0.1,0.1,0.2,0.1,0.3v0.1v0c0,0,0,0,0,0.1
			c0.1,0.6,0.2,1.2,0.3,1.9l0.6,8.4c0,0.6,0.1,1.2,0.2,1.7c0.2,0.3,1,0.3,1.3-0.1c0.1-0.1,4.6-8.4,4.6-8.4c0.3-0.5,0.5-0.5,0.7,0.1
			l1.4,6.8c0.1,0.5,0.2,1,0.4,1.5c0.2,0.5,1.2,0.4,1.4-0.1c0.3-0.5,0.5-1,0.7-1.5C22.3,22.7,26,12.8,26.2,12.4z M38.1,15.6
			c-1.8,0-3.4,1.6-4.4,2.8c0.1-0.3,0.1-0.7,0.3-1l1.6-5.4c0.1-0.4,0-0.8-0.4-0.9c-0.1,0-0.2-0.1-0.3,0h-1.4c-0.7,0-1,0-0.9,0.3
			c0.1,0.1,0.2,0.2,0.4,0.2c0.7,0.2,0.9,0.9,0.7,1.7c0-0.1-1.6,6.4-1.6,6.4c-0.2,0.6-0.6,1.2-1,1.7c0,0-2,2.4-4,2.4
			c-0.8,0.1-1.5-0.5-1.6-1.3c0-0.1,0-0.1,0-0.2c0-0.5,0-1,0.2-1.4c2.1-0.2,5.9-1.1,5.9-3.8c0-1.1-1-1.4-1.9-1.4
			c-2.8,0-5.6,3.4-5.6,6.4c0,1.3,0.6,2.6,2.4,2.6c3.4,0,5.2-3.2,5.3-3.3c-0.1,0.4-0.1,0.9-0.2,1.3c0,1.4,1,2.1,2.3,2.1
			c1,0,2-0.3,2.9-0.9c0.7-0.4,1.4-1,2-1.6c1.1-1.1,1.7-2.6,1.8-4.1C40.3,16.6,39.7,15.6,38.1,15.6L38.1,15.6z M28.9,16.2
			c0.4,0,0.8,0.3,0.8,0.7c0,0,0,0.1,0,0.1c0,2.1-2.4,3-4.2,3.1C25.8,18.9,27.4,16.2,28.9,16.2z M37.8,20.8c-0.4,0.8-1,1.6-1.6,2.3
			c-0.6,0.6-1.4,1-2.2,1.1c-0.9,0-1.2-0.8-1.2-1.6c0-2.1,2.4-6.1,4.8-6.1c0.9,0,1.2,0.6,1.2,1.3C38.7,18.8,38.4,19.9,37.8,20.8
			L37.8,20.8z"/>
		<g>
			<path id="path857" class="st2" d="M37.3,26.9c-1.7-1.3-5.1-1.3-5.1-1.3h-5.7c-0.7,0-0.9,0-0.9,0.3c0.1,0.1,0.2,0.2,0.4,0.2
				c0.4,0,0.7,0.3,0.7,0.7c0,0.5,0.1,1.9,0.1,2.4v4.1c0,0.5,0,1.5,0,2V38c0,0.6,0.5,1,1,1h3.4c1.4,0,2.9-0.3,4.2-0.8
				c2.6-1,4.2-3.5,4.2-6.2C39.7,30,38.8,28.1,37.3,26.9L37.3,26.9z M31.5,37.8h-0.1c-0.8,0-1.6,0-2-0.4c-0.2-0.3-0.4-0.6-0.3-1v-6.2
				c0-1.3,0-1.9,0-3.3c0.8-0.1,1.6-0.2,2.4-0.2c1.5,0,3.1,0.2,4.4,1.6c0.9,1,1.4,2.4,1.3,3.8C37.1,35.6,34.9,37.8,31.5,37.8z
				 M25.6,38.5c-0.4-0.1-0.6-0.5-0.7-0.9c0-0.2-0.3-11-0.3-11c0-0.5,0-1-0.1-1c-0.4-0.1-0.8-0.1-1.2-0.1c-0.3,0-0.6,0-1,0.1
				c-0.2,0.3-0.4,0.7-0.5,1l-1,2.2l-1,1.8l-1.5,2.9c-0.1,0.3-0.3,0.4-0.6,0.4c-0.2,0-0.3-0.2-0.4-0.4l-1.6-2.9l-1-1.8l-1.1-2.3
				c-0.1-0.4-0.3-0.7-0.5-1c-0.3-0.1-0.7-0.1-1.1-0.1h-1.4c-0.7,0-1,0-0.9,0.3c0.1,0.1,0.2,0.2,0.4,0.2c0.3,0.1,0.6,0.5,0.5,0.8
				c0,0.2,0,10.1-0.1,10.5c0,0.1,0,0.1,0,0.2c0,0.4-0.3,0.8-0.7,0.9c-0.2,0-0.3,0.1-0.4,0.2C9.7,39,10,39,10.6,39h2.2
				c0.7,0,1,0,0.9-0.3c-0.1-0.1-0.2-0.2-0.4-0.2c-0.4-0.1-0.7-0.5-0.7-0.9l0,0c0-0.2-0.1-0.5-0.1-0.7c0-0.5,0-1.5,0-2v-0.2
				c0-0.5,0-1.5,0-2l0.1-2.2c0-0.5,0.2-0.6,0.5-0.1l1.5,2.7c0.3,0.5,1.7,3.1,1.9,3.6c0.1,0.4,0.5,0.7,0.9,0.6c0,0,0,0,0,0
				c0.7,0,0.7-0.2,1.1-0.8c0.2-0.5,3.4-6.6,3.4-6.6c0.3-0.5,0.5-0.4,0.5,0.1c0,0,0,7.5,0,7.8v0.1c-0.1,0.3-0.3,0.6-0.7,0.7
				c-0.1,0-0.3,0.1-0.4,0.2c0,0.3,0.3,0.3,0.9,0.3h2.7c0.7,0,1,0,0.9-0.3C25.9,38.6,25.8,38.5,25.6,38.5L25.6,38.5z"/>
			<path id="path861" class="st2" d="M38.2,26.4c0-0.4,0.3-0.7,0.7-0.7c0.4,0,0.7,0.3,0.7,0.7c0,0,0,0,0,0c0,0.4-0.3,0.7-0.7,0.7
				C38.5,27,38.2,26.7,38.2,26.4C38.2,26.4,38.2,26.4,38.2,26.4z M38.9,27.2c0.5,0,0.8-0.4,0.8-0.8c0-0.4-0.4-0.8-0.8-0.8
				c-0.4,0-0.8,0.4-0.8,0.8C38,26.8,38.4,27.2,38.9,27.2C38.8,27.2,38.8,27.2,38.9,27.2L38.9,27.2z M38.7,26.4h0.2l0.3,0.4h0.2
				L39,26.4c0.1,0,0.2-0.1,0.2-0.2c0,0,0,0,0,0c0-0.1-0.1-0.3-0.3-0.3c0,0-0.1,0-0.1,0h-0.4v0.9h0.1L38.7,26.4z M38.7,26.3V26h0.2
				c0.1,0,0.2,0,0.2,0.1s-0.1,0.2-0.2,0.2L38.7,26.3L38.7,26.3z"/>
		</g>
	</g>
</g>
</svg>
