<?xml version="1.0" encoding="utf-8"?>
<!-- Generator: Adobe Illustrator 24.2.1, SVG Export Plug-In . SVG Version: 6.00 Build 0)  -->
<svg version="1.1" id="Layer_1" xmlns="http://www.w3.org/2000/svg" xmlns:xlink="http://www.w3.org/1999/xlink" x="0px" y="0px"
	 viewBox="0 0 50 50" style="enable-background:new 0 0 50 50;" xml:space="preserve">
<style type="text/css">
	.st0{fill:#F6F9FC;}
	.st1{fill:#BF2519;}
</style>
<g>
	<g>
		<g>
			<g>
				<path class="st0" d="M49,25c0,13.3-10.7,24-24.1,24C11.6,49,1,38.2,1,24.8C1,11.6,11.9,1,25.3,1C38.3,1,49,11.9,49,25z"/>
			</g>
		</g>
	</g>
	<path class="st1" d="M13.4,24.4c-0.5,0.8-0.7,3.5-0.6,5.2c0.1,0.6,0.2,1.1,0.3,1.3c0.2,0.4,0.6,0.6,1,0.6c0.3,0,0.4,0,5.2-1.6
		c0,0,2.1-0.7,2.1-0.7c0.5-0.1,0.9-0.6,0.9-1.3c0-0.6-0.3-1.2-0.8-1.4c0,0-1.5-0.6-1.5-0.6c-5.2-2.1-5.4-2.2-5.7-2.2
		C14,23.8,13.7,24,13.4,24.4 M25,40.3c0.1-0.2,0.1-0.4,0.1-5.5c0,0,0-2.2,0-2.3c0-0.5-0.3-1-0.9-1.3c-0.6-0.2-1.2-0.1-1.6,0.4
		c0,0-1.1,1.3-1.1,1.3c-3.6,4.2-3.8,4.4-3.9,4.7c-0.1,0.1-0.1,0.3-0.1,0.5c0,0.2,0.1,0.4,0.3,0.7c0.8,1,4.9,2.5,6.1,2.3
		C24.5,40.9,24.8,40.7,25,40.3 M33.1,38.5c1.2-0.5,3.9-3.8,4-5.1c0.1-0.5-0.1-0.8-0.4-1.1c-0.2-0.2-0.4-0.2-5.2-1.8
		c0,0-2.1-0.7-2.1-0.7c-0.5-0.2-1.1,0-1.5,0.5c-0.4,0.5-0.5,1.2-0.1,1.6l0.8,1.4c2.9,4.6,3.1,5,3.3,5.1
		C32.3,38.6,32.7,38.7,33.1,38.5 M30.7,26.6c5.5-1.3,5.7-1.4,5.9-1.5c0.3-0.2,0.5-0.6,0.5-1c0,0,0,0,0,0c-0.1-1.3-2.5-4.8-3.6-5.4
		c-0.4-0.2-0.8-0.2-1.2,0C32,18.8,31.8,19,28.9,23c0,0-1.3,1.8-1.3,1.8c-0.3,0.4-0.4,1,0,1.6c0.4,0.5,0.9,0.8,1.5,0.7c0,0,0,0,0,0
		C29.3,26.9,29.8,26.8,30.7,26.6 M25.2,22.1c-0.1-2.2-0.7-11.8-0.8-12.2c-0.1-0.4-0.4-0.7-0.9-0.8c-1.4-0.3-6.7,1.1-7.7,2.2
		c-0.3,0.3-0.4,0.7-0.3,1.1c0.2,0.3,6.8,10.7,6.8,10.7c1,1.6,1.8,1.3,2,1.3C24.5,24.2,25.3,23.9,25.2,22.1"/>
</g>
</svg>
