<?xml version="1.0" encoding="utf-8"?>
<!-- Generator: Adobe Illustrator 24.2.1, SVG Export Plug-In . SVG Version: 6.00 Build 0)  -->
<svg version="1.1" id="Layer_1" xmlns="http://www.w3.org/2000/svg" xmlns:xlink="http://www.w3.org/1999/xlink" x="0px" y="0px"
	 viewBox="0 0 100 100" style="enable-background:new 0 0 100 100;" xml:space="preserve">
<style type="text/css">
	.st0{fill:#FFFFFF;}
	.st1{fill:#449A4E;stroke:#263863;stroke-width:1.2305;stroke-linecap:round;stroke-linejoin:round;stroke-miterlimit:10;}
	.st2{fill-rule:evenodd;clip-rule:evenodd;fill:#FFFFFF;}
	.st3{fill-rule:evenodd;clip-rule:evenodd;fill:#263863;}
	.st4{fill-rule:evenodd;clip-rule:evenodd;fill:#2D2E85;}
	.st5{fill-rule:evenodd;clip-rule:evenodd;fill:#449A4E;}
	.st6{fill-rule:evenodd;clip-rule:evenodd;fill:none;stroke:#263863;stroke-width:0.5;stroke-miterlimit:10;}
	.st7{fill-rule:evenodd;clip-rule:evenodd;fill:#C7D0E2;}
	
		.st8{fill-rule:evenodd;clip-rule:evenodd;fill:#263863;stroke:#263863;stroke-width:0.1;stroke-linecap:round;stroke-linejoin:round;stroke-miterlimit:10;}
	.st9{fill:#DAE2F2;}
	.st10{fill:#263863;}
	.st11{fill:#FFFFFF;stroke:#263863;stroke-width:1.0263;stroke-linecap:round;stroke-linejoin:round;stroke-miterlimit:10;}
</style>
<path class="st0" d="M77.7,11.5V90c0,3.3-2.7,6-6,6H29.4c-3.3,0-6-2.7-6-6V11.5c0-3.3,2.7-6,6-6l42.3,0C75,5.4,77.7,8.2,77.7,11.5z"
	/>
<path class="st1" d="M79.1,81.1v3.2c0,3.5-2.9,6.4-6.4,6.4H28.3c-2.6,0-4.8-1.5-5.8-3.7c-0.4-0.8-0.6-1.7-0.6-2.6v-3.2H79.1
	L79.1,81.1z"/>
<path class="st1" d="M77.7,11.5v3l-54.3,0v-3c0-3.3,2.7-6,6-6l42.3,0C75,5.4,77.7,8.2,77.7,11.5L77.7,11.5z"/>
<path class="st2" d="M44.5,9.6h7.2c0.4,0,0.7-0.3,0.7-0.7s-0.3-0.7-0.7-0.7h-7.2c-0.4,0-0.7,0.3-0.7,0.7S44.2,9.6,44.5,9.6z"/>
<path class="st2" d="M56.8,9.6h1.3c0.4,0,0.7-0.3,0.7-0.7s-0.3-0.7-0.7-0.7h-1.3c-0.4,0-0.7,0.3-0.7,0.7S56.4,9.6,56.8,9.6z"/>
<path class="st2" d="M47.4,86.6h6.4c0.4,0,0.7-0.3,0.7-0.7c0-0.4-0.3-0.7-0.7-0.7h-6.4c-0.4,0-0.7,0.3-0.7,0.7
	C46.7,86.2,47,86.6,47.4,86.6z"/>
<path class="st3" d="M78.7,78.8v5.4c0,3.3-2.7,5.9-5.9,5.9H33.3c-0.2,0-0.4,0.2-0.4,0.4c0,0.2,0.2,0.4,0.4,0.4h39.4
	c3.7,0,6.8-3,6.8-6.8v-5.4c0-0.2-0.2-0.4-0.4-0.4C78.9,78.4,78.7,78.6,78.7,78.8z"/>
<path class="st4" d="M22.4,84.5V73.6c0-0.1-0.2-0.1-0.4-0.1c-0.2,0-0.4,0.1-0.4,0.1v10.9c0,0.1,0.2,0.1,0.4,0.1
	C22.2,84.7,22.4,84.6,22.4,84.5L22.4,84.5z"/>
<path class="st3" d="M23.7,30.9V11.5c0-3.1,2.5-5.6,5.6-5.6l42.3,0c3.1,0,5.6,2.5,5.6,5.6v20.3c0,0.2,0.2,0.4,0.4,0.4
	c0.2,0,0.4-0.2,0.4-0.4V11.5c0-3.5-2.9-6.4-6.4-6.4L29.4,5C25.9,5,23,7.9,23,11.5v19.4c0,0.2,0.2,0.4,0.4,0.4
	C23.6,31.2,23.7,31.1,23.7,30.9L23.7,30.9z"/>
<g>
	<path class="st3" d="M68.2,39.1c-3.6,0-6.6,2.9-6.6,6.6v4.7c0,0.2,0.2,0.3,0.3,0.3c0.2,0,0.3-0.2,0.3-0.3v-4.7
		c0-3.2,2.6-5.9,5.9-5.9c0.2,0,0.3-0.2,0.3-0.3S68.4,39.1,68.2,39.1z"/>
	<path class="st3" d="M80.3,50.4v-4.7c0-3.6-2.9-6.6-6.6-6.6c-0.2,0-0.3,0.2-0.3,0.3s0.2,0.3,0.3,0.3c3.2,0,5.9,2.6,5.9,5.9v4.7
		c0,0.2,0.2,0.3,0.3,0.3C80.2,50.7,80.3,50.6,80.3,50.4z"/>
	<circle class="st5" cx="68.7" cy="40.4" r="1.3"/>
	<path class="st3" d="M68.7,41.4c-0.6,0-1-0.5-1-1c0-0.6,0.5-1,1-1c0.6,0,1,0.5,1,1c0,0.2,0.2,0.3,0.3,0.3s0.3-0.2,0.3-0.3
		c0-0.9-0.8-1.7-1.7-1.7c-0.9,0-1.7,0.8-1.7,1.7c0,0.9,0.8,1.7,1.7,1.7c0.2,0,0.3-0.2,0.3-0.3S68.9,41.4,68.7,41.4L68.7,41.4z"/>
	<path class="st6" d="M83.8,67.6V50.4c0-1.3,0.5-2.5,1.4-3.4c0.9-0.9,2.2-1.4,3.4-1.4l0,0c1.3,0,2.5,0.5,3.4,1.4
		c0.9,0.9,1.4,2.2,1.4,3.4c0,4.1,0,10,0,10c0,0.5-0.4,1-1,1s-1-0.4-1-1v-10c0-0.8-0.3-1.5-0.9-2.1c-0.6-0.6-1.3-0.9-2.1-0.9l0,0
		c-0.8,0-1.5,0.3-2.1,0.9c-0.6,0.6-0.9,1.3-0.9,2.1v17.2c0,4.3-3.5,7.9-7.9,7.9h0c-4.3,0-7.9-3.5-7.9-7.9v-7.4c0-0.5,0.4-1,1-1
		s1,0.4,1,1v7.4c0,3.3,2.7,5.9,5.9,5.9h0C81.1,73.5,83.8,70.8,83.8,67.6L83.8,67.6z"/>
	<circle class="st5" cx="73" cy="40.4" r="1.3"/>
	<path class="st3" d="M73,39.4c0.6,0,1,0.5,1,1s-0.5,1-1,1c-0.6,0-1-0.5-1-1c0-0.2-0.2-0.3-0.3-0.3c-0.2,0-0.3,0.2-0.3,0.3
		c0,0.9,0.8,1.7,1.7,1.7c0.9,0,1.7-0.8,1.7-1.7c0-0.9-0.8-1.7-1.7-1.7c-0.2,0-0.3,0.2-0.3,0.3C72.7,39.2,72.8,39.4,73,39.4z"/>
	<path class="st5" d="M69.4,60.7v7c0,0.9,0.7,1.6,1.6,1.6s1.6-0.7,1.6-1.6v-7c0-0.9-0.7-1.6-1.6-1.6S69.4,59.8,69.4,60.7z"/>
	<circle class="st5" cx="92.8" cy="61.6" r="2.4"/>
	<path class="st3" d="M90.8,61.6c0-1.1,0.9-2,2-2c1.1,0,2,0.9,2,2c0,1.1-0.9,2-2,2c-0.2,0-0.3,0.2-0.3,0.3c0,0.2,0.2,0.3,0.3,0.3
		c1.5,0,2.7-1.2,2.7-2.7s-1.2-2.7-2.7-2.7c-1.5,0-2.7,1.2-2.7,2.7c0,0.2,0.2,0.3,0.3,0.3C90.6,62,90.8,61.8,90.8,61.6z"/>
	<path class="st6" d="M77.5,52.1v1.4c0,2.9-2.4,5.3-5.3,5.3c-0.8,0-1.5,0-2.3,0c-2.9,0-5.3-2.4-5.3-5.3v-1.4c0-0.9-0.7-1.6-1.6-1.6
		c-0.9,0-1.6,0.7-1.6,1.6v1.4c0,4.7,3.8,8.5,8.5,8.5c0.8,0,1.5,0,2.3,0c4.7,0,8.5-3.8,8.5-8.5v-1.4c0-0.9-0.7-1.6-1.6-1.6
		C78.2,50.5,77.5,51.2,77.5,52.1L77.5,52.1z"/>
	<path class="st3" d="M72.2,59.2c3.1,0,5.6-2.5,5.6-5.6v-1.4c0-0.7,0.6-1.3,1.3-1.3c0.7,0,1.3,0.6,1.3,1.3v1.4
		c0,0.2,0.2,0.3,0.3,0.3c0.2,0,0.3-0.2,0.3-0.3v-1.4c0-1.1-0.9-1.9-1.9-1.9c-1.1,0-1.9,0.9-1.9,1.9v1.4c0,2.7-2.2,5-5,5
		c-0.2,0-0.3,0.2-0.3,0.3C71.8,59,72,59.2,72.2,59.2z"/>
	<path class="st3" d="M69.1,62.3c-4.5-0.4-8.1-4.2-8.1-8.8v-1.4c0-1.1,0.9-1.9,1.9-1.9c1.1,0,1.9,0.9,1.9,1.9v1.4
		c0,0.2-0.2,0.3-0.3,0.3c-0.2,0-0.3-0.2-0.3-0.3v-1.4c0-0.7-0.6-1.3-1.3-1.3c-0.7,0-1.3,0.6-1.3,1.3v1.4c0,4.4,3.4,7.9,7.7,8.2
		c0.2,0,0.3,0.2,0.3,0.3v5.7c0,0.7,0.6,1.3,1.3,1.3s1.3-0.6,1.3-1.3V62c0-0.2,0.2-0.3,0.3-0.3c0.2,0,0.3,0.2,0.3,0.3v5.7
		c0,1.1-0.9,1.9-1.9,1.9c-1.1,0-1.9-0.9-1.9-1.9L69.1,62.3L69.1,62.3z"/>
</g>
<g>
	<path class="st3" d="M57.2,60.7c0-6.1,0-12.9,0-16.9c0-1.1-0.4-2.1-1.2-2.9c-0.8-0.8-1.8-1.2-2.9-1.2c-8,0-27.2,0-39.6,0
		c-0.2,0-0.3,0.2-0.3,0.3s0.2,0.3,0.3,0.3c12.5,0,31.6,0,39.6,0c0.9,0,1.8,0.4,2.4,1c0.6,0.6,1,1.5,1,2.4c0,4.1,0,10.9,0,16.9
		c0,0.2,0.2,0.3,0.3,0.3C57.1,61,57.2,60.9,57.2,60.7L57.2,60.7z"/>
	<path class="st3" d="M2.9,40.9c-0.8,0.8-1.2,1.8-1.2,2.9c0,6.5,0,19.8,0,26.3c0,1.1,0.4,2.1,1.2,2.9c0.8,0.8,1.8,1.2,2.9,1.2
		c10,0,37.4,0,47.4,0c1.1,0,2.1-0.4,2.9-1.2c0.1-0.1,0.1-0.3,0-0.5c-0.1-0.1-0.3-0.1-0.5,0c-0.6,0.6-1.5,1-2.4,1
		c-10,0-37.4,0-47.4,0c-0.9,0-1.8-0.4-2.4-1c-0.6-0.6-1-1.5-1-2.4c0-6.5,0-19.8,0-26.3c0-0.9,0.4-1.8,1-2.4c0.1-0.1,0.1-0.3,0-0.5
		C3.2,40.8,3,40.8,2.9,40.9L2.9,40.9z"/>
	<path class="st7" d="M49.7,47c0-0.5-0.4-1-1-1c-3.5,0-15.5,0-19,0c-0.5,0-1,0.4-1,1c0,0.1,0,0.3,0,0.4c0,0.5,0.4,1,1,1
		c3.5,0,15.5,0,19,0c0.5,0,1-0.4,1-1C49.7,47.3,49.7,47.1,49.7,47z"/>
	<path class="st8" d="M43.3,55.5c0-0.1-0.1-0.3-0.2-0.4C43,55,42.9,55,42.8,55c-2.2,0-11.2,0-13.4,0c-0.1,0-0.3,0.1-0.4,0.2
		c-0.1,0.1-0.2,0.2-0.2,0.4c0,0,0,0,0,0c0,0.1,0.1,0.3,0.2,0.4c0.1,0.1,0.2,0.2,0.4,0.2c2.2,0,11.2,0,13.4,0c0.1,0,0.3-0.1,0.4-0.2
		C43.2,55.7,43.3,55.6,43.3,55.5C43.3,55.5,43.3,55.5,43.3,55.5z"/>
	<path class="st8" d="M46.5,58.7c0-0.1-0.1-0.3-0.2-0.4c-0.1-0.1-0.2-0.2-0.4-0.2H29.3c-0.1,0-0.3,0.1-0.4,0.2
		c-0.1,0.1-0.2,0.2-0.2,0.4v0c0,0.1,0.1,0.3,0.2,0.4c0.1,0.1,0.2,0.2,0.4,0.2H46c0.1,0,0.3-0.1,0.4-0.2C46.4,59,46.5,58.8,46.5,58.7
		L46.5,58.7z"/>
	<path class="st8" d="M45.6,61.9c0-0.1-0.1-0.3-0.2-0.4c-0.1-0.1-0.2-0.2-0.4-0.2c-2.5,0-13.2,0-15.7,0c-0.1,0-0.3,0.1-0.4,0.2
		c-0.1,0.1-0.2,0.2-0.2,0.4c0,0,0,0,0,0c0,0.1,0.1,0.3,0.2,0.4c0.1,0.1,0.2,0.2,0.4,0.2c2.5,0,13.2,0,15.7,0c0.1,0,0.3-0.1,0.4-0.2
		C45.5,62.2,45.6,62,45.6,61.9C45.6,61.9,45.6,61.9,45.6,61.9z"/>
	<path class="st8" d="M40.3,65.1c0-0.1-0.1-0.3-0.2-0.4c-0.1-0.1-0.2-0.2-0.4-0.2c-1.9,0-8.5,0-10.4,0c-0.1,0-0.3,0.1-0.4,0.2
		c-0.1,0.1-0.2,0.2-0.2,0.4c0,0,0,0,0,0c0,0.1,0.1,0.3,0.2,0.4c0.1,0.1,0.2,0.2,0.4,0.2c1.9,0,8.5,0,10.4,0c0.1,0,0.3-0.1,0.4-0.2
		C40.2,65.4,40.3,65.2,40.3,65.1C40.3,65.1,40.3,65.1,40.3,65.1L40.3,65.1z"/>
</g>
<path class="st3" d="M75.8,33.2H17.9c-2.2,0-4.1-1.8-4.1-4.1v-5.5c0-2.2,1.8-4.1,4.1-4.1h5c0.2,0,0.3-0.2,0.3-0.3
	c0-0.2-0.2-0.3-0.3-0.3h-5c-2.6,0-4.8,2.1-4.8,4.8v5.5c0,2.6,2.1,4.8,4.8,4.8h57.9c0.2,0,0.3-0.2,0.3-0.3
	C76.2,33.3,76,33.2,75.8,33.2z"/>
<path class="st3" d="M34.7,19.5h49.4c2.2,0,4.1,1.8,4.1,4.1c0,0.2,0.2,0.3,0.3,0.3s0.3-0.2,0.3-0.3c0-2.6-2.1-4.8-4.8-4.8H34.7
	c-0.2,0-0.3,0.2-0.3,0.3C34.4,19.3,34.5,19.5,34.7,19.5z"/>
<path class="st9" d="M17.9,31.9c-1.2,0-2.2-1.1-2.2-2.5v-5.5c0-1.4,1-2.5,2.2-2.5h66.2c1.2,0,2.2,1.1,2.2,2.5v2.7
	c0,1.4-1,5.3-2.2,5.3H17.9L17.9,31.9z"/>
<g>
	<g id="Background5">
	</g>
</g>
<path class="st10" d="M7.2,66.3C7,66.2,6.9,66,6.9,65.9c0-0.9,0-1.8,0-2.8c0-0.9,0.6-1.6,1.5-1.9c1.1-0.4,2.3-0.8,3.4-1.2
	c0.4-0.1,0.6-0.4,0.6-0.8c0-0.3,0-0.6,0-0.9c0-0.1,0-0.2-0.1-0.3c-1.2-0.6-2-1.7-2.1-2.9c0-0.1-0.1-0.2-0.3-0.2
	c-0.8-0.1-1.4-0.6-1.4-1.2c0-0.6,0.6-1.1,1.3-1.2c0.2,0,0.4,0,0.6,0c0.2,0,0.4-0.1,0.4-0.3c0.1-0.5,0.3-0.7,0.9-0.7
	c2.1-0.3,4.1-0.9,5.8-1.9c0.1,0,0.1-0.1,0.2-0.1c0.2-0.1,0.4,0,0.5,0.1c0,0,0,0,0,0c0.1,0.1,0.1,0.3,0,0.4c0,0,0,0,0,0
	c-0.1,0.1-0.2,0.2-0.4,0.2c-0.1,0.1-0.1,0.1,0,0.2c0.6,0.4,1,1,0.9,1.6c0,0.3,0.1,0.4,0.4,0.4c0.7,0,0.7,0,0.7-0.6
	c0.1-2.4-2.1-4.4-4.9-4.5c-2.6-0.1-4.8,1.6-5.2,3.8c0,0.1,0,0.2,0,0.3c0,0.2-0.2,0.4-0.4,0.3c0,0,0,0,0,0c-0.2,0-0.4-0.2-0.4-0.4
	c0,0,0,0,0,0c0.1-1.4,0.9-2.6,2.2-3.5c0.1-0.1,0.2-0.2,0.2-0.3c0.1-1.7,1.7-3,3.7-2.9c1.7,0.1,3.1,1.2,3.3,2.6
	c0,0.3,0.2,0.5,0.4,0.7c1.3,1,2,2.4,2,3.9c0,0.1,0,0.3,0,0.4c0,0.3,0.1,0.5,0.2,0.8c0.5,0.7-0.1,1.6-1.1,1.7c-0.3,0-0.3,0.1-0.3,0.3
	c-0.2,1.1-0.9,2.1-2.1,2.7c-0.2,0.1-0.3,0.2-0.3,0.4c0,0.3,0,0.6,0,0.9c0,0.3,0.2,0.6,0.5,0.7c1.1,0.4,2.2,0.8,3.3,1.2
	c1,0.3,1.7,1.2,1.6,2.1c0,0.9,0,1.8,0,2.6c0,0.2-0.1,0.3-0.2,0.4H22c-0.2-0.1-0.3-0.3-0.3-0.5c0-0.9,0-1.9,0-2.8
	c0-0.5-0.4-1-0.9-1.2c-0.6-0.3-1.3-0.5-2-0.7c-0.2-0.1-0.2,0-0.2,0.1c0,0.7,0,1.5,0,2.2c0,0.1,0.1,0.3,0.2,0.3
	c0.8,0.3,1.2,1.1,0.8,1.8c0,0,0,0,0,0.1c-0.2,0.3-0.6,0.6-1,0.7h-0.7c0,0,0,0-0.1,0c-0.7-0.2-1.1-0.7-1.2-1.2c0-0.6,0.4-1.1,1-1.3
	c0.1,0,0.2-0.1,0.2-0.3c0-0.7,0-1.3,0-2c0-0.1,0-0.1,0-0.2c-0.1,0-0.1,0-0.2,0.1c-0.7,0.4-1.4,0.8-2,1.2c-0.5,0.3-1.2,0.3-1.7,0
	c-0.7-0.4-1.4-0.8-2.1-1.2c-0.1,0-0.1-0.1-0.2-0.1s0,0.1,0,0.2c0,0.4,0,0.9,0,1.3c0,0.1,0.1,0.2,0.2,0.2c0.3,0,0.5,0,0.8,0
	c0.9,0,1.3,0.4,1.3,1.2v1.1c0,0.6-0.3,0.9-0.9,1.1h-0.5c-0.3-0.3-0.3-0.5,0.2-0.6c0.2,0,0.4-0.2,0.4-0.4c0-0.4,0-0.8,0-1.3
	c0-0.2-0.1-0.4-0.4-0.4c0,0-0.1,0-0.1,0c-1,0-2,0-3,0c-0.3,0-0.4,0.1-0.5,0.4c0,0.4,0,0.8,0,1.2c0,0.2,0.1,0.3,0.4,0.4
	c0.2,0,0.3,0.1,0.4,0.3c0,0.2-0.1,0.3-0.2,0.4H9.4c-0.5-0.1-0.8-0.5-0.8-0.9c0-0.5,0-1,0-1.5c0-0.5,0.4-0.9,1-0.9c0.4,0,0.7,0,1.1,0
	c0.2,0,0.3-0.1,0.3-0.2c0-0.5,0-1,0-1.5c0-0.2,0-0.2-0.2-0.1c-0.6,0.2-1.2,0.5-1.8,0.7c-0.7,0.2-1.2,0.8-1.1,1.4c0,0.9,0,1.8,0,2.6
	c0,0.2-0.1,0.4-0.2,0.5H7.2z M14.8,57.9c1.2,0,2.3-0.5,3.1-1.3c0.5-0.6,0.8-1.3,0.8-2c0-0.3,0.2-0.5,0.6-0.5c0.1,0,0.3,0,0.4,0
	c0.3,0,0.6-0.2,0.6-0.5c0,0,0,0,0,0c0-0.3-0.2-0.5-0.5-0.5c0,0,0,0,0,0c-0.2,0-0.4,0-0.5,0c-0.4,0-0.8-0.2-1-0.5
	c-0.2-0.2-0.2-0.5-0.2-0.7c0-0.2,0-0.4-0.2-0.6c-0.2-0.5-0.9-0.7-1.4-0.5c0,0,0,0-0.1,0c-1.3,0.5-2.8,0.9-4.2,1.1
	c-0.2,0-0.4,0.1-0.5,0.4c-0.1,0.4-0.4,0.6-0.9,0.7c-0.3,0-0.5,0.1-0.8,0c-0.3,0-0.6,0.2-0.6,0.4c0,0,0,0,0,0.1
	c0,0.3,0.3,0.5,0.6,0.5c0,0,0,0,0,0c0.2,0,0.3,0,0.5,0c0.2,0,0.4,0.1,0.5,0.3c0,0,0,0,0,0c0,0.1,0,0.3,0,0.4
	C11.1,56.6,12.8,57.9,14.8,57.9z M14.8,62.1c0.1,0,0.2,0,0.3-0.1c0.8-0.4,1.5-0.9,2.3-1.3c0.1,0,0.2-0.1,0.1-0.1
	c0-0.1-0.1-0.1-0.2-0.1c-0.5-0.2-0.9-0.6-1-1.1c0-0.3,0-0.6,0-0.9c0-0.1,0-0.2-0.2-0.1c-0.9,0.2-1.8,0.2-2.7,0c-0.1,0-0.2,0-0.2,0.1
	c0,0.2,0,0.4,0,0.6c0,0.7-0.3,1.2-1,1.4c-0.2,0.1-0.2,0.1,0,0.2c0.8,0.4,1.5,0.9,2.3,1.3C14.6,62.1,14.7,62.1,14.8,62.1L14.8,62.1z
	 M17.4,47.3c-0.3-1.2-1.6-2-3.1-1.9c-1.1,0.1-2.2,1-2.3,1.8C13.8,46.6,15.8,46.6,17.4,47.3z M19,65c0-0.4-0.3-0.7-0.7-0.7
	c0,0,0,0,0,0c-0.4,0-0.8,0.3-0.8,0.7c0,0.4,0.3,0.7,0.8,0.7C18.7,65.7,19,65.4,19,65C19,65,19,65,19,65L19,65z"/>
<polygon class="st0" points="93.9,29.1 87.3,27.3 83.5,26 80.3,27.5 79.5,31.5 84.8,32.9 "/>
<path class="st11" d="M94,38.1L89.9,34c0.6-1,1-2.2,1-3.5c0-3.7-3-6.8-6.8-6.8c-3.7,0-6.8,3-6.8,6.8c0,3.7,3,6.8,6.8,6.8
	c1.7,0,3.2-0.6,4.4-1.6l3.9,3.9c0.2,0.2,0.5,0.3,0.8,0.3c0.3,0,0.6-0.1,0.8-0.3C94.4,39.2,94.4,38.5,94,38.1z M84.1,35.1
	c-2.5,0-4.6-2-4.6-4.6c0-2.5,2-4.6,4.6-4.6c2.5,0,4.6,2,4.6,4.6C88.6,33,86.6,35.1,84.1,35.1z"/>
</svg>
