<?xml version="1.0" encoding="utf-8"?>
<!-- Generator: Adobe Illustrator 24.2.1, SVG Export Plug-In . SVG Version: 6.00 Build 0)  -->
<svg version="1.1" id="Layer_1" xmlns="http://www.w3.org/2000/svg" xmlns:xlink="http://www.w3.org/1999/xlink" x="0px" y="0px"
	 viewBox="0 0 223.5 50.5" style="enable-background:new 0 0 223.5 50.5;" xml:space="preserve">
<style type="text/css">
	.st0{fill:#212121;}
	.st1{fill-rule:evenodd;clip-rule:evenodd;fill:#1976D2;}
</style>
<desc>Created with Sketch.</desc>
<g>
	<g>
		<g>
			<path class="st0" d="M71.9,3.7c7.3,0,11.6,4.2,11.6,9.9c0,3.8-2.4,6.9-5.4,7.9c3.3,0.8,6.6,3.9,6.6,8.7c0,6-4.5,10.4-11.4,10.5
				H57.9v-37H71.9z M71.2,25.3H66V34h5.2c3.2,0,5.1-1.7,5.1-4.3C76.4,27.1,74.5,25.3,71.2,25.3C71.4,25.3,71.2,25.3,71.2,25.3z
				 M70.4,10.5H66v8h4.5c2.9,0,4.8-1.5,4.8-4C75.4,12.1,73.7,10.5,70.4,10.5L70.4,10.5z M91.2,11.5c2.6,0,4.7-2.1,4.7-4.6
				s-2.1-4.6-4.7-4.6c-2.5,0-4.6,2.1-4.6,4.6S88.7,11.5,91.2,11.5z M95.4,40.7V14.8h-8v25.9C87.4,40.7,95.4,40.7,95.4,40.7z
				 M107.4,40.7V29.3c0-5.2,2.9-7.1,6-7.1c0.8,0,1.6,0.1,2.5,0.3v-7.8c-0.5-0.2-1.3-0.3-2.1-0.3c-2.1,0-5.4,0.8-6.7,3.8v-3.5h-7.7
				v26H107.4L107.4,40.7z M143.7,2.9v33.5v0.3v0.2v0.3v0.3v0.2V38v0.3v0.3V39v0.4v0.4v0.3v0.5h-7.6v-0.1v-0.3V40v-0.2v-0.2v-0.1
				v-0.2v-0.1V39v-0.1v-0.1v-0.2v-0.2v-0.2c-1.2,1.8-3.8,3.1-6.9,3.1c-7.3,0-12.8-5.6-12.8-13.6c0-7.7,5.2-13.5,12.5-13.5
				c3.4,0,5.3,1,6.3,1.9l0.1,0.1c0.1,0.1,0.1,0.1,0.2,0.2l0.1,0.1l0.1,0.1l0.1,0.1l0.1,0.1v0.1V17l0,0l0,0V2.9H143.7z M130.2,21.2
				c-3.1,0-5.8,2.1-5.8,6.4s2.8,6.5,5.8,6.5c3.1,0,5.8-2.2,5.8-6.5C135.9,23.3,133.2,21.2,130.2,21.2z M158.7,13.9c8,0,13,5,13,13.3
				c0,1.1-0.1,2.3-0.2,2.5h-18c0.2,2.9,2.8,5,5.9,5c2.9,0,4.5-1.4,5.2-3.4l6.6,1.9c-1.3,4.5-5.4,8.3-11.9,8.3
				c-7.1,0-13.5-5.1-13.5-13.8C145.9,19.3,152,13.9,158.7,13.9z M158.9,20.2c-3.3,0-5,2.5-5.2,4.4h10.4
				C163.9,22.6,162.7,20.2,158.9,20.2L158.9,20.2z"/>
			<path class="st0" d="M183.4,50.5l16-35.8H191l-5.7,13.9L179,14.7h-8.9L181,37.1l-5.9,13.4H183.4z M210.5,13.9c8,0,13,5,13,13.3
				c0,1.1-0.1,2.3-0.2,2.5h-18c0.2,2.9,2.8,5,5.9,5c2.9,0,4.5-1.4,5.2-3.4l6.6,1.9c-1.3,4.5-5.4,8.3-11.9,8.3
				c-7.1,0-13.5-5.1-13.5-13.8C197.7,19.3,203.9,13.9,210.5,13.9L210.5,13.9z M210.7,20.2c-3.3,0-5,2.5-5.2,4.4h10.4
				C215.7,22.6,214.4,20.2,210.7,20.2z"/>
			<path class="st1" d="M29.3,24.1L29.3,24.1L29,24l-10.4-4.1c-0.3-0.1-0.6-0.2-0.9-0.2c-1.3,0-2.3,1-2.3,2.3c0,0.5,0.2,1,0.5,1.4
				l0,0c0.1,0.1,0.1,0.1,0.2,0.2l7.4,8.5c0.9,1,2.3,1.7,3.8,1.7c2.8,0,5.1-2.2,5.1-5C32.3,26.6,31.1,24.9,29.3,24.1 M25.8,7.1
				c2.3-0.7,4.9,0.5,5.6,2.7c0.8,2.2-0.5,4.6-2.8,5.3s-4.9-0.5-5.6-2.7S23.4,7.8,25.8,7.1 M42.1,9.8c-0.3-0.5-0.8-0.8-1.4-0.9l0,0
				l-2-0.5c0-0.1,0-0.2-0.1-0.3c-2.1-6.2-9-9.6-15.4-7.5C19.9,1.7,17.4,4,16,6.8l-3.7,5.8L3.6,9.2l0,0C3.1,9,2.4,8.9,1.8,9.1
				c-1.3,0.4-2.1,1.8-1.6,3.1c0.1,0.2,0.2,0.4,0.3,0.5l0,0l9.1,12l0,0l0,0l6.5,9.1c2.8,5.1,9,8.1,14.9,6.2c6.4-2,9.8-8.7,7.7-15
				c-0.7-1.9-1.8-3.6-3.2-4.9c1.8-1.7,3-3.9,3.5-6.3l2-0.6l0,0c0.2-0.1,0.3-0.1,0.5-0.3C42.6,12.3,42.9,10.8,42.1,9.8"/>
		</g>
	</g>
</g>
</svg>
