<?xml version="1.0" encoding="utf-8"?>
<!-- Generator: Adobe Illustrator 24.2.1, SVG Export Plug-In . SVG Version: 6.00 Build 0)  -->
<svg version="1.1" id="Layer_1" xmlns="http://www.w3.org/2000/svg" xmlns:xlink="http://www.w3.org/1999/xlink" x="0px" y="0px"
	 viewBox="0 0 359.7 359.7" style="enable-background:new 0 0 359.7 359.7;" xml:space="preserve">
<path d="M0,359.7c0-4,0-7.7,0-11.7c9.9,0,19.6,0,29.8,0c0-1.8,0-3.4,0-5c0-83.4,0-166.8,0-250.2c0-7.4,1.6-9,9-9
	c4.6,0,9.2,0,13.9-0.1c0.2,0,0.5-0.1,1.1-0.3c0-3.7,0-7.5,0-11.4c4.1,0,7.8,0,11.9,0c0,3.8,0,7.6,0,11.6c4.1,0,7.8,0,11.9,0
	c0-7.7,0-15.5,0-23.5c4.2,0,8,0,12.1,0c0,7.8,0,15.5,0,23.8c5.5,0,10.6,0,15.8,0c6.4,0,8.3,1.9,8.3,8.2c0,8.9,0,17.8,0.1,26.6
	c0,0.2,0.1,0.5,0.3,1.1c3.8,0,7.7,0,11.8,0c0,4.1,0,7.8,0,12c-4,0-7.9,0-12,0c0,72.2,0,143.9,0,215.9c15.8,0,31.6,0,47.8,0
	c0-3.7,0-7.4,0-11.1c0-6-0.1-12,0-18c0.1-4.3,2.3-6.6,6.5-6.6c7.6-0.1,15.3-0.1,22.9,0c4.4,0,6.6,2.3,6.6,6.8c0.1,8.4,0,16.8,0,25.1
	c0,1.2,0,2.4,0,3.8c16.1,0,31.8,0,47.7,0c0-71.8,0-143.6,0-215.8c-27.8,0-55.6,0-83.6,0c0-4.2,0-7.9,0-12c3.9,0,7.6,0,11.9,0
	c0-1.7,0-3.1,0-4.6c0-27.8,0-55.5,0-83.3c0-6.4,1.8-8.3,8.2-8.3c15.8,0,31.5,0,47.3,0c1.4,0,2.7,0,4.5,0c0-8,0-15.8,0-23.8
	c4.1,0,7.8,0,11.9,0c0,7.7,0,15.5,0,23.6c4.2,0,8,0,12.1,0c0-3.8,0-7.5,0-11.5c4.1,0,7.9,0,12.1,0c0,3.8,0,7.6,0,11.7
	c9.4,0,18.3,0,27.3,0c7.1,0,8.7,1.7,8.7,8.9c0,51.4,0,102.8,0,154.2c0,1.5,0,3,0,5c5.5,0,10.8,0,16.1,0c5.9,0,7.9,2,7.9,7.9
	c0,47.8,0,95.5,0,143.3c0,1.5,0,3,0,4.8c10.1,0,19.9,0,29.8,0c0,4.1,0,7.8,0,11.8C239.9,359.7,120.1,359.7,0,359.7z M101.6,347.8
	c0-84.1,0-167.9,0-251.7c-20,0-39.8,0-59.5,0c0,84.1,0,167.9,0,251.6c8,0,15.7,0,23.8,0c0-6,0-11.8,0-17.5c4.2,0,8,0,12.1,0
	c0,6,0,11.7,0,17.6C85.9,347.8,93.6,347.8,101.6,347.8z M282,180c0,4.1,0,7.9,0,11.6c4.1,0,7.9,0,11.5,0c0-52.1,0-103.9,0-155.6
	c-36,0-71.7,0-107.5,0c0,28,0,55.8,0,83.8c1.6,0,3,0,4.3,0c19.4,0,38.8,0,58.1,0c7.8,0,9.3,1.5,9.3,9.5c0,19.5,0,39,0,58.5
	c0,1.3,0,2.6,0,3.8c4.3,0,8,0,12.1,0c0-4,0-7.8,0-11.6C274.1,180,277.8,180,282,180z M317.6,347.8c0-48.1,0-95.9,0-143.6
	c-20,0-39.8,0-59.5,0c0,48.1,0,95.8,0,143.6c8,0,15.7,0,23.8,0c0-6,0-11.8,0-17.5c4.2,0,8,0,12,0c0,6,0,11.7,0,17.6
	C302,347.8,309.7,347.8,317.6,347.8z M174.1,324.1c0,8.1,0,15.9,0,23.5c4.1,0,7.8,0,11.5,0c0-8,0-15.7,0-23.5
	C181.8,324.1,178.1,324.1,174.1,324.1z"/>
<path d="M137.6,185.7c-4,0-7.7,0-11.6,0c0-5.9,0-11.6,0-17.5c3.7,0,7.5,0,11.6,0C137.6,173.9,137.6,179.6,137.6,185.7z"/>
<path d="M150.1,168c3.9,0,7.6,0,11.5,0c0,5.9,0,11.7,0,17.7c-3.8,0-7.5,0-11.5,0C150.1,179.9,150.1,174.2,150.1,168z"/>
<path d="M174.1,168c3.9,0,7.5,0,11.5,0c0,5.8,0,11.6,0,17.6c-3.7,0-7.5,0-11.5,0C174.1,179.8,174.1,174,174.1,168z"/>
<path d="M209.6,185.7c-4,0-7.7,0-11.5,0c0-5.9,0-11.6,0-17.5c3.7,0,7.5,0,11.5,0C209.6,173.9,209.6,179.6,209.6,185.7z"/>
<path d="M222,185.7c0-5.9,0-11.6,0-17.6c3.8,0,7.6,0,11.6,0c0,5.8,0,11.6,0,17.6C229.8,185.7,226.1,185.7,222,185.7z"/>
<path d="M137.6,215.8c-4,0-7.6,0-11.5,0c0-5.8,0-11.6,0-17.7c3.7,0,7.4,0,11.5,0C137.6,203.9,137.6,209.7,137.6,215.8z"/>
<path d="M161.6,215.7c-4,0-7.6,0-11.5,0c0-5.9,0-11.5,0-17.5c3.7,0,7.5,0,11.5,0C161.6,203.9,161.6,209.6,161.6,215.7z"/>
<path d="M174,215.7c0-5.9,0-11.6,0-17.5c3.8,0,7.6,0,11.6,0c0,5.8,0,11.5,0,17.5C181.8,215.7,178.2,215.7,174,215.7z"/>
<path d="M198.1,198c3.9,0,7.6,0,11.5,0c0,5.8,0,11.6,0,17.6c-3.8,0-7.6,0-11.5,0C198.1,209.9,198.1,204.2,198.1,198z"/>
<path d="M222.1,198c4,0,7.6,0,11.5,0c0,5.8,0,11.6,0,17.7c-3.7,0-7.4,0-11.5,0C222.1,209.8,222.1,204.1,222.1,198z"/>
<path d="M137.7,228.1c0,5.8,0,11.5,0,17.5c-3.7,0-7.5,0-11.6,0c0-5.7,0-11.5,0-17.5C129.9,228.1,133.7,228.1,137.7,228.1z"/>
<path d="M150.1,228c4,0,7.6,0,11.5,0c0,5.8,0,11.6,0,17.7c-3.7,0-7.4,0-11.5,0C150.1,239.9,150.1,234.1,150.1,228z"/>
<path d="M185.7,228.1c0,5.8,0,11.5,0,17.5c-3.7,0-7.5,0-11.6,0c0-5.7,0-11.5,0-17.5C177.9,228.1,181.7,228.1,185.7,228.1z"/>
<path d="M198.2,228c3.9,0,7.6,0,11.5,0c0,5.9,0,11.7,0,17.7c-3.8,0-7.5,0-11.5,0C198.2,240,198.2,234.2,198.2,228z"/>
<path d="M233.7,245.7c-3.9,0-7.6,0-11.5,0c0-5.8,0-11.6,0-17.6c3.8,0,7.6,0,11.5,0C233.7,233.9,233.7,239.6,233.7,245.7z"/>
<path d="M137.7,275.8c-3.9,0-7.6,0-11.6,0c0-5.9,0-11.6,0-17.6c3.8,0,7.6,0,11.6,0C137.7,264,137.7,269.7,137.7,275.8z"/>
<path d="M161.8,258.1c0,5.9,0,11.5,0,17.5c-3.8,0-7.6,0-11.7,0c0-5.6,0-11.4,0-17.5C153.9,258.1,157.7,258.1,161.8,258.1z"/>
<path d="M185.7,275.7c-3.9,0-7.6,0-11.5,0c0-5.8,0-11.6,0-17.6c3.8,0,7.6,0,11.5,0C185.7,263.9,185.7,269.6,185.7,275.7z"/>
<path d="M198.2,258c3.8,0,7.5,0,11.5,0c0,5.9,0,11.7,0,17.7c-3.8,0-7.5,0-11.5,0C198.2,270,198.2,264.2,198.2,258z"/>
<path d="M222,275.7c0-5.9,0-11.6,0-17.6c3.8,0,7.6,0,11.6,0c0,5.8,0,11.6,0,17.6C229.8,275.7,226.1,275.7,222,275.7z"/>
<path d="M149.5,131.7c-3.7,0-7.1,0-10.9,0c0-3.8,0-7.6,0-11.6c3.6,0,7.1,0,10.9,0C149.5,123.9,149.5,127.6,149.5,131.7z"/>
<path d="M65.7,125.7c-3.9,0-7.6,0-11.6,0c0-5.9,0-11.6,0-17.6c3.8,0,7.6,0,11.6,0C65.7,113.9,65.7,119.6,65.7,125.7z"/>
<path d="M78,125.6c0-5.9,0-11.6,0-17.5c3.9,0,7.7,0,11.7,0c0,5.8,0,11.5,0,17.5C85.9,125.6,82.1,125.6,78,125.6z"/>
<path d="M65.6,155.7c-4,0-7.6,0-11.5,0c0-5.9,0-11.5,0-17.5c3.7,0,7.5,0,11.5,0C65.6,143.8,65.6,149.6,65.6,155.7z"/>
<path d="M78,138c3.9,0,7.6,0,11.6,0c0,5.9,0,11.6,0,17.6c-3.8,0-7.6,0-11.6,0C78,149.8,78,144.1,78,138z"/>
<path d="M54,168.1c3.8,0,7.5,0,11.5,0c0,5.7,0,11.5,0,17.6c-3.7,0-7.5,0-11.5,0C54,179.8,54,174,54,168.1z"/>
<path d="M77.9,185.6c0-5.9,0-11.5,0-17.4c3.8,0,7.6,0,11.7,0c0,5.7,0,11.5,0,17.4C85.7,185.6,81.8,185.6,77.9,185.6z"/>
<path d="M65.7,198.1c0,5.9,0,11.6,0,17.5c-3.8,0-7.6,0-11.6,0c0-5.7,0-11.5,0-17.5C57.8,198.1,61.5,198.1,65.7,198.1z"/>
<path d="M78,215.7c0-5.9,0-11.6,0-17.5c3.8,0,7.6,0,11.6,0c0,5.8,0,11.5,0,17.5C85.8,215.7,82.1,215.7,78,215.7z"/>
<path d="M65.6,245.7c-4,0-7.7,0-11.6,0c0-5.9,0-11.6,0-17.5c3.7,0,7.5,0,11.6,0C65.6,233.9,65.6,239.7,65.6,245.7z"/>
<path d="M78.1,228c4,0,7.6,0,11.5,0c0,5.8,0,11.6,0,17.7c-3.7,0-7.4,0-11.5,0C78.1,239.9,78.1,234.1,78.1,228z"/>
<path d="M89.6,275.7c-3.9,0-7.5,0-11.5,0c0-5.8,0-11.6,0-17.6c3.7,0,7.5,0,11.5,0C89.6,264,89.6,269.8,89.6,275.7z"/>
<path d="M54,275.7c0-5.9,0-11.6,0-17.5c3.8,0,7.6,0,11.6,0c0,5.8,0,11.6,0,17.5C61.8,275.7,58.1,275.7,54,275.7z"/>
<path d="M54.1,288c4,0,7.6,0,11.5,0c0,5.8,0,11.6,0,17.7c-3.7,0-7.4,0-11.5,0C54.1,299.9,54.1,294.1,54.1,288z"/>
<path d="M78,305.7c0-5.9,0-11.6,0-17.6c3.8,0,7.6,0,11.6,0c0,5.8,0,11.6,0,17.6C85.8,305.7,82.1,305.7,78,305.7z"/>
<path d="M257.6,77.7c-3.9,0-7.6,0-11.5,0c0-5.9,0-11.7,0-17.7c3.8,0,7.5,0,11.5,0C257.6,65.7,257.6,71.5,257.6,77.7z"/>
<path d="M281.6,77.7c-3.9,0-7.5,0-11.5,0c0-5.8,0-11.6,0-17.7c3.6,0,7.4,0,11.5,0C281.6,65.8,281.6,71.6,281.6,77.7z"/>
<path d="M209.7,90.1c0,5.9,0,11.6,0,17.5c-3.8,0-7.5,0-11.5,0c0-5.7,0-11.5,0-17.5C201.8,90.1,205.6,90.1,209.7,90.1z"/>
<path d="M233.7,107.7c-3.9,0-7.6,0-11.5,0c0-5.8,0-11.6,0-17.6c3.8,0,7.6,0,11.5,0C233.7,95.9,233.7,101.5,233.7,107.7z"/>
<path d="M246.1,89.9c4,0,7.6,0,11.5,0c0,5.8,0,11.6,0,17.7c-3.7,0-7.4,0-11.5,0C246.1,101.8,246.1,96,246.1,89.9z"/>
<path d="M270.1,90c3.9,0,7.6,0,11.5,0c0,5.8,0,11.6,0,17.6c-3.8,0-7.6,0-11.5,0C270.1,101.8,270.1,96.1,270.1,90z"/>
<path d="M270.1,120c3.9,0,7.6,0,11.5,0c0,5.8,0,11.5,0,17.5c-3.7,0-7.5,0-11.5,0C270.1,131.9,270.1,126.1,270.1,120z"/>
<path d="M281.7,150.2c0,5.9,0,11.5,0,17.5c-3.9,0-7.7,0-11.7,0c0-5.8,0-11.5,0-17.5C273.8,150.2,277.6,150.2,281.7,150.2z"/>
<path d="M209.6,77.7c-3.9,0-7.5,0-11.5,0c0-5.8,0-11.6,0-17.7c3.6,0,7.4,0,11.5,0C209.6,65.8,209.6,71.6,209.6,77.7z"/>
<path d="M233.6,77.7c-3.9,0-7.6,0-11.5,0c0-5.9,0-11.7,0-17.7c3.8,0,7.5,0,11.5,0C233.6,65.7,233.6,71.5,233.6,77.7z"/>
<path d="M270.1,228.1c3.9,0,7.6,0,11.5,0c0,5.8,0,11.6,0,17.6c-3.7,0-7.5,0-11.5,0C270.1,239.8,270.1,234,270.1,228.1z"/>
<path d="M294.2,228c3.8,0,7.5,0,11.5,0c0,5.9,0,11.7,0,17.7c-3.8,0-7.5,0-11.5,0C294.2,240,294.2,234.2,294.2,228z"/>
<path d="M294.1,258.1c4,0,7.7,0,11.6,0c0,5.9,0,11.6,0,17.5c-3.8,0-7.5,0-11.6,0C294.1,269.9,294.1,264.1,294.1,258.1z"/>
<path d="M270.1,288.1c3.9,0,7.6,0,11.5,0c0,5.9,0,11.5,0,17.5c-3.7,0-7.5,0-11.5,0C270.1,300,270.1,294.2,270.1,288.1z"/>
<path d="M294,305.7c0-6,0-11.7,0-17.6c3.9,0,7.6,0,11.5,0c0,5.7,0,11.5,0,17.6C301.9,305.7,298.1,305.7,294,305.7z"/>
<path d="M281.7,258.1c0,5.9,0,11.6,0,17.6c-3.8,0-7.6,0-11.6,0c0-5.8,0-11.6,0-17.6C273.9,258.1,277.6,258.1,281.7,258.1z"/>
</svg>
