<?xml version="1.0" encoding="utf-8"?>
<!-- Generator: Adobe Illustrator 24.2.1, SVG Export Plug-In . SVG Version: 6.00 Build 0)  -->
<svg version="1.1" id="Layer_2" xmlns="http://www.w3.org/2000/svg" xmlns:xlink="http://www.w3.org/1999/xlink" x="0px" y="0px"
	 viewBox="0 0 3127.3 2189" style="enable-background:new 0 0 3127.3 2189;" xml:space="preserve">
<style type="text/css">
	.st0{fill:#102037;}
	.st1{fill:#51AD5B;}
	.st2{fill:#FFFFFF;}
	.st3{fill:#F9F9F9;}
	.st4{fill:#E6E6E6;}
	.st5{fill:#241C1C;}
	.st6{fill:#FFB380;}
	.st7{fill:#FF6600;}
	.st8{fill:#D45500;}
	.st9{fill:#FF9955;}
	.st10{fill:#FF5555;}
	.st11{fill:#6D6E71;}
	.st12{fill:#821D15;}
	.st13{fill:#A7A9AC;}
</style>
<g>
	<g>
		<path class="st0" d="M2384.6,534.9c-0.8,0-1.6,0.4-1.9,1.2l-0.9,2.1c-0.2,0.5-0.2,1,0,1.5c0.2,0.5,0.6,0.9,1.1,1.1
			c1,0.4,2.1-0.1,2.5-1l0.9-2.1c0.4-1-0.1-2.1-1-2.5C2385,535,2384.8,534.9,2384.6,534.9z M2374.2,558.3c-0.7,0.1-1.3,0.5-1.6,1.1
			c-3.2,7.1-6.5,14-10,21c-0.2,0.5-0.3,1-0.1,1.5s0.5,0.9,1,1.1c1,0.5,2.1,0.1,2.6-0.9c3.5-7,6.8-14,10.1-21.1
			c0.2-0.5,0.2-1,0.1-1.5s-0.6-0.9-1-1.1C2374.8,558.4,2374.5,558.3,2374.2,558.3z M2353.5,600c-0.7,0-1.4,0.4-1.7,1
			c-3.7,6.8-7.6,13.5-11.6,20.1c-0.3,0.4-0.3,1-0.2,1.5c0.1,0.5,0.4,0.9,0.9,1.2c0.9,0.6,2.1,0.3,2.7-0.6
			c4.1-6.7,7.9-13.4,11.7-20.3c0.2-0.5,0.3-1,0.2-1.5c-0.1-0.5-0.5-0.9-0.9-1.2C2354.1,600.1,2353.8,600,2353.5,600z M2329.1,639.9
			c-0.6,0-1.1,0.4-1.5,0.9c-4.3,6.4-8.9,12.7-13.5,18.8c-0.6,0.9-0.5,2.1,0.4,2.7c0.9,0.6,2.1,0.5,2.7-0.4c4.7-6.2,9.3-12.6,13.7-19
			c0.3-0.4,0.4-1,0.3-1.5c-0.1-0.5-0.4-1-0.8-1.2C2329.9,639.9,2329.5,639.8,2329.1,639.9z M2301,676.9c-0.6,0-1.2,0.2-1.5,0.7
			c-5,5.9-10.3,11.5-15.7,17c-0.8,0.8-0.7,2,0,2.7c0.8,0.8,2,0.7,2.7,0c5.5-5.6,10.8-11.3,15.9-17.2c0.3-0.4,0.5-0.9,0.5-1.4
			s-0.3-1-0.7-1.3C2301.9,677.1,2301.5,676.9,2301,676.9z M2268.2,710c-0.5,0-0.9,0.2-1.3,0.5c-5.8,5.1-11.8,9.9-18,14.5
			c-0.4,0.3-0.7,0.8-0.8,1.3c-0.1,0.5,0.1,1,0.4,1.4c0.3,0.4,0.8,0.7,1.3,0.8c0.5,0.1,1-0.1,1.4-0.4c6.3-4.7,12.4-9.6,18.3-14.7
			c0.8-0.7,0.9-1.9,0.2-2.7C2269.2,710.2,2268.7,710,2268.2,710z M2230.7,737.7c-0.4,0-0.7,0.1-1,0.3c-6.6,4.1-13.3,7.9-20.1,11.4
			c-0.5,0.2-0.8,0.6-1,1.1s-0.1,1,0.1,1.5c0.5,0.9,1.7,1.3,2.6,0.8c7-3.6,13.8-7.4,20.4-11.6c0.9-0.6,1.2-1.8,0.6-2.7
			C2232,738.1,2231.4,737.7,2230.7,737.7z M2189.3,759.1c-0.3,0-0.5,0.1-0.7,0.2c-7.1,3-14.4,5.7-21.7,8.1c-0.5,0.2-0.9,0.5-1.1,1
			c-0.2,0.5-0.3,1-0.1,1.5c0.2,0.5,0.5,0.9,1,1.1c0.5,0.2,1,0.3,1.5,0.1c7.4-2.5,14.8-5.2,22-8.2c0.5-0.2,0.9-0.6,1.1-1.1
			c0.2-0.5,0.2-1,0-1.5C2190.8,759.5,2190.1,759,2189.3,759.1z M2145.1,773.8c-0.1,0-0.3,0-0.4,0.1c-7.5,1.9-15,3.6-22.6,5.1
			c-1.1,0.2-1.7,1.2-1.5,2.3c0.1,0.5,0.4,1,0.8,1.2c0.4,0.3,1,0.4,1.5,0.3c7.7-1.5,15.3-3.2,22.8-5.2c0.5-0.1,0.9-0.5,1.2-0.9
			s0.3-1,0.2-1.5C2146.8,774.4,2146,773.7,2145.1,773.8z M2099.2,782.9c0,0-0.1,0-0.1,0c-7.7,1.2-15.3,2.1-23,3
			c-0.5,0.1-1,0.3-1.3,0.7c-0.3,0.4-0.5,0.9-0.4,1.4c0.1,0.5,0.3,1,0.7,1.3c0.4,0.3,0.9,0.5,1.4,0.4c7.7-0.9,15.5-1.9,23.2-3
			c1.1-0.2,1.8-1.1,1.6-2.2C2101.2,783.6,2100.3,782.8,2099.2,782.9z M2053,788.2c0,0-0.1,0-0.1,0c-7.7,0.7-15.5,1.3-23.2,1.9
			c-1.1,0.1-1.9,1-1.8,2.1c0.1,1.1,1,1.9,2.1,1.8c7.8-0.6,15.5-1.2,23.3-1.9c0.5,0,1-0.3,1.3-0.7c0.3-0.4,0.5-0.9,0.4-1.4
			C2054.9,789,2054.1,788.2,2053,788.2z M2006.5,792c-7.8,0.6-15.5,1.3-23.3,2.1c-0.5,0.1-1,0.3-1.3,0.7c-0.3,0.4-0.5,0.9-0.4,1.4
			c0.1,1.1,1.1,1.8,2.1,1.7c7.7-0.8,15.4-1.4,23.2-2.1c0.5,0,1-0.3,1.3-0.7c0.3-0.4,0.5-0.9,0.5-1.4c0-0.5-0.3-1-0.7-1.3
			C2007.5,792.1,2007,792,2006.5,792z M1960.1,796.8c0,0-0.1,0-0.1,0c-7.7,1-15.5,2.3-23.1,3.7c-1.1,0.2-1.7,1.2-1.5,2.3
			c0.2,1.1,1.2,1.7,2.3,1.5c7.6-1.5,15.2-2.7,22.9-3.7c0.5-0.1,1-0.3,1.3-0.7s0.5-0.9,0.4-1.4C1962,797.4,1961.1,796.7,1960.1,796.8
			z M1914.4,805.8c-0.1,0-0.3,0-0.4,0.1c-7.6,2.1-15,4.5-22.3,7.3c-0.5,0.2-0.9,0.6-1.1,1s-0.2,1,0,1.5c0.2,0.5,0.6,0.9,1,1.1
			c0.5,0.2,1,0.2,1.5,0c7.2-2.8,14.5-5.1,22-7.2c1-0.3,1.6-1.3,1.4-2.4C1916.1,806.3,1915.3,805.7,1914.4,805.8z M1871.3,822.6
			c-0.4,0-0.7,0.1-1,0.2c-6.9,3.7-13.6,7.8-20,12.4c-0.4,0.3-0.7,0.8-0.8,1.3s0,1,0.3,1.4c0.6,0.9,1.8,1.1,2.7,0.4
			c6.2-4.5,12.8-8.5,19.6-12.1c0.9-0.5,1.3-1.7,0.8-2.6C1872.5,823,1871.9,822.7,1871.3,822.6z M1833.3,849.7
			c-0.5,0-0.9,0.2-1.3,0.5c-5.7,5.4-11,11.2-16,17.3c-0.7,0.8-0.6,2.1,0.3,2.7c0.8,0.7,2.1,0.6,2.7-0.3c4.9-6,10.1-11.6,15.6-16.9
			c0.4-0.4,0.6-0.8,0.6-1.4c0-0.5-0.2-1-0.5-1.4C1834.4,849.9,1833.9,849.7,1833.3,849.7z"/>
		<path class="st0" d="M2454.9,816.9c-0.6,0-1.1,0.3-1.5,0.8c-3,4.1-6,8.1-9,12.1c-0.3,0.4-0.5,0.9-0.4,1.4c0.1,0.5,0.3,1,0.8,1.3
			c0.9,0.6,2.1,0.5,2.7-0.4c3.1-4,6.1-8.1,9.1-12.2c0.3-0.4,0.4-0.9,0.4-1.4c-0.1-0.5-0.4-1-0.8-1.3
			C2455.8,817,2455.4,816.9,2454.9,816.9z M2431.4,847.3c-0.6,0-1.2,0.2-1.5,0.7c-4.9,6-10,11.8-15.3,17.5c-0.3,0.4-0.5,0.9-0.5,1.4
			s0.2,1,0.6,1.3c0.4,0.3,0.9,0.5,1.4,0.5c0.5,0,1-0.2,1.3-0.6c5.3-5.8,10.4-11.7,15.4-17.7c0.7-0.8,0.6-2-0.3-2.7
			C2432.3,847.4,2431.9,847.3,2431.4,847.3z M2399.8,881.7c-0.5,0-0.9,0.2-1.3,0.6c-5.5,5.4-11.1,10.7-16.9,15.8
			c-0.8,0.7-0.9,1.9-0.2,2.7c0.7,0.8,1.9,0.9,2.7,0.2c5.9-5.2,11.6-10.5,17.1-16c0.4-0.4,0.6-0.9,0.6-1.4c0-0.5-0.2-1-0.6-1.4
			C2400.9,881.8,2400.4,881.6,2399.8,881.7z M2364.8,912.5c-0.4,0-0.7,0.2-1,0.4c-6.1,4.8-12.3,9.3-18.7,13.7
			c-0.4,0.3-0.7,0.7-0.8,1.2c-0.1,0.5,0,1,0.3,1.5c0.3,0.4,0.7,0.7,1.2,0.8s1,0,1.5-0.3c6.5-4.4,12.8-9,18.9-13.8
			c0.4-0.3,0.7-0.8,0.7-1.3s-0.1-1-0.4-1.4C2366.1,912.7,2365.4,912.4,2364.8,912.5z M2326.5,938.6c-0.4,0-0.7,0.1-1,0.3
			c-6.7,3.9-13.5,7.5-20.4,10.9c-1,0.5-1.4,1.6-0.9,2.6c0.5,1,1.6,1.4,2.6,0.9c7-3.4,13.9-7.1,20.7-11.1c0.9-0.5,1.2-1.7,0.7-2.7
			C2327.8,939,2327.1,938.7,2326.5,938.6z M2284.6,959c-0.3,0-0.5,0-0.7,0.1c-7.2,2.9-14.5,5.5-21.8,7.8c-1,0.3-1.6,1.4-1.3,2.4
			c0.3,1,1.4,1.6,2.4,1.3c7.5-2.3,14.8-5,22.1-7.9c0.5-0.2,0.9-0.6,1.1-1c0.2-0.5,0.2-1,0-1.5C2286,959.5,2285.3,959,2284.6,959z
			 M2240.1,973.1c-0.1,0-0.3,0-0.4,0c-7.5,1.8-15.1,3.3-22.7,4.6c-1.1,0.2-1.8,1.2-1.6,2.2c0.1,0.5,0.4,1,0.8,1.3
			c0.4,0.3,0.9,0.4,1.5,0.3c7.7-1.3,15.4-2.9,23-4.7c1-0.2,1.7-1.3,1.4-2.3C2241.8,973.7,2241,973.1,2240.1,973.1z M1984.5,978.1
			c-0.5,0-1,0.2-1.4,0.6c-0.4,0.4-0.6,0.9-0.5,1.4c0,0.5,0.2,1,0.6,1.4c0.4,0.4,0.9,0.6,1.4,0.5c7.7-0.1,15.5,0,23.2,0.2
			c0.5,0,1-0.2,1.4-0.5c0.4-0.4,0.6-0.8,0.6-1.4c0-1.1-0.8-2-1.9-2C2000.1,978,1992.3,977.9,1984.5,978.1z M1961.1,979
			c-7.8,0.5-15.6,1.3-23.3,2.5c-1.1,0.2-1.8,1.1-1.6,2.2c0.2,1.1,1.1,1.8,2.2,1.6c7.6-1.1,15.3-1.9,23-2.4c0.5,0,1-0.3,1.3-0.7
			c0.3-0.4,0.5-0.9,0.5-1.4c0-0.5-0.3-1-0.7-1.3C1962.2,979.1,1961.7,979,1961.1,979z M2031.3,979.1c-0.5,0-1,0.2-1.4,0.5
			c-0.4,0.3-0.6,0.8-0.6,1.3c0,0.5,0.2,1,0.5,1.4s0.8,0.6,1.3,0.6c7.8,0.4,15.5,0.8,23.3,1.2c1.1,0.1,2-0.8,2-1.8
			c0.1-1.1-0.8-2-1.8-2C2046.8,979.9,2039,979.4,2031.3,979.1z M2194.1,980.9c0,0-0.1,0-0.1,0c-7.7,0.8-15.4,1.5-23.1,1.9
			c-0.5,0-1,0.3-1.3,0.6c-0.3,0.4-0.5,0.9-0.5,1.4c0,0.5,0.3,1,0.6,1.3c0.4,0.3,0.9,0.5,1.4,0.5c7.8-0.4,15.6-1.1,23.3-1.9
			c0.5-0.1,1-0.3,1.3-0.7c0.3-0.4,0.5-0.9,0.4-1.4C2196,981.6,2195.1,980.9,2194.1,980.9z M2077.5,981.7c-0.9,0.1-1.7,0.9-1.7,1.8
			c-0.1,1.1,0.8,2,1.8,2c7.8,0.4,15.5,0.8,23.3,1.2c0.5,0,1-0.2,1.4-0.5c0.4-0.3,0.6-0.8,0.6-1.3c0-0.5-0.2-1-0.5-1.4
			c-0.4-0.4-0.8-0.6-1.4-0.6c-7.8-0.3-15.5-0.7-23.3-1.2C2077.7,981.7,2077.6,981.7,2077.5,981.7z M2124.4,983.6
			c-1.1,0-1.9,0.8-2,1.9c0,0.5,0.2,1,0.5,1.4c0.4,0.4,0.8,0.6,1.4,0.6c7.8,0.2,15.6,0.2,23.4,0.1c0.5,0,1-0.2,1.4-0.6
			c0.4-0.4,0.6-0.9,0.5-1.4s-0.2-1-0.6-1.4c-0.4-0.4-0.9-0.6-1.4-0.5C2139.9,983.8,2132.1,983.7,2124.4,983.6z M1915.2,985.8
			c-0.1,0-0.3,0-0.4,0.1c-7.6,1.8-15.2,4.1-22.5,6.8c-1,0.4-1.5,1.5-1.2,2.5c0.4,1,1.5,1.5,2.5,1.2c7.2-2.6,14.6-4.8,22.1-6.6
			c0.5-0.1,0.9-0.4,1.2-0.9s0.3-1,0.2-1.5C1916.9,986.4,1916.1,985.8,1915.2,985.8z M1871.4,1001.8c-0.3,0-0.5,0.1-0.7,0.2
			c-7,3.6-13.8,7.6-20.3,12c-0.4,0.3-0.7,0.7-0.8,1.2s0,1,0.3,1.5c0.3,0.4,0.7,0.7,1.2,0.8s1,0,1.5-0.3c6.4-4.3,13-8.3,19.8-11.7
			c1-0.5,1.3-1.7,0.8-2.6C1872.9,1002.1,1872.1,1001.7,1871.4,1001.8z M1833.1,1027.9c-0.5,0-0.9,0.2-1.3,0.5
			c-5.9,5.2-11.5,10.7-16.8,16.5c-0.3,0.4-0.5,0.9-0.5,1.4s0.2,1,0.6,1.3c0.4,0.3,0.9,0.5,1.4,0.5s1-0.2,1.3-0.6
			c5.2-5.7,10.7-11.1,16.5-16.2c0.4-0.3,0.6-0.8,0.7-1.3s-0.1-1-0.5-1.4C1834.1,1028.1,1833.6,1027.9,1833.1,1027.9z M1801.4,1062.1
			c-0.6,0-1.1,0.3-1.5,0.8c-4.7,6.2-9.2,12.7-13.4,19.3c-0.6,0.9-0.3,2.1,0.6,2.7c0.4,0.3,1,0.4,1.5,0.3s0.9-0.4,1.2-0.9
			c4.2-6.5,8.5-12.9,13.2-19c0.6-0.9,0.5-2.1-0.4-2.7C1802.3,1062.2,1801.9,1062.1,1801.4,1062.1z"/>
		<path class="st0" d="M1802.7,1145.3c-7.8-0.1-15.6,0.1-23.4,0.5c-0.5,0-1,0.3-1.3,0.6c-0.3,0.4-0.5,0.9-0.5,1.4
			c0,0.5,0.3,1,0.6,1.3c0.4,0.3,0.9,0.5,1.4,0.5c7.7-0.4,15.4-0.6,23.2-0.5c0.5,0,1-0.2,1.4-0.6c0.4-0.4,0.6-0.9,0.6-1.4
			c0-0.5-0.2-1-0.6-1.4C1803.7,1145.6,1803.2,1145.4,1802.7,1145.3z M1825.8,1146.3c-0.9,0.1-1.7,0.8-1.8,1.8c0,0.5,0.1,1,0.5,1.4
			c0.3,0.4,0.8,0.6,1.3,0.7c7.7,0.6,15.4,1.4,23.1,2.4c0.5,0.1,1-0.1,1.4-0.4s0.7-0.8,0.7-1.3c0.1-0.5-0.1-1-0.4-1.4
			s-0.8-0.7-1.3-0.7c-7.7-1.1-15.5-1.9-23.3-2.5C1826,1146.3,1825.9,1146.3,1825.8,1146.3z M1872.2,1152.5c-1,0-1.8,0.7-1.9,1.6
			c-0.1,0.5,0,1,0.3,1.5c0.3,0.4,0.7,0.7,1.3,0.8c7.6,1.4,15.2,3,22.7,4.8c1,0.2,2.1-0.4,2.3-1.4c0.2-1-0.4-2.1-1.4-2.3
			c-7.6-1.8-15.2-3.4-22.9-4.9C1872.4,1152.5,1872.3,1152.5,1872.2,1152.5z M2507.6,1154.7c-0.4,0-0.7,0.2-1,0.4
			c-5.8,4.7-11.7,9.3-17.7,13.7c-0.4,0.3-0.7,0.8-0.8,1.3c-0.1,0.5,0.1,1,0.4,1.4c0.6,0.9,1.9,1,2.7,0.4c6-4.5,12-9.1,17.8-13.8
			c0.4-0.3,0.7-0.8,0.7-1.3c0.1-0.5-0.1-1-0.4-1.4C2509,1154.9,2508.3,1154.6,2507.6,1154.7z M1917.4,1163.1
			c-0.8,0.1-1.5,0.6-1.7,1.4c-0.3,1,0.3,2.1,1.4,2.4c7.5,2.1,14.9,4.3,22.3,6.6c0.5,0.2,1,0.1,1.5-0.1c0.5-0.2,0.8-0.7,1-1.2
			c0.2-0.5,0.1-1-0.1-1.5c-0.2-0.5-0.7-0.8-1.1-0.9c-7.4-2.3-14.9-4.5-22.4-6.6C1917.9,1163.1,1917.6,1163.1,1917.4,1163.1z
			 M1962.1,1176.9c-0.8,0-1.6,0.5-1.8,1.3c-0.2,0.5-0.1,1,0.1,1.5c0.2,0.5,0.6,0.8,1.1,1c7.4,2.5,14.7,5,22,7.6
			c1,0.4,2.1-0.2,2.5-1.2c0.2-0.5,0.2-1-0.1-1.5c-0.2-0.5-0.6-0.8-1.1-1c-7.3-2.6-14.7-5.1-22.1-7.6
			C1962.5,1176.9,1962.3,1176.9,1962.1,1176.9z M2471.1,1182c-0.4,0-0.7,0.1-1,0.3c-6.4,4.4-12.9,8.6-19.4,12.7
			c-0.9,0.6-1.2,1.8-0.6,2.7c0.6,0.9,1.8,1.2,2.7,0.6c6.6-4.1,13.2-8.4,19.6-12.8c0.4-0.3,0.7-0.7,0.8-1.2s0-1-0.3-1.5
			C2472.4,1182.3,2471.7,1182,2471.1,1182z M2006.1,1192.4c-0.8,0-1.6,0.5-1.8,1.3c-0.4,1,0.1,2.1,1.2,2.5c7.3,2.6,14.6,5.4,21.9,8
			c1,0.4,2.1-0.1,2.5-1.2c0.4-1-0.1-2.1-1.2-2.5c-7.3-2.7-14.6-5.4-21.9-8C2006.5,1192.4,2006.3,1192.4,2006.1,1192.4z
			 M2431.7,1206.7c-0.4,0-0.7,0.1-1,0.2c-6.8,3.8-13.6,7.4-20.6,10.7c-1,0.5-1.4,1.6-0.9,2.6c0.5,1,1.6,1.4,2.6,0.9
			c7-3.4,13.9-7,20.7-10.8c0.5-0.2,0.8-0.7,0.9-1.2c0.1-0.5,0.1-1-0.2-1.5C2432.9,1207.1,2432.3,1206.7,2431.7,1206.7z
			 M2049.9,1208.4c-0.8,0-1.6,0.5-1.9,1.3c-0.2,0.5-0.2,1,0.1,1.5c0.2,0.5,0.6,0.8,1.1,1c7.3,2.7,14.6,5.3,22,7.9
			c1,0.4,2.1-0.2,2.5-1.2c0.4-1-0.2-2.1-1.2-2.5c-7.3-2.6-14.6-5.2-21.9-7.8C2050.3,1208.5,2050.1,1208.4,2049.9,1208.4z
			 M2093.8,1223.8c-0.8,0-1.6,0.5-1.8,1.3c-0.2,0.5-0.1,1,0.1,1.5c0.2,0.5,0.6,0.8,1.1,1c7.4,2.5,14.8,4.8,22.3,7.1
			c0.5,0.2,1,0.1,1.5-0.1c0.5-0.2,0.8-0.7,0.9-1.2c0.3-1-0.3-2.1-1.3-2.4c-7.4-2.2-14.8-4.6-22.2-7.1
			C2094.3,1223.8,2094.1,1223.8,2093.8,1223.8z M2389.7,1227.1c-0.3,0-0.5,0.1-0.7,0.2c-7.1,3-14.4,5.8-21.7,8.3
			c-0.5,0.2-0.9,0.5-1.1,1c-0.2,0.5-0.3,1-0.1,1.5c0.2,0.5,0.5,0.9,1,1.1c0.5,0.2,1,0.3,1.5,0.1c7.4-2.6,14.7-5.4,21.9-8.4
			c1-0.4,1.4-1.5,1-2.5C2391.1,1227.5,2390.4,1227.1,2389.7,1227.1z M2138.4,1237.4c-0.8,0.1-1.5,0.6-1.7,1.4
			c-0.3,1,0.3,2.1,1.4,2.4c7.5,2,15.1,3.9,22.7,5.7c1,0.2,2.1-0.4,2.3-1.5c0.2-1-0.4-2.1-1.5-2.3c-7.5-1.7-15.1-3.6-22.5-5.6
			C2138.8,1237.4,2138.6,1237.3,2138.4,1237.4z M2345.5,1242.3c-0.1,0-0.3,0-0.4,0.1c-7.4,2.1-15,3.9-22.5,5.4
			c-0.5,0.1-0.9,0.4-1.2,0.8s-0.4,1-0.3,1.5c0.1,0.5,0.4,0.9,0.8,1.2c0.4,0.3,1,0.4,1.5,0.3c7.7-1.6,15.3-3.4,22.8-5.4
			c0.5-0.1,0.9-0.5,1.2-0.9c0.3-0.5,0.3-1,0.2-1.5C2347.3,1242.9,2346.5,1242.3,2345.5,1242.3z M2184,1247.7c-1,0-1.8,0.7-1.9,1.6
			c-0.1,0.5,0,1,0.3,1.5c0.3,0.4,0.7,0.7,1.3,0.8c7.7,1.4,15.4,2.6,23.1,3.6c0.5,0.1,1-0.1,1.4-0.4c0.4-0.3,0.7-0.8,0.7-1.3
			c0.1-0.5-0.1-1-0.4-1.4c-0.3-0.4-0.8-0.7-1.3-0.7c-7.7-1-15.3-2.2-22.9-3.6C2184.2,1247.7,2184.1,1247.7,2184,1247.7z
			 M2299.8,1251.6c0,0-0.1,0-0.1,0c-7.7,1-15.4,1.7-23.1,2.2c-0.5,0-1,0.3-1.3,0.7c-0.3,0.4-0.5,0.9-0.5,1.4c0,0.5,0.3,1,0.7,1.3
			c0.4,0.3,0.9,0.5,1.4,0.5c7.8-0.5,15.6-1.2,23.3-2.3c1.1-0.1,1.8-1.1,1.7-2.2C2301.8,1252.3,2300.9,1251.5,2299.8,1251.6z
			 M2230,1253.6c-0.9,0.1-1.7,0.8-1.7,1.8c-0.1,1.1,0.7,2,1.8,2.1c7.8,0.5,15.6,0.8,23.4,0.9c0.5,0,1-0.2,1.4-0.6s0.6-0.9,0.6-1.4
			c0-0.5-0.2-1-0.6-1.4s-0.9-0.6-1.4-0.6c-7.7,0-15.5-0.3-23.2-0.9C2230.2,1253.6,2230.1,1253.6,2230,1253.6z"/>
		<path class="st0" d="M1764.6,1272.2c-0.9,0.1-1.7,0.8-1.8,1.7c-0.1,0.5,0.1,1,0.4,1.4c0.3,0.4,0.8,0.7,1.3,0.7
			c7.6,0.8,15.2,2.1,22.7,3.9c0.5,0.1,1,0,1.5-0.2c0.4-0.3,0.8-0.7,0.9-1.2c0.2-1-0.4-2.1-1.4-2.3c-7.6-1.8-15.4-3.2-23.2-4
			C1764.8,1272.2,1764.7,1272.2,1764.6,1272.2z M1810,1283c-0.8,0-1.6,0.5-1.9,1.3c-0.4,1,0.1,2.1,1.2,2.5
			c7.2,2.7,14.3,5.7,21.3,9.1c1,0.5,2.1,0.1,2.6-0.9c0.5-1,0.1-2.1-0.9-2.6c-7-3.4-14.3-6.5-21.6-9.2
			C1810.4,1283,1810.2,1283,1810,1283z M1852,1303c-0.7,0-1.4,0.4-1.7,1c-0.3,0.4-0.3,1-0.2,1.5s0.5,0.9,0.9,1.2
			c6.7,3.8,13.3,7.9,19.8,12.1c0.9,0.6,2.1,0.3,2.7-0.6c0.3-0.4,0.4-1,0.3-1.5c-0.1-0.5-0.4-0.9-0.8-1.2c-6.5-4.2-13.2-8.3-20-12.2
			C1852.7,1303.1,1852.3,1303,1852,1303z M1891.1,1328.2c-0.6,0-1.1,0.3-1.5,0.8c-0.3,0.4-0.4,0.9-0.3,1.5s0.4,1,0.8,1.3
			c6.4,4.4,12.7,9,18.9,13.6c0.4,0.3,0.9,0.4,1.4,0.4s1-0.4,1.3-0.8c0.3-0.4,0.4-0.9,0.4-1.4c-0.1-0.5-0.4-1-0.8-1.3
			c-6.3-4.6-12.6-9.2-19-13.6C1892,1328.3,1891.5,1328.2,1891.1,1328.2z M1928.8,1355.7c-0.6,0-1.1,0.3-1.5,0.8
			c-0.6,0.9-0.5,2.1,0.4,2.7c6.2,4.7,12.4,9.4,18.6,14.1c0.9,0.6,2.1,0.5,2.7-0.4c0.6-0.9,0.5-2.1-0.4-2.7
			c-6.2-4.7-12.4-9.4-18.6-14.1C1929.6,1355.8,1929.2,1355.7,1928.8,1355.7z M1966,1383.8c-0.6,0-1.1,0.3-1.5,0.8
			c-0.6,0.9-0.5,2.1,0.4,2.7c6.2,4.7,12.5,9.3,18.8,13.8c0.9,0.6,2.1,0.4,2.7-0.4c0.3-0.4,0.4-0.9,0.4-1.4c-0.1-0.5-0.4-1-0.8-1.3
			c-6.3-4.5-12.5-9.1-18.8-13.8C1966.9,1383.9,1966.5,1383.8,1966,1383.8z M2003.8,1411.1c-0.6,0-1.1,0.3-1.5,0.8
			c-0.3,0.4-0.4,0.9-0.3,1.5c0.1,0.5,0.4,1,0.8,1.2c6.4,4.4,12.9,8.8,19.4,13c0.4,0.3,1,0.4,1.5,0.3c0.5-0.1,0.9-0.4,1.2-0.8
			c0.3-0.4,0.4-1,0.3-1.5c-0.1-0.5-0.4-0.9-0.8-1.2c-6.5-4.2-12.9-8.5-19.3-12.9C2004.6,1411.1,2004.2,1411,2003.8,1411.1z
			 M2043.1,1436.4c-0.7,0-1.4,0.3-1.7,0.9c-0.3,0.4-0.3,1-0.2,1.5s0.4,0.9,0.9,1.2c6.7,4,13.4,7.9,20.3,11.7c0.5,0.2,1,0.3,1.5,0.2
			s0.9-0.5,1.2-0.9c0.2-0.5,0.3-1,0.2-1.5c-0.1-0.5-0.5-0.9-0.9-1.2c-6.8-3.7-13.5-7.6-20.1-11.6
			C2043.7,1436.5,2043.4,1436.4,2043.1,1436.4z M2083.8,1458.8c-0.7,0-1.3,0.4-1.7,1.1c-0.5,1-0.1,2.1,0.9,2.6
			c7,3.5,14.1,6.7,21.3,9.9c1,0.4,2.1,0,2.6-1c0.2-0.5,0.2-1,0-1.5c-0.2-0.5-0.6-0.9-1-1.1c-7.1-3.1-14.1-6.3-21.1-9.8
			C2084.4,1458.9,2084.1,1458.8,2083.8,1458.8z M2126.7,1477.4c-0.8,0-1.6,0.5-1.9,1.3c-0.2,0.5-0.2,1,0,1.5s0.6,0.8,1.1,1
			c7.3,2.7,14.7,5.3,22.2,7.6c1,0.3,2.1-0.3,2.4-1.3c0.3-1-0.3-2.1-1.3-2.4c-7.4-2.3-14.7-4.8-21.9-7.5
			C2127.1,1477.4,2126.9,1477.4,2126.7,1477.4z M2171,1491.2c-0.8,0.1-1.5,0.7-1.7,1.5c-0.3,1,0.4,2.1,1.4,2.4
			c7.6,1.9,15.2,3.6,22.9,5c1.1,0.2,2.1-0.5,2.3-1.5c0.1-0.5,0-1-0.3-1.5s-0.7-0.7-1.2-0.8c-7.6-1.4-15.1-3.1-22.6-5
			C2171.4,1491.2,2171.2,1491.2,2171,1491.2z M2375.7,1492.5c-0.1,0-0.3,0-0.4,0c-6.4,1.3-12.9,2.6-19.4,3.7c-1,0.2-1.8,1.2-1.6,2.2
			c0.2,1.1,1.2,1.8,2.2,1.6c6.5-1.1,13-2.3,19.5-3.7c0.5-0.1,0.9-0.4,1.2-0.8s0.4-1,0.3-1.5
			C2377.4,1493.2,2376.6,1492.5,2375.7,1492.5z M2333.1,1499.6c0,0-0.1,0-0.1,0c-7.7,1-15.4,1.8-23.1,2.4c-0.5,0-1,0.3-1.3,0.7
			c-0.3,0.4-0.5,0.9-0.5,1.4c0.1,1.1,1,1.9,2.1,1.8c7.8-0.6,15.5-1.4,23.3-2.4c0.5-0.1,1-0.3,1.3-0.7c0.3-0.4,0.5-0.9,0.4-1.4
			C2335,1500.3,2334.1,1499.5,2333.1,1499.6z M2216.9,1499.9c-0.9,0-1.7,0.7-1.9,1.7c-0.1,0.5,0.1,1,0.4,1.4s0.8,0.7,1.3,0.7
			c7.7,1,15.5,1.8,23.3,2.4c1.1,0.1,2-0.7,2.1-1.8c0.1-1.1-0.7-2-1.8-2.1c-7.7-0.6-15.4-1.4-23.1-2.4
			C2217.1,1499.9,2217,1499.9,2216.9,1499.9z M2286.7,1503.3c-7.7,0.2-15.5,0.3-23.2,0.1c-1.1,0-1.9,0.8-2,1.9c0,0.5,0.2,1,0.5,1.4
			c0.4,0.4,0.8,0.6,1.4,0.6c7.8,0.2,15.6,0.1,23.4-0.1c1.1,0,1.9-0.9,1.9-2c0-0.5-0.2-1-0.6-1.4
			C2287.7,1503.5,2287.2,1503.3,2286.7,1503.3z"/>
		<g>
			<g>
				<circle class="st1" cx="2410.5" cy="319.8" r="159.2"/>
			</g>
		</g>
		<g>
			<g>
				<circle class="st0" cx="2639.7" cy="731.5" r="159.2"/>
			</g>
		</g>
		<g>
			<g>
				<circle class="st0" cx="2590.1" cy="1555" r="159.2"/>
			</g>
		</g>
		<g>
			<g>
				<circle class="st1" cx="2721.9" cy="1143.3" r="159.2"/>
			</g>
		</g>
		<g>
			<polygon class="st1" points="1971.1,927.8 1954,909.8 1929.8,904 1947.8,886.8 1953.7,862.6 1970.8,880.6 1995,886.5 1977,903.7 
							"/>
			<g>
				<polygon class="st1" points="2030.4,944.8 2019.2,933.1 2003.4,929.2 2015.1,918 2019,902.2 2030.2,914 2046,917.8 2034.2,929 
									"/>
			</g>
		</g>
		<g>
			<polygon class="st1" points="1935.2,1287 1946.9,1266.5 1945.6,1242.9 1966.1,1254.5 1989.7,1253.3 1978,1273.8 1979.3,1297.4 
				1958.8,1285.7 			"/>
			<g>
				<polygon class="st1" points="1936,1345.5 1943.6,1332.1 1942.7,1316.7 1956.1,1324.3 1971.5,1323.5 1963.9,1336.9 
					1964.7,1352.3 1951.3,1344.6 				"/>
			</g>
		</g>
		<g>
			<path class="st1" d="M1725.9,691.4c-2.2,0.1-4.2,1.7-4.5,3.6c-0.1,1-1.1,5-2.4,8.9c-2.4,7.1-2.4,7.1-14.1,17.7
				c-3.9,3.5-6.4,5.9-8.2,8.2v47.7c1.7,1.6,4.1,2.8,7.9,4.6c11.2,5.1,11.2,5.1,31.2,5.1c18.9,0,20.1-0.1,22.1-1.3
				c3-1.9,4.5-5.3,4-9.2c-0.4-3-0.3-3.2,1.6-4c4-1.6,5.8-8.2,3.6-12.6c-0.8-1.5-0.8-1.9,0-2.6c2.7-2.3,3.7-7.9,1.9-11.1
				c-0.8-1.4-0.7-1.9,0.4-3.6c1.6-2.7,1.6-7.3,0-10c-2.6-4.2-2.7-4.2-21.7-4.2c-9.4,0-17.2-0.2-17.2-0.2s0.5-1.6,1.2-3.1
				c2.1-5,4.3-15.1,4.3-20c0-7.9-3.2-12.7-9.3-13.9C1726.5,691.4,1726.2,691.4,1725.9,691.4z M1665,729.9l-0.1,47.7h26.9v-47.7H1665
				z"/>
		</g>
		<path class="st0" d="M1482.7,1379c-0.6,0-1.2,0.5-1.3,1.1c-0.6,5.6-1.5,11.4,0.8,16.1c0.3,0.6,1.1,0.9,1.7,0.6
			c0.3-0.1,0.5-0.4,0.6-0.7c0.1-0.3,0.1-0.7-0.1-1c-1.8-3.7-1.2-9.1-0.6-14.7c0-0.3-0.1-0.7-0.3-0.9s-0.5-0.4-0.9-0.5
			C1482.8,1379,1482.7,1379,1482.7,1379z"/>
		<g>
			<g>
				<circle class="st0" cx="1941.2" cy="468.5" r="159.2"/>
			</g>
		</g>
		<g>
			<g>
				<circle class="st1" cx="1994.1" cy="1713.6" r="159.2"/>
			</g>
		</g>
		<g>
			<polygon class="st0" points="1946,196.2 1928.8,178.3 1904.6,172.4 1922.6,155.2 1928.5,131 1945.7,149 1969.8,154.9 
				1951.9,172.1 			"/>
			<g>
				<polygon class="st0" points="2005.2,213.2 1994,201.5 1978.2,197.7 1990,186.4 1993.8,170.7 2005,182.4 2020.8,186.2 
					2009.1,197.5 				"/>
			</g>
		</g>
		<g>
			<polygon class="st0" points="2227,633.6 2244.2,615.7 2268.3,609.8 2250.3,592.6 2244.5,568.4 2227.3,586.4 2203.1,592.3 
				2221.1,609.5 			"/>
			<g>
				<polygon class="st0" points="2167.7,650.6 2178.9,638.9 2194.7,635 2183,623.8 2179.1,608.1 2167.9,619.8 2152.1,623.6 
					2163.9,634.9 				"/>
			</g>
		</g>
		<g>
			<polygon class="st1" points="2354.6,1111.5 2337.4,1093.5 2313.3,1087.6 2331.3,1070.4 2337.1,1046.2 2354.3,1064.2 
				2378.5,1070.1 2360.5,1087.3 			"/>
			<g>
				<polygon class="st1" points="2413.9,1128.4 2402.7,1116.7 2386.9,1112.9 2398.6,1101.6 2402.5,1085.9 2413.7,1097.6 
					2429.5,1101.5 2417.7,1112.7 				"/>
			</g>
		</g>
		<g>
			<path class="st0" d="M2257.6,1305.4c-2.2,0.1-4.2,1.7-4.5,3.6c-0.1,1-1.1,5-2.4,8.9c-2.4,7.1-2.4,7.1-14.2,17.7
				c-3.9,3.5-6.4,5.9-8.2,8.2v47.7c1.7,1.6,4.1,2.8,7.9,4.6c11.2,5.1,11.2,5.1,31.2,5.1c18.9,0,20.1-0.1,22.1-1.3
				c3-1.9,4.5-5.3,4-9.2c-0.4-3-0.3-3.2,1.6-4c4-1.6,5.8-8.2,3.6-12.6c-0.8-1.5-0.8-1.9,0-2.6c2.7-2.3,3.7-7.9,1.9-11.1
				c-0.8-1.4-0.7-1.9,0.3-3.6c1.6-2.7,1.6-7.3,0-10c-2.6-4.2-2.7-4.2-21.7-4.2c-9.4,0-17.2-0.1-17.2-0.2s0.5-1.6,1.2-3.1
				c2.1-5,4.3-15.1,4.3-20c0-7.9-3.2-12.7-9.3-13.9C2258.2,1305.4,2257.9,1305.3,2257.6,1305.4z M2196.6,1343.8l-0.1,47.7h26.9
				v-47.7H2196.6z"/>
		</g>
		<g>
			<path class="st0" d="M2735.3,108.9c-2.2,0.1-4.2,1.7-4.5,3.6c-0.1,1-1.1,5-2.4,8.9c-2.4,7.1-2.4,7.1-14.1,17.7
				c-3.9,3.5-6.4,5.9-8.2,8.2v47.7c1.7,1.6,4.1,2.8,7.9,4.6c11.2,5.1,11.2,5.1,31.2,5.1c18.9,0,20.1-0.1,22.1-1.3
				c3-1.9,4.5-5.3,4-9.2c-0.4-3-0.3-3.2,1.6-4c4-1.6,5.8-8.2,3.6-12.6c-0.8-1.5-0.8-1.9,0-2.6c2.7-2.3,3.7-7.9,1.9-11.1
				c-0.8-1.4-0.7-1.9,0.4-3.6c1.6-2.7,1.6-7.3,0-10c-2.6-4.2-2.7-4.2-21.7-4.2c-9.4,0-17.2-0.1-17.2-0.2c0-0.2,0.5-1.6,1.2-3.1
				c2.1-5,4.3-15.1,4.3-20c0-7.9-3.2-12.7-9.3-13.9C2735.9,108.9,2735.6,108.9,2735.3,108.9z M2674.4,147.4l-0.1,47.7h26.9v-47.7
				H2674.4z"/>
		</g>
		<g>
			<polygon class="st1" points="2945.9,870.8 2968.9,880.1 2983.3,900.4 2992.7,877.4 3013,863 2989.9,853.7 2975.6,833.4 
				2966.2,856.4 			"/>
			<g>
				<polygon class="st1" points="2908.3,821.9 2923.3,828 2932.7,841.3 2938.8,826.2 2952.1,816.9 2937,810.8 2927.7,797.5 
					2921.6,812.5 				"/>
			</g>
		</g>
		<g>
			<polygon class="st0" points="2905.1,1417 2882.6,1406.2 2869.5,1385.1 2858.8,1407.6 2837.7,1420.7 2860.1,1431.4 2873.2,1452.5 
				2883.9,1430.1 			"/>
			<g>
				<polygon class="st0" points="2939.7,1468 2925,1461 2916.5,1447.2 2909.5,1461.8 2895.7,1470.4 2910.3,1477.4 2918.9,1491.2 
					2925.9,1476.5 				"/>
			</g>
		</g>
		<g>
			<polygon class="st1" points="2356.5,65.2 2373.7,47.2 2397.9,41.3 2379.9,24.2 2374,0 2356.8,18 2332.6,23.9 2350.6,41.1 			"/>
			<g>
				<polygon class="st1" points="2297.3,82.2 2308.5,70.5 2324.3,66.6 2312.5,55.4 2308.7,39.6 2297.5,51.4 2281.7,55.2 
					2293.4,66.4 				"/>
			</g>
		</g>
		<g>
			<path class="st1" d="M2847,1670c-2.2,0.1-4.2,1.7-4.5,3.6c-0.1,1-1.1,5-2.4,8.9c-2.4,7.1-2.4,7.1-14.2,17.7
				c-3.9,3.5-6.4,5.9-8.2,8.2v47.7c1.7,1.6,4.1,2.8,7.9,4.6c11.2,5.1,11.2,5.1,31.2,5.1c18.9,0,20.1-0.1,22.1-1.3
				c3-1.9,4.5-5.3,4-9.2c-0.4-3-0.3-3.2,1.6-4c4-1.6,5.8-8.2,3.6-12.6c-0.8-1.5-0.8-1.9,0-2.6c2.7-2.3,3.7-7.9,1.9-11
				c-0.8-1.4-0.7-1.9,0.3-3.6c1.6-2.7,1.6-7.3,0-10c-2.6-4.2-2.7-4.2-21.7-4.2c-9.4,0-17.2-0.1-17.2-0.2s0.5-1.6,1.2-3.1
				c2.1-5,4.3-15.1,4.3-20c0-7.9-3.2-12.7-9.3-13.9C2847.6,1670,2847.3,1670,2847,1670z M2786.1,1708.5l-0.1,47.7h26.9v-47.7H2786.1
				z"/>
		</g>
		<g>
			<path class="st0" d="M1923.3,661.3c-4.1,0-7.3,3.3-7.3,7.3v63.2c0,4.1,3.3,7.3,7.3,7.3h46.1l5.6,5.9l9.1,9.5
				c0.3,0.3,0.7,0.4,1.2,0.5c0.6,0,1.2-0.2,1.5-0.5l9.1-9.5l5.6-5.9h10.8c4.1,0,7.3-3.3,7.3-7.3v-63.2c0-4.1-3.3-7.3-7.3-7.3H1923.3
				z"/>
			<path class="st2" d="M1954.8,676.7c-4.4,0-8.8,1.7-12.1,5c-6.7,6.7-6.7,17.6,0,24.3c8.8,8.7,25.2,17.7,25.2,17.7
				s16.9-9.5,25.2-17.7c6.7-6.7,6.7-17.6,0-24.3c-6.7-6.7-17.6-6.7-24.3,0l-0.9,0.9l-0.9-0.9
				C1963.6,678.4,1959.2,676.7,1954.8,676.7z"/>
		</g>
		<g>
			<path class="st1" d="M2229.7,783.9c-4.1,0-7.3,3.3-7.3,7.3v63.2c0,4.1,3.3,7.3,7.3,7.3h46.1l5.6,5.9l9.1,9.5
				c0.3,0.3,0.7,0.4,1.2,0.5c0.6,0,1.2-0.2,1.5-0.5l9.1-9.5l5.6-5.9h10.8c4.1,0,7.3-3.3,7.3-7.3v-63.2c0-4.1-3.3-7.3-7.3-7.3H2229.7
				z"/>
			<g>
				<path class="st2" d="M2274.3,795.7c-3.7,0-7.3,1.5-9.9,4.1c-2.6,2.6-4.1,6.2-4.1,9.9c0,3.7,1.5,7.3,4.1,9.9s6.2,4.1,9.9,4.1
					c3.7,0,7.3-1.5,9.9-4.1c2.6-2.6,4.1-6.2,4.1-9.9c0-3.7-1.5-7.3-4.1-9.9C2281.5,797.2,2278,795.7,2274.3,795.7z M2274,827.4
					c-12.6,0.1-22.9,10-23.6,22.6h47.6c-0.7-12.7-11.1-22.6-23.8-22.6C2274.2,827.4,2274.1,827.4,2274,827.4z"/>
			</g>
		</g>
		<g>
			<path class="st0" d="M2020.9,1043.5c-4.1,0-7.3,3.3-7.3,7.3v63.2c0,4.1,3.3,7.3,7.3,7.3h46.1l5.6,5.9l9.1,9.5
				c0.3,0.3,0.7,0.4,1.2,0.5c0.6,0,1.2-0.2,1.5-0.5l9.1-9.5l5.6-5.9h10.8c4.1,0,7.3-3.3,7.3-7.3v-63.2c0-4.1-3.3-7.3-7.3-7.3H2020.9
				z"/>
			<path class="st2" d="M2052.4,1058.9c-4.4,0-8.8,1.7-12.1,5c-6.7,6.7-6.7,17.6,0,24.3c8.8,8.7,25.2,17.7,25.2,17.7
				s16.9-9.5,25.2-17.7c6.7-6.7,6.7-17.6,0-24.3c-6.7-6.7-17.6-6.7-24.3,0l-0.9,0.9l-0.9-0.9
				C2061.2,1060.6,2056.8,1058.9,2052.4,1058.9z"/>
		</g>
		<g>
			<path class="st0" d="M1688.9,1422.5c-4.1,0-7.3,3.3-7.3,7.3v63.2c0,4.1,3.3,7.3,7.3,7.3h46.1l5.6,5.9l9.1,9.5
				c0.3,0.3,0.7,0.4,1.2,0.5c0.6,0,1.2-0.2,1.5-0.5l9.1-9.5l5.6-5.9h10.8c4.1,0,7.3-3.3,7.3-7.3v-63.2c0-4.1-3.3-7.3-7.3-7.3H1688.9
				z"/>
			<path class="st2" d="M1720.5,1437.9c-4.4,0-8.8,1.7-12.1,5c-6.7,6.7-6.7,17.6,0,24.3c8.8,8.7,25.2,17.7,25.2,17.7
				s16.9-9.5,25.2-17.7c6.7-6.7,6.7-17.6,0-24.3c-6.7-6.7-17.6-6.7-24.3,0l-0.9,0.9l-0.9-0.9
				C1729.3,1439.6,1724.9,1437.9,1720.5,1437.9z"/>
		</g>
		<g>
			<path class="st0" d="M3030.8,1098.4c-4.1,0-7.3,3.3-7.3,7.3v63.2c0,4.1,3.3,7.3,7.3,7.3h46.1l5.6,5.9l9.1,9.5
				c0.3,0.3,0.7,0.4,1.2,0.5c0.6,0,1.2-0.2,1.5-0.5l9.1-9.5l5.6-5.9h10.8c4.1,0,7.3-3.3,7.3-7.3v-63.2c0-4.1-3.3-7.3-7.3-7.3H3030.8
				z"/>
			<path class="st2" d="M3062.3,1113.8c-4.4,0-8.8,1.7-12.1,5c-6.7,6.7-6.7,17.6,0,24.3c8.8,8.7,25.2,17.7,25.2,17.7
				s16.9-9.5,25.2-17.7c6.7-6.7,6.7-17.6,0-24.3c-6.7-6.7-17.6-6.7-24.3,0l-0.9,0.9l-0.9-0.9
				C3071.1,1115.5,3066.7,1113.8,3062.3,1113.8z"/>
		</g>
		<g>
			<path class="st1" d="M2778.1,414.2c-4.1,0-7.3,3.3-7.3,7.3v63.2c0,4.1,3.3,7.3,7.3,7.3h46.1l5.6,5.9l9.1,9.5
				c0.3,0.3,0.7,0.4,1.2,0.5c0.6,0,1.2-0.2,1.5-0.5l9.1-9.5l5.6-5.9h10.8c4.1,0,7.3-3.3,7.3-7.3v-63.2c0-4.1-3.3-7.3-7.3-7.3H2778.1
				z"/>
			<g>
				<path class="st2" d="M2822.5,426c-7.6,0.1-13.8,6.3-13.8,14c0,3.7,1.5,7.3,4.1,9.9c2.6,2.6,6.2,4.1,9.9,4.1
					c3.7,0,7.3-1.5,9.9-4.1c2.6-2.6,4.1-6.2,4.1-9.9c0-7.7-6.3-14-14-14C2822.6,426,2822.5,426,2822.5,426z M2822.4,457.7
					c-12.6,0.1-22.9,10-23.6,22.6h47.6c-0.7-12.7-11.1-22.6-23.8-22.6C2822.6,457.7,2822.5,457.7,2822.4,457.7z"/>
			</g>
		</g>
		<g>
			<g>
				<path class="st0" d="M3000.1,574.9c-5.1,0-9.3,4.2-9.3,9.3v63.2c0,5.1,4.2,9.3,9.3,9.3h45.3l5,5.3l9.2,9.5
					c0.8,0.8,1.6,1,2.6,1.1c1.1,0.1,2.1-0.1,3-1.1l9.2-9.5l5-5.3h9.9c5.1,0,9.3-4.2,9.3-9.3v-63.2c0-5.1-4.2-9.3-9.3-9.3H3000.1z
					 M3000.1,578.8h89.2c3,0,5.4,2.4,5.4,5.4v63.2c0,3-2.4,5.4-5.4,5.4h-10.8c-0.5,0-1,0.2-1.4,0.6l-5.6,5.9l-9.1,9.5v0l0,0
					c0.1-0.1,0.1-0.1,0-0.1l-9.1-9.5l-5.6-5.9c-0.4-0.4-0.9-0.6-1.4-0.6h-46.1c-3,0-5.4-2.4-5.4-5.4v-63.2
					C2994.7,581.1,2997.1,578.8,3000.1,578.8z"/>
			</g>
			<g>
				<path class="st0" d="M2985.2,564c-4.1,0-7.3,3.3-7.3,7.3v63.2c0,4.1,3.3,7.3,7.3,7.3h46.1l5.6,5.9l9.1,9.5
					c0.3,0.3,0.7,0.4,1.2,0.5c0.6,0,1.2-0.2,1.5-0.5l9.1-9.5l5.6-5.9h10.8c4.1,0,7.3-3.3,7.3-7.3v-63.2c0-4.1-3.3-7.3-7.3-7.3
					H2985.2z"/>
				<g>
					<path class="st2" d="M3003.3,597.3c-1.5,0-2.9,0.6-3.9,1.6s-1.6,2.5-1.6,3.9s0.6,2.9,1.6,3.9s2.5,1.6,3.9,1.6
						c3.1,0,5.6-2.5,5.6-5.6C3008.9,599.8,3006.4,597.3,3003.3,597.3z M3029.7,597.3c-1.5,0-2.9,0.6-3.9,1.6s-1.6,2.5-1.6,3.9
						s0.6,2.9,1.6,3.9s2.5,1.6,3.9,1.6c1.5,0,2.9-0.6,3.9-1.6s1.6-2.5,1.6-3.9s-0.6-2.9-1.6-3.9S3031.2,597.3,3029.7,597.3z
						 M3056.2,597.3c-1.5,0-2.9,0.6-3.9,1.6s-1.6,2.5-1.6,3.9s0.6,2.9,1.6,3.9s2.5,1.6,3.9,1.6c1.5,0,2.9-0.6,3.9-1.6
						s1.6-2.5,1.6-3.9s-0.6-2.9-1.6-3.9S3057.7,597.3,3056.2,597.3z"/>
				</g>
			</g>
		</g>
		<g>
			<g>
				<path class="st1" d="M1552.2,456.5c-5.1,0-9.3,4.2-9.3,9.3V529c0,5.1,4.2,9.3,9.3,9.3h45.3l5,5.3l9.2,9.5c0.8,0.8,1.6,1,2.6,1.1
					c1.1,0.1,2.1-0.1,3-1.1l9.2-9.5l5-5.3h9.9c5.1,0,9.3-4.2,9.3-9.3v-63.2c0-5.1-4.2-9.3-9.3-9.3H1552.2z M1552.2,460.4h89.2
					c3,0,5.4,2.4,5.4,5.4V529c0,3-2.4,5.4-5.4,5.4h-10.8c-0.5,0-1,0.2-1.4,0.6l-5.6,5.9l-9.1,9.5v0l0,0c0.1-0.1,0.1-0.1,0-0.1
					l-9.1-9.5l-5.6-5.9c-0.4-0.4-0.9-0.6-1.4-0.6h-46.1c-3,0-5.4-2.4-5.4-5.4v-63.2C1546.8,462.7,1549.2,460.4,1552.2,460.4z"/>
			</g>
			<g>
				<path class="st1" d="M1537.3,445.6c-4.1,0-7.3,3.3-7.3,7.3v63.2c0,4.1,3.3,7.3,7.3,7.3h46.1l5.6,5.9l9.1,9.5
					c0.3,0.3,0.7,0.4,1.2,0.5c0.6,0,1.2-0.2,1.5-0.5l9.1-9.5l5.6-5.9h10.8c4.1,0,7.3-3.3,7.3-7.3v-63.2c0-4.1-3.3-7.3-7.3-7.3
					H1537.3z"/>
				<g>
					<circle class="st2" cx="1555.4" cy="484.5" r="5.6"/>
					<circle class="st2" cx="1581.9" cy="484.5" r="5.6"/>
					<circle class="st2" cx="1608.3" cy="484.5" r="5.6"/>
				</g>
			</g>
		</g>
		<g>
			<g>
				<path class="st0" d="M2234.5,1688.5c-5.1,0-9.3,4.2-9.3,9.3v63.2c0,5.1,4.2,9.3,9.3,9.3h45.3l5,5.3l9.2,9.5
					c0.8,0.8,1.6,1,2.6,1.1c1.1,0.1,2.1-0.1,3-1.1l9.2-9.5l5-5.3h9.9c5.1,0,9.3-4.2,9.3-9.3v-63.2c0-5.1-4.2-9.3-9.3-9.3H2234.5z
					 M2234.5,1692.4h89.2c3,0,5.4,2.4,5.4,5.4v63.2c0,3-2.4,5.4-5.4,5.4h-10.8c-0.5,0-1,0.2-1.4,0.6l-5.6,5.9l-9.1,9.5v0l0,0
					c0.1-0.1,0.1-0.1,0-0.1l-9.1-9.5l-5.6-5.9c-0.4-0.4-0.9-0.6-1.4-0.6h-46.1c-3,0-5.4-2.4-5.4-5.4v-63.2
					C2229.1,1694.8,2231.5,1692.4,2234.5,1692.4z"/>
			</g>
			<g>
				<path class="st0" d="M2219.6,1677.6c-4.1,0-7.3,3.3-7.3,7.3v63.2c0,4.1,3.3,7.3,7.3,7.3h46.1l5.6,5.9l9.1,9.5
					c0.3,0.3,0.7,0.4,1.2,0.5c0.6,0,1.2-0.2,1.5-0.5l9.1-9.5l5.6-5.9h10.8c4.1,0,7.3-3.3,7.3-7.3V1685c0-4.1-3.3-7.3-7.3-7.3H2219.6
					z"/>
				<g>
					<path class="st2" d="M2237.7,1711c-3.1,0-5.6,2.5-5.6,5.6c0,3.1,2.5,5.6,5.6,5.6c1.5,0,2.9-0.6,3.9-1.6c1-1,1.6-2.5,1.6-3.9
						s-0.6-2.9-1.6-3.9C2240.6,1711.6,2239.2,1711,2237.7,1711z M2264.1,1711c-1.5,0-2.9,0.6-3.9,1.6c-1,1-1.6,2.5-1.6,3.9
						s0.6,2.9,1.6,3.9c1,1,2.5,1.6,3.9,1.6c3.1,0,5.6-2.5,5.6-5.6C2269.7,1713.5,2267.2,1711,2264.1,1711z M2290.6,1711
						c-1.5,0-2.9,0.6-3.9,1.6c-1,1-1.6,2.5-1.6,3.9s0.6,2.9,1.6,3.9c1,1,2.5,1.6,3.9,1.6c1.5,0,2.9-0.6,3.9-1.6c1-1,1.6-2.5,1.6-3.9
						s-0.6-2.9-1.6-3.9C2293.5,1711.6,2292.1,1711,2290.6,1711z"/>
				</g>
			</g>
		</g>
		<g>
			<path class="st1" d="M2461.5,1855.8c-4.1,0-7.3,3.3-7.3,7.3v63.2c0,4.1,3.3,7.3,7.3,7.3h46.1l5.6,5.9l9.1,9.5
				c0.3,0.3,0.7,0.4,1.2,0.5c0.6,0,1.2-0.2,1.5-0.5l9.1-9.5l5.6-5.9h10.8c4.1,0,7.3-3.3,7.3-7.3v-63.2c0-4.1-3.3-7.3-7.3-7.3H2461.5
				z"/>
			<path class="st2" d="M2493.1,1871.2c-4.4,0-8.8,1.7-12.1,5c-6.7,6.7-6.7,17.6,0,24.3c8.8,8.7,25.2,17.7,25.2,17.7
				s16.9-9.5,25.2-17.7c6.7-6.7,6.7-17.6,0-24.3c-6.7-6.7-17.6-6.7-24.3,0l-0.9,0.9l-0.9-0.9
				C2501.8,1872.8,2497.4,1871.2,2493.1,1871.2z"/>
		</g>
		<g>
			<path class="st0" d="M2467.6,919c-4.1,0-7.3,3.3-7.3,7.3v63.2c0,4.1,3.3,7.3,7.3,7.3h46.1l5.6,5.9l9.1,9.5
				c0.3,0.3,0.7,0.4,1.2,0.5c0.6,0,1.2-0.2,1.5-0.5l9.1-9.5l5.6-5.9h10.8c4.1,0,7.3-3.3,7.3-7.3v-63.2c0-4.1-3.3-7.3-7.3-7.3H2467.6
				z"/>
			<g>
				<path class="st2" d="M2512.2,930.8c-3.7,0-7.3,1.5-9.9,4.1s-4.1,6.2-4.1,9.9c0,3.7,1.5,7.3,4.1,9.9s6.2,4.1,9.9,4.1
					c3.7,0,7.3-1.5,9.9-4.1c2.6-2.6,4.1-6.2,4.1-9.9s-1.5-7.3-4.1-9.9C2519.5,932.3,2515.9,930.8,2512.2,930.8z M2512,962.5
					c-12.6,0.1-22.9,10-23.6,22.6h47.6c-0.7-12.7-11.1-22.6-23.8-22.6C2512.1,962.5,2512.1,962.5,2512,962.5z"/>
			</g>
		</g>
	</g>
	<g>
		<rect x="389.3" y="294.9" class="st3" width="243.9" height="87.6"/>
		<g>
			<rect x="527.6" y="183.3" class="st3" width="243.9" height="87.6"/>
			<rect x="264.2" y="183.3" class="st3" width="243.9" height="87.6"/>
		</g>
		<rect x="389.3" y="71.7" class="st3" width="243.9" height="87.6"/>
	</g>
	<g>
		<rect x="1492.4" y="294.9" class="st3" width="243.9" height="87.6"/>
		<g>
			<rect x="1630.7" y="183.3" class="st3" width="243.9" height="87.6"/>
			<rect x="1367.3" y="183.3" class="st3" width="243.9" height="87.6"/>
		</g>
		<rect x="1492.4" y="71.7" class="st3" width="243.9" height="87.6"/>
	</g>
	<g>
		<rect x="985.2" y="956.5" class="st3" width="243.9" height="87.6"/>
		<g>
			<rect x="1123.4" y="844.9" class="st3" width="243.9" height="87.6"/>
			<rect x="860.1" y="844.9" class="st3" width="243.9" height="87.6"/>
		</g>
		<rect x="985.2" y="733.3" class="st3" width="243.9" height="87.6"/>
	</g>
	<g>
		<rect x="1236.4" y="1978.1" class="st3" width="243.9" height="87.6"/>
		<g>
			<rect x="1374.7" y="1866.5" class="st3" width="243.9" height="87.6"/>
			<rect x="1111.3" y="1866.5" class="st3" width="243.9" height="87.6"/>
		</g>
		<rect x="1236.4" y="1755" class="st3" width="243.9" height="87.6"/>
	</g>
	<path class="st4" d="M75.3,2177.6c-3.1,0-5.7,2.5-5.7,5.7c0,3.1,2.5,5.7,5.7,5.7H3052c3.1,0,5.7-2.5,5.7-5.7c0-3.1-2.5-5.7-5.7-5.7
		H75.3z"/>
</g>
<g>
	<path class="st2" d="M1957.2,554.4v-62.9h21l4-26h-25v-16.9c0-7.1,3.5-14.1,14.7-14.1h11.4v-22.1c0,0-10.3-1.8-20.1-1.8
		c-20.6,0-34,12.5-34,35v19.8h-22.9v26h22.9v62.9c-43-6.8-75.9-44-75.9-88.9c0-49.7,40.3-90,90-90s90,40.3,90,90
		C2033.1,510.4,2000.2,547.7,1957.2,554.4z"/>
</g>
<g>
	<path class="st2" d="M2359.1,311.2l36.2,17.6c7,3.4,5.9,13.6-1.6,15.5l-39,9.7c-2.3,0.6-4.8,0.1-6.7-1.2c-2-1.4-3.2-3.5-3.5-5.9
		c-1.2-10.4-0.1-21,3.3-31c0.8-2.3,2.5-4.1,4.7-5C2354.5,310.1,2357,310.2,2359.1,311.2z M2366.1,235c-2.1,1-3.6,2.8-4.3,5
		c-0.7,2.2-0.4,4.6,0.7,6.6l37.8,65.5c4.2,7.3,15.5,4.3,15.5-4.1v-75.6c0-2.3-0.9-4.5-2.6-6.1s-4-2.4-6.3-2.2
		C2392.7,225.2,2378.9,228.9,2366.1,235z M2375.1,398.1c8.7,5.9,18.5,9.9,28.8,11.7c2.4,0.4,4.8-0.2,6.6-1.7c1.9-1.5,3-3.7,3-6.1
		l1.4-40.2c0.3-7.7-9.3-11.6-14.4-5.8l-26.9,29.9c-1.6,1.8-2.3,4.2-2.1,6.5C2371.8,394.6,2373.1,396.7,2375.1,398.1L2375.1,398.1z
		 M2427.8,358.2l21.3,34.1c1.3,2,3.4,3.4,5.7,3.8c2.4,0.4,4.8-0.3,6.6-1.8c8.1-6.7,14.6-15.1,19.1-24.5c1-2.2,1-4.6,0.1-6.8
		c-0.9-2.2-2.8-3.9-5-4.6l-38.3-12.4C2430.1,343.5,2423.7,351.6,2427.8,358.2z M2481.7,310.2c-4.2-9.6-10.4-18.2-18.3-25.2
		c-1.8-1.6-4.2-2.3-6.5-2c-2.4,0.3-4.5,1.6-5.8,3.6l-22.5,33.4c-4.3,6.4,1.7,14.7,9.1,12.6l38.7-11.1c2.3-0.7,4.2-2.3,5.2-4.5
		C2482.6,314.9,2482.6,312.4,2481.7,310.2L2481.7,310.2z"/>
</g>
<g>
	<path class="st2" d="M2726.9,728.4c0,51.4-35.2,87.9-87.1,87.9c-49.8,0-90-40.2-90-90s40.2-90,90-90c24.2,0,44.6,8.9,60.4,23.6
		l-24.5,23.6c-32-30.9-91.6-7.7-91.6,42.9c0,31.4,25.1,56.8,55.8,56.8c35.6,0,49-25.6,51.1-38.8h-51.1v-31h85.7
		C2726.3,718,2726.9,722.4,2726.9,728.4z"/>
</g>
<g>
	<path class="st2" d="M2717.8,1235.6l-82.5-82.5c-46-46,21.4-108.3,64.9-64.8l16,16.4c3.6,5.2,10.7,6.5,16,2.9
		c1.2-0.8,2.1-1.8,2.9-2.9l18.7-18.5c3.4-4.5,9.7-5.4,14.2-2.1s5.4,9.7,2.1,14.2c-0.3,0.4-0.6,0.7-0.9,1.1l-44.6,44.9
		c-8.1,8.1,2.6,17.9,10.3,10.2l11.5-11.2c3.4-4.4,9.7-5.3,14.1-1.9c4.4,3.4,5.3,9.7,1.9,14.1c-0.5,0.6-1,1.1-1.5,1.6l-34.8,35
		c-8.7,8.7,1,19.4,9.9,10.5l49.1-48.1c11.8-11.8,24.6,3.7,14.6,13.8l-66.3,67.3C2729.2,1240,2722.1,1240,2717.8,1235.6
		L2717.8,1235.6z M2801.3,1139.2c0-5.8,4.7-10.5,10.5-10.5s10.5,4.7,10.5,10.5c0,5.8-4.7,10.5-10.5,10.5S2801.3,1145,2801.3,1139.2
		L2801.3,1139.2z M2769.3,1121.2c10.7-10.7,22.1-22.3,33.5-33.7c11.4-11.4,25.3,2.4,14.4,13.2c-10.8,10.8-34.2,33.9-34.2,33.9
		c-2.1,2.3-5,3.6-8.1,3.7c-5.2,0-9.5-4.1-9.5-9.4C2765.4,1125.8,2766.8,1123,2769.3,1121.2L2769.3,1121.2z"/>
</g>
<g>
	<g>
		<path class="st2" d="M2589.6,1559.2c0.3,0,0.6,0.1,0.9,0.1c1.9,0.1,3.7,0.2,5.6,0.2c0.7,0,1,0.4,1.1,1c0.1,0.9,0.2,1.8,0.2,2.7
			c0.4,15.2,0.7,30.4,1.1,45.6c0.1,5.7,0.2,11.3,0.4,17c0.1,2.3,2.2,4.8,4.5,5.3c0.4,0.1,0.7,0.3,1.1,0.5c0.4,0.3,0.8,0.6,0.6,1.1
			c-0.2,0.4-0.6,0.7-1,0.8c-0.7,0.2-1.5,0.2-2.3,0.3c-6,0-11.9,0-17.9,0c-0.9,0-1.7,0-2.6-0.1c-0.4,0-0.9-0.1-1.3-0.3
			c-0.6-0.3-0.8-1-0.3-1.5c0.4-0.4,0.9-0.7,1.4-0.8c1.7-0.4,2.9-1.3,3.7-2.8c0.2-0.5,0.4-1,0.4-1.5c0-14.4,0-28.8,0-43.2
			c0-0.5,0-1.1-0.2-1.5c-0.1-0.4-0.4-0.9-0.7-1c-0.3-0.1-0.8,0.3-1,0.5c-0.4,0.5-0.7,1-1,1.5c-3.6,7-7.3,13.9-10.9,20.9
			c-3,5.8-6,11.7-8.9,17.6c-0.8,1.5-1.9,2.4-3.6,2.4c-0.7,0-1.3,0.1-2,0.1c-2,0-3.7-1.2-4.3-3.1c-0.1-0.3-0.2-0.6-0.4-0.8
			c-6.2-11.4-12.4-22.8-18.7-34.3c-0.3-0.6-0.7-1.2-1.2-1.6c-0.6-0.6-1.3-0.5-1.5,0.4c-0.2,0.5-0.2,1.1-0.3,1.7
			c-0.3,11.9-0.7,23.7-0.3,35.6c0.1,1.7,0.3,3.4,0.7,5.1c0.5,2.2,2,3.5,4.3,4c0.2,0,0.3,0.1,0.5,0.2c0.7,0.3,1.1,0.9,1.1,1.4
			c-0.1,0.8-0.8,0.9-1.4,1c-0.6,0.1-1.3,0.1-1.9,0.1c-5.2,0-10.4,0-15.6,0c-0.8,0-1.7-0.1-2.5-0.2c-0.5-0.1-0.9-0.3-1-0.8
			c-0.1-0.6,0.3-0.9,0.6-1.2c0.3-0.2,0.6-0.4,0.9-0.4c2.3-0.5,4-2.2,4.4-4.6c0.2-1.2,0.3-2.4,0.4-3.6c0.1-18.7,0.2-37.3,0.2-56
			c0-1.9-0.7-3.4-2.3-4.4c-0.3-0.2-0.8-0.3-1.1-0.5c-0.5-0.2-1-0.4-1.3-0.8c-0.6-0.6-0.4-1.4,0.4-1.6c0.7-0.2,1.5-0.3,2.2-0.3
			c3.1,0,6.2,0,9.3,0c0.3,0,0.6-0.1,0.9-0.1c0.9,0,1.7,0,2.6,0c0.7,0.1,1.4,0.3,2.2,0.4c0.4,0.1,0.7,0.2,0.9,0.7
			c0.9,2.1,1.9,4.1,2.8,6.2c2,4.1,3.8,8.4,6,12.4c3.3,6.2,6.8,12.3,10.2,18.5c1.3,2.4,2.6,4.8,3.9,7.1c0.5,1,1.4,1.5,2.6,1.5
			c1.2,0,2-0.6,2.5-1.7c0.1-0.3,0.2-0.5,0.3-0.8c2.8-5.3,5.5-10.7,8.4-15.9c4.3-7.9,8.3-15.9,11.7-24.3c0.4-1,1-1.9,1.4-2.9
			c0.2-0.5,0.6-0.7,1.1-0.8c0.6-0.1,1.3-0.3,1.9-0.4C2588.2,1559.2,2588.9,1559.2,2589.6,1559.2z"/>
	</g>
	<g>
		<path class="st2" d="M2625.2,1559.5c5.6,0,11.1-0.1,16.7,0c5.5,0.1,11,1,16.3,2.5c6.7,1.9,11.8,5.9,15.8,11.4
			c4.5,6.3,6.6,13.2,6.7,20.9c0.1,7.3-1.7,14.1-5.6,20.3c-5,7.9-12.1,13.1-20.9,15.9c-6.9,2.2-13.9,3.3-21.1,3.3
			c-5.9,0-11.7,0-17.6,0c-3,0-5.3-1.9-5.8-4.7c-0.1-0.5-0.1-1-0.1-1.5c0-15.6,0-31.2,0-46.8c0-4.8-0.2-9.5-0.4-14.3
			c-0.1-2.1-1.8-3.9-3.9-4.2c-0.7-0.1-1.4-0.3-1.9-0.8c-0.6-0.7-0.4-1.5,0.4-1.8c0.7-0.2,1.4-0.4,2.2-0.4
			C2612.3,1559.5,2618.8,1559.5,2625.2,1559.5z M2621.7,1594.2C2621.7,1594.2,2621.7,1594.2,2621.7,1594.2c0,5.3,0,10.7,0,16
			c0,3.4,0,6.7,0,10.1c0,2.5,1.2,5.4,4.7,6.3c0.7,0.2,1.5,0.4,2.2,0.5c2.6,0.1,5.3,0.3,7.9,0.3c3.3,0,6.5-0.5,9.7-1.4
			c8-2.4,13.9-7.3,17.4-15c1.7-3.7,2.6-7.7,2.9-11.7c0.3-3.5,0.3-7.1-0.5-10.5c-1.6-7-5-12.9-10.9-17.1c-4.6-3.3-9.8-4.7-15.3-5.1
			c-5.8-0.4-11.6-0.1-17.3,0.6c-0.6,0.1-0.8,0.3-0.8,0.9C2621.7,1576.7,2621.7,1585.5,2621.7,1594.2z"/>
	</g>
	<g>
		<path class="st2" d="M2518.4,1478.8c2.7,0,5.3,0,8,0c1,0,2,0.1,2.9,0.3c0.3,0.1,0.8,0.4,0.9,0.7c0.1,0.3-0.2,0.8-0.5,1.1
			c-0.3,0.3-0.8,0.5-1.2,0.6c-2.6,0.6-4.4,2.7-4.4,5.3c0.1,3.4,0.1,6.8,0.3,10.1c0.2,3.4,0.4,6.8,0.6,10.2c0.2,2.6,0.3,5.3,0.5,7.9
			c0.2,3.4,0.4,6.8,0.7,10.2c0.2,2.6,0.3,5.3,0.5,7.9c0.1,0.8,0.1,1.6,0.2,2.3c0.1,0.5,0.3,1,0.8,1.1c0.6,0.1,1-0.3,1.2-0.7
			c0.9-1.6,1.7-3.1,2.5-4.7c5.9-11,11.7-22,17.6-33c1.5-2.9,3-5.8,4.4-8.7c0.9-1.7,2.5-2.5,4.3-2c1.4,0.4,2.1,1.3,2.4,2.7
			c1.2,6,2.4,12.1,3.7,18.1c1.6,7.5,3.2,15.1,4.8,22.6c0.3,1.4,0.6,2.8,0.9,4.3c0.1,0.3,0.1,0.6,0.3,0.9c0.3,0.3,0.6,0.8,1,0.8
			c0.4,0,0.8-0.3,1.1-0.6c0.3-0.3,0.4-0.7,0.5-1c4.1-11.7,8.1-23.4,12.2-35.1c1.3-3.8,2.6-7.6,3.9-11.4c0.3-1,0.6-1.9,0.4-2.9
			c-0.3-1.6-1.4-2.6-2.8-3.2c-0.8-0.3-1.6-0.5-2.4-0.8c-0.4-0.2-0.9-0.3-1.2-0.6c-0.3-0.2-0.5-0.7-0.4-1c0.1-0.3,0.5-0.6,0.8-0.7
			c0.6-0.2,1.3-0.3,2-0.3c5.3,0,10.6,0,15.8,0c0.8,0,1.6,0.1,2.4,0.3c0.3,0.1,0.7,0.4,0.8,0.6c0.1,0.2-0.2,0.6-0.4,0.8
			c-0.5,0.4-1.1,0.6-1.7,0.9c-0.4,0.2-0.9,0.3-1.2,0.6c-1.3,1.1-2.1,2.5-2.7,4c-4.8,12.9-9.5,25.8-14.3,38.6
			c-2.6,6.9-5.1,13.9-7.8,20.8c-0.9,2.3-2,4.5-3.1,6.6c-0.8,1.5-2.2,2.1-3.8,2.3c-0.6,0.1-1.3,0-1.9-0.1c-1.1-0.2-1.9-0.9-2.1-2
			c-0.9-4.1-1.9-8.2-2.8-12.3c-1.6-7.5-3.1-15-4.7-22.5c-0.8-3.6-1.5-7.3-2.3-10.9c-0.2-0.7-0.5-1.4-0.9-2.1
			c-0.5-0.7-1.2-0.7-1.8-0.2c-0.5,0.4-0.9,0.9-1.2,1.5c-4.5,8.3-9,16.5-13.5,24.8c-4,7.2-7.9,14.5-11.9,21.7c-1.1,2-3.8,3-5.9,2.2
			c-0.8-0.3-1.3-0.8-1.4-1.6c-0.6-2.6-0.9-5.1-0.9-7.8c-0.1-2.5-0.3-5-0.5-7.5c-0.1-1.4-0.2-2.9-0.3-4.3c-0.2-2.3-0.3-4.5-0.5-6.8
			c-0.1-1.4-0.2-2.7-0.3-4.1c-0.2-2.3-0.3-4.6-0.5-7c-0.1-2-0.3-4.1-0.4-6.1c-0.2-2.3-0.3-4.5-0.5-6.8c-0.1-1.3-0.1-2.7-0.3-4
			c-0.4-3.4-0.8-6.7-1.3-10.1c-0.2-1.3-0.2-2.6-0.8-3.9c-0.8-1.7-2-2.9-4-3.3c-0.3-0.1-0.7-0.2-0.9-0.4c-0.3-0.3-0.7-0.8-0.6-1.1
			c0.1-0.3,0.6-0.7,0.9-0.8c0.9-0.2,1.8-0.3,2.7-0.3C2512.9,1478.7,2515.6,1478.8,2518.4,1478.8z"/>
	</g>
	<g>
		<path class="st2" d="M2639.6,1519.5c0.3-0.3,0.6-0.7,0.9-1c3.4-3.7,6.9-7.1,11-9.9c2.8-1.9,5.8-3.4,9.2-4c3-0.6,6-0.4,8.9,0.8
			c3.5,1.4,5.4,4.1,6.2,7.7c0.8,3.4,0.5,6.8-0.3,10.2c-1.5,6.4-4.5,11.9-9,16.8c-4.2,4.5-9,8.3-14.5,11c-3.3,1.6-6.8,2.6-10.4,3
			c-3.1,0.3-6.1,0.2-9-1.2c-3.6-1.7-5.6-4.5-6-8.4c-0.3-2.8,0.3-5.5,0.7-8.2c0-0.1,0-0.2-0.1-0.5c-0.2,0.2-0.4,0.4-0.5,0.6
			c-2.8,4.2-6.2,8-10.2,11.1c-4.2,3.2-8.9,5.5-14.2,6.3c-2.8,0.4-5.6,0.6-8.3,0c-4.8-1.1-7.7-4.2-9-8.8c-0.8-2.7-0.8-5.5-0.5-8.3
			c1-7.9,4.3-14.8,9.4-20.8c3.9-4.7,8.6-8.3,14.4-10.4c2.7-1,5.5-1.4,8.4-1.2c2.5,0.2,4.9,0.6,6.9,2.2c1.5,1.2,2.3,2.8,2.4,4.7
			c0.2,5.1-2.1,9-5.9,12.2c-3.7,3.1-8.1,5-12.7,6.4c-3.8,1.2-7.6,1.9-11.5,2.5c-0.6,0.1-1.2,0.1-1.8,0.2c-0.2,0-0.6,0.3-0.6,0.5
			c-0.7,3.2-1.1,6.4-0.6,9.6c0.5,3.2,3.3,5.9,6.5,6.4c3.3,0.5,6.5-0.2,9.6-1.5c4.2-1.8,7.8-4.4,11-7.5c2-1.9,4-3.9,5.8-6.1
			c2.6-3,3.9-6.6,4.8-10.4c2.7-10.8,5.5-21.5,8.3-32.2c0.5-2.1,0.6-4.3-0.2-6.3c-0.7-1.8-2-3-4-3.4c-0.5-0.1-1-0.5-1.4-0.8
			c-0.5-0.4-0.3-1,0.2-1.3c0.4-0.2,1-0.3,1.4-0.3c3.5-0.1,7.1-0.1,10.6-0.1c0.4,0,0.8,0,1.2,0.1c2.4,0.4,3.8,2.6,3.1,5
			c-2.6,8.4-5.1,16.7-7.7,25.1c-1,3.1-1.8,6.3-2.7,9.5c-0.1,0.3-0.1,0.7-0.2,1C2639.4,1519.4,2639.5,1519.5,2639.6,1519.5z
			 M2668,1515.8c-0.1-0.5-0.1-1.2-0.2-1.8c-0.4-2.4-1.6-4.3-4.1-5c-1.5-0.5-3-0.4-4.5-0.1c-2.7,0.5-5.1,1.6-7.4,3.2
			c-3.8,2.6-6.8,6-9.3,9.7c-4.1,6.1-7.3,12.5-8,20c-0.2,2.3,0.1,4.5,1.1,6.6c1.2,2.7,3.5,3.7,5.8,3.6c3.4-0.3,6.6-1.4,9.4-3.4
			c2.7-1.9,4.8-4.4,6.8-7c2.1-2.7,4-5.6,5.4-8.8c0.8-1.9,1.8-3.6,2.5-5.5C2667,1523.5,2667.8,1519.7,2668,1515.8z M2594.3,1529.9
			c1.4-0.2,2.7-0.3,3.9-0.5c4.4-0.7,8.5-2.1,12.2-4.5c3.4-2.2,5.9-5.2,6.9-9.2c0.4-1.5,0.6-3.1,0.3-4.6c-0.6-2.4-2.7-3.7-5.6-3.2
			c-2.5,0.4-4.5,1.7-6.3,3.3c-5.3,4.9-8.8,10.9-11.1,17.7C2594.5,1529,2594.5,1529.4,2594.3,1529.9z"/>
	</g>
</g>
<g id="Path_5">
	<path class="st2" d="M1990.2,1809.9c-4,0-6.7-3-8.3-9.1l-27.6-111.9l-10.7,46.1c-1.3,5.3-4.3,8.9-8.4,9.9s-8.4-1-11.8-5.3l-3.7-4.6
		c-4-4.3-9.5-6.9-15.3-7.3h-20.2c0,0-0.6-2.7-1.1-5.6c-0.5-2.9-0.8-5.7-0.8-5.7h22.2c9.3,0.5,18,4.7,24.2,11.6l3.7,4.6
		c0,0.2,0.2,0.2,0.2,0.3c0-0.2,0-0.2,0.2-0.3l13.2-57.2c1.4-6.2,4.1-9.2,8.3-9.2l0,0c4,0,6.9,3,8.3,9.2l27.3,110.8l34.7-166.1
		c1.3-6.2,4-9.4,8.1-9.4c4.1-0.2,6.9,3,8.3,9.2l21.8,89.4c1.3,4.3,5.1,7.2,9.6,7.5h29.1c0,0-0.3,3.5-0.6,5.4s-1.1,5.9-1.1,5.9h-27.1
		c-9.6-0.3-17.9-6.8-20.6-16.1l-18.8-77l-34.7,166.1C1997.2,1806.7,1994.5,1809.9,1990.2,1809.9L1990.2,1809.9z"/>
	<path class="st2" d="M1990.2,1812.4h-6l1.3-1.3c-2.7-1.6-4.7-4.9-6-9.7l-25.1-101.8l-8.3,35.9c-1.5,6.3-5.3,10.6-10.3,11.8
		c-5.1,1.2-10.4-1.1-14.3-6.2l-3.6-4.5c-3.5-3.8-8.3-6.1-13.5-6.5h-22.1l-0.5-1.9c0-0.1-0.7-2.8-1.1-5.7c-0.5-2.9-0.8-5.8-0.8-5.9
		l-0.3-2.8l25.1,0c9.9,0.5,19.4,5.1,26,12.5l0.1,0.1l0.7,0.9l12.1-52.5c1.7-7.4,5.3-11.2,10.7-11.2c3.7,0,8.6,1.9,10.7,11.2
		l24.6,100.1l32.5-155.3c1.9-9.4,6.8-11.4,10.6-11.4c3.6-0.1,8.5,1.7,10.7,11.2l21.8,89.3c1,3.2,3.9,5.4,7.2,5.7h31.8l-0.2,2.7
		c0,0.1-0.3,3.6-0.7,5.6c-0.3,1.9-1.1,5.8-1.1,6l-0.4,2h-29.2c-10.8-0.4-20-7.6-23-17.9l-16.2-66.3l-32.5,155.3
		C1998.8,1811,1993.3,1812.4,1990.2,1812.4z M1954.2,1678.2l30.1,122c1.9,7.2,4.8,7.2,5.9,7.2h0.4c1.3-0.1,4.1-0.7,5.5-6.8l37-176.8
		l21.4,87.7c2.3,8.2,9.6,13.9,18.2,14.2l25,0c0.2-1.3,0.5-2.8,0.7-3.8c0.1-0.7,0.2-1.6,0.3-2.5l-26.5,0c-5.5-0.3-10.2-4-11.8-9.3
		l0-0.1l-21.8-89.4c-1.7-7.5-4.8-7.4-5.8-7.3c-1.1,0-4.3,0-5.8,7.4l-37,176.8L1960,1676c-1.1-4.9-3.1-7.3-5.9-7.3
		c-1.1,0-4.2,0-5.9,7.3l-13.4,57.9l-0.5,0.5c0.3-0.3,0.6-0.9,0.6-1.5h-3.1l-1.6,1.2l-0.1-0.1c0.1,0.2,0.2,0.4,0.4,0.5
		c-0.2-0.2-0.4-0.4-0.5-0.7l-3.4-4.3c-5.7-6.4-13.8-10.3-22.4-10.7h-19.3c0.1,0.9,0.3,1.8,0.4,2.8c0.2,1.3,0.5,2.5,0.7,3.5l18.4,0
		c6.5,0.5,12.5,3.4,16.9,8.1l0.1,0.2l3.7,4.6c2.7,3.5,6.1,5.1,9.3,4.4c3.1-0.7,5.5-3.6,6.6-8L1954.2,1678.2z M1935,1732.9
		C1935,1732.9,1935,1732.9,1935,1732.9C1935,1732.9,1935,1732.9,1935,1732.9L1935,1732.9z"/>
</g>
<g>
	<path class="st5" d="M588.3,786.4c0.3,0,0.6,0.3,0.6,0.6c-0.8,34.9,1.4,62.9,10.5,85.8c9.1,22.9,25,40.5,51.7,54.7
		c0.1,0.1,0.3,0.2,0.3,0.4s0,0.3,0,0.5c-0.1,0.1-0.2,0.3-0.4,0.3c-0.2,0-0.3,0-0.5,0c-26.9-14.2-43.1-32.2-52.3-55.3
		c-9.2-23.1-11.4-51.4-10.6-86.3c0-0.2,0.1-0.3,0.2-0.4C588,786.5,588.2,786.4,588.3,786.4z"/>
	<path class="st5" d="M604.1,521.9c0.2,0,0.3,0.1,0.5,0.2c32.3,31.7,40.6,77.8,34.9,118.8c-5.7,41.1-25.4,77.2-49.6,88.9
		c-0.3,0.2-0.7,0-0.8-0.3c-0.1-0.2-0.1-0.3,0-0.5c0.1-0.2,0.2-0.3,0.3-0.4c23.5-11.4,43.2-47.2,48.9-87.9
		c5.7-40.8-2.6-86.4-34.5-117.7c-0.1-0.1-0.2-0.3-0.2-0.4s0.1-0.3,0.2-0.4C603.8,521.9,604,521.9,604.1,521.9z"/>
	<path class="st5" d="M398.7,423c101.2-1.5,175.1,52.6,209.4,97.2c29.8,38.8,35.3,126.2,0.8,183.2l0,0
		c-55.3,132.9-11.6,204.8,31.4,224.7c-15.6,3.4-40,6.6-69.5,9.4c-7.2-13.4-12.2-28-17.9-41.7c1.9,15.5,5.5,29.5,10.7,43.2
		c-86.2,7.8-210.8,10.7-298.4,6.8c-0.8-1.6-1.5-3.1-2.3-4.7c-1.2-2.6-2.3-5.2-3.4-7.9c-1.1-2.7-2.2-5.4-3.3-8.2
		c-1.1-2.8-2.1-5.6-3.1-8.5c-1-2.9-1.9-5.9-2.9-8.9c-0.9-3-1.8-6.1-2.7-9.3c-0.9-3.2-1.7-6.4-2.5-9.8c1.1,6.4,2.2,12.6,3.4,18.4
		c0.6,2.9,1.1,5.8,1.7,8.6c0.6,2.8,1.1,5.5,1.7,8.2c0.6,2.7,1.2,5.3,1.8,7.8c0.6,2.6,1.3,5.1,1.9,7.5c0.6,2.2,1.2,4.3,1.8,6.4
		c-36.8-1.9-65.6-5.4-79.6-10.7c-32.3-227.7,2.8-514.8,188.6-509.3C377.4,423.9,388.2,423.2,398.7,423z"/>
	<path class="st6" d="M308.2,530.1l0,237.6c0,35.5,13.9,67.6,36.5,91.3c3.7,28.3,2.8,45.8-3.4,68.8c-5.7,21.3-36.2,29.6-49.5,35
		l21.5,164.6l208,27.7l99.9-152.8c-50.1-21.5-107.6-19.4-130.1-59.2c-9-15.9-8-31.3-4.6-43.9c68.6-4.7,122.5-61.6,122.5-131.5
		l0-141.3l-26.1-52l-27.8-44.2L308.2,530.1z"/>
	<path class="st7" d="M291.8,962.8c46.2,56.9,96.2,82.9,144.8,101.2c108.1,40.7,158-29.3,79.9-96.2c77.4,18.2,169.1,15,219.7,33.9
		c34,1,71.2,63,83.9,96.2c27.8,72.8,44.3,129.2,48.7,191c8.3,35.2,41,84.2,58.8,129.3c17.3,44,29.7,90.9,23.9,117.1
		c9.2,5,17.1,13.9,23.5,27.2c16.8,14,28.1-5.7,53.2-1.1c10-11.9,26.4-2,39.7-6.6c43.6-10.4,111-49.9,126.3-48.5
		c30,19,71.2,28.5,77.8,76.4c5.7,40.8-6.4,77.8-23.3,106.2c-11.3,18.6-143.7,39.6-219.1,56.8c-38.3,8.7-76.8,5.9-116,22
		c50,146.1,91.8,286.1,119.7,415.7H213.7c18.9-129.4,42.3-257,80.5-378.2c-7.1-18.7-5.5-32.4-3.1-45.7
		c-7.6-14.6-11.1-30.4-10.4-47.8c-69.9-51.3-139.5-109.1-176.6-185.4c-60.4-124.5-177.7-447.4-39.5-481.4
		C121.7,1020,227.6,986.6,291.8,962.8z"/>
	<path class="st8" d="M1256.8,1547.3l-86.2,71.3c21,27.9,23.4,88.9,65.8,78.5c6.3-2.8,10.6-5.6,12.2-8.3
		c16.9-28.4,29-65.5,23.3-106.2C1269.8,1567.5,1264.3,1556.3,1256.8,1547.3z"/>
	<path class="st6" d="M1170.6,1618.6l-6.6-11.6c-2.6-44.2-6.9-89,30.1-100.8c8.6-2.7,14.9-9.4,21.3-15.4
		c8.1-16.9,20.7-31.2,40.5-41.3l285.3-59.7c4.4,8.3,18.8,13.5,5.1,28.2c2.1,5.6,2,10.9-2.7,13.4l-41.9,17.1
		c-8.2,3.4-15,6.2-23.1,7.7c-12,2.2-23.4,5.4-34.3,8.1c-8.7,10.2-10.9,12.3-32.1,18.5c-24.3,11-51.1,20.6-72.7,33.2
		c-28.3,16.6-54.4,36.4-85.2,49.9L1170.6,1618.6z"/>
	<path class="st9" d="M1371.8,1431c-0.6,0.1-1.1,0.5-1.1,1.1c-0.1,0.7,0.4,1.4,1,1.5c5.1,0.9,10.3,4.3,12.5,8.4
		c1.1,2.1,1.5,4.2,0.9,6.5c-0.6,2.2-2.2,4.5-5.1,6.8c-7.8-0.7-16.9,1.8-26.5,5.7c-9.9,4-20.4,9.4-30.2,14.1
		c-0.6,0.3-0.9,1.1-0.6,1.7c0.3,0.6,1.1,0.9,1.7,0.6c9.9-4.7,20.3-10.1,30-14s18.9-6.4,26-5.6c0.3,0,0.6,0,0.9-0.2
		c3.5-2.6,5.5-5.4,6.3-8.4c0.8-2.9,0.3-5.8-1.1-8.3c-2.6-5-8.4-8.7-14.3-9.7C1372,1431,1371.9,1431,1371.8,1431z"/>
	<path class="st9" d="M1461.7,1413.9c-0.7,0.1-1.2,0.7-1.1,1.4c0,0.3,0.2,0.6,0.5,0.9c0.3,0.2,0.6,0.3,0.9,0.3
		c6.2-0.6,12.4,1,16.1,4.4c3.6,3.3,5,8,1.7,14.6c-2.8,2.5-8,3.9-13.8,4.7c-5.8,0.8-12,1.1-16.6,2.4c-17.4,4.6-38.5,13.1-56.3,24.6
		c-0.3,0.2-0.5,0.5-0.6,0.8c-0.1,0.3,0,0.7,0.2,1c0.2,0.3,0.5,0.5,0.8,0.6c0.3,0.1,0.7,0,1-0.2c17.4-11.3,38.4-19.7,55.5-24.3
		c4.1-1.1,10.3-1.5,16.3-2.3s11.8-2.1,15.3-5.5c0.1-0.1,0.2-0.2,0.3-0.3c3.8-7.5,2.2-13.9-2.2-17.9
		C1475.3,1414.9,1468.5,1413.2,1461.7,1413.9z"/>
	<path class="st9" d="M1528.5,1399.4c-0.2,0-0.5,0.1-0.7,0.2c-0.3,0.2-0.5,0.5-0.6,0.8c-0.1,0.3,0,0.7,0.1,1
		c2.6,4.4,4.2,8.6,2.7,12.4c-1.4,3.9-6.1,7.9-17,11.8c0,0,0,0,0,0c-31.1,11.8-64.5,32.4-96.6,48.6c-0.6,0.3-0.9,1.1-0.6,1.7
		c0.2,0.3,0.4,0.5,0.7,0.6s0.7,0.1,1-0.1c32.2-16.2,65.6-36.9,96.3-48.5l0,0c11.2-3.9,16.6-8.3,18.5-13.3c1.9-5-0.2-10-2.9-14.6
		C1529.3,1399.6,1528.9,1399.4,1528.5,1399.4z"/>
	<path class="st9" d="M1546.3,1416.7c-0.2,0-0.4,0-0.5,0.1c-28.9,14.3-57.6,28.7-89.1,40.3c-0.7,0.2-1,1-0.8,1.6
		c0.1,0.3,0.4,0.6,0.7,0.7c0.3,0.1,0.7,0.2,1,0c31.6-11.7,60.5-26.1,89.3-40.4c0.3-0.2,0.5-0.4,0.6-0.7c0.1-0.3,0.1-0.7-0.1-1
		C1547.3,1416.9,1546.8,1416.6,1546.3,1416.7z"/>
	<path class="st6" d="M812.4,1469.7c2.2,34.5,16.1,74,24.4,111.1c44.7-28.8,83.3-74.3,135.5-83.1c23.7,3.7,110.6-22.4,157.9-57
		c19.8-14.6,33.1-37.1,55.7-44c30.2-9.3,50.7,1.8,73.4,8.4l29.4,8.5l67.7-11.6c4.8-12.6-9.8-14-18.4-18.9
		c10.5-2.1,14.6-13.8,3.5-18.2l-78.6-31.8c-10.3-4.2-17.1-5.3-24.6-4l-77.1,12.9c-14.5-0.9-30.2-7.3-43-0.4
		c-50.1,32.3-115.2,52.1-176.3,75.3C895.2,1429.9,855.7,1452.1,812.4,1469.7z"/>
	<path class="st9" d="M1161.3,1340.8c-0.6,0-1.2,0.5-1.2,1.2c0,0.7,0.5,1.3,1.2,1.4c15.3,1,32.8,0.3,49.2,0.2
		c16.4-0.2,31.7,0.3,42.7,3.4l84.5,37.4c0.6,0.3,1.4,0,1.7-0.6c0.3-0.6,0-1.4-0.6-1.7l-84.6-37.5c-0.1,0-0.1,0-0.2-0.1
		c-11.5-3.3-27-3.7-43.5-3.5c-16.5,0.2-33.9,0.9-49-0.1C1161.4,1340.8,1161.4,1340.8,1161.3,1340.8z"/>
	<path class="st9" d="M1209.4,1346.6C1209.4,1346.6,1209.4,1346.7,1209.4,1346.6c-28.1,2.3-58.5,4.5-83.4,6.8c-0.1,0-0.2,0-0.3,0.1
		c-12.5,4.5-23.2,16.9-34.3,25.1c-0.6,0.4-0.7,1.2-0.3,1.8c0.2,0.3,0.5,0.5,0.8,0.5s0.7,0,0.9-0.2c11.5-8.4,22.1-20.5,33.6-24.7
		c24.7-2.2,54.8-4.5,82.6-6.7c4.8,2.6,6.4,7.2,5.4,11.6c-0.9,4.5-4.5,8.8-10,10.2c-22.1,5.7-47.7,4.6-69.9,16.2
		c-0.1,0.1-0.2,0.1-0.3,0.2l-25.7,25.7c-0.2,0.2-0.4,0.6-0.4,0.9c0,0.3,0.1,0.7,0.4,0.9c0.2,0.2,0.6,0.4,0.9,0.4s0.7-0.1,0.9-0.4
		l25.5-25.5c21.4-11.1,46.6-10.2,69.2-15.9c6.5-1.7,10.8-6.7,11.9-12.2c1.1-5.5-1-11.5-6.9-14.6
		C1209.8,1346.7,1209.6,1346.6,1209.4,1346.6z"/>
	<path class="st9" d="M1215.7,1353.7c-0.5,0-1,0.3-1.2,0.8c-0.1,0.3-0.1,0.7,0,1s0.4,0.5,0.7,0.7l101.2,38c1.7,1.3,3.2,2.7,3.9,4.5
		c0.8,1.9,1,4.5-0.2,8.4c-0.1,0.3-0.1,0.7,0.1,1s0.4,0.5,0.8,0.6c0.7,0.2,1.4-0.2,1.6-0.9c1.3-4.3,1.2-7.6,0.1-10.1
		c-1-2.5-2.9-4.3-4.8-5.7c-0.1-0.1-0.2-0.1-0.3-0.2l-101.5-38.1C1216,1353.7,1215.9,1353.6,1215.7,1353.7z"/>
	<path class="st9" d="M1161.5,1396.1c-0.2,0-0.4,0.1-0.6,0.1c-15.2,7.8-31.4,18.3-49.9,29.3c-16.1,9.6-36.6,15.6-48.3,28.5
		c-0.5,0.5-0.4,1.3,0.1,1.8c0.5,0.5,1.3,0.4,1.8-0.1c11-12.1,31.3-18.2,47.8-28c18.4-11,34.5-21.3,49.4-29l16.3,1.6
		c0.3,0,0.7-0.1,0.9-0.3c0.3-0.2,0.4-0.5,0.5-0.9c0.1-0.7-0.4-1.3-1.1-1.4l-16.7-1.7C1161.6,1396.1,1161.6,1396.1,1161.5,1396.1z"/>
	<path class="st8" d="M74,1043.9c76.3,20.8,142.5,120.8,199.4,293.9C219.9,1229,189.5,1101.1,74,1043.9z"/>
	<path class="st8" d="M280.7,1711.7c59.4,38.4,97.7,122.9,180.1,55.3C381.2,1813.4,340.3,1747.3,280.7,1711.7z"/>
	<path class="st8" d="M460.8,1767c130.4-26.5,261.4-59.6,393.2-100L460.8,1767z"/>
	<path class="st8" d="M836.9,1580.8c7.7,27.7,19.7,53.3,17.1,86.2C844.6,1636.2,841.8,1609.1,836.9,1580.8z"/>
	<path class="st8" d="M812.4,1469.7c-35.5,8.1-155.4,63.5-237.5,84.3C655.7,1526.7,806.1,1458.9,812.4,1469.7z"/>
	<path class="st8" d="M575,1553.9c-50.2,13.3-130.1,10.5-122.4,23.8C463.3,1568.7,529.6,1572.4,575,1553.9z"/>
	<path class="st8" d="M452.6,1577.7c-53.9-21.6-92.9-2.1-121.4,46.7C363.2,1586.2,403,1568.9,452.6,1577.7z"/>
	<path class="st8" d="M273.4,1337.8c18.5,40.2,28.5,78.2,60.7,122.1C312.6,1414.2,286.1,1348.4,273.4,1337.8z"/>
	<path class="st8" d="M334.1,1459.9c32.3,40.2,61.5,94.3,98.7,112C396.7,1542.3,366.6,1498.3,334.1,1459.9z"/>
	<path class="st8" d="M108.8,1117.1c30.8,20.4,61.8,44,94,90.4L108.8,1117.1z"/>
	<path class="st8" d="M109.9,1188.8c45.6,16.1,90.1,45.4,132.9,91.9L109.9,1188.8z"/>
	<path class="st8" d="M780.6,1111.1c-1.4,90,43.3,218.9,15.4,357.6C830.9,1389.1,798.9,1223.8,780.6,1111.1z"/>
	<path class="st8" d="M807.8,1404.5c2.6,20.1-3.2,40.5,12.1,60.2L807.8,1404.5z"/>
	<path class="st8" d="M860.7,1568.3c9.1,10.5,9.3,21.4,6,32.5L860.7,1568.3z"/>
	<path class="st8" d="M866.7,1600.8c74.1,73.5,57,99.2,31.9,120.7C933.7,1670.4,889,1638.3,866.7,1600.8z"/>
	<path class="st8" d="M898.6,1721.5c13.4,6.2,12.6,27.9,14.9,46.1L898.6,1721.5z"/>
	<path class="st8" d="M898.6,1721.5c-72.2,19.4-145.8,3.8-219.4-9C754.2,1720.5,829.1,1728.5,898.6,1721.5z"/>
	<path class="st8" d="M460.8,1767c97.3,16.2,339.5,17.9,450.6-8.7C762.7,1773.4,611.2,1766,460.8,1767z"/>
	<path class="st8" d="M570.6,1028.9c-7.3,235.6-111.5,346.4-196.8,481.8C462.6,1356.9,557.8,1220.1,570.6,1028.9z"/>
	<path class="st8" d="M594.1,983.3c50.8,170.7,88,346-19.1,570.6C643.9,1382.5,653.3,1206.1,594.1,983.3z"/>
	<path class="st8" d="M974.9,1562.4c-33,2.4-34.7,47.9-31.9,99.5C946.4,1622.4,946,1579.4,974.9,1562.4z"/>
	<path class="st8" d="M1028.1,1561.3c-23,24.5-14.3,57.2-3.7,90.3C1020,1621.3,1011.9,1590.7,1028.1,1561.3z"/>
	<path class="st8" d="M951.4,1535.2c-39.1,14.4-70.9,33.7-84.6,65.6C886.7,1571.4,918.9,1553.2,951.4,1535.2z"/>
	<path class="st8" d="M868.7,1288.8c8.9,86.5-23.1,119.9-52.1,157.2C843.7,1404.1,866.8,1357.9,868.7,1288.8z"/>
	<path class="st8" d="M294.2,1805.2c123.7,31,240.1-3.7,330.7-33.8C523.7,1794.4,425.7,1821.7,294.2,1805.2z"/>
	<path class="st8" d="M291.1,1759.5c15.6,5.6,31.1,4.1,46.7-5C323.7,1759.1,308.1,1760.7,291.1,1759.5z"/>
	<path class="st0" d="M1562.7,867.3c2-12.9,7.6-17.7,13.6-16.9l190.3,25.2c6.8,0.9,6.4,10.6,4.9,19.5l-77.4,462.4
		c-2.9,17.3-9.7,19.6-35.8,24.4l-112,15.2c-7.7-1.3-12.4,1.7-17.9,3.6c-10.6-2.1-40.3,8.1-61.7,13l-94.8,18.6
		c-38.9,3.8-80.9,10.7-132.9,27.6l-251.6,27c-10.5,1.1-16.8-3.4-16.6-14.5l500.1-90.9c4.6-0.8,8.2-1.3,11.8-1.1L1562.7,867.3z"/>
	<path class="st5" d="M1575.2,850.3c-5.5-0.1-10.6,4.8-12.5,17l-80,513c-3.6-0.2-7.1,0.3-11.8,1.1l-500.1,90.9
		c-0.1,7,2.3,11.4,6.8,13.4l494.8-87.7c4.2-0.7,8-0.7,10.9-2.3c1.4,1.5,4.2,2.6,7,1.2l80.6-534.8c0.7-4.8,2.9-8.5,5.5-11.7l-0.2,0
		C1575.9,850.4,1575.6,850.3,1575.2,850.3z"/>
	<g>
		<g>
			<g>
				<path class="st9" d="M345,858.7c28.9,47.4,79.5,54.1,141.2,39.7C434.6,901.1,383.6,901.5,345,858.7z"/>
			</g>
		</g>
	</g>
	<g>
		<circle class="st5" cx="452" cy="688" r="17.9"/>
		<circle class="st5" cx="566" cy="688" r="17.9"/>
		<path class="st5" d="M446.8,643c-9.6-0.6-19.6,0.2-29.8,3.3c-1.1,0.3-2.1,1.1-2.6,2.2c-0.6,1-0.7,2.3-0.3,3.4
			c0.3,1.1,1.1,2.1,2.2,2.6c1,0.6,2.3,0.7,3.4,0.3c18.1-5.5,35.6-3,52.4,1.8c2.4,0.7,4.8-0.7,5.5-3c0.7-2.4-0.7-4.8-3-5.5
			C465.7,645.6,456.4,643.6,446.8,643z"/>
		<path class="st5" d="M580.8,642.8c-12.6-0.4-24.6,2-35.9,5.2c-2.4,0.7-3.7,3.1-3,5.5c0.7,2.4,3.1,3.7,5.5,3
			c14.3-4.1,29.3-6.5,44.5-3.7c2.4,0.4,4.7-1.1,5.2-3.6c0.2-1.2,0-2.4-0.7-3.3c-0.7-1-1.7-1.6-2.9-1.9
			C589.3,643.4,585,643,580.8,642.8z"/>
		<g>
			<path class="st9" d="M516.7,678.2c-1.4,0-2.7,1-3,2.4c0,0-4.9,24.2,8.3,48.4c2.8,5.2,4.6,10.1,5.1,14.2c0.6,4.1-0.1,7.4-1.8,9.9
				c-1.7,2.5-4.6,4.4-9.6,5.4c-5,1-11.9,0.9-20.9-0.7c-0.8-0.1-1.6,0-2.2,0.5c-0.6,0.4-1.1,1.1-1.2,1.9c-0.3,1.6,0.8,3.2,2.4,3.4
				c9.5,1.7,17.1,1.9,23.1,0.7c6-1.2,10.6-3.9,13.3-7.8c2.7-3.9,3.4-8.9,2.7-14c-0.7-5.1-2.7-10.6-5.8-16.3
				c-12.1-22.2-7.7-44.3-7.7-44.3c0.2-0.8,0-1.6-0.4-2.2c-0.4-0.7-1.1-1.1-1.9-1.3C517,678.3,516.9,678.2,516.7,678.2z"/>
			<path class="st10" d="M538.5,787.1c-7.5,23.8-36.1,31.1-52.5,0.4C501.6,793.4,526.7,796.2,538.5,787.1z"/>
		</g>
	</g>
	<path class="st5" d="M608.9,703.4c-9.5-62.3-27.9-145.8-82.1-169c-47.3,102.9-115,175-227.5,179.3V522.5h304.9l10.9,12.2
		L608.9,703.4z"/>
	<path class="st5" d="M526.7,533.7c0.1,0,0.1,0,0.2,0c0.2,0.1,0.3,0.2,0.4,0.3c0.1,0.1,0.1,0.3,0,0.5
		c-24.5,75.8-60.6,124.1-105.5,151.8c-44.9,27.7-98.5,34.8-157.7,28.3c-0.2,0-0.3-0.1-0.4-0.2c-0.1-0.1-0.2-0.3-0.1-0.5
		c0-0.3,0.3-0.6,0.7-0.6c59.1,6.5,112.3-0.6,156.9-28.2c44.6-27.5,80.6-75.6,105-151.1C526.2,533.9,526.5,533.7,526.7,533.7z"/>
	<path class="st5" d="M355.8,424.1c3.5,0.1,7.1,0.3,10.7,0.6c0.3,0,0.6,0.3,0.6,0.7c0,0.2-0.1,0.3-0.2,0.4c-0.1,0.1-0.3,0.2-0.5,0.1
		c-57.6-4.8-100.5,18.8-132,58.4c-31.5,39.6-51.5,95.3-63.1,154.5c-11.6,59.1-14.7,121.7-12.5,175.2c2.2,53.5,9.8,97.8,19.6,120.3
		c0.1,0.3,0,0.7-0.3,0.8c-0.3,0.1-0.7,0-0.8-0.3c-9.9-22.8-17.5-67.2-19.7-120.7c-2.2-53.5,0.9-116.2,12.5-175.5
		c11.6-59.3,31.7-115.1,63.4-155C263.1,446.2,303.1,422.9,355.8,424.1z"/>
	<path class="st5" d="M527.1,523.8C527.1,523.8,527.1,523.8,527.1,523.8c0.4,0,0.7,0.3,0.6,0.7c0,0-4.1,42-25.9,84.2
		c-21.8,42.2-61.3,84.7-131.9,85.4c-0.3,0-0.6-0.3-0.6-0.6c0-0.3,0.3-0.6,0.6-0.6c70.1-0.7,109.1-42.8,130.8-84.7
		c21.6-42,25.8-83.8,25.8-83.8C526.5,524,526.7,523.8,527.1,523.8z"/>
</g>
<g id="Layer_1">
	<g>
		<g>
			<path class="st11" d="M272.3,1262.1c8.7,27.9,18.7,55.3,31.8,81.4c16,31.7,37.6,63.3,69.1,81.2c37.6,21.3,80,11.2,114.8-10.8
				c6.9-4.3,0.1-14.9-6.8-10.6c-18.3,11.6-38.7,20.4-60.6,20.9c-17.1,0.4-33.4-5.2-47.6-14.5c-29.3-19-48.7-52.2-63.1-83.2
				c-10.3-22.1-18.3-45.1-25.6-68.3C281.9,1250.6,269.9,1254.3,272.3,1262.1L272.3,1262.1z"/>
		</g>
		<g>
			<path class="st11" d="M394.8,1240.4c6.6,28,12.1,56.3,13.9,85c2.1,34.4,0,72.4-19.5,102c-19.8,30.1-55.6,39.1-89.8,38.1
				c-8.1-0.2-8.6,12.4-0.5,12.6c41.1,1.1,81.7-11.6,103.7-48.4c18.6-31,20.8-69.8,18.6-104.9c-1.8-29.5-7.4-58.6-14.2-87.3
				C405.2,1229.6,393,1232.4,394.8,1240.4L394.8,1240.4z"/>
		</g>
		<g>
			<path class="st11" d="M291.3,1290.7c3.6-15.4,9.9-30.2,21.4-40.9c9.3-8.7,22-12.3,34.5-12.4c20.8-0.3,44.2,10.5,54.9,30
				c0.7,1.3,6.9-2.5,6.1-4c-12.4-22.4-40.2-32.5-63.6-29.9c-31.7,3.5-52.4,30.1-59.5,60.6C284.9,1294.9,290.9,1292.7,291.3,1290.7
				L291.3,1290.7z"/>
		</g>
		<path d="M489.5,1393.4c4.3,0.1,10.2,8.9,9.5,13c-0.7,4-10.7,9-14.7,8.3c-3.1-0.5-8-6.7-7.2-9.8
			C478.1,1400.9,485.4,1393.2,489.5,1393.4z"/>
		<path d="M288.1,1463.1c-3.4,2.5-3.3,13.1-0.4,16.2c2.8,2.9,13.9,1.3,16.8-1.6c2.3-2.2,2.7-10.1,0.3-12.2
			C301.8,1462.8,291.4,1460.7,288.1,1463.1z"/>
		<g>
			<path class="st12" d="M299.1,1036c-0.3-36,1.9-74,34.3-94.9c2.7-7.5,7.7-5.8,9.6-20.2c-0.2-0.4,2-8.6,1.8-9
				c-40.3,21.9-63.8,76.4-64.6,118.7c-0.9,47.3,9,95.6,23.8,140.5c-11.6,6.3-21.3,15.6-27.5,28.1c-9.6,19.2-9.5,42-7,62.7
				c6.2-0.9,12.5-1.7,18.6-2.8c-1.8-15.7-2.4-32.5,3.4-47.4c7-17.9,22.7-27,40.8-31c34.1-7.6,56.5,31.4,58.7,60.3
				c6.3-0.3,12.5-1.5,18.7-2.8c-3.8-38.2-33.3-83.6-76.6-76.8c-3.9,0.6-7.8,1.5-11.6,2.5C308.2,1122.8,299.5,1079.4,299.1,1036z"/>
		</g>
	</g>
	<g>
		<g>
			<g>
				<path class="st13" d="M639.6,1186.1c4.6,21.3-9,42.2-30.3,46.8s-42.2-9-46.8-30.3s9-42.2,30.3-46.8
					C614.1,1151.3,635,1164.8,639.6,1186.1z"/>
				<g>
					<path d="M637.9,1187c4.2,21.9-10.1,43.3-32.8,45.6c-19.4,2-36.5-12.5-40.9-30.8c-5.2-21.8,10.9-43.4,32.8-45.6
						C616.5,1154.2,633.6,1168.6,637.9,1187c0.2,0.8,3.6-0.5,3.4-1.7c-5.5-23.1-28.7-36-51.3-29.6c-20.7,5.9-33.1,26.9-29.1,47.8
						c4.5,23.4,29.4,35.8,51.3,29.6c20.7-5.9,33.1-26.9,29.1-47.8C641.1,1184.4,637.7,1185.7,637.9,1187z"/>
				</g>
			</g>
			<g>
				<path class="st13" d="M621.5,1189c2.4,11.4-4.8,22.6-16.2,25c-11.4,2.4-22.6-4.8-25-16.2c-2.4-11.4,4.8-22.6,16.2-25
					C607.8,1170.4,619,1177.7,621.5,1189z"/>
				<g>
					<path d="M618.1,1190.8c1.9,11.1-4.7,22.3-17,21.5c-8.9-0.6-15.4-8-17.5-16.1c-2.8-11.1,5.5-22.3,17-21.5
						C609.5,1175.3,616,1182.6,618.1,1190.8c0.4,1.7,7.3-1.1,6.7-3.4c-7.6-29.6-52.8-16.3-47.9,12.3c2.3,13.4,17.8,19.9,29.8,15.8
						c12.2-4.2,20.4-14.9,18.1-28C624.6,1185.7,617.7,1188.3,618.1,1190.8z"/>
				</g>
			</g>
		</g>
		<g>
			
				<rect x="586.7" y="1142.1" transform="matrix(0.9779 -0.2093 0.2093 0.9779 -229.1607 149.5968)" class="st13" width="11.4" height="31.2"/>
			<g>
				<path d="M595.1,1140c-3.7,0.8-7.4,1.6-11.1,2.4c-0.7,0.1-2.4,0.8-2.2,1.8c2.2,10.2,4.4,20.4,6.5,30.6c0.1,0.6,0.7,0.8,1.3,0.7
					c3.7-0.8,7.4-1.6,11.1-2.4c0.7-0.1,2.4-0.8,2.2-1.8c-2.2-10.2-4.4-20.4-6.5-30.6c-0.4-1.6-3.8-0.2-3.5,1.2
					c2.2,10.2,4.4,20.4,6.5,30.6c0.7-0.6,1.5-1.2,2.2-1.8c-3.7,0.8-7.4,1.6-11.1,2.4c0.4,0.2,0.9,0.5,1.3,0.7
					c-2.2-10.2-4.4-20.4-6.5-30.6c-0.7,0.6-1.5,1.2-2.2,1.8c3.7-0.8,7.4-1.6,11.1-2.4C595.7,1142.2,597.5,1139.5,595.1,1140z"/>
			</g>
		</g>
		<g>
			<g>
				<path class="st12" d="M567.9,1018.7c-7.2-20.8-15.7-41.2-28.7-59c-9.6-13.2-24-25-41.1-24.9c-3.2,0-5.6,1.3-7.2,3.2
					c0.1,0.3-2.2,0.2-2.2,0.5c3.3,6.2,6.1,10.4,9.3,15.1c3.2,0,3.5,0.1,6.5,1c3.3,1,4.3,1.6,7.9,4.2c4.4,3.1,10.5,10,14,15.2
					c11.4,16.8,18.9,36.3,25.3,55.4c12.6,38,20.2,77.4,28.4,116.6c0.1,0.4,0.2,0.8,0.3,1.2c6.2,0.5,12.4-1,18.4-2.9
					c0-0.7-0.1-1.5-0.2-2.3C590,1100.6,581.8,1058.9,567.9,1018.7z"/>
			</g>
		</g>
	</g>
</g>
</svg>
