<?xml version="1.0" encoding="utf-8"?>
<!-- Generator: Adobe Illustrator 24.2.1, SVG Export Plug-In . SVG Version: 6.00 Build 0)  -->
<svg version="1.1" id="Layer_1" xmlns="http://www.w3.org/2000/svg" xmlns:xlink="http://www.w3.org/1999/xlink" x="0px" y="0px"
	 viewBox="0 0 150.5 49.3" style="enable-background:new 0 0 150.5 49.3;" xml:space="preserve">
<style type="text/css">
	.st0{fill-rule:evenodd;clip-rule:evenodd;fill:#253759;}
</style>
<desc>Created with Sketch.</desc>
<g id="Page-1">
	<g id="Journal-Assets" transform="translate(-20.000000, -20.000000)">
		<g id="logo" transform="translate(20.000000, 20.000000)">
			<path id="Shape" class="st0" d="M13.2,43c-0.6,1.1-1.3,2.1-2.2,2.9c-1,1-2,1.7-3.2,2.4c-1.2,0.7-2.4,1-3.5,1
				c-0.5,0-1-0.1-1.5-0.2s-1-0.3-1.4-0.7c-0.4-0.2-0.7-0.7-1-1S0,46.6,0,46c0-0.7,0.2-1.3,0.7-1.8s1.1-0.7,1.9-0.7
				c0.7,0,1.3,0.2,1.6,0.7c0.3,0.4,0.7,0.9,0.7,1.5c0.2,0.5,0.4,1,0.7,1.5c0.2,0.4,0.7,0.7,1.2,0.7c0.7-0.1,1.2-0.4,1.5-0.9
				c0.4-0.4,0.7-1,0.8-1.6c0.2-0.7,0.3-1.3,0.3-2c0.1-0.7,0.1-1.4,0.1-2.1c0.1-1.3,0.1-2.6,0.1-3.9v-2.9V18.1c0-0.2,0-0.4-0.1-0.6
				S9.4,17.3,9.2,17c-0.2-0.2-0.7-0.5-1.3-0.8c-0.6-0.3-1.1-0.6-1.5-0.8V15l7.1-2.8h0.3V15v4.9v5.9v6v5.1v3.2
				C14,40.9,13.8,41.9,13.2,43L13.2,43z M13.6,6.3c-0.5,0.5-1.2,0.7-2,0.7s-1.4-0.2-2-0.8C9,5.6,8.8,5,8.8,4.2s0.2-1.5,0.7-2
				s1.2-0.7,2-0.7c0.7,0,1.5,0.2,2,0.7c0.5,0.5,0.7,1.2,0.7,2C14.4,5.1,14.1,5.7,13.6,6.3L13.6,6.3z"/>
			<path id="Shape_1_" class="st0" d="M41.9,29.3c-0.7,1.5-1.5,2.9-2.6,4c-1.1,1.2-2.4,2.1-3.8,2.7s-2.9,1-4.6,1
				c-1.3,0-2.7-0.2-4.1-0.7c-1.5-0.5-2.7-1.2-3.9-2.3c-1.2-1-2.2-2.4-2.9-4c-0.7-1.6-1.2-3.5-1.2-5.7c0-1.6,0.3-3.1,0.9-4.6
				c0.6-1.5,1.5-2.8,2.5-3.9c1.1-1.2,2.4-2.1,3.9-2.7c1.5-0.7,3.2-1,5-1c1.3,0,2.7,0.2,4.1,0.7c1.4,0.5,2.6,1.3,3.8,2.3
				s2.1,2.3,2.8,3.8s1.1,3.3,1.1,5.3C42.9,26.2,42.7,27.8,41.9,29.3L41.9,29.3z M37.8,20.7c-0.2-1.3-0.7-2.5-1.3-3.7
				s-1.3-2.1-2.3-2.8c-1-0.7-2.1-1.1-3.5-1.1c-1.2,0-2.1,0.3-3,1c-0.9,0.7-1.6,1.6-2.3,2.6c-0.7,1.1-1.1,2.4-1.5,3.8
				c-0.3,1.4-0.5,2.8-0.5,4.3c0,1.6,0.1,3,0.4,4.4s0.7,2.6,1.3,3.7c0.7,1.1,1.4,1.9,2.4,2.5c1,0.7,2.1,1,3.5,1
				c1.4,0,2.5-0.4,3.4-1.2s1.6-1.8,2.2-3c0.6-1.2,1-2.5,1.2-3.9c0.2-1.4,0.4-2.6,0.4-3.9C38.2,23.2,38.1,22,37.8,20.7L37.8,20.7z"/>
			<path id="Shape_2_" class="st0" d="M62.5,37h-0.4v-5.1l-0.1-0.1c-0.4,0.6-0.8,1.2-1.4,1.8c-0.6,0.7-1.2,1.2-1.8,1.8
				c-0.7,0.5-1.5,1-2.3,1.3s-1.7,0.4-2.6,0.4c-2.1,0-3.8-0.7-4.8-2c-1-1.3-1.6-3.2-1.6-5.7V16.9v-0.6c0-0.2,0-0.5-0.1-0.7
				c0-0.2,0-0.5-0.1-0.7c0-0.2-0.1-0.4-0.1-0.5c-0.1-0.3-0.3-0.5-0.6-0.7c-0.2-0.1-0.5-0.2-0.8-0.3c-0.3-0.1-0.7-0.1-1-0.1
				s-0.7-0.1-1-0.1v-0.6h7.9v15c0,2.2,0.3,3.9,1,5c0.7,1.1,2,1.6,3.9,1.6c0.7,0,1.3-0.1,1.9-0.2c0.5-0.2,1-0.4,1.5-0.7
				c0.4-0.3,0.8-0.7,1.2-1s0.7-0.7,1-1.2V16.5c0-0.3-0.1-0.7-0.1-1.3c-0.1-0.5-0.2-1-0.4-1.2c-0.4-0.2-1-0.3-1.6-0.4
				c-0.7-0.1-1.4-0.2-2.1-0.2v-0.6h8.5V33c0,0.2,0,0.5,0.1,0.7c0.1,0.1,0.2,0.3,0.4,0.4c0.3,0.2,0.7,0.4,1.3,0.7
				c0.6,0.2,1.1,0.5,1.5,0.7v0.3L62.5,37L62.5,37z"/>
			<path id="Shape_3_" class="st0" d="M88,16.8c-0.4,0.5-1,0.7-1.5,0.7c-0.6,0-1-0.1-1.3-0.2c-0.3-0.2-0.7-0.4-0.8-0.7
				c-0.2-0.2-0.5-0.4-0.7-0.7c-0.2-0.2-0.7-0.2-1.2-0.2c-0.4,0-0.8,0.1-1.2,0.4c-0.4,0.3-0.7,0.7-1.1,1.1c-0.3,0.4-0.7,1-1,1.5
				c-0.2,0.6-0.5,1.1-0.7,1.6v14.7c0.1,0.3,0.3,0.6,0.7,0.7c0.3,0.2,0.7,0.3,1.2,0.4c0.4,0.1,0.9,0.1,1.3,0.1s0.9,0.1,1.2,0.1v0.5
				H71.3v-0.6c0.7-0.1,1.5-0.2,2.1-0.4c0.6-0.2,0.8-0.7,0.8-1.2V17.6c0-0.2,0-0.5-0.1-0.7c-0.1-0.1-0.2-0.3-0.4-0.4
				c-0.3-0.2-0.7-0.4-1.1-0.7c-0.4-0.2-0.8-0.4-1.2-0.7v-0.3l6.7-2.6h0.3l-0.1,7.1h0.1c0.2-0.4,0.4-1,0.8-1.8
				c0.4-0.7,0.8-1.6,1.5-2.4c0.6-0.8,1.3-1.5,2.1-2.1c0.8-0.5,1.8-0.9,2.8-0.9c0.8,0,1.6,0.2,2.1,0.7c0.6,0.5,0.9,1.2,0.9,2
				C88.6,15.7,88.4,16.3,88,16.8L88,16.8z"/>
			<path id="Shape_4_" class="st0" d="M104.6,36.9v-0.6c1-0.1,1.6-0.2,2.2-0.3c0.6-0.1,0.8-0.5,0.8-1.1V22.1c0-2-0.4-3.5-1.2-4.8
				c-0.7-1.2-2.1-1.8-3.8-1.8c-1.2,0-2.1,0.2-2.8,0.7c-0.7,0.5-1.6,1.2-2.5,2.1V35c0.1,0.3,0.2,0.6,0.4,0.7c0.2,0.1,0.4,0.2,0.7,0.3
				c0.2,0.1,0.5,0.1,0.8,0.1c0.3,0,0.7,0.1,1,0.1v0.5h-9.9v-0.5c0.7-0.1,1.5-0.2,2.1-0.4s0.8-0.7,0.8-1.2V17.2c0-0.2,0-0.5-0.1-0.7
				c-0.1-0.1-0.2-0.3-0.4-0.4c-0.3-0.2-0.7-0.4-1.1-0.6c-0.4-0.2-0.8-0.4-1.2-0.6v-0.3l6.7-2.4h0.3v5.5l0.1,0.1
				c0.4-0.6,0.8-1.2,1.4-1.8c0.6-0.7,1.2-1.3,1.9-1.8c0.7-0.6,1.5-1,2.4-1.3c0.8-0.4,1.7-0.5,2.6-0.5c2,0,3.5,0.7,4.6,2.2
				c1.1,1.5,1.6,3.4,1.6,5.7v15c0,0.2,0.1,0.4,0.3,0.7c0.1,0.2,0.5,0.3,0.7,0.4c0.3,0.1,0.7,0.1,1,0.2c0.4,0.1,0.7,0.1,1,0.1v0.4
				h-10.4L104.6,36.9L104.6,36.9z"/>
			<path id="Shape_5_" class="st0" d="M137.4,33.8c-0.2,0.7-0.7,1.2-1.1,1.6c-0.4,0.4-1,0.9-1.6,1.2c-0.6,0.2-1.3,0.4-2,0.4
				c-1.2,0-2.2-0.3-3.1-1c-0.9-0.7-1.3-1.9-1.3-3.5l-0.1-0.1c-0.2,0.4-0.7,1-1.1,1.5c-0.4,0.6-1,1.1-1.6,1.5
				c-0.7,0.5-1.3,0.9-2.1,1.2c-0.7,0.3-1.6,0.4-2.5,0.4c-0.6,0-1.1-0.1-1.6-0.2c-0.6-0.1-1.1-0.4-1.5-0.8c-0.4-0.4-0.8-0.9-1.2-1.5
				s-0.4-1.3-0.4-2.2c0-1,0.4-1.9,1.2-2.8c0.7-0.9,1.7-1.7,2.9-2.4c1.2-0.7,2.1-1.3,2.9-1.8c0.9-0.5,1.6-1,2.3-1.3
				c0.7-0.4,1.2-0.7,1.7-1c0.5-0.2,0.9-0.5,1.3-0.7V17c0-0.1-0.1-0.2-0.2-0.5c-0.1-0.2-0.3-0.5-0.7-0.7c-0.3-0.2-0.7-0.5-1.2-0.7
				c-0.5-0.2-1.2-0.3-2-0.3c-0.6,0-1.1,0.1-1.6,0.2c-0.5,0.2-1,0.4-1.4,0.7c-0.4,0.3-0.7,0.6-1,0.9c-0.2,0.3-0.4,0.5-0.4,0.7v2.3
				c0,0.5-0.2,0.9-0.7,1.3c-0.5,0.4-1,0.6-1.6,0.6c-0.6,0-1-0.2-1.4-0.6c-0.4-0.4-0.6-0.8-0.6-1.3c0-0.4,0.1-0.7,0.3-1.2
				c0.2-0.3,0.4-0.7,0.7-1c0.3-0.2,0.7-0.5,1-0.7c0.4-0.2,0.7-0.4,1-0.6c0.9-0.5,1.8-1,2.7-1.5c1-0.5,1.8-0.9,2.6-1.2
				c0.8-0.3,1.6-0.7,2.3-0.8c0.7-0.2,1.3-0.3,1.7-0.3c0.9,0,1.7,0.2,2.5,0.7c0.7,0.4,1.3,1,1.7,1.7c0.1,0.2,0.2,0.7,0.2,1.3
				c0.1,0.6,0.1,1.2,0.1,1.8V21v2.9v2.9v3.2c0,1.5,0.2,2.5,0.7,3c0.5,0.5,1.2,0.7,1.8,0.7c0.7,0,1.3-0.2,1.7-0.5
				c0.4-0.3,0.7-0.7,0.7-1.3h0.3C137.9,32.6,137.7,33.2,137.4,33.8L137.4,33.8z M128.4,23c-0.7,0.4-1.4,0.9-2.3,1.4
				c-1,0.5-1.8,1-2.6,1.6c-0.9,0.6-1.6,1.2-2.2,1.9c-0.7,0.7-1,1.5-1,2.4c0,0.9,0.3,1.7,1,2.4c0.7,0.7,1.4,1.1,2.4,1.1
				c0.9,0,1.6-0.1,2.4-0.3c0.7-0.2,1.3-0.6,1.9-1.2c0.4-0.4,0.7-0.8,0.7-1.5V23H128.4z"/>
			<path id="Shape_6_" class="st0" d="M138.7,36.9v-0.6c1.6-0.1,2.6-0.2,3.1-0.5c0.5-0.2,0.7-0.7,0.7-1.2V5.4c0-0.2,0-0.5-0.1-0.7
				s-0.2-0.3-0.4-0.4c-0.3-0.2-0.7-0.4-1.4-0.7c-0.7-0.4-1.2-0.7-1.5-0.7V2.4l7.3-2.4h0.4v34.9c0,0.3,0.1,0.6,0.2,0.7
				c0.1,0.2,0.4,0.3,0.7,0.4c0.3,0.1,0.7,0.1,1.2,0.1c0.5,0,1,0.1,1.7,0.1v0.6H138.7L138.7,36.9z"/>
			<rect id="_x2D_--" x="18.8" y="43.8" class="st0" width="131.8" height="2.1"/>
		</g>
	</g>
</g>
</svg>
