<?xml version="1.0" encoding="utf-8"?>
<!-- Generator: Adobe Illustrator 24.2.1, SVG Export Plug-In . SVG Version: 6.00 Build 0)  -->
<svg version="1.1" id="_x2018_ëîé_x5F_1" xmlns="http://www.w3.org/2000/svg" xmlns:xlink="http://www.w3.org/1999/xlink"
	 x="0px" y="0px" viewBox="0 0 399.9 162.7" style="enable-background:new 0 0 399.9 162.7;" xml:space="preserve">
<style type="text/css">
	.st0{opacity:0.2;}
	.st1{fill:url(#SVGID_1_);}
	.st2{fill:url(#SVGID_2_);}
	.st3{fill:url(#SVGID_3_);}
	.st4{fill:url(#SVGID_4_);}
	.st5{fill:url(#SVGID_5_);}
	.st6{fill:url(#SVGID_6_);}
	.st7{fill:url(#SVGID_7_);}
	.st8{fill:url(#SVGID_8_);}
	.st9{fill:url(#SVGID_9_);}
	.st10{fill:url(#SVGID_10_);}
	.st11{fill:url(#SVGID_11_);}
	.st12{fill:url(#SVGID_12_);}
	.st13{fill:url(#SVGID_13_);}
	.st14{fill:url(#SVGID_14_);}
	.st15{fill:url(#SVGID_15_);}
	.st16{fill:url(#SVGID_16_);}
	.st17{fill:url(#SVGID_17_);}
	.st18{fill:url(#SVGID_18_);}
	.st19{fill:url(#SVGID_19_);}
	.st20{fill:url(#SVGID_20_);}
	.st21{fill:url(#SVGID_21_);}
	.st22{fill:url(#SVGID_22_);}
	.st23{fill:url(#SVGID_23_);}
	.st24{fill:url(#SVGID_24_);}
	.st25{fill:url(#SVGID_25_);}
	.st26{fill:url(#SVGID_26_);}
	.st27{fill:url(#SVGID_27_);}
	.st28{fill:url(#SVGID_28_);}
	.st29{fill:url(#SVGID_29_);}
	.st30{fill:url(#SVGID_30_);}
	.st31{fill:url(#SVGID_31_);}
	.st32{fill:url(#SVGID_32_);}
	.st33{fill:url(#SVGID_33_);}
	.st34{fill:url(#SVGID_34_);}
	.st35{fill:url(#SVGID_35_);}
	.st36{fill:url(#SVGID_36_);}
	.st37{fill:url(#SVGID_37_);}
	.st38{fill:url(#SVGID_38_);}
	.st39{fill:url(#SVGID_39_);}
	.st40{fill:url(#SVGID_40_);}
	.st41{fill:url(#SVGID_41_);}
	.st42{fill:url(#SVGID_42_);}
	.st43{fill:url(#SVGID_43_);}
	.st44{fill:url(#SVGID_44_);}
</style>
<g class="st0">
	<g>
		
			<radialGradient id="SVGID_1_" cx="215.8533" cy="-194.2049" r="138.2661" gradientTransform="matrix(1 0 0 0.3558 0 121.7464)" gradientUnits="userSpaceOnUse">
			<stop  offset="0" style="stop-color:#C2C2C2"/>
			<stop  offset="1" style="stop-color:#FFFFFF"/>
		</radialGradient>
		<polygon class="st1" points="319.1,56.3 300.7,51.8 227.3,53.7 226.9,53.7 155.1,43.1 132.3,31.9 85.2,23.1 87,21.9 134.5,30.8 
			157.2,41.8 227.5,52.1 300.8,50.2 318.5,54.5 368.6,44.3 371,45.7 		"/>
	</g>
	<g>
		
			<radialGradient id="SVGID_2_" cx="214.9926" cy="-147.09" r="197.8071" gradientTransform="matrix(1 0 0 0.3558 0 121.7464)" gradientUnits="userSpaceOnUse">
			<stop  offset="0" style="stop-color:#C2C2C2"/>
			<stop  offset="1" style="stop-color:#FFFFFF"/>
		</radialGradient>
		<polygon class="st2" points="57.3,129.5 56,129.2 98.8,86.9 155.7,42.4 184.1,17.9 195.9,0 196.8,0.1 185,18 156.7,42.6 100,87.1 
					"/>
	</g>
	<g>
		
			<radialGradient id="SVGID_3_" cx="196.7364" cy="-138.6017" r="205.4507" gradientTransform="matrix(1 0 0 0.3558 0 121.7464)" gradientUnits="userSpaceOnUse">
			<stop  offset="0" style="stop-color:#C2C2C2"/>
			<stop  offset="1" style="stop-color:#FFFFFF"/>
		</radialGradient>
		<polygon class="st3" points="163.5,148.6 161.9,148.3 187.8,103.6 226.8,52.8 246.1,22.4 253,3 253.9,3.1 247.1,22.6 228,53 
			189.1,103.9 		"/>
	</g>
	<g>
		
			<radialGradient id="SVGID_4_" cx="244.264" cy="-149.7843" r="224.9599" gradientTransform="matrix(1 0 0 0.3558 0 121.7464)" gradientUnits="userSpaceOnUse">
			<stop  offset="0" style="stop-color:#C2C2C2"/>
			<stop  offset="1" style="stop-color:#FFFFFF"/>
		</radialGradient>
		<polygon class="st4" points="348.4,162.7 302.2,139.4 302.3,139 316.5,89.1 300.2,51.1 246.4,22.7 184.5,18.2 156.4,19.9 
			130.7,21.7 96.6,18.1 97,17.7 130.9,21.3 156.4,19.5 184.6,17.8 184.6,17.8 246.9,22.3 301.3,50.9 317.9,89.3 304,139.1 
			349.2,161.9 		"/>
	</g>
	<g>
		
			<radialGradient id="SVGID_5_" cx="223.9721" cy="-195.6365" r="182.2627" gradientTransform="matrix(1 0 0 0.3558 0 121.7464)" gradientUnits="userSpaceOnUse">
			<stop  offset="0" style="stop-color:#C2C2C2"/>
			<stop  offset="1" style="stop-color:#FFFFFF"/>
		</radialGradient>
		<polygon class="st5" points="188.4,104.2 188.2,104.1 98.9,87.3 69,76.6 52.1,68.5 41.6,52.2 42.8,51.9 53.3,68.1 70,76.1 
			99.8,86.7 188.5,103.3 273,93.6 316.9,88.8 348,81.7 348.3,81.7 399.9,92.1 399.8,92.8 348.4,82.4 317.6,89.5 273.5,94.3 		"/>
	</g>
	<g>
		
			<radialGradient id="SVGID_6_" cx="206.0002" cy="-147.9028" r="207.7628" gradientTransform="matrix(1 0 0 0.3558 0 121.7464)" gradientUnits="userSpaceOnUse">
			<stop  offset="0" style="stop-color:#C2C2C2"/>
			<stop  offset="1" style="stop-color:#FFFFFF"/>
		</radialGradient>
		<polygon class="st6" points="87.2,136.3 85.7,136.1 120.9,91.1 174.1,45.1 201.3,19.2 208.8,5 209.7,5.1 202.2,19.3 175.1,45.3 
			122.1,91.3 		"/>
	</g>
	<g>
		
			<radialGradient id="SVGID_7_" cx="197.7128" cy="-147.6421" r="208.7785" gradientTransform="matrix(1 0 0 0.3558 0 121.7464)" gradientUnits="userSpaceOnUse">
			<stop  offset="0" style="stop-color:#C2C2C2"/>
			<stop  offset="1" style="stop-color:#FFFFFF"/>
		</radialGradient>
		<polygon class="st7" points="130.7,138.7 129.2,138.4 156.7,97.8 201.4,49.1 224.3,20.9 230.4,6.1 231.3,6.2 225.3,21 202.5,49.3 
			158,98 		"/>
	</g>
	<g>
		
			<radialGradient id="SVGID_8_" cx="231.0318" cy="-186.6373" r="205.9312" gradientTransform="matrix(1 0 0 0.3558 0 121.7464)" gradientUnits="userSpaceOnUse">
			<stop  offset="0" style="stop-color:#C2C2C2"/>
			<stop  offset="1" style="stop-color:#FFFFFF"/>
		</radialGradient>
		<polygon class="st8" points="194.3,132.5 209.3,101.2 216.8,89.6 201.8,86.2 172.8,81.1 139.5,75.6 112.1,70.3 95.6,64.8 
			80.5,60.4 74,60.4 74.7,55.3 59.3,43 60.4,42.7 75.9,55 75.4,59.8 81.1,59.8 81.2,59.9 96.5,64.2 112.8,69.7 140.1,75 173.3,80.4 
			202.3,85.6 218.5,89.2 210.6,101.4 196.6,131.3 219.9,128.8 261.5,118.6 292.4,124.7 318.6,124.7 323.6,99.7 340.6,96.5 
			340.9,96.6 388.3,108.7 388.1,109.5 340.9,97.3 325,100.3 320.1,125.7 292.3,125.6 261.8,119.6 220.3,129.8 		"/>
	</g>
	<g>
		
			<radialGradient id="SVGID_9_" cx="215.8784" cy="-191.317" r="146.5234" gradientTransform="matrix(1 0 0 0.3558 0 121.7464)" gradientUnits="userSpaceOnUse">
			<stop  offset="0" style="stop-color:#C2C2C2"/>
			<stop  offset="1" style="stop-color:#FFFFFF"/>
		</radialGradient>
		<polygon class="st9" points="291.9,70.4 288.1,60 219.9,62.9 219.8,62.9 192.7,59.3 164.2,54.2 145.4,50.8 120.6,40.5 78.5,32.5 
			79.1,32 121.4,40 121.4,40.1 146.2,50.3 164.7,53.7 193.1,58.8 220,62.3 289.1,59.4 292.9,69.6 308.1,68.2 335.2,64.2 363.5,54.3 
			364.5,54.8 336,64.8 308.6,68.8 		"/>
	</g>
	<g>
		
			<radialGradient id="SVGID_10_" cx="209.5419" cy="-203.7479" r="203.6048" gradientTransform="matrix(1 0 0 0.3558 0 121.7464)" gradientUnits="userSpaceOnUse">
			<stop  offset="0" style="stop-color:#C2C2C2"/>
			<stop  offset="1" style="stop-color:#FFFFFF"/>
		</radialGradient>
		<path class="st10" d="M216.6,89.9l13.2-19.6h-15.4l0-0.6h78.6l4.2,11.3L216.6,89.9z M231.1,70.3l-12.4,18.6l76.8-8.5l-3.7-10.1
			H231.1z"/>
	</g>
	<g>
		
			<radialGradient id="SVGID_11_" cx="220.8431" cy="-172.1617" r="164.7098" gradientTransform="matrix(1 0 0 0.3558 0 121.7464)" gradientUnits="userSpaceOnUse">
			<stop  offset="0" style="stop-color:#C2C2C2"/>
			<stop  offset="1" style="stop-color:#FFFFFF"/>
		</radialGradient>
		<polygon class="st11" points="260.9,119.2 249.3,96.7 243.2,86.5 243.2,86.4 251,69.9 247.4,52.3 247.6,52.2 272.6,36.1 
			298.9,35.4 325.5,23 326.4,23.3 299.6,35.9 273.3,36.6 248.7,52.5 252.3,70.1 244.6,86.5 250.7,96.6 262.4,119 		"/>
	</g>
	<g>
		
			<radialGradient id="SVGID_12_" cx="181.9507" cy="-190.5432" r="189.8814" gradientTransform="matrix(1 0 0 0.3558 0 121.7464)" gradientUnits="userSpaceOnUse">
			<stop  offset="0" style="stop-color:#C2C2C2"/>
			<stop  offset="1" style="stop-color:#FFFFFF"/>
		</radialGradient>
		<polygon class="st12" points="393.9,77.4 354.9,71.1 332.1,52.6 319.8,44.2 299.8,36.2 301.3,51 300.1,51 298.6,35.1 320.7,44 
			333.1,52.5 355.7,70.6 393.9,76.8 		"/>
	</g>
	<g>
		
			<radialGradient id="SVGID_13_" cx="157.5343" cy="-191.522" r="203.2376" gradientTransform="matrix(1 0 0 0.3558 0 121.7464)" gradientUnits="userSpaceOnUse">
			<stop  offset="0" style="stop-color:#C2C2C2"/>
			<stop  offset="1" style="stop-color:#FFFFFF"/>
		</radialGradient>
		<polygon class="st13" points="389.8,67.6 361.1,64.8 342.3,50.6 336.4,45.5 318.7,37.7 334.5,29.5 335.5,29.9 320.2,37.7 
			337.4,45.4 343.3,50.4 361.7,64.2 389.6,67 		"/>
	</g>
	<g>
		
			<radialGradient id="SVGID_14_" cx="287.1312" cy="-196.9568" r="178.353" gradientTransform="matrix(1 0 0 0.3558 0 121.7464)" gradientUnits="userSpaceOnUse">
			<stop  offset="0" style="stop-color:#C2C2C2"/>
			<stop  offset="1" style="stop-color:#FFFFFF"/>
		</radialGradient>
		<polygon class="st14" points="376.8,139 340.4,127.9 340.1,96.7 347.5,81.9 354.7,70.7 360.7,64.3 363.4,54.3 378.9,53.3 
			379.5,53.8 364.6,54.8 362,64.7 355.9,71 348.9,82.2 341.5,97 342,127.5 377.1,138.1 		"/>
	</g>
	<g>
		
			<radialGradient id="SVGID_15_" cx="202.1131" cy="-194.8853" r="162.3457" gradientTransform="matrix(1 0 0 0.3558 0 121.7464)" gradientUnits="userSpaceOnUse">
			<stop  offset="0" style="stop-color:#C2C2C2"/>
			<stop  offset="1" style="stop-color:#FFFFFF"/>
		</radialGradient>
		<polygon class="st15" points="289.3,59.7 288,59.7 285,51.4 284.7,42.8 285.9,42.9 286.2,51.4 		"/>
	</g>
	<g>
		
			<radialGradient id="SVGID_16_" cx="247.9537" cy="-198.6322" r="202.4255" gradientTransform="matrix(1 0 0 0.3558 0 121.7464)" gradientUnits="userSpaceOnUse">
			<stop  offset="0" style="stop-color:#C2C2C2"/>
			<stop  offset="1" style="stop-color:#FFFFFF"/>
		</radialGradient>
		<polygon class="st16" points="0.3,82.8 0,82.2 52.5,68.1 74.4,59.9 75,60.3 53,68.5 		"/>
	</g>
	<g>
		
			<radialGradient id="SVGID_17_" cx="235.4313" cy="-192.6024" r="183.8149" gradientTransform="matrix(1 0 0 0.3558 0 121.7464)" gradientUnits="userSpaceOnUse">
			<stop  offset="0" style="stop-color:#C2C2C2"/>
			<stop  offset="1" style="stop-color:#FFFFFF"/>
		</radialGradient>
		<polygon class="st17" points="87.7,57.9 86.7,57.7 98.3,48 120.6,40.1 132.8,31.3 130.3,21.5 130.3,13.1 116.5,7.7 117.2,7.4 
			131.3,12.9 131.4,21.5 133.9,31.4 121.3,40.4 99.2,48.3 		"/>
	</g>
	<g>
		
			<radialGradient id="SVGID_18_" cx="201.3858" cy="-194.2454" r="138.1211" gradientTransform="matrix(1 0 0 0.3558 0 121.7464)" gradientUnits="userSpaceOnUse">
			<stop  offset="0" style="stop-color:#C2C2C2"/>
			<stop  offset="1" style="stop-color:#FFFFFF"/>
		</radialGradient>
		<polygon class="st18" points="119.1,62.4 101.7,58 106.9,54.4 107.9,54.7 103.4,57.7 118.8,61.6 132.1,52.2 118.6,47.3 
			110.5,52.5 98.4,48.4 77.5,40.4 78.4,40.1 99.2,48 110.4,51.7 118.5,46.6 133.7,52 		"/>
	</g>
	<g>
		
			<radialGradient id="SVGID_19_" cx="206.7662" cy="-195.7195" r="147.9431" gradientTransform="matrix(1 0 0 0.3558 0 121.7464)" gradientUnits="userSpaceOnUse">
			<stop  offset="0" style="stop-color:#C2C2C2"/>
			<stop  offset="1" style="stop-color:#FFFFFF"/>
		</radialGradient>
		<polygon class="st19" points="159.7,58.1 140.4,54.8 132.5,52.3 133.3,51.9 141.1,54.3 160.2,57.6 		"/>
	</g>
	<g>
		
			<radialGradient id="SVGID_20_" cx="208.2987" cy="-204.9195" r="125.4668" gradientTransform="matrix(1 0 0 0.3558 0 121.7464)" gradientUnits="userSpaceOnUse">
			<stop  offset="0" style="stop-color:#C2C2C2"/>
			<stop  offset="1" style="stop-color:#FFFFFF"/>
		</radialGradient>
		<polygon class="st20" points="273,36.6 238.3,35.9 189.7,30.8 171.9,28.7 147.6,20.4 144.3,11.3 144.3,11.2 149.8,3.1 150.7,3.1 
			145.3,11.2 148.5,20.1 172.6,28.4 190,30.4 215,32.9 238.4,35.4 272.9,36.1 298.3,35.4 276.4,20.9 276.6,20.8 297.7,11 
			298.5,11.3 277.6,21 300.2,35.8 		"/>
	</g>
	<g>
		
			<radialGradient id="SVGID_21_" cx="210.478" cy="-212.3035" r="126.8539" gradientTransform="matrix(1 0 0 0.3558 0 121.7464)" gradientUnits="userSpaceOnUse">
			<stop  offset="0" style="stop-color:#C2C2C2"/>
			<stop  offset="1" style="stop-color:#FFFFFF"/>
		</radialGradient>
		<polygon class="st21" points="246.7,22.7 246.5,22.3 276.2,20.8 264.6,13.1 272.5,5.4 273.4,5.6 265.7,13.1 277.8,21.1 		"/>
	</g>
	<g>
		
			<radialGradient id="SVGID_22_" cx="222.5179" cy="-183.0679" r="184.7597" gradientTransform="matrix(1 0 0 0.3558 0 121.7464)" gradientUnits="userSpaceOnUse">
			<stop  offset="0" style="stop-color:#C2C2C2"/>
			<stop  offset="1" style="stop-color:#FFFFFF"/>
		</radialGradient>
		<polygon class="st22" points="324.4,100.4 314.2,99.7 287.6,92.6 279.6,82.5 270.4,51.8 260.2,44.6 233.7,43.1 165.2,34.7 
			153.6,30.8 133.3,31.6 133.4,31.1 154,30.4 165.7,34.3 233.9,42.6 260.8,44.1 271.5,51.7 280.9,82.5 288.6,92.1 314.4,99 
			324.2,99.6 		"/>
	</g>
	<g>
		
			<radialGradient id="SVGID_23_" cx="213.1445" cy="-230.0567" r="256.3843" gradientTransform="matrix(1 0 0 0.3558 0 121.7464)" gradientUnits="userSpaceOnUse">
			<stop  offset="0" style="stop-color:#C2C2C2"/>
			<stop  offset="1" style="stop-color:#FFFFFF"/>
		</radialGradient>
		<polygon class="st23" points="295.6,116.2 271.2,111.1 265.2,101.1 266.5,101 272.4,110.5 294.5,115.1 302,101.8 303.2,96.4 
			304.6,96.7 303.4,102.1 		"/>
	</g>
	<g>
		
			<radialGradient id="SVGID_24_" cx="232.7507" cy="-247.8114" r="288.6588" gradientTransform="matrix(1 0 0 0.3558 0 121.7464)" gradientUnits="userSpaceOnUse">
			<stop  offset="0" style="stop-color:#C2C2C2"/>
			<stop  offset="1" style="stop-color:#FFFFFF"/>
		</radialGradient>
		<polygon class="st24" points="280.3,122.8 278.8,122.5 282.9,113.1 284.4,113.4 		"/>
	</g>
	<g>
		
			<radialGradient id="SVGID_25_" cx="208.9888" cy="-211.3174" r="266.0492" gradientTransform="matrix(1 0 0 0.3558 0 121.7464)" gradientUnits="userSpaceOnUse">
			<stop  offset="0" style="stop-color:#C2C2C2"/>
			<stop  offset="1" style="stop-color:#FFFFFF"/>
		</radialGradient>
		<polygon class="st25" points="238.7,124.7 234.3,117.6 250.2,115.4 243.7,102.4 228.2,104.2 225.9,99.3 240.6,69.9 241.8,70.1 
			227.4,99.4 229.2,103.3 244.6,101.5 252.1,116 236.3,118.2 240.1,124.4 		"/>
	</g>
	<g>
		
			<radialGradient id="SVGID_26_" cx="262.1727" cy="-198.9757" r="231.327" gradientTransform="matrix(1 0 0 0.3558 0 121.7464)" gradientUnits="userSpaceOnUse">
			<stop  offset="0" style="stop-color:#C2C2C2"/>
			<stop  offset="1" style="stop-color:#FFFFFF"/>
		</radialGradient>
		<polygon class="st26" points="24.3,100.2 23.5,99.8 69.1,76.1 92.5,63.4 102.1,57.7 103,58 93.4,63.7 69.9,76.5 		"/>
	</g>
	<g>
		
			<radialGradient id="SVGID_27_" cx="261.0398" cy="-202.6139" r="246.9028" gradientTransform="matrix(1 0 0 0.3558 0 121.7464)" gradientUnits="userSpaceOnUse">
			<stop  offset="0" style="stop-color:#C2C2C2"/>
			<stop  offset="1" style="stop-color:#FFFFFF"/>
		</radialGradient>
		<polygon class="st27" points="52.6,110.7 51.4,110.4 87.3,82.7 107.8,68.5 118.5,61.8 119.4,62.1 108.8,68.8 88.4,83 		"/>
	</g>
	<g>
		
			<radialGradient id="SVGID_28_" cx="236.2242" cy="-195.6624" r="176.3789" gradientTransform="matrix(1 0 0 0.3558 0 121.7464)" gradientUnits="userSpaceOnUse">
			<stop  offset="0" style="stop-color:#C2C2C2"/>
			<stop  offset="1" style="stop-color:#FFFFFF"/>
		</radialGradient>
		<polygon class="st28" points="86.7,52.3 76.9,48.7 87.8,44 105.8,37.3 118.7,28.6 130.4,21.4 131.3,21.6 119.6,28.8 106.5,37.6 
			88.5,44.3 78.7,48.6 87.6,51.9 		"/>
	</g>
	<g>
		
			<radialGradient id="SVGID_29_" cx="198.7466" cy="-202.8137" r="130.5949" gradientTransform="matrix(1 0 0 0.3558 0 121.7464)" gradientUnits="userSpaceOnUse">
			<stop  offset="0" style="stop-color:#C2C2C2"/>
			<stop  offset="1" style="stop-color:#FFFFFF"/>
		</radialGradient>
		<polygon class="st29" points="153.3,30.7 147.6,24.9 148.6,24.7 154.3,30.5 		"/>
	</g>
	<g>
		
			<radialGradient id="SVGID_30_" cx="209.9893" cy="-199.5041" r="222.5535" gradientTransform="matrix(1 0 0 0.3558 0 121.7464)" gradientUnits="userSpaceOnUse">
			<stop  offset="0" style="stop-color:#C2C2C2"/>
			<stop  offset="1" style="stop-color:#FFFFFF"/>
		</radialGradient>
		<polygon class="st30" points="210,75.6 181.9,71.1 150.7,65.9 151.2,65.4 182.3,70.5 210.4,75 		"/>
	</g>
	<g>
		
			<radialGradient id="SVGID_31_" cx="230.9091" cy="-204.8083" r="197.4146" gradientTransform="matrix(1 0 0 0.3558 0 121.7464)" gradientUnits="userSpaceOnUse">
			<stop  offset="0" style="stop-color:#C2C2C2"/>
			<stop  offset="1" style="stop-color:#FFFFFF"/>
		</radialGradient>
		<polygon class="st31" points="262.7,84.6 261.3,84.4 263.4,75.3 264.7,75.4 		"/>
	</g>
	<g>
		
			<radialGradient id="SVGID_32_" cx="-104.9643" cy="-200.2131" r="505.3901" gradientTransform="matrix(1 0 0 0.3558 0 121.7464)" gradientUnits="userSpaceOnUse">
			<stop  offset="0" style="stop-color:#C2C2C2"/>
			<stop  offset="1" style="stop-color:#FFFFFF"/>
		</radialGradient>
		<polygon class="st32" points="347.6,82.1 335,64.5 336.2,64.5 348.8,82 		"/>
	</g>
	<g>
		
			<radialGradient id="SVGID_33_" cx="-1161.0166" cy="-197.0527" r="1767.8833" gradientTransform="matrix(1 0 0 0.3558 0 121.7464)" gradientUnits="userSpaceOnUse">
			<stop  offset="0" style="stop-color:#C2C2C2"/>
			<stop  offset="1" style="stop-color:#FFFFFF"/>
		</radialGradient>
		<polygon class="st33" points="334.5,85.4 333.2,85.4 318.2,55.4 319.4,55.4 		"/>
	</g>
	<g>
		
			<radialGradient id="SVGID_34_" cx="209.509" cy="-207.9315" r="127.4828" gradientTransform="matrix(1 0 0 0.3558 0 121.7464)" gradientUnits="userSpaceOnUse">
			<stop  offset="0" style="stop-color:#C2C2C2"/>
			<stop  offset="1" style="stop-color:#FFFFFF"/>
		</radialGradient>
		<polygon class="st34" points="260.1,29.8 260,29.8 242.7,29 219.9,27.1 195.7,25 178.3,23.3 168.8,19 167.5,10.9 162.3,7 
			163.2,6.8 168.5,10.9 169.8,18.8 178.9,22.9 195.9,24.6 220,26.7 242.7,28.5 259.9,29.3 286.9,27.5 312,18.2 312.8,18.5 
			287.5,27.9 287.4,27.9 		"/>
	</g>
	<g>
		
			<radialGradient id="SVGID_35_" cx="212.5018" cy="-203.9726" r="133.5975" gradientTransform="matrix(1 0 0 0.3558 0 121.7464)" gradientUnits="userSpaceOnUse">
			<stop  offset="0" style="stop-color:#C2C2C2"/>
			<stop  offset="1" style="stop-color:#FFFFFF"/>
		</radialGradient>
		<polygon class="st35" points="286.3,36.1 261.3,21.6 249.5,13.5 190,9.9 168,11.1 144.8,11.4 130.9,13.2 115.2,15.3 115,15 
			130.7,12.8 144.8,11.1 168,10.7 190,9.5 190.1,9.5 250.1,13.2 262.1,21.4 287.1,35.9 		"/>
	</g>
	<g>
		
			<radialGradient id="SVGID_36_" cx="208.3965" cy="-213.8673" r="129.5134" gradientTransform="matrix(1 0 0 0.3558 0 121.7464)" gradientUnits="userSpaceOnUse">
			<stop  offset="0" style="stop-color:#C2C2C2"/>
			<stop  offset="1" style="stop-color:#FFFFFF"/>
		</radialGradient>
		<polygon class="st36" points="260.6,13.8 260.2,13.4 265,12.9 265.4,13.2 		"/>
	</g>
	<g>
		
			<radialGradient id="SVGID_37_" cx="249.6386" cy="-233.8218" r="293.6355" gradientTransform="matrix(1 0 0 0.3558 0 121.7464)" gradientUnits="userSpaceOnUse">
			<stop  offset="0" style="stop-color:#C2C2C2"/>
			<stop  offset="1" style="stop-color:#FFFFFF"/>
		</radialGradient>
		<polygon class="st37" points="117.2,126.6 115.7,126.3 127.6,108.6 139,94.5 140.3,94.7 129,108.8 		"/>
	</g>
	<g>
		
			<radialGradient id="SVGID_38_" cx="216.3466" cy="-214.2316" r="287.0177" gradientTransform="matrix(1 0 0 0.3558 0 121.7464)" gradientUnits="userSpaceOnUse">
			<stop  offset="0" style="stop-color:#C2C2C2"/>
			<stop  offset="1" style="stop-color:#FFFFFF"/>
		</radialGradient>
		<polygon class="st38" points="230.3,147 219.5,129.6 201.7,118.3 182.2,114.6 148.6,111 127.8,109 112.3,102.9 85.8,100.4 
			73.4,93.9 49.4,86.6 52,68.4 53.4,68.3 50.8,86.1 74.5,93.3 86.7,99.6 113.1,102.2 128.7,108.3 149,110.2 182.6,113.7 
			202.5,117.5 220.9,129.2 231.9,146.7 		"/>
	</g>
	<g>
		
			<radialGradient id="SVGID_39_" cx="208.9727" cy="-194.4944" r="255.069" gradientTransform="matrix(1 0 0 0.3558 0 121.7464)" gradientUnits="userSpaceOnUse">
			<stop  offset="0" style="stop-color:#C2C2C2"/>
			<stop  offset="1" style="stop-color:#FFFFFF"/>
		</radialGradient>
		<polygon class="st39" points="195.3,132.4 173.5,129.8 140.3,123.1 121.1,119.5 100.3,118.3 73.9,112.2 56.8,106.2 29.8,96.8 
			29.2,74.5 29.3,74.4 46.7,59.6 69.7,50.8 70.4,51.2 47.6,59.9 30.6,74.5 31.3,96.3 57.8,105.4 74.8,111.5 101,117.5 121.6,118.6 
			141,122.2 174,128.9 195.6,131.4 		"/>
	</g>
	<g>
		
			<radialGradient id="SVGID_40_" cx="215.9464" cy="-200.7625" r="211.4491" gradientTransform="matrix(1 0 0 0.3558 0 121.7464)" gradientUnits="userSpaceOnUse">
			<stop  offset="0" style="stop-color:#C2C2C2"/>
			<stop  offset="1" style="stop-color:#FFFFFF"/>
		</radialGradient>
		<polygon class="st40" points="155.9,78 154.8,77.7 166.5,68.2 167.6,68.5 		"/>
	</g>
	<g>
		
			<radialGradient id="SVGID_41_" cx="209.5454" cy="-197.8861" r="215.7366" gradientTransform="matrix(1 0 0 0.3558 0 121.7464)" gradientUnits="userSpaceOnUse">
			<stop  offset="0" style="stop-color:#C2C2C2"/>
			<stop  offset="1" style="stop-color:#FFFFFF"/>
		</radialGradient>
		<polygon class="st41" points="196.2,73.1 195,72.9 204.7,60.6 205.9,60.8 		"/>
	</g>
	<g>
		
			<radialGradient id="SVGID_42_" cx="208.5067" cy="-199.1288" r="163.3965" gradientTransform="matrix(1 0 0 0.3558 0 121.7464)" gradientUnits="userSpaceOnUse">
			<stop  offset="0" style="stop-color:#C2C2C2"/>
			<stop  offset="1" style="stop-color:#FFFFFF"/>
		</radialGradient>
		<polygon class="st42" points="196,38.3 195,38.1 202,31.8 203,32 		"/>
	</g>
	<g>
		
			<radialGradient id="SVGID_43_" cx="223.0581" cy="-196.971" r="170.8877" gradientTransform="matrix(1 0 0 0.3558 0 121.7464)" gradientUnits="userSpaceOnUse">
			<stop  offset="0" style="stop-color:#C2C2C2"/>
			<stop  offset="1" style="stop-color:#FFFFFF"/>
		</radialGradient>
		<polygon class="st43" points="133.5,45.4 132.6,45.1 144.6,36.9 145.5,37.1 		"/>
	</g>
	<g>
		
			<radialGradient id="SVGID_44_" cx="173.7889" cy="-222.523" r="275.4274" gradientTransform="matrix(1 0 0 0.3558 0 121.7464)" gradientUnits="userSpaceOnUse">
			<stop  offset="0" style="stop-color:#C2C2C2"/>
			<stop  offset="1" style="stop-color:#FFFFFF"/>
		</radialGradient>
		<polygon class="st44" points="286.5,105.9 277.4,93.5 278.7,93.4 287.8,105.7 		"/>
	</g>
</g>
</svg>
