<?xml version="1.0" encoding="utf-8"?>
<!-- Generator: Adobe Illustrator 24.2.1, SVG Export Plug-In . SVG Version: 6.00 Build 0)  -->
<svg version="1.1" id="Layer_1" xmlns="http://www.w3.org/2000/svg" xmlns:xlink="http://www.w3.org/1999/xlink" x="0px" y="0px"
	 viewBox="0 0 339.5 55.8" style="enable-background:new 0 0 339.5 55.8;" xml:space="preserve">
<style type="text/css">
	.st0{fill-rule:evenodd;clip-rule:evenodd;fill:#459A4E;}
	.st1{fill-rule:evenodd;clip-rule:evenodd;fill:#FFFFFF;}
	.st2{fill:#253863;}
	.st3{fill:#FFFFFF;}
	.st4{display:none;fill:#FFFFFF;}
</style>
<g>
	<g>
		<path class="st0" d="M329.6,7.4h-99.7c1.1-2.1,3.3-4.9,5.3-7.4c-16.2,14-28.1,35-31.4,51.4l-0.1,0.1l0,0h-0.1l0,0h-0.1h-0.1l0,0
			l-0.1,0.1l0,0l-0.1,0.1l0,0l-0.1,0.1l0,0H203h-0.1l0,0l-0.1,0.1l0,0l-0.1,0.1l0,0l-0.1,0.1l0,0h-0.1l0,0l0,0h-0.1l0,0l-0.1,0.1
			l0,0l-0.1,0.1l0,0l-0.1,0.1l0,0H202h-0.1l0,0l-0.1,0.1l0,0l-0.1,0.1l0,0l-0.1,0.1l0,0h-0.1h-0.1l0,0l-0.1,0.1l0,0l-0.1,0.1l0,0
			l-0.1,0.1l0,0l-0.1,0.1l0,0h-0.1h-0.1l0,0l-0.1,0.1l0,0l-0.1,0.1l0,0l-0.1,0.1l0,0h-0.1h-0.1l0,0l-0.1,0.1l0,0l-0.1,0.1l0,0
			L200,54l0,0h-0.1h-0.1l0,0l-0.1,0.1l0,0l-0.1,0.1l0,0l-0.1,0.1l0,0l-0.1,0.1l0,0h-0.1h-0.1l0,0l-0.1,0.1l0,0l-0.1,0.1l0,0
			l-0.1,0.1l0,0h-0.1h-0.1l0,0l-0.1,0.1l0,0l-0.1,0.1l0,0l-0.1,0.1l0,0l-0.1,0.1l0,0l0,0l-0.1,0.1l0,0l-0.1,0.1l0,0l-0.1,0.1l0,0
			l-0.1,0.1l0,0h-0.1h-0.1l0,0l-0.1,0.1l0,0h132L329.6,7.4L329.6,7.4z"/>
		<path class="st0" d="M312.7,7.4v48.4h17.5c5.1,0,9.3-4.2,9.3-9.3V7.4H312.7z"/>
		<path class="st1" d="M8.9,55.8c62.4,0,124.7,0,187.1,0C189.8,43.7,183.5,31,177,28c2.4-3.1,4.9-4.5,7.4-4.1
			c5.6,0.8,10.8,11.4,13.1,16.1c3.9-10.2,13.1-23.2,22.8-32.6H15c-2.1,0.9-5.8,2.8-8.7,6.8c-2.6,3.6-3.3,7.1-3.7,9
			C0.1,35.9,7.8,53.4,8.9,55.8z"/>
		<path class="st1" d="M11.8,52.1c-0.6-1.3-1.4-2.5-2.2-3.7c-0.7-1-1.4-1.9-1.8-3c-0.5-1.1-0.8-2.3-1.1-3.5c-0.6-2.5-1.2-5-1.8-7.5
			c-0.6-2.7-1.1-5.5-0.9-8.2c0.2-1.9,0.8-3.7,1.6-5.4c1.9-3.7,4.8-6.8,7.8-9.6c1.4-1.3,2.9-2.6,4.3-3.8H9.3C4.2,7.4,0,11.5,0,16.6
			v39.2h12.8C12.6,54.5,12.3,53.3,11.8,52.1z"/>
	</g>
	<g>
		<path class="st2" d="M37,24.9v-0.2c0-1.5-1.2-2.7-2.7-2.7H22.4c-1.5,0-2.7,1.2-2.7,2.7v0.2c0,1.5,1.2,2.7,2.7,2.7H33
			c2.7,0,5.2,1.2,6.8,3c0.1,0.1,0.2,0.3,0.3,0.4c1.3,1.6,2.1,3.7,2.1,5.9c0,5.1-4.2,9.3-9.3,9.3h-9.2c-5.1,0-9.3-4.2-9.3-9.3h5.2
			c0,2.2,1.8,4,4,4h9.2c2.2,0,4.1-1.8,4.1-4s-1.8-4-4.1-4H22.4c-2.1,0-4.1-0.8-5.5-2.2c-0.4-0.4-0.7-0.8-1-1.3
			c-0.9-1.3-1.4-2.8-1.4-4.5v-0.2c0-4.4,3.5-7.9,7.9-7.9h11.9c4.4,0,7.9,3.6,7.9,7.9v0.2L37,24.9z"/>
		<path class="st2" d="M51.2,31.5c0,5.2,4.2,9.4,9.4,9.4h14.7v5.2H60.7c-8.1,0-14.7-6.6-14.7-14.7s6.6-14.7,14.7-14.7h14.7V22H60.7
			C55.5,22,51.2,26.3,51.2,31.5z"/>
		<path class="st2" d="M106.1,31.5c0,8.1-6.6,14.7-14.7,14.7s-14.7-6.6-14.7-14.7s6.6-14.7,14.7-14.7S106.1,23.4,106.1,31.5z
			 M100.8,31.5c0-5.2-4.2-9.4-9.4-9.4S82,26.3,82,31.5s4.2,9.4,9.4,9.4S100.8,36.7,100.8,31.5z"/>
		<path class="st2" d="M132.9,41l2.7,5.2h-5.9L127,41l-2.8-5.5l-0.1-0.3c-0.9-1.5-2.6-2.5-4.5-2.5h-5.2v13.5h-5.2V16.8h18.6
			c2.2,0,4.2,0.9,5.6,2.3c1.4,1.5,2.3,3.4,2.3,5.6c0,3.2-1.9,6-4.6,7.2c-0.7,0.3-1.5,0.5-2.3,0.6L132.9,41z M127.7,27.4
			c0.4,0,0.8-0.1,1.1-0.3c1-0.4,1.6-1.4,1.6-2.4s-0.5-1.6-0.8-1.9s-1-0.8-1.9-0.8h-13.3v5.4L127.7,27.4z"/>
		<path class="st2" d="M145.1,24.7v2.7H164v5.2h-18.9v5.5c0,1.5,1.2,2.7,2.7,2.7h21.5V46h-21.5c-4.4,0-7.9-3.6-7.9-7.9V24.7
			c0-4.4,3.5-7.9,7.9-7.9h21.5V22h-21.5C146.3,22,145.1,23.2,145.1,24.7z"/>
		<path class="st3" d="M242.6,16.8c8.1,0,14.7,6.5,14.7,14.6c0,3.6-1.3,6.9-3.5,9.5c-0.3,0.3-0.5,0.6-0.8,0.9
			c-2.6,2.7-6.3,4.3-10.3,4.3H228V16.8H242.6z M233.2,41h9.4c5.2,0,9.4-4.2,9.4-9.4s-4.2-9.4-9.4-9.4h-9.4V41z"/>
		<path class="st4" d="M289.9,31.5c0,8.1-6.6,14.7-14.7,14.7s-14.7-6.6-14.7-14.7s6.6-14.7,14.7-14.7S289.9,23.4,289.9,31.5z
			 M284.7,31.5c0-5.2-4.2-9.4-9.4-9.4s-9.4,4.2-9.4,9.4s4.2,9.4,9.4,9.4S284.7,36.7,284.7,31.5z"/>
		<path class="st3" d="M297.9,31.5c0,5.2,4.2,9.4,9.4,9.4H322v5.2h-14.7c-8.1,0-14.7-6.6-14.7-14.7s6.6-14.7,14.7-14.7H322V22h-14.7
			C302.1,22,297.9,26.3,297.9,31.5z"/>
	</g>
	<g>
		<g>
			<path class="st3" d="M260.5,33.6c0.1,0,4.8,0,5,0c1.6,0,3.1,0,4.7,0c0.2,0,0.3-0.1,0.3-0.3c0.1-0.5,0.2-1,0.4-1.5
				c0.1-0.2,0.1-0.4,0.2-0.6c0.1,0.2,0.1,0.4,0.2,0.6c0.3,1.1,0.7,2.2,1,3.3c0.1,0.2,0.2,0.3,0.4,0.3c0.2,0,0.3-0.1,0.3-0.3
				c0.1-0.4,0.2-0.8,0.2-1.1c0.2-1,0.4-1.9,0.6-2.9c0.2-0.9,0.4-1.8,0.6-2.8c0.1-0.3,0.1-0.6,0.2-0.9v0.1c0,0.2,0,0.4,0.1,0.6
				c0.1,0.8,0.2,1.6,0.3,2.4c0.1,0.7,0.2,1.4,0.3,2c0.1,0.7,0.2,1.4,0.3,2c0.1,0.7,0.2,1.4,0.3,2c0.1,0.6,0.2,1.2,0.2,1.8
				c0,0.2,0.1,0.3,0.3,0.3c0.2,0,0.3-0.1,0.4-0.3c0.1-0.7,0.3-1.4,0.4-2.1c0.2-0.9,0.3-1.7,0.5-2.6c0.1-0.6,0.3-1.3,0.4-1.9
				c0-0.2,0.1-0.4,0.1-0.6l0.1,0.1c0.2,0.6,0.5,1.2,0.7,1.8c0.1,0.3,0.2,0.3,0.5,0.3c1.9,0,3.8,0,5.6,0c0.2,0,4.6,0,4.8,0v-0.7
				c-0.4,0-4.9,0-5.3,0c-0.7,0-1.4,0-2,0c-1,0-2,0-2.9,0c-0.1,0-0.1,0-0.1-0.1c-0.2-0.6-0.5-1.2-0.7-1.8c-0.1-0.4-0.3-0.7-0.4-1.1
				c-0.1-0.2-0.2-0.2-0.4-0.2c-0.1,0-0.3,0.1-0.3,0.3c-0.1,0.3-0.1,0.5-0.2,0.8c-0.2,0.9-0.4,1.8-0.5,2.7c-0.1,0.7-0.3,1.3-0.4,2
				c-0.1,0.3-0.1,0.5-0.2,0.8l0,0c0-0.2,0-0.3-0.1-0.5c-0.1-0.7-0.2-1.3-0.3-2c-0.1-0.7-0.2-1.3-0.3-2c-0.1-0.6-0.2-1.2-0.2-1.8
				c-0.1-0.7-0.2-1.3-0.3-2c-0.1-0.8-0.2-1.6-0.3-2.4c0-0.1,0-0.3-0.1-0.4s-0.2-0.2-0.3-0.2c-0.2,0-0.2,0.1-0.3,0.3
				c-0.2,0.9-0.4,1.7-0.5,2.6c-0.2,0.9-0.3,1.7-0.5,2.6s-0.4,1.9-0.6,2.8c0,0.2-0.1,0.3-0.1,0.5c0,0,0-0.1-0.1-0.1
				c-0.4-1.2-0.8-2.5-1.2-3.7c-0.1-0.2-0.2-0.3-0.3-0.3c-0.2,0-0.3,0.1-0.3,0.3c-0.1,0.3-0.1,0.5-0.2,0.8c-0.2,0.7-0.4,1.4-0.5,2.2
				c0,0.1,0,0.1-0.1,0.1c-0.6,0-1.3,0-1.9,0c-1,0-6.5,0-7.4,0"/>
		</g>
		<path class="st3" d="M265.5,31.3c0-1.3,0.2-2.5,0.7-3.6c0.5-1.2,1.2-2.2,2.1-3.2c1-1,2-1.7,3.2-2.2s2.4-0.7,3.7-0.7
			c1.3,0,2.6,0.2,3.7,0.7c1.2,0.5,2.2,1.2,3.2,2.1c1,1,1.7,2,2.1,3.2c0.5,1.1,0.7,2.4,0.7,3.7h5c0-2-0.4-3.9-1.1-5.6
			s-1.8-3.3-3.3-4.7c-1.4-1.4-3-2.5-4.7-3.2s-3.6-1.1-5.6-1.1s-3.9,0.4-5.6,1.1s-3.3,1.8-4.7,3.2c-1.4,1.4-2.5,3-3.2,4.7
			s-1.1,3.5-1.1,5.5L265.5,31.3L265.5,31.3z"/>
		<path class="st3" d="M284.2,35.3c-0.5,1.1-1.2,2.2-2.1,3.1c-1,1-2,1.7-3.2,2.1c-1.2,0.5-2.4,0.7-3.7,0.7c-1.3,0-2.6-0.2-3.8-0.7
			c-1.2-0.5-2.2-1.2-3.2-2.1c-1-1-1.7-2-2.1-3.2c0,0,0,0,0-0.1H261c0.2,0.7,0.4,1.3,0.6,1.9c0.7,1.7,1.8,3.3,3.2,4.7
			c1.4,1.4,3,2.5,4.7,3.2s3.6,1.1,5.6,1.1s3.9-0.4,5.6-1.1c1.7-0.7,3.3-1.8,4.7-3.2c1.4-1.4,2.5-3,3.3-4.7c0.2-0.6,0.4-1.2,0.6-1.8
			L284.2,35.3L284.2,35.3z"/>
	</g>
</g>
</svg>
