<?xml version="1.0" encoding="utf-8"?>
<!-- Generator: Adobe Illustrator 24.2.1, SVG Export Plug-In . SVG Version: 6.00 Build 0)  -->
<svg version="1.1" id="Layer_1" xmlns="http://www.w3.org/2000/svg" xmlns:xlink="http://www.w3.org/1999/xlink" x="0px" y="0px"
	 viewBox="0 0 806.3 760.7" style="enable-background:new 0 0 806.3 760.7;" xml:space="preserve">
<style type="text/css">
	.st0{opacity:0.5;}
	.st1{fill:#FE6B4D;}
	.st2{opacity:0.2;}
	.st3{fill:#EDF3FF;}
	.st4{opacity:0.8;}
	.st5{fill:#E1EBFF;}
	.st6{fill:#6ED9FF;}
	.st7{fill:#FFFFFF;}
	.st8{fill:#C7D6F2;}
	.st9{fill:#FCC230;}
	.st10{fill:#061437;}
	.st11{fill:#FFC5C5;}
	.st12{fill:#383838;}
	.st13{fill:#FCAFAF;}
	.st14{fill:#253863;}
	.st15{fill:#D5E1FA;}
	.st16{fill:#A3B7D8;}
	.st17{fill:#1F2123;}
	.st18{fill:#2B2B2B;}
	.st19{fill:#51AD5B;}
	.st20{fill:#25A59F;}
	.st21{fill:#FAAD9B;}
	.st22{fill:#32B5B3;}
	.st23{fill:#4052F2;}
</style>
<g id="View_Profile">
	<g>
		<g class="st0">
			<g>
				<path class="st1" d="M637.3,475.9c0.3-0.2,0.6-0.3,1-0.3c0.9,0,1.7,0.4,2.1,1.2l10.8,19.6c0.4,0.8,0.4,1.7-0.1,2.4
					c-0.5,0.7-1.4,1.1-2.2,1l-18.2-2.8c-0.7-0.1-1.3-0.5-1.7-1.2c-0.3-0.6-0.4-1.4-0.1-2l7.5-16.9
					C636.5,476.5,636.9,476.2,637.3,475.9z M644.9,494.6l-6.3-11.4l-4.3,9.8L644.9,494.6z"/>
			</g>
		</g>
		<g class="st2">
			<ellipse class="st3" cx="403" cy="725.9" rx="383" ry="34.8"/>
		</g>
		<g>
			<g class="st4">
				<g class="st0">
					<path class="st3" d="M15.9,306.1C28.3,259,46.3,212.6,76,174.1c54.2-70.4,141.8-107.6,229.1-123.5c8.2-1.5,16.3-2.8,24.6-3.9
						c45.9-6.4,92.6-5.1,138.3,3.1c47.2,8.4,116.4,22.6,149.2,38.3c59.4,28.5,105,82.7,126.6,144.9c21.6,62.2,19.7,131.6-1.4,193.9
						c-9.4,27.7-22.7,54.4-41.9,76.5c-8.6,10-18.5,18.9-29.4,26.4c-49.1,40.1-126.9,20.7-182,5.9c-37.8-10.2-78.2-18.6-115.7-7.5
						c-58.1,17.2-95.1,76.6-151.8,98.1c-48.9,18.6-106.7,4.7-146.9-28.8c-40.2-33.4-63.8-84.1-71.5-135.8
						C-4.5,409.7,2.7,356.7,15.9,306.1z"/>
				</g>
			</g>
			<g>
				<g>
					<g>
						<path class="st5" d="M416.2,555.1h-72.3c-0.6,0-1.2-0.5-1.2-1.2v-20.1c0-0.6,0.5-1.2,1.2-1.2h72.3c0.6,0,1.2,0.5,1.2,1.2v20.1
							C417.3,554.6,416.8,555.1,416.2,555.1z M345.1,552.8H415V535h-69.9V552.8z"/>
					</g>
					<g>
						<path class="st5" d="M488.4,555.1h-72.3c-0.6,0-1.2-0.5-1.2-1.2v-20.1c0-0.6,0.5-1.2,1.2-1.2h72.3c0.6,0,1.2,0.5,1.2,1.2v20.1
							C489.6,554.6,489.1,555.1,488.4,555.1z M417.3,552.8h69.9V535h-69.9V552.8z"/>
					</g>
					<g>
						<path class="st5" d="M452.3,575.3H380c-0.6,0-1.2-0.5-1.2-1.2v-20.1c0-0.6,0.5-1.2,1.2-1.2h72.3c0.6,0,1.2,0.5,1.2,1.2v20.1
							C453.5,574.7,452.9,575.3,452.3,575.3z M381.2,572.9h69.9v-17.8h-69.9V572.9z"/>
					</g>
					<g>
						<path class="st5" d="M452.3,535H380c-0.6,0-1.2-0.5-1.2-1.2v-20.1c0-0.6,0.5-1.2,1.2-1.2h72.3c0.6,0,1.2,0.5,1.2,1.2v20.1
							C453.5,534.4,452.9,535,452.3,535z M381.2,532.6h69.9v-17.8h-69.9V532.6z"/>
					</g>
				</g>
				<g>
					<path class="st5" d="M380,575.3h-8.8c-0.6,0-1.2-0.5-1.2-1.2c0-0.6,0.5-1.2,1.2-1.2h8.8c0.6,0,1.2,0.5,1.2,1.2
						C381.2,574.7,380.7,575.3,380,575.3z"/>
				</g>
				<g>
					<path class="st5" d="M467.5,514.8h-15.2c-0.6,0-1.2-0.5-1.2-1.2s0.5-1.2,1.2-1.2h15.2c0.6,0,1.2,0.5,1.2,1.2
						S468.1,514.8,467.5,514.8z"/>
				</g>
				<g>
					<path class="st5" d="M348,535h-14.5c-0.6,0-1.2-0.5-1.2-1.2c0-0.6,0.5-1.2,1.2-1.2H348c0.6,0,1.2,0.5,1.2,1.2
						C349.1,534.4,348.6,535,348,535z"/>
				</g>
			</g>
		</g>
		<g class="st0">
			<g>
				<path class="st6" d="M750.1,484.3c4.4-5,12-5.5,17-1.1c5,4.4,5.5,12,1.1,17c-4.4,5-12,5.5-17,1.1
					C746.1,496.9,745.7,489.3,750.1,484.3z M764.1,496.7c2.4-2.8,2.2-7-0.6-9.4c-2.8-2.4-7-2.2-9.4,0.6c-2.4,2.8-2.2,7,0.6,9.4
					C757.4,499.7,761.7,499.4,764.1,496.7z"/>
			</g>
		</g>
		<g class="st0">
			<g>
				<path class="st1" d="M199.4,110.3c0.3-0.2,0.6-0.3,1-0.3c0.9,0,1.7,0.4,2.1,1.2l10.8,19.6c0.4,0.8,0.4,1.7-0.1,2.4
					c-0.5,0.7-1.4,1.1-2.2,1l-18.2-2.8c-0.7-0.1-1.3-0.5-1.7-1.2c-0.3-0.6-0.4-1.4-0.1-2l7.5-16.9
					C198.6,110.9,199,110.5,199.4,110.3z M207,128.9l-6.3-11.4l-4.3,9.8L207,128.9z"/>
			</g>
		</g>
		<g class="st0">
			<g>
				<path class="st1" d="M362.3,626.4c0.3,0.2,0.5,0.5,0.6,0.9c0.3,0.8,0.1,1.7-0.4,2.4l-15.1,16.5c-0.6,0.6-1.5,0.9-2.3,0.7
					c-0.8-0.2-1.5-0.9-1.6-1.8l-3.2-18.1c-0.1-0.7,0.1-1.4,0.6-2c0.5-0.5,1.2-0.8,1.9-0.7l18.4,1.6
					C361.4,625.9,361.9,626.1,362.3,626.4z M347.1,639.7l8.8-9.6l-10.7-1L347.1,639.7z"/>
			</g>
		</g>
		<g>
			<g>
				<g>
					<path class="st5" d="M505.1,424.7h-84c-50.4,0-91.3-40.9-91.3-91.3V130.6c0-50.4,40.9-91.3,91.3-91.3h84
						c50.4,0,91.3,40.9,91.3,91.3v202.8C596.4,383.8,555.5,424.7,505.1,424.7z"/>
				</g>
				<g>
					<g>
						<path class="st7" d="M354.1,331.9h218c3.4,0,6.2-2.8,6.2-6.2s-2.8-6.2-6.2-6.2h-218c-3.4,0-6.2,2.8-6.2,6.2
							S350.7,331.9,354.1,331.9z"/>
					</g>
					<g>
						<path class="st7" d="M572.1,348h-218c-3.4,0-6.2,2.8-6.2,6.2l0,0c0,3.4,2.8,6.2,6.2,6.2h218c3.4,0,6.2-2.8,6.2-6.2l0,0
							C578.3,350.8,575.5,348,572.1,348z"/>
					</g>
					<g>
						<path class="st7" d="M512,376.6h-97.7c-3.4,0-6.2,2.8-6.2,6.2l0,0c0,3.4,2.8,6.2,6.2,6.2H512c3.4,0,6.2-2.8,6.2-6.2l0,0
							C518.2,379.4,515.4,376.6,512,376.6z"/>
					</g>
				</g>
				<g>
					<g>
						<polygon class="st8" points="543.9,281.8 533.2,281.7 529.9,271.5 526.5,281.7 515.8,281.6 524.4,288 521,298.2 529.8,292 
							538.4,298.3 535.2,288.1 						"/>
					</g>
					<g>
						<polygon class="st9" points="499.8,281.5 496.6,271.2 493.2,281.4 482.4,281.4 491.1,287.8 487.7,298 496.4,291.7 
							505.1,298.1 501.8,287.8 510.6,281.6 						"/>
					</g>
					<g>
						<polygon class="st9" points="466.4,281.2 463.2,271 459.8,281.2 449,281.1 457.7,287.5 454.3,297.7 463,291.4 471.7,297.8 
							468.4,287.6 477.2,281.3 						"/>
					</g>
					<g>
						<polygon class="st9" points="433.1,281 429.8,270.7 426.4,280.9 415.6,280.9 424.3,287.2 420.9,297.5 429.7,291.2 
							438.3,297.6 435.1,287.3 443.8,281.1 						"/>
					</g>
					<g>
						<polygon class="st9" points="399.7,280.7 396.4,270.5 393,280.7 382.3,280.6 390.9,287 387.5,297.2 396.3,290.9 404.9,297.3 
							401.7,287.1 410.4,280.8 						"/>
					</g>
				</g>
			</g>
			<g>
				<g>
					<g>
						<g>
							<g>
								<g>
									<g>
										<path class="st10" d="M503.8,151.9h43.3c-26-33.4-43.4-73.6-49.7-115.5L446.8,93c9.8,21.2,25.7,39.5,45.2,52.2
											C495.8,147.6,499.8,149.8,503.8,151.9z"/>
									</g>
									<g>
										<path class="st10" d="M471.3,73.4c0.1,14.4-2.6,29.4-11.2,41c-6,8-14.5,13.9-24.1,17c-9.5,3-19.9,3-29.5,0.2
											c-2.2-0.6-4.3-1.4-6.3-2.2c2.5-6.1,4.5-12.4,6.1-18.9c-3.9,4.8-7.8,9.6-12.6,13.5c-0.7,0.5-1.3,1.1-2.1,1.6
											c-3.5-1.6-6.9-3.3-10.5-4.7c17.1-15,27.1-37.8,26.9-60.5h13.2v-5.5L471.3,73.4z"/>
									</g>
									<g>
										<g>
											<g>
												<g>
													<g>
														<g>
															<g>
																<g>
																	<g>
																		<g>
																			<path class="st10" d="M499.9,44.5c0-0.1,0-0.2-0.1-0.3c-1.9-5.7-4-12.1-6.7-18.2c-5.8-13.4-24-30.9-53.7-24.7
																				c-29.6,6.3-31.4,36.8-32,65.1c-0.1,4.2-0.6,8.1-1.2,11.7h99.7C502.2,67.2,501.1,56.1,499.9,44.5z"/>
																		</g>
																		<g>
																			<g>
																				<path class="st11" d="M478.6,61c-0.2,2,1.9,31.4,4.7,53.6l-30.9,3.9l-2.7-26.3c0,0-16.6,1.9-21.2-15.5
																					c-4.6-17.4-5-52.9-3.8-56c1.1-3.1,31.1-18.5,46-4c14.9,14.5,14.1,30.4,14.7,33.6C485.9,53.5,486.9,62,478.6,61z
																					"/>
																			</g>
																			<g>
																				<g>
																					<g>
																						<g>
																							<g>
																								<path class="st12" d="M434.7,46.1c-0.2,0-0.4,0-0.6-0.2c-0.3-0.3-0.4-0.8-0.1-1.1c0.2-0.3,0.5-0.5,0.8-0.8
																									c1.3-0.9,3-1.1,4.4-0.4c0.3,0.1,0.6,0.3,0.9,0.6c0.3,0.3,0.4,0.8,0.1,1.1c-0.3,0.3-0.8,0.4-1.1,0.1
																									c-0.2-0.1-0.4-0.3-0.6-0.4c-0.9-0.4-2-0.3-2.8,0.3c-0.2,0.1-0.4,0.3-0.5,0.5
																									C435.1,46,434.9,46.1,434.7,46.1z"/>
																							</g>
																						</g>
																						<g>
																							<g>
																								<path class="st12" d="M461.7,45.3c-0.2,0-0.4-0.1-0.5-0.3c-0.1-0.2-0.3-0.3-0.5-0.5
																									c-0.8-0.6-1.9-0.7-2.8-0.3c-0.2,0.1-0.4,0.2-0.6,0.4c-0.3,0.3-0.8,0.2-1.1-0.1c-0.3-0.3-0.2-0.8,0.1-1.1
																									c0.3-0.2,0.6-0.4,0.9-0.6c1.4-0.7,3.1-0.5,4.4,0.4c0.3,0.2,0.5,0.4,0.8,0.7c0.3,0.3,0.2,0.8-0.1,1.1
																									C462.1,45.2,461.9,45.3,461.7,45.3z"/>
																							</g>
																						</g>
																					</g>
																					<g>
																						<g>
																							<path class="st12" d="M449.9,65.9c-0.8,0.1-1.8,0.1-2.7-0.2c-0.3-0.1-0.7-0.3-1-0.9c-1.6-2.9,1-13.7,1-13.8
																								c0.1-0.4,0.6-0.7,1-0.5c0.4,0.1,0.7,0.6,0.5,1c-0.6,2.2-2.2,11.8-1.1,12.7c2,0.6,4.5-0.5,4.5-0.5
																								c0.4-0.2,0.9,0,1,0.4c0.2,0.4,0,0.9-0.4,1C452.8,65.2,451.5,65.7,449.9,65.9z"/>
																						</g>
																					</g>
																					<g>
																						<g>
																							<path class="st13" d="M443.3,73c0.7,3.4,3.6,5.8,6.8,5.5c3.2-0.3,5.6-3.3,5.6-6.8L443.3,73z"/>
																						</g>
																					</g>
																				</g>
																				<g>
																					<path class="st12" d="M460.2,52.9c-0.1,1.1-0.7,1.9-1.4,1.9c-0.7,0-1.3-1-1.2-2.1c0.1-1.1,0.7-1.9,1.5-1.9
																						C459.7,50.9,460.3,51.8,460.2,52.9z"/>
																				</g>
																				<g>
																					<path class="st12" d="M438.2,54.1c0.1,1.1-0.4,2-1.1,2.1c-0.7,0.1-1.4-0.7-1.5-1.8c-0.1-1.1,0.4-2,1.1-2.1
																						C437.4,52.2,438,53,438.2,54.1z"/>
																				</g>
																			</g>
																		</g>
																		<g>
																			<path class="st10" d="M449.4,35c4.5,2.6,9.6,3.7,14.6,5c5,1.2,10.1,2.6,14.4,5.5c4.3,2.9,7.7,7.6,7.8,12.7
																				c2.7-8.2,1-17.3-3.2-24.9c-4.1-7.5-8-16.6-14.7-21.9c-4.9-3.9-12.9-4.5-19-5.6c-5.6-1-13.7,0.5-16.5,6.1
																				c4,2.9,3.7,6.6,5.6,10.8C440.7,27.9,444.6,32.2,449.4,35z"/>
																		</g>
																		<g>
																			<path class="st10" d="M420.1,54.2c0.5-5.5,3-10.8,6.9-14.7c2.3-2.3,5.2-4.2,6.8-7.1c1-1.8,1.5-3.9,2.3-5.8
																				c0.8-1.9,2.2-3.7,4.2-4.3l-4.9-11.1c-3.5-0.2-10.7,5.4-13.4,7.6c-2.7,2.3-3.2,6.1-3.4,9.6
																				C418.1,37.1,418.6,45.7,420.1,54.2z"/>
																		</g>
																	</g>
																</g>
																<g>
																	<path class="st13" d="M466,83.7c0,0-1.1,15.1-15.2,15.9l-1.3-7.4C449.6,92.3,461.4,91.9,466,83.7z"/>
																</g>
															</g>
														</g>
													</g>
												</g>
											</g>
										</g>
										<g>
											<g>
												<g>
													<g>
														<g>
															<path class="st14" d="M388.6,250.2c10.1-13.7,18.3-25,20.3-27.8c0.3-0.4,0.5-0.7,0.5-0.7s1.6,12.7,2.3,28.4h105.6
																c-0.9-14.6-0.9-30.6,1.5-43.6c0.4-1.8,0.7-3.6,1.2-5.3c0.6-2.4,1.3-4.6,2.1-6.7c0,0,0.4,0.6,1,1.7
																c3.9,6.8,18.1,31.6,19.3,37c0.4,1.7,1.1,8.2,1.9,16.8h33.4c-1-13.6-1.7-24.2-1.9-25c-0.4-2-16.3-56.5-32.2-84.9
																c-4.7-8.4-12.4-14.8-21.5-18.1c-8-2.9-18.3-6.2-24.7-7c-0.5-0.1-0.9-0.2-1.3-0.4c-0.6-0.3-1.1-0.8-1.4-1.4l-5.1,0.6
																l-13.6,1.7l-27.4,3.5l-1.9,0.2c0,0-0.3,0-0.8,0.1c-1.7,0.3-6,1.1-11.3,2.7c-11.3,3.4-27.7,10.2-35.7,22.8
																c-13,20.3-31.9,79.3-33.9,81.2c-0.7,0.7-7.9,11.3-16.4,24.1H388.6z"/>
														</g>
														<g>
															<path class="st11" d="M491,119.7c0,10.4-12.7,18.9-28.3,18.9c-14.4,0-26.3-7.2-28.1-16.5c5.4-1.6,9.6-2.4,11.3-2.7
																c0.5-0.1,0.8-0.1,0.8-0.1l1.9-0.2l27.4-3.5l13.6-1.7C490.5,115.7,491,117.6,491,119.7z"/>
														</g>
														<g>
															<path class="st1" d="M482.3,95.5c1.5-0.3,3.1,0.5,3.8,1.8L482.3,95.5z"/>
														</g>
														<g>
															<path class="st15" d="M388.6,250.2c10.1-13.7,18.3-25,20.3-27.8c0.3-0.4,0.5-0.7,0.5-0.7s1.6,12.7,2.3,28.4h30.7
																c0.4-44.4,2.4-88.2,6.2-131.2l-1.9,0.2c0,0-0.3,0-0.8,0.1c-5.3,0.9-35.2,7-47.1,25.5c-13,20.3-31.9,79.3-33.9,81.2
																c-0.7,0.7-7.9,11.3-16.4,24.1H388.6z"/>
														</g>
														<g>
															<path class="st15" d="M526.8,250.2c-3-19.7-5.8-35.7-7.9-43.6c-0.5-1.8,0.7-3.6,1.2-5.3c0.6-2.4,1.3-4.6,2.1-6.7
																c0,0,0.4,0.6,1,1.7c3.9,6.8,18.1,31.6,19.3,37c0.4,1.7,1.1,8.2,1.9,16.8h33.4c-1-13.6-1.7-24.2-1.9-25
																c-0.4-2-16.3-56.5-32.2-84.9c-4.7-8.4-12.4-14.8-21.5-18.1c-8-2.9-18.3-6.2-24.7-7c-0.5-0.1-0.9-0.2-1.3-0.4
																c-0.6-0.3-1.1-0.8-1.4-1.4l-18.6,2.4c3.1,44.3,4.7,89.2,4.9,134.7H526.8z"/>
														</g>
														<g>
															<path class="st16" d="M543.7,244.4c-0.4,0-0.7-0.3-0.7-0.7c-1.5-14.8-9.1-27.7-16.5-40.2c-1.3-2.2-2.6-4.5-3.9-6.7
																c-0.2-0.4-0.1-0.8,0.3-1c0.4-0.2,0.8-0.1,1,0.3c1.3,2.2,2.6,4.5,3.9,6.7c7.5,12.6,15.2,25.7,16.7,40.8
																C544.5,244,544.2,244.3,543.7,244.4C543.7,244.4,543.7,244.4,543.7,244.4z"/>
														</g>
														<g>
															<path class="st8" d="M388.6,250.2c10.1-13.7,18.3-25,20.3-27.8c-5.1-15.5-1.4-33.6,9.4-45.8
																c-6.2,1.5-11.4,5.6-15.4,10.6c-3.9,5-6.7,10.8-9.2,16.6c-6.5,15-11.7,30.5-15.6,46.4H388.6z"/>
														</g>
														<g>
															<path class="st16" d="M408.9,223.2c-0.3,0-0.6-0.2-0.7-0.5c-5.2-15.8-1.5-34.1,9.6-46.5c0.3-0.3,0.7-0.3,1-0.1
																c0.3,0.3,0.3,0.7,0.1,1c-10.7,12-14.3,29.7-9.3,45.1c0.1,0.4-0.1,0.8-0.5,0.9C409.1,223.2,409,223.2,408.9,223.2z"/>
														</g>
														<g>
															<path class="st8" d="M523.1,196.4c-0.6-1.1-1-1.7-1-1.7c-1.4,3.5-2.5,7.6-3.3,11.9c-1.1-11.4-0.6-23,1.6-34.2
																C521.3,180.4,522.2,188.4,523.1,196.4z"/>
														</g>
														<g>
															<path class="st16" d="M523.1,197.2c-0.4,0-0.7-0.3-0.7-0.7l-2.7-24c0-0.4,0.2-0.8,0.6-0.8c0.4,0,0.8,0.2,0.8,0.6
																l2.7,24C523.9,196.7,523.6,197.1,523.1,197.2C523.2,197.2,523.2,197.2,523.1,197.2z"/>
														</g>
													</g>
												</g>
											</g>
										</g>
									</g>
								</g>
							</g>
						</g>
						<g>
							<g>
								<path class="st5" d="M436.2,87.8c15,9.1,30.1,1,35.5-7.2c2.3-3.6,3.4-6.6,3.7-8.8c0.5-2.9,0-4.6,0-4.6s-2-17.3-3.7-16.6
									c-1.7,0.6-8.5,7.7-12.4,8.8c-3.9,1.2-14.6-3.6-19.7,0c-5.1,3.6-14-1.8-14-1.8s-0.1,0.5-0.2,1.3l0,0
									C424.8,63.6,423.5,80.1,436.2,87.8z"/>
							</g>
							<g>
								<path class="st15" d="M436.2,87.8c15,9.1,30.1,1,35.5-7.2c2.3-3.6,3.4-6.6,3.7-8.8c-8.7,3.4-18.3,4.6-27.5,3.1
									c-4.8-0.7-9.6-2.2-13.6-4.8c-4.1-2.7-7.4-6.6-8.7-11.3l-0.2,0.1l0,0C424.8,63.6,423.5,80.1,436.2,87.8z"/>
							</g>
							<g>
								<g>
									<path class="st5" d="M478.2,46c0-0.2-0.2-0.5-0.8-0.7c-0.6-0.2-1.6,0-2.6,0.7c-1.5,1.3-2.5,2.8-3.3,4.4
										c-0.8,2-0.6,3.1-0.2,3.2c0.5,0.2,1.2-0.6,2.2-2.2c0.7-1.4,1.6-2.8,2.7-3.7C477.2,46.6,478.1,46.5,478.2,46z"/>
								</g>
							</g>
							<g>
								<g>
									<path class="st5" d="M482.7,59.6c-0.5,0-0.8,0.9-2,1.8c-1,0.9-2.5,1.6-4,2.1c-1.7,0.8-2.6,1.4-2.5,1.9
										c0.1,0.5,1.2,0.7,3.2,0.3c1.7-0.6,3.3-1.3,4.8-2.6c0.8-0.9,1.1-1.9,1-2.5C483.2,59.8,483,59.6,482.7,59.6z"/>
								</g>
							</g>
						</g>
					</g>
					<g>
						<g>
							<g>
								<path class="st12" d="M502.4,185l-2.7-0.5c0.1-0.3,5-28.5,1.2-49.2c-3-16.4-13.2-23.8-18-26.4c-0.1-1.1-0.3-2.2-0.4-3.3
									c4.2,1.9,17.6,9.2,21.2,29.2C507.5,156.1,502.6,183.9,502.4,185z"/>
							</g>
						</g>
						<g>
							<g>
								<g>
									<path class="st12" d="M514.1,196.7c0,7.2-5.8,13-13,13c-7.2,0-13-5.8-13-13c0-7.2,5.8-13,13-13
										C508.2,183.7,514.1,189.5,514.1,196.7z"/>
								</g>
							</g>
							<g>
								<g>
									<g>
										<path class="st12" d="M419.7,216.9c-5.9,0-8.7-4.1-9.3-6.2c-0.4-2.9-7.9-67,17.9-72.4c2.1-0.4,4.1,0,6.2,1.4
											c12.4,8.4,20.1,50.7,20.5,52.5c0,0.2,1.7,6.8-7.6,11.4l-1.2-2.5c7.2-3.6,6.2-8.1,6.1-8.3c-0.1-0.5-7.8-43.1-19.3-50.8
											c-1.4-0.9-2.7-1.3-4-1c-23.3,4.9-15.9,68.5-15.8,69.1c0,0,0,0,0,0c0,0,1.4,4,6.7,4V216.9z"/>
									</g>
								</g>
								<g>
									<path class="st17" d="M428,214.5c0,3.1-2.5,5.7-5.7,5.7c-3.1,0-5.7-2.5-5.7-5.7s2.5-5.7,5.7-5.7
										C425.5,208.8,428,211.3,428,214.5z"/>
								</g>
								<g>
									<path class="st17" d="M451.1,203.1c0,3.1-2.5,5.7-5.7,5.7c-3.1,0-5.7-2.5-5.7-5.7c0-3.1,2.5-5.7,5.7-5.7
										C448.5,197.4,451.1,200,451.1,203.1z"/>
								</g>
							</g>
							<g>
								<g>
									<path class="st12" d="M451.1,104.5L451.1,104.5c-0.1,1,0.3,2.2,0.2,3.1c-21.3,5.3-21.4,30.9-21.3,32.1l-2.8,0.1
										C427.2,139.4,426.6,109.8,451.1,104.5z"/>
								</g>
							</g>
						</g>
					</g>
				</g>
				<g>
					<g>
						<path class="st16" d="M586,250.2c0,0.6-21.9,1.2-66.2,1.5H407.2c-44.3-0.3-66.2-0.8-66.2-1.5s21.9-1.2,66.2-1.5h112.6
							C564.1,249,586,249.6,586,250.2z"/>
					</g>
				</g>
			</g>
		</g>
		<g>
			<g>
				<g>
					<g>
						<g>
							<g>
								<g>
									<path class="st15" d="M322,697.1c-2.9,2.9-6,5.6-9.4,8.2c-16.9,13-40.3,22.3-71.3,25.4c-158.7,15.9-211.2-58.6-224-173.1
										c-5.7-51.1,7.7-84.7,24.2-106.4c1.7-2.3,3.5-4.4,5.3-6.4c1-1.1,2-2.2,3.1-3.3c21.4-21.9,52.3-32.2,82.7-27.2
										c23.9,3.9,45.6,16.7,63.1,42.2c28.1,40.7,1.5,75.8,81.9,78.1C339.2,536.4,378.2,641,322,697.1z"/>
								</g>
							</g>
						</g>
						<g>
							<g>
								<g>
									<path class="st8" d="M78.9,449.8c0,0-18.8,40.2,2.9,113.9c21.7,73.7,50.4,67.9,68.9,67.9c32.4,0,98-30.5,110.8-54.6
										c12.8-24-11.4-25.5-56.7-29C159.6,544.4,125.8,433.8,78.9,449.8z"/>
								</g>
							</g>
						</g>
						<g>
							<g>
								<g>
									<path class="st8" d="M119.6,662.5c-0.4,0-0.7-0.1-1-0.4c-0.5-0.5-0.5-1.4,0-1.9c16.2-15.4,31.7-24.5,41.8-29.4
										c11-5.3,18.1-7,18.4-7.1c0.7-0.2,1.5,0.3,1.6,1c0.2,0.7-0.3,1.5-1,1.6c-0.3,0.1-28.5,6.8-59,35.8
										C120.3,662.4,120,662.5,119.6,662.5z"/>
								</g>
							</g>
						</g>
						<g>
							<g>
								<g>
									<path class="st8" d="M125,644.4c-0.4,0-0.9-0.2-1.1-0.6c-0.4-0.6-0.3-1.5,0.4-1.9c0.6-0.4,15.7-10.4,39.1-13
										c0.7-0.1,1.4,0.5,1.5,1.2c0.1,0.7-0.5,1.4-1.2,1.5c-22.7,2.5-37.7,12.4-37.8,12.5C125.5,644.4,125.3,644.4,125,644.4z"/>
								</g>
							</g>
						</g>
						<g>
							<g>
								<g>
									<path class="st8" d="M76,532.9c-0.7,0-1.3-0.5-1.3-1.2c-2-15.6-8.7-27.6-14-34.8c-5.8-7.9-11.1-12.1-11.2-12.2
										c-0.6-0.5-0.7-1.3-0.2-1.9c0.5-0.6,1.3-0.7,1.9-0.2c0.2,0.2,5.7,4.5,11.6,12.6c5.5,7.5,12.5,19.9,14.5,36.2
										c0.1,0.7-0.4,1.4-1.2,1.5C76.2,532.9,76.1,532.9,76,532.9z"/>
								</g>
							</g>
						</g>
						<g>
							<g>
								<g>
									<g>
										<path class="st8" d="M322,697.1c-2.9,2.9-6,5.6-9.4,8.2c-19.5,11.7-43.4,19.4-69.6,22.5c-8.1,0.9-16.4,1.4-24.6,1.4
											c-22.7,0-45.4-3.5-66.8-10.5c-55.7-18-95.9-56.7-113.2-108.7c-9.5-28.5-14.1-56.3-13.8-82.5c0.2-21,3.6-41,10.1-59.6
											c2.2-6.2,4.5-11.8,6.9-16.8c1.7-2.3,3.5-4.4,5.3-6.4c1-1.1,2-2.2,3.1-3.3c-4.2,7.3-8.8,16.5-12.6,27.6
											c-10,28.7-17.4,76.3,3.8,140.1c17,51.2,56.5,89.1,111.4,106.9c58.3,18.9,125.6,11.2,167.7-19
											C320.7,696.6,321.5,696.7,322,697.1z"/>
									</g>
								</g>
							</g>
						</g>
					</g>
					<g>
						<g>
							<g>
								<g>
									<path class="st17" d="M243.3,695.2c-0.4,0-15.8,12.5-9.4,18.9c6.4,6.3,50.1,25.5,59.1,15.3c1.5-1.7,0.9-4.4-0.1-6.7
										c-1.4-3.1-3.7-5.7-6.4-7.6c-8.6-6-35.6-23.1-42.7-20.3"/>
								</g>
								<g>
									<path class="st11" d="M272.1,711.3c-3.8,3.1-29.5-4.2-30.8-9.9c-0.4-1.6,0.1-3.9,0.9-6.3c2-6,5.1-13.2,5.2-13.4l19.5,7.5
										L264,698l-0.6,1.8C263.4,699.8,275.8,708.2,272.1,711.3z"/>
								</g>
								<g>
									<path class="st13" d="M266.9,689.1L264,698c-0.9-0.5-1.8-0.9-2.8-1.3c-3.6-1.4-7.2-2.8-11-3.1c-2.7-0.2-5.6,0.2-8,1.4
										c2-6,5.1-13.2,5.2-13.4L266.9,689.1z"/>
								</g>
							</g>
							<g>
								<g>
									<g>
										<g>
											<path class="st18" d="M293.9,531.1c-14.8-11.4-68.1-6.7-109.8-0.8c-1.2,18.9,4.6,3.2,1.1,21.8
												c52.1,2.7,66.7,6.8,66.7,6.8s-7.8,42.4-7.4,60.1c0.4,17.7-5.9,69-5.9,69l37.6,7.1C276.2,695,315.2,547.4,293.9,531.1z"/>
										</g>
									</g>
								</g>
							</g>
							<g>
								<g>
									<g>
										<g>
											<path class="st17" d="M278.1,686.8c-0.2,0.1-0.3,0.1-0.5,0l-37.1-7.6c-0.5-0.1-0.9-0.6-0.8-1.2c0.1-0.5,0.6-0.9,1.2-0.8
												l37.1,7.6c0.5,0.1,0.9,0.6,0.8,1.2C278.7,686.4,278.4,686.7,278.1,686.8z"/>
										</g>
									</g>
								</g>
							</g>
							<g>
								<g>
									<g>
										<g>
											<path class="st17" d="M247.6,679.6c-0.2,0.1-0.3,0.1-0.5,0c-0.5-0.1-0.9-0.7-0.8-1.2c0-0.2,4-18.9,4.2-49.2
												c0.2-30.5,9.6-75.9,9.7-76.4c0.1-0.5,0.6-0.9,1.2-0.8c0.5,0.1,0.9,0.6,0.8,1.2c-0.1,0.5-9.4,45.7-9.6,76
												c-0.2,30.5-4.2,49.4-4.3,49.6C248.2,679.2,248,679.5,247.6,679.6z"/>
										</g>
									</g>
								</g>
							</g>
						</g>
						<g>
							<g>
								<g>
									<path class="st17" d="M310.8,712.6c-0.3,0.2-5.7,19.3,3.2,20.8s55.7-7.9,57.1-21.4c0.2-2.3-1.7-4.1-4-5.4
										c-2.9-1.7-6.2-2.5-9.6-2.5c-10.5,0-42.4,1.5-46.6,7.9"/>
								</g>
								<g>
									<path class="st11" d="M343.6,709.3c-1.3,4.7-26.6,13.5-30.9,9.5c-1.2-1.1-2.2-3.2-2.9-5.7c-1.8-6.1-3.4-13.7-3.4-14
										l20.3-5.1l2.7,8.9l0.5,1.9C329.9,704.9,344.9,704.6,343.6,709.3z"/>
								</g>
								<g>
									<path class="st13" d="M326.6,694.1l2.7,8.9c-1,0.1-2,0.3-3,0.6c-3.7,0.9-7.5,1.9-10.8,3.8c-2.4,1.4-4.5,3.4-5.8,5.8
										c-1.8-6.1-3.4-13.7-3.4-14L326.6,694.1z"/>
								</g>
							</g>
							<g>
								<g>
									<path class="st12" d="M100.2,577.1c0,0,2.4,69.6,86.3,41.9c44.8-14.8,64.7-26.2,64.7-26.2S265.4,632,273,648
										c7.6,16,28.7,55.2,28.7,55.2l36.2-8.9c0,0-42.2-146.8-68.2-153c-26.1-6.2-57.3,3.7-112.4,16.2
										C157.3,557.5,109.1,564.8,100.2,577.1z"/>
								</g>
							</g>
							<g>
								<g>
									<g>
										<g>
											<path class="st18" d="M302.8,690.1c-0.4,0.1-0.9,0-1.2-0.4c-11.7-18.9-23.3-47.6-32.6-70.6c-3.9-9.7-7.3-18.1-10.2-24.3
												c-3.8-8.5-5.4-10.2-6-10.4c-2.6-1.1-11.1,2.7-21.9,7.6c-15.7,7.1-39.3,17.8-66.8,23.5c-14.1,2.9-26.3,1-36.3-5.7
												c-17.8-11.9-22.2-34.6-22.4-35.5c-0.1-0.5,0.3-1.1,0.8-1.2c0.5-0.1,1.1,0.3,1.2,0.8c0,0.2,4.4,22.8,21.5,34.2
												c9.5,6.4,21.2,8.2,34.8,5.4c27.3-5.7,50.8-16.3,66.4-23.4c12.6-5.7,20.2-9.1,23.6-7.6c3.1,1.3,8,13.2,17.2,35.8
												c9.3,23,20.9,51.5,32.5,70.3c0.3,0.5,0.1,1.1-0.3,1.4C302.9,690,302.8,690.1,302.8,690.1z"/>
										</g>
									</g>
								</g>
							</g>
							<g>
								<g>
									<g>
										<g>
											<path class="st18" d="M333.6,683.1C333.6,683.1,333.6,683.1,333.6,683.1l-36.7,9.7c-0.5,0.1-1.1-0.2-1.2-0.7
												c-0.1-0.5,0.2-1.1,0.7-1.2l36.6-9.7c0.5-0.1,1.1,0.2,1.2,0.7C334.4,682.4,334.1,682.9,333.6,683.1z"/>
										</g>
									</g>
								</g>
							</g>
						</g>
					</g>
				</g>
			</g>
			<g>
				<g>
					<g>
						<path class="st17" d="M106,548.7c7.8-3.6,8.1-2.9,16.8-3.4c30.1-1.5,47.4-16.8,75.9-6.8c-6.6-19.8,0.2-19-2.4-27.7
							c-2.5-1.3-5.1-2.4-7.7-3.4l-88.8,21.1C98.2,536.6,106.2,541.9,106,548.7z"/>
					</g>
				</g>
				<g>
					<g>
						<g>
							<g>
								<g>
									<g>
										<g>
											<g>
												<g>
													<g>
														<path class="st10" d="M70,405.4c-0.2,0,14,7.7,20.8,6.9l7.2,4c0,0,24.2,0.1,30.9-2.3c6.8-2.4,23-4.6,23-4.6l0.9-10.9
															c0,0,3.5,7.5,6.3,9.2c2.8,1.7,25.4-6.1,25.4-6.1s-15.5-7.7-21.5-30.4c-6-22.7-13.4-46.9-38.4-46.2
															s-36.3,18.3-38.4,30.3c-2.1,11.9-1.9,25-3.7,28.9C80.8,388.1,70,405.4,70,405.4z"/>
													</g>
													<g>
														<g>
															<path class="st11" d="M287.8,403.1c1.5,1.7,1.4,4,0.6,5.6c-0.9,2-2.1,3.8-3.3,5.7s-2.3,3.7-3.5,5.5
																c-1.2,1.9-2.3,3.8-3.7,5.5c-1.4,1.7-3.1,3.1-4.7,4.6c-2.6,7.1-27.4,74.4-45.1,82.3c-11.2,5-23.9-14.5-32.3-31.1
																c-5.6-11.2-9.3-21-9.3-21.4l25.5-20.3l6,12.1l9.9,23.4l26.5-49.6c0-0.1,0.1-0.2,0.1-0.3c0.6-1.5,0.7-3,0.5-4.6
																c-0.2-1.7-0.4-3.4-0.5-5.1c-0.1-2.9-0.6-5.8,0.3-8.7c0.8-2.7,0.2-5.8,2.2-8.3c0.6-0.7,0.7-1.8,1.1-2.7
																c0.2-0.5,0.5-1.2,0.9-1.2c0.5-0.1,1.2,0.3,1.5,0.7c1.2,1.5,1.9,3.2,1.2,5.1c-0.6,1.6-1,3.1-0.8,4.8
																c0,0.6,0.2,1.1,0.3,1.7c2.1-1.6,4-3.1,5.9-4.6c1.7-1.3,3.4-2.7,5.1-4c0.8-0.6,1.8-1,2.4-1.7c1.4-1.7,2.6-3.5,3.8-5.2
																c0.2-0.2,0.1-0.6,0.2-0.9c0.4-1.7,1.1-3.1,2.7-4c1.2-0.7,2.1-0.1,2.2,1.3c0,0.4,0,0.9,0.2,1.2
																c1.1,1.8,1.9,3.7,1.5,5.8c-0.2,1,0.2,1.6,1,2c0.8,0.4,1.1,1,1.1,1.9c0,0.7-0.1,1.4,0,2.1
																C287.3,401.3,287.3,402.5,287.8,403.1z"/>
														</g>
														<g>
															<path class="st13" d="M218,451.6c-11.3,6.8-18.2,17.1-22.2,29.7c-5.6-11.2-9.3-21-9.3-21.4l25.5-20.3L218,451.6z"/>
														</g>
														<g>
															<path class="st19" d="M189.5,465c0,0,4,28.4,12.7,56.7c2.9,9.4,3.5,15.8,3.7,17c3.5,18.3-105.7,52.4-109.2,34.1
																c-0.6-3.3-5.3-68.6-2.6-93.1c0.6-5.6,1.2-9.4,1.7-10.2c2.8-4.3-33.2,7.3-33.2,7.3s-8.4-20-3.7-33.6
																c4.7-13.6,25.6-22.8,44.4-30.9c18.8-8.1,68-8.1,75-6.3c15.9,1.2,37.2,36.8,37.9,39.6
																C216.9,448.3,189.5,465,189.5,465z"/>
														</g>
														<g>
															<path class="st20" d="M202.2,522.5c-0.4,0-0.7-0.2-0.8-0.6c-8.5-28-12.7-56.5-12.7-56.8c-0.1-0.5,0.3-0.9,0.7-1
																c0.5-0.1,0.9,0.3,1,0.7c0,0.3,4.1,28.7,12.6,56.5c0.1,0.4-0.1,0.9-0.6,1.1C202.4,522.5,202.3,522.5,202.2,522.5z"/>
														</g>
														<g>
															<path class="st20" d="M189.8,465.8c-0.3,0-0.6-0.2-0.8-0.5l-8.9-17.9c-0.2-0.4,0-0.9,0.4-1.1c0.4-0.2,0.9,0,1.1,0.4
																l8.9,17.9c0.2,0.4,0,0.9-0.4,1.1C190.1,465.8,189.9,465.8,189.8,465.8z"/>
														</g>
														<g>
															<path class="st11" d="M104.7,380.2c0.4,0.9,7.1,29.2,7.1,29.2c-5.2,1.3-10.4,3.3-15.5,5.8c0,0,15.8,26.3,38.7,18.2
																s14.1-28.5,14.1-28.5c-5.4,0.3-10.5,0.6-14.5,1l-0.4-6.2c0,0,13.7-1.7,14.1-16.6c0.3-14.9-6.3-43.5-7.8-45.8
																c-1.5-2.2-28.7-8.9-37.8,5.7c-9.2,14.6-5.5,27.2-5.3,29.9c0.2,2.7,1,10.2,8.2,7"/>
														</g>
														<g>
															<g>
																<g>
																	<g>
																		<g>
																			<path class="st12" d="M137.3,360.1c0.2,0,0.3-0.1,0.4-0.3c0.2-0.3,0.2-0.7-0.1-0.9c-0.2-0.2-0.5-0.3-0.8-0.5
																				c-1.2-0.5-2.6-0.3-3.6,0.5c-0.2,0.2-0.4,0.4-0.6,0.6c-0.2,0.3-0.2,0.7,0.1,0.9c0.3,0.2,0.7,0.2,0.9-0.1
																				c0.1-0.1,0.2-0.3,0.4-0.4c0.6-0.5,1.5-0.6,2.3-0.3c0.2,0.1,0.3,0.2,0.5,0.3C136.9,360.1,137.1,360.1,137.3,360.1
																				z"/>
																		</g>
																	</g>
																	<g>
																		<g>
																			<path class="st12" d="M115.4,364.7c0.2-0.1,0.3-0.2,0.4-0.3c0.1-0.2,0.2-0.3,0.3-0.5c0.5-0.6,1.4-0.9,2.2-0.8
																				c0.2,0,0.4,0.1,0.5,0.2c0.3,0.2,0.7,0,0.9-0.3c0.2-0.3,0-0.7-0.3-0.9c-0.3-0.1-0.6-0.2-0.9-0.3
																				c-1.3-0.3-2.6,0.2-3.5,1.2c-0.2,0.2-0.3,0.5-0.5,0.7c-0.2,0.3,0,0.7,0.3,0.9C115,364.7,115.2,364.7,115.4,364.7z
																				"/>
																		</g>
																	</g>
																</g>
																<g>
																	<g>
																		<path class="st12" d="M128.9,378.9c0.7-0.1,1.4-0.3,2.1-0.7c0.2-0.1,0.5-0.4,0.7-0.9c0.7-2.6-3.4-10.8-3.5-10.9
																			c-0.2-0.3-0.6-0.4-0.9-0.2c-0.3,0.2-0.4,0.6-0.2,0.9c0.9,1.6,4.1,9,3.3,10c-1.5,0.9-3.7,0.5-3.7,0.5
																			c-0.4-0.1-0.7,0.2-0.8,0.5c-0.1,0.4,0.2,0.7,0.5,0.8C126.4,378.9,127.5,379.1,128.9,378.9z"/>
																	</g>
																</g>
																<g>
																	<g>
																		<path class="st13" d="M135.6,383.4c0.1,2.9-1.8,5.4-4.4,5.7s-5.1-1.6-5.8-4.4L135.6,383.4z"/>
																	</g>
																</g>
															</g>
															<g>
																<path class="st12" d="M118.1,370.5c0.3,0.9,0.9,1.4,1.5,1.2c0.6-0.2,0.8-1,0.6-1.9c-0.3-0.9-0.9-1.4-1.5-1.2
																	C118.1,368.8,117.8,369.7,118.1,370.5z"/>
															</g>
															<g>
																<path class="st12" d="M136,367.2c0.1,0.9,0.7,1.6,1.3,1.5c0.6-0.1,1-0.9,0.9-1.8c-0.1-0.9-0.7-1.6-1.3-1.5
																	C136.3,365.5,135.9,366.3,136,367.2z"/>
															</g>
														</g>
													</g>
													<g>
														<path class="st10" d="M123.2,354c-3.1,2.9-7,4.9-10.8,6.9c-3.8,2-7.6,4.1-10.5,7.2c-2.9,3.1-4.7,7.6-3.8,11.7
															c-3.8-6-4.2-13.7-2.3-20.6c1.9-6.9,3.2-14.9,7.6-20.5c3.2-4.1,9.5-6.1,14.2-8.2c4.3-1.9,11.1-2.2,14.5,1.7
															c-2.7,3.1-1.7,6-2.4,9.8C128.9,346.6,126.6,350.8,123.2,354z"/>
													</g>
													<g>
														<path class="st10" d="M150.5,363.7c-1.5-4.3-4.5-8.1-8.4-10.5c-2.3-1.4-5-2.4-6.9-4.4c-1.2-1.2-2-2.8-3-4.2
															c-1-1.4-2.5-2.6-4.2-2.6l1.8-9.9c2.8-0.8,9.7,2.2,12.3,3.5c2.6,1.3,3.8,4.3,4.6,7.1
															C148.8,349.6,150.1,356.6,150.5,363.7z"/>
													</g>
												</g>
											</g>
											<g>
												<path class="st13" d="M134.2,399.8l0.4,6.2c-11.5,2.1-15.3-9.8-15.3-9.8C124.6,401.8,134.2,399.8,134.2,399.8z"/>
											</g>
										</g>
									</g>
									<g>
										<path class="st11" d="M172.4,457.3c-10.9,37-28.3,76.8-50,81.1c-16.5,3.3-42.3-34.1-53.7-52.3c-3.6-5.7-5.8-9.5-5.8-9.5
											c11.6-3.9,23.1-6.8,34.5-8.8l10.9,14.3l12.8,16.8c4.1-9.7,39.6-49.6,39.6-49.6L172.4,457.3z"/>
									</g>
								</g>
							</g>
							<g>
								<path class="st11" d="M187.7,436.7c-1.3,1.9-2.1,4.1-3.3,6.1c-1.3,2.1-2.6,4.1-4.3,5.9c-2.4,2.7-4.2,5.8-5.7,9
									c-0.5,1.1-1,2.2-1.6,3.3c-1.4,2.9-2.8,5.8-4.2,8.7c-0.2,0.3-0.3,0.6-0.6,1.1c-5.8-2.5-11.5-5.1-17.4-7.6
									c0.8-1.3,1.6-2.5,2.3-3.7c2.4-4.1,4.7-8.2,7.2-12.2c1.4-2.4,2.5-4.9,2.6-7.6c0.2-3.8,0.2-7.5,0.4-11.3
									c0.1-1.7,0.9-3.1,2.1-4.3c1.5-1.4,2.7-3,4.1-4.6c0.4-0.4,0.9-0.7,1.3-1.1c0.2-0.2,0.4-0.4,0.5-0.7c0.7-1.5,1.4-3.1,2.1-4.6
									l2.6-4.9c1.1-1.9,2.1-3.8,3.3-5.7c0.8-1.3,1.7-2.7,2.7-3.8c1-1.1,1.9-1.1,2.9-0.5c0.9,0.6,1.3,1.9,0.8,3
									c-1.4,3-2.6,6.1-4.4,9c-0.6,1.1-0.4,2.2-1.2,3.2c-0.7,1-1.1,2.2-1.4,3.5c0.2-0.1,0.4-0.2,0.5-0.3c0.4-0.3,0.8-0.7,1.2-0.9
									c2.2-1.2,4.1-0.2,4.3,2.3c0,0.7,0.2,1.1,1,1.3c1.8,0.4,2.5,1.8,2.2,3.9c-0.1,0.8-0.3,1.6-0.4,2.4c1.9,0.8,2,2.6,2,4.2
									C189.3,432.4,189,434.6,187.7,436.7z"/>
							</g>
						</g>
						<g>
							<path class="st13" d="M108.2,482.1c-13.3-1.3-26.8,0-39.6,4.1c-3.6-5.7-5.8-9.5-5.8-9.5c11.6-3.9,23.1-6.8,34.5-8.8
								L108.2,482.1z"/>
						</g>
						<g>
							<path class="st21" d="M117.7,512c-0.4,0-0.8-0.3-0.8-0.7c-1-7.8,3.3-12.7,3.5-12.9c0.3-0.3,0.9-0.4,1.2-0.1
								c0.3,0.3,0.4,0.9,0.1,1.2c0,0-4,4.6-3,11.6c0.1,0.5-0.3,0.9-0.7,1C117.8,512,117.7,512,117.7,512z"/>
						</g>
						<g>
							<path class="st21" d="M226.7,484.3c-0.5,0-0.8-0.4-0.9-0.8c-0.2-7.4,1.1-8.9,1.5-9.2c0.4-0.3,0.9-0.2,1.2,0.2
								c0.3,0.3,0.2,0.8-0.1,1.1c-0.1,0.1-1.1,1.6-0.9,7.9C227.6,483.9,227.2,484.3,226.7,484.3
								C226.7,484.3,226.7,484.3,226.7,484.3z"/>
						</g>
						<g>
							<path class="st20" d="M97.3,468.7c-0.3,0-0.6-0.2-0.7-0.4l-5.8-10.2c-0.2-0.4-0.1-0.9,0.3-1.2c0.4-0.2,0.9-0.1,1.2,0.3
								l5.8,10.2c0.2,0.4,0.1,0.9-0.3,1.2C97.6,468.6,97.5,468.7,97.3,468.7z"/>
						</g>
					</g>
					<g>
						<path class="st10" d="M228,453.4l52.6-12.7c2.2-0.5,3.9-2.8,3.8-5.2l-3.6-80.6c-0.1-2.3-2-3.7-4.2-3.2L224,364.4
							c-2.2,0.5-3.9,2.8-3.8,5.2l3.6,80.6C223.9,452.5,225.8,453.9,228,453.4z"/>
					</g>
					<g>
						<path class="st11" d="M276.7,401.8c0.8,9.4,6.8,16.4,9.2,16.2s3.6-8,2.8-17.5c-0.8-9.4-3.4-16.9-5.8-16.7
							C280.6,384,275.9,392.4,276.7,401.8z"/>
					</g>
				</g>
			</g>
		</g>
		<g>
			<g>
				<g>
					<g>
						<g>
							<path class="st19" d="M687.8,673.3c-3-3.9-6.2-7.7-9.7-11.2c-10.4-10.7-22.8-19.5-34.8-28.1l0.6-0.8
								c12,8.6,24.4,17.4,34.9,28.2c3.5,3.6,6.7,7.4,9.7,11.3L687.8,673.3z"/>
						</g>
					</g>
				</g>
				<g>
					<g>
						<g>
							<path class="st19" d="M679.3,662.7c-6.4-1.4-14.1-2.8-19-7.2c-4.5-4.1-7.3-9.9-12.3-13.3c-1.6-1.1-3.3-1.9-4.5-3.3
								c-1.2-1.5-1.5-3.9,0-5.1C658.7,644.4,674.8,654.4,679.3,662.7z"/>
						</g>
					</g>
				</g>
			</g>
			<g>
				<g>
					<path class="st20" d="M698.5,681.7c-3.4-10.8-7.4-19.8-12.3-27.6c-5.7-9.2-12.5-16.6-20.3-22.1l0.6-0.8
						c7.9,5.5,14.8,13.1,20.5,22.4c4.8,7.8,8.9,16.9,12.4,27.8L698.5,681.7z"/>
				</g>
			</g>
			<g>
				<g>
					<path class="st19" d="M676.3,637.5c-2.3,3.2-6.9,2.2-10.8,1.9c-4-0.3-7.8-3.5-11.2-5.5c2.5-1.4,5.2-1.3,7.7-2.7
						c-2.9-1-6.2-1-9.1,0c-2.7-3.2-5.3-6.4-8-9.6c2.3-0.3,4.7-0.5,7-0.8c-3.1,0.1-6.1-1.6-8.2-3.9c-2.1-2.3-3.5-5.1-4.9-7.9
						c-0.7-1.3-4.4-6.8-2-7.3c1-0.2,3.4,1.7,4.4,2.1c1.5,0.7,3,1.4,4.5,2c2.6,1.1,5.2,2.2,7.8,3.4c0.5,0.2,1.1,0.5,1.6,0.7
						c6.8,3.2,13.5,7.2,18,13c0,0.1,0.1,0.1,0.1,0.2c1.2,1.5,2.2,3.2,3,5c0.6,1.3,1.1,2.8,1.2,4.3
						C677.6,634.3,677.3,636.1,676.3,637.5z"/>
				</g>
			</g>
			<g>
				<g>
					<path class="st22" d="M672.9,623.1c-4.2-0.2-8.4-0.3-12.5-0.5c-4.2-4.2-7.8-8.9-11.2-13.8c0.2,0,0.3,0,0.5,0
						c1.2,0.1,2.4,0.3,3.6,0.5c0.5,0.2,1.1,0.5,1.6,0.7C661.7,613.2,668.4,617.3,672.9,623.1z"/>
				</g>
			</g>
			<g>
				<g>
					<path class="st22" d="M677.3,632.5c-4.7-1.9-10.2-4.5-13.9-7.3c3.3-0.4,6.5-1,9.7-2c1.2,1.5,2.2,3.2,3,5
						C676.6,629.6,677.1,631.1,677.3,632.5z"/>
				</g>
			</g>
			<g>
				<g>
					<g>
						<path class="st20" d="M699.4,673.9c0-0.3-3.9-26.6-7-54.9c-4.2-37.5-5.2-60.7-3.2-69l0,0c0.1-0.2,0.1-0.5,0.2-0.7l0.9,0.3
							c-0.1,0.2-0.1,0.4-0.2,0.7l0,0c-2,8.1-0.9,31.8,3.2,68.6c3.1,28.3,7,54.6,7,54.8L699.4,673.9z"/>
					</g>
				</g>
				<g>
					<g>
						<path class="st20" d="M696.9,600c-1.3,6.3-2.6,12.7-4,19c-3.1-28.3-5.6-58.9-3.2-68.8l0,0l0.4-0.8c-1,5.6-0.6,11.5,1.3,16.9
							c2,6,5.7,11.4,6.7,17.6C699.1,589.2,698,594.7,696.9,600z"/>
					</g>
				</g>
			</g>
			<g>
				<g>
					<path class="st19" d="M731.3,628.2c4.3-2.6,9.2-3.9,13.9-5.7c4.7-1.7,9.4-4.1,12.3-8.2c-1.3,5.7-4.9,10.6-9.1,14.6
						s-8.9,7.5-13.3,11.3c-5.8,5-10.9,10.8-15.2,17.1c-5.6,8.2-9.8,17.4-12.4,26.9c0.5-1.9,0.1-4.6,0.3-6.6c0.3-2.3,0.7-4.5,1.3-6.7
						c1.2-4.5,3-8.8,5.3-12.8c1.6-2.6,3.7-4.9,4.5-8c1-4.1,1.1-7.9,3.1-11.8C724.1,634.2,727.3,630.6,731.3,628.2z"/>
				</g>
			</g>
			<g>
				<g>
					<g>
						<path class="st19" d="M771.4,530.9c0,0.1,0,0.1,0,0.2c-2.4,0.2-4.8,0.5-7.2,0.9c2.3,0.2,4.7,0.5,7,0.8
							c-0.5,3.6-1.2,7.2-2.1,10.7c-8.9,2.7-17.2,7.8-23.6,14.6c6.9-4.4,14.5-7.8,22.3-10.1c-0.1,0.2-0.1,0.4-0.2,0.6
							c-1.6,5.3-3.6,10.4-5.8,15.5c-8.4,0.8-16.6,3.6-23.6,8.3c6.5-1.6,14.5-3.4,21.7-4c-2,4.4-4,8.7-6.1,13c-0.7,1.5-1.5,3-2.2,4.6
							l0,0c-9.7,1.7-19,5.7-26.8,11.8c8.2-2.3,16.1-5.9,24.4-7.9c0.2-0.1,0.4-0.1,0.6-0.2c-3.3,6.7-6.9,13.3-11.3,19.3
							c-5.4,1-10.8,2-16.2,3.1c4.3,0.7,8.6,0.9,12.9,0.8c-8.2,8.3-26,17.2-26.2,17.3l0,0c-6.6-5.9-9.7-14.4-10.5-23.3
							c5-5.4,9.9-10.8,14.9-16.2c-4.3,0.9-9.8,5.1-15.1,9.4c0.4-10,4.1-19.7,9.3-28.3c0.1-0.2,0.3-0.4,0.4-0.6
							c5.4,0.8,10.9,1.7,16.3,2.5c-4.5-2.4-9.1-4.6-13.8-6.4c2.3-3.4,4.9-6.6,7.5-9.7c2.4,3.2,4.9,6.4,7.3,9.7
							c-1.7-4.4-3-8.8-4-13.4c2-2.2,4.1-4.4,6.2-6.6c2.4-2.5,4.8-4.9,7.2-7.3c1.8,4.3,3.5,8.5,5.3,12.8c-0.7-5.3-1.3-10.6-2-15.9
							c1.2-1.1,2.4-2.2,3.6-3.2c3.5-3,7.1-5.9,10.9-8.5c1,1.7,2.1,3.4,3.1,5.1c-0.2-2.2-0.4-4.5-0.6-6.7c0.3-0.2,0.6-0.4,0.8-0.5
							c3.4-2.2,8.5-5.9,12.9-4.5C773.6,519.7,771.8,527.2,771.4,530.9z"/>
					</g>
				</g>
				<g>
					<g>
						<path class="st20" d="M705.4,678c-2.5-15.9-0.9-33.8,4.7-53.3c4.5-15.7,11.7-32.6,21.3-50c15.5-28.2,32.8-49.8,37.7-55.7
							c0.1-0.2,0.2-0.3,0.2-0.3l0.3,0.2l0.5,0.3c0,0,0,0-0.3,0.4c-12.4,14.9-73.7,92.8-63.5,158.3L705.4,678z"/>
					</g>
				</g>
				<g>
					<g>
						<path class="st3" d="M709.5,630.4l-0.4-0.3l-0.5-0.1c13.3-52.4,52.6-101.7,60.4-111c0.1-0.2,0.2-0.3,0.3-0.3l0.3,0.2l0.5,0.3
							c0,0,0,0-0.3,0.4c-7.7,9.3-46.9,58.4-60.2,110.6L709.5,630.4L709.5,630.4z"/>
					</g>
				</g>
			</g>
			<g>
				<g>
					<g>
						<path class="st19" d="M631.1,560.7c0,0,0,0.1,0,0.1c1.9-0.1,3.9-0.2,5.8-0.1c-1.8,0.4-3.6,0.9-5.4,1.5
							c0.8,2.8,1.8,5.5,2.9,8.2c7.4,1.1,14.4,4.1,20.3,8.7c-6-2.6-12.3-4.4-18.8-5.3c0.1,0.2,0.2,0.3,0.2,0.5
							c1.9,4,4.1,7.8,6.4,11.6c6.7-0.4,13.5,0.9,19.6,3.7c-5.3-0.5-11.9-0.9-17.6-0.6c2.1,3.2,4.2,6.4,6.3,9.5
							c0.8,1.1,1.5,2.2,2.3,3.3h0c7.8,0.2,15.6,2.3,22.5,6.1c-6.8-0.8-13.4-2.7-20.2-3.4c-0.2,0-0.3,0-0.5,0
							c3.4,4.9,7,9.6,11.2,13.8c4.4,0.2,8.7,0.3,13.1,0.5c-3.3,1.1-6.7,1.8-10.1,2.2c7.4,5.6,22.5,10.5,22.7,10.5l0,0
							c4.5-5.4,6-12.5,5.5-19.6c-4.6-3.7-9.1-7.3-13.7-11c3.5,0.2,8.4,2.8,13,5.6c-1.5-7.8-5.6-15-10.7-21.2
							c-0.1-0.2-0.3-0.3-0.4-0.5c-4.2,1.3-8.4,2.6-12.6,3.9c3.2-2.4,6.6-4.7,10.1-6.7c-2.2-2.4-4.6-4.6-7.1-6.8
							c-1.5,2.8-3.1,5.7-4.6,8.5c0.8-3.6,1.3-7.3,1.6-11c-1.9-1.5-3.7-3-5.7-4.5c-2.2-1.7-4.3-3.3-6.6-4.9
							c-0.9,3.6-1.7,7.1-2.6,10.7c-0.1-4.3-0.2-8.5-0.3-12.8c-1.1-0.7-2.1-1.4-3.2-2.1c-3.1-2-6.3-3.8-9.6-5.4
							c-0.6,1.5-1.2,2.9-1.9,4.4c-0.1-1.8-0.2-3.6-0.3-5.4c-0.2-0.1-0.5-0.2-0.7-0.3c-3-1.3-7.4-3.6-10.7-2
							C628,552.1,630.4,557.9,631.1,560.7z"/>
					</g>
				</g>
				<g>
					<g>
						<path class="st20" d="M700.7,668.9l-1,0C700,615,638,558,630.9,551.7c-0.3-0.2-0.3-0.2-0.3-0.3l0.4-0.3l0.3-0.3
							c0,0,0.1,0.1,0.2,0.2c4.6,4.1,20.8,19.1,36.3,39.5c9.6,12.6,17.3,25.1,22.7,36.9C697.4,642.1,700.7,656.1,700.7,668.9z"/>
					</g>
				</g>
				<g>
					<g>
						<path class="st3" d="M691.6,631.9L691.6,631.9l-0.1-0.2c-16.6-39.6-53.4-73.6-60.5-80c-0.3-0.2-0.3-0.2-0.3-0.3l0.4-0.3
							l0.3-0.3c0,0,0.1,0.1,0.2,0.2c7.2,6.4,44.1,40.6,60.8,80.4l-0.4,0.2L691.6,631.9z"/>
					</g>
				</g>
			</g>
			<g>
				<g>
					<g>
						<path class="st11" d="M729.6,672.2v34.2c0,10.1-8.2,18.3-18.3,18.3h-24.1c-10.1,0-18.3-8.2-18.3-18.3v-34.2H729.6z"/>
					</g>
				</g>
				<g>
					<g>
						<path class="st11" d="M729.6,672.2h-60.7c-1.6,0-2.9-1.3-2.9-2.9l0,0c0-1.6,1.3-2.9,2.9-2.9h60.7c1.6,0,2.9,1.3,2.9,2.9l0,0
							C732.5,670.9,731.2,672.2,729.6,672.2z"/>
					</g>
				</g>
				<g>
					<g>
						<path class="st13" d="M729.6,672.2v34.2c0,10.1-8.2,18.3-18.3,18.3h-9.9c1-1.2,2-2.5,2.9-3.7c3.9-5.3,7.3-11.5,6.9-18.1
							c-0.3-7.1-5.1-13.5-11.3-17.1c-6.2-3.5-13.6-4.5-20.7-3.9c-3.5,0.3-7,0.9-10.4,1.7v-11.4H729.6z"/>
					</g>
				</g>
			</g>
		</g>
		<g>
			<g>
				
					<ellipse transform="matrix(0.2298 -0.9732 0.9732 0.2298 293.1142 834.3829)" class="st1" cx="673.7" cy="232" rx="34.5" ry="34.5"/>
			</g>
			<g>
				<path class="st7" d="M694.3,216.5c-5.6-5.8-14.9-5.9-20.6-0.2c-5.7-5.7-15-5.6-20.6,0.2c-5.5,5.7-5.1,14.9,0.5,20.5l16.3,16.3
					c2.1,2.1,5.4,2.1,7.5,0l16.3-16.3C699.4,231.4,699.8,222.2,694.3,216.5z"/>
			</g>
			<g>
				<path class="st1" d="M673.7,247.1C673.7,247.1,673.7,247.1,673.7,247.1c-0.6,0-1-0.4-1.2-0.9l-7.3-21.3l-3,8.9
					c-0.2,0.5-0.7,0.9-1.2,0.9h-12.2c-0.7,0-1.3-0.6-1.3-1.3c0-0.7,0.6-1.3,1.3-1.3h11.3l3.9-11.5c0.2-0.5,0.7-0.9,1.2-0.9
					c0.5,0,1,0.3,1.2,0.9l7.4,21.7l7.2-17c0.2-0.4,0.6-0.7,1.1-0.8c0.5,0,0.9,0.2,1.2,0.6l3.9,6.9h11.5c0.7,0,1.3,0.6,1.3,1.3
					c0,0.7-0.6,1.3-1.3,1.3h-12.2c-0.5,0-0.9-0.2-1.1-0.6l-3-5.3l-7.5,17.6C674.7,246.8,674.2,247.1,673.7,247.1z"/>
			</g>
		</g>
		<g>
			<g>
				<g>
					<path class="st5" d="M732.9,359.1h-72.3c-0.6,0-1.2-0.5-1.2-1.2v-20.1c0-0.6,0.5-1.2,1.2-1.2h72.3c0.6,0,1.2,0.5,1.2,1.2v20.1
						C734,358.6,733.5,359.1,732.9,359.1z M661.8,356.8h69.9V339h-69.9V356.8z"/>
				</g>
				<g>
					<path class="st5" d="M805.1,359.1h-72.3c-0.6,0-1.2-0.5-1.2-1.2v-20.1c0-0.6,0.5-1.2,1.2-1.2h72.3c0.6,0,1.2,0.5,1.2,1.2v20.1
						C806.3,358.6,805.8,359.1,805.1,359.1z M734,356.8h69.9V339H734V356.8z"/>
				</g>
				<g>
					<path class="st5" d="M769,379.3h-72.3c-0.6,0-1.2-0.5-1.2-1.2v-20.1c0-0.6,0.5-1.2,1.2-1.2H769c0.6,0,1.2,0.5,1.2,1.2v20.1
						C770.2,378.7,769.6,379.3,769,379.3z M697.9,376.9h69.9v-17.8h-69.9V376.9z"/>
				</g>
				<g>
					<path class="st5" d="M769,339h-72.3c-0.6,0-1.2-0.5-1.2-1.2v-20.1c0-0.6,0.5-1.2,1.2-1.2H769c0.6,0,1.2,0.5,1.2,1.2v20.1
						C770.2,338.4,769.6,339,769,339z M697.9,336.6h69.9v-17.8h-69.9V336.6z"/>
				</g>
			</g>
			<g>
				<path class="st5" d="M696.7,379.3h-8.8c-0.6,0-1.2-0.5-1.2-1.2c0-0.6,0.5-1.2,1.2-1.2h8.8c0.6,0,1.2,0.5,1.2,1.2
					C697.9,378.7,697.4,379.3,696.7,379.3z"/>
			</g>
			<g>
				<path class="st5" d="M784.2,318.8H769c-0.6,0-1.2-0.5-1.2-1.2s0.5-1.2,1.2-1.2h15.2c0.6,0,1.2,0.5,1.2,1.2
					S784.8,318.8,784.2,318.8z"/>
			</g>
			<g>
				<path class="st5" d="M664.6,339h-14.5c-0.6,0-1.2-0.5-1.2-1.2c0-0.6,0.5-1.2,1.2-1.2h14.5c0.6,0,1.2,0.5,1.2,1.2
					C665.8,338.4,665.3,339,664.6,339z"/>
			</g>
		</g>
		<g>
			<g>
				<path class="st23" d="M273.4,267.2v41.1c0,2.9-2.3,5.2-5.2,5.2h-55.9l-8.4,12.1l-8.4-12.1h-7.9c-2.9,0-5.2-2.3-5.2-5.2v-41.1
					c0-2.9,2.3-5.2,5.2-5.2h80.5C271,262,273.4,264.3,273.4,267.2z"/>
			</g>
			<g>
				<g>
					<g>
						<path class="st7" d="M234.8,282.2C234.8,282.2,234.8,282.2,234.8,282.2c-1.6,0-3.1-1-4.2-2.7c-0.8-1.3-1.8-1.9-2.8-1.9
							s-2,0.7-2.7,1.9c-1.1,1.8-2.6,2.7-4.2,2.7c0,0,0,0,0,0c-1.6,0-3.1-1-4.2-2.7c-0.8-1.2-1.7-1.9-2.7-1.9c0,0,0,0,0,0
							c-1,0-2,0.7-2.7,1.9c-1.1,1.8-2.6,2.7-4.2,2.7c0,0,0,0,0,0c-1.6,0-3.1-1-4.2-2.7c-0.8-1.2-1.7-1.9-2.7-1.9c0,0,0,0,0,0
							c-1,0-2,0.7-2.7,1.9c-1.1,1.8-2.6,2.7-4.2,2.7c0,0,0,0,0,0c-1.6,0-3.1-1-4.2-2.7c-0.2-0.4-0.1-0.9,0.3-1.2
							c0.4-0.2,0.9-0.1,1.2,0.3c0.8,1.2,1.7,1.9,2.7,1.9c0,0,0,0,0,0c1,0,2-0.7,2.7-1.9c1.1-1.8,2.6-2.7,4.2-2.7c0,0,0,0,0,0
							c1.6,0,3.1,1,4.2,2.7c0.8,1.2,1.7,1.9,2.7,1.9c0,0,0,0,0,0c1,0,2-0.7,2.7-1.9c1.1-1.8,2.6-2.7,4.2-2.7c0,0,0,0,0,0
							c1.6,0,3.1,1,4.2,2.7c0.8,1.2,1.7,1.9,2.7,1.9c1,0,2-0.7,2.7-1.9c1.1-1.8,2.6-2.7,4.2-2.7c1.6,0,3.1,1,4.2,2.7
							c0.8,1.3,1.8,1.9,2.8,1.9c0,0,0,0,0,0c1,0,2-0.7,2.7-1.9c1.1-1.8,2.6-2.7,4.2-2.7c0,0,0,0,0,0c1.6,0,3.1,1,4.2,2.7
							c0.8,1.2,1.7,1.9,2.7,1.9c0,0,0,0,0,0c1,0,2-0.7,2.7-1.9c1.1-1.8,2.6-2.7,4.2-2.7c0,0,0,0,0,0c1.6,0,3.1,1,4.2,2.7
							c0.8,1.2,1.7,1.9,2.7,1.9c1,0,2-0.7,2.7-1.9c0.2-0.4,0.8-0.5,1.2-0.3c0.4,0.2,0.5,0.8,0.3,1.2c-1.1,1.8-2.6,2.7-4.2,2.7
							c-1.6,0-3.1-1-4.2-2.7c-0.8-1.2-1.7-1.9-2.7-1.9c0,0,0,0,0,0c-1,0-2,0.7-2.7,1.9c-1.1,1.8-2.6,2.7-4.2,2.7c0,0,0,0,0,0
							c-1.6,0-3.1-1-4.2-2.7c-0.8-1.2-1.7-1.9-2.7-1.9c0,0,0,0,0,0c-1,0-2,0.7-2.7,1.9C237.9,281.2,236.4,282.2,234.8,282.2z"/>
					</g>
				</g>
				<g>
					<g>
						<path class="st7" d="M193.3,299.1c-1.6,0-3.1-1-4.2-2.7c-0.2-0.4-0.1-0.9,0.3-1.2c0.4-0.2,0.9-0.1,1.2,0.3
							c0.8,1.2,1.7,1.9,2.7,1.9c0,0,0,0,0,0c1,0,2-0.7,2.7-1.9c1.1-1.8,2.6-2.7,4.2-2.7c0,0,0,0,0,0c1.6,0,3.1,1,4.2,2.7
							c0.8,1.2,1.7,1.9,2.7,1.9c0,0,0,0,0,0c1,0,2-0.7,2.7-1.9c1.1-1.8,2.6-2.7,4.2-2.7c0,0,0,0,0,0c1.6,0,3.1,1,4.2,2.7
							c0.8,1.2,1.7,1.9,2.7,1.9c1,0,2-0.7,2.7-1.9c1.1-1.8,2.6-2.7,4.2-2.7c1.1,0,2.1,0.4,3,1.3c0.7,0.7,0.6,1.8-0.3,2.4l0,0l0,0
							c-0.8-1.2-1.7-1.9-2.7-1.9s-2,0.7-2.7,1.9c-1.1,1.8-2.6,2.7-4.2,2.7c0,0,0,0,0,0c-1.6,0-3.1-1-4.2-2.7
							c-0.8-1.2-1.7-1.9-2.7-1.9c0,0,0,0,0,0c-1,0-2,0.7-2.7,1.9c-1.1,1.8-2.6,2.7-4.2,2.7c0,0,0,0,0,0c-1.6,0-3.1-1-4.2-2.7
							c-0.8-1.2-1.7-1.9-2.7-1.9c0,0,0,0,0,0c-1,0-2,0.7-2.7,1.9C196.4,298.2,194.9,299.1,193.3,299.1z"/>
					</g>
				</g>
			</g>
		</g>
	</g>
</g>
</svg>
