<?xml version="1.0" encoding="utf-8"?>
<!-- Generator: Adobe Illustrator 24.2.1, SVG Export Plug-In . SVG Version: 6.00 Build 0)  -->
<svg version="1.1" xmlns="http://www.w3.org/2000/svg" xmlns:xlink="http://www.w3.org/1999/xlink" x="0px" y="0px"
	 viewBox="0 0 431.9 313.6" style="enable-background:new 0 0 431.9 313.6;" xml:space="preserve">
<style type="text/css">
	.st0{opacity:2.000000e-02;fill:#253863;}
	.st1{opacity:0.1;}
	.st2{opacity:0.55;fill:#253863;}
	.st3{fill:#253863;}
	.st4{fill:#D7F0F9;}
	.st5{fill:#FFFFFF;}
	.st6{fill:#51AD5B;}
	.st7{fill:#FFBF4D;}
	.st8{fill:#0F2449;}
	.st9{fill:#383838;}
	.st10{fill:#444444;}
	.st11{fill:#1E1E1E;}
	.st12{fill:#F98D3D;}
	.st13{fill:#ED701B;}
	.st14{fill:none;}
	.st15{fill:#EFAA3A;}
	.st16{opacity:0.29;fill:#F98D2B;}
	.st17{fill:#3A8E41;}
	.st18{fill:#FF9F50;}
	.st19{fill:#F77E2D;}
	.st20{fill:#141414;}
	.st21{opacity:0.55;fill:url(#SVGID_1_);}
	.st22{opacity:0.3;fill:#D7F0F9;}
</style>
<g id="BACKGROUND">
</g>
<g id="OBJECTS">
	<g>
		<g>
			<path class="st0" d="M419,313.6c7,0,12.6-5.6,12.7-12.5c0.5-34.6,3.3-85.7-61.9-99.9c-52.8-11.4-21.5-105.3-163.7-99.2
				c-102.1,4.4-75,90.4-154.3,97.6C-1,204.3-1.5,271.1,0.6,301.7c0.4,6.7,6,11.9,12.7,11.9H419z"/>
			<g class="st1">
				<path class="st2" d="M369.8,201.2c-52.8-11.4-21.5-105.3-163.7-99.2c-24.3,1-41.2,6.7-54.1,14.8c4.3-0.6,8.9-1,13.8-1.2
					c142.2-6.1,110.9,87.8,163.7,99.2c64.5,14,62.5,64.1,61.9,98.8H419c7,0,12.6-5.6,12.7-12.5C432.3,266.4,435.1,215.3,369.8,201.2
					z"/>
			</g>
			<g>
				<rect x="143.7" class="st3" width="2.2" height="83.8"/>
				<rect x="304.7" class="st3" width="2.2" height="109"/>
				<g>
					<path class="st4" d="M306.7,97.9L139.8,78.5c-7.1-0.8-13.6,4.3-14.4,11.4l-12.5,106.8c-0.8,7.1,4.3,13.6,11.4,14.4l166.9,19.5
						c7.1,0.8,13.6-4.3,14.4-11.4l12.5-106.8C319,105.2,313.9,98.8,306.7,97.9z"/>
					<path class="st3" d="M316.9,122.9l1.2-10.6c0.8-7.1-4.3-13.6-11.4-14.4L139.8,78.5c-7.1-0.8-13.6,4.3-14.4,11.4l-1.2,10.6
						L316.9,122.9z"/>
					<g>
						<path class="st3" d="M151.1,165.1l21.2-37.3c1.4-2.4,4-3.7,6.7-3.4l0,0c3.8,0.4,6.4,3.8,6,7.6l-4.4,37.7l0.2,0
							c2.6,0.3,4.5,2.7,4.2,5.3l0,0c-0.3,2.6-2.7,4.5-5.3,4.2l-0.2,0l-0.8,6.9c-0.3,2.8-2.9,4.8-5.7,4.5l0,0
							c-2.8-0.3-4.8-2.9-4.5-5.7l0.8-6.9l-15.2-1.8c-2.6-0.3-4.5-2.7-4.2-5.3l0.4-3.5C150.5,166.6,150.7,165.8,151.1,165.1z
							 M170.5,167.9l2.7-23.4c0-0.2-0.2-0.2-0.3-0.1l-12.5,22.1c-0.2,0.4,0,0.9,0.5,0.9l8.9,1C170.2,168.5,170.5,168.2,170.5,167.9z
							"/>
						<path class="st3" d="M244.5,176l21.2-37.3c1.4-2.4,4-3.7,6.7-3.4l0,0c3.8,0.4,6.4,3.8,6,7.6l-4.4,37.7l0.2,0
							c2.6,0.3,4.5,2.7,4.2,5.3l0,0c-0.3,2.6-2.7,4.5-5.3,4.2l-0.2,0l-0.8,6.9c-0.3,2.8-2.9,4.8-5.7,4.5l0,0
							c-2.8-0.3-4.8-2.9-4.5-5.7l0.8-6.9l-15.2-1.8c-2.6-0.3-4.5-2.7-4.2-5.3l0.4-3.5C243.9,177.5,244.1,176.7,244.5,176z
							 M263.9,178.8l2.7-23.4c0-0.2-0.2-0.2-0.3-0.1l-12.5,22.1c-0.2,0.4,0,0.9,0.5,0.9l8.9,1C263.6,179.4,263.9,179.1,263.9,178.8z
							"/>
						<path class="st3" d="M202.5,143.1c1.2-10.5,7.5-15.9,17.6-14.7c10.2,1.2,15,7.9,13.8,18.4l-4,34.2
							c-1.2,10.5-7.5,15.9-17.6,14.7c-10.2-1.2-15-7.9-13.8-18.4L202.5,143.1z M208.8,179.3c-0.5,4.7,1.3,6.7,4.6,7.1
							c3.3,0.4,5.6-1.2,6.1-5.9l4.2-35.6c0.5-4.7-1.3-6.7-4.6-7.1c-3.3-0.4-5.6,1.2-6.1,5.9L208.8,179.3z"/>
					</g>
					<g>
						<path class="st5" d="M143.8,93.2c-0.2,1.9-2,3.3-3.9,3.1c-1.9-0.2-3.3-2-3.1-3.9c0.2-1.9,2-3.3,3.9-3.1
							C142.7,89.6,144,91.3,143.8,93.2z"/>
						<path class="st6" d="M160.6,95.2c-0.2,1.9-2,3.3-3.9,3.1c-1.9-0.2-3.3-2-3.1-3.9c0.2-1.9,2-3.3,3.9-3.1
							C159.4,91.5,160.8,93.2,160.6,95.2z"/>
						<path class="st7" d="M177.9,97.2c-0.2,1.9-2,3.3-3.9,3.1c-1.9-0.2-3.3-2-3.1-3.9c0.2-1.9,2-3.3,3.9-3.1
							C176.8,93.5,178.1,95.3,177.9,97.2z"/>
					</g>
				</g>
			</g>
			<g>
				<path class="st8" d="M110.8,218.8c0,0-2.3,10-1.9,20.2c0.3,9.2-0.8,69.3-0.8,69.3h7.3c0,0,10.5-47.1,10.9-50.8
					c0.4-3.7,5.7-40.9,5.7-40.9L110.8,218.8z"/>
				<path class="st3" d="M115.6,216c0,0,1.7,12.9,4.6,22c2.9,9.1,17,70.3,17,70.3h7.3c0,0-1.4-47.1-1.9-50.8
					c-0.5-3.7-4.2-40.9-4.2-40.9L115.6,216z"/>
				<path class="st9" d="M137.8,308.3v5.1h14c0.8,0,1.1-1,0.4-1.5c-2-1.4-5.3-3.2-8.4-3.7H137.8z"/>
				<path class="st9" d="M108.5,308.3v5.1h14c0.8,0,1.1-1,0.4-1.5c-2-1.4-5.3-3.2-8.4-3.7H108.5z"/>
				<g>
					<path class="st10" d="M133.7,156.3c0,0,4.8-7.3-0.7-8c-4.2-0.5-6,0.7-6,0.7s-4.9-0.5-7.6,1.8c-1.8,1.6-8.6,13.9,2.3,18.4
						c10.9,4.5,8.6-6.9,8.6-6.9L133.7,156.3z"/>
					<path class="st11" d="M133,148.2c-4.2-0.5-6,0.7-6,0.7s-4.9-0.5-7.6,1.8c-1.8,1.6-8.6,13.9,2.3,18.4c5.1,2.1,7.3,0.7,8.2-1.4
						c-10.3,2.9-11.4-9.5-9.7-13.1c1.7-3.6,5.9-1.9,5.9-1.9c1.6-4.1,6.9-3.6,9.1-3.3C134.8,148.8,134.1,148.4,133,148.2z"/>
					<path class="st12" d="M127,159.8c0,0-1.4-1.4-2.5,0c-1.1,1.4-0.4,4.6,1.4,4.8c0,0-0.5,4.6-4.1,4.5v3.7h8.4V170
						c0,0,5.2-2.1,5-6.4c-0.2-4.3-1.4-7.3-1.4-7.3S130.9,159.5,127,159.8z"/>
					<path class="st13" d="M128.2,171.2c0.8,0.3,0.7,0.9,0.7,1.7h1.2V170c0,0-2,0.6-5-1C125.2,168.9,126.9,170.6,128.2,171.2z"/>
				</g>
				<path class="st12" d="M130,153c0,0-4.3-1.7-4.8-0.4c-0.3,0.8,0.5,1.6,1.7,2.3l-1,0.2c-0.2,0-0.3,0.3-0.1,0.5
					c0.3,0.2,1.1,0.4,2.7,0.4L130,153z"/>
				<g>
					<polygon class="st14" points="104.1,200.1 110,218.8 109.8,217.9 110,218.8 111.9,191.5 					"/>
					<path class="st7" d="M161,163.9c-8.3-6.1-30.9-11-30.9-11l-1.9,3.4c0,0,20.5,8,19.2,9.1c-0.8,0.7-10.8,5.3-14.2,6.8
						c-0.7,0.3-1.5,0.5-2.3,0.5l-10.4-0.1c0,0-7.5-0.9-13.4,5.9c-5.3,6.1-14.2,20.1-14.2,20.1l15.1,22.2l1.7,2.5l0,0l0,0.2
						c0,0,0.5,0.1,1.5,0.1c4.9,0.4,20.4,1.7,28.6-0.1l0.2-0.1l-0.4-36.4c13.1-10.4,19.4-18.4,21.7-21
						C161.8,165.4,161.7,164.4,161,163.9z M110.3,213.5l-1.5-3.2l-4.7-10.3l7.8-8.7l-1.4,19.1L110.3,213.5z"/>
				</g>
				<polygon class="st15" points="108.8,210.3 110.3,213.5 109.6,223.3 109.6,223.3 107.9,220.8 				"/>
				<path class="st16" d="M136,185.8c-1.4,1-1,10-1.4,15.7c-0.6,9.4-1.1,17.6-0.7,22.9c2.1-0.1,4.1-0.4,5.8-0.7l0.2-0.1l-0.4-36.4
					c13.1-10.4,19.4-18.4,21.7-21c0.6-0.7,0.5-1.7-0.2-2.2C161,163.9,150.6,175.2,136,185.8z"/>
				<path class="st8" d="M142.7,257.5c-0.4-2.7-2.4-22.8-3.5-33.8l-5.3,0.6c0,0,7.7,63.3,8.2,84.1h2.4
					C144.6,308.3,143.2,261.2,142.7,257.5z"/>
			</g>
			<g>
				<g>
					<g>
						<path class="st6" d="M67.5,290.5c0,0-2.3-2.1-0.7-10.1c1.5-8,5.4-15.7,3.5-24.4c-1.9-8.7-16.7-30.7-16.8-32.1
							c0-1.5-4.6,25.5,3.1,36.2c7.7,10.6,8.6,14.3,8.3,19.9c-0.3,5.6,0.1,10.1,0.9,11.4L67.5,290.5z"/>
						<path class="st17" d="M66.1,274.4c-0.9,3.6-1.4,12.6,0,14.7c0.1,0.2,0.3,0.1,0.6-0.3c-0.4-1.5-0.7-4.1,0.1-8.4
							c1.5-8,5.4-15.7,3.5-24.4c-1.9-8.7-16.7-30.7-16.8-32.1c0,0,2.2,18.3,9.8,30.9C68.6,263.7,67,270.8,66.1,274.4z"/>
					</g>
					<g>
						<path class="st6" d="M70.2,289.9c0,0-4.4-10.9,3-20.3c7.4-9.4,19.2-21.5,19.4-26.3c0,0,3,22.8-6.6,29.2
							c-9.6,6.4-16.4,7.5-14.7,17.4L70.2,289.9z"/>
						<path class="st17" d="M80.6,267.9c-10.7,7.8-11.6,16.8-9.9,21c0.1,0.3,0.4,0.5,0.7,0.6c-1.4-9.6,5.2-10.7,14.7-17
							c9.6-6.4,6.6-29.2,6.6-29.2S91.3,260.1,80.6,267.9z"/>
					</g>
					<g>
						<path class="st6" d="M63,290.2c0,0,1.4-5.8,0.7-12c-0.7-6.2-7.2-9.7-13.3-16.3c-3.1-3.4-4-21.3-2.1-22.9c0,0-10.7,13-9.1,22.5
							c1.7,9.5,19.1,15.7,20.8,20.3c1.6,4.6,1.5,8.5,1.5,8.5L63,290.2z"/>
						<g>
							<path class="st17" d="M44.6,244.1c-3.5,9.6,0.1,21.2,11.9,28.4c8.7,5.3,5.9,16.4,5.9,16.4l1.4-4.4c0.1-1.9,0.1-4.1-0.1-6.3
								c-0.7-6.2-7.2-9.7-13.3-16.3c-3-3.3-4-20-2.3-22.7C47.6,239.9,46.2,241.7,44.6,244.1z"/>
							<path class="st17" d="M48.1,239.2c0.1-0.2,0.2-0.2,0.2-0.2C48.2,239.1,48.1,239.1,48.1,239.2z"/>
						</g>
					</g>
					<g>
						<path class="st6" d="M72.5,289.5c0,0,2.5-9.3,8.7-10.6c6.2-1.3,13.3-10.4,13.7-12.2C94.9,266.7,93.9,284,72.5,289.5z"/>
						<path class="st17" d="M80.8,282c-3.8,1.9-5.4,4.5-6,6.8c19.1-6.1,20-22.1,20-22.1c-0.1,0.4-0.4,1-1,1.8
							C92.1,271.7,87.5,278.6,80.8,282z"/>
					</g>
				</g>
				<path class="st7" d="M85.9,286H53.4l3.9,24.3c0.3,1.8,1.9,3.2,3.7,3.2h17.3c1.9,0,3.5-1.4,3.7-3.2L85.9,286z"/>
				<polygon class="st18" points="85.3,290 85.9,286 53.4,286 54,290 				"/>
				<path class="st18" d="M78,286l-3.9,24.3c-0.3,1.8-1.9,3.2-3.7,3.2h7.9c1.9,0,3.5-1.4,3.7-3.2l3.9-24.3H78z"/>
			</g>
			<g>
				<rect x="163.2" y="242.7" class="st7" width="146.9" height="29.9"/>
				<rect x="163.2" y="242.7" class="st16" width="146.9" height="7.2"/>
				<polygon class="st19" points="175.9,242.7 189.3,242.7 185.7,250 172.3,250 				"/>
				<polygon class="st19" points="206.1,242.7 219.5,242.7 215.9,250 202.5,250 				"/>
				<polygon class="st19" points="236.3,242.7 249.7,242.7 246.1,250 232.7,250 				"/>
				<polygon class="st19" points="266.5,242.7 279.9,242.7 276.3,250 262.9,250 				"/>
				<polygon class="st19" points="310,242.7 310,242.9 306.5,250 293.1,250 296.7,242.7 				"/>
				<rect x="181.4" y="272.6" class="st9" width="10.4" height="40.8"/>
				<rect x="189.4" y="272.6" class="st20" width="2.4" height="40.8"/>
				<rect x="282.2" y="272.6" class="st9" width="10.4" height="40.8"/>
				<rect x="289.5" y="272.6" class="st20" width="3.1" height="40.8"/>
				<rect x="181.4" y="272.6" class="st20" width="10.4" height="5.1"/>
				<rect x="282.2" y="272.6" class="st20" width="10.4" height="5.1"/>
				<rect x="181.4" y="238.1" class="st9" width="10.4" height="4.6"/>
				<rect x="189.4" y="238.1" class="st20" width="2.4" height="4.6"/>
				<rect x="282.2" y="238.1" class="st9" width="10.4" height="4.6"/>
				<rect x="289.5" y="238.1" class="st20" width="3.1" height="4.6"/>
				<rect x="181.4" y="242.1" class="st20" width="10.4" height="0.6"/>
				<rect x="282.2" y="242.1" class="st20" width="10.4" height="0.6"/>
				<g>
					<g>
						<polygon class="st3" points="189.3,242.7 174.5,272.6 163.2,272.6 163.2,268.5 175.9,242.7 						"/>
						<polygon class="st3" points="206.1,242.7 191.3,272.6 204.7,272.6 219.5,242.7 						"/>
						<polygon class="st3" points="249.7,242.7 234.9,272.6 221.5,272.6 236.3,242.7 						"/>
						<polygon class="st3" points="279.9,242.7 265.1,272.6 251.7,272.6 266.5,242.7 						"/>
						<polygon class="st3" points="296.7,242.7 281.9,272.6 295.3,272.6 310,242.9 						"/>
					</g>
				</g>
				<g>
					<g>
						<polygon class="st8" points="189.3,242.7 185.7,250 172.3,250 175.9,242.7 						"/>
						<polygon class="st8" points="219.5,242.7 215.9,250 202.5,250 206.1,242.7 						"/>
						<polygon class="st8" points="249.7,242.7 246.1,250 232.7,250 236.3,242.7 						"/>
						<polygon class="st8" points="279.9,242.7 276.3,250 262.9,250 266.5,242.7 						"/>
						<polygon class="st8" points="310,242.9 306.5,250 293.1,250 296.7,242.7 						"/>
					</g>
				</g>
				<linearGradient id="SVGID_1_" gradientUnits="userSpaceOnUse" x1="237.3719" y1="281.3425" x2="237.3719" y2="257.2882">
					<stop  offset="0" style="stop-color:#FFFFFF"/>
					<stop  offset="1" style="stop-color:#FFFFFF;stop-opacity:0"/>
				</linearGradient>
				<rect x="167.3" y="255.7" class="st21" width="140.2" height="14.9"/>
				
					<ellipse transform="matrix(0.987 -0.1606 0.1606 0.987 -34.7853 32.9436)" class="st7" cx="186.3" cy="231.6" rx="9.2" ry="9.2"/>
				<path class="st3" d="M190.5,231.6c0-2.3-1.9-4.2-4.2-4.2c-2.3,0-4.2,1.9-4.2,4.2c0,2.3,1.9,4.2,4.2,4.2
					C188.7,235.8,190.5,233.9,190.5,231.6z"/>
				
					<ellipse transform="matrix(0.987 -0.1606 0.1606 0.987 -33.4741 49.1624)" class="st7" cx="287.3" cy="231.6" rx="9.2" ry="9.2"/>
				<path class="st3" d="M291.5,231.6c0-2.3-1.9-4.2-4.2-4.2c-2.3,0-4.2,1.9-4.2,4.2c0,2.3,1.9,4.2,4.2,4.2
					C289.6,235.8,291.5,233.9,291.5,231.6z"/>
			</g>
			<g>
				<path class="st7" d="M365.7,310.3h-46.8l7.2-17.3v0l2.9-7l0.8-1.9l1.3-3.1l0.3-0.6l2.9-7l0.5-1.3l5.1-12.4c0.9-2.2,4.1-2.2,5,0
					l5.1,12.4l0.5,1.3l2.9,7l0.3,0.6l1.3,3.1l0.8,1.9l2.9,7v0L365.7,310.3z"/>
				<polygon class="st16" points="322,302.8 318.9,310.3 365.7,310.3 362.6,302.8 				"/>
				<rect x="315.2" y="305.8" class="st9" width="53.6" height="7.6"/>
				<rect x="357.1" y="305.8" class="st20" width="11.6" height="7.6"/>
				<g>
					<path class="st16" d="M363.8,305.8h-6.6l-5.3-12.9v0l-2.9-7l-0.8-1.9l-1.3-3.1l-0.3-0.6l-2.9-7l-0.5-1.3l-4.3-10.4l0.8-2
						c0.9-2.2,4.1-2.2,5,0l5.1,12.4l0.5,1.3l2.9,7l0.3,0.6l1.3,3.1l0.8,1.9l2.9,7v0L363.8,305.8z"/>
					<g>
						<polygon class="st3" points="353.3,280.2 331.3,280.2 334.1,273.2 350.4,273.2 						"/>
						<polygon class="st3" points="358.5,292.9 358.5,292.9 326,292.9 326,292.9 328.9,285.9 355.6,285.9 						"/>
						<polygon class="st8" points="353.3,280.2 346.7,280.2 343.8,273.2 350.4,273.2 						"/>
						<polygon class="st8" points="358.5,292.9 358.5,292.9 351.9,292.9 351.9,292.9 349,285.9 355.6,285.9 						"/>
					</g>
				</g>
			</g>
			<g>
				<path class="st22" d="M67.5,120.2c3.5,0,6.5-2.5,7-6c0.1-0.6,0.1-1.3,0.1-1.9c0-7.7-6.2-14-14-14c-0.3,0-0.6,0-0.9,0
					c-0.6-7.6-7-13.6-14.8-13.6c-8.2,0-14.8,6.6-14.8,14.8c0,0.4,0,0.7,0,1.1c-2.3-1.3-5-2-7.9-1.9c-7.4,0.3-13.6,6.3-14.1,13.7
					c0,0.1,0,0.1,0,0.2c-0.2,4,3,7.4,7.1,7.4H67.5z"/>
				<path class="st22" d="M400.6,131.2c11,0,11.6-16.6,0.6-17.1c-0.3,0-0.6,0-0.9,0c-2,0-3.9,0.3-5.6,0.9c-1.5-9-9.3-15.9-18.7-15.9
					c-9.6,0-17.6,7.2-18.8,16.5c-2.3-1.1-4.8-1.7-7.5-1.7c-1.5,0-3,0.2-4.4,0.6c-9.7,2.5-7.6,16.8,2.3,16.8H400.6z"/>
				<path class="st22" d="M268.1,49.3c11,0,11.6-16.6,0.6-17.1c-0.3,0-0.6,0-0.9,0c-2,0-3.9,0.3-5.6,0.9c-1.5-9-9.3-15.8-18.7-15.8
					c-9.6,0-17.5,7.2-18.8,16.4c-2.3-1.1-4.8-1.7-7.5-1.7c-1.5,0-3,0.2-4.4,0.6c-9.6,2.5-7.6,16.8,2.3,16.8H268.1z"/>
				<circle class="st7" cx="92.4" cy="53.6" r="26.5"/>
				<path class="st18" d="M92.6,27.1c7.2,4.7,11.9,12.9,11.9,22.1c0,14.6-11.8,26.5-26.5,26.5c-0.1,0-0.1,0-0.2,0
					C82.1,78.4,87,80,92.4,80c14.6,0,26.5-11.8,26.5-26.5C118.9,39,107.1,27.2,92.6,27.1z"/>
			</g>
		</g>
	</g>
</g>
<g id="DESIGNED_BY_FREEPIK">
</g>
</svg>
