<?xml version="1.0" encoding="utf-8"?>
<!-- Generator: Adobe Illustrator 24.2.1, SVG Export Plug-In . SVG Version: 6.00 Build 0)  -->
<svg version="1.1" id="Layer_1" xmlns="http://www.w3.org/2000/svg" xmlns:xlink="http://www.w3.org/1999/xlink" x="0px" y="0px"
	 viewBox="0 0 516.1 516.1" style="enable-background:new 0 0 516.1 516.1;" xml:space="preserve">
<style type="text/css">
	.st0{fill:#51AD5B;}
</style>
<g>
	<path class="st0" d="M516.1,95v330c0,50.2-40.8,91-91,91H91c-50.2,0-91-40.8-91-91V91C0,40.9,40.8,0,91,0h334
		c2.6,0,5.1,0.1,7.6,0.3l-201,240.8l-46.5-46.5c-11.8-11.8-27.4-18.3-44.1-18.3c-16.7,0-32.3,6.5-44.1,18.3s-18.3,27.4-18.3,44.1
		c0,16.7,6.5,32.3,18.3,44.1l94.7,94.8c11.8,11.8,27.4,18.3,44.1,18.3c0.9,0,1.8,0,2.8-0.1c17.5-0.8,33.9-8.9,45.1-22.3L516.1,95z"
		/>
	<path class="st0" d="M235.8,358.4c-6.6,0-12.9-2.6-17.6-7.3l-94.7-94.7c-9.7-9.7-9.7-25.5,0-35.3c9.7-9.7,25.5-9.7,35.3,0
		l75.4,75.4L469.6,14.5c8.8-10.6,24.6-12,35.1-3.2c10.6,8.8,12,24.6,3.2,35.1l-252.9,303c-4.5,5.4-11,8.6-18,8.9
		C236.5,358.4,236.2,358.4,235.8,358.4z"/>
</g>
</svg>
