<?xml version="1.0" encoding="utf-8"?>
<!-- Generator: Adobe Illustrator 24.2.1, SVG Export Plug-In . SVG Version: 6.00 Build 0)  -->
<svg version="1.1" id="Layer_1" xmlns="http://www.w3.org/2000/svg" xmlns:xlink="http://www.w3.org/1999/xlink" x="0px" y="0px"
	 viewBox="0 0 382.6 383" style="enable-background:new 0 0 382.6 383;" xml:space="preserve">
<path d="M79.1,142c-4.8-8.8-9.6-17.2-14-25.7c-5.7-11.1-11.2-22.5-12.5-35.1c-2.5-24.7,6.2-45.7,24.7-61.9C99.3,0,125.1-5,152.5,5.2
	c28.1,10.5,44.1,31.7,48.4,61.5c1.6,11-0.8,21.6-4.7,31.9c-6.9,18.1-16.6,34.6-26.9,50.9c-1.5,2.4-3.1,4.8-5.1,7.9
	c3.8,0.5,7.1,1.3,10.3,1.2c12.4-0.4,24.7-0.9,37-1.9c11.2-0.8,21.7,0.6,31.1,7.1c4.6,3.2,8.2,7.3,10.2,12.7
	c1.8,4.9,0.5,9.6-1.3,14.2c-1.1,2.9-2.7,6,0,9.9c1.4-1.7,2.6-3.2,3.9-4.6c3.5-4.2,6.8-8.6,10.7-12.5c3.8-3.8,8.6-5.9,14.3-5.5
	c9.1,0.6,15.8,9.8,13.6,18.6c-0.7,2.9-1.6,5.9-1.6,8.8c0,1.8,1.6,3.5,2.5,5.3c1.7-0.9,3.8-1.3,4.9-2.6c1.8-2.2,3-4.9,4.2-7.5
	c6.4-14.4,16.5-25.5,29.8-33.8c3.6-2.3,7.1-4.6,10.7-6.9c5.1-3.4,9.3-7.5,11.6-13.4c0.5-1.3,1.3-2.4,2-3.6c4.3-7.1,9.6-9.6,15.8-7.4
	c6,2.1,9.8,8.9,8.8,16.1c-0.7,5.4-1.8,10.8-2.8,16.2c-2.2,11.4-4.5,22.8-6.7,34.2c-1.8,9.5-7,16.4-15.7,20.7c-1,0.5-2,1.1-2.9,1.7
	c-8.9,5.2-11,10.3-8.7,20.3c1.2,5,2.4,9.9,3.3,15c1.5,9.1-0.9,17.4-6.4,24.7c-3.9,5.2-8.4,9.9-12.5,15c-1.9,2.3-3.8,4.7-5.4,7.2
	c-3.4,5.1-4.3,10.7-2.1,16.4c1.8,4.7,3.8,9.2,5.8,13.8c3.2,7.3,5.7,14.7,5.6,22.7c-0.2,15.8-12.9,25.2-28.2,20.8
	c-7.7-2.2-13.5-6.9-18.3-13c-4.2-5.3-7.9-10.9-11.9-16.3c-1.6-2.2-3.5-4.3-5.5-6.1c-1-0.9-2.7-1.6-4-1.4c-14,1.9-28,3.7-41.9,6
	c-4,0.7-7.8,2.6-11.5,4.3c-4.1,1.9-6,5.3-6.3,9.8c-0.5,7.8-2.7,15-11,18.1c-8.7,3.3-16.7,1.2-23-5.4c-3.6-3.7-6.1-8.4-9.1-12.7
	c-0.5-0.7-0.8-1.5-1.2-2.3c-8.9-20.9-25.1-32.7-46.9-37.4c-12.2-2.6-24.5-4.9-36.7-7.4c-31.9-6.7-53.6-25.8-67.2-54.9
	c-4.6-9.9-8.5-19.9-10.4-30.8c-2.6-14.9,1.6-28.4,7.6-41.7c4.4-9.6,8.8-19.3,12.7-29.2c2.4-6,2.9-12.4,1.6-18.8
	c-0.6-3-0.5-5.8,2.5-7.6c2.7-1.7,5.2-0.8,7.7,0.7c10.6,6.4,22.4,7.3,34.3,7.9C70.9,142.1,74.8,142,79.1,142z M35.3,148.5
	c-0.8,13.6-6.3,25.2-11.9,36.8c-2.6,5.3-5,10.6-7.3,16c-3.2,8-5.2,16.3-3.8,24.9c3.3,20.2,12,38,24.4,54
	c6.4,8.3,14.8,14.3,24.6,17.8c7.5,2.6,15.2,4.9,22.9,6.8c14.8,3.7,29.8,6.4,44.4,10.7c20,6,35.1,18.2,43.2,38.1
	c1.3,3.2,2.7,6.6,4.9,9.2c2.5,2.9,5.6,5.7,9.1,7.4c4.4,2.1,7.8-0.4,8.5-5.2c0.3-2.1,0.5-4.2,0.6-6.3c0.3-5.7,2.7-10.3,7.6-13
	c5-2.8,10.2-5.7,15.7-6.8c14.5-2.9,29.3-4.6,43.9-7.3c8.6-1.6,14.5,1.4,19.4,8c4.6,6.1,9.1,12.3,13.9,18.1c3,3.6,6.4,7,10.1,10
	c3.6,2.9,7.8,3.3,11.9,0.6c4.2-2.8,6-6.8,4.9-11.6c-0.9-4.2-2.4-8.4-3.9-12.5c-2.3-6.2-5-12.2-7.3-18.5c-3.2-8.8-2-17.3,3-25.1
	c2.3-3.7,5.1-7.1,7.9-10.5c3.6-4.5,7.5-8.7,11-13.3c3.6-4.6,5.1-10,3.9-15.9c-1.2-5.7-2.5-11.5-3.5-17.2c-2-11.6,1.6-20.9,11.5-27.6
	c2.5-1.7,5.1-3.2,7.7-4.6c4.8-2.7,7.7-6.6,8.7-12c3-15.7,6-31.4,9-47.1c0.3-1.7,0-3.5,0-5.3c-0.4-0.1-0.7-0.1-1.1-0.2
	c-1,1.8-2.1,3.6-3,5.4c-2.9,6.1-7.1,11.2-12.5,15.1c-3.6,2.6-7.3,5.2-11.2,7.5c-13.2,7.9-23,18.6-29.1,32.8
	c-1.6,3.8-4.2,7.4-7.1,10.4c-4.2,4.3-9.7,5.7-15.5,3.6c-5.8-2-9.5-6.5-10-12.4c-0.5-4.7,0.4-9.6,1.1-14.4c0.6-3.9-1.3-6.4-5-4.9
	c-2.5,1-4.8,3.1-6.6,5.2c-3.1,3.7-5.6,8-8.6,11.8c-3.3,4.1-7.8,5.9-13,4.6c-5.3-1.3-8.5-5.1-10-10.2c-1.5-4.9-0.5-9.6,1.4-14.2
	c2.5-6.3,1.7-10-4-13.9c-3-2.1-6.7-3.9-10.2-4.1c-7.4-0.5-15-0.3-22.4,0.3c-14.7,1.1-29.4,2.2-44-1.3c-2.2-0.5-3.1,0.5-4.2,2
	c-7.4,10.1-14.8,20.1-22.3,30.1c-4.4,5.8-8.1,5.9-12.5-0.1c-10.6-14.4-21-28.9-31.4-43.5c-1.5-2.1-2.9-2.9-5.5-2.9
	C67.5,154.2,51.4,154.2,35.3,148.5z M126.8,189.3c8-11.2,15.7-21.6,23-32.3c13-19.1,25.2-38.7,34.2-60.1c5.1-12.1,6.7-24.4,3.5-37.3
	C178.9,25,142,4.6,108,15.1c-30.8,9.5-54.8,46.2-38.7,82.2C84.2,130.4,104.9,159.7,126.8,189.3z"/>
<path d="M126.6,42.2c18.2,0,33,14.6,33.1,32.7c0.1,18.2-15,33.3-33.1,33.1c-18.2-0.1-32.8-14.8-32.8-33
	C93.7,56.8,108.4,42.2,126.6,42.2z M105.7,75c0,11.6,9.3,20.9,20.9,21c11.6,0.1,21.2-9.6,21.1-21.2c-0.1-11.5-9.6-20.8-21.2-20.7
	C114.9,54.2,105.7,63.4,105.7,75z"/>
</svg>
