<?xml version="1.0" encoding="utf-8"?>
<!-- Generator: Adobe Illustrator 24.2.1, SVG Export Plug-In . SVG Version: 6.00 Build 0)  -->
<svg version="1.1" id="Layer_1" xmlns="http://www.w3.org/2000/svg" xmlns:xlink="http://www.w3.org/1999/xlink" x="0px" y="0px"
	 viewBox="0 0 88.4 88" style="enable-background:new 0 0 88.4 88;" xml:space="preserve">
<style type="text/css">
	.st0{fill:#F34949;}
	.st1{fill:#FFFFFF;}
</style>
<path class="st0" d="M0,88c0-13.5-0.1-27,0.1-40.5c0-2.2,1.1-4.8,2.6-6.4c12.7-13,25.5-25.7,38.4-38.5c1.2-1.2,2.9-2.5,4.5-2.5
	C59.7-0.1,73.8,0,88.4,0c-6.2,6.4-11.9,12.4-17.8,18.3c-21.8,22-43.6,44-65.4,66C4.1,85.5,3.1,86.8,2,88C1.3,88,0.7,88,0,88z"/>
<g>
	<path class="st1" d="M7.6,55.4l4.7,2.3l0,0l-2.4-4.6l1.5-1.6l5.1,5l-1.2,1.2l-1.3-1.2l-2.2-2.4l0,0l2.4,4.7l-0.8,0.8l-4.7-2.3l0,0
		l2.4,2.1l1.3,1.2l-1.2,1.2l-5.1-5L7.6,55.4z"/>
	<path class="st1" d="M19.3,49.5c0.6,0.6,0.9,1.3,1,2.1c0,0.8-0.3,1.5-0.9,2.1c-0.6,0.6-1.3,1-2.1,1c-0.8,0-1.5-0.3-2.1-0.9
		l-0.9-0.9c-0.6-0.6-0.9-1.3-1-2.1c0-0.8,0.3-1.5,0.9-2.2c0.6-0.6,1.3-1,2.1-1c0.8,0,1.5,0.3,2.1,0.9L19.3,49.5z M17.2,49.7
		c-0.4-0.4-0.7-0.6-1.1-0.6c-0.4-0.1-0.8,0.1-1.1,0.4c-0.3,0.3-0.4,0.7-0.4,1.1c0.1,0.4,0.3,0.8,0.6,1.1l0.9,0.9
		c0.4,0.4,0.8,0.6,1.2,0.6s0.8-0.1,1.1-0.4c0.3-0.3,0.4-0.7,0.4-1.1c-0.1-0.4-0.3-0.8-0.6-1.1L17.2,49.7z"/>
	<path class="st1" d="M23.4,46.8c-0.2-0.2-0.4-0.3-0.6-0.2s-0.5,0.1-0.9,0.3c-0.8,0.4-1.5,0.7-2,0.8c-0.5,0.1-1-0.1-1.5-0.5
		c-0.4-0.4-0.6-0.9-0.5-1.6c0.1-0.6,0.4-1.2,1-1.8c0.6-0.6,1.1-0.9,1.8-1c0.6-0.1,1.2,0.1,1.6,0.6l0,0l-1.1,1.1
		c-0.2-0.2-0.4-0.3-0.7-0.3c-0.3,0-0.5,0.1-0.7,0.4c-0.2,0.2-0.4,0.5-0.4,0.7c0,0.2,0,0.4,0.2,0.6c0.1,0.1,0.3,0.2,0.6,0.1
		c0.2,0,0.6-0.2,1.1-0.4c0.7-0.4,1.4-0.6,1.9-0.7c0.5,0,1,0.1,1.5,0.6c0.4,0.4,0.6,1,0.5,1.5c-0.1,0.6-0.4,1.2-1,1.8
		c-0.6,0.6-1.2,0.9-1.9,1.1c-0.7,0.1-1.3-0.1-1.9-0.6l0,0l1.1-1.1c0.3,0.3,0.6,0.4,0.9,0.4s0.6-0.2,0.9-0.5c0.2-0.2,0.4-0.5,0.4-0.7
		C23.6,47.1,23.5,47,23.4,46.8z"/>
	<path class="st1" d="M25.8,38.7L24.5,40l4.2,4.1l-1.2,1.2l-4.2-4.1L22,42.5l-0.9-0.9l3.8-3.8L25.8,38.7z"/>
	<path class="st1" d="M31.6,37.6l1.7,1.7l-1.2,1.2l-5.1-5l2-2.1c0.6-0.6,1.2-0.9,1.9-1c0.7-0.1,1.2,0.2,1.7,0.7
		c0.5,0.5,0.7,1.1,0.7,1.7c0,0.7-0.4,1.3-0.9,1.9L31.6,37.6z M30.7,36.7l0.9-0.9c0.3-0.3,0.4-0.5,0.4-0.8c0-0.3-0.1-0.5-0.3-0.7
		c-0.2-0.2-0.5-0.3-0.8-0.3c-0.3,0-0.5,0.1-0.8,0.4l-0.9,0.9L30.7,36.7z"/>
	<path class="st1" d="M38.8,29.6c0.6,0.6,0.9,1.3,1,2.1c0,0.8-0.3,1.5-0.9,2.1c-0.6,0.6-1.3,1-2.1,1s-1.5-0.3-2.1-0.9L33.7,33
		c-0.6-0.6-0.9-1.3-1-2.1c0-0.8,0.3-1.5,0.9-2.2c0.6-0.6,1.3-1,2.1-1c0.8,0,1.5,0.3,2.1,0.9L38.8,29.6z M36.7,29.9
		c-0.4-0.4-0.7-0.6-1.1-0.6c-0.4-0.1-0.8,0.1-1.1,0.4c-0.3,0.3-0.4,0.7-0.4,1.1c0.1,0.4,0.3,0.8,0.6,1.1l0.9,0.9
		c0.4,0.4,0.8,0.6,1.2,0.6c0.4,0.1,0.8-0.1,1.1-0.4c0.3-0.3,0.4-0.7,0.4-1.1c-0.1-0.4-0.3-0.8-0.6-1.1L36.7,29.9z"/>
	<path class="st1" d="M41,28.1l1.7,1.7l-1.2,1.2l-5.1-5l2-2.1c0.6-0.6,1.2-0.9,1.9-1c0.7-0.1,1.2,0.2,1.7,0.7
		c0.5,0.5,0.7,1.1,0.7,1.7c0,0.7-0.4,1.3-0.9,1.9L41,28.1z M40.1,27.2l0.9-0.9c0.3-0.3,0.4-0.5,0.4-0.8c0-0.3-0.1-0.5-0.3-0.7
		c-0.2-0.2-0.5-0.3-0.8-0.3c-0.3,0-0.5,0.1-0.8,0.4l-0.9,0.9L40.1,27.2z"/>
	<path class="st1" d="M45.1,17.1l3.3,3.3c0.6,0.6,0.8,1.2,0.8,1.9c-0.1,0.7-0.4,1.4-1,2c-0.6,0.6-1.3,1-2,1.1
		c-0.7,0.1-1.3-0.2-1.9-0.7L41,21.3l1.2-1.2l3.3,3.3c0.3,0.3,0.6,0.5,0.9,0.4c0.3,0,0.6-0.2,0.9-0.5c0.3-0.3,0.4-0.6,0.4-0.9
		c0-0.3-0.1-0.6-0.5-0.9L44,18.3L45.1,17.1z"/>
	<path class="st1" d="M51.2,19.2l2.1-2.2l0.9,0.9L51,21.3l-5.1-5l1.2-1.2L51.2,19.2z"/>
	<path class="st1" d="M56.5,13.7l-1.6,1.6l0.7,1.3l-1.2,1.2L51,11.1l1.2-1.3l6.7,3.3l-1.2,1.2L56.5,13.7z M54.3,14.2l1.1-1.1
		L53,11.8l0,0L54.3,14.2z"/>
	<path class="st1" d="M58.5,9.8l1.9,1.9l-1.2,1.2l-5.1-5l1.9-2c0.6-0.6,1.2-0.9,1.8-1c0.6-0.1,1.1,0.1,1.6,0.6
		C59.8,5.8,59.9,6,60,6.4C60,6.7,60,7,59.9,7.4c0.4-0.2,0.8-0.3,1.1-0.2c0.3,0.1,0.7,0.2,1,0.5l0.3,0.3c0.1,0.1,0.3,0.3,0.5,0.4
		c0.2,0.1,0.4,0.2,0.6,0.1l0.1,0.1l-1.2,1.2c-0.2,0-0.4,0-0.6-0.2c-0.2-0.2-0.4-0.3-0.6-0.5l-0.3-0.3c-0.2-0.2-0.5-0.4-0.7-0.4
		c-0.3,0-0.5,0.1-0.7,0.4L58.5,9.8z M57.6,8.9l0.8-0.8c0.2-0.2,0.4-0.5,0.4-0.7c0-0.2-0.1-0.4-0.3-0.6c-0.2-0.2-0.4-0.3-0.7-0.3
		c-0.3,0-0.5,0.1-0.7,0.4l-0.8,0.8L57.6,8.9z"/>
</g>
</svg>
