<?xml version="1.0" encoding="utf-8"?>
<!-- Generator: Adobe Illustrator 24.2.1, SVG Export Plug-In . SVG Version: 6.00 Build 0)  -->
<svg version="1.1" id="Layer_1" xmlns="http://www.w3.org/2000/svg" xmlns:xlink="http://www.w3.org/1999/xlink" x="0px" y="0px"
	 viewBox="0 0 800 539.6" style="enable-background:new 0 0 800 539.6;" xml:space="preserve">
<style type="text/css">
	.st0{fill:#2D8733;}
	.st1{fill:#51AD5B;}
	.st2{fill:#FFFFFF;}
	.st3{fill:#07214F;}
	.st4{fill:#253863;}
	.st5{opacity:0.4;}
</style>
<g id="_x32_7">
	<g>
		<path class="st0" d="M543.6,349.9l-0.1,0.4l1-0.2l2.1,0.6c2.3,0.6,2.7,3.5,1.3,8.6c-7.7,40.2-31.2,71.8-18.4,113.4
			c24.2-6.9,26.1-31.8,32-53.7l0.4,0.1l-0.2-1c16.6-59.6,15.1-58.8,16.8-58.3l42.8,11.6l0.7,0.7c-0.1,0.2-0.5,1.3-1.4,3.3
			c-2.9,10.6-8.6,33.2-17.1,67.9c-12.6,46.5-29.4,72.3-50.5,77.7c-11.7,3.9-24.8,3.8-39.4-0.2c-56.6-15.4-50.5-79.3-35.2-135.8
			c4.5-16.5,9.8-32.5,15.8-48c1.9,0.6,5.2,1.3,11,3.4C525,345.2,537.8,348.4,543.6,349.9z"/>
	</g>
	<g>
		<path class="st1" d="M612.1,362c-44.6-11.8-43.3-12.5-43.9-11l-15.7,57.7l0.2,1l-0.4-0.1c-6.1,22.6-7.9,46.8-32.1,53.7
			c-5-16.4-4.9-34.4,0.4-54.1c8.5-25.9,15.4-45.4,17.9-59.4c2.8-10.2-2.4-8.3-3.5-9.2l-1,0.2l0.1-0.4c-5.8-1.6-18.6-4.8-38.2-9.5
			c-6.4-2.3-10.5-3.3-11-3.4c-15.9,40.8-39.1,116.1-17.4,155.9c7.5,14,19.8,23.3,36.8,27.9c14.6,4,27.8,4,39.5,0.2
			c21-5.3,37.8-31.2,50.4-77.7c20.8-84.7,17.5-67.6,18.4-71.2L612.1,362z"/>
	</g>
	<g>
		<path class="st0" d="M420.6,344.8c2.5,1.5,40,7,51.4,55.3c1.1,10.9,1.9,17,2.4,18.3c2,9.3,0.3,9.1-7.3,38.1
			c-6.2,20.5-19.2,36.5-39,47.9c-18.9,9.4-39.2,10.9-61,4.3c-13.4-4-26.3-12.2-38.8-24.7c-5.4-3.7-9-11.7-10.8-24.1
			c-1.5-2.4-2.2-9.7-2.2-21.9c0.9-27.5,5.3-34.6,6.7-40.6c8.5-28.1,27.9-46.1,58.4-54.1C394.6,340.5,408,341,420.6,344.8z
			 M378.8,465c1.5,0.8,2.7,1.3,3.7,1.6c13.1,3.9,24.5-16.9,28.4-29.8l0.4,0.1l-0.2-1l1.5-5.1c5.2-17.3,4.8-31.3-1.2-42
			c-1.3-1.9-3.3-3.3-5.7-4c-7.6-2.3-15.3,3.9-23.1,18.5C374,420.6,364.2,452.2,378.8,465z"/>
	</g>
	<g>
		<path class="st1" d="M465.3,408.6c-0.4-1.3-1.2-7.4-2.4-18.3c-6.7-28.5-23.3-46.8-49.6-54.8c-1.7-0.3-18-6.7-42-2
			c-28.8,7.5-49.6,24.7-58.4,54.1c-1.3,5.6-5.8,13.2-6.7,40.5c-0.1,12.2,0.6,19.6,2.2,22c1.8,12.3,5.4,20.4,10.8,24
			c11.1,11.1,23.9,20.1,38.8,24.7c21.7,6.6,42.1,5.1,61-4.3c19.8-11.4,32.8-27.4,39-47.9C465.1,419.3,467.4,418.5,465.3,408.6z
			 M403.7,421l-1.5,5.1l0.2,1l-0.4-0.1c-3.9,12.9-15.4,33.7-28.4,29.8c-1-0.3-2.2-0.8-3.7-1.5c-14.7-12.8-4.8-44.6,3.8-61.8
			c7.9-14.6,15.6-20.7,23.1-18.4c2.5,0.7,4.4,2.1,5.8,4C408.5,389.7,408.9,403.7,403.7,421z"/>
	</g>
	<g>
		<path class="st0" d="M168.6,382.4c20.6-1.9,42.9-6.8,67-14.8c0.8,0.2,3.7,4.4,8.8,12.5c6.5,8.4,10.3,14.2,11.3,17.2l0.8-0.3
			c2.4-12.5,2.7-21.4,1-26.5c-1.2-7.1-0.9-10.9,0.9-11.5c21.3-8.7,34.9-14.5,40.9-17.3c0-0.3,1.5-1.7,4.6-4.3
			c2.8,3.8,5,7.9,6.4,12.3c4.1,12.2,3.7,37.7-1.2,76.5c-0.3,17.5,0.4,29.1,2.2,34.7c1.1,3.3,7.4,13.9,19,32c2.5,5.4,6.3,15.4,1.7,19
			c-5.5,2.2-82.1,31-83.4,27.3c-4.6-8.7-5.4-18-2.4-27.7l-2.5-7.6c-15.6-47-65.1-91.8-75.9-120.9L168.6,382.4z"/>
	</g>
	<g>
		<path class="st1" d="M155.6,379.6c20.6-1.9,42.9-6.8,67-14.8c0.8,0.2,3.7,4.4,8.8,12.5c6.5,8.4,10.3,14.2,11.3,17.2l0.8-0.3
			c2.4-12.5,2.7-21.4,1-26.5c-1.2-7.1-0.9-10.9,0.9-11.5c21.3-8.7,34.9-14.5,40.9-17.3c0-0.3,1.5-1.7,4.6-4.3
			c2.8,3.8,5,7.9,6.4,12.3c4.1,12.2,3.7,37.7-1.2,76.5c-0.3,17.5,0.4,29.1,2.2,34.7c1.1,3.3,7.4,13.9,19,32c2.5,5.4,6.3,15.4,1.7,19
			c-5.5,2.2-82.1,31-83.4,27.3c-4.6-8.7-5.4-18-2.4-27.7l-2.5-7.6c-15.6-47-65.1-91.8-75.9-120.9L155.6,379.6z"/>
	</g>
	<g>
		<circle class="st2" cx="272.4" cy="367.9" r="10.8"/>
	</g>
	<g>
		
			<ellipse transform="matrix(0.2298 -0.9732 0.9732 0.2298 -41.4741 648.4589)" class="st2" cx="388.9" cy="350.4" rx="10.8" ry="10.8"/>
	</g>
	<g>
		<circle class="st2" cx="504" cy="352.4" r="10.8"/>
	</g>
	<g>
		<path d="M271.1,366.2V2.5c0-0.7,0.6-1.3,1.3-1.3c0.7,0,1.3,0.6,1.3,1.3v363.7C273.7,367.9,271.1,367.9,271.1,366.2z"/>
	</g>
	<g>
		<path d="M387.7,350V2.5c0-0.7,0.6-1.3,1.3-1.3c0.7,0,1.3,0.6,1.3,1.3V350C390.2,351.7,387.7,351.7,387.7,350z"/>
	</g>
	<g>
		<path d="M502.7,352.4V2.5c0-0.7,0.6-1.3,1.3-1.3c0.7,0,1.3,0.6,1.3,1.3v349.9C505.3,354.1,502.7,354.1,502.7,352.4z"/>
	</g>
	<g>
		<path class="st3" d="M704.7,101.8c1.6,0.8,5.1,1.5,8.1,2.3l0.8,0.6c-3,16-5.3,25.8-9.1,40.2c2.5-0.6,8.2-6.7,16.9-18.4
			c7.6-8.2,11.9-13.9,12.9-17l1-0.2l63.9,14.5l0.8,0.6c-8,9.7-24.9,28.9-50.8,57.5c-0.4,1.9-3.8,6.1-10.1,12.7
			c0.1,2.1,2.8,11.3,8.2,27.8c-0.5,2.1,2.7,12.9,9.4,32.6c3.3,18.6,5.4,28.8,6.3,30.5l-0.1,0.4c-0.9,1.2-6.9,0.9-18-0.9
			c-25.4-6.1-41.2-9.8-47.4-11.2c0.1-0.3,0-0.5-0.3-0.5c0.8-1,1.3-1.8,1.5-2.4c0.3-1.2-1.7-7.7-6-19.5c-1.5-7.9-3-14.3-4.3-19.1
			c-1.4-3.7-2.4-5.5-2.8-5.6c-3.3,13-3.2,10.2-3,13.4l-0.4-0.1c-0.1,0.3,0,0.5,0.3,0.5c-1.7,8.9-3,15.4-4,19.5
			c-2,7.9-1.5,9.2-2.9,8.9c-4.1-0.9-7.4-1.8-9.8-2.7c-14.3-2.6-29.1-5.7-44.3-9.1l-0.2-1c5.9-26.1-14.8,65,37.1-163.7
			C666.1,94.2,699.3,101.1,704.7,101.8z"/>
	</g>
	<g>
		<path class="st4" d="M737.7,213.2c-5.4-16.5-8.2-25.7-8.2-27.7c6.4-6.6,9.7-10.8,10.1-12.7c25.9-28.6,42.8-47.8,50.7-57.5
			l-0.7-0.6l-63.9-14.5l-1,0.2c-1,3.2-5.3,8.9-13,17c-8.7,11.8-14.3,17.9-16.9,18.4c4.8-18,6.9-28.5,9.1-40.2l-0.8-0.6
			c-7-1.8-7.1-1.8-8.1-2.3c-4.3-0.6-39.6-8-46.4-9.6c-1.9,8.6-3.3,14-4.1,16.3c-13.7,63-14.9,67.1-33,147.4l0.3,1
			c16.6,3.7,28.4,6.1,44.2,9.1c2.5,0.9,5.8,1.7,9.8,2.7c1.5,0.3,0.9-1.1,2.9-8.9c1-4.2,2.3-10.7,4-19.6c-0.3-0.1-0.4-0.3-0.4-0.5
			l0.4,0.1c-0.1-2.4,0.1-2.4,3-13.4c0.4,0.1,1.4,2,2.8,5.7c1.3,4.8,2.7,11.2,4.3,19.1c4.3,11.8,6.3,18.3,6,19.6
			c-0.2,0.5-0.6,1.3-1.4,2.4c0.3,0.1,0.4,0.3,0.3,0.5c6.2,1.4,22,5.2,47.4,11.2c11,1.8,17,2,17.9,0.9l0.1-0.4
			c-0.9-1.7-2.9-11.9-6.2-30.5C740.3,226.2,737.2,215.3,737.7,213.2z"/>
	</g>
	<g>
		<path class="st3" d="M509.1,110.3c6.7,7.9,14.5,15.4,23.5,22.5c16,12.9,26.1,22.8,30.1,29.7l0.9-0.2c-0.4-15.1-3-17.9-1.7-18.2
			l-0.6-0.8c-7.8-35.8-10.8-42.1-8.4-42.6l45-9.8l1,0.2c0.3,1.2,1.8,7.7,4.7,19.4c24,115,26.9,127.4,29.1,137.8l1.1,2.9l-0.4,0.1
			l0.6,0.8l0.7,3l-0.2,1c-3.1-0.5-7-0.3-11.6,0.7c-43.6,13.1-26.4,7.6-41.2,10.8c-3.5-4.7-13.9-15.1-31.3-31.3
			c-0.4-1.8-21.6-15.8-21.8-17l-0.9,0.2c1.5,12.2,1,9.4,11.5,54.6c-2.9,2.1-7.8,4-14.7,5.5l-2.1,0.9l-0.1-0.4l-0.8,0.6
			c-28.2,5.9-28.4,7-28.8,5.4l-35.7-163.6C456.8,120.9,455.2,122.4,509.1,110.3z"/>
	</g>
	<g>
		<path class="st4" d="M621.3,248.1l-0.6-0.8l0.4-0.1l-1.1-2.9c-0.6-2.6-6.3-27.6-29.2-137.8c-2.8-11.7-4.4-18.2-4.7-19.4l-0.9-0.2
			l-45,9.8c-0.6,0.1-0.9,1-0.9,2.4c5.6,24,8.7,37.4,9.2,40.2l0.6,0.8c-0.3,0.1-0.4,0.2-0.3,0.5c1.2,5.6,1.9,11.4,2,17.7l-0.9,0.2
			c-4-6.9-14-16.8-30-29.7c-9-7.1-16.8-14.6-23.5-22.5c-55.8,12.2-52.3,10.9-52.2,12.3c38.2,175.2,35.4,164.6,36.7,164.3l27.7-6
			l0.7-0.6l0.1,0.4l2.1-0.9c6.9-1.5,11.8-3.4,14.7-5.5c-10.9-46.4-10.2-44.1-11.5-54.6l0.9-0.2c0.2,1.1,21.4,15.2,21.8,17
			c17.4,16.1,27.8,26.5,31.3,31.3c2.1-0.5,5.4-1.1,10-1.8c2.4-0.5,12.8-3.5,31.1-9c4.6-1,8.5-1.3,11.6-0.7l0.2-1L621.3,248.1z"/>
	</g>
	<g>
		<path class="st3" d="M458.1,109.1c5.3,73.6,5.8,126.2,1.6,157.6l0.2,1.8l-0.4-0.1l0.3,0.9l-1.8,13.2l-0.6,0.8
			c-23.9-9.2-45.4-15.1-64.7-17.6c-1.3-5.6-2.2-16-2.5-31.2c-8.7-1.3-25.3-4.3-25.8-0.8c-3.9,4.6-6.8,13.8-8.6,27.4
			c-17.5-0.3-34.4,0.1-50.7,1.2l-0.7-4.6c1-3.6,2-10.3,1.7-12.3c1.6-6.5,1.6-9.3,3.5-22.3c0.3-2.4,2.1-8.9,5.3-19.4
			c0.8-3.9,1.4-7.3,1.8-10l0.4,0.1c0-0.3-0.1-0.5-0.4-0.5c16.2-70,18.5-65.8,22.4-76.5c-0.2-1.1-0.2-1.7-0.2-1.8
			c0.3-2.3,3.5-9.2,9.5-20.6C386.7,95.6,421.4,99.7,458.1,109.1z M382.4,156.4c0,0.7-0.6,2.6,0.2,4c-1.6,4.8-5.6,14.2-12,28
			c0.4,0.7,0.7,2.5,0.8,5.2c3.8-0.3,7.2-0.2,10.4,0.3c12,1.3,13.8,2.6,14,0.7l0.1-0.6c-4.8-4.8-6.4-13.2-4.8-25.1
			C389.7,161.2,386.8,157,382.4,156.4z"/>
	</g>
	<g>
		<path class="st4" d="M447.6,100.9c-37.2-9.5-71.6-13.4-109.8-14.8c-6,11.4-9.1,18.3-9.5,20.6c0,0.2,0.1,0.7,0.2,1.8
			c-3.3,10.9-4.4-0.7-22.4,76.6c0.3,0.1,0.4,0.2,0.4,0.5l-0.4-0.1c-0.4,2.8-1,6.1-1.8,10c-3.2,10.5-5,17-5.3,19.4
			c-1.5,10.6-1.8,15.8-3.5,22.3c0.4,1.8-0.6,8.9-1.7,12.3l0.7,4.5c17.5-1.2,36.8-1.5,50.7-1.2c1.8-13.7,4.7-22.9,8.6-27.5
			c0.4-3.5,17.1-0.5,25.8,0.7c0.4,15.2,1.2,25.6,2.5,31.2c19.2,2.6,40.8,8.5,64.7,17.6l0.5-0.8l1.8-13.1l-0.3-1l0.5,0.1
			C450.1,244.5,456,217.2,447.6,100.9z M386.8,186c-0.3,1.8-2.1,0.5-15.4-1c-3.5-0.5-7.3-0.6-11.4-0.4c-0.2-2.7-0.5-4.4-1-5.1
			c6.7-13.2,10.8-22.2,12.6-26.8c-1-1.4-0.4-3.3-0.3-3.9c4.8,0.6,8.1,4.8,9.8,12.3c-1.5,11.5,0.4,19.6,5.7,24.3L386.8,186z"/>
	</g>
	<g>
		<path class="st3" d="M166.2,125l17.4-5.1c4.5-1.3,7.5,0.3,8.8,4.8c0.2-0.1,2.3,5.6,6.4,17.1l1.4,4.7c5.3,18.1,8.5,27,9.7,26.7
			c2-2.2,1.5-1.1,22.3-7.4c1.6-0.5,1,1.2-14.5-52.5c-0.3-1.7-2.1,0,55.4-17.2c1.7-0.3-2.3-9.9,47.1,159.3
			c-0.9,0.9,3.8-0.4-49.3,14.4l-2.8,1.3l-0.1-0.4l-0.7,0.7c-1.7,0.3-2.8,1.3-3.2,0L248.7,219c-16.5,4.2,0.8-0.6-27,7l15.6,53.1
			c0.2,0.6,0,0.9-0.6,1.1l-54.8,16.1l-1-0.2c-6.4-26.3-24.8-88.7-33-112.7c-1-8.1-3.2-7.9-7-20.6l-2.9-9.8
			c-4.8-11.3-2.7-6.7-4.6-12.5c-1.2-4.3,0.1-7,4.1-8.1C162.9,126.7,149.4,131.6,166.2,125z"/>
	</g>
	<g>
		<path class="st4" d="M261.4,93.3c-0.5-1.6,1.3-0.9-55.9,15.5c-0.5,0.1-0.7,0.5-0.6,1.1c15.4,53.6,16.1,52.1,14.4,52.6l-20,5.8
			c-0.7,0.3-1.5,0.8-2.3,1.6c-1.1,0.3-4.3-8.5-9.7-26.7l-1.3-4.6c-4.1-11.4-6.2-17.1-6.4-17.1c-1.3-4.5-4.3-6.1-8.8-4.8
			c-10.2,3.2-14.9,3.9-24.4,7.9c-1.8,0.6-2.8,1-3,1.1c-21.3,3.4-14,2.5-18.8,3.6c-8,2.4-3,10.1-2.7,12.8c0.2,0.5,1.2,3.2,3.2,7.8
			l2.8,9.8c3.5,12,5.7,11.9,7,20.6c8.8,25.8,27,87.9,33,112.6l1,0.2c57.4-17.2,55.9-15.6,55.4-17.1l-15.5-53.2
			c4.4-1.2,4.4-1.6,26.6-6.9l0.4-0.1c16.3,54.4,14.8,53.4,16.4,52.9l2.1-0.6l0.7-0.6l0.1,0.4l2.8-1.3c52.8-14.8,48.2-13.5,49.4-14.4
			L261.4,93.3z"/>
	</g>
	<g>
		<path class="st3" d="M160,121l0.8,0.5l-0.9,3.9c-3,25.6-4.7,40.4-5.2,44.4l-0.9,0.3l-42.2-5.4l-4.5,28.5
			c-4.9,39.1-5.5,63.6-12.7,89.5c-23.9-3.6-32.9-4.8-55.4-7l-0.3-0.9l14.7-115.6c-7.8-4.6-3.4-2.2-42.5-7.2l-0.3-0.9l6-47.5
			C17,102,8.1,102,160,121z"/>
	</g>
	<g>
		<path class="st4" d="M149.5,112.9l0.8,0.5l-0.9,3.9c-3,25.6-4.7,40.4-5.2,44.4l-0.9,0.3l-42.2-5.4l-4.5,28.5
			c-4.9,39.1-5.5,63.6-12.7,89.5c-23.9-3.6-32.9-4.8-55.4-7l-0.3-0.9l14.7-115.6c-3.3-1.9-5.7-2.9-7.2-3.1c-14-1.5-32.8-3.7-35.3-4
			L0,143l6-47.5C6.5,93.9-2.4,93.9,149.5,112.9z"/>
	</g>
	<g>
		<circle class="st2" cx="80.2" cy="124.9" r="10.8"/>
	</g>
	<g>
		<circle class="st2" cx="239.9" cy="120.4" r="10.8"/>
	</g>
	<g>
		
			<ellipse transform="matrix(0.2298 -0.9732 0.9732 0.2298 165.129 431.0875)" class="st2" cx="354.9" cy="111.2" rx="10.8" ry="10.8"/>
	</g>
	<g>
		<circle class="st2" cx="568.5" cy="109.6" r="10.8"/>
	</g>
	<g>
		<circle class="st2" cx="669.5" cy="109.6" r="10.8"/>
	</g>
	<g>
		<path d="M79,124.9V2.5c0-0.7,0.6-1.3,1.3-1.3s1.3,0.6,1.3,1.3v122.4C81.5,126.6,79,126.6,79,124.9z"/>
	</g>
	<g>
		<path d="M238.6,122V2.5c0-0.7,0.6-1.3,1.3-1.3s1.3,0.6,1.3,1.3V122C241.2,123.7,238.6,123.7,238.6,122z"/>
	</g>
	<g>
		<path d="M567.2,109.6V2.5c0-0.7,0.6-1.3,1.3-1.3c0.7,0,1.3,0.6,1.3,1.3v107.1C569.8,111.3,567.2,111.3,567.2,109.6z"/>
	</g>
	<g>
		<path d="M668.3,109.6V1.3c0-0.7,0.6-1.3,1.3-1.3c0.7,0,1.3,0.6,1.3,1.3v108.3C670.8,111.3,668.3,111.3,668.3,109.6z"/>
	</g>
	<g class="st5">
		<g>
			<path class="st2" d="M49.8,247.4c1.1-10.5,2.2-20.9,3.3-31.4c0.8-7.9-11.5-7.8-12.3,0c-1.1,10.5-2.2,20.9-3.3,31.4
				C36.7,255.3,49,255.3,49.8,247.4L49.8,247.4z"/>
		</g>
	</g>
	<g class="st5">
		<g>
			<path class="st2" d="M56.6,191.5c0-0.5-0.1-1.2,0-1.7c0.6-3.3-0.9-6.6-4.3-7.6c-3-0.8-7,1-7.6,4.3c-0.3,1.7-0.5,3.3-0.4,5
				c0.2,3.3,2.7,6.2,6.2,6.2C53.6,197.7,56.8,194.9,56.6,191.5L56.6,191.5z"/>
		</g>
	</g>
	<g class="st5">
		<g>
			<path class="st2" d="M153,214.9c2.3,6.5,4.5,13,6.5,19.6c2.3,7.6,14.2,4.3,11.9-3.3c-2-6.6-4.1-13.1-6.5-19.6
				C162.2,204.2,150.3,207.4,153,214.9L153,214.9z"/>
		</g>
	</g>
	<g class="st5">
		<g>
			<path class="st2" d="M165.6,253c0.2,1.5,0.3,3,0.8,4.4c1,3.2,4.3,5.2,7.6,4.3c3.1-0.8,5.3-4.4,4.3-7.6c-0.1-0.4-0.3-0.8-0.4-1.2
				c-0.3-3.3-2.6-6.2-6.2-6.2C168.7,246.9,165.2,249.7,165.6,253L165.6,253z"/>
		</g>
	</g>
	<g class="st5">
		<g>
			<path class="st2" d="M423.1,116.3c0.6,9.2-1.2,18.4-0.1,27.7c0.9,7.8,13.3,7.9,12.3,0c-1.1-9.2,0.7-18.4,0.1-27.7
				C434.9,108.5,422.6,108.4,423.1,116.3L423.1,116.3z"/>
		</g>
	</g>
	<g class="st5">
		<g>
			<path class="st2" d="M423.3,170.1c0.3,1.4,0.6,2.7,0.9,4.1c0.7,3.3,4.5,5.1,7.6,4.3c3.4-0.9,5-4.3,4.3-7.6
				c-0.3-1.4-0.6-2.7-0.9-4.1c-0.7-3.3-4.5-5.1-7.6-4.3C424.2,163.4,422.6,166.8,423.3,170.1L423.3,170.1z"/>
		</g>
	</g>
	<g class="st5">
		<g>
			<path class="st2" d="M497.5,137.1c6.7,6.9,13.3,13.9,20,20.8c5.5,5.7,14.2-3,8.7-8.7c-6.7-6.9-13.3-13.9-20-20.8
				C500.8,122.7,492.1,131.4,497.5,137.1L497.5,137.1z"/>
		</g>
	</g>
	<g class="st5">
		<g>
			<path class="st2" d="M533,172.4c12.1,11,19-5.1,9.4-8.3c-0.2-0.1-0.6-0.3-0.7-0.4c-2.5-2.2-6.3-2.4-8.7,0
				C530.8,165.9,530.6,170.1,533,172.4L533,172.4z"/>
		</g>
	</g>
	<g class="st5">
		<g>
			<path class="st2" d="M646.4,130.1c-1.9,8.2-3.7,16.5-5.6,24.7c-1.7,7.7,10.1,11,11.9,3.3c1.9-8.2,3.7-16.5,5.6-24.7
				C660,125.7,648.1,122.4,646.4,130.1L646.4,130.1z"/>
		</g>
	</g>
	<g class="st5">
		<g>
			<path class="st2" d="M637,172.9c-0.3,1.4-0.5,2.8-0.4,4.3c0.2,3.3,2.7,6.2,6.2,6.2c3.2,0,6.4-2.8,6.2-6.2c0-0.3,0-0.7-0.1-1
				c0.6-3.3-0.9-6.6-4.3-7.6C641.6,167.8,637.6,169.6,637,172.9L637,172.9z"/>
		</g>
	</g>
	<g class="st5">
		<g>
			<path class="st2" d="M185.2,412c6.7,8.4,13.4,16.8,20.1,25.2c4.9,6.2,13.6-2.6,8.7-8.7c-6.7-8.4-13.4-16.8-20.1-25.2
				C189,397.1,180.3,405.9,185.2,412L185.2,412z"/>
		</g>
	</g>
	<g class="st5">
		<g>
			<path class="st2" d="M220.1,454.5c1.1,1.6,2.3,3.1,3.6,4.4c5.6,5.6,14.3-3.1,8.7-8.7c-0.6-0.6-1.2-1.2-1.7-1.9
				c-1.9-2.7-5.4-4-8.4-2.2C219.6,447.7,218.2,451.7,220.1,454.5L220.1,454.5z"/>
		</g>
	</g>
	<g class="st5">
		<g>
			<path class="st2" d="M431.5,369.7c5.8,9.2,8.8,19.2,8.8,30.1c0,7.9,12.3,7.9,12.3,0c0-13-3.6-25.3-10.5-36.3
				C437.9,356.9,427.2,363,431.5,369.7L431.5,369.7z"/>
		</g>
	</g>
	<g class="st5">
		<g>
			<path class="st2" d="M436.9,421.5c-0.3,0.8-0.6,1.6-0.9,2.5c-1.2,3.1,1.3,6.7,4.3,7.6c3.5,1,6.4-1.2,7.6-4.3
				c0.3-0.8,0.6-1.6,0.9-2.5c1.2-3.1-1.3-6.7-4.3-7.6C441.1,416.3,438.1,418.4,436.9,421.5L436.9,421.5z"/>
		</g>
	</g>
	<g class="st5">
		<g>
			<path class="st2" d="M493.7,497.5c12.5,5.5,25.7,8.9,39,4.4c7.5-2.5,4.3-14.4-3.3-11.9c-10.1,3.4-20,1.1-29.5-3.1
				C492.8,483.7,486.5,494.3,493.7,497.5L493.7,497.5z"/>
		</g>
	</g>
	<g class="st5">
		<g>
			<path class="st2" d="M556.1,493.4c2.7-1.9,4-5.4,2.2-8.4c-1.6-2.7-5.7-4.2-8.4-2.2c-1,0.7,0.1,0.2-1.1,0.5
				c-3.3,0.6-5.1,4.5-4.3,7.6c0.9,3.4,4.3,4.9,7.6,4.3C553.4,494.7,554.4,494.6,556.1,493.4z"/>
		</g>
	</g>
</g>
</svg>
